%TF.GenerationSoftware,KiCad,Pcbnew,6.0.8-f2edbf62ab~116~ubuntu22.04.1*%
%TF.CreationDate,2022-10-10T15:37:35-06:00*%
%TF.ProjectId,PPP_pcb,5050505f-7063-4622-9e6b-696361645f70,rev?*%
%TF.SameCoordinates,Original*%
%TF.FileFunction,Drillmap*%
%TF.FilePolarity,Positive*%
%FSLAX45Y45*%
G04 Gerber Fmt 4.5, Leading zero omitted, Abs format (unit mm)*
G04 Created by KiCad (PCBNEW 6.0.8-f2edbf62ab~116~ubuntu22.04.1) date 2022-10-10 15:37:35*
%MOMM*%
%LPD*%
G01*
G04 APERTURE LIST*
%ADD10C,0.050000*%
%ADD11C,0.200000*%
%ADD12C,0.065000*%
%ADD13C,0.150000*%
%ADD14C,0.170180*%
%ADD15C,0.210000*%
%ADD16C,0.300000*%
%ADD17C,0.320000*%
%ADD18C,0.398780*%
G04 APERTURE END LIST*
D10*
X14478000Y-3556000D02*
X8636000Y-3556000D01*
X16002000Y-3556000D02*
X15748000Y-3302000D01*
X15748000Y-3302000D02*
X14732000Y-3302000D01*
X7874000Y-12954000D02*
X8636000Y-13716000D01*
X8636000Y-13716000D02*
X24638000Y-13716000D01*
X25400000Y-4318000D02*
X24638000Y-3556000D01*
X8636000Y-3556000D02*
X7874000Y-4318000D01*
X24638000Y-3556000D02*
X16002000Y-3556000D01*
X25400000Y-12954000D02*
X25400000Y-4318000D01*
X24638000Y-13716000D02*
X25400000Y-12954000D01*
X14732000Y-3302000D02*
X14478000Y-3556000D01*
X7874000Y-4318000D02*
X7874000Y-12954000D01*
D11*
D12*
X14918500Y-3891500D02*
X14983500Y-3956500D01*
X14983500Y-3891500D02*
X14918500Y-3956500D01*
X15496500Y-3891500D02*
X15561500Y-3956500D01*
X15561500Y-3891500D02*
X15496500Y-3956500D01*
D13*
X17487000Y-11411500D02*
G75*
G03*
X17487000Y-11411500I-75000J0D01*
G01*
X17487000Y-11956500D02*
G75*
G03*
X17487000Y-11956500I-75000J0D01*
G01*
X17790000Y-11441500D02*
G75*
G03*
X17790000Y-11441500I-75000J0D01*
G01*
X17790000Y-11926500D02*
G75*
G03*
X17790000Y-11926500I-75000J0D01*
G01*
D14*
X9144000Y-4486910D02*
X9144000Y-4657090D01*
X9058910Y-4572000D02*
X9229090Y-4572000D01*
X9398000Y-8042910D02*
X9398000Y-8213090D01*
X9312910Y-8128000D02*
X9483090Y-8128000D01*
X10160000Y-4486910D02*
X10160000Y-4657090D01*
X10074910Y-4572000D02*
X10245090Y-4572000D01*
X10414000Y-8042910D02*
X10414000Y-8213090D01*
X10328910Y-8128000D02*
X10499090Y-8128000D01*
X11430000Y-4486910D02*
X11430000Y-4657090D01*
X11344910Y-4572000D02*
X11515090Y-4572000D01*
X11684000Y-8042910D02*
X11684000Y-8213090D01*
X11598910Y-8128000D02*
X11769090Y-8128000D01*
X12446000Y-4486910D02*
X12446000Y-4657090D01*
X12360910Y-4572000D02*
X12531090Y-4572000D01*
X12700000Y-8042910D02*
X12700000Y-8213090D01*
X12614910Y-8128000D02*
X12785090Y-8128000D01*
X13716000Y-8804910D02*
X13716000Y-8975090D01*
X13630910Y-8890000D02*
X13801090Y-8890000D01*
X14732000Y-8804910D02*
X14732000Y-8975090D01*
X14646910Y-8890000D02*
X14817090Y-8890000D01*
X14732000Y-12614910D02*
X14732000Y-12785090D01*
X14646910Y-12700000D02*
X14817090Y-12700000D01*
X15748000Y-12614910D02*
X15748000Y-12785090D01*
X15662910Y-12700000D02*
X15833090Y-12700000D01*
X16002000Y-7280910D02*
X16002000Y-7451090D01*
X15916910Y-7366000D02*
X16087090Y-7366000D01*
X16002000Y-9566910D02*
X16002000Y-9737090D01*
X15916910Y-9652000D02*
X16087090Y-9652000D01*
X17018000Y-7280910D02*
X17018000Y-7451090D01*
X16932910Y-7366000D02*
X17103090Y-7366000D01*
X17018000Y-9566910D02*
X17018000Y-9737090D01*
X16932910Y-9652000D02*
X17103090Y-9652000D01*
X18288000Y-6772910D02*
X18288000Y-6943090D01*
X18202910Y-6858000D02*
X18373090Y-6858000D01*
X18288000Y-9058910D02*
X18288000Y-9229090D01*
X18202910Y-9144000D02*
X18373090Y-9144000D01*
X19304000Y-6772910D02*
X19304000Y-6943090D01*
X19218910Y-6858000D02*
X19389090Y-6858000D01*
X19304000Y-9058910D02*
X19304000Y-9229090D01*
X19218910Y-9144000D02*
X19389090Y-9144000D01*
X20574000Y-6772910D02*
X20574000Y-6943090D01*
X20488910Y-6858000D02*
X20659090Y-6858000D01*
X20574000Y-9058910D02*
X20574000Y-9229090D01*
X20488910Y-9144000D02*
X20659090Y-9144000D01*
X21590000Y-6772910D02*
X21590000Y-6943090D01*
X21504910Y-6858000D02*
X21675090Y-6858000D01*
X21590000Y-9058910D02*
X21590000Y-9229090D01*
X21504910Y-9144000D02*
X21675090Y-9144000D01*
X22860000Y-7026910D02*
X22860000Y-7197090D01*
X22774910Y-7112000D02*
X22945090Y-7112000D01*
X22860000Y-9312910D02*
X22860000Y-9483090D01*
X22774910Y-9398000D02*
X22945090Y-9398000D01*
X23876000Y-7026910D02*
X23876000Y-7197090D01*
X23790910Y-7112000D02*
X23961090Y-7112000D01*
X23876000Y-9312910D02*
X23876000Y-9483090D01*
X23790910Y-9398000D02*
X23961090Y-9398000D01*
D15*
X17536247Y-11188247D02*
X17536247Y-11039753D01*
X17387753Y-11039753D01*
X17387753Y-11188247D01*
X17536247Y-11188247D01*
X17536247Y-12328247D02*
X17536247Y-12179753D01*
X17387753Y-12179753D01*
X17387753Y-12328247D01*
X17536247Y-12328247D01*
X22236247Y-11188247D02*
X22236247Y-11039753D01*
X22087753Y-11039753D01*
X22087753Y-11188247D01*
X22236247Y-11188247D01*
X22236247Y-12328247D02*
X22236247Y-12179753D01*
X22087753Y-12179753D01*
X22087753Y-12328247D01*
X22236247Y-12328247D01*
D16*
X9271000Y-4468000D02*
X9421000Y-4318000D01*
X9271000Y-4168000D01*
X9121000Y-4318000D01*
X9271000Y-4468000D01*
X9525000Y-8024000D02*
X9675000Y-7874000D01*
X9525000Y-7724000D01*
X9375000Y-7874000D01*
X9525000Y-8024000D01*
X9906000Y-4214000D02*
X10056000Y-4064000D01*
X9906000Y-3914000D01*
X9756000Y-4064000D01*
X9906000Y-4214000D01*
X10160000Y-7770000D02*
X10310000Y-7620000D01*
X10160000Y-7470000D01*
X10010000Y-7620000D01*
X10160000Y-7770000D01*
X11557000Y-4468000D02*
X11707000Y-4318000D01*
X11557000Y-4168000D01*
X11407000Y-4318000D01*
X11557000Y-4468000D01*
X11811000Y-8024000D02*
X11961000Y-7874000D01*
X11811000Y-7724000D01*
X11661000Y-7874000D01*
X11811000Y-8024000D01*
X12192000Y-4214000D02*
X12342000Y-4064000D01*
X12192000Y-3914000D01*
X12042000Y-4064000D01*
X12192000Y-4214000D01*
X12446000Y-7770000D02*
X12596000Y-7620000D01*
X12446000Y-7470000D01*
X12296000Y-7620000D01*
X12446000Y-7770000D01*
X13843000Y-8786000D02*
X13993000Y-8636000D01*
X13843000Y-8486000D01*
X13693000Y-8636000D01*
X13843000Y-8786000D01*
X14478000Y-8532000D02*
X14628000Y-8382000D01*
X14478000Y-8232000D01*
X14328000Y-8382000D01*
X14478000Y-8532000D01*
X14859000Y-12596000D02*
X15009000Y-12446000D01*
X14859000Y-12296000D01*
X14709000Y-12446000D01*
X14859000Y-12596000D01*
X15494000Y-12342000D02*
X15644000Y-12192000D01*
X15494000Y-12042000D01*
X15344000Y-12192000D01*
X15494000Y-12342000D01*
X16129000Y-7262000D02*
X16279000Y-7112000D01*
X16129000Y-6962000D01*
X15979000Y-7112000D01*
X16129000Y-7262000D01*
X16129000Y-9548000D02*
X16279000Y-9398000D01*
X16129000Y-9248000D01*
X15979000Y-9398000D01*
X16129000Y-9548000D01*
X16764000Y-7008000D02*
X16914000Y-6858000D01*
X16764000Y-6708000D01*
X16614000Y-6858000D01*
X16764000Y-7008000D01*
X16764000Y-9294000D02*
X16914000Y-9144000D01*
X16764000Y-8994000D01*
X16614000Y-9144000D01*
X16764000Y-9294000D01*
X18415000Y-6754000D02*
X18565000Y-6604000D01*
X18415000Y-6454000D01*
X18265000Y-6604000D01*
X18415000Y-6754000D01*
X18415000Y-9040000D02*
X18565000Y-8890000D01*
X18415000Y-8740000D01*
X18265000Y-8890000D01*
X18415000Y-9040000D01*
X19050000Y-6500000D02*
X19200000Y-6350000D01*
X19050000Y-6200000D01*
X18900000Y-6350000D01*
X19050000Y-6500000D01*
X19050000Y-8786000D02*
X19200000Y-8636000D01*
X19050000Y-8486000D01*
X18900000Y-8636000D01*
X19050000Y-8786000D01*
X20701000Y-6754000D02*
X20851000Y-6604000D01*
X20701000Y-6454000D01*
X20551000Y-6604000D01*
X20701000Y-6754000D01*
X20701000Y-9040000D02*
X20851000Y-8890000D01*
X20701000Y-8740000D01*
X20551000Y-8890000D01*
X20701000Y-9040000D01*
X21336000Y-6500000D02*
X21486000Y-6350000D01*
X21336000Y-6200000D01*
X21186000Y-6350000D01*
X21336000Y-6500000D01*
X21336000Y-8786000D02*
X21486000Y-8636000D01*
X21336000Y-8486000D01*
X21186000Y-8636000D01*
X21336000Y-8786000D01*
X22987000Y-7008000D02*
X23137000Y-6858000D01*
X22987000Y-6708000D01*
X22837000Y-6858000D01*
X22987000Y-7008000D01*
X22987000Y-9294000D02*
X23137000Y-9144000D01*
X22987000Y-8994000D01*
X22837000Y-9144000D01*
X22987000Y-9294000D01*
X23622000Y-6754000D02*
X23772000Y-6604000D01*
X23622000Y-6454000D01*
X23472000Y-6604000D01*
X23622000Y-6754000D01*
X23622000Y-9040000D02*
X23772000Y-8890000D01*
X23622000Y-8740000D01*
X23472000Y-8890000D01*
X23622000Y-9040000D01*
D17*
X8476000Y-12286000D02*
X8796000Y-12606000D01*
X8796000Y-12286000D02*
X8476000Y-12606000D01*
X8796000Y-12446000D02*
G75*
G03*
X8796000Y-12446000I-160000J0D01*
G01*
X8984000Y-5936000D02*
X9304000Y-6256000D01*
X9304000Y-5936000D02*
X8984000Y-6256000D01*
X9304000Y-6096000D02*
G75*
G03*
X9304000Y-6096000I-160000J0D01*
G01*
X16604000Y-4412000D02*
X16924000Y-4732000D01*
X16924000Y-4412000D02*
X16604000Y-4732000D01*
X16924000Y-4572000D02*
G75*
G03*
X16924000Y-4572000I-160000J0D01*
G01*
X24224000Y-11778000D02*
X24544000Y-12098000D01*
X24544000Y-11778000D02*
X24224000Y-12098000D01*
X24544000Y-11938000D02*
G75*
G03*
X24544000Y-11938000I-160000J0D01*
G01*
X24478000Y-4666000D02*
X24798000Y-4986000D01*
X24798000Y-4666000D02*
X24478000Y-4986000D01*
X24798000Y-4826000D02*
G75*
G03*
X24798000Y-4826000I-160000J0D01*
G01*
D18*
X9452610Y-4372610D02*
X9851390Y-4771390D01*
X9851390Y-4372610D02*
X9452610Y-4771390D01*
X9652000Y-4372610D02*
X9652000Y-4771390D01*
X9452610Y-4572000D02*
X9851390Y-4572000D01*
X9706610Y-7928610D02*
X10105390Y-8327390D01*
X10105390Y-7928610D02*
X9706610Y-8327390D01*
X9906000Y-7928610D02*
X9906000Y-8327390D01*
X9706610Y-8128000D02*
X10105390Y-8128000D01*
X11738610Y-4372610D02*
X12137390Y-4771390D01*
X12137390Y-4372610D02*
X11738610Y-4771390D01*
X11938000Y-4372610D02*
X11938000Y-4771390D01*
X11738610Y-4572000D02*
X12137390Y-4572000D01*
X11992610Y-7928610D02*
X12391390Y-8327390D01*
X12391390Y-7928610D02*
X11992610Y-8327390D01*
X12192000Y-7928610D02*
X12192000Y-8327390D01*
X11992610Y-8128000D02*
X12391390Y-8128000D01*
X14024610Y-8690610D02*
X14423390Y-9089390D01*
X14423390Y-8690610D02*
X14024610Y-9089390D01*
X14224000Y-8690610D02*
X14224000Y-9089390D01*
X14024610Y-8890000D02*
X14423390Y-8890000D01*
X15040610Y-12500610D02*
X15439390Y-12899390D01*
X15439390Y-12500610D02*
X15040610Y-12899390D01*
X15240000Y-12500610D02*
X15240000Y-12899390D01*
X15040610Y-12700000D02*
X15439390Y-12700000D01*
X16310610Y-7166610D02*
X16709390Y-7565390D01*
X16709390Y-7166610D02*
X16310610Y-7565390D01*
X16510000Y-7166610D02*
X16510000Y-7565390D01*
X16310610Y-7366000D02*
X16709390Y-7366000D01*
X16310610Y-9452610D02*
X16709390Y-9851390D01*
X16709390Y-9452610D02*
X16310610Y-9851390D01*
X16510000Y-9452610D02*
X16510000Y-9851390D01*
X16310610Y-9652000D02*
X16709390Y-9652000D01*
X18596610Y-6658610D02*
X18995390Y-7057390D01*
X18995390Y-6658610D02*
X18596610Y-7057390D01*
X18796000Y-6658610D02*
X18796000Y-7057390D01*
X18596610Y-6858000D02*
X18995390Y-6858000D01*
X18596610Y-8944610D02*
X18995390Y-9343390D01*
X18995390Y-8944610D02*
X18596610Y-9343390D01*
X18796000Y-8944610D02*
X18796000Y-9343390D01*
X18596610Y-9144000D02*
X18995390Y-9144000D01*
X20882610Y-6658610D02*
X21281390Y-7057390D01*
X21281390Y-6658610D02*
X20882610Y-7057390D01*
X21082000Y-6658610D02*
X21082000Y-7057390D01*
X20882610Y-6858000D02*
X21281390Y-6858000D01*
X20882610Y-8944610D02*
X21281390Y-9343390D01*
X21281390Y-8944610D02*
X20882610Y-9343390D01*
X21082000Y-8944610D02*
X21082000Y-9343390D01*
X20882610Y-9144000D02*
X21281390Y-9144000D01*
X23168610Y-6912610D02*
X23567390Y-7311390D01*
X23567390Y-6912610D02*
X23168610Y-7311390D01*
X23368000Y-6912610D02*
X23368000Y-7311390D01*
X23168610Y-7112000D02*
X23567390Y-7112000D01*
X23168610Y-9198610D02*
X23567390Y-9597390D01*
X23567390Y-9198610D02*
X23168610Y-9597390D01*
X23368000Y-9198610D02*
X23368000Y-9597390D01*
X23168610Y-9398000D02*
X23567390Y-9398000D01*
D11*
X8129119Y-14028976D02*
X8129119Y-13828976D01*
X8176738Y-13828976D01*
X8205309Y-13838500D01*
X8224357Y-13857548D01*
X8233881Y-13876595D01*
X8243405Y-13914690D01*
X8243405Y-13943262D01*
X8233881Y-13981357D01*
X8224357Y-14000405D01*
X8205309Y-14019452D01*
X8176738Y-14028976D01*
X8129119Y-14028976D01*
X8329119Y-14028976D02*
X8329119Y-13895643D01*
X8329119Y-13933738D02*
X8338643Y-13914690D01*
X8348167Y-13905167D01*
X8367214Y-13895643D01*
X8386262Y-13895643D01*
X8452929Y-14028976D02*
X8452929Y-13895643D01*
X8452929Y-13828976D02*
X8443405Y-13838500D01*
X8452929Y-13848024D01*
X8462452Y-13838500D01*
X8452929Y-13828976D01*
X8452929Y-13848024D01*
X8576738Y-14028976D02*
X8557690Y-14019452D01*
X8548167Y-14000405D01*
X8548167Y-13828976D01*
X8681500Y-14028976D02*
X8662452Y-14019452D01*
X8652929Y-14000405D01*
X8652929Y-13828976D01*
X8910071Y-14028976D02*
X8910071Y-13828976D01*
X8976738Y-13971833D01*
X9043405Y-13828976D01*
X9043405Y-14028976D01*
X9224357Y-14028976D02*
X9224357Y-13924214D01*
X9214833Y-13905167D01*
X9195786Y-13895643D01*
X9157690Y-13895643D01*
X9138643Y-13905167D01*
X9224357Y-14019452D02*
X9205310Y-14028976D01*
X9157690Y-14028976D01*
X9138643Y-14019452D01*
X9129119Y-14000405D01*
X9129119Y-13981357D01*
X9138643Y-13962309D01*
X9157690Y-13952786D01*
X9205310Y-13952786D01*
X9224357Y-13943262D01*
X9319595Y-13895643D02*
X9319595Y-14095643D01*
X9319595Y-13905167D02*
X9338643Y-13895643D01*
X9376738Y-13895643D01*
X9395786Y-13905167D01*
X9405310Y-13914690D01*
X9414833Y-13933738D01*
X9414833Y-13990881D01*
X9405310Y-14009928D01*
X9395786Y-14019452D01*
X9376738Y-14028976D01*
X9338643Y-14028976D01*
X9319595Y-14019452D01*
X9500548Y-14009928D02*
X9510071Y-14019452D01*
X9500548Y-14028976D01*
X9491024Y-14019452D01*
X9500548Y-14009928D01*
X9500548Y-14028976D01*
X9500548Y-13905167D02*
X9510071Y-13914690D01*
X9500548Y-13924214D01*
X9491024Y-13914690D01*
X9500548Y-13905167D01*
X9500548Y-13924214D01*
D12*
X7806500Y-14326000D02*
X7871500Y-14391000D01*
X7871500Y-14326000D02*
X7806500Y-14391000D01*
D11*
X8167214Y-14248976D02*
X8186262Y-14248976D01*
X8205309Y-14258500D01*
X8214833Y-14268024D01*
X8224357Y-14287071D01*
X8233881Y-14325167D01*
X8233881Y-14372786D01*
X8224357Y-14410881D01*
X8214833Y-14429928D01*
X8205309Y-14439452D01*
X8186262Y-14448976D01*
X8167214Y-14448976D01*
X8148167Y-14439452D01*
X8138643Y-14429928D01*
X8129119Y-14410881D01*
X8119595Y-14372786D01*
X8119595Y-14325167D01*
X8129119Y-14287071D01*
X8138643Y-14268024D01*
X8148167Y-14258500D01*
X8167214Y-14248976D01*
X8319595Y-14429928D02*
X8329119Y-14439452D01*
X8319595Y-14448976D01*
X8310071Y-14439452D01*
X8319595Y-14429928D01*
X8319595Y-14448976D01*
X8500548Y-14248976D02*
X8462452Y-14248976D01*
X8443405Y-14258500D01*
X8433881Y-14268024D01*
X8414833Y-14296595D01*
X8405310Y-14334690D01*
X8405310Y-14410881D01*
X8414833Y-14429928D01*
X8424357Y-14439452D01*
X8443405Y-14448976D01*
X8481500Y-14448976D01*
X8500548Y-14439452D01*
X8510071Y-14429928D01*
X8519595Y-14410881D01*
X8519595Y-14363262D01*
X8510071Y-14344214D01*
X8500548Y-14334690D01*
X8481500Y-14325167D01*
X8443405Y-14325167D01*
X8424357Y-14334690D01*
X8414833Y-14344214D01*
X8405310Y-14363262D01*
X8700548Y-14248976D02*
X8605310Y-14248976D01*
X8595786Y-14344214D01*
X8605310Y-14334690D01*
X8624357Y-14325167D01*
X8671976Y-14325167D01*
X8691024Y-14334690D01*
X8700548Y-14344214D01*
X8710071Y-14363262D01*
X8710071Y-14410881D01*
X8700548Y-14429928D01*
X8691024Y-14439452D01*
X8671976Y-14448976D01*
X8624357Y-14448976D01*
X8605310Y-14439452D01*
X8595786Y-14429928D01*
X8833881Y-14248976D02*
X8852929Y-14248976D01*
X8871976Y-14258500D01*
X8881500Y-14268024D01*
X8891024Y-14287071D01*
X8900548Y-14325167D01*
X8900548Y-14372786D01*
X8891024Y-14410881D01*
X8881500Y-14429928D01*
X8871976Y-14439452D01*
X8852929Y-14448976D01*
X8833881Y-14448976D01*
X8814833Y-14439452D01*
X8805310Y-14429928D01*
X8795786Y-14410881D01*
X8786262Y-14372786D01*
X8786262Y-14325167D01*
X8795786Y-14287071D01*
X8805310Y-14268024D01*
X8814833Y-14258500D01*
X8833881Y-14248976D01*
X8986262Y-14448976D02*
X8986262Y-14315643D01*
X8986262Y-14334690D02*
X8995786Y-14325167D01*
X9014833Y-14315643D01*
X9043405Y-14315643D01*
X9062452Y-14325167D01*
X9071976Y-14344214D01*
X9071976Y-14448976D01*
X9071976Y-14344214D02*
X9081500Y-14325167D01*
X9100548Y-14315643D01*
X9129119Y-14315643D01*
X9148167Y-14325167D01*
X9157690Y-14344214D01*
X9157690Y-14448976D01*
X9252929Y-14448976D02*
X9252929Y-14315643D01*
X9252929Y-14334690D02*
X9262452Y-14325167D01*
X9281500Y-14315643D01*
X9310071Y-14315643D01*
X9329119Y-14325167D01*
X9338643Y-14344214D01*
X9338643Y-14448976D01*
X9338643Y-14344214D02*
X9348167Y-14325167D01*
X9367214Y-14315643D01*
X9395786Y-14315643D01*
X9414833Y-14325167D01*
X9424357Y-14344214D01*
X9424357Y-14448976D01*
X9814833Y-14239452D02*
X9643405Y-14496595D01*
X10071976Y-14248976D02*
X10091024Y-14248976D01*
X10110071Y-14258500D01*
X10119595Y-14268024D01*
X10129119Y-14287071D01*
X10138643Y-14325167D01*
X10138643Y-14372786D01*
X10129119Y-14410881D01*
X10119595Y-14429928D01*
X10110071Y-14439452D01*
X10091024Y-14448976D01*
X10071976Y-14448976D01*
X10052929Y-14439452D01*
X10043405Y-14429928D01*
X10033881Y-14410881D01*
X10024357Y-14372786D01*
X10024357Y-14325167D01*
X10033881Y-14287071D01*
X10043405Y-14268024D01*
X10052929Y-14258500D01*
X10071976Y-14248976D01*
X10224357Y-14429928D02*
X10233881Y-14439452D01*
X10224357Y-14448976D01*
X10214833Y-14439452D01*
X10224357Y-14429928D01*
X10224357Y-14448976D01*
X10357690Y-14248976D02*
X10376738Y-14248976D01*
X10395786Y-14258500D01*
X10405310Y-14268024D01*
X10414833Y-14287071D01*
X10424357Y-14325167D01*
X10424357Y-14372786D01*
X10414833Y-14410881D01*
X10405310Y-14429928D01*
X10395786Y-14439452D01*
X10376738Y-14448976D01*
X10357690Y-14448976D01*
X10338643Y-14439452D01*
X10329119Y-14429928D01*
X10319595Y-14410881D01*
X10310071Y-14372786D01*
X10310071Y-14325167D01*
X10319595Y-14287071D01*
X10329119Y-14268024D01*
X10338643Y-14258500D01*
X10357690Y-14248976D01*
X10500548Y-14268024D02*
X10510071Y-14258500D01*
X10529119Y-14248976D01*
X10576738Y-14248976D01*
X10595786Y-14258500D01*
X10605310Y-14268024D01*
X10614833Y-14287071D01*
X10614833Y-14306119D01*
X10605310Y-14334690D01*
X10491024Y-14448976D01*
X10614833Y-14448976D01*
X10795786Y-14248976D02*
X10700548Y-14248976D01*
X10691024Y-14344214D01*
X10700548Y-14334690D01*
X10719595Y-14325167D01*
X10767214Y-14325167D01*
X10786262Y-14334690D01*
X10795786Y-14344214D01*
X10805310Y-14363262D01*
X10805310Y-14410881D01*
X10795786Y-14429928D01*
X10786262Y-14439452D01*
X10767214Y-14448976D01*
X10719595Y-14448976D01*
X10700548Y-14439452D01*
X10691024Y-14429928D01*
X10976738Y-14248976D02*
X10938643Y-14248976D01*
X10919595Y-14258500D01*
X10910071Y-14268024D01*
X10891024Y-14296595D01*
X10881500Y-14334690D01*
X10881500Y-14410881D01*
X10891024Y-14429928D01*
X10900548Y-14439452D01*
X10919595Y-14448976D01*
X10957690Y-14448976D01*
X10976738Y-14439452D01*
X10986262Y-14429928D01*
X10995786Y-14410881D01*
X10995786Y-14363262D01*
X10986262Y-14344214D01*
X10976738Y-14334690D01*
X10957690Y-14325167D01*
X10919595Y-14325167D01*
X10900548Y-14334690D01*
X10891024Y-14344214D01*
X10881500Y-14363262D01*
X11071976Y-14248976D02*
X11071976Y-14287071D01*
X11148167Y-14248976D02*
X11148167Y-14287071D01*
X11443405Y-14525167D02*
X11433881Y-14515643D01*
X11414833Y-14487071D01*
X11405309Y-14468024D01*
X11395786Y-14439452D01*
X11386262Y-14391833D01*
X11386262Y-14353738D01*
X11395786Y-14306119D01*
X11405309Y-14277548D01*
X11414833Y-14258500D01*
X11433881Y-14229928D01*
X11443405Y-14220405D01*
X11510071Y-14268024D02*
X11519595Y-14258500D01*
X11538643Y-14248976D01*
X11586262Y-14248976D01*
X11605309Y-14258500D01*
X11614833Y-14268024D01*
X11624357Y-14287071D01*
X11624357Y-14306119D01*
X11614833Y-14334690D01*
X11500548Y-14448976D01*
X11624357Y-14448976D01*
X11862452Y-14448976D02*
X11862452Y-14248976D01*
X11948167Y-14448976D02*
X11948167Y-14344214D01*
X11938643Y-14325167D01*
X11919595Y-14315643D01*
X11891024Y-14315643D01*
X11871976Y-14325167D01*
X11862452Y-14334690D01*
X12071976Y-14448976D02*
X12052928Y-14439452D01*
X12043405Y-14429928D01*
X12033881Y-14410881D01*
X12033881Y-14353738D01*
X12043405Y-14334690D01*
X12052928Y-14325167D01*
X12071976Y-14315643D01*
X12100548Y-14315643D01*
X12119595Y-14325167D01*
X12129119Y-14334690D01*
X12138643Y-14353738D01*
X12138643Y-14410881D01*
X12129119Y-14429928D01*
X12119595Y-14439452D01*
X12100548Y-14448976D01*
X12071976Y-14448976D01*
X12252928Y-14448976D02*
X12233881Y-14439452D01*
X12224357Y-14420405D01*
X12224357Y-14248976D01*
X12405309Y-14439452D02*
X12386262Y-14448976D01*
X12348167Y-14448976D01*
X12329119Y-14439452D01*
X12319595Y-14420405D01*
X12319595Y-14344214D01*
X12329119Y-14325167D01*
X12348167Y-14315643D01*
X12386262Y-14315643D01*
X12405309Y-14325167D01*
X12414833Y-14344214D01*
X12414833Y-14363262D01*
X12319595Y-14382309D01*
X12491024Y-14439452D02*
X12510071Y-14448976D01*
X12548167Y-14448976D01*
X12567214Y-14439452D01*
X12576738Y-14420405D01*
X12576738Y-14410881D01*
X12567214Y-14391833D01*
X12548167Y-14382309D01*
X12519595Y-14382309D01*
X12500548Y-14372786D01*
X12491024Y-14353738D01*
X12491024Y-14344214D01*
X12500548Y-14325167D01*
X12519595Y-14315643D01*
X12548167Y-14315643D01*
X12567214Y-14325167D01*
X12643405Y-14525167D02*
X12652928Y-14515643D01*
X12671976Y-14487071D01*
X12681500Y-14468024D01*
X12691024Y-14439452D01*
X12700548Y-14391833D01*
X12700548Y-14353738D01*
X12691024Y-14306119D01*
X12681500Y-14277548D01*
X12671976Y-14258500D01*
X12652928Y-14229928D01*
X12643405Y-14220405D01*
X13005309Y-14525167D02*
X12995786Y-14515643D01*
X12976738Y-14487071D01*
X12967214Y-14468024D01*
X12957690Y-14439452D01*
X12948167Y-14391833D01*
X12948167Y-14353738D01*
X12957690Y-14306119D01*
X12967214Y-14277548D01*
X12976738Y-14258500D01*
X12995786Y-14229928D01*
X13005309Y-14220405D01*
X13081500Y-14315643D02*
X13081500Y-14448976D01*
X13081500Y-14334690D02*
X13091024Y-14325167D01*
X13110071Y-14315643D01*
X13138643Y-14315643D01*
X13157690Y-14325167D01*
X13167214Y-14344214D01*
X13167214Y-14448976D01*
X13291024Y-14448976D02*
X13271976Y-14439452D01*
X13262452Y-14429928D01*
X13252928Y-14410881D01*
X13252928Y-14353738D01*
X13262452Y-14334690D01*
X13271976Y-14325167D01*
X13291024Y-14315643D01*
X13319595Y-14315643D01*
X13338643Y-14325167D01*
X13348167Y-14334690D01*
X13357690Y-14353738D01*
X13357690Y-14410881D01*
X13348167Y-14429928D01*
X13338643Y-14439452D01*
X13319595Y-14448976D01*
X13291024Y-14448976D01*
X13414833Y-14315643D02*
X13491024Y-14315643D01*
X13443405Y-14248976D02*
X13443405Y-14420405D01*
X13452928Y-14439452D01*
X13471976Y-14448976D01*
X13491024Y-14448976D01*
X13710071Y-14315643D02*
X13710071Y-14515643D01*
X13710071Y-14325167D02*
X13729119Y-14315643D01*
X13767214Y-14315643D01*
X13786262Y-14325167D01*
X13795786Y-14334690D01*
X13805309Y-14353738D01*
X13805309Y-14410881D01*
X13795786Y-14429928D01*
X13786262Y-14439452D01*
X13767214Y-14448976D01*
X13729119Y-14448976D01*
X13710071Y-14439452D01*
X13919595Y-14448976D02*
X13900548Y-14439452D01*
X13891024Y-14420405D01*
X13891024Y-14248976D01*
X14081500Y-14448976D02*
X14081500Y-14344214D01*
X14071976Y-14325167D01*
X14052928Y-14315643D01*
X14014833Y-14315643D01*
X13995786Y-14325167D01*
X14081500Y-14439452D02*
X14062452Y-14448976D01*
X14014833Y-14448976D01*
X13995786Y-14439452D01*
X13986262Y-14420405D01*
X13986262Y-14401357D01*
X13995786Y-14382309D01*
X14014833Y-14372786D01*
X14062452Y-14372786D01*
X14081500Y-14363262D01*
X14148167Y-14315643D02*
X14224357Y-14315643D01*
X14176738Y-14248976D02*
X14176738Y-14420405D01*
X14186262Y-14439452D01*
X14205309Y-14448976D01*
X14224357Y-14448976D01*
X14367214Y-14439452D02*
X14348167Y-14448976D01*
X14310071Y-14448976D01*
X14291024Y-14439452D01*
X14281500Y-14420405D01*
X14281500Y-14344214D01*
X14291024Y-14325167D01*
X14310071Y-14315643D01*
X14348167Y-14315643D01*
X14367214Y-14325167D01*
X14376738Y-14344214D01*
X14376738Y-14363262D01*
X14281500Y-14382309D01*
X14548167Y-14448976D02*
X14548167Y-14248976D01*
X14548167Y-14439452D02*
X14529119Y-14448976D01*
X14491024Y-14448976D01*
X14471976Y-14439452D01*
X14462452Y-14429928D01*
X14452928Y-14410881D01*
X14452928Y-14353738D01*
X14462452Y-14334690D01*
X14471976Y-14325167D01*
X14491024Y-14315643D01*
X14529119Y-14315643D01*
X14548167Y-14325167D01*
X14624357Y-14525167D02*
X14633881Y-14515643D01*
X14652928Y-14487071D01*
X14662452Y-14468024D01*
X14671976Y-14439452D01*
X14681500Y-14391833D01*
X14681500Y-14353738D01*
X14671976Y-14306119D01*
X14662452Y-14277548D01*
X14652928Y-14258500D01*
X14633881Y-14229928D01*
X14624357Y-14220405D01*
D13*
X7871500Y-14622500D02*
G75*
G03*
X7871500Y-14622500I-75000J0D01*
G01*
D11*
X8233881Y-14712976D02*
X8119595Y-14712976D01*
X8176738Y-14712976D02*
X8176738Y-14512976D01*
X8157690Y-14541548D01*
X8138643Y-14560595D01*
X8119595Y-14570119D01*
X8319595Y-14693928D02*
X8329119Y-14703452D01*
X8319595Y-14712976D01*
X8310071Y-14703452D01*
X8319595Y-14693928D01*
X8319595Y-14712976D01*
X8510071Y-14512976D02*
X8414833Y-14512976D01*
X8405310Y-14608214D01*
X8414833Y-14598690D01*
X8433881Y-14589167D01*
X8481500Y-14589167D01*
X8500548Y-14598690D01*
X8510071Y-14608214D01*
X8519595Y-14627262D01*
X8519595Y-14674881D01*
X8510071Y-14693928D01*
X8500548Y-14703452D01*
X8481500Y-14712976D01*
X8433881Y-14712976D01*
X8414833Y-14703452D01*
X8405310Y-14693928D01*
X8643405Y-14512976D02*
X8662452Y-14512976D01*
X8681500Y-14522500D01*
X8691024Y-14532024D01*
X8700548Y-14551071D01*
X8710071Y-14589167D01*
X8710071Y-14636786D01*
X8700548Y-14674881D01*
X8691024Y-14693928D01*
X8681500Y-14703452D01*
X8662452Y-14712976D01*
X8643405Y-14712976D01*
X8624357Y-14703452D01*
X8614833Y-14693928D01*
X8605310Y-14674881D01*
X8595786Y-14636786D01*
X8595786Y-14589167D01*
X8605310Y-14551071D01*
X8614833Y-14532024D01*
X8624357Y-14522500D01*
X8643405Y-14512976D01*
X8833881Y-14512976D02*
X8852929Y-14512976D01*
X8871976Y-14522500D01*
X8881500Y-14532024D01*
X8891024Y-14551071D01*
X8900548Y-14589167D01*
X8900548Y-14636786D01*
X8891024Y-14674881D01*
X8881500Y-14693928D01*
X8871976Y-14703452D01*
X8852929Y-14712976D01*
X8833881Y-14712976D01*
X8814833Y-14703452D01*
X8805310Y-14693928D01*
X8795786Y-14674881D01*
X8786262Y-14636786D01*
X8786262Y-14589167D01*
X8795786Y-14551071D01*
X8805310Y-14532024D01*
X8814833Y-14522500D01*
X8833881Y-14512976D01*
X8986262Y-14712976D02*
X8986262Y-14579643D01*
X8986262Y-14598690D02*
X8995786Y-14589167D01*
X9014833Y-14579643D01*
X9043405Y-14579643D01*
X9062452Y-14589167D01*
X9071976Y-14608214D01*
X9071976Y-14712976D01*
X9071976Y-14608214D02*
X9081500Y-14589167D01*
X9100548Y-14579643D01*
X9129119Y-14579643D01*
X9148167Y-14589167D01*
X9157690Y-14608214D01*
X9157690Y-14712976D01*
X9252929Y-14712976D02*
X9252929Y-14579643D01*
X9252929Y-14598690D02*
X9262452Y-14589167D01*
X9281500Y-14579643D01*
X9310071Y-14579643D01*
X9329119Y-14589167D01*
X9338643Y-14608214D01*
X9338643Y-14712976D01*
X9338643Y-14608214D02*
X9348167Y-14589167D01*
X9367214Y-14579643D01*
X9395786Y-14579643D01*
X9414833Y-14589167D01*
X9424357Y-14608214D01*
X9424357Y-14712976D01*
X9814833Y-14503452D02*
X9643405Y-14760595D01*
X10071976Y-14512976D02*
X10091024Y-14512976D01*
X10110071Y-14522500D01*
X10119595Y-14532024D01*
X10129119Y-14551071D01*
X10138643Y-14589167D01*
X10138643Y-14636786D01*
X10129119Y-14674881D01*
X10119595Y-14693928D01*
X10110071Y-14703452D01*
X10091024Y-14712976D01*
X10071976Y-14712976D01*
X10052929Y-14703452D01*
X10043405Y-14693928D01*
X10033881Y-14674881D01*
X10024357Y-14636786D01*
X10024357Y-14589167D01*
X10033881Y-14551071D01*
X10043405Y-14532024D01*
X10052929Y-14522500D01*
X10071976Y-14512976D01*
X10224357Y-14693928D02*
X10233881Y-14703452D01*
X10224357Y-14712976D01*
X10214833Y-14703452D01*
X10224357Y-14693928D01*
X10224357Y-14712976D01*
X10357690Y-14512976D02*
X10376738Y-14512976D01*
X10395786Y-14522500D01*
X10405310Y-14532024D01*
X10414833Y-14551071D01*
X10424357Y-14589167D01*
X10424357Y-14636786D01*
X10414833Y-14674881D01*
X10405310Y-14693928D01*
X10395786Y-14703452D01*
X10376738Y-14712976D01*
X10357690Y-14712976D01*
X10338643Y-14703452D01*
X10329119Y-14693928D01*
X10319595Y-14674881D01*
X10310071Y-14636786D01*
X10310071Y-14589167D01*
X10319595Y-14551071D01*
X10329119Y-14532024D01*
X10338643Y-14522500D01*
X10357690Y-14512976D01*
X10605310Y-14512976D02*
X10510071Y-14512976D01*
X10500548Y-14608214D01*
X10510071Y-14598690D01*
X10529119Y-14589167D01*
X10576738Y-14589167D01*
X10595786Y-14598690D01*
X10605310Y-14608214D01*
X10614833Y-14627262D01*
X10614833Y-14674881D01*
X10605310Y-14693928D01*
X10595786Y-14703452D01*
X10576738Y-14712976D01*
X10529119Y-14712976D01*
X10510071Y-14703452D01*
X10500548Y-14693928D01*
X10710071Y-14712976D02*
X10748167Y-14712976D01*
X10767214Y-14703452D01*
X10776738Y-14693928D01*
X10795786Y-14665357D01*
X10805310Y-14627262D01*
X10805310Y-14551071D01*
X10795786Y-14532024D01*
X10786262Y-14522500D01*
X10767214Y-14512976D01*
X10729119Y-14512976D01*
X10710071Y-14522500D01*
X10700548Y-14532024D01*
X10691024Y-14551071D01*
X10691024Y-14598690D01*
X10700548Y-14617738D01*
X10710071Y-14627262D01*
X10729119Y-14636786D01*
X10767214Y-14636786D01*
X10786262Y-14627262D01*
X10795786Y-14617738D01*
X10805310Y-14598690D01*
X10995786Y-14712976D02*
X10881500Y-14712976D01*
X10938643Y-14712976D02*
X10938643Y-14512976D01*
X10919595Y-14541548D01*
X10900548Y-14560595D01*
X10881500Y-14570119D01*
X11071976Y-14512976D02*
X11071976Y-14551071D01*
X11148167Y-14512976D02*
X11148167Y-14551071D01*
X11443405Y-14789167D02*
X11433881Y-14779643D01*
X11414833Y-14751071D01*
X11405309Y-14732024D01*
X11395786Y-14703452D01*
X11386262Y-14655833D01*
X11386262Y-14617738D01*
X11395786Y-14570119D01*
X11405309Y-14541548D01*
X11414833Y-14522500D01*
X11433881Y-14493928D01*
X11443405Y-14484405D01*
X11605309Y-14579643D02*
X11605309Y-14712976D01*
X11557690Y-14503452D02*
X11510071Y-14646309D01*
X11633881Y-14646309D01*
X11862452Y-14712976D02*
X11862452Y-14512976D01*
X11948167Y-14712976D02*
X11948167Y-14608214D01*
X11938643Y-14589167D01*
X11919595Y-14579643D01*
X11891024Y-14579643D01*
X11871976Y-14589167D01*
X11862452Y-14598690D01*
X12071976Y-14712976D02*
X12052928Y-14703452D01*
X12043405Y-14693928D01*
X12033881Y-14674881D01*
X12033881Y-14617738D01*
X12043405Y-14598690D01*
X12052928Y-14589167D01*
X12071976Y-14579643D01*
X12100548Y-14579643D01*
X12119595Y-14589167D01*
X12129119Y-14598690D01*
X12138643Y-14617738D01*
X12138643Y-14674881D01*
X12129119Y-14693928D01*
X12119595Y-14703452D01*
X12100548Y-14712976D01*
X12071976Y-14712976D01*
X12252928Y-14712976D02*
X12233881Y-14703452D01*
X12224357Y-14684405D01*
X12224357Y-14512976D01*
X12405309Y-14703452D02*
X12386262Y-14712976D01*
X12348167Y-14712976D01*
X12329119Y-14703452D01*
X12319595Y-14684405D01*
X12319595Y-14608214D01*
X12329119Y-14589167D01*
X12348167Y-14579643D01*
X12386262Y-14579643D01*
X12405309Y-14589167D01*
X12414833Y-14608214D01*
X12414833Y-14627262D01*
X12319595Y-14646309D01*
X12491024Y-14703452D02*
X12510071Y-14712976D01*
X12548167Y-14712976D01*
X12567214Y-14703452D01*
X12576738Y-14684405D01*
X12576738Y-14674881D01*
X12567214Y-14655833D01*
X12548167Y-14646309D01*
X12519595Y-14646309D01*
X12500548Y-14636786D01*
X12491024Y-14617738D01*
X12491024Y-14608214D01*
X12500548Y-14589167D01*
X12519595Y-14579643D01*
X12548167Y-14579643D01*
X12567214Y-14589167D01*
X12643405Y-14789167D02*
X12652928Y-14779643D01*
X12671976Y-14751071D01*
X12681500Y-14732024D01*
X12691024Y-14703452D01*
X12700548Y-14655833D01*
X12700548Y-14617738D01*
X12691024Y-14570119D01*
X12681500Y-14541548D01*
X12671976Y-14522500D01*
X12652928Y-14493928D01*
X12643405Y-14484405D01*
X13005309Y-14789167D02*
X12995786Y-14779643D01*
X12976738Y-14751071D01*
X12967214Y-14732024D01*
X12957690Y-14703452D01*
X12948167Y-14655833D01*
X12948167Y-14617738D01*
X12957690Y-14570119D01*
X12967214Y-14541548D01*
X12976738Y-14522500D01*
X12995786Y-14493928D01*
X13005309Y-14484405D01*
X13081500Y-14579643D02*
X13081500Y-14712976D01*
X13081500Y-14598690D02*
X13091024Y-14589167D01*
X13110071Y-14579643D01*
X13138643Y-14579643D01*
X13157690Y-14589167D01*
X13167214Y-14608214D01*
X13167214Y-14712976D01*
X13291024Y-14712976D02*
X13271976Y-14703452D01*
X13262452Y-14693928D01*
X13252928Y-14674881D01*
X13252928Y-14617738D01*
X13262452Y-14598690D01*
X13271976Y-14589167D01*
X13291024Y-14579643D01*
X13319595Y-14579643D01*
X13338643Y-14589167D01*
X13348167Y-14598690D01*
X13357690Y-14617738D01*
X13357690Y-14674881D01*
X13348167Y-14693928D01*
X13338643Y-14703452D01*
X13319595Y-14712976D01*
X13291024Y-14712976D01*
X13414833Y-14579643D02*
X13491024Y-14579643D01*
X13443405Y-14512976D02*
X13443405Y-14684405D01*
X13452928Y-14703452D01*
X13471976Y-14712976D01*
X13491024Y-14712976D01*
X13710071Y-14579643D02*
X13710071Y-14779643D01*
X13710071Y-14589167D02*
X13729119Y-14579643D01*
X13767214Y-14579643D01*
X13786262Y-14589167D01*
X13795786Y-14598690D01*
X13805309Y-14617738D01*
X13805309Y-14674881D01*
X13795786Y-14693928D01*
X13786262Y-14703452D01*
X13767214Y-14712976D01*
X13729119Y-14712976D01*
X13710071Y-14703452D01*
X13919595Y-14712976D02*
X13900548Y-14703452D01*
X13891024Y-14684405D01*
X13891024Y-14512976D01*
X14081500Y-14712976D02*
X14081500Y-14608214D01*
X14071976Y-14589167D01*
X14052928Y-14579643D01*
X14014833Y-14579643D01*
X13995786Y-14589167D01*
X14081500Y-14703452D02*
X14062452Y-14712976D01*
X14014833Y-14712976D01*
X13995786Y-14703452D01*
X13986262Y-14684405D01*
X13986262Y-14665357D01*
X13995786Y-14646309D01*
X14014833Y-14636786D01*
X14062452Y-14636786D01*
X14081500Y-14627262D01*
X14148167Y-14579643D02*
X14224357Y-14579643D01*
X14176738Y-14512976D02*
X14176738Y-14684405D01*
X14186262Y-14703452D01*
X14205309Y-14712976D01*
X14224357Y-14712976D01*
X14367214Y-14703452D02*
X14348167Y-14712976D01*
X14310071Y-14712976D01*
X14291024Y-14703452D01*
X14281500Y-14684405D01*
X14281500Y-14608214D01*
X14291024Y-14589167D01*
X14310071Y-14579643D01*
X14348167Y-14579643D01*
X14367214Y-14589167D01*
X14376738Y-14608214D01*
X14376738Y-14627262D01*
X14281500Y-14646309D01*
X14548167Y-14712976D02*
X14548167Y-14512976D01*
X14548167Y-14703452D02*
X14529119Y-14712976D01*
X14491024Y-14712976D01*
X14471976Y-14703452D01*
X14462452Y-14693928D01*
X14452928Y-14674881D01*
X14452928Y-14617738D01*
X14462452Y-14598690D01*
X14471976Y-14589167D01*
X14491024Y-14579643D01*
X14529119Y-14579643D01*
X14548167Y-14589167D01*
X14624357Y-14789167D02*
X14633881Y-14779643D01*
X14652928Y-14751071D01*
X14662452Y-14732024D01*
X14671976Y-14703452D01*
X14681500Y-14655833D01*
X14681500Y-14617738D01*
X14671976Y-14570119D01*
X14662452Y-14541548D01*
X14652928Y-14522500D01*
X14633881Y-14493928D01*
X14624357Y-14484405D01*
D14*
X7786410Y-14807410D02*
X7786410Y-14977590D01*
X7701320Y-14892500D02*
X7871500Y-14892500D01*
D11*
X8233881Y-14982976D02*
X8119595Y-14982976D01*
X8176738Y-14982976D02*
X8176738Y-14782976D01*
X8157690Y-14811548D01*
X8138643Y-14830595D01*
X8119595Y-14840119D01*
X8319595Y-14963928D02*
X8329119Y-14973452D01*
X8319595Y-14982976D01*
X8310071Y-14973452D01*
X8319595Y-14963928D01*
X8319595Y-14982976D01*
X8395786Y-14782976D02*
X8529119Y-14782976D01*
X8443405Y-14982976D01*
X8643405Y-14782976D02*
X8662452Y-14782976D01*
X8681500Y-14792500D01*
X8691024Y-14802024D01*
X8700548Y-14821071D01*
X8710071Y-14859167D01*
X8710071Y-14906786D01*
X8700548Y-14944881D01*
X8691024Y-14963928D01*
X8681500Y-14973452D01*
X8662452Y-14982976D01*
X8643405Y-14982976D01*
X8624357Y-14973452D01*
X8614833Y-14963928D01*
X8605310Y-14944881D01*
X8595786Y-14906786D01*
X8595786Y-14859167D01*
X8605310Y-14821071D01*
X8614833Y-14802024D01*
X8624357Y-14792500D01*
X8643405Y-14782976D01*
X8786262Y-14802024D02*
X8795786Y-14792500D01*
X8814833Y-14782976D01*
X8862452Y-14782976D01*
X8881500Y-14792500D01*
X8891024Y-14802024D01*
X8900548Y-14821071D01*
X8900548Y-14840119D01*
X8891024Y-14868690D01*
X8776738Y-14982976D01*
X8900548Y-14982976D01*
X8986262Y-14982976D02*
X8986262Y-14849643D01*
X8986262Y-14868690D02*
X8995786Y-14859167D01*
X9014833Y-14849643D01*
X9043405Y-14849643D01*
X9062452Y-14859167D01*
X9071976Y-14878214D01*
X9071976Y-14982976D01*
X9071976Y-14878214D02*
X9081500Y-14859167D01*
X9100548Y-14849643D01*
X9129119Y-14849643D01*
X9148167Y-14859167D01*
X9157690Y-14878214D01*
X9157690Y-14982976D01*
X9252929Y-14982976D02*
X9252929Y-14849643D01*
X9252929Y-14868690D02*
X9262452Y-14859167D01*
X9281500Y-14849643D01*
X9310071Y-14849643D01*
X9329119Y-14859167D01*
X9338643Y-14878214D01*
X9338643Y-14982976D01*
X9338643Y-14878214D02*
X9348167Y-14859167D01*
X9367214Y-14849643D01*
X9395786Y-14849643D01*
X9414833Y-14859167D01*
X9424357Y-14878214D01*
X9424357Y-14982976D01*
X9814833Y-14773452D02*
X9643405Y-15030595D01*
X10071976Y-14782976D02*
X10091024Y-14782976D01*
X10110071Y-14792500D01*
X10119595Y-14802024D01*
X10129119Y-14821071D01*
X10138643Y-14859167D01*
X10138643Y-14906786D01*
X10129119Y-14944881D01*
X10119595Y-14963928D01*
X10110071Y-14973452D01*
X10091024Y-14982976D01*
X10071976Y-14982976D01*
X10052929Y-14973452D01*
X10043405Y-14963928D01*
X10033881Y-14944881D01*
X10024357Y-14906786D01*
X10024357Y-14859167D01*
X10033881Y-14821071D01*
X10043405Y-14802024D01*
X10052929Y-14792500D01*
X10071976Y-14782976D01*
X10224357Y-14963928D02*
X10233881Y-14973452D01*
X10224357Y-14982976D01*
X10214833Y-14973452D01*
X10224357Y-14963928D01*
X10224357Y-14982976D01*
X10357690Y-14782976D02*
X10376738Y-14782976D01*
X10395786Y-14792500D01*
X10405310Y-14802024D01*
X10414833Y-14821071D01*
X10424357Y-14859167D01*
X10424357Y-14906786D01*
X10414833Y-14944881D01*
X10405310Y-14963928D01*
X10395786Y-14973452D01*
X10376738Y-14982976D01*
X10357690Y-14982976D01*
X10338643Y-14973452D01*
X10329119Y-14963928D01*
X10319595Y-14944881D01*
X10310071Y-14906786D01*
X10310071Y-14859167D01*
X10319595Y-14821071D01*
X10329119Y-14802024D01*
X10338643Y-14792500D01*
X10357690Y-14782976D01*
X10595786Y-14782976D02*
X10557690Y-14782976D01*
X10538643Y-14792500D01*
X10529119Y-14802024D01*
X10510071Y-14830595D01*
X10500548Y-14868690D01*
X10500548Y-14944881D01*
X10510071Y-14963928D01*
X10519595Y-14973452D01*
X10538643Y-14982976D01*
X10576738Y-14982976D01*
X10595786Y-14973452D01*
X10605310Y-14963928D01*
X10614833Y-14944881D01*
X10614833Y-14897262D01*
X10605310Y-14878214D01*
X10595786Y-14868690D01*
X10576738Y-14859167D01*
X10538643Y-14859167D01*
X10519595Y-14868690D01*
X10510071Y-14878214D01*
X10500548Y-14897262D01*
X10681500Y-14782976D02*
X10814833Y-14782976D01*
X10729119Y-14982976D01*
X10929119Y-14782976D02*
X10948167Y-14782976D01*
X10967214Y-14792500D01*
X10976738Y-14802024D01*
X10986262Y-14821071D01*
X10995786Y-14859167D01*
X10995786Y-14906786D01*
X10986262Y-14944881D01*
X10976738Y-14963928D01*
X10967214Y-14973452D01*
X10948167Y-14982976D01*
X10929119Y-14982976D01*
X10910071Y-14973452D01*
X10900548Y-14963928D01*
X10891024Y-14944881D01*
X10881500Y-14906786D01*
X10881500Y-14859167D01*
X10891024Y-14821071D01*
X10900548Y-14802024D01*
X10910071Y-14792500D01*
X10929119Y-14782976D01*
X11071976Y-14782976D02*
X11071976Y-14821071D01*
X11148167Y-14782976D02*
X11148167Y-14821071D01*
X11443405Y-15059167D02*
X11433881Y-15049643D01*
X11414833Y-15021071D01*
X11405309Y-15002024D01*
X11395786Y-14973452D01*
X11386262Y-14925833D01*
X11386262Y-14887738D01*
X11395786Y-14840119D01*
X11405309Y-14811548D01*
X11414833Y-14792500D01*
X11433881Y-14763928D01*
X11443405Y-14754405D01*
X11510071Y-14802024D02*
X11519595Y-14792500D01*
X11538643Y-14782976D01*
X11586262Y-14782976D01*
X11605309Y-14792500D01*
X11614833Y-14802024D01*
X11624357Y-14821071D01*
X11624357Y-14840119D01*
X11614833Y-14868690D01*
X11500548Y-14982976D01*
X11624357Y-14982976D01*
X11738643Y-14868690D02*
X11719595Y-14859167D01*
X11710071Y-14849643D01*
X11700548Y-14830595D01*
X11700548Y-14821071D01*
X11710071Y-14802024D01*
X11719595Y-14792500D01*
X11738643Y-14782976D01*
X11776738Y-14782976D01*
X11795786Y-14792500D01*
X11805309Y-14802024D01*
X11814833Y-14821071D01*
X11814833Y-14830595D01*
X11805309Y-14849643D01*
X11795786Y-14859167D01*
X11776738Y-14868690D01*
X11738643Y-14868690D01*
X11719595Y-14878214D01*
X11710071Y-14887738D01*
X11700548Y-14906786D01*
X11700548Y-14944881D01*
X11710071Y-14963928D01*
X11719595Y-14973452D01*
X11738643Y-14982976D01*
X11776738Y-14982976D01*
X11795786Y-14973452D01*
X11805309Y-14963928D01*
X11814833Y-14944881D01*
X11814833Y-14906786D01*
X11805309Y-14887738D01*
X11795786Y-14878214D01*
X11776738Y-14868690D01*
X12052928Y-14982976D02*
X12052928Y-14782976D01*
X12138643Y-14982976D02*
X12138643Y-14878214D01*
X12129119Y-14859167D01*
X12110071Y-14849643D01*
X12081500Y-14849643D01*
X12062452Y-14859167D01*
X12052928Y-14868690D01*
X12262452Y-14982976D02*
X12243405Y-14973452D01*
X12233881Y-14963928D01*
X12224357Y-14944881D01*
X12224357Y-14887738D01*
X12233881Y-14868690D01*
X12243405Y-14859167D01*
X12262452Y-14849643D01*
X12291024Y-14849643D01*
X12310071Y-14859167D01*
X12319595Y-14868690D01*
X12329119Y-14887738D01*
X12329119Y-14944881D01*
X12319595Y-14963928D01*
X12310071Y-14973452D01*
X12291024Y-14982976D01*
X12262452Y-14982976D01*
X12443405Y-14982976D02*
X12424357Y-14973452D01*
X12414833Y-14954405D01*
X12414833Y-14782976D01*
X12595786Y-14973452D02*
X12576738Y-14982976D01*
X12538643Y-14982976D01*
X12519595Y-14973452D01*
X12510071Y-14954405D01*
X12510071Y-14878214D01*
X12519595Y-14859167D01*
X12538643Y-14849643D01*
X12576738Y-14849643D01*
X12595786Y-14859167D01*
X12605309Y-14878214D01*
X12605309Y-14897262D01*
X12510071Y-14916309D01*
X12681500Y-14973452D02*
X12700548Y-14982976D01*
X12738643Y-14982976D01*
X12757690Y-14973452D01*
X12767214Y-14954405D01*
X12767214Y-14944881D01*
X12757690Y-14925833D01*
X12738643Y-14916309D01*
X12710071Y-14916309D01*
X12691024Y-14906786D01*
X12681500Y-14887738D01*
X12681500Y-14878214D01*
X12691024Y-14859167D01*
X12710071Y-14849643D01*
X12738643Y-14849643D01*
X12757690Y-14859167D01*
X12833881Y-15059167D02*
X12843405Y-15049643D01*
X12862452Y-15021071D01*
X12871976Y-15002024D01*
X12881500Y-14973452D01*
X12891024Y-14925833D01*
X12891024Y-14887738D01*
X12881500Y-14840119D01*
X12871976Y-14811548D01*
X12862452Y-14792500D01*
X12843405Y-14763928D01*
X12833881Y-14754405D01*
X13195786Y-15059167D02*
X13186262Y-15049643D01*
X13167214Y-15021071D01*
X13157690Y-15002024D01*
X13148167Y-14973452D01*
X13138643Y-14925833D01*
X13138643Y-14887738D01*
X13148167Y-14840119D01*
X13157690Y-14811548D01*
X13167214Y-14792500D01*
X13186262Y-14763928D01*
X13195786Y-14754405D01*
X13271976Y-14849643D02*
X13271976Y-14982976D01*
X13271976Y-14868690D02*
X13281500Y-14859167D01*
X13300548Y-14849643D01*
X13329119Y-14849643D01*
X13348167Y-14859167D01*
X13357690Y-14878214D01*
X13357690Y-14982976D01*
X13481500Y-14982976D02*
X13462452Y-14973452D01*
X13452928Y-14963928D01*
X13443405Y-14944881D01*
X13443405Y-14887738D01*
X13452928Y-14868690D01*
X13462452Y-14859167D01*
X13481500Y-14849643D01*
X13510071Y-14849643D01*
X13529119Y-14859167D01*
X13538643Y-14868690D01*
X13548167Y-14887738D01*
X13548167Y-14944881D01*
X13538643Y-14963928D01*
X13529119Y-14973452D01*
X13510071Y-14982976D01*
X13481500Y-14982976D01*
X13605309Y-14849643D02*
X13681500Y-14849643D01*
X13633881Y-14782976D02*
X13633881Y-14954405D01*
X13643405Y-14973452D01*
X13662452Y-14982976D01*
X13681500Y-14982976D01*
X13900548Y-14849643D02*
X13900548Y-15049643D01*
X13900548Y-14859167D02*
X13919595Y-14849643D01*
X13957690Y-14849643D01*
X13976738Y-14859167D01*
X13986262Y-14868690D01*
X13995786Y-14887738D01*
X13995786Y-14944881D01*
X13986262Y-14963928D01*
X13976738Y-14973452D01*
X13957690Y-14982976D01*
X13919595Y-14982976D01*
X13900548Y-14973452D01*
X14110071Y-14982976D02*
X14091024Y-14973452D01*
X14081500Y-14954405D01*
X14081500Y-14782976D01*
X14271976Y-14982976D02*
X14271976Y-14878214D01*
X14262452Y-14859167D01*
X14243405Y-14849643D01*
X14205309Y-14849643D01*
X14186262Y-14859167D01*
X14271976Y-14973452D02*
X14252928Y-14982976D01*
X14205309Y-14982976D01*
X14186262Y-14973452D01*
X14176738Y-14954405D01*
X14176738Y-14935357D01*
X14186262Y-14916309D01*
X14205309Y-14906786D01*
X14252928Y-14906786D01*
X14271976Y-14897262D01*
X14338643Y-14849643D02*
X14414833Y-14849643D01*
X14367214Y-14782976D02*
X14367214Y-14954405D01*
X14376738Y-14973452D01*
X14395786Y-14982976D01*
X14414833Y-14982976D01*
X14557690Y-14973452D02*
X14538643Y-14982976D01*
X14500548Y-14982976D01*
X14481500Y-14973452D01*
X14471976Y-14954405D01*
X14471976Y-14878214D01*
X14481500Y-14859167D01*
X14500548Y-14849643D01*
X14538643Y-14849643D01*
X14557690Y-14859167D01*
X14567214Y-14878214D01*
X14567214Y-14897262D01*
X14471976Y-14916309D01*
X14738643Y-14982976D02*
X14738643Y-14782976D01*
X14738643Y-14973452D02*
X14719595Y-14982976D01*
X14681500Y-14982976D01*
X14662452Y-14973452D01*
X14652928Y-14963928D01*
X14643405Y-14944881D01*
X14643405Y-14887738D01*
X14652928Y-14868690D01*
X14662452Y-14859167D01*
X14681500Y-14849643D01*
X14719595Y-14849643D01*
X14738643Y-14859167D01*
X14814833Y-15059167D02*
X14824357Y-15049643D01*
X14843405Y-15021071D01*
X14852928Y-15002024D01*
X14862452Y-14973452D01*
X14871976Y-14925833D01*
X14871976Y-14887738D01*
X14862452Y-14840119D01*
X14852928Y-14811548D01*
X14843405Y-14792500D01*
X14824357Y-14763928D01*
X14814833Y-14754405D01*
X7842211Y-15253391D02*
X7842211Y-15111969D01*
X7700789Y-15111969D01*
X7700789Y-15253391D01*
X7842211Y-15253391D01*
X8119595Y-15092204D02*
X8129119Y-15082680D01*
X8148167Y-15073156D01*
X8195786Y-15073156D01*
X8214833Y-15082680D01*
X8224357Y-15092204D01*
X8233881Y-15111251D01*
X8233881Y-15130299D01*
X8224357Y-15158870D01*
X8110071Y-15273156D01*
X8233881Y-15273156D01*
X8319595Y-15254108D02*
X8329119Y-15263632D01*
X8319595Y-15273156D01*
X8310071Y-15263632D01*
X8319595Y-15254108D01*
X8319595Y-15273156D01*
X8519595Y-15273156D02*
X8405310Y-15273156D01*
X8462452Y-15273156D02*
X8462452Y-15073156D01*
X8443405Y-15101728D01*
X8424357Y-15120775D01*
X8405310Y-15130299D01*
X8643405Y-15073156D02*
X8662452Y-15073156D01*
X8681500Y-15082680D01*
X8691024Y-15092204D01*
X8700548Y-15111251D01*
X8710071Y-15149347D01*
X8710071Y-15196966D01*
X8700548Y-15235061D01*
X8691024Y-15254108D01*
X8681500Y-15263632D01*
X8662452Y-15273156D01*
X8643405Y-15273156D01*
X8624357Y-15263632D01*
X8614833Y-15254108D01*
X8605310Y-15235061D01*
X8595786Y-15196966D01*
X8595786Y-15149347D01*
X8605310Y-15111251D01*
X8614833Y-15092204D01*
X8624357Y-15082680D01*
X8643405Y-15073156D01*
X8833881Y-15073156D02*
X8852929Y-15073156D01*
X8871976Y-15082680D01*
X8881500Y-15092204D01*
X8891024Y-15111251D01*
X8900548Y-15149347D01*
X8900548Y-15196966D01*
X8891024Y-15235061D01*
X8881500Y-15254108D01*
X8871976Y-15263632D01*
X8852929Y-15273156D01*
X8833881Y-15273156D01*
X8814833Y-15263632D01*
X8805310Y-15254108D01*
X8795786Y-15235061D01*
X8786262Y-15196966D01*
X8786262Y-15149347D01*
X8795786Y-15111251D01*
X8805310Y-15092204D01*
X8814833Y-15082680D01*
X8833881Y-15073156D01*
X8986262Y-15273156D02*
X8986262Y-15139823D01*
X8986262Y-15158870D02*
X8995786Y-15149347D01*
X9014833Y-15139823D01*
X9043405Y-15139823D01*
X9062452Y-15149347D01*
X9071976Y-15168394D01*
X9071976Y-15273156D01*
X9071976Y-15168394D02*
X9081500Y-15149347D01*
X9100548Y-15139823D01*
X9129119Y-15139823D01*
X9148167Y-15149347D01*
X9157690Y-15168394D01*
X9157690Y-15273156D01*
X9252929Y-15273156D02*
X9252929Y-15139823D01*
X9252929Y-15158870D02*
X9262452Y-15149347D01*
X9281500Y-15139823D01*
X9310071Y-15139823D01*
X9329119Y-15149347D01*
X9338643Y-15168394D01*
X9338643Y-15273156D01*
X9338643Y-15168394D02*
X9348167Y-15149347D01*
X9367214Y-15139823D01*
X9395786Y-15139823D01*
X9414833Y-15149347D01*
X9424357Y-15168394D01*
X9424357Y-15273156D01*
X9814833Y-15063632D02*
X9643405Y-15320775D01*
X10071976Y-15073156D02*
X10091024Y-15073156D01*
X10110071Y-15082680D01*
X10119595Y-15092204D01*
X10129119Y-15111251D01*
X10138643Y-15149347D01*
X10138643Y-15196966D01*
X10129119Y-15235061D01*
X10119595Y-15254108D01*
X10110071Y-15263632D01*
X10091024Y-15273156D01*
X10071976Y-15273156D01*
X10052929Y-15263632D01*
X10043405Y-15254108D01*
X10033881Y-15235061D01*
X10024357Y-15196966D01*
X10024357Y-15149347D01*
X10033881Y-15111251D01*
X10043405Y-15092204D01*
X10052929Y-15082680D01*
X10071976Y-15073156D01*
X10224357Y-15254108D02*
X10233881Y-15263632D01*
X10224357Y-15273156D01*
X10214833Y-15263632D01*
X10224357Y-15254108D01*
X10224357Y-15273156D01*
X10357690Y-15073156D02*
X10376738Y-15073156D01*
X10395786Y-15082680D01*
X10405310Y-15092204D01*
X10414833Y-15111251D01*
X10424357Y-15149347D01*
X10424357Y-15196966D01*
X10414833Y-15235061D01*
X10405310Y-15254108D01*
X10395786Y-15263632D01*
X10376738Y-15273156D01*
X10357690Y-15273156D01*
X10338643Y-15263632D01*
X10329119Y-15254108D01*
X10319595Y-15235061D01*
X10310071Y-15196966D01*
X10310071Y-15149347D01*
X10319595Y-15111251D01*
X10329119Y-15092204D01*
X10338643Y-15082680D01*
X10357690Y-15073156D01*
X10538643Y-15158870D02*
X10519595Y-15149347D01*
X10510071Y-15139823D01*
X10500548Y-15120775D01*
X10500548Y-15111251D01*
X10510071Y-15092204D01*
X10519595Y-15082680D01*
X10538643Y-15073156D01*
X10576738Y-15073156D01*
X10595786Y-15082680D01*
X10605310Y-15092204D01*
X10614833Y-15111251D01*
X10614833Y-15120775D01*
X10605310Y-15139823D01*
X10595786Y-15149347D01*
X10576738Y-15158870D01*
X10538643Y-15158870D01*
X10519595Y-15168394D01*
X10510071Y-15177918D01*
X10500548Y-15196966D01*
X10500548Y-15235061D01*
X10510071Y-15254108D01*
X10519595Y-15263632D01*
X10538643Y-15273156D01*
X10576738Y-15273156D01*
X10595786Y-15263632D01*
X10605310Y-15254108D01*
X10614833Y-15235061D01*
X10614833Y-15196966D01*
X10605310Y-15177918D01*
X10595786Y-15168394D01*
X10576738Y-15158870D01*
X10691024Y-15092204D02*
X10700548Y-15082680D01*
X10719595Y-15073156D01*
X10767214Y-15073156D01*
X10786262Y-15082680D01*
X10795786Y-15092204D01*
X10805310Y-15111251D01*
X10805310Y-15130299D01*
X10795786Y-15158870D01*
X10681500Y-15273156D01*
X10805310Y-15273156D01*
X10871976Y-15073156D02*
X11005310Y-15073156D01*
X10919595Y-15273156D01*
X11071976Y-15073156D02*
X11071976Y-15111251D01*
X11148167Y-15073156D02*
X11148167Y-15111251D01*
X11443405Y-15349347D02*
X11433881Y-15339823D01*
X11414833Y-15311251D01*
X11405309Y-15292204D01*
X11395786Y-15263632D01*
X11386262Y-15216013D01*
X11386262Y-15177918D01*
X11395786Y-15130299D01*
X11405309Y-15101728D01*
X11414833Y-15082680D01*
X11433881Y-15054108D01*
X11443405Y-15044585D01*
X11605309Y-15139823D02*
X11605309Y-15273156D01*
X11557690Y-15063632D02*
X11510071Y-15206489D01*
X11633881Y-15206489D01*
X11862452Y-15273156D02*
X11862452Y-15073156D01*
X11948167Y-15273156D02*
X11948167Y-15168394D01*
X11938643Y-15149347D01*
X11919595Y-15139823D01*
X11891024Y-15139823D01*
X11871976Y-15149347D01*
X11862452Y-15158870D01*
X12071976Y-15273156D02*
X12052928Y-15263632D01*
X12043405Y-15254108D01*
X12033881Y-15235061D01*
X12033881Y-15177918D01*
X12043405Y-15158870D01*
X12052928Y-15149347D01*
X12071976Y-15139823D01*
X12100548Y-15139823D01*
X12119595Y-15149347D01*
X12129119Y-15158870D01*
X12138643Y-15177918D01*
X12138643Y-15235061D01*
X12129119Y-15254108D01*
X12119595Y-15263632D01*
X12100548Y-15273156D01*
X12071976Y-15273156D01*
X12252928Y-15273156D02*
X12233881Y-15263632D01*
X12224357Y-15244585D01*
X12224357Y-15073156D01*
X12405309Y-15263632D02*
X12386262Y-15273156D01*
X12348167Y-15273156D01*
X12329119Y-15263632D01*
X12319595Y-15244585D01*
X12319595Y-15168394D01*
X12329119Y-15149347D01*
X12348167Y-15139823D01*
X12386262Y-15139823D01*
X12405309Y-15149347D01*
X12414833Y-15168394D01*
X12414833Y-15187442D01*
X12319595Y-15206489D01*
X12491024Y-15263632D02*
X12510071Y-15273156D01*
X12548167Y-15273156D01*
X12567214Y-15263632D01*
X12576738Y-15244585D01*
X12576738Y-15235061D01*
X12567214Y-15216013D01*
X12548167Y-15206489D01*
X12519595Y-15206489D01*
X12500548Y-15196966D01*
X12491024Y-15177918D01*
X12491024Y-15168394D01*
X12500548Y-15149347D01*
X12519595Y-15139823D01*
X12548167Y-15139823D01*
X12567214Y-15149347D01*
X12643405Y-15349347D02*
X12652928Y-15339823D01*
X12671976Y-15311251D01*
X12681500Y-15292204D01*
X12691024Y-15263632D01*
X12700548Y-15216013D01*
X12700548Y-15177918D01*
X12691024Y-15130299D01*
X12681500Y-15101728D01*
X12671976Y-15082680D01*
X12652928Y-15054108D01*
X12643405Y-15044585D01*
X13005309Y-15349347D02*
X12995786Y-15339823D01*
X12976738Y-15311251D01*
X12967214Y-15292204D01*
X12957690Y-15263632D01*
X12948167Y-15216013D01*
X12948167Y-15177918D01*
X12957690Y-15130299D01*
X12967214Y-15101728D01*
X12976738Y-15082680D01*
X12995786Y-15054108D01*
X13005309Y-15044585D01*
X13081500Y-15139823D02*
X13081500Y-15273156D01*
X13081500Y-15158870D02*
X13091024Y-15149347D01*
X13110071Y-15139823D01*
X13138643Y-15139823D01*
X13157690Y-15149347D01*
X13167214Y-15168394D01*
X13167214Y-15273156D01*
X13291024Y-15273156D02*
X13271976Y-15263632D01*
X13262452Y-15254108D01*
X13252928Y-15235061D01*
X13252928Y-15177918D01*
X13262452Y-15158870D01*
X13271976Y-15149347D01*
X13291024Y-15139823D01*
X13319595Y-15139823D01*
X13338643Y-15149347D01*
X13348167Y-15158870D01*
X13357690Y-15177918D01*
X13357690Y-15235061D01*
X13348167Y-15254108D01*
X13338643Y-15263632D01*
X13319595Y-15273156D01*
X13291024Y-15273156D01*
X13414833Y-15139823D02*
X13491024Y-15139823D01*
X13443405Y-15073156D02*
X13443405Y-15244585D01*
X13452928Y-15263632D01*
X13471976Y-15273156D01*
X13491024Y-15273156D01*
X13710071Y-15139823D02*
X13710071Y-15339823D01*
X13710071Y-15149347D02*
X13729119Y-15139823D01*
X13767214Y-15139823D01*
X13786262Y-15149347D01*
X13795786Y-15158870D01*
X13805309Y-15177918D01*
X13805309Y-15235061D01*
X13795786Y-15254108D01*
X13786262Y-15263632D01*
X13767214Y-15273156D01*
X13729119Y-15273156D01*
X13710071Y-15263632D01*
X13919595Y-15273156D02*
X13900548Y-15263632D01*
X13891024Y-15244585D01*
X13891024Y-15073156D01*
X14081500Y-15273156D02*
X14081500Y-15168394D01*
X14071976Y-15149347D01*
X14052928Y-15139823D01*
X14014833Y-15139823D01*
X13995786Y-15149347D01*
X14081500Y-15263632D02*
X14062452Y-15273156D01*
X14014833Y-15273156D01*
X13995786Y-15263632D01*
X13986262Y-15244585D01*
X13986262Y-15225537D01*
X13995786Y-15206489D01*
X14014833Y-15196966D01*
X14062452Y-15196966D01*
X14081500Y-15187442D01*
X14148167Y-15139823D02*
X14224357Y-15139823D01*
X14176738Y-15073156D02*
X14176738Y-15244585D01*
X14186262Y-15263632D01*
X14205309Y-15273156D01*
X14224357Y-15273156D01*
X14367214Y-15263632D02*
X14348167Y-15273156D01*
X14310071Y-15273156D01*
X14291024Y-15263632D01*
X14281500Y-15244585D01*
X14281500Y-15168394D01*
X14291024Y-15149347D01*
X14310071Y-15139823D01*
X14348167Y-15139823D01*
X14367214Y-15149347D01*
X14376738Y-15168394D01*
X14376738Y-15187442D01*
X14281500Y-15206489D01*
X14548167Y-15273156D02*
X14548167Y-15073156D01*
X14548167Y-15263632D02*
X14529119Y-15273156D01*
X14491024Y-15273156D01*
X14471976Y-15263632D01*
X14462452Y-15254108D01*
X14452928Y-15235061D01*
X14452928Y-15177918D01*
X14462452Y-15158870D01*
X14471976Y-15149347D01*
X14491024Y-15139823D01*
X14529119Y-15139823D01*
X14548167Y-15149347D01*
X14624357Y-15349347D02*
X14633881Y-15339823D01*
X14652928Y-15311251D01*
X14662452Y-15292204D01*
X14671976Y-15263632D01*
X14681500Y-15216013D01*
X14681500Y-15177918D01*
X14671976Y-15130299D01*
X14662452Y-15101728D01*
X14652928Y-15082680D01*
X14633881Y-15054108D01*
X14624357Y-15044585D01*
X7771500Y-15602680D02*
X7871500Y-15502680D01*
X7771500Y-15402680D01*
X7671500Y-15502680D01*
X7771500Y-15602680D01*
X8110071Y-15393156D02*
X8233881Y-15393156D01*
X8167214Y-15469347D01*
X8195786Y-15469347D01*
X8214833Y-15478870D01*
X8224357Y-15488394D01*
X8233881Y-15507442D01*
X8233881Y-15555061D01*
X8224357Y-15574108D01*
X8214833Y-15583632D01*
X8195786Y-15593156D01*
X8138643Y-15593156D01*
X8119595Y-15583632D01*
X8110071Y-15574108D01*
X8319595Y-15574108D02*
X8329119Y-15583632D01*
X8319595Y-15593156D01*
X8310071Y-15583632D01*
X8319595Y-15574108D01*
X8319595Y-15593156D01*
X8452929Y-15393156D02*
X8471976Y-15393156D01*
X8491024Y-15402680D01*
X8500548Y-15412204D01*
X8510071Y-15431251D01*
X8519595Y-15469347D01*
X8519595Y-15516966D01*
X8510071Y-15555061D01*
X8500548Y-15574108D01*
X8491024Y-15583632D01*
X8471976Y-15593156D01*
X8452929Y-15593156D01*
X8433881Y-15583632D01*
X8424357Y-15574108D01*
X8414833Y-15555061D01*
X8405310Y-15516966D01*
X8405310Y-15469347D01*
X8414833Y-15431251D01*
X8424357Y-15412204D01*
X8433881Y-15402680D01*
X8452929Y-15393156D01*
X8643405Y-15393156D02*
X8662452Y-15393156D01*
X8681500Y-15402680D01*
X8691024Y-15412204D01*
X8700548Y-15431251D01*
X8710071Y-15469347D01*
X8710071Y-15516966D01*
X8700548Y-15555061D01*
X8691024Y-15574108D01*
X8681500Y-15583632D01*
X8662452Y-15593156D01*
X8643405Y-15593156D01*
X8624357Y-15583632D01*
X8614833Y-15574108D01*
X8605310Y-15555061D01*
X8595786Y-15516966D01*
X8595786Y-15469347D01*
X8605310Y-15431251D01*
X8614833Y-15412204D01*
X8624357Y-15402680D01*
X8643405Y-15393156D01*
X8833881Y-15393156D02*
X8852929Y-15393156D01*
X8871976Y-15402680D01*
X8881500Y-15412204D01*
X8891024Y-15431251D01*
X8900548Y-15469347D01*
X8900548Y-15516966D01*
X8891024Y-15555061D01*
X8881500Y-15574108D01*
X8871976Y-15583632D01*
X8852929Y-15593156D01*
X8833881Y-15593156D01*
X8814833Y-15583632D01*
X8805310Y-15574108D01*
X8795786Y-15555061D01*
X8786262Y-15516966D01*
X8786262Y-15469347D01*
X8795786Y-15431251D01*
X8805310Y-15412204D01*
X8814833Y-15402680D01*
X8833881Y-15393156D01*
X8986262Y-15593156D02*
X8986262Y-15459823D01*
X8986262Y-15478870D02*
X8995786Y-15469347D01*
X9014833Y-15459823D01*
X9043405Y-15459823D01*
X9062452Y-15469347D01*
X9071976Y-15488394D01*
X9071976Y-15593156D01*
X9071976Y-15488394D02*
X9081500Y-15469347D01*
X9100548Y-15459823D01*
X9129119Y-15459823D01*
X9148167Y-15469347D01*
X9157690Y-15488394D01*
X9157690Y-15593156D01*
X9252929Y-15593156D02*
X9252929Y-15459823D01*
X9252929Y-15478870D02*
X9262452Y-15469347D01*
X9281500Y-15459823D01*
X9310071Y-15459823D01*
X9329119Y-15469347D01*
X9338643Y-15488394D01*
X9338643Y-15593156D01*
X9338643Y-15488394D02*
X9348167Y-15469347D01*
X9367214Y-15459823D01*
X9395786Y-15459823D01*
X9414833Y-15469347D01*
X9424357Y-15488394D01*
X9424357Y-15593156D01*
X9814833Y-15383632D02*
X9643405Y-15640775D01*
X10071976Y-15393156D02*
X10091024Y-15393156D01*
X10110071Y-15402680D01*
X10119595Y-15412204D01*
X10129119Y-15431251D01*
X10138643Y-15469347D01*
X10138643Y-15516966D01*
X10129119Y-15555061D01*
X10119595Y-15574108D01*
X10110071Y-15583632D01*
X10091024Y-15593156D01*
X10071976Y-15593156D01*
X10052929Y-15583632D01*
X10043405Y-15574108D01*
X10033881Y-15555061D01*
X10024357Y-15516966D01*
X10024357Y-15469347D01*
X10033881Y-15431251D01*
X10043405Y-15412204D01*
X10052929Y-15402680D01*
X10071976Y-15393156D01*
X10224357Y-15574108D02*
X10233881Y-15583632D01*
X10224357Y-15593156D01*
X10214833Y-15583632D01*
X10224357Y-15574108D01*
X10224357Y-15593156D01*
X10424357Y-15593156D02*
X10310071Y-15593156D01*
X10367214Y-15593156D02*
X10367214Y-15393156D01*
X10348167Y-15421728D01*
X10329119Y-15440775D01*
X10310071Y-15450299D01*
X10614833Y-15593156D02*
X10500548Y-15593156D01*
X10557690Y-15593156D02*
X10557690Y-15393156D01*
X10538643Y-15421728D01*
X10519595Y-15440775D01*
X10500548Y-15450299D01*
X10729119Y-15478870D02*
X10710071Y-15469347D01*
X10700548Y-15459823D01*
X10691024Y-15440775D01*
X10691024Y-15431251D01*
X10700548Y-15412204D01*
X10710071Y-15402680D01*
X10729119Y-15393156D01*
X10767214Y-15393156D01*
X10786262Y-15402680D01*
X10795786Y-15412204D01*
X10805310Y-15431251D01*
X10805310Y-15440775D01*
X10795786Y-15459823D01*
X10786262Y-15469347D01*
X10767214Y-15478870D01*
X10729119Y-15478870D01*
X10710071Y-15488394D01*
X10700548Y-15497918D01*
X10691024Y-15516966D01*
X10691024Y-15555061D01*
X10700548Y-15574108D01*
X10710071Y-15583632D01*
X10729119Y-15593156D01*
X10767214Y-15593156D01*
X10786262Y-15583632D01*
X10795786Y-15574108D01*
X10805310Y-15555061D01*
X10805310Y-15516966D01*
X10795786Y-15497918D01*
X10786262Y-15488394D01*
X10767214Y-15478870D01*
X10995786Y-15593156D02*
X10881500Y-15593156D01*
X10938643Y-15593156D02*
X10938643Y-15393156D01*
X10919595Y-15421728D01*
X10900548Y-15440775D01*
X10881500Y-15450299D01*
X11071976Y-15393156D02*
X11071976Y-15431251D01*
X11148167Y-15393156D02*
X11148167Y-15431251D01*
X11443405Y-15669347D02*
X11433881Y-15659823D01*
X11414833Y-15631251D01*
X11405309Y-15612204D01*
X11395786Y-15583632D01*
X11386262Y-15536013D01*
X11386262Y-15497918D01*
X11395786Y-15450299D01*
X11405309Y-15421728D01*
X11414833Y-15402680D01*
X11433881Y-15374108D01*
X11443405Y-15364585D01*
X11510071Y-15412204D02*
X11519595Y-15402680D01*
X11538643Y-15393156D01*
X11586262Y-15393156D01*
X11605309Y-15402680D01*
X11614833Y-15412204D01*
X11624357Y-15431251D01*
X11624357Y-15450299D01*
X11614833Y-15478870D01*
X11500548Y-15593156D01*
X11624357Y-15593156D01*
X11738643Y-15478870D02*
X11719595Y-15469347D01*
X11710071Y-15459823D01*
X11700548Y-15440775D01*
X11700548Y-15431251D01*
X11710071Y-15412204D01*
X11719595Y-15402680D01*
X11738643Y-15393156D01*
X11776738Y-15393156D01*
X11795786Y-15402680D01*
X11805309Y-15412204D01*
X11814833Y-15431251D01*
X11814833Y-15440775D01*
X11805309Y-15459823D01*
X11795786Y-15469347D01*
X11776738Y-15478870D01*
X11738643Y-15478870D01*
X11719595Y-15488394D01*
X11710071Y-15497918D01*
X11700548Y-15516966D01*
X11700548Y-15555061D01*
X11710071Y-15574108D01*
X11719595Y-15583632D01*
X11738643Y-15593156D01*
X11776738Y-15593156D01*
X11795786Y-15583632D01*
X11805309Y-15574108D01*
X11814833Y-15555061D01*
X11814833Y-15516966D01*
X11805309Y-15497918D01*
X11795786Y-15488394D01*
X11776738Y-15478870D01*
X12052928Y-15593156D02*
X12052928Y-15393156D01*
X12138643Y-15593156D02*
X12138643Y-15488394D01*
X12129119Y-15469347D01*
X12110071Y-15459823D01*
X12081500Y-15459823D01*
X12062452Y-15469347D01*
X12052928Y-15478870D01*
X12262452Y-15593156D02*
X12243405Y-15583632D01*
X12233881Y-15574108D01*
X12224357Y-15555061D01*
X12224357Y-15497918D01*
X12233881Y-15478870D01*
X12243405Y-15469347D01*
X12262452Y-15459823D01*
X12291024Y-15459823D01*
X12310071Y-15469347D01*
X12319595Y-15478870D01*
X12329119Y-15497918D01*
X12329119Y-15555061D01*
X12319595Y-15574108D01*
X12310071Y-15583632D01*
X12291024Y-15593156D01*
X12262452Y-15593156D01*
X12443405Y-15593156D02*
X12424357Y-15583632D01*
X12414833Y-15564585D01*
X12414833Y-15393156D01*
X12595786Y-15583632D02*
X12576738Y-15593156D01*
X12538643Y-15593156D01*
X12519595Y-15583632D01*
X12510071Y-15564585D01*
X12510071Y-15488394D01*
X12519595Y-15469347D01*
X12538643Y-15459823D01*
X12576738Y-15459823D01*
X12595786Y-15469347D01*
X12605309Y-15488394D01*
X12605309Y-15507442D01*
X12510071Y-15526489D01*
X12681500Y-15583632D02*
X12700548Y-15593156D01*
X12738643Y-15593156D01*
X12757690Y-15583632D01*
X12767214Y-15564585D01*
X12767214Y-15555061D01*
X12757690Y-15536013D01*
X12738643Y-15526489D01*
X12710071Y-15526489D01*
X12691024Y-15516966D01*
X12681500Y-15497918D01*
X12681500Y-15488394D01*
X12691024Y-15469347D01*
X12710071Y-15459823D01*
X12738643Y-15459823D01*
X12757690Y-15469347D01*
X12833881Y-15669347D02*
X12843405Y-15659823D01*
X12862452Y-15631251D01*
X12871976Y-15612204D01*
X12881500Y-15583632D01*
X12891024Y-15536013D01*
X12891024Y-15497918D01*
X12881500Y-15450299D01*
X12871976Y-15421728D01*
X12862452Y-15402680D01*
X12843405Y-15374108D01*
X12833881Y-15364585D01*
X13195786Y-15669347D02*
X13186262Y-15659823D01*
X13167214Y-15631251D01*
X13157690Y-15612204D01*
X13148167Y-15583632D01*
X13138643Y-15536013D01*
X13138643Y-15497918D01*
X13148167Y-15450299D01*
X13157690Y-15421728D01*
X13167214Y-15402680D01*
X13186262Y-15374108D01*
X13195786Y-15364585D01*
X13271976Y-15459823D02*
X13271976Y-15593156D01*
X13271976Y-15478870D02*
X13281500Y-15469347D01*
X13300548Y-15459823D01*
X13329119Y-15459823D01*
X13348167Y-15469347D01*
X13357690Y-15488394D01*
X13357690Y-15593156D01*
X13481500Y-15593156D02*
X13462452Y-15583632D01*
X13452928Y-15574108D01*
X13443405Y-15555061D01*
X13443405Y-15497918D01*
X13452928Y-15478870D01*
X13462452Y-15469347D01*
X13481500Y-15459823D01*
X13510071Y-15459823D01*
X13529119Y-15469347D01*
X13538643Y-15478870D01*
X13548167Y-15497918D01*
X13548167Y-15555061D01*
X13538643Y-15574108D01*
X13529119Y-15583632D01*
X13510071Y-15593156D01*
X13481500Y-15593156D01*
X13605309Y-15459823D02*
X13681500Y-15459823D01*
X13633881Y-15393156D02*
X13633881Y-15564585D01*
X13643405Y-15583632D01*
X13662452Y-15593156D01*
X13681500Y-15593156D01*
X13900548Y-15459823D02*
X13900548Y-15659823D01*
X13900548Y-15469347D02*
X13919595Y-15459823D01*
X13957690Y-15459823D01*
X13976738Y-15469347D01*
X13986262Y-15478870D01*
X13995786Y-15497918D01*
X13995786Y-15555061D01*
X13986262Y-15574108D01*
X13976738Y-15583632D01*
X13957690Y-15593156D01*
X13919595Y-15593156D01*
X13900548Y-15583632D01*
X14110071Y-15593156D02*
X14091024Y-15583632D01*
X14081500Y-15564585D01*
X14081500Y-15393156D01*
X14271976Y-15593156D02*
X14271976Y-15488394D01*
X14262452Y-15469347D01*
X14243405Y-15459823D01*
X14205309Y-15459823D01*
X14186262Y-15469347D01*
X14271976Y-15583632D02*
X14252928Y-15593156D01*
X14205309Y-15593156D01*
X14186262Y-15583632D01*
X14176738Y-15564585D01*
X14176738Y-15545537D01*
X14186262Y-15526489D01*
X14205309Y-15516966D01*
X14252928Y-15516966D01*
X14271976Y-15507442D01*
X14338643Y-15459823D02*
X14414833Y-15459823D01*
X14367214Y-15393156D02*
X14367214Y-15564585D01*
X14376738Y-15583632D01*
X14395786Y-15593156D01*
X14414833Y-15593156D01*
X14557690Y-15583632D02*
X14538643Y-15593156D01*
X14500548Y-15593156D01*
X14481500Y-15583632D01*
X14471976Y-15564585D01*
X14471976Y-15488394D01*
X14481500Y-15469347D01*
X14500548Y-15459823D01*
X14538643Y-15459823D01*
X14557690Y-15469347D01*
X14567214Y-15488394D01*
X14567214Y-15507442D01*
X14471976Y-15526489D01*
X14738643Y-15593156D02*
X14738643Y-15393156D01*
X14738643Y-15583632D02*
X14719595Y-15593156D01*
X14681500Y-15593156D01*
X14662452Y-15583632D01*
X14652928Y-15574108D01*
X14643405Y-15555061D01*
X14643405Y-15497918D01*
X14652928Y-15478870D01*
X14662452Y-15469347D01*
X14681500Y-15459823D01*
X14719595Y-15459823D01*
X14738643Y-15469347D01*
X14814833Y-15669347D02*
X14824357Y-15659823D01*
X14843405Y-15631251D01*
X14852928Y-15612204D01*
X14862452Y-15583632D01*
X14871976Y-15536013D01*
X14871976Y-15497918D01*
X14862452Y-15450299D01*
X14852928Y-15421728D01*
X14843405Y-15402680D01*
X14824357Y-15374108D01*
X14814833Y-15364585D01*
X7671500Y-15722680D02*
X7871500Y-15922680D01*
X7871500Y-15722680D02*
X7671500Y-15922680D01*
X7871500Y-15822680D02*
G75*
G03*
X7871500Y-15822680I-100000J0D01*
G01*
X8110071Y-15713156D02*
X8233881Y-15713156D01*
X8167214Y-15789347D01*
X8195786Y-15789347D01*
X8214833Y-15798870D01*
X8224357Y-15808394D01*
X8233881Y-15827442D01*
X8233881Y-15875061D01*
X8224357Y-15894108D01*
X8214833Y-15903632D01*
X8195786Y-15913156D01*
X8138643Y-15913156D01*
X8119595Y-15903632D01*
X8110071Y-15894108D01*
X8319595Y-15894108D02*
X8329119Y-15903632D01*
X8319595Y-15913156D01*
X8310071Y-15903632D01*
X8319595Y-15894108D01*
X8319595Y-15913156D01*
X8405310Y-15732204D02*
X8414833Y-15722680D01*
X8433881Y-15713156D01*
X8481500Y-15713156D01*
X8500548Y-15722680D01*
X8510071Y-15732204D01*
X8519595Y-15751251D01*
X8519595Y-15770299D01*
X8510071Y-15798870D01*
X8395786Y-15913156D01*
X8519595Y-15913156D01*
X8643405Y-15713156D02*
X8662452Y-15713156D01*
X8681500Y-15722680D01*
X8691024Y-15732204D01*
X8700548Y-15751251D01*
X8710071Y-15789347D01*
X8710071Y-15836966D01*
X8700548Y-15875061D01*
X8691024Y-15894108D01*
X8681500Y-15903632D01*
X8662452Y-15913156D01*
X8643405Y-15913156D01*
X8624357Y-15903632D01*
X8614833Y-15894108D01*
X8605310Y-15875061D01*
X8595786Y-15836966D01*
X8595786Y-15789347D01*
X8605310Y-15751251D01*
X8614833Y-15732204D01*
X8624357Y-15722680D01*
X8643405Y-15713156D01*
X8833881Y-15713156D02*
X8852929Y-15713156D01*
X8871976Y-15722680D01*
X8881500Y-15732204D01*
X8891024Y-15751251D01*
X8900548Y-15789347D01*
X8900548Y-15836966D01*
X8891024Y-15875061D01*
X8881500Y-15894108D01*
X8871976Y-15903632D01*
X8852929Y-15913156D01*
X8833881Y-15913156D01*
X8814833Y-15903632D01*
X8805310Y-15894108D01*
X8795786Y-15875061D01*
X8786262Y-15836966D01*
X8786262Y-15789347D01*
X8795786Y-15751251D01*
X8805310Y-15732204D01*
X8814833Y-15722680D01*
X8833881Y-15713156D01*
X8986262Y-15913156D02*
X8986262Y-15779823D01*
X8986262Y-15798870D02*
X8995786Y-15789347D01*
X9014833Y-15779823D01*
X9043405Y-15779823D01*
X9062452Y-15789347D01*
X9071976Y-15808394D01*
X9071976Y-15913156D01*
X9071976Y-15808394D02*
X9081500Y-15789347D01*
X9100548Y-15779823D01*
X9129119Y-15779823D01*
X9148167Y-15789347D01*
X9157690Y-15808394D01*
X9157690Y-15913156D01*
X9252929Y-15913156D02*
X9252929Y-15779823D01*
X9252929Y-15798870D02*
X9262452Y-15789347D01*
X9281500Y-15779823D01*
X9310071Y-15779823D01*
X9329119Y-15789347D01*
X9338643Y-15808394D01*
X9338643Y-15913156D01*
X9338643Y-15808394D02*
X9348167Y-15789347D01*
X9367214Y-15779823D01*
X9395786Y-15779823D01*
X9414833Y-15789347D01*
X9424357Y-15808394D01*
X9424357Y-15913156D01*
X9814833Y-15703632D02*
X9643405Y-15960775D01*
X10071976Y-15713156D02*
X10091024Y-15713156D01*
X10110071Y-15722680D01*
X10119595Y-15732204D01*
X10129119Y-15751251D01*
X10138643Y-15789347D01*
X10138643Y-15836966D01*
X10129119Y-15875061D01*
X10119595Y-15894108D01*
X10110071Y-15903632D01*
X10091024Y-15913156D01*
X10071976Y-15913156D01*
X10052929Y-15903632D01*
X10043405Y-15894108D01*
X10033881Y-15875061D01*
X10024357Y-15836966D01*
X10024357Y-15789347D01*
X10033881Y-15751251D01*
X10043405Y-15732204D01*
X10052929Y-15722680D01*
X10071976Y-15713156D01*
X10224357Y-15894108D02*
X10233881Y-15903632D01*
X10224357Y-15913156D01*
X10214833Y-15903632D01*
X10224357Y-15894108D01*
X10224357Y-15913156D01*
X10424357Y-15913156D02*
X10310071Y-15913156D01*
X10367214Y-15913156D02*
X10367214Y-15713156D01*
X10348167Y-15741728D01*
X10329119Y-15760775D01*
X10310071Y-15770299D01*
X10500548Y-15732204D02*
X10510071Y-15722680D01*
X10529119Y-15713156D01*
X10576738Y-15713156D01*
X10595786Y-15722680D01*
X10605310Y-15732204D01*
X10614833Y-15751251D01*
X10614833Y-15770299D01*
X10605310Y-15798870D01*
X10491024Y-15913156D01*
X10614833Y-15913156D01*
X10786262Y-15713156D02*
X10748167Y-15713156D01*
X10729119Y-15722680D01*
X10719595Y-15732204D01*
X10700548Y-15760775D01*
X10691024Y-15798870D01*
X10691024Y-15875061D01*
X10700548Y-15894108D01*
X10710071Y-15903632D01*
X10729119Y-15913156D01*
X10767214Y-15913156D01*
X10786262Y-15903632D01*
X10795786Y-15894108D01*
X10805310Y-15875061D01*
X10805310Y-15827442D01*
X10795786Y-15808394D01*
X10786262Y-15798870D01*
X10767214Y-15789347D01*
X10729119Y-15789347D01*
X10710071Y-15798870D01*
X10700548Y-15808394D01*
X10691024Y-15827442D01*
X10929119Y-15713156D02*
X10948167Y-15713156D01*
X10967214Y-15722680D01*
X10976738Y-15732204D01*
X10986262Y-15751251D01*
X10995786Y-15789347D01*
X10995786Y-15836966D01*
X10986262Y-15875061D01*
X10976738Y-15894108D01*
X10967214Y-15903632D01*
X10948167Y-15913156D01*
X10929119Y-15913156D01*
X10910071Y-15903632D01*
X10900548Y-15894108D01*
X10891024Y-15875061D01*
X10881500Y-15836966D01*
X10881500Y-15789347D01*
X10891024Y-15751251D01*
X10900548Y-15732204D01*
X10910071Y-15722680D01*
X10929119Y-15713156D01*
X11071976Y-15713156D02*
X11071976Y-15751251D01*
X11148167Y-15713156D02*
X11148167Y-15751251D01*
X11443405Y-15989347D02*
X11433881Y-15979823D01*
X11414833Y-15951251D01*
X11405309Y-15932204D01*
X11395786Y-15903632D01*
X11386262Y-15856013D01*
X11386262Y-15817918D01*
X11395786Y-15770299D01*
X11405309Y-15741728D01*
X11414833Y-15722680D01*
X11433881Y-15694108D01*
X11443405Y-15684585D01*
X11614833Y-15713156D02*
X11519595Y-15713156D01*
X11510071Y-15808394D01*
X11519595Y-15798870D01*
X11538643Y-15789347D01*
X11586262Y-15789347D01*
X11605309Y-15798870D01*
X11614833Y-15808394D01*
X11624357Y-15827442D01*
X11624357Y-15875061D01*
X11614833Y-15894108D01*
X11605309Y-15903632D01*
X11586262Y-15913156D01*
X11538643Y-15913156D01*
X11519595Y-15903632D01*
X11510071Y-15894108D01*
X11862452Y-15913156D02*
X11862452Y-15713156D01*
X11948167Y-15913156D02*
X11948167Y-15808394D01*
X11938643Y-15789347D01*
X11919595Y-15779823D01*
X11891024Y-15779823D01*
X11871976Y-15789347D01*
X11862452Y-15798870D01*
X12071976Y-15913156D02*
X12052928Y-15903632D01*
X12043405Y-15894108D01*
X12033881Y-15875061D01*
X12033881Y-15817918D01*
X12043405Y-15798870D01*
X12052928Y-15789347D01*
X12071976Y-15779823D01*
X12100548Y-15779823D01*
X12119595Y-15789347D01*
X12129119Y-15798870D01*
X12138643Y-15817918D01*
X12138643Y-15875061D01*
X12129119Y-15894108D01*
X12119595Y-15903632D01*
X12100548Y-15913156D01*
X12071976Y-15913156D01*
X12252928Y-15913156D02*
X12233881Y-15903632D01*
X12224357Y-15884585D01*
X12224357Y-15713156D01*
X12405309Y-15903632D02*
X12386262Y-15913156D01*
X12348167Y-15913156D01*
X12329119Y-15903632D01*
X12319595Y-15884585D01*
X12319595Y-15808394D01*
X12329119Y-15789347D01*
X12348167Y-15779823D01*
X12386262Y-15779823D01*
X12405309Y-15789347D01*
X12414833Y-15808394D01*
X12414833Y-15827442D01*
X12319595Y-15846489D01*
X12491024Y-15903632D02*
X12510071Y-15913156D01*
X12548167Y-15913156D01*
X12567214Y-15903632D01*
X12576738Y-15884585D01*
X12576738Y-15875061D01*
X12567214Y-15856013D01*
X12548167Y-15846489D01*
X12519595Y-15846489D01*
X12500548Y-15836966D01*
X12491024Y-15817918D01*
X12491024Y-15808394D01*
X12500548Y-15789347D01*
X12519595Y-15779823D01*
X12548167Y-15779823D01*
X12567214Y-15789347D01*
X12643405Y-15989347D02*
X12652928Y-15979823D01*
X12671976Y-15951251D01*
X12681500Y-15932204D01*
X12691024Y-15903632D01*
X12700548Y-15856013D01*
X12700548Y-15817918D01*
X12691024Y-15770299D01*
X12681500Y-15741728D01*
X12671976Y-15722680D01*
X12652928Y-15694108D01*
X12643405Y-15684585D01*
X13005309Y-15989347D02*
X12995786Y-15979823D01*
X12976738Y-15951251D01*
X12967214Y-15932204D01*
X12957690Y-15903632D01*
X12948167Y-15856013D01*
X12948167Y-15817918D01*
X12957690Y-15770299D01*
X12967214Y-15741728D01*
X12976738Y-15722680D01*
X12995786Y-15694108D01*
X13005309Y-15684585D01*
X13081500Y-15779823D02*
X13081500Y-15913156D01*
X13081500Y-15798870D02*
X13091024Y-15789347D01*
X13110071Y-15779823D01*
X13138643Y-15779823D01*
X13157690Y-15789347D01*
X13167214Y-15808394D01*
X13167214Y-15913156D01*
X13291024Y-15913156D02*
X13271976Y-15903632D01*
X13262452Y-15894108D01*
X13252928Y-15875061D01*
X13252928Y-15817918D01*
X13262452Y-15798870D01*
X13271976Y-15789347D01*
X13291024Y-15779823D01*
X13319595Y-15779823D01*
X13338643Y-15789347D01*
X13348167Y-15798870D01*
X13357690Y-15817918D01*
X13357690Y-15875061D01*
X13348167Y-15894108D01*
X13338643Y-15903632D01*
X13319595Y-15913156D01*
X13291024Y-15913156D01*
X13414833Y-15779823D02*
X13491024Y-15779823D01*
X13443405Y-15713156D02*
X13443405Y-15884585D01*
X13452928Y-15903632D01*
X13471976Y-15913156D01*
X13491024Y-15913156D01*
X13710071Y-15779823D02*
X13710071Y-15979823D01*
X13710071Y-15789347D02*
X13729119Y-15779823D01*
X13767214Y-15779823D01*
X13786262Y-15789347D01*
X13795786Y-15798870D01*
X13805309Y-15817918D01*
X13805309Y-15875061D01*
X13795786Y-15894108D01*
X13786262Y-15903632D01*
X13767214Y-15913156D01*
X13729119Y-15913156D01*
X13710071Y-15903632D01*
X13919595Y-15913156D02*
X13900548Y-15903632D01*
X13891024Y-15884585D01*
X13891024Y-15713156D01*
X14081500Y-15913156D02*
X14081500Y-15808394D01*
X14071976Y-15789347D01*
X14052928Y-15779823D01*
X14014833Y-15779823D01*
X13995786Y-15789347D01*
X14081500Y-15903632D02*
X14062452Y-15913156D01*
X14014833Y-15913156D01*
X13995786Y-15903632D01*
X13986262Y-15884585D01*
X13986262Y-15865537D01*
X13995786Y-15846489D01*
X14014833Y-15836966D01*
X14062452Y-15836966D01*
X14081500Y-15827442D01*
X14148167Y-15779823D02*
X14224357Y-15779823D01*
X14176738Y-15713156D02*
X14176738Y-15884585D01*
X14186262Y-15903632D01*
X14205309Y-15913156D01*
X14224357Y-15913156D01*
X14367214Y-15903632D02*
X14348167Y-15913156D01*
X14310071Y-15913156D01*
X14291024Y-15903632D01*
X14281500Y-15884585D01*
X14281500Y-15808394D01*
X14291024Y-15789347D01*
X14310071Y-15779823D01*
X14348167Y-15779823D01*
X14367214Y-15789347D01*
X14376738Y-15808394D01*
X14376738Y-15827442D01*
X14281500Y-15846489D01*
X14548167Y-15913156D02*
X14548167Y-15713156D01*
X14548167Y-15903632D02*
X14529119Y-15913156D01*
X14491024Y-15913156D01*
X14471976Y-15903632D01*
X14462452Y-15894108D01*
X14452928Y-15875061D01*
X14452928Y-15817918D01*
X14462452Y-15798870D01*
X14471976Y-15789347D01*
X14491024Y-15779823D01*
X14529119Y-15779823D01*
X14548167Y-15789347D01*
X14624357Y-15989347D02*
X14633881Y-15979823D01*
X14652928Y-15951251D01*
X14662452Y-15932204D01*
X14671976Y-15903632D01*
X14681500Y-15856013D01*
X14681500Y-15817918D01*
X14671976Y-15770299D01*
X14662452Y-15741728D01*
X14652928Y-15722680D01*
X14633881Y-15694108D01*
X14624357Y-15684585D01*
X7671500Y-16042680D02*
X7871500Y-16242680D01*
X7871500Y-16042680D02*
X7671500Y-16242680D01*
X7771500Y-16042680D02*
X7771500Y-16242680D01*
X7671500Y-16142680D02*
X7871500Y-16142680D01*
X8110071Y-16033156D02*
X8233881Y-16033156D01*
X8167214Y-16109347D01*
X8195786Y-16109347D01*
X8214833Y-16118870D01*
X8224357Y-16128394D01*
X8233881Y-16147442D01*
X8233881Y-16195061D01*
X8224357Y-16214108D01*
X8214833Y-16223632D01*
X8195786Y-16233156D01*
X8138643Y-16233156D01*
X8119595Y-16223632D01*
X8110071Y-16214108D01*
X8319595Y-16214108D02*
X8329119Y-16223632D01*
X8319595Y-16233156D01*
X8310071Y-16223632D01*
X8319595Y-16214108D01*
X8319595Y-16233156D01*
X8424357Y-16233156D02*
X8462452Y-16233156D01*
X8481500Y-16223632D01*
X8491024Y-16214108D01*
X8510071Y-16185537D01*
X8519595Y-16147442D01*
X8519595Y-16071251D01*
X8510071Y-16052204D01*
X8500548Y-16042680D01*
X8481500Y-16033156D01*
X8443405Y-16033156D01*
X8424357Y-16042680D01*
X8414833Y-16052204D01*
X8405310Y-16071251D01*
X8405310Y-16118870D01*
X8414833Y-16137918D01*
X8424357Y-16147442D01*
X8443405Y-16156966D01*
X8481500Y-16156966D01*
X8500548Y-16147442D01*
X8510071Y-16137918D01*
X8519595Y-16118870D01*
X8633881Y-16118870D02*
X8614833Y-16109347D01*
X8605310Y-16099823D01*
X8595786Y-16080775D01*
X8595786Y-16071251D01*
X8605310Y-16052204D01*
X8614833Y-16042680D01*
X8633881Y-16033156D01*
X8671976Y-16033156D01*
X8691024Y-16042680D01*
X8700548Y-16052204D01*
X8710071Y-16071251D01*
X8710071Y-16080775D01*
X8700548Y-16099823D01*
X8691024Y-16109347D01*
X8671976Y-16118870D01*
X8633881Y-16118870D01*
X8614833Y-16128394D01*
X8605310Y-16137918D01*
X8595786Y-16156966D01*
X8595786Y-16195061D01*
X8605310Y-16214108D01*
X8614833Y-16223632D01*
X8633881Y-16233156D01*
X8671976Y-16233156D01*
X8691024Y-16223632D01*
X8700548Y-16214108D01*
X8710071Y-16195061D01*
X8710071Y-16156966D01*
X8700548Y-16137918D01*
X8691024Y-16128394D01*
X8671976Y-16118870D01*
X8824357Y-16118870D02*
X8805310Y-16109347D01*
X8795786Y-16099823D01*
X8786262Y-16080775D01*
X8786262Y-16071251D01*
X8795786Y-16052204D01*
X8805310Y-16042680D01*
X8824357Y-16033156D01*
X8862452Y-16033156D01*
X8881500Y-16042680D01*
X8891024Y-16052204D01*
X8900548Y-16071251D01*
X8900548Y-16080775D01*
X8891024Y-16099823D01*
X8881500Y-16109347D01*
X8862452Y-16118870D01*
X8824357Y-16118870D01*
X8805310Y-16128394D01*
X8795786Y-16137918D01*
X8786262Y-16156966D01*
X8786262Y-16195061D01*
X8795786Y-16214108D01*
X8805310Y-16223632D01*
X8824357Y-16233156D01*
X8862452Y-16233156D01*
X8881500Y-16223632D01*
X8891024Y-16214108D01*
X8900548Y-16195061D01*
X8900548Y-16156966D01*
X8891024Y-16137918D01*
X8881500Y-16128394D01*
X8862452Y-16118870D01*
X8986262Y-16233156D02*
X8986262Y-16099823D01*
X8986262Y-16118870D02*
X8995786Y-16109347D01*
X9014833Y-16099823D01*
X9043405Y-16099823D01*
X9062452Y-16109347D01*
X9071976Y-16128394D01*
X9071976Y-16233156D01*
X9071976Y-16128394D02*
X9081500Y-16109347D01*
X9100548Y-16099823D01*
X9129119Y-16099823D01*
X9148167Y-16109347D01*
X9157690Y-16128394D01*
X9157690Y-16233156D01*
X9252929Y-16233156D02*
X9252929Y-16099823D01*
X9252929Y-16118870D02*
X9262452Y-16109347D01*
X9281500Y-16099823D01*
X9310071Y-16099823D01*
X9329119Y-16109347D01*
X9338643Y-16128394D01*
X9338643Y-16233156D01*
X9338643Y-16128394D02*
X9348167Y-16109347D01*
X9367214Y-16099823D01*
X9395786Y-16099823D01*
X9414833Y-16109347D01*
X9424357Y-16128394D01*
X9424357Y-16233156D01*
X9814833Y-16023632D02*
X9643405Y-16280775D01*
X10071976Y-16033156D02*
X10091024Y-16033156D01*
X10110071Y-16042680D01*
X10119595Y-16052204D01*
X10129119Y-16071251D01*
X10138643Y-16109347D01*
X10138643Y-16156966D01*
X10129119Y-16195061D01*
X10119595Y-16214108D01*
X10110071Y-16223632D01*
X10091024Y-16233156D01*
X10071976Y-16233156D01*
X10052929Y-16223632D01*
X10043405Y-16214108D01*
X10033881Y-16195061D01*
X10024357Y-16156966D01*
X10024357Y-16109347D01*
X10033881Y-16071251D01*
X10043405Y-16052204D01*
X10052929Y-16042680D01*
X10071976Y-16033156D01*
X10224357Y-16214108D02*
X10233881Y-16223632D01*
X10224357Y-16233156D01*
X10214833Y-16223632D01*
X10224357Y-16214108D01*
X10224357Y-16233156D01*
X10424357Y-16233156D02*
X10310071Y-16233156D01*
X10367214Y-16233156D02*
X10367214Y-16033156D01*
X10348167Y-16061728D01*
X10329119Y-16080775D01*
X10310071Y-16090299D01*
X10605310Y-16033156D02*
X10510071Y-16033156D01*
X10500548Y-16128394D01*
X10510071Y-16118870D01*
X10529119Y-16109347D01*
X10576738Y-16109347D01*
X10595786Y-16118870D01*
X10605310Y-16128394D01*
X10614833Y-16147442D01*
X10614833Y-16195061D01*
X10605310Y-16214108D01*
X10595786Y-16223632D01*
X10576738Y-16233156D01*
X10529119Y-16233156D01*
X10510071Y-16223632D01*
X10500548Y-16214108D01*
X10681500Y-16033156D02*
X10814833Y-16033156D01*
X10729119Y-16233156D01*
X10929119Y-16033156D02*
X10948167Y-16033156D01*
X10967214Y-16042680D01*
X10976738Y-16052204D01*
X10986262Y-16071251D01*
X10995786Y-16109347D01*
X10995786Y-16156966D01*
X10986262Y-16195061D01*
X10976738Y-16214108D01*
X10967214Y-16223632D01*
X10948167Y-16233156D01*
X10929119Y-16233156D01*
X10910071Y-16223632D01*
X10900548Y-16214108D01*
X10891024Y-16195061D01*
X10881500Y-16156966D01*
X10881500Y-16109347D01*
X10891024Y-16071251D01*
X10900548Y-16052204D01*
X10910071Y-16042680D01*
X10929119Y-16033156D01*
X11071976Y-16033156D02*
X11071976Y-16071251D01*
X11148167Y-16033156D02*
X11148167Y-16071251D01*
X11443405Y-16309347D02*
X11433881Y-16299823D01*
X11414833Y-16271251D01*
X11405309Y-16252204D01*
X11395786Y-16223632D01*
X11386262Y-16176013D01*
X11386262Y-16137918D01*
X11395786Y-16090299D01*
X11405309Y-16061728D01*
X11414833Y-16042680D01*
X11433881Y-16014108D01*
X11443405Y-16004585D01*
X11624357Y-16233156D02*
X11510071Y-16233156D01*
X11567214Y-16233156D02*
X11567214Y-16033156D01*
X11548167Y-16061728D01*
X11529119Y-16080775D01*
X11510071Y-16090299D01*
X11795786Y-16099823D02*
X11795786Y-16233156D01*
X11748167Y-16023632D02*
X11700548Y-16166489D01*
X11824357Y-16166489D01*
X12052928Y-16233156D02*
X12052928Y-16033156D01*
X12138643Y-16233156D02*
X12138643Y-16128394D01*
X12129119Y-16109347D01*
X12110071Y-16099823D01*
X12081500Y-16099823D01*
X12062452Y-16109347D01*
X12052928Y-16118870D01*
X12262452Y-16233156D02*
X12243405Y-16223632D01*
X12233881Y-16214108D01*
X12224357Y-16195061D01*
X12224357Y-16137918D01*
X12233881Y-16118870D01*
X12243405Y-16109347D01*
X12262452Y-16099823D01*
X12291024Y-16099823D01*
X12310071Y-16109347D01*
X12319595Y-16118870D01*
X12329119Y-16137918D01*
X12329119Y-16195061D01*
X12319595Y-16214108D01*
X12310071Y-16223632D01*
X12291024Y-16233156D01*
X12262452Y-16233156D01*
X12443405Y-16233156D02*
X12424357Y-16223632D01*
X12414833Y-16204585D01*
X12414833Y-16033156D01*
X12595786Y-16223632D02*
X12576738Y-16233156D01*
X12538643Y-16233156D01*
X12519595Y-16223632D01*
X12510071Y-16204585D01*
X12510071Y-16128394D01*
X12519595Y-16109347D01*
X12538643Y-16099823D01*
X12576738Y-16099823D01*
X12595786Y-16109347D01*
X12605309Y-16128394D01*
X12605309Y-16147442D01*
X12510071Y-16166489D01*
X12681500Y-16223632D02*
X12700548Y-16233156D01*
X12738643Y-16233156D01*
X12757690Y-16223632D01*
X12767214Y-16204585D01*
X12767214Y-16195061D01*
X12757690Y-16176013D01*
X12738643Y-16166489D01*
X12710071Y-16166489D01*
X12691024Y-16156966D01*
X12681500Y-16137918D01*
X12681500Y-16128394D01*
X12691024Y-16109347D01*
X12710071Y-16099823D01*
X12738643Y-16099823D01*
X12757690Y-16109347D01*
X12833881Y-16309347D02*
X12843405Y-16299823D01*
X12862452Y-16271251D01*
X12871976Y-16252204D01*
X12881500Y-16223632D01*
X12891024Y-16176013D01*
X12891024Y-16137918D01*
X12881500Y-16090299D01*
X12871976Y-16061728D01*
X12862452Y-16042680D01*
X12843405Y-16014108D01*
X12833881Y-16004585D01*
X13195786Y-16309347D02*
X13186262Y-16299823D01*
X13167214Y-16271251D01*
X13157690Y-16252204D01*
X13148167Y-16223632D01*
X13138643Y-16176013D01*
X13138643Y-16137918D01*
X13148167Y-16090299D01*
X13157690Y-16061728D01*
X13167214Y-16042680D01*
X13186262Y-16014108D01*
X13195786Y-16004585D01*
X13271976Y-16099823D02*
X13271976Y-16233156D01*
X13271976Y-16118870D02*
X13281500Y-16109347D01*
X13300548Y-16099823D01*
X13329119Y-16099823D01*
X13348167Y-16109347D01*
X13357690Y-16128394D01*
X13357690Y-16233156D01*
X13481500Y-16233156D02*
X13462452Y-16223632D01*
X13452928Y-16214108D01*
X13443405Y-16195061D01*
X13443405Y-16137918D01*
X13452928Y-16118870D01*
X13462452Y-16109347D01*
X13481500Y-16099823D01*
X13510071Y-16099823D01*
X13529119Y-16109347D01*
X13538643Y-16118870D01*
X13548167Y-16137918D01*
X13548167Y-16195061D01*
X13538643Y-16214108D01*
X13529119Y-16223632D01*
X13510071Y-16233156D01*
X13481500Y-16233156D01*
X13605309Y-16099823D02*
X13681500Y-16099823D01*
X13633881Y-16033156D02*
X13633881Y-16204585D01*
X13643405Y-16223632D01*
X13662452Y-16233156D01*
X13681500Y-16233156D01*
X13900548Y-16099823D02*
X13900548Y-16299823D01*
X13900548Y-16109347D02*
X13919595Y-16099823D01*
X13957690Y-16099823D01*
X13976738Y-16109347D01*
X13986262Y-16118870D01*
X13995786Y-16137918D01*
X13995786Y-16195061D01*
X13986262Y-16214108D01*
X13976738Y-16223632D01*
X13957690Y-16233156D01*
X13919595Y-16233156D01*
X13900548Y-16223632D01*
X14110071Y-16233156D02*
X14091024Y-16223632D01*
X14081500Y-16204585D01*
X14081500Y-16033156D01*
X14271976Y-16233156D02*
X14271976Y-16128394D01*
X14262452Y-16109347D01*
X14243405Y-16099823D01*
X14205309Y-16099823D01*
X14186262Y-16109347D01*
X14271976Y-16223632D02*
X14252928Y-16233156D01*
X14205309Y-16233156D01*
X14186262Y-16223632D01*
X14176738Y-16204585D01*
X14176738Y-16185537D01*
X14186262Y-16166489D01*
X14205309Y-16156966D01*
X14252928Y-16156966D01*
X14271976Y-16147442D01*
X14338643Y-16099823D02*
X14414833Y-16099823D01*
X14367214Y-16033156D02*
X14367214Y-16204585D01*
X14376738Y-16223632D01*
X14395786Y-16233156D01*
X14414833Y-16233156D01*
X14557690Y-16223632D02*
X14538643Y-16233156D01*
X14500548Y-16233156D01*
X14481500Y-16223632D01*
X14471976Y-16204585D01*
X14471976Y-16128394D01*
X14481500Y-16109347D01*
X14500548Y-16099823D01*
X14538643Y-16099823D01*
X14557690Y-16109347D01*
X14567214Y-16128394D01*
X14567214Y-16147442D01*
X14471976Y-16166489D01*
X14738643Y-16233156D02*
X14738643Y-16033156D01*
X14738643Y-16223632D02*
X14719595Y-16233156D01*
X14681500Y-16233156D01*
X14662452Y-16223632D01*
X14652928Y-16214108D01*
X14643405Y-16195061D01*
X14643405Y-16137918D01*
X14652928Y-16118870D01*
X14662452Y-16109347D01*
X14681500Y-16099823D01*
X14719595Y-16099823D01*
X14738643Y-16109347D01*
X14814833Y-16309347D02*
X14824357Y-16299823D01*
X14843405Y-16271251D01*
X14852928Y-16252204D01*
X14862452Y-16223632D01*
X14871976Y-16176013D01*
X14871976Y-16137918D01*
X14862452Y-16090299D01*
X14852928Y-16061728D01*
X14843405Y-16042680D01*
X14824357Y-16014108D01*
X14814833Y-16004585D01*
M02*
