%TF.GenerationSoftware,KiCad,Pcbnew,6.0.8-f2edbf62ab~116~ubuntu22.04.1*%
%TF.CreationDate,2022-10-10T15:37:35-06:00*%
%TF.ProjectId,PPP_pcb,5050505f-7063-4622-9e6b-696361645f70,rev?*%
%TF.SameCoordinates,Original*%
%TF.FileFunction,Drillmap*%
%TF.FilePolarity,Positive*%
%FSLAX45Y45*%
G04 Gerber Fmt 4.5, Leading zero omitted, Abs format (unit mm)*
G04 Created by KiCad (PCBNEW 6.0.8-f2edbf62ab~116~ubuntu22.04.1) date 2022-10-10 15:37:35*
%MOMM*%
%LPD*%
G01*
G04 APERTURE LIST*
%ADD10C,0.050000*%
%ADD11C,0.200000*%
%ADD12C,0.060000*%
%ADD13C,0.080000*%
%ADD14C,0.110000*%
%ADD15C,0.149860*%
G04 APERTURE END LIST*
D10*
X14478000Y-3556000D02*
X8636000Y-3556000D01*
X16002000Y-3556000D02*
X15748000Y-3302000D01*
X15748000Y-3302000D02*
X14732000Y-3302000D01*
X7874000Y-12954000D02*
X8636000Y-13716000D01*
X8636000Y-13716000D02*
X24638000Y-13716000D01*
X25400000Y-4318000D02*
X24638000Y-3556000D01*
X8636000Y-3556000D02*
X7874000Y-4318000D01*
X24638000Y-3556000D02*
X16002000Y-3556000D01*
X25400000Y-12954000D02*
X25400000Y-4318000D01*
X24638000Y-13716000D02*
X25400000Y-12954000D01*
X14732000Y-3302000D02*
X14478000Y-3556000D01*
X7874000Y-4318000D02*
X7874000Y-12954000D01*
D11*
D12*
X14778000Y-3526000D02*
X14838000Y-3586000D01*
X14838000Y-3526000D02*
X14778000Y-3586000D01*
X14778000Y-3944000D02*
X14838000Y-4004000D01*
X14838000Y-3944000D02*
X14778000Y-4004000D01*
X15642000Y-3526000D02*
X15702000Y-3586000D01*
X15702000Y-3526000D02*
X15642000Y-3586000D01*
X15642000Y-3944000D02*
X15702000Y-4004000D01*
X15702000Y-3944000D02*
X15642000Y-4004000D01*
X17352000Y-11554000D02*
X17412000Y-11614000D01*
X17412000Y-11554000D02*
X17352000Y-11614000D01*
X17352000Y-11754000D02*
X17412000Y-11814000D01*
X17412000Y-11754000D02*
X17352000Y-11814000D01*
D13*
X12740000Y-4572000D02*
G75*
G03*
X12740000Y-4572000I-40000J0D01*
G01*
X12740000Y-6096000D02*
G75*
G03*
X12740000Y-6096000I-40000J0D01*
G01*
X13502000Y-4572000D02*
G75*
G03*
X13502000Y-4572000I-40000J0D01*
G01*
X13502000Y-6096000D02*
G75*
G03*
X13502000Y-6096000I-40000J0D01*
G01*
D14*
X17399000Y-10740000D02*
X17399000Y-10850000D01*
X17344000Y-10795000D02*
X17454000Y-10795000D01*
X17399000Y-12518000D02*
X17399000Y-12628000D01*
X17344000Y-12573000D02*
X17454000Y-12573000D01*
X17653000Y-10740000D02*
X17653000Y-10850000D01*
X17598000Y-10795000D02*
X17708000Y-10795000D01*
X17653000Y-12518000D02*
X17653000Y-12628000D01*
X17598000Y-12573000D02*
X17708000Y-12573000D01*
X17907000Y-10740000D02*
X17907000Y-10850000D01*
X17852000Y-10795000D02*
X17962000Y-10795000D01*
X17907000Y-12518000D02*
X17907000Y-12628000D01*
X17852000Y-12573000D02*
X17962000Y-12573000D01*
X18161000Y-10740000D02*
X18161000Y-10850000D01*
X18106000Y-10795000D02*
X18216000Y-10795000D01*
X18161000Y-12518000D02*
X18161000Y-12628000D01*
X18106000Y-12573000D02*
X18216000Y-12573000D01*
X18415000Y-10740000D02*
X18415000Y-10850000D01*
X18360000Y-10795000D02*
X18470000Y-10795000D01*
X18415000Y-12518000D02*
X18415000Y-12628000D01*
X18360000Y-12573000D02*
X18470000Y-12573000D01*
X18669000Y-10740000D02*
X18669000Y-10850000D01*
X18614000Y-10795000D02*
X18724000Y-10795000D01*
X18669000Y-12518000D02*
X18669000Y-12628000D01*
X18614000Y-12573000D02*
X18724000Y-12573000D01*
X18923000Y-10740000D02*
X18923000Y-10850000D01*
X18868000Y-10795000D02*
X18978000Y-10795000D01*
X18923000Y-12518000D02*
X18923000Y-12628000D01*
X18868000Y-12573000D02*
X18978000Y-12573000D01*
X19177000Y-10740000D02*
X19177000Y-10850000D01*
X19122000Y-10795000D02*
X19232000Y-10795000D01*
X19177000Y-12518000D02*
X19177000Y-12628000D01*
X19122000Y-12573000D02*
X19232000Y-12573000D01*
X19431000Y-10740000D02*
X19431000Y-10850000D01*
X19376000Y-10795000D02*
X19486000Y-10795000D01*
X19431000Y-12518000D02*
X19431000Y-12628000D01*
X19376000Y-12573000D02*
X19486000Y-12573000D01*
X19685000Y-10740000D02*
X19685000Y-10850000D01*
X19630000Y-10795000D02*
X19740000Y-10795000D01*
X19685000Y-12518000D02*
X19685000Y-12628000D01*
X19630000Y-12573000D02*
X19740000Y-12573000D01*
X19939000Y-10740000D02*
X19939000Y-10850000D01*
X19884000Y-10795000D02*
X19994000Y-10795000D01*
X19939000Y-12518000D02*
X19939000Y-12628000D01*
X19884000Y-12573000D02*
X19994000Y-12573000D01*
X20193000Y-10740000D02*
X20193000Y-10850000D01*
X20138000Y-10795000D02*
X20248000Y-10795000D01*
X20193000Y-12518000D02*
X20193000Y-12628000D01*
X20138000Y-12573000D02*
X20248000Y-12573000D01*
X20447000Y-10740000D02*
X20447000Y-10850000D01*
X20392000Y-10795000D02*
X20502000Y-10795000D01*
X20447000Y-12518000D02*
X20447000Y-12628000D01*
X20392000Y-12573000D02*
X20502000Y-12573000D01*
X20701000Y-10740000D02*
X20701000Y-10850000D01*
X20646000Y-10795000D02*
X20756000Y-10795000D01*
X20701000Y-12518000D02*
X20701000Y-12628000D01*
X20646000Y-12573000D02*
X20756000Y-12573000D01*
X20955000Y-10740000D02*
X20955000Y-10850000D01*
X20900000Y-10795000D02*
X21010000Y-10795000D01*
X20955000Y-12518000D02*
X20955000Y-12628000D01*
X20900000Y-12573000D02*
X21010000Y-12573000D01*
X21209000Y-10740000D02*
X21209000Y-10850000D01*
X21154000Y-10795000D02*
X21264000Y-10795000D01*
X21209000Y-12518000D02*
X21209000Y-12628000D01*
X21154000Y-12573000D02*
X21264000Y-12573000D01*
X21463000Y-10740000D02*
X21463000Y-10850000D01*
X21408000Y-10795000D02*
X21518000Y-10795000D01*
X21463000Y-12518000D02*
X21463000Y-12628000D01*
X21408000Y-12573000D02*
X21518000Y-12573000D01*
X21717000Y-10740000D02*
X21717000Y-10850000D01*
X21662000Y-10795000D02*
X21772000Y-10795000D01*
X21717000Y-12518000D02*
X21717000Y-12628000D01*
X21662000Y-12573000D02*
X21772000Y-12573000D01*
X21971000Y-10740000D02*
X21971000Y-10850000D01*
X21916000Y-10795000D02*
X22026000Y-10795000D01*
X21971000Y-12518000D02*
X21971000Y-12628000D01*
X21916000Y-12573000D02*
X22026000Y-12573000D01*
X22202000Y-11375000D02*
X22202000Y-11485000D01*
X22147000Y-11430000D02*
X22257000Y-11430000D01*
X22202000Y-11629000D02*
X22202000Y-11739000D01*
X22147000Y-11684000D02*
X22257000Y-11684000D01*
X22202000Y-11883000D02*
X22202000Y-11993000D01*
X22147000Y-11938000D02*
X22257000Y-11938000D01*
X22225000Y-10740000D02*
X22225000Y-10850000D01*
X22170000Y-10795000D02*
X22280000Y-10795000D01*
X22225000Y-12518000D02*
X22225000Y-12628000D01*
X22170000Y-12573000D02*
X22280000Y-12573000D01*
D15*
X9450984Y-5132984D02*
X9450984Y-5027016D01*
X9345016Y-5027016D01*
X9345016Y-5132984D01*
X9450984Y-5132984D01*
X9704984Y-8688984D02*
X9704984Y-8583016D01*
X9599016Y-8583016D01*
X9599016Y-8688984D01*
X9704984Y-8688984D01*
X10085984Y-4878984D02*
X10085984Y-4773016D01*
X9980016Y-4773016D01*
X9980016Y-4878984D01*
X10085984Y-4878984D01*
X10339984Y-8434984D02*
X10339984Y-8329016D01*
X10234016Y-8329016D01*
X10234016Y-8434984D01*
X10339984Y-8434984D01*
X11736984Y-5132984D02*
X11736984Y-5027016D01*
X11631016Y-5027016D01*
X11631016Y-5132984D01*
X11736984Y-5132984D01*
X11990984Y-8688984D02*
X11990984Y-8583016D01*
X11885016Y-8583016D01*
X11885016Y-8688984D01*
X11990984Y-8688984D01*
X12371984Y-4878984D02*
X12371984Y-4773016D01*
X12266016Y-4773016D01*
X12266016Y-4878984D01*
X12371984Y-4878984D01*
X12625984Y-8434984D02*
X12625984Y-8329016D01*
X12520016Y-8329016D01*
X12520016Y-8434984D01*
X12625984Y-8434984D01*
X14022984Y-9450984D02*
X14022984Y-9345016D01*
X13917016Y-9345016D01*
X13917016Y-9450984D01*
X14022984Y-9450984D01*
X14657984Y-9196984D02*
X14657984Y-9091016D01*
X14552016Y-9091016D01*
X14552016Y-9196984D01*
X14657984Y-9196984D01*
X15038984Y-13260984D02*
X15038984Y-13155016D01*
X14933016Y-13155016D01*
X14933016Y-13260984D01*
X15038984Y-13260984D01*
X15673984Y-13006984D02*
X15673984Y-12901016D01*
X15568016Y-12901016D01*
X15568016Y-13006984D01*
X15673984Y-13006984D01*
X16308984Y-7926984D02*
X16308984Y-7821016D01*
X16203016Y-7821016D01*
X16203016Y-7926984D01*
X16308984Y-7926984D01*
X16308984Y-10212984D02*
X16308984Y-10107016D01*
X16203016Y-10107016D01*
X16203016Y-10212984D01*
X16308984Y-10212984D01*
X16943984Y-7672984D02*
X16943984Y-7567016D01*
X16838016Y-7567016D01*
X16838016Y-7672984D01*
X16943984Y-7672984D01*
X16943984Y-9958984D02*
X16943984Y-9853016D01*
X16838016Y-9853016D01*
X16838016Y-9958984D01*
X16943984Y-9958984D01*
X18594984Y-7418984D02*
X18594984Y-7313016D01*
X18489016Y-7313016D01*
X18489016Y-7418984D01*
X18594984Y-7418984D01*
X18594984Y-9704984D02*
X18594984Y-9599016D01*
X18489016Y-9599016D01*
X18489016Y-9704984D01*
X18594984Y-9704984D01*
X19229984Y-7164984D02*
X19229984Y-7059016D01*
X19124016Y-7059016D01*
X19124016Y-7164984D01*
X19229984Y-7164984D01*
X19229984Y-9450984D02*
X19229984Y-9345016D01*
X19124016Y-9345016D01*
X19124016Y-9450984D01*
X19229984Y-9450984D01*
X20880984Y-7418984D02*
X20880984Y-7313016D01*
X20775016Y-7313016D01*
X20775016Y-7418984D01*
X20880984Y-7418984D01*
X20880984Y-9704984D02*
X20880984Y-9599016D01*
X20775016Y-9599016D01*
X20775016Y-9704984D01*
X20880984Y-9704984D01*
X21515984Y-7164984D02*
X21515984Y-7059016D01*
X21410016Y-7059016D01*
X21410016Y-7164984D01*
X21515984Y-7164984D01*
X21515984Y-9450984D02*
X21515984Y-9345016D01*
X21410016Y-9345016D01*
X21410016Y-9450984D01*
X21515984Y-9450984D01*
X23166984Y-7672984D02*
X23166984Y-7567016D01*
X23061016Y-7567016D01*
X23061016Y-7672984D01*
X23166984Y-7672984D01*
X23166984Y-9958984D02*
X23166984Y-9853016D01*
X23061016Y-9853016D01*
X23061016Y-9958984D01*
X23166984Y-9958984D01*
X23801984Y-7418984D02*
X23801984Y-7313016D01*
X23696016Y-7313016D01*
X23696016Y-7418984D01*
X23801984Y-7418984D01*
X23801984Y-9704984D02*
X23801984Y-9599016D01*
X23696016Y-9599016D01*
X23696016Y-9704984D01*
X23801984Y-9704984D01*
D11*
X8129119Y-14028976D02*
X8129119Y-13828976D01*
X8176738Y-13828976D01*
X8205309Y-13838500D01*
X8224357Y-13857548D01*
X8233881Y-13876595D01*
X8243405Y-13914690D01*
X8243405Y-13943262D01*
X8233881Y-13981357D01*
X8224357Y-14000405D01*
X8205309Y-14019452D01*
X8176738Y-14028976D01*
X8129119Y-14028976D01*
X8329119Y-14028976D02*
X8329119Y-13895643D01*
X8329119Y-13933738D02*
X8338643Y-13914690D01*
X8348167Y-13905167D01*
X8367214Y-13895643D01*
X8386262Y-13895643D01*
X8452929Y-14028976D02*
X8452929Y-13895643D01*
X8452929Y-13828976D02*
X8443405Y-13838500D01*
X8452929Y-13848024D01*
X8462452Y-13838500D01*
X8452929Y-13828976D01*
X8452929Y-13848024D01*
X8576738Y-14028976D02*
X8557690Y-14019452D01*
X8548167Y-14000405D01*
X8548167Y-13828976D01*
X8681500Y-14028976D02*
X8662452Y-14019452D01*
X8652929Y-14000405D01*
X8652929Y-13828976D01*
X8910071Y-14028976D02*
X8910071Y-13828976D01*
X8976738Y-13971833D01*
X9043405Y-13828976D01*
X9043405Y-14028976D01*
X9224357Y-14028976D02*
X9224357Y-13924214D01*
X9214833Y-13905167D01*
X9195786Y-13895643D01*
X9157690Y-13895643D01*
X9138643Y-13905167D01*
X9224357Y-14019452D02*
X9205310Y-14028976D01*
X9157690Y-14028976D01*
X9138643Y-14019452D01*
X9129119Y-14000405D01*
X9129119Y-13981357D01*
X9138643Y-13962309D01*
X9157690Y-13952786D01*
X9205310Y-13952786D01*
X9224357Y-13943262D01*
X9319595Y-13895643D02*
X9319595Y-14095643D01*
X9319595Y-13905167D02*
X9338643Y-13895643D01*
X9376738Y-13895643D01*
X9395786Y-13905167D01*
X9405310Y-13914690D01*
X9414833Y-13933738D01*
X9414833Y-13990881D01*
X9405310Y-14009928D01*
X9395786Y-14019452D01*
X9376738Y-14028976D01*
X9338643Y-14028976D01*
X9319595Y-14019452D01*
X9500548Y-14009928D02*
X9510071Y-14019452D01*
X9500548Y-14028976D01*
X9491024Y-14019452D01*
X9500548Y-14009928D01*
X9500548Y-14028976D01*
X9500548Y-13905167D02*
X9510071Y-13914690D01*
X9500548Y-13924214D01*
X9491024Y-13914690D01*
X9500548Y-13905167D01*
X9500548Y-13924214D01*
D12*
X7811500Y-14328500D02*
X7871500Y-14388500D01*
X7871500Y-14328500D02*
X7811500Y-14388500D01*
D11*
X8167214Y-14248976D02*
X8186262Y-14248976D01*
X8205309Y-14258500D01*
X8214833Y-14268024D01*
X8224357Y-14287071D01*
X8233881Y-14325167D01*
X8233881Y-14372786D01*
X8224357Y-14410881D01*
X8214833Y-14429928D01*
X8205309Y-14439452D01*
X8186262Y-14448976D01*
X8167214Y-14448976D01*
X8148167Y-14439452D01*
X8138643Y-14429928D01*
X8129119Y-14410881D01*
X8119595Y-14372786D01*
X8119595Y-14325167D01*
X8129119Y-14287071D01*
X8138643Y-14268024D01*
X8148167Y-14258500D01*
X8167214Y-14248976D01*
X8319595Y-14429928D02*
X8329119Y-14439452D01*
X8319595Y-14448976D01*
X8310071Y-14439452D01*
X8319595Y-14429928D01*
X8319595Y-14448976D01*
X8500548Y-14248976D02*
X8462452Y-14248976D01*
X8443405Y-14258500D01*
X8433881Y-14268024D01*
X8414833Y-14296595D01*
X8405310Y-14334690D01*
X8405310Y-14410881D01*
X8414833Y-14429928D01*
X8424357Y-14439452D01*
X8443405Y-14448976D01*
X8481500Y-14448976D01*
X8500548Y-14439452D01*
X8510071Y-14429928D01*
X8519595Y-14410881D01*
X8519595Y-14363262D01*
X8510071Y-14344214D01*
X8500548Y-14334690D01*
X8481500Y-14325167D01*
X8443405Y-14325167D01*
X8424357Y-14334690D01*
X8414833Y-14344214D01*
X8405310Y-14363262D01*
X8643405Y-14248976D02*
X8662452Y-14248976D01*
X8681500Y-14258500D01*
X8691024Y-14268024D01*
X8700548Y-14287071D01*
X8710071Y-14325167D01*
X8710071Y-14372786D01*
X8700548Y-14410881D01*
X8691024Y-14429928D01*
X8681500Y-14439452D01*
X8662452Y-14448976D01*
X8643405Y-14448976D01*
X8624357Y-14439452D01*
X8614833Y-14429928D01*
X8605310Y-14410881D01*
X8595786Y-14372786D01*
X8595786Y-14325167D01*
X8605310Y-14287071D01*
X8614833Y-14268024D01*
X8624357Y-14258500D01*
X8643405Y-14248976D01*
X8833881Y-14248976D02*
X8852929Y-14248976D01*
X8871976Y-14258500D01*
X8881500Y-14268024D01*
X8891024Y-14287071D01*
X8900548Y-14325167D01*
X8900548Y-14372786D01*
X8891024Y-14410881D01*
X8881500Y-14429928D01*
X8871976Y-14439452D01*
X8852929Y-14448976D01*
X8833881Y-14448976D01*
X8814833Y-14439452D01*
X8805310Y-14429928D01*
X8795786Y-14410881D01*
X8786262Y-14372786D01*
X8786262Y-14325167D01*
X8795786Y-14287071D01*
X8805310Y-14268024D01*
X8814833Y-14258500D01*
X8833881Y-14248976D01*
X8986262Y-14448976D02*
X8986262Y-14315643D01*
X8986262Y-14334690D02*
X8995786Y-14325167D01*
X9014833Y-14315643D01*
X9043405Y-14315643D01*
X9062452Y-14325167D01*
X9071976Y-14344214D01*
X9071976Y-14448976D01*
X9071976Y-14344214D02*
X9081500Y-14325167D01*
X9100548Y-14315643D01*
X9129119Y-14315643D01*
X9148167Y-14325167D01*
X9157690Y-14344214D01*
X9157690Y-14448976D01*
X9252929Y-14448976D02*
X9252929Y-14315643D01*
X9252929Y-14334690D02*
X9262452Y-14325167D01*
X9281500Y-14315643D01*
X9310071Y-14315643D01*
X9329119Y-14325167D01*
X9338643Y-14344214D01*
X9338643Y-14448976D01*
X9338643Y-14344214D02*
X9348167Y-14325167D01*
X9367214Y-14315643D01*
X9395786Y-14315643D01*
X9414833Y-14325167D01*
X9424357Y-14344214D01*
X9424357Y-14448976D01*
X9814833Y-14239452D02*
X9643405Y-14496595D01*
X10071976Y-14248976D02*
X10091024Y-14248976D01*
X10110071Y-14258500D01*
X10119595Y-14268024D01*
X10129119Y-14287071D01*
X10138643Y-14325167D01*
X10138643Y-14372786D01*
X10129119Y-14410881D01*
X10119595Y-14429928D01*
X10110071Y-14439452D01*
X10091024Y-14448976D01*
X10071976Y-14448976D01*
X10052929Y-14439452D01*
X10043405Y-14429928D01*
X10033881Y-14410881D01*
X10024357Y-14372786D01*
X10024357Y-14325167D01*
X10033881Y-14287071D01*
X10043405Y-14268024D01*
X10052929Y-14258500D01*
X10071976Y-14248976D01*
X10224357Y-14429928D02*
X10233881Y-14439452D01*
X10224357Y-14448976D01*
X10214833Y-14439452D01*
X10224357Y-14429928D01*
X10224357Y-14448976D01*
X10357690Y-14248976D02*
X10376738Y-14248976D01*
X10395786Y-14258500D01*
X10405310Y-14268024D01*
X10414833Y-14287071D01*
X10424357Y-14325167D01*
X10424357Y-14372786D01*
X10414833Y-14410881D01*
X10405310Y-14429928D01*
X10395786Y-14439452D01*
X10376738Y-14448976D01*
X10357690Y-14448976D01*
X10338643Y-14439452D01*
X10329119Y-14429928D01*
X10319595Y-14410881D01*
X10310071Y-14372786D01*
X10310071Y-14325167D01*
X10319595Y-14287071D01*
X10329119Y-14268024D01*
X10338643Y-14258500D01*
X10357690Y-14248976D01*
X10500548Y-14268024D02*
X10510071Y-14258500D01*
X10529119Y-14248976D01*
X10576738Y-14248976D01*
X10595786Y-14258500D01*
X10605310Y-14268024D01*
X10614833Y-14287071D01*
X10614833Y-14306119D01*
X10605310Y-14334690D01*
X10491024Y-14448976D01*
X10614833Y-14448976D01*
X10681500Y-14248976D02*
X10805310Y-14248976D01*
X10738643Y-14325167D01*
X10767214Y-14325167D01*
X10786262Y-14334690D01*
X10795786Y-14344214D01*
X10805310Y-14363262D01*
X10805310Y-14410881D01*
X10795786Y-14429928D01*
X10786262Y-14439452D01*
X10767214Y-14448976D01*
X10710071Y-14448976D01*
X10691024Y-14439452D01*
X10681500Y-14429928D01*
X10976738Y-14248976D02*
X10938643Y-14248976D01*
X10919595Y-14258500D01*
X10910071Y-14268024D01*
X10891024Y-14296595D01*
X10881500Y-14334690D01*
X10881500Y-14410881D01*
X10891024Y-14429928D01*
X10900548Y-14439452D01*
X10919595Y-14448976D01*
X10957690Y-14448976D01*
X10976738Y-14439452D01*
X10986262Y-14429928D01*
X10995786Y-14410881D01*
X10995786Y-14363262D01*
X10986262Y-14344214D01*
X10976738Y-14334690D01*
X10957690Y-14325167D01*
X10919595Y-14325167D01*
X10900548Y-14334690D01*
X10891024Y-14344214D01*
X10881500Y-14363262D01*
X11071976Y-14248976D02*
X11071976Y-14287071D01*
X11148167Y-14248976D02*
X11148167Y-14287071D01*
X11443405Y-14525167D02*
X11433881Y-14515643D01*
X11414833Y-14487071D01*
X11405309Y-14468024D01*
X11395786Y-14439452D01*
X11386262Y-14391833D01*
X11386262Y-14353738D01*
X11395786Y-14306119D01*
X11405309Y-14277548D01*
X11414833Y-14258500D01*
X11433881Y-14229928D01*
X11443405Y-14220405D01*
X11605309Y-14248976D02*
X11567214Y-14248976D01*
X11548167Y-14258500D01*
X11538643Y-14268024D01*
X11519595Y-14296595D01*
X11510071Y-14334690D01*
X11510071Y-14410881D01*
X11519595Y-14429928D01*
X11529119Y-14439452D01*
X11548167Y-14448976D01*
X11586262Y-14448976D01*
X11605309Y-14439452D01*
X11614833Y-14429928D01*
X11624357Y-14410881D01*
X11624357Y-14363262D01*
X11614833Y-14344214D01*
X11605309Y-14334690D01*
X11586262Y-14325167D01*
X11548167Y-14325167D01*
X11529119Y-14334690D01*
X11519595Y-14344214D01*
X11510071Y-14363262D01*
X11862452Y-14448976D02*
X11862452Y-14248976D01*
X11948167Y-14448976D02*
X11948167Y-14344214D01*
X11938643Y-14325167D01*
X11919595Y-14315643D01*
X11891024Y-14315643D01*
X11871976Y-14325167D01*
X11862452Y-14334690D01*
X12071976Y-14448976D02*
X12052928Y-14439452D01*
X12043405Y-14429928D01*
X12033881Y-14410881D01*
X12033881Y-14353738D01*
X12043405Y-14334690D01*
X12052928Y-14325167D01*
X12071976Y-14315643D01*
X12100548Y-14315643D01*
X12119595Y-14325167D01*
X12129119Y-14334690D01*
X12138643Y-14353738D01*
X12138643Y-14410881D01*
X12129119Y-14429928D01*
X12119595Y-14439452D01*
X12100548Y-14448976D01*
X12071976Y-14448976D01*
X12252928Y-14448976D02*
X12233881Y-14439452D01*
X12224357Y-14420405D01*
X12224357Y-14248976D01*
X12405309Y-14439452D02*
X12386262Y-14448976D01*
X12348167Y-14448976D01*
X12329119Y-14439452D01*
X12319595Y-14420405D01*
X12319595Y-14344214D01*
X12329119Y-14325167D01*
X12348167Y-14315643D01*
X12386262Y-14315643D01*
X12405309Y-14325167D01*
X12414833Y-14344214D01*
X12414833Y-14363262D01*
X12319595Y-14382309D01*
X12491024Y-14439452D02*
X12510071Y-14448976D01*
X12548167Y-14448976D01*
X12567214Y-14439452D01*
X12576738Y-14420405D01*
X12576738Y-14410881D01*
X12567214Y-14391833D01*
X12548167Y-14382309D01*
X12519595Y-14382309D01*
X12500548Y-14372786D01*
X12491024Y-14353738D01*
X12491024Y-14344214D01*
X12500548Y-14325167D01*
X12519595Y-14315643D01*
X12548167Y-14315643D01*
X12567214Y-14325167D01*
X12643405Y-14525167D02*
X12652928Y-14515643D01*
X12671976Y-14487071D01*
X12681500Y-14468024D01*
X12691024Y-14439452D01*
X12700548Y-14391833D01*
X12700548Y-14353738D01*
X12691024Y-14306119D01*
X12681500Y-14277548D01*
X12671976Y-14258500D01*
X12652928Y-14229928D01*
X12643405Y-14220405D01*
D13*
X7871500Y-14622500D02*
G75*
G03*
X7871500Y-14622500I-40000J0D01*
G01*
D11*
X8167214Y-14512976D02*
X8186262Y-14512976D01*
X8205309Y-14522500D01*
X8214833Y-14532024D01*
X8224357Y-14551071D01*
X8233881Y-14589167D01*
X8233881Y-14636786D01*
X8224357Y-14674881D01*
X8214833Y-14693928D01*
X8205309Y-14703452D01*
X8186262Y-14712976D01*
X8167214Y-14712976D01*
X8148167Y-14703452D01*
X8138643Y-14693928D01*
X8129119Y-14674881D01*
X8119595Y-14636786D01*
X8119595Y-14589167D01*
X8129119Y-14551071D01*
X8138643Y-14532024D01*
X8148167Y-14522500D01*
X8167214Y-14512976D01*
X8319595Y-14693928D02*
X8329119Y-14703452D01*
X8319595Y-14712976D01*
X8310071Y-14703452D01*
X8319595Y-14693928D01*
X8319595Y-14712976D01*
X8443405Y-14598690D02*
X8424357Y-14589167D01*
X8414833Y-14579643D01*
X8405310Y-14560595D01*
X8405310Y-14551071D01*
X8414833Y-14532024D01*
X8424357Y-14522500D01*
X8443405Y-14512976D01*
X8481500Y-14512976D01*
X8500548Y-14522500D01*
X8510071Y-14532024D01*
X8519595Y-14551071D01*
X8519595Y-14560595D01*
X8510071Y-14579643D01*
X8500548Y-14589167D01*
X8481500Y-14598690D01*
X8443405Y-14598690D01*
X8424357Y-14608214D01*
X8414833Y-14617738D01*
X8405310Y-14636786D01*
X8405310Y-14674881D01*
X8414833Y-14693928D01*
X8424357Y-14703452D01*
X8443405Y-14712976D01*
X8481500Y-14712976D01*
X8500548Y-14703452D01*
X8510071Y-14693928D01*
X8519595Y-14674881D01*
X8519595Y-14636786D01*
X8510071Y-14617738D01*
X8500548Y-14608214D01*
X8481500Y-14598690D01*
X8643405Y-14512976D02*
X8662452Y-14512976D01*
X8681500Y-14522500D01*
X8691024Y-14532024D01*
X8700548Y-14551071D01*
X8710071Y-14589167D01*
X8710071Y-14636786D01*
X8700548Y-14674881D01*
X8691024Y-14693928D01*
X8681500Y-14703452D01*
X8662452Y-14712976D01*
X8643405Y-14712976D01*
X8624357Y-14703452D01*
X8614833Y-14693928D01*
X8605310Y-14674881D01*
X8595786Y-14636786D01*
X8595786Y-14589167D01*
X8605310Y-14551071D01*
X8614833Y-14532024D01*
X8624357Y-14522500D01*
X8643405Y-14512976D01*
X8833881Y-14512976D02*
X8852929Y-14512976D01*
X8871976Y-14522500D01*
X8881500Y-14532024D01*
X8891024Y-14551071D01*
X8900548Y-14589167D01*
X8900548Y-14636786D01*
X8891024Y-14674881D01*
X8881500Y-14693928D01*
X8871976Y-14703452D01*
X8852929Y-14712976D01*
X8833881Y-14712976D01*
X8814833Y-14703452D01*
X8805310Y-14693928D01*
X8795786Y-14674881D01*
X8786262Y-14636786D01*
X8786262Y-14589167D01*
X8795786Y-14551071D01*
X8805310Y-14532024D01*
X8814833Y-14522500D01*
X8833881Y-14512976D01*
X8986262Y-14712976D02*
X8986262Y-14579643D01*
X8986262Y-14598690D02*
X8995786Y-14589167D01*
X9014833Y-14579643D01*
X9043405Y-14579643D01*
X9062452Y-14589167D01*
X9071976Y-14608214D01*
X9071976Y-14712976D01*
X9071976Y-14608214D02*
X9081500Y-14589167D01*
X9100548Y-14579643D01*
X9129119Y-14579643D01*
X9148167Y-14589167D01*
X9157690Y-14608214D01*
X9157690Y-14712976D01*
X9252929Y-14712976D02*
X9252929Y-14579643D01*
X9252929Y-14598690D02*
X9262452Y-14589167D01*
X9281500Y-14579643D01*
X9310071Y-14579643D01*
X9329119Y-14589167D01*
X9338643Y-14608214D01*
X9338643Y-14712976D01*
X9338643Y-14608214D02*
X9348167Y-14589167D01*
X9367214Y-14579643D01*
X9395786Y-14579643D01*
X9414833Y-14589167D01*
X9424357Y-14608214D01*
X9424357Y-14712976D01*
X9814833Y-14503452D02*
X9643405Y-14760595D01*
X10071976Y-14512976D02*
X10091024Y-14512976D01*
X10110071Y-14522500D01*
X10119595Y-14532024D01*
X10129119Y-14551071D01*
X10138643Y-14589167D01*
X10138643Y-14636786D01*
X10129119Y-14674881D01*
X10119595Y-14693928D01*
X10110071Y-14703452D01*
X10091024Y-14712976D01*
X10071976Y-14712976D01*
X10052929Y-14703452D01*
X10043405Y-14693928D01*
X10033881Y-14674881D01*
X10024357Y-14636786D01*
X10024357Y-14589167D01*
X10033881Y-14551071D01*
X10043405Y-14532024D01*
X10052929Y-14522500D01*
X10071976Y-14512976D01*
X10224357Y-14693928D02*
X10233881Y-14703452D01*
X10224357Y-14712976D01*
X10214833Y-14703452D01*
X10224357Y-14693928D01*
X10224357Y-14712976D01*
X10357690Y-14512976D02*
X10376738Y-14512976D01*
X10395786Y-14522500D01*
X10405310Y-14532024D01*
X10414833Y-14551071D01*
X10424357Y-14589167D01*
X10424357Y-14636786D01*
X10414833Y-14674881D01*
X10405310Y-14693928D01*
X10395786Y-14703452D01*
X10376738Y-14712976D01*
X10357690Y-14712976D01*
X10338643Y-14703452D01*
X10329119Y-14693928D01*
X10319595Y-14674881D01*
X10310071Y-14636786D01*
X10310071Y-14589167D01*
X10319595Y-14551071D01*
X10329119Y-14532024D01*
X10338643Y-14522500D01*
X10357690Y-14512976D01*
X10491024Y-14512976D02*
X10614833Y-14512976D01*
X10548167Y-14589167D01*
X10576738Y-14589167D01*
X10595786Y-14598690D01*
X10605310Y-14608214D01*
X10614833Y-14627262D01*
X10614833Y-14674881D01*
X10605310Y-14693928D01*
X10595786Y-14703452D01*
X10576738Y-14712976D01*
X10519595Y-14712976D01*
X10500548Y-14703452D01*
X10491024Y-14693928D01*
X10805310Y-14712976D02*
X10691024Y-14712976D01*
X10748167Y-14712976D02*
X10748167Y-14512976D01*
X10729119Y-14541548D01*
X10710071Y-14560595D01*
X10691024Y-14570119D01*
X10986262Y-14512976D02*
X10891024Y-14512976D01*
X10881500Y-14608214D01*
X10891024Y-14598690D01*
X10910071Y-14589167D01*
X10957690Y-14589167D01*
X10976738Y-14598690D01*
X10986262Y-14608214D01*
X10995786Y-14627262D01*
X10995786Y-14674881D01*
X10986262Y-14693928D01*
X10976738Y-14703452D01*
X10957690Y-14712976D01*
X10910071Y-14712976D01*
X10891024Y-14703452D01*
X10881500Y-14693928D01*
X11071976Y-14512976D02*
X11071976Y-14551071D01*
X11148167Y-14512976D02*
X11148167Y-14551071D01*
X11443405Y-14789167D02*
X11433881Y-14779643D01*
X11414833Y-14751071D01*
X11405309Y-14732024D01*
X11395786Y-14703452D01*
X11386262Y-14655833D01*
X11386262Y-14617738D01*
X11395786Y-14570119D01*
X11405309Y-14541548D01*
X11414833Y-14522500D01*
X11433881Y-14493928D01*
X11443405Y-14484405D01*
X11605309Y-14579643D02*
X11605309Y-14712976D01*
X11557690Y-14503452D02*
X11510071Y-14646309D01*
X11633881Y-14646309D01*
X11862452Y-14712976D02*
X11862452Y-14512976D01*
X11948167Y-14712976D02*
X11948167Y-14608214D01*
X11938643Y-14589167D01*
X11919595Y-14579643D01*
X11891024Y-14579643D01*
X11871976Y-14589167D01*
X11862452Y-14598690D01*
X12071976Y-14712976D02*
X12052928Y-14703452D01*
X12043405Y-14693928D01*
X12033881Y-14674881D01*
X12033881Y-14617738D01*
X12043405Y-14598690D01*
X12052928Y-14589167D01*
X12071976Y-14579643D01*
X12100548Y-14579643D01*
X12119595Y-14589167D01*
X12129119Y-14598690D01*
X12138643Y-14617738D01*
X12138643Y-14674881D01*
X12129119Y-14693928D01*
X12119595Y-14703452D01*
X12100548Y-14712976D01*
X12071976Y-14712976D01*
X12252928Y-14712976D02*
X12233881Y-14703452D01*
X12224357Y-14684405D01*
X12224357Y-14512976D01*
X12405309Y-14703452D02*
X12386262Y-14712976D01*
X12348167Y-14712976D01*
X12329119Y-14703452D01*
X12319595Y-14684405D01*
X12319595Y-14608214D01*
X12329119Y-14589167D01*
X12348167Y-14579643D01*
X12386262Y-14579643D01*
X12405309Y-14589167D01*
X12414833Y-14608214D01*
X12414833Y-14627262D01*
X12319595Y-14646309D01*
X12491024Y-14703452D02*
X12510071Y-14712976D01*
X12548167Y-14712976D01*
X12567214Y-14703452D01*
X12576738Y-14684405D01*
X12576738Y-14674881D01*
X12567214Y-14655833D01*
X12548167Y-14646309D01*
X12519595Y-14646309D01*
X12500548Y-14636786D01*
X12491024Y-14617738D01*
X12491024Y-14608214D01*
X12500548Y-14589167D01*
X12519595Y-14579643D01*
X12548167Y-14579643D01*
X12567214Y-14589167D01*
X12643405Y-14789167D02*
X12652928Y-14779643D01*
X12671976Y-14751071D01*
X12681500Y-14732024D01*
X12691024Y-14703452D01*
X12700548Y-14655833D01*
X12700548Y-14617738D01*
X12691024Y-14570119D01*
X12681500Y-14541548D01*
X12671976Y-14522500D01*
X12652928Y-14493928D01*
X12643405Y-14484405D01*
D14*
X7816500Y-14831500D02*
X7816500Y-14941500D01*
X7761500Y-14886500D02*
X7871500Y-14886500D01*
D11*
X8233881Y-14976976D02*
X8119595Y-14976976D01*
X8176738Y-14976976D02*
X8176738Y-14776976D01*
X8157690Y-14805548D01*
X8138643Y-14824595D01*
X8119595Y-14834119D01*
X8319595Y-14957928D02*
X8329119Y-14967452D01*
X8319595Y-14976976D01*
X8310071Y-14967452D01*
X8319595Y-14957928D01*
X8319595Y-14976976D01*
X8519595Y-14976976D02*
X8405310Y-14976976D01*
X8462452Y-14976976D02*
X8462452Y-14776976D01*
X8443405Y-14805548D01*
X8424357Y-14824595D01*
X8405310Y-14834119D01*
X8643405Y-14776976D02*
X8662452Y-14776976D01*
X8681500Y-14786500D01*
X8691024Y-14796024D01*
X8700548Y-14815071D01*
X8710071Y-14853167D01*
X8710071Y-14900786D01*
X8700548Y-14938881D01*
X8691024Y-14957928D01*
X8681500Y-14967452D01*
X8662452Y-14976976D01*
X8643405Y-14976976D01*
X8624357Y-14967452D01*
X8614833Y-14957928D01*
X8605310Y-14938881D01*
X8595786Y-14900786D01*
X8595786Y-14853167D01*
X8605310Y-14815071D01*
X8614833Y-14796024D01*
X8624357Y-14786500D01*
X8643405Y-14776976D01*
X8833881Y-14776976D02*
X8852929Y-14776976D01*
X8871976Y-14786500D01*
X8881500Y-14796024D01*
X8891024Y-14815071D01*
X8900548Y-14853167D01*
X8900548Y-14900786D01*
X8891024Y-14938881D01*
X8881500Y-14957928D01*
X8871976Y-14967452D01*
X8852929Y-14976976D01*
X8833881Y-14976976D01*
X8814833Y-14967452D01*
X8805310Y-14957928D01*
X8795786Y-14938881D01*
X8786262Y-14900786D01*
X8786262Y-14853167D01*
X8795786Y-14815071D01*
X8805310Y-14796024D01*
X8814833Y-14786500D01*
X8833881Y-14776976D01*
X8986262Y-14976976D02*
X8986262Y-14843643D01*
X8986262Y-14862690D02*
X8995786Y-14853167D01*
X9014833Y-14843643D01*
X9043405Y-14843643D01*
X9062452Y-14853167D01*
X9071976Y-14872214D01*
X9071976Y-14976976D01*
X9071976Y-14872214D02*
X9081500Y-14853167D01*
X9100548Y-14843643D01*
X9129119Y-14843643D01*
X9148167Y-14853167D01*
X9157690Y-14872214D01*
X9157690Y-14976976D01*
X9252929Y-14976976D02*
X9252929Y-14843643D01*
X9252929Y-14862690D02*
X9262452Y-14853167D01*
X9281500Y-14843643D01*
X9310071Y-14843643D01*
X9329119Y-14853167D01*
X9338643Y-14872214D01*
X9338643Y-14976976D01*
X9338643Y-14872214D02*
X9348167Y-14853167D01*
X9367214Y-14843643D01*
X9395786Y-14843643D01*
X9414833Y-14853167D01*
X9424357Y-14872214D01*
X9424357Y-14976976D01*
X9814833Y-14767452D02*
X9643405Y-15024595D01*
X10071976Y-14776976D02*
X10091024Y-14776976D01*
X10110071Y-14786500D01*
X10119595Y-14796024D01*
X10129119Y-14815071D01*
X10138643Y-14853167D01*
X10138643Y-14900786D01*
X10129119Y-14938881D01*
X10119595Y-14957928D01*
X10110071Y-14967452D01*
X10091024Y-14976976D01*
X10071976Y-14976976D01*
X10052929Y-14967452D01*
X10043405Y-14957928D01*
X10033881Y-14938881D01*
X10024357Y-14900786D01*
X10024357Y-14853167D01*
X10033881Y-14815071D01*
X10043405Y-14796024D01*
X10052929Y-14786500D01*
X10071976Y-14776976D01*
X10224357Y-14957928D02*
X10233881Y-14967452D01*
X10224357Y-14976976D01*
X10214833Y-14967452D01*
X10224357Y-14957928D01*
X10224357Y-14976976D01*
X10357690Y-14776976D02*
X10376738Y-14776976D01*
X10395786Y-14786500D01*
X10405310Y-14796024D01*
X10414833Y-14815071D01*
X10424357Y-14853167D01*
X10424357Y-14900786D01*
X10414833Y-14938881D01*
X10405310Y-14957928D01*
X10395786Y-14967452D01*
X10376738Y-14976976D01*
X10357690Y-14976976D01*
X10338643Y-14967452D01*
X10329119Y-14957928D01*
X10319595Y-14938881D01*
X10310071Y-14900786D01*
X10310071Y-14853167D01*
X10319595Y-14815071D01*
X10329119Y-14796024D01*
X10338643Y-14786500D01*
X10357690Y-14776976D01*
X10595786Y-14843643D02*
X10595786Y-14976976D01*
X10548167Y-14767452D02*
X10500548Y-14910309D01*
X10624357Y-14910309D01*
X10681500Y-14776976D02*
X10805310Y-14776976D01*
X10738643Y-14853167D01*
X10767214Y-14853167D01*
X10786262Y-14862690D01*
X10795786Y-14872214D01*
X10805310Y-14891262D01*
X10805310Y-14938881D01*
X10795786Y-14957928D01*
X10786262Y-14967452D01*
X10767214Y-14976976D01*
X10710071Y-14976976D01*
X10691024Y-14967452D01*
X10681500Y-14957928D01*
X10871976Y-14776976D02*
X10995786Y-14776976D01*
X10929119Y-14853167D01*
X10957690Y-14853167D01*
X10976738Y-14862690D01*
X10986262Y-14872214D01*
X10995786Y-14891262D01*
X10995786Y-14938881D01*
X10986262Y-14957928D01*
X10976738Y-14967452D01*
X10957690Y-14976976D01*
X10900548Y-14976976D01*
X10881500Y-14967452D01*
X10871976Y-14957928D01*
X11071976Y-14776976D02*
X11071976Y-14815071D01*
X11148167Y-14776976D02*
X11148167Y-14815071D01*
X11443405Y-15053167D02*
X11433881Y-15043643D01*
X11414833Y-15015071D01*
X11405309Y-14996024D01*
X11395786Y-14967452D01*
X11386262Y-14919833D01*
X11386262Y-14881738D01*
X11395786Y-14834119D01*
X11405309Y-14805548D01*
X11414833Y-14786500D01*
X11433881Y-14757928D01*
X11443405Y-14748405D01*
X11605309Y-14843643D02*
X11605309Y-14976976D01*
X11557690Y-14767452D02*
X11510071Y-14910309D01*
X11633881Y-14910309D01*
X11691024Y-14776976D02*
X11814833Y-14776976D01*
X11748167Y-14853167D01*
X11776738Y-14853167D01*
X11795786Y-14862690D01*
X11805309Y-14872214D01*
X11814833Y-14891262D01*
X11814833Y-14938881D01*
X11805309Y-14957928D01*
X11795786Y-14967452D01*
X11776738Y-14976976D01*
X11719595Y-14976976D01*
X11700548Y-14967452D01*
X11691024Y-14957928D01*
X12052928Y-14976976D02*
X12052928Y-14776976D01*
X12138643Y-14976976D02*
X12138643Y-14872214D01*
X12129119Y-14853167D01*
X12110071Y-14843643D01*
X12081500Y-14843643D01*
X12062452Y-14853167D01*
X12052928Y-14862690D01*
X12262452Y-14976976D02*
X12243405Y-14967452D01*
X12233881Y-14957928D01*
X12224357Y-14938881D01*
X12224357Y-14881738D01*
X12233881Y-14862690D01*
X12243405Y-14853167D01*
X12262452Y-14843643D01*
X12291024Y-14843643D01*
X12310071Y-14853167D01*
X12319595Y-14862690D01*
X12329119Y-14881738D01*
X12329119Y-14938881D01*
X12319595Y-14957928D01*
X12310071Y-14967452D01*
X12291024Y-14976976D01*
X12262452Y-14976976D01*
X12443405Y-14976976D02*
X12424357Y-14967452D01*
X12414833Y-14948405D01*
X12414833Y-14776976D01*
X12595786Y-14967452D02*
X12576738Y-14976976D01*
X12538643Y-14976976D01*
X12519595Y-14967452D01*
X12510071Y-14948405D01*
X12510071Y-14872214D01*
X12519595Y-14853167D01*
X12538643Y-14843643D01*
X12576738Y-14843643D01*
X12595786Y-14853167D01*
X12605309Y-14872214D01*
X12605309Y-14891262D01*
X12510071Y-14910309D01*
X12681500Y-14967452D02*
X12700548Y-14976976D01*
X12738643Y-14976976D01*
X12757690Y-14967452D01*
X12767214Y-14948405D01*
X12767214Y-14938881D01*
X12757690Y-14919833D01*
X12738643Y-14910309D01*
X12710071Y-14910309D01*
X12691024Y-14900786D01*
X12681500Y-14881738D01*
X12681500Y-14872214D01*
X12691024Y-14853167D01*
X12710071Y-14843643D01*
X12738643Y-14843643D01*
X12757690Y-14853167D01*
X12833881Y-15053167D02*
X12843405Y-15043643D01*
X12862452Y-15015071D01*
X12871976Y-14996024D01*
X12881500Y-14967452D01*
X12891024Y-14919833D01*
X12891024Y-14881738D01*
X12881500Y-14834119D01*
X12871976Y-14805548D01*
X12862452Y-14786500D01*
X12843405Y-14757928D01*
X12833881Y-14748405D01*
D15*
X7849554Y-15203484D02*
X7849554Y-15097516D01*
X7743586Y-15097516D01*
X7743586Y-15203484D01*
X7849554Y-15203484D01*
D11*
X8233881Y-15240976D02*
X8119595Y-15240976D01*
X8176738Y-15240976D02*
X8176738Y-15040976D01*
X8157690Y-15069548D01*
X8138643Y-15088595D01*
X8119595Y-15098119D01*
X8319595Y-15221928D02*
X8329119Y-15231452D01*
X8319595Y-15240976D01*
X8310071Y-15231452D01*
X8319595Y-15221928D01*
X8319595Y-15240976D01*
X8500548Y-15107643D02*
X8500548Y-15240976D01*
X8452929Y-15031452D02*
X8405310Y-15174309D01*
X8529119Y-15174309D01*
X8614833Y-15240976D02*
X8652929Y-15240976D01*
X8671976Y-15231452D01*
X8681500Y-15221928D01*
X8700548Y-15193357D01*
X8710071Y-15155262D01*
X8710071Y-15079071D01*
X8700548Y-15060024D01*
X8691024Y-15050500D01*
X8671976Y-15040976D01*
X8633881Y-15040976D01*
X8614833Y-15050500D01*
X8605310Y-15060024D01*
X8595786Y-15079071D01*
X8595786Y-15126690D01*
X8605310Y-15145738D01*
X8614833Y-15155262D01*
X8633881Y-15164786D01*
X8671976Y-15164786D01*
X8691024Y-15155262D01*
X8700548Y-15145738D01*
X8710071Y-15126690D01*
X8805310Y-15240976D02*
X8843405Y-15240976D01*
X8862452Y-15231452D01*
X8871976Y-15221928D01*
X8891024Y-15193357D01*
X8900548Y-15155262D01*
X8900548Y-15079071D01*
X8891024Y-15060024D01*
X8881500Y-15050500D01*
X8862452Y-15040976D01*
X8824357Y-15040976D01*
X8805310Y-15050500D01*
X8795786Y-15060024D01*
X8786262Y-15079071D01*
X8786262Y-15126690D01*
X8795786Y-15145738D01*
X8805310Y-15155262D01*
X8824357Y-15164786D01*
X8862452Y-15164786D01*
X8881500Y-15155262D01*
X8891024Y-15145738D01*
X8900548Y-15126690D01*
X8986262Y-15240976D02*
X8986262Y-15107643D01*
X8986262Y-15126690D02*
X8995786Y-15117167D01*
X9014833Y-15107643D01*
X9043405Y-15107643D01*
X9062452Y-15117167D01*
X9071976Y-15136214D01*
X9071976Y-15240976D01*
X9071976Y-15136214D02*
X9081500Y-15117167D01*
X9100548Y-15107643D01*
X9129119Y-15107643D01*
X9148167Y-15117167D01*
X9157690Y-15136214D01*
X9157690Y-15240976D01*
X9252929Y-15240976D02*
X9252929Y-15107643D01*
X9252929Y-15126690D02*
X9262452Y-15117167D01*
X9281500Y-15107643D01*
X9310071Y-15107643D01*
X9329119Y-15117167D01*
X9338643Y-15136214D01*
X9338643Y-15240976D01*
X9338643Y-15136214D02*
X9348167Y-15117167D01*
X9367214Y-15107643D01*
X9395786Y-15107643D01*
X9414833Y-15117167D01*
X9424357Y-15136214D01*
X9424357Y-15240976D01*
X9814833Y-15031452D02*
X9643405Y-15288595D01*
X10071976Y-15040976D02*
X10091024Y-15040976D01*
X10110071Y-15050500D01*
X10119595Y-15060024D01*
X10129119Y-15079071D01*
X10138643Y-15117167D01*
X10138643Y-15164786D01*
X10129119Y-15202881D01*
X10119595Y-15221928D01*
X10110071Y-15231452D01*
X10091024Y-15240976D01*
X10071976Y-15240976D01*
X10052929Y-15231452D01*
X10043405Y-15221928D01*
X10033881Y-15202881D01*
X10024357Y-15164786D01*
X10024357Y-15117167D01*
X10033881Y-15079071D01*
X10043405Y-15060024D01*
X10052929Y-15050500D01*
X10071976Y-15040976D01*
X10224357Y-15221928D02*
X10233881Y-15231452D01*
X10224357Y-15240976D01*
X10214833Y-15231452D01*
X10224357Y-15221928D01*
X10224357Y-15240976D01*
X10357690Y-15040976D02*
X10376738Y-15040976D01*
X10395786Y-15050500D01*
X10405310Y-15060024D01*
X10414833Y-15079071D01*
X10424357Y-15117167D01*
X10424357Y-15164786D01*
X10414833Y-15202881D01*
X10405310Y-15221928D01*
X10395786Y-15231452D01*
X10376738Y-15240976D01*
X10357690Y-15240976D01*
X10338643Y-15231452D01*
X10329119Y-15221928D01*
X10319595Y-15202881D01*
X10310071Y-15164786D01*
X10310071Y-15117167D01*
X10319595Y-15079071D01*
X10329119Y-15060024D01*
X10338643Y-15050500D01*
X10357690Y-15040976D01*
X10605310Y-15040976D02*
X10510071Y-15040976D01*
X10500548Y-15136214D01*
X10510071Y-15126690D01*
X10529119Y-15117167D01*
X10576738Y-15117167D01*
X10595786Y-15126690D01*
X10605310Y-15136214D01*
X10614833Y-15155262D01*
X10614833Y-15202881D01*
X10605310Y-15221928D01*
X10595786Y-15231452D01*
X10576738Y-15240976D01*
X10529119Y-15240976D01*
X10510071Y-15231452D01*
X10500548Y-15221928D01*
X10710071Y-15240976D02*
X10748167Y-15240976D01*
X10767214Y-15231452D01*
X10776738Y-15221928D01*
X10795786Y-15193357D01*
X10805310Y-15155262D01*
X10805310Y-15079071D01*
X10795786Y-15060024D01*
X10786262Y-15050500D01*
X10767214Y-15040976D01*
X10729119Y-15040976D01*
X10710071Y-15050500D01*
X10700548Y-15060024D01*
X10691024Y-15079071D01*
X10691024Y-15126690D01*
X10700548Y-15145738D01*
X10710071Y-15155262D01*
X10729119Y-15164786D01*
X10767214Y-15164786D01*
X10786262Y-15155262D01*
X10795786Y-15145738D01*
X10805310Y-15126690D01*
X10929119Y-15040976D02*
X10948167Y-15040976D01*
X10967214Y-15050500D01*
X10976738Y-15060024D01*
X10986262Y-15079071D01*
X10995786Y-15117167D01*
X10995786Y-15164786D01*
X10986262Y-15202881D01*
X10976738Y-15221928D01*
X10967214Y-15231452D01*
X10948167Y-15240976D01*
X10929119Y-15240976D01*
X10910071Y-15231452D01*
X10900548Y-15221928D01*
X10891024Y-15202881D01*
X10881500Y-15164786D01*
X10881500Y-15117167D01*
X10891024Y-15079071D01*
X10900548Y-15060024D01*
X10910071Y-15050500D01*
X10929119Y-15040976D01*
X11071976Y-15040976D02*
X11071976Y-15079071D01*
X11148167Y-15040976D02*
X11148167Y-15079071D01*
X11443405Y-15317167D02*
X11433881Y-15307643D01*
X11414833Y-15279071D01*
X11405309Y-15260024D01*
X11395786Y-15231452D01*
X11386262Y-15183833D01*
X11386262Y-15145738D01*
X11395786Y-15098119D01*
X11405309Y-15069548D01*
X11414833Y-15050500D01*
X11433881Y-15021928D01*
X11443405Y-15012405D01*
X11510071Y-15060024D02*
X11519595Y-15050500D01*
X11538643Y-15040976D01*
X11586262Y-15040976D01*
X11605309Y-15050500D01*
X11614833Y-15060024D01*
X11624357Y-15079071D01*
X11624357Y-15098119D01*
X11614833Y-15126690D01*
X11500548Y-15240976D01*
X11624357Y-15240976D01*
X11738643Y-15126690D02*
X11719595Y-15117167D01*
X11710071Y-15107643D01*
X11700548Y-15088595D01*
X11700548Y-15079071D01*
X11710071Y-15060024D01*
X11719595Y-15050500D01*
X11738643Y-15040976D01*
X11776738Y-15040976D01*
X11795786Y-15050500D01*
X11805309Y-15060024D01*
X11814833Y-15079071D01*
X11814833Y-15088595D01*
X11805309Y-15107643D01*
X11795786Y-15117167D01*
X11776738Y-15126690D01*
X11738643Y-15126690D01*
X11719595Y-15136214D01*
X11710071Y-15145738D01*
X11700548Y-15164786D01*
X11700548Y-15202881D01*
X11710071Y-15221928D01*
X11719595Y-15231452D01*
X11738643Y-15240976D01*
X11776738Y-15240976D01*
X11795786Y-15231452D01*
X11805309Y-15221928D01*
X11814833Y-15202881D01*
X11814833Y-15164786D01*
X11805309Y-15145738D01*
X11795786Y-15136214D01*
X11776738Y-15126690D01*
X12052928Y-15240976D02*
X12052928Y-15040976D01*
X12138643Y-15240976D02*
X12138643Y-15136214D01*
X12129119Y-15117167D01*
X12110071Y-15107643D01*
X12081500Y-15107643D01*
X12062452Y-15117167D01*
X12052928Y-15126690D01*
X12262452Y-15240976D02*
X12243405Y-15231452D01*
X12233881Y-15221928D01*
X12224357Y-15202881D01*
X12224357Y-15145738D01*
X12233881Y-15126690D01*
X12243405Y-15117167D01*
X12262452Y-15107643D01*
X12291024Y-15107643D01*
X12310071Y-15117167D01*
X12319595Y-15126690D01*
X12329119Y-15145738D01*
X12329119Y-15202881D01*
X12319595Y-15221928D01*
X12310071Y-15231452D01*
X12291024Y-15240976D01*
X12262452Y-15240976D01*
X12443405Y-15240976D02*
X12424357Y-15231452D01*
X12414833Y-15212405D01*
X12414833Y-15040976D01*
X12595786Y-15231452D02*
X12576738Y-15240976D01*
X12538643Y-15240976D01*
X12519595Y-15231452D01*
X12510071Y-15212405D01*
X12510071Y-15136214D01*
X12519595Y-15117167D01*
X12538643Y-15107643D01*
X12576738Y-15107643D01*
X12595786Y-15117167D01*
X12605309Y-15136214D01*
X12605309Y-15155262D01*
X12510071Y-15174309D01*
X12681500Y-15231452D02*
X12700548Y-15240976D01*
X12738643Y-15240976D01*
X12757690Y-15231452D01*
X12767214Y-15212405D01*
X12767214Y-15202881D01*
X12757690Y-15183833D01*
X12738643Y-15174309D01*
X12710071Y-15174309D01*
X12691024Y-15164786D01*
X12681500Y-15145738D01*
X12681500Y-15136214D01*
X12691024Y-15117167D01*
X12710071Y-15107643D01*
X12738643Y-15107643D01*
X12757690Y-15117167D01*
X12833881Y-15317167D02*
X12843405Y-15307643D01*
X12862452Y-15279071D01*
X12871976Y-15260024D01*
X12881500Y-15231452D01*
X12891024Y-15183833D01*
X12891024Y-15145738D01*
X12881500Y-15098119D01*
X12871976Y-15069548D01*
X12862452Y-15050500D01*
X12843405Y-15021928D01*
X12833881Y-15012405D01*
M02*
