M48
; DRILL file {KiCad 6.0.8-f2edbf62ab~116~ubuntu22.04.1} date Mon 10 Oct 2022 03:37:37 PM MDT
; FORMAT={-:-/ absolute / metric / decimal}
; #@! TF.CreationDate,2022-10-10T15:37:37-06:00
; #@! TF.GenerationSoftware,Kicad,Pcbnew,6.0.8-f2edbf62ab~116~ubuntu22.04.1
; #@! TF.FileFunction,NonPlated,1,2,NPTH
FMAT,2
METRIC
; #@! TA.AperFunction,NonPlated,NPTH,ComponentDrill
T1C0.650
; #@! TA.AperFunction,NonPlated,NPTH,ComponentDrill
T2C1.500
; #@! TA.AperFunction,NonPlated,NPTH,ComponentDrill
T3C1.702
; #@! TA.AperFunction,NonPlated,NPTH,ComponentDrill
T4C2.100
; #@! TA.AperFunction,NonPlated,NPTH,ComponentDrill
T5C3.000
; #@! TA.AperFunction,NonPlated,NPTH,ComponentDrill
T6C3.200
; #@! TA.AperFunction,NonPlated,NPTH,ComponentDrill
T7C3.988
%
G90
G05
T1
X149.51Y-39.24
X155.29Y-39.24
T2
X174.12Y-114.115
X174.12Y-119.565
X177.15Y-114.415
X177.15Y-119.265
T3
X91.44Y-45.72
X93.98Y-81.28
X101.6Y-45.72
X104.14Y-81.28
X114.3Y-45.72
X116.84Y-81.28
X124.46Y-45.72
X127.0Y-81.28
X137.16Y-88.9
X147.32Y-88.9
X147.32Y-127.0
X157.48Y-127.0
X160.02Y-73.66
X160.02Y-96.52
X170.18Y-73.66
X170.18Y-96.52
X182.88Y-68.58
X182.88Y-91.44
X193.04Y-68.58
X193.04Y-91.44
X205.74Y-68.58
X205.74Y-91.44
X215.9Y-68.58
X215.9Y-91.44
X228.6Y-71.12
X228.6Y-93.98
X238.76Y-71.12
X238.76Y-93.98
T4
X174.62Y-111.14
X174.62Y-122.54
X221.62Y-111.14
X221.62Y-122.54
T5
X92.71Y-43.18
X95.25Y-78.74
X99.06Y-40.64
X101.6Y-76.2
X115.57Y-43.18
X118.11Y-78.74
X121.92Y-40.64
X124.46Y-76.2
X138.43Y-86.36
X144.78Y-83.82
X148.59Y-124.46
X154.94Y-121.92
X161.29Y-71.12
X161.29Y-93.98
X167.64Y-68.58
X167.64Y-91.44
X184.15Y-66.04
X184.15Y-88.9
X190.5Y-63.5
X190.5Y-86.36
X207.01Y-66.04
X207.01Y-88.9
X213.36Y-63.5
X213.36Y-86.36
X229.87Y-68.58
X229.87Y-91.44
X236.22Y-66.04
X236.22Y-88.9
T6
X86.36Y-124.46
X91.44Y-60.96
X167.64Y-45.72
X243.84Y-119.38
X246.38Y-48.26
T7
X96.52Y-45.72
X99.06Y-81.28
X119.38Y-45.72
X121.92Y-81.28
X142.24Y-88.9
X152.4Y-127.0
X165.1Y-73.66
X165.1Y-96.52
X187.96Y-68.58
X187.96Y-91.44
X210.82Y-68.58
X210.82Y-91.44
X233.68Y-71.12
X233.68Y-93.98
T0
M30
