M48
; DRILL file {KiCad 6.0.8-f2edbf62ab~116~ubuntu22.04.1} date Mon 10 Oct 2022 03:37:37 PM MDT
; FORMAT={-:-/ absolute / metric / decimal}
; #@! TF.CreationDate,2022-10-10T15:37:37-06:00
; #@! TF.GenerationSoftware,Kicad,Pcbnew,6.0.8-f2edbf62ab~116~ubuntu22.04.1
; #@! TF.FileFunction,Plated,1,2,PTH
FMAT,2
METRIC
; #@! TA.AperFunction,Plated,PTH,ComponentDrill
T1C0.600
; #@! TA.AperFunction,Plated,PTH,ComponentDrill
T2C0.800
; #@! TA.AperFunction,Plated,PTH,ComponentDrill
T3C1.100
; #@! TA.AperFunction,Plated,PTH,ComponentDrill
T4C1.499
%
G90
G05
T1
X148.08Y-35.56
X148.08Y-39.74
X156.72Y-35.56
X156.72Y-39.74
X173.82Y-115.84
X173.82Y-117.84
T2
X127.0Y-45.72
X127.0Y-60.96
X134.62Y-45.72
X134.62Y-60.96
T3
X173.99Y-107.95
X173.99Y-125.73
X176.53Y-107.95
X176.53Y-125.73
X179.07Y-107.95
X179.07Y-125.73
X181.61Y-107.95
X181.61Y-125.73
X184.15Y-107.95
X184.15Y-125.73
X186.69Y-107.95
X186.69Y-125.73
X189.23Y-107.95
X189.23Y-125.73
X191.77Y-107.95
X191.77Y-125.73
X194.31Y-107.95
X194.31Y-125.73
X196.85Y-107.95
X196.85Y-125.73
X199.39Y-107.95
X199.39Y-125.73
X201.93Y-107.95
X201.93Y-125.73
X204.47Y-107.95
X204.47Y-125.73
X207.01Y-107.95
X207.01Y-125.73
X209.55Y-107.95
X209.55Y-125.73
X212.09Y-107.95
X212.09Y-125.73
X214.63Y-107.95
X214.63Y-125.73
X217.17Y-107.95
X217.17Y-125.73
X219.71Y-107.95
X219.71Y-125.73
X222.02Y-114.3
X222.02Y-116.84
X222.02Y-119.38
X222.25Y-107.95
X222.25Y-125.73
T4
X93.98Y-50.8
X96.52Y-86.36
X100.33Y-48.26
X102.87Y-83.82
X116.84Y-50.8
X119.38Y-86.36
X123.19Y-48.26
X125.73Y-83.82
X139.7Y-93.98
X146.05Y-91.44
X149.86Y-132.08
X156.21Y-129.54
X162.56Y-78.74
X162.56Y-101.6
X168.91Y-76.2
X168.91Y-99.06
X185.42Y-73.66
X185.42Y-96.52
X191.77Y-71.12
X191.77Y-93.98
X208.28Y-73.66
X208.28Y-96.52
X214.63Y-71.12
X214.63Y-93.98
X231.14Y-76.2
X231.14Y-99.06
X237.49Y-73.66
X237.49Y-96.52
T0
M30
