%TF.GenerationSoftware,KiCad,Pcbnew,6.0.8-f2edbf62ab~116~ubuntu22.04.1*%
%TF.CreationDate,2022-10-10T15:37:59-06:00*%
%TF.ProjectId,PPP_pcb,5050505f-7063-4622-9e6b-696361645f70,rev?*%
%TF.SameCoordinates,Original*%
%TF.FileFunction,Soldermask,Bot*%
%TF.FilePolarity,Negative*%
%FSLAX46Y46*%
G04 Gerber Fmt 4.6, Leading zero omitted, Abs format (unit mm)*
G04 Created by KiCad (PCBNEW 6.0.8-f2edbf62ab~116~ubuntu22.04.1) date 2022-10-10 15:37:59*
%MOMM*%
%LPD*%
G01*
G04 APERTURE LIST*
G04 Aperture macros list*
%AMRoundRect*
0 Rectangle with rounded corners*
0 $1 Rounding radius*
0 $2 $3 $4 $5 $6 $7 $8 $9 X,Y pos of 4 corners*
0 Add a 4 corners polygon primitive as box body*
4,1,4,$2,$3,$4,$5,$6,$7,$8,$9,$2,$3,0*
0 Add four circle primitives for the rounded corners*
1,1,$1+$1,$2,$3*
1,1,$1+$1,$4,$5*
1,1,$1+$1,$6,$7*
1,1,$1+$1,$8,$9*
0 Add four rect primitives between the rounded corners*
20,1,$1+$1,$2,$3,$4,$5,0*
20,1,$1+$1,$4,$5,$6,$7,0*
20,1,$1+$1,$6,$7,$8,$9,0*
20,1,$1+$1,$8,$9,$2,$3,0*%
G04 Aperture macros list end*
%ADD10C,1.701800*%
%ADD11C,3.000000*%
%ADD12C,3.987800*%
%ADD13C,2.374900*%
%ADD14RoundRect,0.063500X-1.275000X-1.250000X1.275000X-1.250000X1.275000X1.250000X-1.275000X1.250000X0*%
%ADD15C,3.200000*%
%ADD16C,0.650000*%
%ADD17O,1.177000X2.227000*%
%ADD18O,1.027000X1.927000*%
%ADD19C,1.600000*%
%ADD20O,1.600000X1.600000*%
%ADD21C,1.500000*%
%ADD22C,2.100000*%
%ADD23O,1.727000X3.327000*%
%ADD24O,3.327000X1.727000*%
%ADD25RoundRect,0.063500X-0.400000X0.400000X-0.400000X-0.400000X0.400000X-0.400000X0.400000X0.400000X0*%
G04 APERTURE END LIST*
D10*
%TO.C,U$15*%
X205740000Y-91440000D03*
D11*
X213360000Y-86360000D03*
D10*
X215900000Y-91440000D03*
D12*
X210820000Y-91440000D03*
D11*
X207010000Y-88900000D03*
D13*
X214630000Y-93980000D03*
X208280000Y-96520000D03*
D14*
X202565000Y-88900000D03*
X217805000Y-86360000D03*
%TD*%
D10*
%TO.C,U$13*%
X170180000Y-96520000D03*
D12*
X165100000Y-96520000D03*
D11*
X161290000Y-93980000D03*
D10*
X160020000Y-96520000D03*
D11*
X167640000Y-91440000D03*
D13*
X168910000Y-99060000D03*
X162560000Y-101600000D03*
D14*
X156845000Y-93980000D03*
X172085000Y-91440000D03*
%TD*%
D12*
%TO.C,U$12*%
X233680000Y-71120000D03*
D10*
X238760000Y-71120000D03*
X228600000Y-71120000D03*
D11*
X229870000Y-68580000D03*
X236220000Y-66040000D03*
D13*
X237490000Y-73660000D03*
X231140000Y-76200000D03*
D14*
X225425000Y-68580000D03*
X240665000Y-66040000D03*
%TD*%
D10*
%TO.C,U$10*%
X182880000Y-68580000D03*
D12*
X187960000Y-68580000D03*
D11*
X184150000Y-66040000D03*
D10*
X193040000Y-68580000D03*
D11*
X190500000Y-63500000D03*
D13*
X191770000Y-71120000D03*
X185420000Y-73660000D03*
D14*
X179705000Y-66040000D03*
X194945000Y-63500000D03*
%TD*%
D15*
%TO.C,REF\u002A\u002A*%
X86360000Y-124460000D03*
%TD*%
%TO.C,REF\u002A\u002A*%
X246380000Y-48260000D03*
%TD*%
D16*
%TO.C,J5*%
X149510000Y-39240000D03*
X155290000Y-39240000D03*
D17*
X156720000Y-39740000D03*
D18*
X156720000Y-35560000D03*
D17*
X148080000Y-39740000D03*
D18*
X148080000Y-35560000D03*
%TD*%
D19*
%TO.C,R3*%
X134620000Y-45720000D03*
D20*
X127000000Y-45720000D03*
%TD*%
D15*
%TO.C,REF\u002A\u002A*%
X91440000Y-60960000D03*
%TD*%
D11*
%TO.C,U$16*%
X236220000Y-88900000D03*
D10*
X238760000Y-93980000D03*
X228600000Y-93980000D03*
D11*
X229870000Y-91440000D03*
D12*
X233680000Y-93980000D03*
D13*
X237490000Y-96520000D03*
X231140000Y-99060000D03*
D14*
X225425000Y-91440000D03*
X240665000Y-88900000D03*
%TD*%
D19*
%TO.C,R1*%
X134620000Y-60960000D03*
D20*
X127000000Y-60960000D03*
%TD*%
D11*
%TO.C,U$11*%
X207010000Y-66040000D03*
X213360000Y-63500000D03*
D12*
X210820000Y-68580000D03*
D10*
X215900000Y-68580000D03*
X205740000Y-68580000D03*
D13*
X214630000Y-71120000D03*
X208280000Y-73660000D03*
D14*
X202565000Y-66040000D03*
X217805000Y-63500000D03*
%TD*%
D15*
%TO.C,REF\u002A\u002A*%
X243840000Y-119380000D03*
%TD*%
D12*
%TO.C,U$18*%
X96520000Y-45720000D03*
D11*
X99060000Y-40640000D03*
X92710000Y-43180000D03*
D10*
X101600000Y-45720000D03*
X91440000Y-45720000D03*
D13*
X100330000Y-48260000D03*
X93980000Y-50800000D03*
D14*
X88265000Y-43180000D03*
X103505000Y-40640000D03*
%TD*%
D10*
%TO.C,U$6*%
X157480000Y-127000000D03*
X147320000Y-127000000D03*
D11*
X148590000Y-124460000D03*
D12*
X152400000Y-127000000D03*
D11*
X154940000Y-121920000D03*
D13*
X156210000Y-129540000D03*
X149860000Y-132080000D03*
D14*
X144145000Y-124460000D03*
X159385000Y-121920000D03*
%TD*%
D10*
%TO.C,U$14*%
X193040000Y-91440000D03*
X182880000Y-91440000D03*
D12*
X187960000Y-91440000D03*
D11*
X190500000Y-86360000D03*
X184150000Y-88900000D03*
D13*
X191770000Y-93980000D03*
X185420000Y-96520000D03*
D14*
X179705000Y-88900000D03*
X194945000Y-86360000D03*
%TD*%
D12*
%TO.C,U$2*%
X99060000Y-81280000D03*
D10*
X104140000Y-81280000D03*
X93980000Y-81280000D03*
D11*
X101600000Y-76200000D03*
X95250000Y-78740000D03*
D13*
X102870000Y-83820000D03*
X96520000Y-86360000D03*
D14*
X90805000Y-78740000D03*
X106045000Y-76200000D03*
%TD*%
D10*
%TO.C,U$8*%
X114300000Y-45720000D03*
X124460000Y-45720000D03*
D12*
X119380000Y-45720000D03*
D11*
X121920000Y-40640000D03*
X115570000Y-43180000D03*
D13*
X123190000Y-48260000D03*
X116840000Y-50800000D03*
D14*
X111125000Y-43180000D03*
X126365000Y-40640000D03*
%TD*%
D15*
%TO.C,REF\u002A\u002A*%
X167640000Y-45720000D03*
%TD*%
D10*
%TO.C,U$4*%
X127000000Y-81280000D03*
D11*
X124460000Y-76200000D03*
D10*
X116840000Y-81280000D03*
D12*
X121920000Y-81280000D03*
D11*
X118110000Y-78740000D03*
D13*
X125730000Y-83820000D03*
X119380000Y-86360000D03*
D14*
X113665000Y-78740000D03*
X128905000Y-76200000D03*
%TD*%
D11*
%TO.C,U$9*%
X161290000Y-71120000D03*
X167640000Y-68580000D03*
D12*
X165100000Y-73660000D03*
D10*
X170180000Y-73660000D03*
X160020000Y-73660000D03*
D13*
X168910000Y-76200000D03*
X162560000Y-78740000D03*
D14*
X156845000Y-71120000D03*
X172085000Y-68580000D03*
%TD*%
D10*
%TO.C,U$5*%
X137160000Y-88900000D03*
X147320000Y-88900000D03*
D11*
X144780000Y-83820000D03*
X138430000Y-86360000D03*
D12*
X142240000Y-88900000D03*
D13*
X146050000Y-91440000D03*
X139700000Y-93980000D03*
D14*
X133985000Y-86360000D03*
X149225000Y-83820000D03*
%TD*%
D21*
%TO.C,J1*%
X177150000Y-114415000D03*
X174120000Y-119565000D03*
X174120000Y-114115000D03*
D22*
X174620000Y-122540000D03*
X221620000Y-111140000D03*
X174620000Y-111140000D03*
D21*
X177150000Y-119265000D03*
D22*
X221620000Y-122540000D03*
D23*
X184150000Y-126530000D03*
X181610000Y-126530000D03*
X186690000Y-126530000D03*
X191770000Y-126530000D03*
X179070000Y-107150000D03*
X191770000Y-107150000D03*
X204470000Y-107150000D03*
X217170000Y-107150000D03*
D24*
X222820000Y-116840000D03*
D23*
X217170000Y-126530000D03*
X204470000Y-126530000D03*
X179070000Y-126530000D03*
X173990000Y-107150000D03*
X176530000Y-107150000D03*
X181610000Y-107150000D03*
X184150000Y-107150000D03*
X186690000Y-107150000D03*
X189230000Y-107150000D03*
X194310000Y-107150000D03*
X196850000Y-107150000D03*
X199390000Y-107150000D03*
X201930000Y-107150000D03*
X207010000Y-107150000D03*
X209550000Y-107150000D03*
X212090000Y-107150000D03*
X214630000Y-107150000D03*
X219710000Y-107150000D03*
X222250000Y-107150000D03*
X222250000Y-126530000D03*
X219710000Y-126530000D03*
X214630000Y-126530000D03*
X212090000Y-126530000D03*
X209550000Y-126530000D03*
X207010000Y-126530000D03*
X201930000Y-126530000D03*
X196850000Y-126530000D03*
X194310000Y-126530000D03*
X189230000Y-126530000D03*
X199390000Y-126530000D03*
D24*
X222820000Y-114300000D03*
X222820000Y-119380000D03*
D25*
X173820000Y-117840000D03*
X173820000Y-115840000D03*
D23*
X173990000Y-126530000D03*
X176530000Y-126530000D03*
%TD*%
M02*
