%TF.GenerationSoftware,KiCad,Pcbnew,6.0.8-f2edbf62ab~116~ubuntu22.04.1*%
%TF.CreationDate,2022-10-10T15:37:59-06:00*%
%TF.ProjectId,PPP_pcb,5050505f-7063-4622-9e6b-696361645f70,rev?*%
%TF.SameCoordinates,Original*%
%TF.FileFunction,Legend,Top*%
%TF.FilePolarity,Positive*%
%FSLAX46Y46*%
G04 Gerber Fmt 4.6, Leading zero omitted, Abs format (unit mm)*
G04 Created by KiCad (PCBNEW 6.0.8-f2edbf62ab~116~ubuntu22.04.1) date 2022-10-10 15:37:59*
%MOMM*%
%LPD*%
G01*
G04 APERTURE LIST*
%ADD10C,0.450000*%
%ADD11C,0.150000*%
%ADD12C,0.300000*%
%ADD13C,0.127000*%
%ADD14C,0.120000*%
%ADD15C,0.020000*%
G04 APERTURE END LIST*
D10*
X107942857Y-108162142D02*
X107942857Y-105162142D01*
X108657142Y-105162142D01*
X109085714Y-105305000D01*
X109371428Y-105590714D01*
X109514285Y-105876428D01*
X109657142Y-106447857D01*
X109657142Y-106876428D01*
X109514285Y-107447857D01*
X109371428Y-107733571D01*
X109085714Y-108019285D01*
X108657142Y-108162142D01*
X107942857Y-108162142D01*
X112228571Y-108162142D02*
X112228571Y-106590714D01*
X112085714Y-106305000D01*
X111800000Y-106162142D01*
X111228571Y-106162142D01*
X110942857Y-106305000D01*
X112228571Y-108019285D02*
X111942857Y-108162142D01*
X111228571Y-108162142D01*
X110942857Y-108019285D01*
X110800000Y-107733571D01*
X110800000Y-107447857D01*
X110942857Y-107162142D01*
X111228571Y-107019285D01*
X111942857Y-107019285D01*
X112228571Y-106876428D01*
X113371428Y-106162142D02*
X114085714Y-108162142D01*
X114800000Y-106162142D01*
X115657142Y-106162142D02*
X116371428Y-108162142D01*
X117085714Y-106162142D02*
X116371428Y-108162142D01*
X116085714Y-108876428D01*
X115942857Y-109019285D01*
X115657142Y-109162142D01*
X118371428Y-105162142D02*
X118085714Y-105733571D01*
X119514285Y-108019285D02*
X119800000Y-108162142D01*
X120371428Y-108162142D01*
X120657142Y-108019285D01*
X120800000Y-107733571D01*
X120800000Y-107590714D01*
X120657142Y-107305000D01*
X120371428Y-107162142D01*
X119942857Y-107162142D01*
X119657142Y-107019285D01*
X119514285Y-106733571D01*
X119514285Y-106590714D01*
X119657142Y-106305000D01*
X119942857Y-106162142D01*
X120371428Y-106162142D01*
X120657142Y-106305000D01*
X88728571Y-112992142D02*
X88728571Y-109992142D01*
X89871428Y-109992142D01*
X90157142Y-110135000D01*
X90300000Y-110277857D01*
X90442857Y-110563571D01*
X90442857Y-110992142D01*
X90300000Y-111277857D01*
X90157142Y-111420714D01*
X89871428Y-111563571D01*
X88728571Y-111563571D01*
X93014285Y-110992142D02*
X93014285Y-112992142D01*
X91728571Y-110992142D02*
X91728571Y-112563571D01*
X91871428Y-112849285D01*
X92157142Y-112992142D01*
X92585714Y-112992142D01*
X92871428Y-112849285D01*
X93014285Y-112706428D01*
X94442857Y-112992142D02*
X94442857Y-110992142D01*
X94442857Y-111277857D02*
X94585714Y-111135000D01*
X94871428Y-110992142D01*
X95300000Y-110992142D01*
X95585714Y-111135000D01*
X95728571Y-111420714D01*
X95728571Y-112992142D01*
X95728571Y-111420714D02*
X95871428Y-111135000D01*
X96157142Y-110992142D01*
X96585714Y-110992142D01*
X96871428Y-111135000D01*
X97014285Y-111420714D01*
X97014285Y-112992142D01*
X98442857Y-112992142D02*
X98442857Y-110992142D01*
X98442857Y-111277857D02*
X98585714Y-111135000D01*
X98871428Y-110992142D01*
X99300000Y-110992142D01*
X99585714Y-111135000D01*
X99728571Y-111420714D01*
X99728571Y-112992142D01*
X99728571Y-111420714D02*
X99871428Y-111135000D01*
X100157142Y-110992142D01*
X100585714Y-110992142D01*
X100871428Y-111135000D01*
X101014285Y-111420714D01*
X101014285Y-112992142D01*
X103585714Y-112849285D02*
X103300000Y-112992142D01*
X102728571Y-112992142D01*
X102442857Y-112849285D01*
X102300000Y-112563571D01*
X102300000Y-111420714D01*
X102442857Y-111135000D01*
X102728571Y-110992142D01*
X103300000Y-110992142D01*
X103585714Y-111135000D01*
X103728571Y-111420714D01*
X103728571Y-111706428D01*
X102300000Y-111992142D01*
X105442857Y-112992142D02*
X105157142Y-112849285D01*
X105014285Y-112563571D01*
X105014285Y-109992142D01*
X108871428Y-112992142D02*
X108871428Y-109992142D01*
X110014285Y-109992142D01*
X110300000Y-110135000D01*
X110442857Y-110277857D01*
X110585714Y-110563571D01*
X110585714Y-110992142D01*
X110442857Y-111277857D01*
X110300000Y-111420714D01*
X110014285Y-111563571D01*
X108871428Y-111563571D01*
X111871428Y-112992142D02*
X111871428Y-110992142D01*
X111871428Y-111563571D02*
X112014285Y-111277857D01*
X112157142Y-111135000D01*
X112442857Y-110992142D01*
X112728571Y-110992142D01*
X113728571Y-112992142D02*
X113728571Y-110992142D01*
X113728571Y-109992142D02*
X113585714Y-110135000D01*
X113728571Y-110277857D01*
X113871428Y-110135000D01*
X113728571Y-109992142D01*
X113728571Y-110277857D01*
X115014285Y-112849285D02*
X115300000Y-112992142D01*
X115871428Y-112992142D01*
X116157142Y-112849285D01*
X116300000Y-112563571D01*
X116300000Y-112420714D01*
X116157142Y-112135000D01*
X115871428Y-111992142D01*
X115442857Y-111992142D01*
X115157142Y-111849285D01*
X115014285Y-111563571D01*
X115014285Y-111420714D01*
X115157142Y-111135000D01*
X115442857Y-110992142D01*
X115871428Y-110992142D01*
X116157142Y-111135000D01*
X117585714Y-112992142D02*
X117585714Y-110992142D01*
X117585714Y-111277857D02*
X117728571Y-111135000D01*
X118014285Y-110992142D01*
X118442857Y-110992142D01*
X118728571Y-111135000D01*
X118871428Y-111420714D01*
X118871428Y-112992142D01*
X118871428Y-111420714D02*
X119014285Y-111135000D01*
X119300000Y-110992142D01*
X119728571Y-110992142D01*
X120014285Y-111135000D01*
X120157142Y-111420714D01*
X120157142Y-112992142D01*
X123871428Y-112992142D02*
X123871428Y-109992142D01*
X125014285Y-109992142D01*
X125300000Y-110135000D01*
X125442857Y-110277857D01*
X125585714Y-110563571D01*
X125585714Y-110992142D01*
X125442857Y-111277857D01*
X125300000Y-111420714D01*
X125014285Y-111563571D01*
X123871428Y-111563571D01*
X126871428Y-112992142D02*
X126871428Y-110992142D01*
X126871428Y-109992142D02*
X126728571Y-110135000D01*
X126871428Y-110277857D01*
X127014285Y-110135000D01*
X126871428Y-109992142D01*
X126871428Y-110277857D01*
X129585714Y-112849285D02*
X129300000Y-112992142D01*
X128728571Y-112992142D01*
X128442857Y-112849285D01*
X128300000Y-112706428D01*
X128157142Y-112420714D01*
X128157142Y-111563571D01*
X128300000Y-111277857D01*
X128442857Y-111135000D01*
X128728571Y-110992142D01*
X129300000Y-110992142D01*
X129585714Y-111135000D01*
X131300000Y-112992142D02*
X131014285Y-112849285D01*
X130871428Y-112706428D01*
X130728571Y-112420714D01*
X130728571Y-111563571D01*
X130871428Y-111277857D01*
X131014285Y-111135000D01*
X131300000Y-110992142D01*
X131728571Y-110992142D01*
X132014285Y-111135000D01*
X132157142Y-111277857D01*
X132300000Y-111563571D01*
X132300000Y-112420714D01*
X132157142Y-112706428D01*
X132014285Y-112849285D01*
X131728571Y-112992142D01*
X131300000Y-112992142D01*
X135442857Y-109992142D02*
X136442857Y-112992142D01*
X137442857Y-109992142D01*
X140014285Y-112992142D02*
X138300000Y-112992142D01*
X139157142Y-112992142D02*
X139157142Y-109992142D01*
X138871428Y-110420714D01*
X138585714Y-110706428D01*
X138300000Y-110849285D01*
D11*
%TO.C,U$15*%
X208642857Y-90744523D02*
X208642857Y-91772619D01*
X208703333Y-91893571D01*
X208763809Y-91954047D01*
X208884761Y-92014523D01*
X209126666Y-92014523D01*
X209247619Y-91954047D01*
X209308095Y-91893571D01*
X209368571Y-91772619D01*
X209368571Y-90744523D01*
X209912857Y-91954047D02*
X210094285Y-92014523D01*
X210396666Y-92014523D01*
X210517619Y-91954047D01*
X210578095Y-91893571D01*
X210638571Y-91772619D01*
X210638571Y-91651666D01*
X210578095Y-91530714D01*
X210517619Y-91470238D01*
X210396666Y-91409761D01*
X210154761Y-91349285D01*
X210033809Y-91288809D01*
X209973333Y-91228333D01*
X209912857Y-91107380D01*
X209912857Y-90986428D01*
X209973333Y-90865476D01*
X210033809Y-90805000D01*
X210154761Y-90744523D01*
X210457142Y-90744523D01*
X210638571Y-90805000D01*
X210275714Y-90563095D02*
X210275714Y-92195952D01*
X211848095Y-92014523D02*
X211122380Y-92014523D01*
X211485238Y-92014523D02*
X211485238Y-90744523D01*
X211364285Y-90925952D01*
X211243333Y-91046904D01*
X211122380Y-91107380D01*
X212997142Y-90744523D02*
X212392380Y-90744523D01*
X212331904Y-91349285D01*
X212392380Y-91288809D01*
X212513333Y-91228333D01*
X212815714Y-91228333D01*
X212936666Y-91288809D01*
X212997142Y-91349285D01*
X213057619Y-91470238D01*
X213057619Y-91772619D01*
X212997142Y-91893571D01*
X212936666Y-91954047D01*
X212815714Y-92014523D01*
X212513333Y-92014523D01*
X212392380Y-91954047D01*
X212331904Y-91893571D01*
%TO.C,U$13*%
X162922857Y-95824523D02*
X162922857Y-96852619D01*
X162983333Y-96973571D01*
X163043809Y-97034047D01*
X163164761Y-97094523D01*
X163406666Y-97094523D01*
X163527619Y-97034047D01*
X163588095Y-96973571D01*
X163648571Y-96852619D01*
X163648571Y-95824523D01*
X164192857Y-97034047D02*
X164374285Y-97094523D01*
X164676666Y-97094523D01*
X164797619Y-97034047D01*
X164858095Y-96973571D01*
X164918571Y-96852619D01*
X164918571Y-96731666D01*
X164858095Y-96610714D01*
X164797619Y-96550238D01*
X164676666Y-96489761D01*
X164434761Y-96429285D01*
X164313809Y-96368809D01*
X164253333Y-96308333D01*
X164192857Y-96187380D01*
X164192857Y-96066428D01*
X164253333Y-95945476D01*
X164313809Y-95885000D01*
X164434761Y-95824523D01*
X164737142Y-95824523D01*
X164918571Y-95885000D01*
X164555714Y-95643095D02*
X164555714Y-97275952D01*
X166128095Y-97094523D02*
X165402380Y-97094523D01*
X165765238Y-97094523D02*
X165765238Y-95824523D01*
X165644285Y-96005952D01*
X165523333Y-96126904D01*
X165402380Y-96187380D01*
X166551428Y-95824523D02*
X167337619Y-95824523D01*
X166914285Y-96308333D01*
X167095714Y-96308333D01*
X167216666Y-96368809D01*
X167277142Y-96429285D01*
X167337619Y-96550238D01*
X167337619Y-96852619D01*
X167277142Y-96973571D01*
X167216666Y-97034047D01*
X167095714Y-97094523D01*
X166732857Y-97094523D01*
X166611904Y-97034047D01*
X166551428Y-96973571D01*
%TO.C,R2*%
X129373333Y-57762380D02*
X129040000Y-57286190D01*
X128801904Y-57762380D02*
X128801904Y-56762380D01*
X129182857Y-56762380D01*
X129278095Y-56810000D01*
X129325714Y-56857619D01*
X129373333Y-56952857D01*
X129373333Y-57095714D01*
X129325714Y-57190952D01*
X129278095Y-57238571D01*
X129182857Y-57286190D01*
X128801904Y-57286190D01*
X129754285Y-56857619D02*
X129801904Y-56810000D01*
X129897142Y-56762380D01*
X130135238Y-56762380D01*
X130230476Y-56810000D01*
X130278095Y-56857619D01*
X130325714Y-56952857D01*
X130325714Y-57048095D01*
X130278095Y-57190952D01*
X129706666Y-57762380D01*
X130325714Y-57762380D01*
%TO.C,U$12*%
X231502857Y-70424523D02*
X231502857Y-71452619D01*
X231563333Y-71573571D01*
X231623809Y-71634047D01*
X231744761Y-71694523D01*
X231986666Y-71694523D01*
X232107619Y-71634047D01*
X232168095Y-71573571D01*
X232228571Y-71452619D01*
X232228571Y-70424523D01*
X232772857Y-71634047D02*
X232954285Y-71694523D01*
X233256666Y-71694523D01*
X233377619Y-71634047D01*
X233438095Y-71573571D01*
X233498571Y-71452619D01*
X233498571Y-71331666D01*
X233438095Y-71210714D01*
X233377619Y-71150238D01*
X233256666Y-71089761D01*
X233014761Y-71029285D01*
X232893809Y-70968809D01*
X232833333Y-70908333D01*
X232772857Y-70787380D01*
X232772857Y-70666428D01*
X232833333Y-70545476D01*
X232893809Y-70485000D01*
X233014761Y-70424523D01*
X233317142Y-70424523D01*
X233498571Y-70485000D01*
X233135714Y-70243095D02*
X233135714Y-71875952D01*
X234708095Y-71694523D02*
X233982380Y-71694523D01*
X234345238Y-71694523D02*
X234345238Y-70424523D01*
X234224285Y-70605952D01*
X234103333Y-70726904D01*
X233982380Y-70787380D01*
X235191904Y-70545476D02*
X235252380Y-70485000D01*
X235373333Y-70424523D01*
X235675714Y-70424523D01*
X235796666Y-70485000D01*
X235857142Y-70545476D01*
X235917619Y-70666428D01*
X235917619Y-70787380D01*
X235857142Y-70968809D01*
X235131428Y-71694523D01*
X235917619Y-71694523D01*
%TO.C,U$10*%
X185782857Y-67884523D02*
X185782857Y-68912619D01*
X185843333Y-69033571D01*
X185903809Y-69094047D01*
X186024761Y-69154523D01*
X186266666Y-69154523D01*
X186387619Y-69094047D01*
X186448095Y-69033571D01*
X186508571Y-68912619D01*
X186508571Y-67884523D01*
X187052857Y-69094047D02*
X187234285Y-69154523D01*
X187536666Y-69154523D01*
X187657619Y-69094047D01*
X187718095Y-69033571D01*
X187778571Y-68912619D01*
X187778571Y-68791666D01*
X187718095Y-68670714D01*
X187657619Y-68610238D01*
X187536666Y-68549761D01*
X187294761Y-68489285D01*
X187173809Y-68428809D01*
X187113333Y-68368333D01*
X187052857Y-68247380D01*
X187052857Y-68126428D01*
X187113333Y-68005476D01*
X187173809Y-67945000D01*
X187294761Y-67884523D01*
X187597142Y-67884523D01*
X187778571Y-67945000D01*
X187415714Y-67703095D02*
X187415714Y-69335952D01*
X188988095Y-69154523D02*
X188262380Y-69154523D01*
X188625238Y-69154523D02*
X188625238Y-67884523D01*
X188504285Y-68065952D01*
X188383333Y-68186904D01*
X188262380Y-68247380D01*
X189774285Y-67884523D02*
X189895238Y-67884523D01*
X190016190Y-67945000D01*
X190076666Y-68005476D01*
X190137142Y-68126428D01*
X190197619Y-68368333D01*
X190197619Y-68670714D01*
X190137142Y-68912619D01*
X190076666Y-69033571D01*
X190016190Y-69094047D01*
X189895238Y-69154523D01*
X189774285Y-69154523D01*
X189653333Y-69094047D01*
X189592857Y-69033571D01*
X189532380Y-68912619D01*
X189471904Y-68670714D01*
X189471904Y-68368333D01*
X189532380Y-68126428D01*
X189592857Y-68005476D01*
X189653333Y-67945000D01*
X189774285Y-67884523D01*
%TO.C,REF\u002A\u002A*%
X85026666Y-121112380D02*
X84693333Y-120636190D01*
X84455238Y-121112380D02*
X84455238Y-120112380D01*
X84836190Y-120112380D01*
X84931428Y-120160000D01*
X84979047Y-120207619D01*
X85026666Y-120302857D01*
X85026666Y-120445714D01*
X84979047Y-120540952D01*
X84931428Y-120588571D01*
X84836190Y-120636190D01*
X84455238Y-120636190D01*
X85455238Y-120588571D02*
X85788571Y-120588571D01*
X85931428Y-121112380D02*
X85455238Y-121112380D01*
X85455238Y-120112380D01*
X85931428Y-120112380D01*
X86693333Y-120588571D02*
X86360000Y-120588571D01*
X86360000Y-121112380D02*
X86360000Y-120112380D01*
X86836190Y-120112380D01*
X87360000Y-120112380D02*
X87360000Y-120350476D01*
X87121904Y-120255238D02*
X87360000Y-120350476D01*
X87598095Y-120255238D01*
X87217142Y-120540952D02*
X87360000Y-120350476D01*
X87502857Y-120540952D01*
X88121904Y-120112380D02*
X88121904Y-120350476D01*
X87883809Y-120255238D02*
X88121904Y-120350476D01*
X88360000Y-120255238D01*
X87979047Y-120540952D02*
X88121904Y-120350476D01*
X88264761Y-120540952D01*
X245046666Y-44912380D02*
X244713333Y-44436190D01*
X244475238Y-44912380D02*
X244475238Y-43912380D01*
X244856190Y-43912380D01*
X244951428Y-43960000D01*
X244999047Y-44007619D01*
X245046666Y-44102857D01*
X245046666Y-44245714D01*
X244999047Y-44340952D01*
X244951428Y-44388571D01*
X244856190Y-44436190D01*
X244475238Y-44436190D01*
X245475238Y-44388571D02*
X245808571Y-44388571D01*
X245951428Y-44912380D02*
X245475238Y-44912380D01*
X245475238Y-43912380D01*
X245951428Y-43912380D01*
X246713333Y-44388571D02*
X246380000Y-44388571D01*
X246380000Y-44912380D02*
X246380000Y-43912380D01*
X246856190Y-43912380D01*
X247380000Y-43912380D02*
X247380000Y-44150476D01*
X247141904Y-44055238D02*
X247380000Y-44150476D01*
X247618095Y-44055238D01*
X247237142Y-44340952D02*
X247380000Y-44150476D01*
X247522857Y-44340952D01*
X248141904Y-43912380D02*
X248141904Y-44150476D01*
X247903809Y-44055238D02*
X248141904Y-44150476D01*
X248380000Y-44055238D01*
X247999047Y-44340952D02*
X248141904Y-44150476D01*
X248284761Y-44340952D01*
%TO.C,J5*%
X151976666Y-34864523D02*
X151976666Y-35771666D01*
X151916190Y-35953095D01*
X151795238Y-36074047D01*
X151613809Y-36134523D01*
X151492857Y-36134523D01*
X153186190Y-34864523D02*
X152581428Y-34864523D01*
X152520952Y-35469285D01*
X152581428Y-35408809D01*
X152702380Y-35348333D01*
X153004761Y-35348333D01*
X153125714Y-35408809D01*
X153186190Y-35469285D01*
X153246666Y-35590238D01*
X153246666Y-35892619D01*
X153186190Y-36013571D01*
X153125714Y-36074047D01*
X153004761Y-36134523D01*
X152702380Y-36134523D01*
X152581428Y-36074047D01*
X152520952Y-36013571D01*
%TO.C,R3*%
X130643333Y-48542380D02*
X130310000Y-48066190D01*
X130071904Y-48542380D02*
X130071904Y-47542380D01*
X130452857Y-47542380D01*
X130548095Y-47590000D01*
X130595714Y-47637619D01*
X130643333Y-47732857D01*
X130643333Y-47875714D01*
X130595714Y-47970952D01*
X130548095Y-48018571D01*
X130452857Y-48066190D01*
X130071904Y-48066190D01*
X130976666Y-47542380D02*
X131595714Y-47542380D01*
X131262380Y-47923333D01*
X131405238Y-47923333D01*
X131500476Y-47970952D01*
X131548095Y-48018571D01*
X131595714Y-48113809D01*
X131595714Y-48351904D01*
X131548095Y-48447142D01*
X131500476Y-48494761D01*
X131405238Y-48542380D01*
X131119523Y-48542380D01*
X131024285Y-48494761D01*
X130976666Y-48447142D01*
%TO.C,REF\u002A\u002A*%
X90106666Y-57612380D02*
X89773333Y-57136190D01*
X89535238Y-57612380D02*
X89535238Y-56612380D01*
X89916190Y-56612380D01*
X90011428Y-56660000D01*
X90059047Y-56707619D01*
X90106666Y-56802857D01*
X90106666Y-56945714D01*
X90059047Y-57040952D01*
X90011428Y-57088571D01*
X89916190Y-57136190D01*
X89535238Y-57136190D01*
X90535238Y-57088571D02*
X90868571Y-57088571D01*
X91011428Y-57612380D02*
X90535238Y-57612380D01*
X90535238Y-56612380D01*
X91011428Y-56612380D01*
X91773333Y-57088571D02*
X91440000Y-57088571D01*
X91440000Y-57612380D02*
X91440000Y-56612380D01*
X91916190Y-56612380D01*
X92440000Y-56612380D02*
X92440000Y-56850476D01*
X92201904Y-56755238D02*
X92440000Y-56850476D01*
X92678095Y-56755238D01*
X92297142Y-57040952D02*
X92440000Y-56850476D01*
X92582857Y-57040952D01*
X93201904Y-56612380D02*
X93201904Y-56850476D01*
X92963809Y-56755238D02*
X93201904Y-56850476D01*
X93440000Y-56755238D01*
X93059047Y-57040952D02*
X93201904Y-56850476D01*
X93344761Y-57040952D01*
%TO.C,U$16*%
X231502857Y-93284523D02*
X231502857Y-94312619D01*
X231563333Y-94433571D01*
X231623809Y-94494047D01*
X231744761Y-94554523D01*
X231986666Y-94554523D01*
X232107619Y-94494047D01*
X232168095Y-94433571D01*
X232228571Y-94312619D01*
X232228571Y-93284523D01*
X232772857Y-94494047D02*
X232954285Y-94554523D01*
X233256666Y-94554523D01*
X233377619Y-94494047D01*
X233438095Y-94433571D01*
X233498571Y-94312619D01*
X233498571Y-94191666D01*
X233438095Y-94070714D01*
X233377619Y-94010238D01*
X233256666Y-93949761D01*
X233014761Y-93889285D01*
X232893809Y-93828809D01*
X232833333Y-93768333D01*
X232772857Y-93647380D01*
X232772857Y-93526428D01*
X232833333Y-93405476D01*
X232893809Y-93345000D01*
X233014761Y-93284523D01*
X233317142Y-93284523D01*
X233498571Y-93345000D01*
X233135714Y-93103095D02*
X233135714Y-94735952D01*
X234708095Y-94554523D02*
X233982380Y-94554523D01*
X234345238Y-94554523D02*
X234345238Y-93284523D01*
X234224285Y-93465952D01*
X234103333Y-93586904D01*
X233982380Y-93647380D01*
X235796666Y-93284523D02*
X235554761Y-93284523D01*
X235433809Y-93345000D01*
X235373333Y-93405476D01*
X235252380Y-93586904D01*
X235191904Y-93828809D01*
X235191904Y-94312619D01*
X235252380Y-94433571D01*
X235312857Y-94494047D01*
X235433809Y-94554523D01*
X235675714Y-94554523D01*
X235796666Y-94494047D01*
X235857142Y-94433571D01*
X235917619Y-94312619D01*
X235917619Y-94010238D01*
X235857142Y-93889285D01*
X235796666Y-93828809D01*
X235675714Y-93768333D01*
X235433809Y-93768333D01*
X235312857Y-93828809D01*
X235252380Y-93889285D01*
X235191904Y-94010238D01*
%TO.C,R1*%
X130643333Y-63952380D02*
X130310000Y-63476190D01*
X130071904Y-63952380D02*
X130071904Y-62952380D01*
X130452857Y-62952380D01*
X130548095Y-63000000D01*
X130595714Y-63047619D01*
X130643333Y-63142857D01*
X130643333Y-63285714D01*
X130595714Y-63380952D01*
X130548095Y-63428571D01*
X130452857Y-63476190D01*
X130071904Y-63476190D01*
X131595714Y-63952380D02*
X131024285Y-63952380D01*
X131310000Y-63952380D02*
X131310000Y-62952380D01*
X131214761Y-63095238D01*
X131119523Y-63190476D01*
X131024285Y-63238095D01*
D12*
%TO.C,G\u002A\u002A\u002A*%
X168837428Y-80518000D02*
X168692285Y-80445428D01*
X168474571Y-80445428D01*
X168256857Y-80518000D01*
X168111714Y-80663142D01*
X168039142Y-80808285D01*
X167966571Y-81098571D01*
X167966571Y-81316285D01*
X168039142Y-81606571D01*
X168111714Y-81751714D01*
X168256857Y-81896857D01*
X168474571Y-81969428D01*
X168619714Y-81969428D01*
X168837428Y-81896857D01*
X168910000Y-81824285D01*
X168910000Y-81316285D01*
X168619714Y-81316285D01*
X169780857Y-80445428D02*
X169780857Y-80808285D01*
X169418000Y-80663142D02*
X169780857Y-80808285D01*
X170143714Y-80663142D01*
X169563142Y-81098571D02*
X169780857Y-80808285D01*
X169998571Y-81098571D01*
X170942000Y-80445428D02*
X170942000Y-80808285D01*
X170579142Y-80663142D02*
X170942000Y-80808285D01*
X171304857Y-80663142D01*
X170724285Y-81098571D02*
X170942000Y-80808285D01*
X171159714Y-81098571D01*
X172103142Y-80445428D02*
X172103142Y-80808285D01*
X171740285Y-80663142D02*
X172103142Y-80808285D01*
X172466000Y-80663142D01*
X171885428Y-81098571D02*
X172103142Y-80808285D01*
X172320857Y-81098571D01*
D11*
%TO.C,U$11*%
X208642857Y-67884523D02*
X208642857Y-68912619D01*
X208703333Y-69033571D01*
X208763809Y-69094047D01*
X208884761Y-69154523D01*
X209126666Y-69154523D01*
X209247619Y-69094047D01*
X209308095Y-69033571D01*
X209368571Y-68912619D01*
X209368571Y-67884523D01*
X209912857Y-69094047D02*
X210094285Y-69154523D01*
X210396666Y-69154523D01*
X210517619Y-69094047D01*
X210578095Y-69033571D01*
X210638571Y-68912619D01*
X210638571Y-68791666D01*
X210578095Y-68670714D01*
X210517619Y-68610238D01*
X210396666Y-68549761D01*
X210154761Y-68489285D01*
X210033809Y-68428809D01*
X209973333Y-68368333D01*
X209912857Y-68247380D01*
X209912857Y-68126428D01*
X209973333Y-68005476D01*
X210033809Y-67945000D01*
X210154761Y-67884523D01*
X210457142Y-67884523D01*
X210638571Y-67945000D01*
X210275714Y-67703095D02*
X210275714Y-69335952D01*
X211848095Y-69154523D02*
X211122380Y-69154523D01*
X211485238Y-69154523D02*
X211485238Y-67884523D01*
X211364285Y-68065952D01*
X211243333Y-68186904D01*
X211122380Y-68247380D01*
X213057619Y-69154523D02*
X212331904Y-69154523D01*
X212694761Y-69154523D02*
X212694761Y-67884523D01*
X212573809Y-68065952D01*
X212452857Y-68186904D01*
X212331904Y-68247380D01*
%TO.C,REF\u002A\u002A*%
X242506666Y-116032380D02*
X242173333Y-115556190D01*
X241935238Y-116032380D02*
X241935238Y-115032380D01*
X242316190Y-115032380D01*
X242411428Y-115080000D01*
X242459047Y-115127619D01*
X242506666Y-115222857D01*
X242506666Y-115365714D01*
X242459047Y-115460952D01*
X242411428Y-115508571D01*
X242316190Y-115556190D01*
X241935238Y-115556190D01*
X242935238Y-115508571D02*
X243268571Y-115508571D01*
X243411428Y-116032380D02*
X242935238Y-116032380D01*
X242935238Y-115032380D01*
X243411428Y-115032380D01*
X244173333Y-115508571D02*
X243840000Y-115508571D01*
X243840000Y-116032380D02*
X243840000Y-115032380D01*
X244316190Y-115032380D01*
X244840000Y-115032380D02*
X244840000Y-115270476D01*
X244601904Y-115175238D02*
X244840000Y-115270476D01*
X245078095Y-115175238D01*
X244697142Y-115460952D02*
X244840000Y-115270476D01*
X244982857Y-115460952D01*
X245601904Y-115032380D02*
X245601904Y-115270476D01*
X245363809Y-115175238D02*
X245601904Y-115270476D01*
X245840000Y-115175238D01*
X245459047Y-115460952D02*
X245601904Y-115270476D01*
X245744761Y-115460952D01*
%TO.C,U$18*%
X94342857Y-45024523D02*
X94342857Y-46052619D01*
X94403333Y-46173571D01*
X94463809Y-46234047D01*
X94584761Y-46294523D01*
X94826666Y-46294523D01*
X94947619Y-46234047D01*
X95008095Y-46173571D01*
X95068571Y-46052619D01*
X95068571Y-45024523D01*
X95612857Y-46234047D02*
X95794285Y-46294523D01*
X96096666Y-46294523D01*
X96217619Y-46234047D01*
X96278095Y-46173571D01*
X96338571Y-46052619D01*
X96338571Y-45931666D01*
X96278095Y-45810714D01*
X96217619Y-45750238D01*
X96096666Y-45689761D01*
X95854761Y-45629285D01*
X95733809Y-45568809D01*
X95673333Y-45508333D01*
X95612857Y-45387380D01*
X95612857Y-45266428D01*
X95673333Y-45145476D01*
X95733809Y-45085000D01*
X95854761Y-45024523D01*
X96157142Y-45024523D01*
X96338571Y-45085000D01*
X95975714Y-44843095D02*
X95975714Y-46475952D01*
X97548095Y-46294523D02*
X96822380Y-46294523D01*
X97185238Y-46294523D02*
X97185238Y-45024523D01*
X97064285Y-45205952D01*
X96943333Y-45326904D01*
X96822380Y-45387380D01*
X98273809Y-45568809D02*
X98152857Y-45508333D01*
X98092380Y-45447857D01*
X98031904Y-45326904D01*
X98031904Y-45266428D01*
X98092380Y-45145476D01*
X98152857Y-45085000D01*
X98273809Y-45024523D01*
X98515714Y-45024523D01*
X98636666Y-45085000D01*
X98697142Y-45145476D01*
X98757619Y-45266428D01*
X98757619Y-45326904D01*
X98697142Y-45447857D01*
X98636666Y-45508333D01*
X98515714Y-45568809D01*
X98273809Y-45568809D01*
X98152857Y-45629285D01*
X98092380Y-45689761D01*
X98031904Y-45810714D01*
X98031904Y-46052619D01*
X98092380Y-46173571D01*
X98152857Y-46234047D01*
X98273809Y-46294523D01*
X98515714Y-46294523D01*
X98636666Y-46234047D01*
X98697142Y-46173571D01*
X98757619Y-46052619D01*
X98757619Y-45810714D01*
X98697142Y-45689761D01*
X98636666Y-45629285D01*
X98515714Y-45568809D01*
%TO.C,U$6*%
X150827619Y-126304523D02*
X150827619Y-127332619D01*
X150888095Y-127453571D01*
X150948571Y-127514047D01*
X151069523Y-127574523D01*
X151311428Y-127574523D01*
X151432380Y-127514047D01*
X151492857Y-127453571D01*
X151553333Y-127332619D01*
X151553333Y-126304523D01*
X152097619Y-127514047D02*
X152279047Y-127574523D01*
X152581428Y-127574523D01*
X152702380Y-127514047D01*
X152762857Y-127453571D01*
X152823333Y-127332619D01*
X152823333Y-127211666D01*
X152762857Y-127090714D01*
X152702380Y-127030238D01*
X152581428Y-126969761D01*
X152339523Y-126909285D01*
X152218571Y-126848809D01*
X152158095Y-126788333D01*
X152097619Y-126667380D01*
X152097619Y-126546428D01*
X152158095Y-126425476D01*
X152218571Y-126365000D01*
X152339523Y-126304523D01*
X152641904Y-126304523D01*
X152823333Y-126365000D01*
X152460476Y-126123095D02*
X152460476Y-127755952D01*
X153911904Y-126304523D02*
X153670000Y-126304523D01*
X153549047Y-126365000D01*
X153488571Y-126425476D01*
X153367619Y-126606904D01*
X153307142Y-126848809D01*
X153307142Y-127332619D01*
X153367619Y-127453571D01*
X153428095Y-127514047D01*
X153549047Y-127574523D01*
X153790952Y-127574523D01*
X153911904Y-127514047D01*
X153972380Y-127453571D01*
X154032857Y-127332619D01*
X154032857Y-127030238D01*
X153972380Y-126909285D01*
X153911904Y-126848809D01*
X153790952Y-126788333D01*
X153549047Y-126788333D01*
X153428095Y-126848809D01*
X153367619Y-126909285D01*
X153307142Y-127030238D01*
%TO.C,U$14*%
X185782857Y-90744523D02*
X185782857Y-91772619D01*
X185843333Y-91893571D01*
X185903809Y-91954047D01*
X186024761Y-92014523D01*
X186266666Y-92014523D01*
X186387619Y-91954047D01*
X186448095Y-91893571D01*
X186508571Y-91772619D01*
X186508571Y-90744523D01*
X187052857Y-91954047D02*
X187234285Y-92014523D01*
X187536666Y-92014523D01*
X187657619Y-91954047D01*
X187718095Y-91893571D01*
X187778571Y-91772619D01*
X187778571Y-91651666D01*
X187718095Y-91530714D01*
X187657619Y-91470238D01*
X187536666Y-91409761D01*
X187294761Y-91349285D01*
X187173809Y-91288809D01*
X187113333Y-91228333D01*
X187052857Y-91107380D01*
X187052857Y-90986428D01*
X187113333Y-90865476D01*
X187173809Y-90805000D01*
X187294761Y-90744523D01*
X187597142Y-90744523D01*
X187778571Y-90805000D01*
X187415714Y-90563095D02*
X187415714Y-92195952D01*
X188988095Y-92014523D02*
X188262380Y-92014523D01*
X188625238Y-92014523D02*
X188625238Y-90744523D01*
X188504285Y-90925952D01*
X188383333Y-91046904D01*
X188262380Y-91107380D01*
X190076666Y-91167857D02*
X190076666Y-92014523D01*
X189774285Y-90684047D02*
X189471904Y-91591190D01*
X190258095Y-91591190D01*
%TO.C,U$2*%
X97487619Y-80584523D02*
X97487619Y-81612619D01*
X97548095Y-81733571D01*
X97608571Y-81794047D01*
X97729523Y-81854523D01*
X97971428Y-81854523D01*
X98092380Y-81794047D01*
X98152857Y-81733571D01*
X98213333Y-81612619D01*
X98213333Y-80584523D01*
X98757619Y-81794047D02*
X98939047Y-81854523D01*
X99241428Y-81854523D01*
X99362380Y-81794047D01*
X99422857Y-81733571D01*
X99483333Y-81612619D01*
X99483333Y-81491666D01*
X99422857Y-81370714D01*
X99362380Y-81310238D01*
X99241428Y-81249761D01*
X98999523Y-81189285D01*
X98878571Y-81128809D01*
X98818095Y-81068333D01*
X98757619Y-80947380D01*
X98757619Y-80826428D01*
X98818095Y-80705476D01*
X98878571Y-80645000D01*
X98999523Y-80584523D01*
X99301904Y-80584523D01*
X99483333Y-80645000D01*
X99120476Y-80403095D02*
X99120476Y-82035952D01*
X99967142Y-80705476D02*
X100027619Y-80645000D01*
X100148571Y-80584523D01*
X100450952Y-80584523D01*
X100571904Y-80645000D01*
X100632380Y-80705476D01*
X100692857Y-80826428D01*
X100692857Y-80947380D01*
X100632380Y-81128809D01*
X99906666Y-81854523D01*
X100692857Y-81854523D01*
%TO.C,U$8*%
X117807619Y-45024523D02*
X117807619Y-46052619D01*
X117868095Y-46173571D01*
X117928571Y-46234047D01*
X118049523Y-46294523D01*
X118291428Y-46294523D01*
X118412380Y-46234047D01*
X118472857Y-46173571D01*
X118533333Y-46052619D01*
X118533333Y-45024523D01*
X119077619Y-46234047D02*
X119259047Y-46294523D01*
X119561428Y-46294523D01*
X119682380Y-46234047D01*
X119742857Y-46173571D01*
X119803333Y-46052619D01*
X119803333Y-45931666D01*
X119742857Y-45810714D01*
X119682380Y-45750238D01*
X119561428Y-45689761D01*
X119319523Y-45629285D01*
X119198571Y-45568809D01*
X119138095Y-45508333D01*
X119077619Y-45387380D01*
X119077619Y-45266428D01*
X119138095Y-45145476D01*
X119198571Y-45085000D01*
X119319523Y-45024523D01*
X119621904Y-45024523D01*
X119803333Y-45085000D01*
X119440476Y-44843095D02*
X119440476Y-46475952D01*
X120529047Y-45568809D02*
X120408095Y-45508333D01*
X120347619Y-45447857D01*
X120287142Y-45326904D01*
X120287142Y-45266428D01*
X120347619Y-45145476D01*
X120408095Y-45085000D01*
X120529047Y-45024523D01*
X120770952Y-45024523D01*
X120891904Y-45085000D01*
X120952380Y-45145476D01*
X121012857Y-45266428D01*
X121012857Y-45326904D01*
X120952380Y-45447857D01*
X120891904Y-45508333D01*
X120770952Y-45568809D01*
X120529047Y-45568809D01*
X120408095Y-45629285D01*
X120347619Y-45689761D01*
X120287142Y-45810714D01*
X120287142Y-46052619D01*
X120347619Y-46173571D01*
X120408095Y-46234047D01*
X120529047Y-46294523D01*
X120770952Y-46294523D01*
X120891904Y-46234047D01*
X120952380Y-46173571D01*
X121012857Y-46052619D01*
X121012857Y-45810714D01*
X120952380Y-45689761D01*
X120891904Y-45629285D01*
X120770952Y-45568809D01*
%TO.C,REF\u002A\u002A*%
X166306666Y-42372380D02*
X165973333Y-41896190D01*
X165735238Y-42372380D02*
X165735238Y-41372380D01*
X166116190Y-41372380D01*
X166211428Y-41420000D01*
X166259047Y-41467619D01*
X166306666Y-41562857D01*
X166306666Y-41705714D01*
X166259047Y-41800952D01*
X166211428Y-41848571D01*
X166116190Y-41896190D01*
X165735238Y-41896190D01*
X166735238Y-41848571D02*
X167068571Y-41848571D01*
X167211428Y-42372380D02*
X166735238Y-42372380D01*
X166735238Y-41372380D01*
X167211428Y-41372380D01*
X167973333Y-41848571D02*
X167640000Y-41848571D01*
X167640000Y-42372380D02*
X167640000Y-41372380D01*
X168116190Y-41372380D01*
X168640000Y-41372380D02*
X168640000Y-41610476D01*
X168401904Y-41515238D02*
X168640000Y-41610476D01*
X168878095Y-41515238D01*
X168497142Y-41800952D02*
X168640000Y-41610476D01*
X168782857Y-41800952D01*
X169401904Y-41372380D02*
X169401904Y-41610476D01*
X169163809Y-41515238D02*
X169401904Y-41610476D01*
X169640000Y-41515238D01*
X169259047Y-41800952D02*
X169401904Y-41610476D01*
X169544761Y-41800952D01*
%TO.C,U$4*%
X120347619Y-80584523D02*
X120347619Y-81612619D01*
X120408095Y-81733571D01*
X120468571Y-81794047D01*
X120589523Y-81854523D01*
X120831428Y-81854523D01*
X120952380Y-81794047D01*
X121012857Y-81733571D01*
X121073333Y-81612619D01*
X121073333Y-80584523D01*
X121617619Y-81794047D02*
X121799047Y-81854523D01*
X122101428Y-81854523D01*
X122222380Y-81794047D01*
X122282857Y-81733571D01*
X122343333Y-81612619D01*
X122343333Y-81491666D01*
X122282857Y-81370714D01*
X122222380Y-81310238D01*
X122101428Y-81249761D01*
X121859523Y-81189285D01*
X121738571Y-81128809D01*
X121678095Y-81068333D01*
X121617619Y-80947380D01*
X121617619Y-80826428D01*
X121678095Y-80705476D01*
X121738571Y-80645000D01*
X121859523Y-80584523D01*
X122161904Y-80584523D01*
X122343333Y-80645000D01*
X121980476Y-80403095D02*
X121980476Y-82035952D01*
X123431904Y-81007857D02*
X123431904Y-81854523D01*
X123129523Y-80524047D02*
X122827142Y-81431190D01*
X123613333Y-81431190D01*
%TO.C,U$9*%
X163527619Y-72964523D02*
X163527619Y-73992619D01*
X163588095Y-74113571D01*
X163648571Y-74174047D01*
X163769523Y-74234523D01*
X164011428Y-74234523D01*
X164132380Y-74174047D01*
X164192857Y-74113571D01*
X164253333Y-73992619D01*
X164253333Y-72964523D01*
X164797619Y-74174047D02*
X164979047Y-74234523D01*
X165281428Y-74234523D01*
X165402380Y-74174047D01*
X165462857Y-74113571D01*
X165523333Y-73992619D01*
X165523333Y-73871666D01*
X165462857Y-73750714D01*
X165402380Y-73690238D01*
X165281428Y-73629761D01*
X165039523Y-73569285D01*
X164918571Y-73508809D01*
X164858095Y-73448333D01*
X164797619Y-73327380D01*
X164797619Y-73206428D01*
X164858095Y-73085476D01*
X164918571Y-73025000D01*
X165039523Y-72964523D01*
X165341904Y-72964523D01*
X165523333Y-73025000D01*
X165160476Y-72783095D02*
X165160476Y-74415952D01*
X166128095Y-74234523D02*
X166370000Y-74234523D01*
X166490952Y-74174047D01*
X166551428Y-74113571D01*
X166672380Y-73932142D01*
X166732857Y-73690238D01*
X166732857Y-73206428D01*
X166672380Y-73085476D01*
X166611904Y-73025000D01*
X166490952Y-72964523D01*
X166249047Y-72964523D01*
X166128095Y-73025000D01*
X166067619Y-73085476D01*
X166007142Y-73206428D01*
X166007142Y-73508809D01*
X166067619Y-73629761D01*
X166128095Y-73690238D01*
X166249047Y-73750714D01*
X166490952Y-73750714D01*
X166611904Y-73690238D01*
X166672380Y-73629761D01*
X166732857Y-73508809D01*
%TO.C,U$5*%
X140667619Y-88204523D02*
X140667619Y-89232619D01*
X140728095Y-89353571D01*
X140788571Y-89414047D01*
X140909523Y-89474523D01*
X141151428Y-89474523D01*
X141272380Y-89414047D01*
X141332857Y-89353571D01*
X141393333Y-89232619D01*
X141393333Y-88204523D01*
X141937619Y-89414047D02*
X142119047Y-89474523D01*
X142421428Y-89474523D01*
X142542380Y-89414047D01*
X142602857Y-89353571D01*
X142663333Y-89232619D01*
X142663333Y-89111666D01*
X142602857Y-88990714D01*
X142542380Y-88930238D01*
X142421428Y-88869761D01*
X142179523Y-88809285D01*
X142058571Y-88748809D01*
X141998095Y-88688333D01*
X141937619Y-88567380D01*
X141937619Y-88446428D01*
X141998095Y-88325476D01*
X142058571Y-88265000D01*
X142179523Y-88204523D01*
X142481904Y-88204523D01*
X142663333Y-88265000D01*
X142300476Y-88023095D02*
X142300476Y-89655952D01*
X143812380Y-88204523D02*
X143207619Y-88204523D01*
X143147142Y-88809285D01*
X143207619Y-88748809D01*
X143328571Y-88688333D01*
X143630952Y-88688333D01*
X143751904Y-88748809D01*
X143812380Y-88809285D01*
X143872857Y-88930238D01*
X143872857Y-89232619D01*
X143812380Y-89353571D01*
X143751904Y-89414047D01*
X143630952Y-89474523D01*
X143328571Y-89474523D01*
X143207619Y-89414047D01*
X143147142Y-89353571D01*
%TO.C,R4*%
X129373333Y-52682380D02*
X129040000Y-52206190D01*
X128801904Y-52682380D02*
X128801904Y-51682380D01*
X129182857Y-51682380D01*
X129278095Y-51730000D01*
X129325714Y-51777619D01*
X129373333Y-51872857D01*
X129373333Y-52015714D01*
X129325714Y-52110952D01*
X129278095Y-52158571D01*
X129182857Y-52206190D01*
X128801904Y-52206190D01*
X130230476Y-52015714D02*
X130230476Y-52682380D01*
X129992380Y-51634761D02*
X129754285Y-52349047D01*
X130373333Y-52349047D01*
D13*
%TO.C,U$15*%
X208661000Y-90424000D02*
X208661000Y-90043000D01*
%TO.C,U$13*%
X162941000Y-95504000D02*
X162941000Y-95123000D01*
D14*
%TO.C,R2*%
X129777258Y-55357500D02*
X129302742Y-55357500D01*
X129777258Y-56402500D02*
X129302742Y-56402500D01*
D13*
%TO.C,U$12*%
X231521000Y-70104000D02*
X231521000Y-69723000D01*
%TO.C,U$10*%
X185801000Y-67564000D02*
X185801000Y-67183000D01*
D15*
%TO.C,J5*%
X156400000Y-32960000D02*
X148400000Y-32960000D01*
D14*
%TO.C,R3*%
X134080000Y-47090000D02*
X127540000Y-47090000D01*
X134080000Y-46760000D02*
X134080000Y-47090000D01*
X134080000Y-44350000D02*
X127540000Y-44350000D01*
X127540000Y-44350000D02*
X127540000Y-44680000D01*
X127540000Y-47090000D02*
X127540000Y-46760000D01*
X134080000Y-44680000D02*
X134080000Y-44350000D01*
D13*
%TO.C,U$16*%
X231521000Y-92964000D02*
X231521000Y-92583000D01*
D14*
%TO.C,R1*%
X134080000Y-59920000D02*
X134080000Y-59590000D01*
X134080000Y-59590000D02*
X127540000Y-59590000D01*
X134080000Y-62000000D02*
X134080000Y-62330000D01*
X127540000Y-59590000D02*
X127540000Y-59920000D01*
X134080000Y-62330000D02*
X127540000Y-62330000D01*
X127540000Y-62330000D02*
X127540000Y-62000000D01*
%TO.C,G\u002A\u002A\u002A*%
G36*
X143226553Y-67621693D02*
G01*
X143228165Y-67838578D01*
X143229834Y-68213318D01*
X143231552Y-68748899D01*
X143233314Y-69448308D01*
X143234830Y-70167500D01*
X143237633Y-71809248D01*
X143239913Y-73591480D01*
X143241672Y-75485347D01*
X143242909Y-77462001D01*
X143243624Y-79492593D01*
X143243817Y-81548274D01*
X143243488Y-83600196D01*
X143242637Y-85619510D01*
X143241264Y-87577368D01*
X143239369Y-89444921D01*
X143236953Y-91193320D01*
X143234830Y-92392500D01*
X143233035Y-93232360D01*
X143231280Y-93905873D01*
X143229569Y-94416027D01*
X143227909Y-94765807D01*
X143226305Y-94958201D01*
X143224764Y-94996195D01*
X143223292Y-94882777D01*
X143221894Y-94620933D01*
X143220575Y-94213649D01*
X143219343Y-93663913D01*
X143218203Y-92974711D01*
X143217160Y-92149031D01*
X143216220Y-91189858D01*
X143215390Y-90100179D01*
X143214676Y-88882982D01*
X143214082Y-87541253D01*
X143213615Y-86077979D01*
X143213281Y-84496146D01*
X143213086Y-82798742D01*
X143213034Y-81280000D01*
X143213107Y-79487474D01*
X143213325Y-77808001D01*
X143213680Y-76244569D01*
X143214167Y-74800163D01*
X143214780Y-73477771D01*
X143215513Y-72280380D01*
X143216361Y-71210976D01*
X143217317Y-70272545D01*
X143218375Y-69468076D01*
X143219530Y-68800554D01*
X143220777Y-68272966D01*
X143222108Y-67888299D01*
X143223518Y-67649540D01*
X143225002Y-67559676D01*
X143226553Y-67621693D01*
G37*
G36*
X192333219Y-67621693D02*
G01*
X192334832Y-67838578D01*
X192336501Y-68213318D01*
X192338219Y-68748899D01*
X192339981Y-69448308D01*
X192341497Y-70167500D01*
X192344299Y-71809248D01*
X192346580Y-73591480D01*
X192348339Y-75485347D01*
X192349576Y-77462001D01*
X192350290Y-79492593D01*
X192350483Y-81548274D01*
X192350154Y-83600196D01*
X192349304Y-85619510D01*
X192347931Y-87577368D01*
X192346036Y-89444921D01*
X192343619Y-91193320D01*
X192341497Y-92392500D01*
X192339702Y-93232360D01*
X192337946Y-93905873D01*
X192336235Y-94416027D01*
X192334575Y-94765807D01*
X192332972Y-94958201D01*
X192331431Y-94996195D01*
X192329958Y-94882777D01*
X192328560Y-94620933D01*
X192327242Y-94213649D01*
X192326010Y-93663913D01*
X192324869Y-92974711D01*
X192323826Y-92149031D01*
X192322887Y-91189858D01*
X192322057Y-90100179D01*
X192321342Y-88882982D01*
X192320749Y-87541253D01*
X192320282Y-86077979D01*
X192319948Y-84496146D01*
X192319753Y-82798742D01*
X192319700Y-81280000D01*
X192319774Y-79487474D01*
X192319991Y-77808001D01*
X192320347Y-76244569D01*
X192320834Y-74800163D01*
X192321447Y-73477771D01*
X192322180Y-72280380D01*
X192323027Y-71210976D01*
X192323983Y-70272545D01*
X192325042Y-69468076D01*
X192326197Y-68800554D01*
X192327443Y-68272966D01*
X192328774Y-67888299D01*
X192330185Y-67649540D01*
X192331668Y-67559676D01*
X192333219Y-67621693D01*
G37*
G36*
X147433918Y-101040141D02*
G01*
X147123526Y-100442082D01*
X146745214Y-99697281D01*
X146297356Y-98802698D01*
X146189962Y-98586754D01*
X144443726Y-95071773D01*
X144780000Y-95071773D01*
X144816316Y-95165971D01*
X144918929Y-95390262D01*
X145078328Y-95725573D01*
X145285006Y-96152834D01*
X145529455Y-96652972D01*
X145802168Y-97206916D01*
X146093635Y-97795593D01*
X146394349Y-98399932D01*
X146694801Y-99000861D01*
X146985485Y-99579309D01*
X147256891Y-100116203D01*
X147499511Y-100592471D01*
X147703838Y-100989043D01*
X147860364Y-101286845D01*
X147959580Y-101466807D01*
X147991268Y-101513117D01*
X148043764Y-101441850D01*
X148168791Y-101241327D01*
X148355598Y-100929732D01*
X148593434Y-100525246D01*
X148871548Y-100046053D01*
X149179188Y-99510334D01*
X149280395Y-99332950D01*
X149671164Y-98647691D01*
X150103804Y-97890176D01*
X150551447Y-97107371D01*
X150987225Y-96346243D01*
X151384269Y-95653759D01*
X151616151Y-95250000D01*
X151895458Y-94763921D01*
X152243741Y-94157528D01*
X152645742Y-93457400D01*
X153086202Y-92690120D01*
X153549863Y-91882268D01*
X154021466Y-91060426D01*
X154485755Y-90251175D01*
X154726588Y-89831334D01*
X155190950Y-89021811D01*
X155679429Y-88170325D01*
X156175213Y-87306180D01*
X156661484Y-86458682D01*
X157121431Y-85657134D01*
X157538236Y-84930843D01*
X157895087Y-84309112D01*
X158030052Y-84074000D01*
X158387184Y-83451832D01*
X158807605Y-82719275D01*
X159270370Y-81912832D01*
X159754532Y-81069011D01*
X160239145Y-80224316D01*
X160703264Y-79415252D01*
X160993451Y-78909334D01*
X161412045Y-78179531D01*
X161847863Y-77419742D01*
X162283529Y-76660260D01*
X162701665Y-75931375D01*
X163084894Y-75263378D01*
X163415840Y-74686561D01*
X163640521Y-74295000D01*
X163919989Y-73809418D01*
X164172694Y-73373031D01*
X164386069Y-73007321D01*
X164547550Y-72733771D01*
X164644568Y-72573861D01*
X164665971Y-72542053D01*
X164726209Y-72588692D01*
X164855436Y-72757319D01*
X165036866Y-73023918D01*
X165253716Y-73364471D01*
X165346431Y-73515719D01*
X165619392Y-73964950D01*
X165946566Y-74502177D01*
X166293606Y-75071067D01*
X166626164Y-75615288D01*
X166750836Y-75819000D01*
X166967080Y-76172606D01*
X167256978Y-76647350D01*
X167606185Y-77219702D01*
X168000352Y-77866132D01*
X168425134Y-78563107D01*
X168866182Y-79287097D01*
X169309150Y-80014572D01*
X169460980Y-80264000D01*
X169909352Y-81000602D01*
X170367605Y-81753327D01*
X170820139Y-82496558D01*
X171251354Y-83204677D01*
X171645648Y-83852065D01*
X171987422Y-84413107D01*
X172261074Y-84862182D01*
X172322530Y-84963000D01*
X172638240Y-85481179D01*
X172959306Y-86008689D01*
X173262464Y-86507267D01*
X173524447Y-86938652D01*
X173721991Y-87264579D01*
X173725371Y-87270167D01*
X174199138Y-88053334D01*
X177354235Y-88053334D01*
X178181333Y-88051230D01*
X178900632Y-88045104D01*
X179501134Y-88035237D01*
X179971843Y-88021907D01*
X180301760Y-88005393D01*
X180479887Y-87985975D01*
X180509333Y-87973190D01*
X180467914Y-87875324D01*
X180354103Y-87661015D01*
X180183564Y-87358457D01*
X179971964Y-86995843D01*
X179885958Y-86851356D01*
X179659399Y-86471782D01*
X179368620Y-85983117D01*
X179035440Y-85422116D01*
X178681678Y-84825532D01*
X178329155Y-84230121D01*
X178161748Y-83947000D01*
X177887671Y-83483459D01*
X177541868Y-82898944D01*
X177138954Y-82218143D01*
X176693548Y-81465747D01*
X176220268Y-80666447D01*
X175733730Y-79844933D01*
X175248553Y-79025895D01*
X174878499Y-78401334D01*
X174405777Y-77603560D01*
X173921153Y-76785668D01*
X173439081Y-75972056D01*
X172974019Y-75187123D01*
X172540421Y-74455268D01*
X172152743Y-73800890D01*
X171825443Y-73248388D01*
X171617893Y-72898000D01*
X171347459Y-72441435D01*
X171005342Y-71863875D01*
X170606169Y-71190009D01*
X170164567Y-70444528D01*
X169695160Y-69652123D01*
X169212576Y-68837485D01*
X168731440Y-68025305D01*
X168382923Y-67437000D01*
X167928624Y-66670016D01*
X167475492Y-65904774D01*
X167035879Y-65162150D01*
X166622137Y-64463020D01*
X166246619Y-63828259D01*
X165921675Y-63278741D01*
X165659660Y-62835343D01*
X165488665Y-62545640D01*
X165243784Y-62139354D01*
X165025007Y-61793301D01*
X164847561Y-61530225D01*
X164726670Y-61372872D01*
X164680604Y-61338567D01*
X164618338Y-61421525D01*
X164484390Y-61628632D01*
X164292425Y-61937786D01*
X164056108Y-62326884D01*
X163789104Y-62773824D01*
X163697953Y-62927927D01*
X163392984Y-63444621D01*
X163026596Y-64065121D01*
X162623567Y-64747482D01*
X162208674Y-65449757D01*
X161806694Y-66130001D01*
X161561368Y-66545044D01*
X161183209Y-67184960D01*
X160745236Y-67926466D01*
X160273603Y-68725262D01*
X159794459Y-69537048D01*
X159333958Y-70317525D01*
X158937324Y-70990044D01*
X158530502Y-71679988D01*
X158090774Y-72425680D01*
X157641746Y-73187094D01*
X157207023Y-73924204D01*
X156810210Y-74596984D01*
X156474913Y-75165408D01*
X156463945Y-75184000D01*
X155548216Y-76736313D01*
X154713129Y-78151963D01*
X153953271Y-79440127D01*
X153263232Y-80609981D01*
X152637600Y-81670700D01*
X152070962Y-82631460D01*
X151557908Y-83501436D01*
X151093025Y-84289805D01*
X150670902Y-85005741D01*
X150286127Y-85658420D01*
X150056120Y-86048622D01*
X149639586Y-86755076D01*
X149180005Y-87534162D01*
X148703537Y-88341559D01*
X148236340Y-89132944D01*
X147804576Y-89863998D01*
X147457524Y-90451288D01*
X146907827Y-91381352D01*
X146438231Y-92176459D01*
X146042523Y-92847333D01*
X145714485Y-93404702D01*
X145447904Y-93859288D01*
X145236565Y-94221817D01*
X145074251Y-94503015D01*
X144954750Y-94713606D01*
X144871844Y-94864315D01*
X144819319Y-94965868D01*
X144790961Y-95028989D01*
X144780554Y-95064403D01*
X144780000Y-95071773D01*
X144443726Y-95071773D01*
X144438217Y-95060683D01*
X144764233Y-94499175D01*
X144884294Y-94293689D01*
X145078043Y-93963682D01*
X145332973Y-93530384D01*
X145636576Y-93015029D01*
X145976347Y-92438848D01*
X146339778Y-91823074D01*
X146641053Y-91313000D01*
X147060610Y-90602912D01*
X147507240Y-89846995D01*
X147960024Y-89080652D01*
X148398044Y-88339287D01*
X148800385Y-87658305D01*
X149146127Y-87073107D01*
X149267304Y-86868000D01*
X149523729Y-86433775D01*
X149853036Y-85875829D01*
X150242148Y-85216332D01*
X150677989Y-84477456D01*
X151147482Y-83681372D01*
X151637550Y-82850253D01*
X152135117Y-82006269D01*
X152627106Y-81171593D01*
X152737862Y-80983667D01*
X153208467Y-80185324D01*
X153672957Y-79397687D01*
X154120554Y-78639009D01*
X154540482Y-77927541D01*
X154921964Y-77281536D01*
X155254222Y-76719248D01*
X155526482Y-76258927D01*
X155727964Y-75918828D01*
X155787240Y-75819000D01*
X155954130Y-75537621D01*
X156196550Y-75128010D01*
X156504072Y-74607830D01*
X156866266Y-73994741D01*
X157272703Y-73306404D01*
X157712953Y-72560482D01*
X158176587Y-71774634D01*
X158653175Y-70966523D01*
X158937068Y-70485000D01*
X159534301Y-69471890D01*
X160053855Y-68590559D01*
X160504044Y-67826914D01*
X160893183Y-67166860D01*
X161229585Y-66596303D01*
X161521564Y-66101149D01*
X161777433Y-65667304D01*
X162005507Y-65280673D01*
X162214100Y-64927163D01*
X162411525Y-64592680D01*
X162606095Y-64263129D01*
X162806126Y-63924416D01*
X163019931Y-63562447D01*
X163255823Y-63163128D01*
X163431945Y-62865000D01*
X163731022Y-62354853D01*
X163999318Y-61889745D01*
X164225247Y-61490374D01*
X164397223Y-61177434D01*
X164503661Y-60971621D01*
X164533948Y-60896500D01*
X164568708Y-60869409D01*
X164680397Y-60847033D01*
X164881477Y-60828998D01*
X165184410Y-60814930D01*
X165601658Y-60804455D01*
X166145683Y-60797197D01*
X166828947Y-60792783D01*
X167663912Y-60790838D01*
X168056932Y-60790667D01*
X171578309Y-60790667D01*
X172839258Y-62928500D01*
X173224952Y-63582437D01*
X173640867Y-64287659D01*
X174062482Y-65002584D01*
X174465275Y-65685631D01*
X174824725Y-66295219D01*
X175048648Y-66675000D01*
X175383249Y-67242413D01*
X175774724Y-67906093D01*
X176193844Y-68616501D01*
X176611383Y-69324097D01*
X176998110Y-69979339D01*
X177096689Y-70146334D01*
X177450729Y-70746286D01*
X177864187Y-71447300D01*
X178310605Y-72204495D01*
X178763528Y-72972988D01*
X179196496Y-73707898D01*
X179492383Y-74210334D01*
X179890931Y-74887034D01*
X180327413Y-75627790D01*
X180775850Y-76388534D01*
X181210263Y-77125201D01*
X181604672Y-77793724D01*
X181863387Y-78232000D01*
X182095258Y-78624906D01*
X182402404Y-79145736D01*
X182774213Y-79776479D01*
X183200073Y-80499123D01*
X183669374Y-81295658D01*
X184171503Y-82148072D01*
X184695848Y-83038354D01*
X185231799Y-83948492D01*
X185768744Y-84860474D01*
X185928787Y-85132334D01*
X186750156Y-86527514D01*
X187489987Y-87783958D01*
X188152571Y-88908900D01*
X188742197Y-89909574D01*
X189263156Y-90793215D01*
X189719739Y-91567056D01*
X190116235Y-92238331D01*
X190456936Y-92814275D01*
X190746131Y-93302121D01*
X190988112Y-93709104D01*
X191187167Y-94042457D01*
X191347589Y-94309415D01*
X191473667Y-94517212D01*
X191569692Y-94673082D01*
X191639953Y-94784258D01*
X191688742Y-94857975D01*
X191720349Y-94901468D01*
X191728535Y-94911334D01*
X191745862Y-94960481D01*
X191735873Y-95049988D01*
X191692852Y-95192489D01*
X191611082Y-95400620D01*
X191484848Y-95687017D01*
X191308434Y-96064315D01*
X191076125Y-96545150D01*
X190782205Y-97142157D01*
X190420958Y-97867972D01*
X190110404Y-98488500D01*
X188380965Y-101938667D01*
X168248415Y-101938667D01*
X165763499Y-101938996D01*
X163446767Y-101939986D01*
X161297069Y-101941642D01*
X159313257Y-101943969D01*
X157494183Y-101946973D01*
X155838698Y-101950657D01*
X154345654Y-101955027D01*
X153013901Y-101960088D01*
X151842291Y-101965845D01*
X150829676Y-101972303D01*
X149974906Y-101979466D01*
X149276834Y-101987340D01*
X148734310Y-101995930D01*
X148346187Y-102005240D01*
X148111314Y-102015276D01*
X148028787Y-102025746D01*
X147973825Y-101984261D01*
X147857442Y-101808192D01*
X147786990Y-101685020D01*
X148236658Y-101685020D01*
X168239883Y-101663677D01*
X188243107Y-101642334D01*
X189789439Y-98552000D01*
X190124563Y-97880004D01*
X190434968Y-97253227D01*
X190712613Y-96688232D01*
X190949454Y-96201584D01*
X191137450Y-95809848D01*
X191268556Y-95529587D01*
X191334731Y-95377365D01*
X191341219Y-95356043D01*
X191311512Y-95343075D01*
X191217068Y-95331055D01*
X191051986Y-95319937D01*
X190810364Y-95309677D01*
X190486300Y-95300230D01*
X190073893Y-95291551D01*
X189567241Y-95283596D01*
X188960442Y-95276320D01*
X188247595Y-95269678D01*
X187422798Y-95263625D01*
X186480150Y-95258117D01*
X185413748Y-95253110D01*
X184217692Y-95248557D01*
X182886078Y-95244415D01*
X181413007Y-95240638D01*
X179792576Y-95237183D01*
X178018883Y-95234003D01*
X176086027Y-95231056D01*
X174585559Y-95229043D01*
X157824453Y-95207667D01*
X157925984Y-95023945D01*
X158239394Y-95023945D01*
X174766694Y-94965753D01*
X176426839Y-94959766D01*
X178041497Y-94953667D01*
X179602537Y-94947496D01*
X181101826Y-94941297D01*
X182531235Y-94935112D01*
X183882630Y-94928983D01*
X185147882Y-94922953D01*
X186318858Y-94917064D01*
X187387426Y-94911359D01*
X188345457Y-94905879D01*
X189184817Y-94900668D01*
X189897376Y-94895768D01*
X190475002Y-94891220D01*
X190909564Y-94887068D01*
X191192930Y-94883354D01*
X191316969Y-94880120D01*
X191322108Y-94879448D01*
X191291182Y-94800855D01*
X191187465Y-94602325D01*
X191024953Y-94309321D01*
X190817643Y-93947306D01*
X190683225Y-93717167D01*
X190318521Y-93097252D01*
X189879361Y-92351164D01*
X189377334Y-91498575D01*
X188824030Y-90559153D01*
X188231041Y-89552569D01*
X187609955Y-88498492D01*
X186972364Y-87416591D01*
X186329857Y-86326537D01*
X185694025Y-85247998D01*
X185076459Y-84200645D01*
X184488747Y-83204148D01*
X184252705Y-82804000D01*
X183984358Y-82349022D01*
X183646701Y-81776382D01*
X183256377Y-81114313D01*
X182830029Y-80391050D01*
X182384302Y-79634827D01*
X181935838Y-78873878D01*
X181501280Y-78136437D01*
X181482756Y-78105000D01*
X180763771Y-76884829D01*
X180049266Y-75672317D01*
X179349535Y-74484932D01*
X178674874Y-73340143D01*
X178035576Y-72255416D01*
X177441937Y-71248221D01*
X176904253Y-70336025D01*
X176432817Y-69536296D01*
X176068684Y-68918667D01*
X175856359Y-68558457D01*
X175571937Y-68075775D01*
X175229229Y-67494070D01*
X174842049Y-66836792D01*
X174424209Y-66127390D01*
X173989523Y-65389313D01*
X173551803Y-64646012D01*
X173363072Y-64325500D01*
X171431232Y-61044667D01*
X168223283Y-61044667D01*
X167505074Y-61045667D01*
X166842909Y-61048518D01*
X166255204Y-61052993D01*
X165760373Y-61058867D01*
X165376832Y-61065914D01*
X165122995Y-61073908D01*
X165017277Y-61082624D01*
X165015333Y-61083997D01*
X165055939Y-61169594D01*
X165164215Y-61363828D01*
X165319846Y-61630652D01*
X165385129Y-61740164D01*
X165485357Y-61908481D01*
X165663181Y-62208350D01*
X165910158Y-62625476D01*
X166217847Y-63145562D01*
X166577804Y-63754315D01*
X166981590Y-64437438D01*
X167420761Y-65180636D01*
X167886875Y-65969614D01*
X168371492Y-66790077D01*
X168866168Y-67627728D01*
X169362462Y-68468274D01*
X169851932Y-69297418D01*
X170326137Y-70100865D01*
X170776634Y-70864320D01*
X171194981Y-71573487D01*
X171572736Y-72214071D01*
X171901459Y-72771777D01*
X172172705Y-73232310D01*
X172378035Y-73581373D01*
X172424215Y-73660000D01*
X172610395Y-73976500D01*
X172864976Y-74408348D01*
X173170048Y-74925208D01*
X173507697Y-75496745D01*
X173860010Y-76092624D01*
X174174043Y-76623334D01*
X174502078Y-77177933D01*
X174897384Y-77847023D01*
X175341394Y-78599128D01*
X175815538Y-79402777D01*
X176301248Y-80226495D01*
X176779954Y-81038810D01*
X177233089Y-81808247D01*
X177246091Y-81830334D01*
X177645401Y-82508284D01*
X178025978Y-83153712D01*
X178377513Y-83749185D01*
X178689698Y-84277275D01*
X178952224Y-84720549D01*
X179154782Y-85061577D01*
X179287064Y-85282929D01*
X179324073Y-85344000D01*
X179512970Y-85655475D01*
X179736716Y-86030305D01*
X179980292Y-86442639D01*
X180228678Y-86866626D01*
X180466854Y-87276414D01*
X180679798Y-87646153D01*
X180852492Y-87949991D01*
X180969916Y-88162076D01*
X181017049Y-88256559D01*
X181017333Y-88258282D01*
X180934445Y-88264763D01*
X180692900Y-88271045D01*
X180303371Y-88277070D01*
X179776535Y-88282781D01*
X179123065Y-88288120D01*
X178353638Y-88293027D01*
X177478928Y-88297444D01*
X176509611Y-88301315D01*
X175456362Y-88304579D01*
X174329855Y-88307180D01*
X173140766Y-88309058D01*
X171899770Y-88310156D01*
X171471166Y-88310340D01*
X161925000Y-88313347D01*
X160782000Y-90399944D01*
X160437790Y-91027967D01*
X160077485Y-91684746D01*
X159721684Y-92332775D01*
X159390986Y-92934545D01*
X159105991Y-93452552D01*
X158939197Y-93755243D01*
X158239394Y-95023945D01*
X157925984Y-95023945D01*
X160959359Y-89535000D01*
X161470121Y-88610572D01*
X161851445Y-87920123D01*
X162169667Y-87920123D01*
X162171715Y-87946054D01*
X162206772Y-87968421D01*
X162286208Y-87987482D01*
X162421391Y-88003497D01*
X162623691Y-88016726D01*
X162904475Y-88027426D01*
X163275113Y-88035859D01*
X163746973Y-88042282D01*
X164331425Y-88046955D01*
X165039836Y-88050137D01*
X165883576Y-88052089D01*
X166874013Y-88053068D01*
X168011455Y-88053334D01*
X173904360Y-88053334D01*
X173213902Y-86931500D01*
X172954062Y-86508580D01*
X172706432Y-86104204D01*
X172493517Y-85755215D01*
X172337824Y-85498458D01*
X172295914Y-85428667D01*
X172183235Y-85241666D01*
X171999252Y-84938278D01*
X171761032Y-84546559D01*
X171485642Y-84094566D01*
X171190150Y-83610356D01*
X171111333Y-83481334D01*
X170813349Y-82993302D01*
X170530922Y-82530119D01*
X170281133Y-82119845D01*
X170081061Y-81790538D01*
X169947785Y-81570256D01*
X169926000Y-81534000D01*
X169668323Y-81105579D01*
X169383304Y-80634455D01*
X169084408Y-80142592D01*
X168785098Y-79651952D01*
X168498841Y-79184499D01*
X168239099Y-78762197D01*
X168019339Y-78407009D01*
X167853025Y-78140898D01*
X167753621Y-77985828D01*
X167732493Y-77955980D01*
X167677818Y-78010099D01*
X167553578Y-78195005D01*
X167370672Y-78492489D01*
X167139995Y-78884341D01*
X166872444Y-79352352D01*
X166578917Y-79878314D01*
X166541812Y-79945647D01*
X166224182Y-80522674D01*
X165844135Y-81212834D01*
X165421032Y-81980983D01*
X164974236Y-82791976D01*
X164523106Y-83610670D01*
X164087004Y-84401920D01*
X163816124Y-84893289D01*
X163461115Y-85538215D01*
X163130975Y-86139902D01*
X162834875Y-86681489D01*
X162581988Y-87146116D01*
X162381486Y-87516922D01*
X162242539Y-87777045D01*
X162174320Y-87909625D01*
X162169667Y-87920123D01*
X161851445Y-87920123D01*
X161965273Y-87714020D01*
X162437463Y-86858678D01*
X162879339Y-86057882D01*
X163283549Y-85324967D01*
X163642740Y-84673268D01*
X163949561Y-84116119D01*
X164196659Y-83666856D01*
X164376682Y-83338814D01*
X164482277Y-83145329D01*
X164483718Y-83142667D01*
X164624208Y-82884802D01*
X164832721Y-82504429D01*
X165095170Y-82027131D01*
X165397468Y-81478492D01*
X165725526Y-80884097D01*
X166065257Y-80269529D01*
X166171919Y-80076790D01*
X166490134Y-79498513D01*
X166780102Y-78965001D01*
X167031950Y-78494941D01*
X167235802Y-78107018D01*
X167381787Y-77819921D01*
X167460028Y-77652337D01*
X167470666Y-77618835D01*
X167448744Y-77547597D01*
X167379095Y-77405140D01*
X167255894Y-77181631D01*
X167073318Y-76867239D01*
X166825542Y-76452131D01*
X166506742Y-75926476D01*
X166111093Y-75280440D01*
X165632772Y-74504192D01*
X165460555Y-74225484D01*
X165182416Y-73781552D01*
X164975892Y-73468223D01*
X164828269Y-73269256D01*
X164726834Y-73168415D01*
X164658873Y-73149458D01*
X164631992Y-73167151D01*
X164568946Y-73262229D01*
X164431195Y-73488845D01*
X164227857Y-73831410D01*
X163968053Y-74274333D01*
X163660902Y-74802021D01*
X163315524Y-75398885D01*
X162941037Y-76049334D01*
X162684693Y-76496334D01*
X162243825Y-77266127D01*
X161782513Y-78071321D01*
X161317752Y-78882275D01*
X160866536Y-79669346D01*
X160445858Y-80402893D01*
X160072711Y-81053273D01*
X159764091Y-81590846D01*
X159723792Y-81661000D01*
X159261200Y-82466422D01*
X158725933Y-83398686D01*
X158129510Y-84437716D01*
X157483452Y-85563436D01*
X156799278Y-86755770D01*
X156088508Y-87994641D01*
X155362661Y-89259974D01*
X154633258Y-90531692D01*
X153911818Y-91789719D01*
X153796783Y-91990334D01*
X153398452Y-92684816D01*
X152936963Y-93489090D01*
X152433560Y-94366151D01*
X151909489Y-95278993D01*
X151385994Y-96190609D01*
X150884322Y-97063994D01*
X150467176Y-97790000D01*
X150074605Y-98473272D01*
X149701552Y-99122869D01*
X149357933Y-99721508D01*
X149053660Y-100251904D01*
X148798648Y-100696772D01*
X148602809Y-101038829D01*
X148476059Y-101260789D01*
X148439615Y-101325010D01*
X148236658Y-101685020D01*
X147786990Y-101685020D01*
X147678015Y-101494498D01*
X147433918Y-101040141D01*
G37*
G36*
X120183153Y-65529470D02*
G01*
X120409769Y-65627606D01*
X120763577Y-65783143D01*
X121230966Y-65990034D01*
X121798325Y-66242226D01*
X122452045Y-66533672D01*
X123178515Y-66858322D01*
X123964123Y-67210126D01*
X124763540Y-67568789D01*
X125736774Y-68006486D01*
X126566101Y-68381151D01*
X127262520Y-68698144D01*
X127837030Y-68962828D01*
X128300629Y-69180565D01*
X128664316Y-69356716D01*
X128939091Y-69496645D01*
X129135951Y-69605711D01*
X129265897Y-69689278D01*
X129339927Y-69752707D01*
X129369040Y-69801360D01*
X129370666Y-69814723D01*
X129356158Y-69957824D01*
X129316991Y-70219842D01*
X129259707Y-70565010D01*
X129190845Y-70957560D01*
X129116944Y-71361722D01*
X129044543Y-71741730D01*
X128980184Y-72061815D01*
X128930404Y-72286209D01*
X128901818Y-72379071D01*
X128813692Y-72407066D01*
X128582466Y-72468710D01*
X128229799Y-72558559D01*
X127777349Y-72671167D01*
X127246775Y-72801090D01*
X126659735Y-72942884D01*
X126642652Y-72946983D01*
X124417666Y-73480715D01*
X124163666Y-73248057D01*
X124013309Y-73110047D01*
X123766935Y-72883580D01*
X123453088Y-72594910D01*
X123100313Y-72270288D01*
X122912942Y-72097813D01*
X122573621Y-71790679D01*
X122278038Y-71533061D01*
X122048022Y-71343195D01*
X121905400Y-71239316D01*
X121869952Y-71226492D01*
X121859346Y-71328071D01*
X121879330Y-71543794D01*
X121914176Y-71762262D01*
X121980370Y-72174312D01*
X121991963Y-72481634D01*
X121936962Y-72743383D01*
X121803373Y-73018718D01*
X121593030Y-73346332D01*
X121364262Y-73667824D01*
X121169116Y-73886259D01*
X120958885Y-74046553D01*
X120684864Y-74193621D01*
X120662682Y-74204272D01*
X120409281Y-74332734D01*
X120236526Y-74434605D01*
X120180476Y-74488536D01*
X120181135Y-74489358D01*
X120281988Y-74542939D01*
X120523627Y-74649643D01*
X120888590Y-74802333D01*
X121359415Y-74993870D01*
X121918642Y-75217115D01*
X122548808Y-75464929D01*
X122936000Y-75615583D01*
X123385639Y-75795052D01*
X123786765Y-75964849D01*
X124109339Y-76111503D01*
X124323321Y-76221545D01*
X124390875Y-76267975D01*
X124464883Y-76366437D01*
X124620078Y-76591134D01*
X124847003Y-76927550D01*
X125136197Y-77361169D01*
X125478202Y-77877475D01*
X125863560Y-78461951D01*
X126282811Y-79100082D01*
X126726496Y-79777351D01*
X127185157Y-80479243D01*
X127649335Y-81191240D01*
X128109570Y-81898827D01*
X128556404Y-82587488D01*
X128980379Y-83242706D01*
X129372034Y-83849966D01*
X129721912Y-84394751D01*
X130020553Y-84862544D01*
X130258498Y-85238831D01*
X130426289Y-85509094D01*
X130514467Y-85658818D01*
X130525584Y-85682667D01*
X130465366Y-85781051D01*
X130257464Y-85957477D01*
X129901310Y-86212370D01*
X129396336Y-86546154D01*
X129227726Y-86654109D01*
X128734523Y-86967554D01*
X128380975Y-87200066D01*
X128166450Y-87365553D01*
X128090319Y-87477920D01*
X128151952Y-87551075D01*
X128350718Y-87598924D01*
X128685989Y-87635373D01*
X129157134Y-87674329D01*
X129181423Y-87676356D01*
X129506286Y-87709247D01*
X129759145Y-87745602D01*
X129898349Y-87779042D01*
X129912209Y-87788286D01*
X129930082Y-87880292D01*
X129969366Y-88123509D01*
X130027607Y-88501505D01*
X130102352Y-88997846D01*
X130191146Y-89596101D01*
X130291535Y-90279837D01*
X130401065Y-91032621D01*
X130517283Y-91838021D01*
X130524785Y-91890234D01*
X131106333Y-95938801D01*
X131150479Y-88737703D01*
X131911572Y-88344613D01*
X132230367Y-88174613D01*
X132483511Y-88029443D01*
X132639016Y-87928053D01*
X132672666Y-87893703D01*
X132616547Y-87810677D01*
X132468068Y-87643607D01*
X132257050Y-87425693D01*
X132213105Y-87382030D01*
X131983922Y-87138716D01*
X131805357Y-86917584D01*
X131712237Y-86762257D01*
X131708411Y-86749922D01*
X131667939Y-86629187D01*
X131574465Y-86370861D01*
X131435641Y-85995452D01*
X131259119Y-85523466D01*
X131052552Y-84975409D01*
X130823591Y-84371789D01*
X130697987Y-84042140D01*
X129732697Y-81512613D01*
X127933443Y-79317434D01*
X127507138Y-78794916D01*
X127119108Y-78314671D01*
X126781509Y-77892109D01*
X126506499Y-77542641D01*
X126306236Y-77281678D01*
X126192876Y-77124632D01*
X126171945Y-77084499D01*
X126195631Y-77078729D01*
X126256170Y-77082249D01*
X126366504Y-77097588D01*
X126539573Y-77127274D01*
X126788318Y-77173837D01*
X127125679Y-77239805D01*
X127564597Y-77327708D01*
X128118013Y-77440074D01*
X128798866Y-77579432D01*
X129620099Y-77748312D01*
X130556000Y-77941267D01*
X131023600Y-78036883D01*
X131434362Y-78119241D01*
X131759162Y-78182633D01*
X131968875Y-78221349D01*
X132032841Y-78230756D01*
X132111460Y-78288584D01*
X132293308Y-78451164D01*
X132562242Y-78703151D01*
X132902114Y-79029199D01*
X133296781Y-79413963D01*
X133730097Y-79842097D01*
X133771653Y-79883439D01*
X135430623Y-81534879D01*
X135901505Y-81132273D01*
X136092108Y-80967333D01*
X136386949Y-80709684D01*
X136763623Y-80379022D01*
X137199724Y-79995046D01*
X137672849Y-79577454D01*
X138126558Y-79176087D01*
X138584272Y-78772578D01*
X138999413Y-78410173D01*
X139355597Y-78102887D01*
X139636439Y-77864736D01*
X139825555Y-77709734D01*
X139906560Y-77651898D01*
X139908183Y-77652087D01*
X139897281Y-77738362D01*
X139855524Y-77974546D01*
X139786027Y-78344657D01*
X139691902Y-78832713D01*
X139576264Y-79422733D01*
X139442225Y-80098734D01*
X139292898Y-80844733D01*
X139131396Y-81644750D01*
X139107185Y-81764127D01*
X138891495Y-82818005D01*
X138704555Y-83711641D01*
X138544898Y-84451410D01*
X138411061Y-85043685D01*
X138301576Y-85494841D01*
X138214980Y-85811253D01*
X138149807Y-85999293D01*
X138121533Y-86051675D01*
X138019382Y-86178339D01*
X137827266Y-86410575D01*
X137564820Y-86724876D01*
X137251682Y-87097734D01*
X136907488Y-87505645D01*
X136863666Y-87557445D01*
X136521620Y-87962147D01*
X136212386Y-88328963D01*
X135954421Y-88635927D01*
X135766182Y-88861067D01*
X135666126Y-88982417D01*
X135659698Y-88990522D01*
X135633025Y-89059057D01*
X135606966Y-89201161D01*
X135581056Y-89425914D01*
X135554828Y-89742396D01*
X135527816Y-90159687D01*
X135499553Y-90686869D01*
X135469573Y-91333021D01*
X135437409Y-92107224D01*
X135402596Y-93018559D01*
X135364666Y-94076106D01*
X135323154Y-95288945D01*
X135299071Y-96012000D01*
X135275706Y-96685248D01*
X135250635Y-97348394D01*
X135225223Y-97969373D01*
X135200835Y-98516121D01*
X135178838Y-98956577D01*
X135161177Y-99250500D01*
X135103006Y-100076000D01*
X120819333Y-100076000D01*
X120819723Y-99885500D01*
X120832194Y-99733515D01*
X120866062Y-99451644D01*
X120916469Y-99077288D01*
X120978556Y-98647845D01*
X120992951Y-98552000D01*
X121067645Y-98031432D01*
X121140687Y-97476094D01*
X121203353Y-96954954D01*
X121244593Y-96562334D01*
X121288484Y-96141347D01*
X121349912Y-95619125D01*
X121420768Y-95061810D01*
X121492944Y-94535546D01*
X121493692Y-94530334D01*
X121550000Y-94124731D01*
X121619266Y-93604244D01*
X121697940Y-92997594D01*
X121782469Y-92333503D01*
X121869300Y-91640692D01*
X121954883Y-90947882D01*
X122035665Y-90283794D01*
X122108095Y-89677150D01*
X122168619Y-89156671D01*
X122213688Y-88751079D01*
X122237109Y-88519000D01*
X122249268Y-88272955D01*
X122216268Y-88089459D01*
X122115445Y-87903647D01*
X121941284Y-87672334D01*
X121781538Y-87461794D01*
X121549122Y-87144616D01*
X121267606Y-86753489D01*
X120960558Y-86321101D01*
X120720434Y-85979000D01*
X120467273Y-85616243D01*
X120134471Y-85139228D01*
X119739222Y-84572607D01*
X119298722Y-83941035D01*
X118830165Y-83269164D01*
X118350746Y-82581649D01*
X117877660Y-81903143D01*
X117856412Y-81872667D01*
X117362613Y-81164634D01*
X116843146Y-80420204D01*
X116318828Y-79669179D01*
X115810472Y-78941363D01*
X115338896Y-78266558D01*
X114924914Y-77674567D01*
X114623793Y-77244372D01*
X114285325Y-76759044D01*
X113981430Y-76319276D01*
X113724990Y-75944038D01*
X113528889Y-75652301D01*
X113406009Y-75463038D01*
X113368666Y-75396109D01*
X113414173Y-75312080D01*
X113541142Y-75110324D01*
X113735249Y-74812751D01*
X113982170Y-74441269D01*
X114267579Y-74017790D01*
X114328276Y-73928404D01*
X114616533Y-73503752D01*
X114978934Y-72968806D01*
X115395070Y-72353749D01*
X115844535Y-71688766D01*
X116306924Y-71004040D01*
X116761828Y-70329755D01*
X116971085Y-70019334D01*
X117591797Y-69098637D01*
X118124840Y-68308926D01*
X118576874Y-67640558D01*
X118954561Y-67083895D01*
X119264561Y-66629295D01*
X119513537Y-66267117D01*
X119708149Y-65987722D01*
X119855058Y-65781468D01*
X119960926Y-65638716D01*
X120032414Y-65549824D01*
X120076182Y-65505153D01*
X120097340Y-65494785D01*
X120183153Y-65529470D01*
G37*
G36*
X134378659Y-67482759D02*
G01*
X134585651Y-67610548D01*
X134888400Y-67806138D01*
X135266020Y-68055297D01*
X135697622Y-68343795D01*
X136162321Y-68657401D01*
X136639228Y-68981885D01*
X137107457Y-69303016D01*
X137546121Y-69606564D01*
X137934331Y-69878298D01*
X138251202Y-70103987D01*
X138475846Y-70269401D01*
X138587375Y-70360310D01*
X138595817Y-70371733D01*
X138590986Y-70391247D01*
X138569556Y-70429114D01*
X138523677Y-70495121D01*
X138445500Y-70599052D01*
X138327176Y-70750694D01*
X138160855Y-70959833D01*
X137938688Y-71236252D01*
X137652826Y-71589739D01*
X137295420Y-72030078D01*
X136858621Y-72567056D01*
X136334578Y-73210457D01*
X135715444Y-73970067D01*
X135346979Y-74422000D01*
X134900782Y-74969464D01*
X134461798Y-75508488D01*
X134048895Y-76015876D01*
X133680939Y-76468432D01*
X133376794Y-76842960D01*
X133155328Y-77116265D01*
X133108948Y-77173667D01*
X132875603Y-77462303D01*
X132681310Y-77701769D01*
X132551061Y-77861315D01*
X132511620Y-77908697D01*
X132424496Y-77889893D01*
X132205272Y-77807140D01*
X131874725Y-77669315D01*
X131453631Y-77485294D01*
X130962763Y-77263951D01*
X130476989Y-77039464D01*
X129941688Y-76788898D01*
X129459268Y-76562178D01*
X129050265Y-76369031D01*
X128735217Y-76219180D01*
X128534659Y-76122351D01*
X128469023Y-76088580D01*
X128507044Y-76013021D01*
X128630689Y-75812261D01*
X128830104Y-75500950D01*
X129095436Y-75093737D01*
X129416832Y-74605270D01*
X129784439Y-74050200D01*
X130188403Y-73443173D01*
X130618871Y-72798841D01*
X131065989Y-72131851D01*
X131519904Y-71456853D01*
X131970764Y-70788496D01*
X132408714Y-70141429D01*
X132823901Y-69530301D01*
X133206472Y-68969761D01*
X133546573Y-68474457D01*
X133834352Y-68059040D01*
X134059954Y-67738157D01*
X134213527Y-67526459D01*
X134285217Y-67438594D01*
X134288311Y-67437000D01*
X134378659Y-67482759D01*
G37*
G36*
X200936054Y-98206138D02*
G01*
X200561848Y-97972132D01*
X200236497Y-97786154D01*
X200041040Y-97690385D01*
X199303860Y-97303115D01*
X198577350Y-96777032D01*
X197889617Y-96141756D01*
X197268767Y-95426905D01*
X196742907Y-94662100D01*
X196340145Y-93876961D01*
X196279111Y-93726000D01*
X196144869Y-93352382D01*
X196020123Y-92960030D01*
X195918107Y-92595550D01*
X195852055Y-92305549D01*
X195834000Y-92158351D01*
X195805423Y-92020527D01*
X195728511Y-91766673D01*
X195616491Y-91438506D01*
X195535213Y-91216030D01*
X195377128Y-90770931D01*
X195312875Y-90574648D01*
X197362892Y-90574648D01*
X197370696Y-90995332D01*
X197375806Y-91161750D01*
X197408021Y-91759819D01*
X197471076Y-92260523D01*
X197579096Y-92720642D01*
X197746205Y-93196956D01*
X197986528Y-93746248D01*
X198054784Y-93891281D01*
X198287050Y-94278289D01*
X198628829Y-94717183D01*
X199045017Y-95171765D01*
X199500506Y-95605838D01*
X199960191Y-95983201D01*
X200321333Y-96228352D01*
X201015266Y-96571578D01*
X201751166Y-96805686D01*
X202489677Y-96923251D01*
X203191440Y-96916845D01*
X203595503Y-96846183D01*
X204031180Y-96657330D01*
X204362129Y-96341510D01*
X204585772Y-95906805D01*
X204699532Y-95361299D01*
X204700832Y-94713073D01*
X204587095Y-93970212D01*
X204555842Y-93833875D01*
X204227542Y-92821377D01*
X203748733Y-91872002D01*
X203131101Y-91000224D01*
X202941484Y-90801713D01*
X205542908Y-90801713D01*
X205542925Y-90805000D01*
X205595490Y-91553484D01*
X205754515Y-92213211D01*
X206035562Y-92821407D01*
X206454193Y-93415297D01*
X206793576Y-93796760D01*
X207463322Y-94379350D01*
X208239335Y-94841496D01*
X209096078Y-95169064D01*
X209423000Y-95252129D01*
X209768823Y-95296656D01*
X210224016Y-95311167D01*
X210736204Y-95298558D01*
X211253009Y-95261722D01*
X211722055Y-95203553D01*
X211754575Y-95196800D01*
X215896453Y-95196800D01*
X215952078Y-95763573D01*
X216101071Y-96235586D01*
X216302677Y-96543953D01*
X216637866Y-96795874D01*
X217096987Y-96964192D01*
X217654983Y-97045780D01*
X218286798Y-97037513D01*
X218967375Y-96936264D01*
X219136355Y-96897494D01*
X219890870Y-96632599D01*
X220633397Y-96223407D01*
X221339532Y-95694499D01*
X221984869Y-95070455D01*
X222545006Y-94375855D01*
X222995536Y-93635281D01*
X223312055Y-92873313D01*
X223383291Y-92619924D01*
X223467058Y-92125083D01*
X223510022Y-91529539D01*
X223512035Y-90896969D01*
X223472951Y-90291052D01*
X223392623Y-89775465D01*
X223389878Y-89763380D01*
X223180668Y-89088273D01*
X222898434Y-88565850D01*
X222544036Y-88196434D01*
X222118334Y-87980343D01*
X221622190Y-87917900D01*
X221056462Y-88009424D01*
X220422011Y-88255236D01*
X219981537Y-88492938D01*
X219691794Y-88694453D01*
X219323236Y-88994670D01*
X218907177Y-89363663D01*
X218474933Y-89771504D01*
X218057819Y-90188267D01*
X217687148Y-90584026D01*
X217394236Y-90928853D01*
X217296447Y-91059000D01*
X216876983Y-91724534D01*
X216526567Y-92429536D01*
X216249252Y-93151635D01*
X216049093Y-93868460D01*
X215930142Y-94557638D01*
X215896453Y-95196800D01*
X211754575Y-95196800D01*
X212090967Y-95126945D01*
X212176569Y-95099990D01*
X213005424Y-94748204D01*
X213698678Y-94324316D01*
X214281290Y-93810030D01*
X214770541Y-93198361D01*
X215116855Y-92627339D01*
X215346146Y-92082779D01*
X215482136Y-91496995D01*
X215535231Y-91016667D01*
X215516857Y-90206865D01*
X215337215Y-89439176D01*
X214994630Y-88709429D01*
X214487425Y-88013455D01*
X214206666Y-87711818D01*
X213585596Y-87160327D01*
X212948585Y-86750032D01*
X212264720Y-86468596D01*
X211503089Y-86303684D01*
X210632779Y-86242960D01*
X210523666Y-86242098D01*
X209632712Y-86294913D01*
X208839880Y-86464676D01*
X208111692Y-86761774D01*
X207414672Y-87196593D01*
X207391000Y-87214012D01*
X206712688Y-87801615D01*
X206192234Y-88447366D01*
X205826126Y-89158086D01*
X205610854Y-89940594D01*
X205542908Y-90801713D01*
X202941484Y-90801713D01*
X202386333Y-90220521D01*
X201526114Y-89547369D01*
X200707908Y-89067253D01*
X200319141Y-88880945D01*
X200008390Y-88764902D01*
X199710152Y-88699523D01*
X199365706Y-88665641D01*
X198787897Y-88663835D01*
X198337508Y-88750173D01*
X197990422Y-88937232D01*
X197722520Y-89237586D01*
X197524963Y-89625506D01*
X197447449Y-89835175D01*
X197397267Y-90035782D01*
X197370415Y-90268535D01*
X197362892Y-90574648D01*
X195312875Y-90574648D01*
X195217911Y-90284548D01*
X195085167Y-89842276D01*
X195052428Y-89722648D01*
X194916170Y-89282677D01*
X194747547Y-88917560D01*
X194505924Y-88543955D01*
X194422070Y-88429704D01*
X193872134Y-87559069D01*
X193474602Y-86636054D01*
X193227386Y-85677605D01*
X193128396Y-84700666D01*
X193154391Y-84161178D01*
X194764836Y-84161178D01*
X194779610Y-85052464D01*
X194936134Y-85932186D01*
X195130216Y-86522289D01*
X195345537Y-86991062D01*
X195603075Y-87438679D01*
X195876623Y-87826449D01*
X196139975Y-88115679D01*
X196285313Y-88227739D01*
X196470849Y-88340086D01*
X196580904Y-88378363D01*
X196689517Y-88347989D01*
X196843083Y-88268577D01*
X197124721Y-88039858D01*
X197398738Y-87657075D01*
X197659268Y-87135487D01*
X197900443Y-86490352D01*
X198116397Y-85736932D01*
X198301261Y-84890484D01*
X198422059Y-84161926D01*
X198487073Y-83582285D01*
X198519111Y-83050103D01*
X200024908Y-83050103D01*
X200126828Y-83888393D01*
X200371782Y-84669393D01*
X200753635Y-85374794D01*
X201266251Y-85986287D01*
X201387891Y-86099236D01*
X202049165Y-86578805D01*
X202776985Y-86904555D01*
X203562551Y-87074313D01*
X204397067Y-87085910D01*
X205020333Y-86995722D01*
X205850976Y-86739980D01*
X206649608Y-86334934D01*
X207391299Y-85800469D01*
X208051121Y-85156467D01*
X208604147Y-84422810D01*
X208895819Y-83904667D01*
X209280583Y-82969836D01*
X209499595Y-82064116D01*
X209538417Y-81423969D01*
X211522216Y-81423969D01*
X211559848Y-81776139D01*
X211775226Y-82737818D01*
X212133439Y-83622274D01*
X212642162Y-84444404D01*
X213309068Y-85219104D01*
X213359459Y-85269547D01*
X214020209Y-85830749D01*
X214757684Y-86291716D01*
X215526569Y-86626314D01*
X215903849Y-86736898D01*
X216440692Y-86825149D01*
X217029811Y-86853162D01*
X217596816Y-86820551D01*
X217994998Y-86747791D01*
X218652639Y-86518481D01*
X219226935Y-86190545D01*
X219710836Y-85795305D01*
X220253837Y-85182592D01*
X220657103Y-84489885D01*
X220920117Y-83733580D01*
X221042365Y-82930075D01*
X221027266Y-82268226D01*
X222285365Y-82268226D01*
X222310041Y-82908121D01*
X222326877Y-83082115D01*
X222488047Y-84295402D01*
X222687080Y-85353408D01*
X222923318Y-86253871D01*
X223196106Y-86994532D01*
X223504786Y-87573131D01*
X223712223Y-87847577D01*
X223979623Y-88108690D01*
X224213325Y-88223169D01*
X224442367Y-88189485D01*
X224695786Y-88006105D01*
X224906046Y-87784637D01*
X225402075Y-87098983D01*
X225757623Y-86333207D01*
X225975598Y-85478774D01*
X226058909Y-84527148D01*
X226060000Y-84397067D01*
X226004226Y-83485632D01*
X225830750Y-82678907D01*
X225530338Y-81951572D01*
X225093755Y-81278306D01*
X224792986Y-80922690D01*
X224323818Y-80456131D01*
X223890645Y-80115673D01*
X223504084Y-79906768D01*
X223174753Y-79834870D01*
X222913272Y-79905431D01*
X222871501Y-79935917D01*
X222676843Y-80187555D01*
X222515750Y-80576365D01*
X222393371Y-81072587D01*
X222314859Y-81646461D01*
X222285365Y-82268226D01*
X221027266Y-82268226D01*
X221023332Y-82095767D01*
X220862502Y-81247052D01*
X220559361Y-80400328D01*
X220113394Y-79571991D01*
X219915535Y-79278292D01*
X219331359Y-78581744D01*
X218658435Y-77993575D01*
X217917680Y-77521722D01*
X217130010Y-77174122D01*
X216316341Y-76958713D01*
X215497589Y-76883433D01*
X214694670Y-76956220D01*
X214164333Y-77095724D01*
X213481826Y-77414469D01*
X212882426Y-77866463D01*
X212377281Y-78431672D01*
X211977539Y-79090062D01*
X211694349Y-79821597D01*
X211538858Y-80606244D01*
X211522216Y-81423969D01*
X209538417Y-81423969D01*
X209553039Y-81182873D01*
X209441100Y-80321475D01*
X209163963Y-79475288D01*
X209079854Y-79288621D01*
X208681482Y-78627427D01*
X208179756Y-78086207D01*
X207591617Y-77665764D01*
X206934007Y-77366898D01*
X206223868Y-77190409D01*
X205478144Y-77137100D01*
X204713775Y-77207769D01*
X203947703Y-77403220D01*
X203196871Y-77724251D01*
X202478221Y-78171665D01*
X201808694Y-78746262D01*
X201626612Y-78936284D01*
X201005768Y-79714039D01*
X200543045Y-80527969D01*
X200227815Y-81400204D01*
X200072158Y-82172832D01*
X200024908Y-83050103D01*
X198519111Y-83050103D01*
X198524109Y-82967083D01*
X198533967Y-82351680D01*
X198517445Y-81771440D01*
X198475342Y-81261724D01*
X198408455Y-80857894D01*
X198342669Y-80646156D01*
X198144843Y-80284694D01*
X197922073Y-80037337D01*
X197697499Y-79928383D01*
X197656150Y-79925334D01*
X197398320Y-79991020D01*
X197071797Y-80172422D01*
X196704306Y-80446050D01*
X196323574Y-80788417D01*
X195957325Y-81176035D01*
X195633285Y-81585415D01*
X195545505Y-81713422D01*
X195150336Y-82462109D01*
X194889262Y-83287877D01*
X194764836Y-84161178D01*
X193154391Y-84161178D01*
X193175544Y-83722180D01*
X193366741Y-82759092D01*
X193699899Y-81828347D01*
X194172928Y-80946887D01*
X194783740Y-80131659D01*
X195530246Y-79399605D01*
X195535811Y-79394926D01*
X195903152Y-79074889D01*
X196154164Y-78817933D01*
X196310282Y-78588682D01*
X196375646Y-78401334D01*
X198204666Y-78401334D01*
X198437500Y-78399474D01*
X198655472Y-78363221D01*
X198934109Y-78273918D01*
X199051333Y-78225070D01*
X199616934Y-77927626D01*
X200266860Y-77514130D01*
X200980174Y-77001170D01*
X201735934Y-76405332D01*
X202513202Y-75743205D01*
X203291038Y-75031374D01*
X204048504Y-74286428D01*
X204133655Y-74199082D01*
X204135961Y-74196636D01*
X206007379Y-74196636D01*
X206015252Y-74317000D01*
X206136653Y-74794754D01*
X206419940Y-75236043D01*
X206860914Y-75637404D01*
X207455376Y-75995374D01*
X208199126Y-76306491D01*
X208576333Y-76428770D01*
X209159843Y-76556276D01*
X209855688Y-76632684D01*
X210614728Y-76657874D01*
X211387819Y-76631726D01*
X212125820Y-76554124D01*
X212725000Y-76438807D01*
X213418727Y-76218108D01*
X214008820Y-75931073D01*
X214483525Y-75589515D01*
X214831089Y-75205246D01*
X215039759Y-74790077D01*
X215097781Y-74355822D01*
X215056619Y-74095539D01*
X214850004Y-73628531D01*
X214498544Y-73172994D01*
X214026706Y-72742970D01*
X213959712Y-72696895D01*
X215757231Y-72696895D01*
X215770618Y-72881754D01*
X215906538Y-73152971D01*
X216150633Y-73497230D01*
X216488546Y-73901213D01*
X216905920Y-74351603D01*
X217388396Y-74835085D01*
X217921619Y-75338342D01*
X218491231Y-75848057D01*
X219082874Y-76350913D01*
X219682192Y-76833593D01*
X220274826Y-77282782D01*
X220846421Y-77685162D01*
X221382617Y-78027417D01*
X221698757Y-78207776D01*
X222078757Y-78381089D01*
X222411657Y-78473823D01*
X222525166Y-78484077D01*
X222842666Y-78486000D01*
X222842666Y-77835243D01*
X222761562Y-76916692D01*
X222525695Y-76025454D01*
X222146234Y-75188748D01*
X221634349Y-74433796D01*
X221291125Y-74053997D01*
X220631749Y-73484766D01*
X219925656Y-73057070D01*
X219133968Y-72749732D01*
X218679693Y-72631378D01*
X218174758Y-72538938D01*
X217651703Y-72479574D01*
X217139644Y-72452631D01*
X216667701Y-72457458D01*
X216264992Y-72493401D01*
X215960633Y-72559807D01*
X215783744Y-72656024D01*
X215757231Y-72696895D01*
X213959712Y-72696895D01*
X213458959Y-72352502D01*
X212819771Y-72015633D01*
X212133611Y-71746405D01*
X211424946Y-71558861D01*
X210718245Y-71467043D01*
X210464619Y-71460137D01*
X209719910Y-71523908D01*
X208960438Y-71700695D01*
X208219308Y-71974708D01*
X207529623Y-72330160D01*
X206924486Y-72751261D01*
X206437002Y-73222223D01*
X206247838Y-73471298D01*
X206089652Y-73732165D01*
X206017124Y-73946222D01*
X206007379Y-74196636D01*
X204135961Y-74196636D01*
X204594000Y-73710876D01*
X204932561Y-73318039D01*
X205158027Y-73008000D01*
X205279083Y-72768189D01*
X205304416Y-72586034D01*
X205289607Y-72526272D01*
X205180389Y-72446983D01*
X204915443Y-72383951D01*
X204588738Y-72344169D01*
X203557323Y-72320394D01*
X202584648Y-72441123D01*
X201681489Y-72697239D01*
X200858621Y-73079624D01*
X200126820Y-73579160D01*
X199496858Y-74186729D01*
X198979513Y-74893214D01*
X198585559Y-75689496D01*
X198325771Y-76566457D01*
X198210923Y-77514980D01*
X198206136Y-77745167D01*
X198204666Y-78401334D01*
X196375646Y-78401334D01*
X196392943Y-78351757D01*
X196423583Y-78071779D01*
X196426108Y-77925591D01*
X196484693Y-77090556D01*
X196648544Y-76221317D01*
X196902384Y-75375668D01*
X197230936Y-74611404D01*
X197368398Y-74360789D01*
X197651280Y-73955748D01*
X198041037Y-73502156D01*
X198499039Y-73038078D01*
X198986659Y-72601579D01*
X199465265Y-72230722D01*
X199667464Y-72095357D01*
X200325929Y-71680200D01*
X199798073Y-71489068D01*
X199364218Y-71288099D01*
X199078966Y-71046830D01*
X198923278Y-70748830D01*
X198917793Y-70729351D01*
X198786826Y-70563633D01*
X198531782Y-70449209D01*
X198214946Y-70304101D01*
X197906110Y-70079750D01*
X197652153Y-69818289D01*
X197499953Y-69561851D01*
X197484199Y-69507688D01*
X197358857Y-69267784D01*
X197090340Y-68997684D01*
X197019658Y-68940897D01*
X196672727Y-68619169D01*
X196416604Y-68275615D01*
X196276271Y-67947623D01*
X196257333Y-67800064D01*
X196197317Y-67602604D01*
X196051434Y-67401750D01*
X196037427Y-67388259D01*
X195766305Y-67055349D01*
X195574892Y-66662547D01*
X195495827Y-66278423D01*
X195495333Y-66249391D01*
X195419798Y-65897675D01*
X195291981Y-65674518D01*
X195079698Y-65300218D01*
X194977033Y-64909788D01*
X194996504Y-64569710D01*
X195012920Y-64336569D01*
X194903688Y-64112403D01*
X194891649Y-64095873D01*
X194710923Y-63717206D01*
X194689611Y-63475974D01*
X195918666Y-63475974D01*
X195978145Y-63626378D01*
X196134469Y-63842932D01*
X196354468Y-64083299D01*
X196501309Y-64219667D01*
X196826724Y-64514614D01*
X197015692Y-64722315D01*
X197069604Y-64853882D01*
X196989850Y-64920429D01*
X196777820Y-64933070D01*
X196588870Y-64919516D01*
X196348398Y-64902047D01*
X196242237Y-64918515D01*
X196236870Y-64980328D01*
X196261127Y-65031089D01*
X196356408Y-65155903D01*
X196541880Y-65360308D01*
X196784132Y-65608151D01*
X196892255Y-65714068D01*
X197135612Y-65956221D01*
X197323903Y-66156653D01*
X197429481Y-66285304D01*
X197442666Y-66312446D01*
X197368183Y-66356230D01*
X197185053Y-66378100D01*
X197146333Y-66378667D01*
X196950425Y-66397041D01*
X196852544Y-66442219D01*
X196850000Y-66451788D01*
X196917536Y-66578874D01*
X197103033Y-66772016D01*
X197380825Y-67007576D01*
X197725245Y-67261918D01*
X197742967Y-67274162D01*
X197977679Y-67444642D01*
X198143907Y-67582233D01*
X198204666Y-67655298D01*
X198129814Y-67706628D01*
X197941715Y-67760715D01*
X197849853Y-67778395D01*
X197495041Y-67838340D01*
X197784649Y-68074707D01*
X198000477Y-68225008D01*
X198310931Y-68409909D01*
X198656320Y-68594296D01*
X198729493Y-68630538D01*
X199052377Y-68795580D01*
X199238847Y-68913178D01*
X199309565Y-68999144D01*
X199292330Y-69061334D01*
X199144963Y-69143347D01*
X198956299Y-69172667D01*
X198782442Y-69194833D01*
X198712666Y-69246266D01*
X198787000Y-69320620D01*
X198984304Y-69429326D01*
X199266034Y-69555879D01*
X199593644Y-69683773D01*
X199928589Y-69796504D01*
X200130833Y-69853537D01*
X200427539Y-69954308D01*
X200556135Y-70064127D01*
X200517709Y-70185286D01*
X200344760Y-70304068D01*
X200114187Y-70424878D01*
X200571794Y-70560772D01*
X200939173Y-70641485D01*
X201345226Y-70690175D01*
X201515109Y-70696667D01*
X201806057Y-70705290D01*
X202040304Y-70727490D01*
X202134741Y-70748059D01*
X202254726Y-70857675D01*
X202234086Y-71008206D01*
X202099333Y-71139649D01*
X201967122Y-71250811D01*
X201930000Y-71321254D01*
X202008036Y-71354696D01*
X202219620Y-71365088D01*
X202530964Y-71355313D01*
X202908279Y-71328254D01*
X203317778Y-71286794D01*
X203725671Y-71233816D01*
X204098171Y-71172203D01*
X204370154Y-71113055D01*
X205142527Y-70861591D01*
X205822045Y-70531390D01*
X206375512Y-70138989D01*
X206437812Y-70083031D01*
X206709197Y-69789819D01*
X206953634Y-69451199D01*
X207143260Y-69113374D01*
X207250211Y-68822543D01*
X207264000Y-68713111D01*
X207196252Y-68544528D01*
X207004544Y-68297946D01*
X206706178Y-67988738D01*
X206318455Y-67632278D01*
X205858677Y-67243941D01*
X205344145Y-66839102D01*
X204792162Y-66433135D01*
X204368666Y-66140301D01*
X204036455Y-65919588D01*
X203712576Y-65710921D01*
X203373155Y-65500114D01*
X202994319Y-65272982D01*
X202552192Y-65015338D01*
X202022900Y-64712997D01*
X201382569Y-64351773D01*
X200956333Y-64112740D01*
X200496239Y-63853192D01*
X200173906Y-63665241D01*
X199992040Y-63547819D01*
X199953347Y-63499862D01*
X200060535Y-63520303D01*
X200316310Y-63608077D01*
X200723381Y-63762117D01*
X201284452Y-63981357D01*
X201287210Y-63982442D01*
X202595102Y-64536071D01*
X203883433Y-65156083D01*
X205117462Y-65823380D01*
X206262452Y-66518859D01*
X207283662Y-67223421D01*
X207552308Y-67427188D01*
X208051264Y-67814635D01*
X208388349Y-67625818D01*
X208828148Y-67290818D01*
X209184624Y-66844584D01*
X209432035Y-66330619D01*
X209544640Y-65792425D01*
X209548748Y-65664800D01*
X209541319Y-65602317D01*
X211459876Y-65602317D01*
X211518880Y-66222838D01*
X211720513Y-66770859D01*
X212062407Y-67237220D01*
X212542198Y-67612762D01*
X212686667Y-67693069D01*
X212791296Y-67740578D01*
X212888868Y-67752338D01*
X213008251Y-67714920D01*
X213178317Y-67614893D01*
X213427935Y-67438830D01*
X213756017Y-67195650D01*
X215052196Y-66306511D01*
X216488175Y-65464950D01*
X218037731Y-64685210D01*
X219667666Y-63984295D01*
X220267733Y-63748806D01*
X220716695Y-63577486D01*
X221019687Y-63469214D01*
X221181844Y-63422869D01*
X221208300Y-63437330D01*
X221104191Y-63511476D01*
X220874652Y-63644186D01*
X220641333Y-63771739D01*
X220016648Y-64109872D01*
X219508083Y-64388164D01*
X219082021Y-64625849D01*
X218704843Y-64842159D01*
X218342934Y-65056329D01*
X217962677Y-65287592D01*
X217602445Y-65510403D01*
X216880494Y-65972595D01*
X216186141Y-66442681D01*
X215538353Y-66906112D01*
X214956095Y-67348339D01*
X214458335Y-67754814D01*
X214064039Y-68110988D01*
X213792174Y-68402312D01*
X213736862Y-68475548D01*
X213683217Y-68690810D01*
X213747946Y-68978850D01*
X213912136Y-69313319D01*
X214156873Y-69667868D01*
X214463244Y-70016147D01*
X214812338Y-70331808D01*
X215185239Y-70588502D01*
X215297013Y-70649104D01*
X215811631Y-70868837D01*
X216420029Y-71064874D01*
X217046664Y-71215237D01*
X217481457Y-71284617D01*
X217890379Y-71324955D01*
X218283152Y-71351144D01*
X218625231Y-71362336D01*
X218882069Y-71357684D01*
X219019120Y-71336340D01*
X219032666Y-71322685D01*
X218972946Y-71240493D01*
X218827889Y-71110383D01*
X218814961Y-71100124D01*
X218682488Y-70965462D01*
X218679471Y-70862549D01*
X218815944Y-70785536D01*
X219101940Y-70728572D01*
X219522485Y-70687610D01*
X219900633Y-70647728D01*
X220250259Y-70589614D01*
X220509508Y-70524114D01*
X220556666Y-70506278D01*
X220853000Y-70378830D01*
X220613284Y-70283227D01*
X220454926Y-70188883D01*
X220404950Y-70093679D01*
X220405602Y-70091526D01*
X220494871Y-70023613D01*
X220708096Y-69920571D01*
X221008105Y-69799343D01*
X221195650Y-69731398D01*
X221554186Y-69598722D01*
X221872671Y-69466944D01*
X222101800Y-69357030D01*
X222163005Y-69320017D01*
X222372344Y-69172667D01*
X222148763Y-69172667D01*
X221880005Y-69144615D01*
X221703373Y-69070956D01*
X221657333Y-68993622D01*
X221727720Y-68920351D01*
X221911589Y-68803767D01*
X222149614Y-68678896D01*
X222500297Y-68493897D01*
X222866498Y-68277727D01*
X223059780Y-68151656D01*
X223477666Y-67862881D01*
X223117833Y-67786078D01*
X222867390Y-67720892D01*
X222774668Y-67654923D01*
X222829010Y-67569420D01*
X222948500Y-67488115D01*
X223141574Y-67356299D01*
X223386384Y-67170673D01*
X223648173Y-66960169D01*
X223892186Y-66753718D01*
X224083666Y-66580252D01*
X224187857Y-66468704D01*
X224197333Y-66448550D01*
X224122186Y-66404780D01*
X223934471Y-66380444D01*
X223858666Y-66378667D01*
X223646839Y-66364584D01*
X223529487Y-66329403D01*
X223521095Y-66315167D01*
X223578174Y-66231618D01*
X223730255Y-66060643D01*
X223950154Y-65832049D01*
X224078159Y-65704357D01*
X224333200Y-65446316D01*
X224544988Y-65219174D01*
X224681243Y-65058109D01*
X224709310Y-65016568D01*
X224735803Y-64931792D01*
X224669522Y-64900396D01*
X224476894Y-64910989D01*
X224417280Y-64917478D01*
X224142242Y-64927772D01*
X224006702Y-64875472D01*
X224010803Y-64752378D01*
X224154687Y-64550291D01*
X224428549Y-64270462D01*
X224679748Y-64020224D01*
X224890319Y-63790149D01*
X225022224Y-63622309D01*
X225037282Y-63597218D01*
X225089625Y-63483186D01*
X225063454Y-63430438D01*
X224925814Y-63421100D01*
X224732061Y-63431675D01*
X224487915Y-63442199D01*
X224369472Y-63416250D01*
X224333500Y-63329015D01*
X224334836Y-63203667D01*
X224383043Y-63000791D01*
X224498696Y-62719723D01*
X224645322Y-62441667D01*
X224945306Y-61933667D01*
X224084486Y-61880542D01*
X223709431Y-61857125D01*
X223390934Y-61836742D01*
X223171441Y-61822136D01*
X223101992Y-61817042D01*
X223058701Y-61768286D01*
X223148113Y-61634198D01*
X223209011Y-61567963D01*
X223340630Y-61403831D01*
X223387044Y-61288750D01*
X223380074Y-61271630D01*
X223247967Y-61229773D01*
X222994723Y-61215529D01*
X222665920Y-61226858D01*
X222307137Y-61261719D01*
X221963954Y-61318069D01*
X221869000Y-61339307D01*
X221582773Y-61404950D01*
X221356270Y-61450639D01*
X221255166Y-61464984D01*
X221160708Y-61411817D01*
X221175447Y-61264355D01*
X221294609Y-61053542D01*
X221324811Y-61013752D01*
X221429235Y-60859378D01*
X221418178Y-60796299D01*
X221377866Y-60790667D01*
X221245013Y-60811513D01*
X220994425Y-60866584D01*
X220671492Y-60944681D01*
X220321605Y-61034604D01*
X219990155Y-61125152D01*
X219815833Y-61176085D01*
X219663855Y-61182025D01*
X219628271Y-61084110D01*
X219707595Y-60900052D01*
X219855866Y-60699020D01*
X220086399Y-60425047D01*
X219877032Y-60474966D01*
X219458510Y-60580298D01*
X219153680Y-60673752D01*
X218909709Y-60774139D01*
X218673761Y-60900269D01*
X218660173Y-60908206D01*
X218429742Y-61034597D01*
X218255445Y-61114635D01*
X218201148Y-61129333D01*
X218094832Y-61061741D01*
X218062877Y-60899904D01*
X218112967Y-60705230D01*
X218141745Y-60654716D01*
X218236386Y-60495097D01*
X218270666Y-60410925D01*
X218207193Y-60406899D01*
X218041628Y-60477983D01*
X217811250Y-60603113D01*
X217553338Y-60761225D01*
X217305171Y-60931257D01*
X217180778Y-61026723D01*
X216899105Y-61213682D01*
X216697490Y-61254732D01*
X216578953Y-61150532D01*
X216546513Y-60901737D01*
X216547046Y-60888866D01*
X216547539Y-60713098D01*
X216495541Y-60678860D01*
X216346364Y-60760475D01*
X216335379Y-60767243D01*
X216153220Y-60900480D01*
X215911330Y-61103890D01*
X215717601Y-61281223D01*
X215501782Y-61466330D01*
X215324892Y-61580619D01*
X215230768Y-61600007D01*
X215167944Y-61483729D01*
X215138338Y-61276466D01*
X215138000Y-61251337D01*
X215118633Y-61057432D01*
X215071115Y-60962047D01*
X215062128Y-60960000D01*
X214976686Y-61018208D01*
X214803595Y-61175913D01*
X214569576Y-61407734D01*
X214349071Y-61637333D01*
X214087730Y-61910711D01*
X213868970Y-62131249D01*
X213718321Y-62273737D01*
X213663185Y-62314667D01*
X213601959Y-62244872D01*
X213516599Y-62074188D01*
X213505558Y-62047716D01*
X213396630Y-61780764D01*
X212976148Y-62253078D01*
X212343933Y-63088427D01*
X211849710Y-64012707D01*
X211779216Y-64180410D01*
X211545866Y-64918455D01*
X211459876Y-65602317D01*
X209541319Y-65602317D01*
X209484102Y-65121096D01*
X209304899Y-64502009D01*
X209026092Y-63841247D01*
X208662634Y-63172519D01*
X208229477Y-62529531D01*
X208062888Y-62315215D01*
X207802150Y-62011032D01*
X207619697Y-61846895D01*
X207504869Y-61818760D01*
X207447005Y-61922583D01*
X207434629Y-62076837D01*
X207404839Y-62224003D01*
X207312643Y-62255623D01*
X207148286Y-62166530D01*
X206902014Y-61951557D01*
X206583163Y-61625891D01*
X206297601Y-61325763D01*
X206106600Y-61137862D01*
X205991504Y-61048495D01*
X205933657Y-61043966D01*
X205914404Y-61110583D01*
X205913478Y-61134318D01*
X205863160Y-61370794D01*
X205790208Y-61513881D01*
X205721862Y-61590242D01*
X205646794Y-61601560D01*
X205532256Y-61532593D01*
X205345499Y-61368098D01*
X205216472Y-61246840D01*
X204964588Y-61019100D01*
X204734692Y-60829207D01*
X204575062Y-60716958D01*
X204570869Y-60714672D01*
X204436709Y-60655322D01*
X204408590Y-60708730D01*
X204434974Y-60831973D01*
X204426882Y-61081136D01*
X204338328Y-61219162D01*
X204229877Y-61325259D01*
X204142152Y-61329014D01*
X204009757Y-61224747D01*
X203968460Y-61187039D01*
X203436892Y-60776555D01*
X202887411Y-60482463D01*
X202688351Y-60402567D01*
X202619942Y-60392262D01*
X202657084Y-60454693D01*
X202700297Y-60505897D01*
X202869948Y-60773585D01*
X202883753Y-60995283D01*
X202858349Y-61049494D01*
X202786204Y-61107571D01*
X202660277Y-61083605D01*
X202447509Y-60975518D01*
X202188409Y-60848272D01*
X201862956Y-60713362D01*
X201524382Y-60590016D01*
X201225920Y-60497462D01*
X201020802Y-60454931D01*
X201003992Y-60454082D01*
X200969102Y-60501479D01*
X201066262Y-60641731D01*
X201120824Y-60700946D01*
X201262498Y-60897899D01*
X201310343Y-61069140D01*
X201265568Y-61177034D01*
X201129378Y-61183942D01*
X201105600Y-61175682D01*
X200903700Y-61109244D01*
X200613266Y-61026500D01*
X200285191Y-60940365D01*
X199970369Y-60863755D01*
X199719692Y-60809585D01*
X199588464Y-60790667D01*
X199506132Y-60807756D01*
X199536267Y-60881657D01*
X199629241Y-60986624D01*
X199797717Y-61207254D01*
X199815720Y-61350266D01*
X199683285Y-61415634D01*
X199400447Y-61403337D01*
X199092116Y-61343708D01*
X198726297Y-61275183D01*
X198352363Y-61232093D01*
X198011366Y-61215993D01*
X197744358Y-61228435D01*
X197592394Y-61270975D01*
X197577272Y-61286360D01*
X197602536Y-61385914D01*
X197722799Y-61536126D01*
X197748988Y-61561526D01*
X197965425Y-61764334D01*
X197725212Y-61817816D01*
X197530075Y-61843679D01*
X197222563Y-61865382D01*
X196859635Y-61879228D01*
X196747027Y-61881316D01*
X196009054Y-61891334D01*
X196343669Y-62505167D01*
X196501006Y-62817144D01*
X196618934Y-63095422D01*
X196676810Y-63289964D01*
X196679475Y-63319114D01*
X196667703Y-63439729D01*
X196600732Y-63488126D01*
X196433974Y-63481090D01*
X196299666Y-63462092D01*
X196074042Y-63442142D01*
X195937389Y-63456839D01*
X195918666Y-63475974D01*
X194689611Y-63475974D01*
X194673781Y-63296802D01*
X194784516Y-62889210D01*
X194795053Y-62868111D01*
X194894746Y-62645344D01*
X194913302Y-62469854D01*
X194856916Y-62248587D01*
X194839674Y-62197843D01*
X194773694Y-61782365D01*
X194856735Y-61407108D01*
X195069000Y-61099051D01*
X195390696Y-60885174D01*
X195802027Y-60792458D01*
X195872102Y-60790667D01*
X196187934Y-60760693D01*
X196430713Y-60650933D01*
X196541444Y-60566170D01*
X196926955Y-60303976D01*
X197344964Y-60159561D01*
X197853108Y-60113412D01*
X197878990Y-60113334D01*
X198205299Y-60100115D01*
X198419133Y-60051133D01*
X198575946Y-59952400D01*
X198598656Y-59931797D01*
X198793179Y-59809575D01*
X199090016Y-59728706D01*
X199366113Y-59691486D01*
X199704071Y-59639933D01*
X200010142Y-59564444D01*
X200194333Y-59492544D01*
X200491377Y-59394014D01*
X200868192Y-59355205D01*
X201244792Y-59379699D01*
X201463579Y-59435714D01*
X201699247Y-59472589D01*
X201930553Y-59393380D01*
X202288359Y-59288456D01*
X202712917Y-59284810D01*
X203136459Y-59380865D01*
X203242333Y-59423908D01*
X203554040Y-59524000D01*
X203917116Y-59548850D01*
X204093383Y-59540086D01*
X204425814Y-59530619D01*
X204663507Y-59569269D01*
X204877242Y-59668412D01*
X204897716Y-59680722D01*
X205205298Y-59809884D01*
X205596884Y-59857909D01*
X205680704Y-59859017D01*
X206126375Y-59897700D01*
X206479556Y-60030547D01*
X206802849Y-60283748D01*
X206877673Y-60359775D01*
X207098336Y-60544645D01*
X207333974Y-60615844D01*
X207457270Y-60621334D01*
X207824586Y-60700273D01*
X208223814Y-60927092D01*
X208640568Y-61286787D01*
X209060458Y-61764357D01*
X209469097Y-62344801D01*
X209852096Y-63013116D01*
X209961962Y-63232876D01*
X210117125Y-63562721D01*
X210247148Y-63855542D01*
X210330638Y-64062570D01*
X210344897Y-64105708D01*
X210381020Y-64179615D01*
X210431807Y-64157303D01*
X210510366Y-64020002D01*
X210629804Y-63748939D01*
X210682154Y-63622728D01*
X210979831Y-62988193D01*
X211329590Y-62390280D01*
X211714132Y-61848401D01*
X212116157Y-61381969D01*
X212518364Y-61010398D01*
X212903455Y-60753099D01*
X213254129Y-60629485D01*
X213356862Y-60621334D01*
X213620179Y-60579723D01*
X213845049Y-60430008D01*
X213915659Y-60359775D01*
X214248571Y-60070815D01*
X214598256Y-59913218D01*
X215028309Y-59859994D01*
X215094835Y-59859334D01*
X215634347Y-59790505D01*
X215917888Y-59680874D01*
X216180524Y-59572949D01*
X216451436Y-59531719D01*
X216782349Y-59541928D01*
X217152263Y-59549540D01*
X217433430Y-59498035D01*
X217611127Y-59424055D01*
X218006942Y-59297326D01*
X218429632Y-59277629D01*
X218807465Y-59366888D01*
X218857481Y-59390641D01*
X219110856Y-59469951D01*
X219381884Y-59432974D01*
X219816582Y-59359739D01*
X220252035Y-59373658D01*
X220618812Y-59471394D01*
X220666704Y-59494704D01*
X220900284Y-59581982D01*
X221221675Y-59658215D01*
X221471409Y-59695912D01*
X221873062Y-59767790D01*
X222137379Y-59885585D01*
X222196533Y-59933541D01*
X222345880Y-60038647D01*
X222544077Y-60094508D01*
X222844702Y-60114341D01*
X222932790Y-60115193D01*
X223474947Y-60171777D01*
X223937182Y-60329566D01*
X224285616Y-60576459D01*
X224316288Y-60609376D01*
X224475199Y-60730502D01*
X224704616Y-60783620D01*
X224893355Y-60790667D01*
X225335631Y-60838573D01*
X225664757Y-60992903D01*
X225910699Y-61269576D01*
X225961961Y-61358348D01*
X226042361Y-61637344D01*
X226051607Y-61986070D01*
X225988526Y-62320060D01*
X225975799Y-62355775D01*
X225939037Y-62548911D01*
X225992876Y-62763804D01*
X226060465Y-62908247D01*
X226191276Y-63221625D01*
X226214327Y-63486311D01*
X226128478Y-63772975D01*
X226043715Y-63947873D01*
X225883407Y-64432791D01*
X225853215Y-64770000D01*
X225828457Y-65094969D01*
X225742121Y-65355619D01*
X225573166Y-65631922D01*
X225358102Y-66026428D01*
X225298000Y-66324910D01*
X225237951Y-66758013D01*
X225042631Y-67118258D01*
X224890534Y-67284531D01*
X224702853Y-67535923D01*
X224590557Y-67818626D01*
X224588408Y-67829705D01*
X224425442Y-68272569D01*
X224113300Y-68691496D01*
X223811542Y-68958845D01*
X223525598Y-69243163D01*
X223302904Y-69588612D01*
X223292517Y-69610915D01*
X223036941Y-69988413D01*
X222666814Y-70294184D01*
X222234391Y-70485651D01*
X222211686Y-70491557D01*
X221993511Y-70628501D01*
X221877670Y-70812435D01*
X221717718Y-71091262D01*
X221485675Y-71299785D01*
X221140688Y-71470479D01*
X220972931Y-71531683D01*
X220514333Y-71688639D01*
X220929391Y-71933486D01*
X221842102Y-72556300D01*
X222622608Y-73266940D01*
X223263417Y-74056531D01*
X223757041Y-74916196D01*
X224027307Y-75605166D01*
X224150862Y-76051739D01*
X224265329Y-76572105D01*
X224360391Y-77107893D01*
X224425730Y-77600735D01*
X224451029Y-77992260D01*
X224451062Y-78002540D01*
X224479625Y-78262858D01*
X224552844Y-78549011D01*
X224652478Y-78812616D01*
X224760287Y-79005289D01*
X224856772Y-79078667D01*
X224974397Y-79136007D01*
X225176683Y-79289648D01*
X225432832Y-79512023D01*
X225712050Y-79775564D01*
X225983538Y-80052705D01*
X226146748Y-80233391D01*
X226460673Y-80656026D01*
X226781534Y-81192074D01*
X227083162Y-81788880D01*
X227339391Y-82393792D01*
X227524052Y-82954155D01*
X227550514Y-83058000D01*
X227661978Y-83753136D01*
X227696850Y-84591646D01*
X227696688Y-84624334D01*
X227636310Y-85556612D01*
X227459352Y-86404686D01*
X227153082Y-87205412D01*
X226704767Y-87995648D01*
X226366766Y-88474165D01*
X226107222Y-88854028D01*
X225934896Y-89210388D01*
X225808433Y-89629935D01*
X225801283Y-89659498D01*
X225693024Y-90062808D01*
X225550774Y-90528087D01*
X225403750Y-90960212D01*
X225391535Y-90993542D01*
X225256634Y-91390198D01*
X225108772Y-91874548D01*
X224971133Y-92368854D01*
X224911740Y-92602208D01*
X224562911Y-93694700D01*
X224070624Y-94698405D01*
X223464910Y-95577866D01*
X222961649Y-96136518D01*
X222375427Y-96670102D01*
X221755935Y-97137874D01*
X221152864Y-97499085D01*
X221074806Y-97537757D01*
X220811971Y-97664208D01*
X220614279Y-97761684D01*
X220448478Y-97850148D01*
X220281315Y-97949559D01*
X220079538Y-98079882D01*
X219809894Y-98261076D01*
X219439130Y-98513105D01*
X219356848Y-98569055D01*
X218534685Y-99097867D01*
X217725416Y-99561114D01*
X216966845Y-99938189D01*
X216450373Y-100153380D01*
X216025938Y-100364413D01*
X215607144Y-100661938D01*
X215513444Y-100743679D01*
X214852024Y-101274597D01*
X214095421Y-101758290D01*
X213296245Y-102166092D01*
X212507106Y-102469341D01*
X212174666Y-102562741D01*
X211690240Y-102651050D01*
X211104260Y-102712233D01*
X210482815Y-102743021D01*
X209891996Y-102740142D01*
X209397893Y-102700327D01*
X209396995Y-102700201D01*
X208324167Y-102465110D01*
X207301970Y-102068930D01*
X206333211Y-101513012D01*
X205420699Y-100798707D01*
X205393285Y-100773998D01*
X204825707Y-100361751D01*
X204343000Y-100127192D01*
X203611734Y-99805104D01*
X202818804Y-99394769D01*
X202021985Y-98927974D01*
X201560357Y-98623509D01*
X205655333Y-98623509D01*
X205731513Y-98922938D01*
X205945255Y-99261364D01*
X206274359Y-99621657D01*
X206696625Y-99986688D01*
X207189853Y-100339325D01*
X207731843Y-100662441D01*
X208300396Y-100938904D01*
X208873313Y-101151585D01*
X208968196Y-101179781D01*
X209372421Y-101261285D01*
X209883360Y-101315335D01*
X210442831Y-101340399D01*
X210992654Y-101334947D01*
X211474648Y-101297446D01*
X211735007Y-101252615D01*
X212115099Y-101131545D01*
X212583583Y-100935131D01*
X213092220Y-100688060D01*
X213592773Y-100415021D01*
X214037006Y-100140701D01*
X214343126Y-99917773D01*
X214824123Y-99473921D01*
X215157999Y-99052768D01*
X215341883Y-98661699D01*
X215372908Y-98308102D01*
X215248202Y-97999362D01*
X215137105Y-97873831D01*
X214848610Y-97668151D01*
X214431500Y-97456243D01*
X213925015Y-97254195D01*
X213368397Y-97078098D01*
X212936666Y-96971664D01*
X212422120Y-96891146D01*
X211789904Y-96838021D01*
X211088662Y-96812307D01*
X210367039Y-96814023D01*
X209673677Y-96843189D01*
X209057220Y-96899825D01*
X208628345Y-96969940D01*
X207811905Y-97173675D01*
X207111050Y-97406942D01*
X206535851Y-97664138D01*
X206096378Y-97939664D01*
X205802702Y-98227918D01*
X205664893Y-98523298D01*
X205655333Y-98623509D01*
X201560357Y-98623509D01*
X201311040Y-98459073D01*
X200936054Y-98206138D01*
G37*
G36*
X139166276Y-70891807D02*
G01*
X139316382Y-71054817D01*
X139538408Y-71312369D01*
X139816549Y-71644735D01*
X140135001Y-72032185D01*
X140477960Y-72454990D01*
X140829621Y-72893424D01*
X141174179Y-73327756D01*
X141495831Y-73738259D01*
X141778773Y-74105204D01*
X142007199Y-74408862D01*
X142165305Y-74629505D01*
X142237287Y-74747404D01*
X142240000Y-74757851D01*
X142179447Y-74832646D01*
X142009092Y-75003720D01*
X141745888Y-75255076D01*
X141406789Y-75570717D01*
X141008750Y-75934642D01*
X140652500Y-76255870D01*
X140196361Y-76664875D01*
X139763363Y-77053444D01*
X139375468Y-77401842D01*
X139054638Y-77690337D01*
X138822837Y-77899195D01*
X138726333Y-77986513D01*
X138556488Y-78139832D01*
X138295546Y-78374119D01*
X137965898Y-78669385D01*
X137589938Y-79005641D01*
X137190057Y-79362899D01*
X136788648Y-79721170D01*
X136408102Y-80060466D01*
X136070813Y-80360797D01*
X135799171Y-80602175D01*
X135615571Y-80764610D01*
X135551333Y-80820720D01*
X135456847Y-80866415D01*
X135339662Y-80827352D01*
X135160099Y-80686296D01*
X135084050Y-80617779D01*
X134896142Y-80445374D01*
X134617581Y-80189265D01*
X134282181Y-79880562D01*
X133923753Y-79550376D01*
X133825342Y-79459667D01*
X133494769Y-79156582D01*
X133204695Y-78893739D01*
X132979551Y-78693040D01*
X132843770Y-78576387D01*
X132819193Y-78557678D01*
X132860434Y-78487896D01*
X132998605Y-78301518D01*
X133222523Y-78012276D01*
X133521002Y-77633898D01*
X133882857Y-77180114D01*
X134296902Y-76664655D01*
X134751954Y-76101251D01*
X135236826Y-75503630D01*
X135740334Y-74885524D01*
X136251293Y-74260662D01*
X136758517Y-73642774D01*
X137250821Y-73045590D01*
X137717022Y-72482839D01*
X138145932Y-71968253D01*
X138526368Y-71515560D01*
X138847144Y-71138491D01*
X139097075Y-70850776D01*
X139103894Y-70843066D01*
X139166276Y-70891807D01*
G37*
G36*
X128658223Y-73428718D02*
G01*
X128625454Y-73505497D01*
X128521623Y-73700400D01*
X128362548Y-73986204D01*
X128164046Y-74335683D01*
X127941933Y-74721615D01*
X127712026Y-75116775D01*
X127490142Y-75493939D01*
X127292097Y-75825884D01*
X127133710Y-76085386D01*
X127030795Y-76245220D01*
X126999728Y-76283324D01*
X126916825Y-76242696D01*
X126711973Y-76128901D01*
X126408715Y-75955410D01*
X126030597Y-75735690D01*
X125604434Y-75485144D01*
X125117564Y-75191202D01*
X124744109Y-74952599D01*
X124493827Y-74776070D01*
X124376476Y-74668347D01*
X124377040Y-74638034D01*
X124510729Y-74594789D01*
X124771702Y-74516574D01*
X125133932Y-74410741D01*
X125571390Y-74284642D01*
X126058050Y-74145628D01*
X126567884Y-74001053D01*
X127074864Y-73858267D01*
X127552963Y-73724624D01*
X127976152Y-73607475D01*
X128318405Y-73514173D01*
X128553694Y-73452068D01*
X128655990Y-73428515D01*
X128658223Y-73428718D01*
G37*
G36*
X129582333Y-63123783D02*
G01*
X129784382Y-63239022D01*
X130097127Y-63423918D01*
X130504044Y-63668549D01*
X130988611Y-63962991D01*
X131534301Y-64297320D01*
X132030564Y-64603411D01*
X132704930Y-65024177D01*
X133285027Y-65393476D01*
X133761252Y-65704867D01*
X134124005Y-65951907D01*
X134363682Y-66128157D01*
X134470681Y-66227174D01*
X134474717Y-66242951D01*
X134402421Y-66352430D01*
X134247979Y-66577998D01*
X134026951Y-66897442D01*
X133754898Y-67288548D01*
X133447380Y-67729105D01*
X133119957Y-68196898D01*
X132788189Y-68669715D01*
X132467637Y-69125344D01*
X132173860Y-69541571D01*
X131922420Y-69896184D01*
X131728876Y-70166969D01*
X131641318Y-70287740D01*
X131389092Y-70602393D01*
X131116619Y-70870827D01*
X130776116Y-71135721D01*
X130432705Y-71367240D01*
X130110483Y-71573417D01*
X129842217Y-71740257D01*
X129658459Y-71849073D01*
X129591158Y-71882000D01*
X129572876Y-71809459D01*
X129590507Y-71632264D01*
X129594999Y-71606834D01*
X129634237Y-71401308D01*
X129696228Y-71084436D01*
X129770247Y-70710865D01*
X129804549Y-70539180D01*
X129873956Y-70177181D01*
X129927970Y-69865795D01*
X129958911Y-69650804D01*
X129963333Y-69592688D01*
X129914174Y-69507628D01*
X129759344Y-69377251D01*
X129487809Y-69194194D01*
X129088537Y-68951091D01*
X128550494Y-68640580D01*
X128460389Y-68589572D01*
X127994642Y-68325178D01*
X127571623Y-68082666D01*
X127216442Y-67876620D01*
X126954208Y-67721624D01*
X126810030Y-67632265D01*
X126798556Y-67624279D01*
X126758578Y-67584408D01*
X126743522Y-67527067D01*
X126761835Y-67436807D01*
X126821962Y-67298177D01*
X126932349Y-67095727D01*
X127101443Y-66814009D01*
X127337689Y-66437570D01*
X127649533Y-65950963D01*
X128045421Y-65338736D01*
X128061742Y-65313548D01*
X128414335Y-64769603D01*
X128736604Y-64272779D01*
X129017216Y-63840520D01*
X129244838Y-63490271D01*
X129408139Y-63239473D01*
X129495785Y-63105571D01*
X129507505Y-63088127D01*
X129582333Y-63123783D01*
G37*
G36*
X124932371Y-60487911D02*
G01*
X125129546Y-60587173D01*
X125417747Y-60743563D01*
X125769617Y-60942534D01*
X125876896Y-61004517D01*
X126366015Y-61287751D01*
X126918490Y-61606599D01*
X127459449Y-61917900D01*
X127833741Y-62132577D01*
X128195765Y-62345457D01*
X128501531Y-62535998D01*
X128722030Y-62685335D01*
X128828251Y-62774600D01*
X128832803Y-62782300D01*
X128800894Y-62878945D01*
X128691467Y-63096507D01*
X128517445Y-63413659D01*
X128291750Y-63809073D01*
X128027306Y-64261423D01*
X127737037Y-64749381D01*
X127433864Y-65251620D01*
X127130712Y-65746815D01*
X126840504Y-66213637D01*
X126576162Y-66630760D01*
X126350610Y-66976856D01*
X126176771Y-67230599D01*
X126067568Y-67370663D01*
X126039828Y-67391518D01*
X125939771Y-67358881D01*
X125703989Y-67268047D01*
X125352548Y-67127176D01*
X124905515Y-66944426D01*
X124382955Y-66727956D01*
X123804935Y-66485926D01*
X123593233Y-66396684D01*
X123005216Y-66146103D01*
X122470992Y-65914069D01*
X122009671Y-65709232D01*
X121640364Y-65540243D01*
X121382183Y-65415751D01*
X121254237Y-65344407D01*
X121243733Y-65333257D01*
X121292069Y-65257501D01*
X121428225Y-65064873D01*
X121638422Y-64773974D01*
X121908883Y-64403402D01*
X122225829Y-63971756D01*
X122575483Y-63497634D01*
X122944068Y-62999635D01*
X123317804Y-62496357D01*
X123682915Y-62006399D01*
X124025623Y-61548361D01*
X124332149Y-61140840D01*
X124588717Y-60802435D01*
X124781548Y-60551745D01*
X124853577Y-60460326D01*
X124932371Y-60487911D01*
G37*
D13*
%TO.C,U$11*%
X208661000Y-67564000D02*
X208661000Y-67183000D01*
%TO.C,U$18*%
X94361000Y-44704000D02*
X94361000Y-44323000D01*
%TO.C,U$6*%
X150241000Y-125984000D02*
X150241000Y-125603000D01*
%TO.C,U$14*%
X185801000Y-90424000D02*
X185801000Y-90043000D01*
%TO.C,U$2*%
X96901000Y-80264000D02*
X96901000Y-79883000D01*
%TO.C,U$8*%
X117221000Y-44704000D02*
X117221000Y-44323000D01*
%TO.C,U$4*%
X119761000Y-80264000D02*
X119761000Y-79883000D01*
%TO.C,U$9*%
X162941000Y-72644000D02*
X162941000Y-72263000D01*
%TO.C,U$5*%
X140081000Y-87884000D02*
X140081000Y-87503000D01*
D14*
%TO.C,R4*%
X129777258Y-50277500D02*
X129302742Y-50277500D01*
X129777258Y-51322500D02*
X129302742Y-51322500D01*
%TD*%
M02*
