  0
SECTION
  2
HEADER
  9
$ANGBASE
  50
0.0
  9
$ANGDIR
  70
1
  9
$MEASUREMENT
  70
0
  0
ENDSEC
  0
SECTION
  2
TABLES
  0
TABLE
  2
LTYPE
  70
4
  0
LTYPE
  5
40F
  2
CONTINUOUS
  70
0
  3
Solid line
  72
65
  73
0
  40
0.0
  0
LTYPE
  5
410
  2
DASHDOT
 70
0
  3
Dash Dot ____ _ ____ _
 72
65
 73
4
 40
2.0
 49
1.25
 49
-0.25
 49
0.25
 49
-0.25
  0
LTYPE
  5
411
  2
DASHED
 70
0
  3
Dashed __ __ __ __ __
 72
65
 73
2
 40
0.75
 49
0.5
 49
-0.25
  0
LTYPE
  5
43B
  2
DOTTED
 70
0
  3
Dotted .  .  .  .
 72
65
 73
2
 40
0.2
 49
0.0
 49
-0.2
  0
ENDTAB
  0
TABLE
  2
STYLE
  70
4
  0
STYLE
  2
KICAD
  70
0
  40
0
  41
1
  42
1
  50
0
  71
0
  3
isocp.shx
  0
STYLE
  2
KICADB
  70
0
  40
0
  41
1
  42
1
  50
0
  71
0
  3
isocp.shx
  0
STYLE
  2
KICADI
  70
0
  40
0
  41
1
  42
1
  50
15
  71
0
  3
isocp.shx
  0
STYLE
  2
KICADBI
  70
0
  40
0
  41
1
  42
1
  50
15
  71
0
  3
isocp.shx
  0
ENDTAB
  0
TABLE
  2
LAYER
  70
1
  0
LAYER
  2
BLACK
  70
0
  62
7
  6
CONTINUOUS
  0
ENDTAB
  0
ENDSEC
  0
SECTION
  2
ENTITIES
0
LINE
8
BLACK
6
CONTINUOUS
10
10.0007
20
-1.6993
11
10.0007
21
-1.6993
0
LINE
8
BLACK
6
CONTINUOUS
10
10.0007
20
-1.6993
11
10.001
21
-1.7
0
LINE
8
BLACK
6
CONTINUOUS
10
10.001
20
-1.7
11
10.001
21
-5.1
0
LINE
8
BLACK
6
CONTINUOUS
10
10.001
20
-5.1
11
10.0007
21
-5.1007
0
LINE
8
BLACK
6
CONTINUOUS
10
10.0007
20
-5.1007
11
10.0007
21
-5.1007
0
LINE
8
BLACK
6
CONTINUOUS
10
10.0007
20
-5.1007
11
9.7007
21
-5.4007
0
LINE
8
BLACK
6
CONTINUOUS
10
9.7007
20
-5.4007
11
9.7
21
-5.40098
0
LINE
8
BLACK
6
CONTINUOUS
10
9.7
20
-5.40098
11
3.4
21
-5.40098
0
LINE
8
BLACK
6
CONTINUOUS
10
3.4
20
-5.40098
11
3.3993
21
-5.4007
0
LINE
8
BLACK
6
CONTINUOUS
10
3.3993
20
-5.4007
11
3.3993
21
-5.4007
0
LINE
8
BLACK
6
CONTINUOUS
10
3.3993
20
-5.4007
11
3.0993
21
-5.1007
0
LINE
8
BLACK
6
CONTINUOUS
10
3.0993
20
-5.1007
11
3.09902
21
-5.1
0
LINE
8
BLACK
6
CONTINUOUS
10
3.09902
20
-5.1
11
3.09902
21
-1.7
0
LINE
8
BLACK
6
CONTINUOUS
10
3.09902
20
-1.7
11
3.0993
21
-1.6993
0
LINE
8
BLACK
6
CONTINUOUS
10
3.0993
20
-1.6993
11
3.3993
21
-1.3993
0
LINE
8
BLACK
6
CONTINUOUS
10
3.3993
20
-1.3993
11
3.3993
21
-1.3993
0
LINE
8
BLACK
6
CONTINUOUS
10
3.3993
20
-1.3993
11
3.4
21
-1.39902
0
LINE
8
BLACK
6
CONTINUOUS
10
3.4
20
-1.39902
11
5.69959
21
-1.39902
0
LINE
8
BLACK
6
CONTINUOUS
10
5.69959
20
-1.39902
11
5.7993
21
-1.2993
0
LINE
8
BLACK
6
CONTINUOUS
10
5.7993
20
-1.2993
11
5.7993
21
-1.2993
0
LINE
8
BLACK
6
CONTINUOUS
10
5.7993
20
-1.2993
11
5.8
21
-1.29902
0
LINE
8
BLACK
6
CONTINUOUS
10
5.8
20
-1.29902
11
6.2
21
-1.29902
0
LINE
8
BLACK
6
CONTINUOUS
10
6.2
20
-1.29902
11
6.2007
21
-1.2993
0
LINE
8
BLACK
6
CONTINUOUS
10
6.2007
20
-1.2993
11
6.30041
21
-1.39902
0
LINE
8
BLACK
6
CONTINUOUS
10
6.30041
20
-1.39902
11
9.7
21
-1.39902
0
LINE
8
BLACK
6
CONTINUOUS
10
9.7
20
-1.39902
11
9.7007
21
-1.3993
0
LINE
8
BLACK
6
CONTINUOUS
10
9.7007
20
-1.3993
11
10.0007
21
-1.6993
0
LINE
8
BLACK
6
CONTINUOUS
10
3.10098
20
-1.70041
11
3.10098
21
-5.09959
0
LINE
8
BLACK
6
CONTINUOUS
10
3.10098
20
-5.09959
11
3.40041
21
-5.39902
0
LINE
8
BLACK
6
CONTINUOUS
10
3.40041
20
-5.39902
11
9.69959
21
-5.39902
0
LINE
8
BLACK
6
CONTINUOUS
10
9.69959
20
-5.39902
11
9.99902
21
-5.09959
0
LINE
8
BLACK
6
CONTINUOUS
10
9.99902
20
-5.09959
11
9.99902
21
-1.70041
0
LINE
8
BLACK
6
CONTINUOUS
10
9.99902
20
-1.70041
11
9.69959
21
-1.40098
0
LINE
8
BLACK
6
CONTINUOUS
10
9.69959
20
-1.40098
11
6.3
21
-1.40098
0
LINE
8
BLACK
6
CONTINUOUS
10
6.3
20
-1.40098
11
6.2993
21
-1.4007
0
LINE
8
BLACK
6
CONTINUOUS
10
6.2993
20
-1.4007
11
6.2993
21
-1.4007
0
LINE
8
BLACK
6
CONTINUOUS
10
6.2993
20
-1.4007
11
6.19959
21
-1.30098
0
LINE
8
BLACK
6
CONTINUOUS
10
6.19959
20
-1.30098
11
5.80041
21
-1.30098
0
LINE
8
BLACK
6
CONTINUOUS
10
5.80041
20
-1.30098
11
5.7007
21
-1.4007
0
LINE
8
BLACK
6
CONTINUOUS
10
5.7007
20
-1.4007
11
5.7
21
-1.40098
0
LINE
8
BLACK
6
CONTINUOUS
10
5.7
20
-1.40098
11
3.40041
21
-1.40098
0
LINE
8
BLACK
6
CONTINUOUS
10
3.40041
20
-1.40098
11
3.10098
21
-1.70041
  0
ENDSEC
  0
EOF
