  0
SECTION
  2
HEADER
  9
$ANGBASE
  50
0.0
  9
$ANGDIR
  70
1
  9
$MEASUREMENT
  70
0
  0
ENDSEC
  0
SECTION
  2
TABLES
  0
TABLE
  2
LTYPE
  70
4
  0
LTYPE
  5
40F
  2
CONTINUOUS
  70
0
  3
Solid line
  72
65
  73
0
  40
0.0
  0
LTYPE
  5
410
  2
DASHDOT
 70
0
  3
Dash Dot ____ _ ____ _
 72
65
 73
4
 40
2.0
 49
1.25
 49
-0.25
 49
0.25
 49
-0.25
  0
LTYPE
  5
411
  2
DASHED
 70
0
  3
Dashed __ __ __ __ __
 72
65
 73
2
 40
0.75
 49
0.5
 49
-0.25
  0
LTYPE
  5
43B
  2
DOTTED
 70
0
  3
Dotted .  .  .  .
 72
65
 73
2
 40
0.2
 49
0.0
 49
-0.2
  0
ENDTAB
  0
TABLE
  2
STYLE
  70
4
  0
STYLE
  2
KICAD
  70
0
  40
0
  41
1
  42
1
  50
0
  71
0
  3
isocp.shx
  0
STYLE
  2
KICADB
  70
0
  40
0
  41
1
  42
1
  50
0
  71
0
  3
isocp.shx
  0
STYLE
  2
KICADI
  70
0
  40
0
  41
1
  42
1
  50
15
  71
0
  3
isocp.shx
  0
STYLE
  2
KICADBI
  70
0
  40
0
  41
1
  42
1
  50
15
  71
0
  3
isocp.shx
  0
ENDTAB
  0
TABLE
  2
LAYER
  70
1
  0
LAYER
  2
BLACK
  70
0
  62
7
  6
CONTINUOUS
  0
ENDTAB
  0
ENDSEC
  0
SECTION
  2
ENTITIES
0
LINE
8
BLACK
6
CONTINUOUS
10
6.7943
20
-5.01515
11
6.79356
21
-5.01339
0
LINE
8
BLACK
6
CONTINUOUS
10
6.79356
20
-5.01339
11
6.79356
21
-4.75622
0
LINE
8
BLACK
6
CONTINUOUS
10
6.79356
20
-4.75622
11
6.73717
21
-4.75997
0
LINE
8
BLACK
6
CONTINUOUS
10
6.73717
20
-4.75997
11
6.73709
21
-4.75995
0
LINE
8
BLACK
6
CONTINUOUS
10
6.73709
20
-4.75995
11
6.73701
21
-4.75998
0
LINE
8
BLACK
6
CONTINUOUS
10
6.73701
20
-4.75998
11
6.73619
21
-4.75964
0
LINE
8
BLACK
6
CONTINUOUS
10
6.73619
20
-4.75964
11
6.73536
21
-4.75936
0
LINE
8
BLACK
6
CONTINUOUS
10
6.73536
20
-4.75936
11
6.73532
21
-4.75928
0
LINE
8
BLACK
6
CONTINUOUS
10
6.73532
20
-4.75928
11
6.73524
21
-4.75925
0
LINE
8
BLACK
6
CONTINUOUS
10
6.73524
20
-4.75925
11
6.7349
21
-4.75844
0
LINE
8
BLACK
6
CONTINUOUS
10
6.7349
20
-4.75844
11
6.73451
21
-4.75765
0
LINE
8
BLACK
6
CONTINUOUS
10
6.73451
20
-4.75765
11
6.73454
21
-4.75756
0
LINE
8
BLACK
6
CONTINUOUS
10
6.73454
20
-4.75756
11
6.73451
21
-4.75748
0
LINE
8
BLACK
6
CONTINUOUS
10
6.73451
20
-4.75748
11
6.73451
21
-4.44252
0
LINE
8
BLACK
6
CONTINUOUS
10
6.73451
20
-4.44252
11
6.73524
21
-4.44075
0
LINE
8
BLACK
6
CONTINUOUS
10
6.73524
20
-4.44075
11
6.73701
21
-4.44002
0
LINE
8
BLACK
6
CONTINUOUS
10
6.73701
20
-4.44002
11
6.79356
21
-4.44002
0
LINE
8
BLACK
6
CONTINUOUS
10
6.79356
20
-4.44002
11
6.79356
21
-4.18661
0
LINE
8
BLACK
6
CONTINUOUS
10
6.79356
20
-4.18661
11
6.7943
21
-4.18485
0
LINE
8
BLACK
6
CONTINUOUS
10
6.7943
20
-4.18485
11
6.79606
21
-4.18411
0
LINE
8
BLACK
6
CONTINUOUS
10
6.79606
20
-4.18411
11
8.80394
21
-4.18411
0
LINE
8
BLACK
6
CONTINUOUS
10
8.80394
20
-4.18411
11
8.8057
21
-4.18485
0
LINE
8
BLACK
6
CONTINUOUS
10
8.8057
20
-4.18485
11
8.80644
21
-4.18661
0
LINE
8
BLACK
6
CONTINUOUS
10
8.80644
20
-4.18661
11
8.80644
21
-5.01339
0
LINE
8
BLACK
6
CONTINUOUS
10
8.80644
20
-5.01339
11
8.8057
21
-5.01515
0
LINE
8
BLACK
6
CONTINUOUS
10
8.8057
20
-5.01515
11
8.80394
21
-5.01589
0
LINE
8
BLACK
6
CONTINUOUS
10
8.80394
20
-5.01589
11
6.79606
21
-5.01589
0
LINE
8
BLACK
6
CONTINUOUS
10
6.79606
20
-5.01589
11
6.7943
21
-5.01515
0
LINE
8
BLACK
6
CONTINUOUS
10
6.97573
20
-4.44252
11
6.97573
21
-4.75748
0
LINE
8
BLACK
6
CONTINUOUS
10
6.97573
20
-4.75748
11
6.97572
21
-4.75751
0
LINE
8
BLACK
6
CONTINUOUS
10
6.97572
20
-4.75751
11
6.97573
21
-4.75754
0
LINE
8
BLACK
6
CONTINUOUS
10
6.97573
20
-4.75754
11
6.97535
21
-4.75839
0
LINE
8
BLACK
6
CONTINUOUS
10
6.97535
20
-4.75839
11
6.975
21
-4.75925
0
LINE
8
BLACK
6
CONTINUOUS
10
6.975
20
-4.75925
11
6.97497
21
-4.75926
0
LINE
8
BLACK
6
CONTINUOUS
10
6.97497
20
-4.75926
11
6.97496
21
-4.75929
0
LINE
8
BLACK
6
CONTINUOUS
10
6.97496
20
-4.75929
11
6.97409
21
-4.75962
0
LINE
8
BLACK
6
CONTINUOUS
10
6.97409
20
-4.75962
11
6.97323
21
-4.75998
0
LINE
8
BLACK
6
CONTINUOUS
10
6.97323
20
-4.75998
11
6.9732
21
-4.75997
0
LINE
8
BLACK
6
CONTINUOUS
10
6.9732
20
-4.75997
11
6.97317
21
-4.75998
0
LINE
8
BLACK
6
CONTINUOUS
10
6.97317
20
-4.75998
11
6.79856
21
-4.7561
0
LINE
8
BLACK
6
CONTINUOUS
10
6.79856
20
-4.7561
11
6.79856
21
-5.01089
0
LINE
8
BLACK
6
CONTINUOUS
10
6.79856
20
-5.01089
11
8.80144
21
-5.01089
0
LINE
8
BLACK
6
CONTINUOUS
10
8.80144
20
-5.01089
11
8.80144
21
-4.18911
0
LINE
8
BLACK
6
CONTINUOUS
10
8.80144
20
-4.18911
11
6.79856
21
-4.18911
0
LINE
8
BLACK
6
CONTINUOUS
10
6.79856
20
-4.18911
11
6.79856
21
-4.44002
0
LINE
8
BLACK
6
CONTINUOUS
10
6.79856
20
-4.44002
11
6.97323
21
-4.44002
0
LINE
8
BLACK
6
CONTINUOUS
10
6.97323
20
-4.44002
11
6.975
21
-4.44075
0
LINE
8
BLACK
6
CONTINUOUS
10
6.975
20
-4.44075
11
6.97573
21
-4.44252
0
LINE
8
BLACK
6
CONTINUOUS
10
6.79856
20
-4.44502
11
6.79856
21
-4.7511
0
LINE
8
BLACK
6
CONTINUOUS
10
6.79856
20
-4.7511
11
6.97073
21
-4.75492
0
LINE
8
BLACK
6
CONTINUOUS
10
6.97073
20
-4.75492
11
6.97073
21
-4.44502
0
LINE
8
BLACK
6
CONTINUOUS
10
6.97073
20
-4.44502
11
6.79856
21
-4.44502
0
LINE
8
BLACK
6
CONTINUOUS
10
6.73951
20
-4.44502
11
6.73951
21
-4.75481
0
LINE
8
BLACK
6
CONTINUOUS
10
6.73951
20
-4.75481
11
6.79356
21
-4.7512
0
LINE
8
BLACK
6
CONTINUOUS
10
6.79356
20
-4.7512
11
6.79356
21
-4.44502
0
LINE
8
BLACK
6
CONTINUOUS
10
6.79356
20
-4.44502
11
6.73951
21
-4.44502
0
LINE
8
BLACK
6
CONTINUOUS
10
7.78866
20
-4.60239
11
7.78978
21
-4.60408
0
LINE
8
BLACK
6
CONTINUOUS
10
7.78978
20
-4.60408
11
7.78955
21
-4.60608
0
LINE
8
BLACK
6
CONTINUOUS
10
7.78955
20
-4.60608
11
7.78716
21
-4.61084
0
LINE
8
BLACK
6
CONTINUOUS
10
7.78716
20
-4.61084
11
7.78664
21
-4.61155
0
LINE
8
BLACK
6
CONTINUOUS
10
7.78664
20
-4.61155
11
7.78661
21
-4.61161
0
LINE
8
BLACK
6
CONTINUOUS
10
7.78661
20
-4.61161
11
7.78213
21
-4.61609
0
LINE
8
BLACK
6
CONTINUOUS
10
7.78213
20
-4.61609
11
7.81967
21
-4.61609
0
LINE
8
BLACK
6
CONTINUOUS
10
7.81967
20
-4.61609
11
7.81967
21
-4.60476
0
LINE
8
BLACK
6
CONTINUOUS
10
7.81967
20
-4.60476
11
7.81984
21
-4.60375
0
LINE
8
BLACK
6
CONTINUOUS
10
7.81984
20
-4.60375
11
7.82114
21
-4.6022
0
LINE
8
BLACK
6
CONTINUOUS
10
7.82114
20
-4.6022
11
7.82313
21
-4.60185
0
LINE
8
BLACK
6
CONTINUOUS
10
7.82313
20
-4.60185
11
7.82488
21
-4.60286
0
LINE
8
BLACK
6
CONTINUOUS
10
7.82488
20
-4.60286
11
7.82557
21
-4.60476
0
LINE
8
BLACK
6
CONTINUOUS
10
7.82557
20
-4.60476
11
7.82557
21
-4.63333
0
LINE
8
BLACK
6
CONTINUOUS
10
7.82557
20
-4.63333
11
7.82539
21
-4.63434
0
LINE
8
BLACK
6
CONTINUOUS
10
7.82539
20
-4.63434
11
7.8241
21
-4.63589
0
LINE
8
BLACK
6
CONTINUOUS
10
7.8241
20
-4.63589
11
7.82211
21
-4.63624
0
LINE
8
BLACK
6
CONTINUOUS
10
7.82211
20
-4.63624
11
7.82036
21
-4.63523
0
LINE
8
BLACK
6
CONTINUOUS
10
7.82036
20
-4.63523
11
7.81967
21
-4.63333
0
LINE
8
BLACK
6
CONTINUOUS
10
7.81967
20
-4.63333
11
7.81967
21
-4.622
0
LINE
8
BLACK
6
CONTINUOUS
10
7.81967
20
-4.622
11
7.77262
21
-4.622
0
LINE
8
BLACK
6
CONTINUOUS
10
7.77262
20
-4.622
11
7.77161
21
-4.62182
0
LINE
8
BLACK
6
CONTINUOUS
10
7.77161
20
-4.62182
11
7.77148
21
-4.62171
0
LINE
8
BLACK
6
CONTINUOUS
10
7.77148
20
-4.62171
11
7.77131
21
-4.62169
0
LINE
8
BLACK
6
CONTINUOUS
10
7.77131
20
-4.62169
11
7.77072
21
-4.62107
0
LINE
8
BLACK
6
CONTINUOUS
10
7.77072
20
-4.62107
11
7.77006
21
-4.62052
0
LINE
8
BLACK
6
CONTINUOUS
10
7.77006
20
-4.62052
11
7.77003
21
-4.62036
0
LINE
8
BLACK
6
CONTINUOUS
10
7.77003
20
-4.62036
11
7.76992
21
-4.62023
0
LINE
8
BLACK
6
CONTINUOUS
10
7.76992
20
-4.62023
11
7.76986
21
-4.61938
0
LINE
8
BLACK
6
CONTINUOUS
10
7.76986
20
-4.61938
11
7.76971
21
-4.61853
0
LINE
8
BLACK
6
CONTINUOUS
10
7.76971
20
-4.61853
11
7.7698
21
-4.61839
0
LINE
8
BLACK
6
CONTINUOUS
10
7.7698
20
-4.61839
11
7.76979
21
-4.61822
0
LINE
8
BLACK
6
CONTINUOUS
10
7.76979
20
-4.61822
11
7.77029
21
-4.61753
0
LINE
8
BLACK
6
CONTINUOUS
10
7.77029
20
-4.61753
11
7.77072
21
-4.61679
0
LINE
8
BLACK
6
CONTINUOUS
10
7.77072
20
-4.61679
11
7.77088
21
-4.61673
0
LINE
8
BLACK
6
CONTINUOUS
10
7.77088
20
-4.61673
11
7.77098
21
-4.61659
0
LINE
8
BLACK
6
CONTINUOUS
10
7.77098
20
-4.61659
11
7.77788
21
-4.61199
0
LINE
8
BLACK
6
CONTINUOUS
10
7.77788
20
-4.61199
11
7.7821
21
-4.60777
0
LINE
8
BLACK
6
CONTINUOUS
10
7.7821
20
-4.60777
11
7.78426
21
-4.60344
0
LINE
8
BLACK
6
CONTINUOUS
10
7.78426
20
-4.60344
11
7.78487
21
-4.60262
0
LINE
8
BLACK
6
CONTINUOUS
10
7.78487
20
-4.60262
11
7.78673
21
-4.60181
0
LINE
8
BLACK
6
CONTINUOUS
10
7.78673
20
-4.60181
11
7.78866
21
-4.60239
0
LINE
8
BLACK
6
CONTINUOUS
10
7.82488
20
-4.56239
11
7.82557
21
-4.56429
0
LINE
8
BLACK
6
CONTINUOUS
10
7.82557
20
-4.56429
11
7.82557
21
-4.56905
0
LINE
8
BLACK
6
CONTINUOUS
10
7.82557
20
-4.56905
11
7.82542
21
-4.56992
0
LINE
8
BLACK
6
CONTINUOUS
10
7.82542
20
-4.56992
11
7.82542
21
-4.56998
0
LINE
8
BLACK
6
CONTINUOUS
10
7.82542
20
-4.56998
11
7.82304
21
-4.57712
0
LINE
8
BLACK
6
CONTINUOUS
10
7.82304
20
-4.57712
11
7.82255
21
-4.57803
0
LINE
8
BLACK
6
CONTINUOUS
10
7.82255
20
-4.57803
11
7.8224
21
-4.57812
0
LINE
8
BLACK
6
CONTINUOUS
10
7.8224
20
-4.57812
11
7.82233
21
-4.57828
0
LINE
8
BLACK
6
CONTINUOUS
10
7.82233
20
-4.57828
11
7.81756
21
-4.58304
0
LINE
8
BLACK
6
CONTINUOUS
10
7.81756
20
-4.58304
11
7.81672
21
-4.58363
0
LINE
8
BLACK
6
CONTINUOUS
10
7.81672
20
-4.58363
11
7.81655
21
-4.58364
0
LINE
8
BLACK
6
CONTINUOUS
10
7.81655
20
-4.58364
11
7.81641
21
-4.58375
0
LINE
8
BLACK
6
CONTINUOUS
10
7.81641
20
-4.58375
11
7.80927
21
-4.58613
0
LINE
8
BLACK
6
CONTINUOUS
10
7.80927
20
-4.58613
11
7.80839
21
-4.58626
0
LINE
8
BLACK
6
CONTINUOUS
10
7.80839
20
-4.58626
11
7.80833
21
-4.58629
0
LINE
8
BLACK
6
CONTINUOUS
10
7.80833
20
-4.58629
11
7.77262
21
-4.58629
0
LINE
8
BLACK
6
CONTINUOUS
10
7.77262
20
-4.58629
11
7.77161
21
-4.58611
0
LINE
8
BLACK
6
CONTINUOUS
10
7.77161
20
-4.58611
11
7.77006
21
-4.58481
0
LINE
8
BLACK
6
CONTINUOUS
10
7.77006
20
-4.58481
11
7.76971
21
-4.58282
0
LINE
8
BLACK
6
CONTINUOUS
10
7.76971
20
-4.58282
11
7.77072
21
-4.58107
0
LINE
8
BLACK
6
CONTINUOUS
10
7.77072
20
-4.58107
11
7.77262
21
-4.58038
0
LINE
8
BLACK
6
CONTINUOUS
10
7.77262
20
-4.58038
11
7.80785
21
-4.58038
0
LINE
8
BLACK
6
CONTINUOUS
10
7.80785
20
-4.58038
11
7.81388
21
-4.57837
0
LINE
8
BLACK
6
CONTINUOUS
10
7.81388
20
-4.57837
11
7.81766
21
-4.5746
0
LINE
8
BLACK
6
CONTINUOUS
10
7.81766
20
-4.5746
11
7.81967
21
-4.56857
0
LINE
8
BLACK
6
CONTINUOUS
10
7.81967
20
-4.56857
11
7.81967
21
-4.56429
0
LINE
8
BLACK
6
CONTINUOUS
10
7.81967
20
-4.56429
11
7.81984
21
-4.56328
0
LINE
8
BLACK
6
CONTINUOUS
10
7.81984
20
-4.56328
11
7.82114
21
-4.56173
0
LINE
8
BLACK
6
CONTINUOUS
10
7.82114
20
-4.56173
11
7.82313
21
-4.56138
0
LINE
8
BLACK
6
CONTINUOUS
10
7.82313
20
-4.56138
11
7.82488
21
-4.56239
0
LINE
8
BLACK
6
CONTINUOUS
10
5.96981
20
-4.87742
11
5.96179
21
-4.87897
0
LINE
8
BLACK
6
CONTINUOUS
10
5.96179
20
-4.87897
11
5.95362
21
-4.8818
0
LINE
8
BLACK
6
CONTINUOUS
10
5.95362
20
-4.8818
11
5.94594
21
-4.88577
0
LINE
8
BLACK
6
CONTINUOUS
10
5.94594
20
-4.88577
11
5.93889
21
-4.89078
0
LINE
8
BLACK
6
CONTINUOUS
10
5.93889
20
-4.89078
11
5.93264
21
-4.89675
0
LINE
8
BLACK
6
CONTINUOUS
10
5.93264
20
-4.89675
11
5.9273
21
-4.90355
0
LINE
8
BLACK
6
CONTINUOUS
10
5.9273
20
-4.90355
11
5.92298
21
-4.91104
0
LINE
8
BLACK
6
CONTINUOUS
10
5.92298
20
-4.91104
11
5.91977
21
-4.91907
0
LINE
8
BLACK
6
CONTINUOUS
10
5.91977
20
-4.91907
11
5.91773
21
-4.92748
0
LINE
8
BLACK
6
CONTINUOUS
10
5.91773
20
-4.92748
11
5.91691
21
-4.93608
0
LINE
8
BLACK
6
CONTINUOUS
10
5.91691
20
-4.93608
11
5.91731
21
-4.9444
0
LINE
8
BLACK
6
CONTINUOUS
10
5.91731
20
-4.9444
11
5.91748
21
-4.9447
0
LINE
8
BLACK
6
CONTINUOUS
10
5.91748
20
-4.9447
11
5.91697
21
-4.94654
0
LINE
8
BLACK
6
CONTINUOUS
10
5.91697
20
-4.94654
11
5.9153
21
-4.94748
0
LINE
8
BLACK
6
CONTINUOUS
10
5.9153
20
-4.94748
11
5.91346
21
-4.94697
0
LINE
8
BLACK
6
CONTINUOUS
10
5.91346
20
-4.94697
11
5.91252
21
-4.9453
0
LINE
8
BLACK
6
CONTINUOUS
10
5.91252
20
-4.9453
11
5.91207
21
-4.93597
0
LINE
8
BLACK
6
CONTINUOUS
10
5.91207
20
-4.93597
11
5.91295
21
-4.92667
0
LINE
8
BLACK
6
CONTINUOUS
10
5.91295
20
-4.92667
11
5.91515
21
-4.9176
0
LINE
8
BLACK
6
CONTINUOUS
10
5.91515
20
-4.9176
11
5.91862
21
-4.90893
0
LINE
8
BLACK
6
CONTINUOUS
10
5.91862
20
-4.90893
11
5.92328
21
-4.90084
0
LINE
8
BLACK
6
CONTINUOUS
10
5.92328
20
-4.90084
11
5.92905
21
-4.8935
0
LINE
8
BLACK
6
CONTINUOUS
10
5.92905
20
-4.8935
11
5.93581
21
-4.88705
0
LINE
8
BLACK
6
CONTINUOUS
10
5.93581
20
-4.88705
11
5.94341
21
-4.88163
0
LINE
8
BLACK
6
CONTINUOUS
10
5.94341
20
-4.88163
11
5.95171
21
-4.87735
0
LINE
8
BLACK
6
CONTINUOUS
10
5.95171
20
-4.87735
11
5.96053
21
-4.87429
0
LINE
8
BLACK
6
CONTINUOUS
10
5.96053
20
-4.87429
11
5.9697
21
-4.87252
0
LINE
8
BLACK
6
CONTINUOUS
10
5.9697
20
-4.87252
11
5.9697
21
-4.87252
0
LINE
8
BLACK
6
CONTINUOUS
10
5.9697
20
-4.87252
11
5.96985
21
-4.87256
0
LINE
8
BLACK
6
CONTINUOUS
10
5.96985
20
-4.87256
11
5.97
21
-4.8725
0
LINE
8
BLACK
6
CONTINUOUS
10
5.97
20
-4.8725
11
6.2225
21
-4.8725
0
LINE
8
BLACK
6
CONTINUOUS
10
6.2225
20
-4.8725
11
6.2225
21
-4.7325
0
LINE
8
BLACK
6
CONTINUOUS
10
6.2225
20
-4.7325
11
5.785
21
-4.7325
0
LINE
8
BLACK
6
CONTINUOUS
10
5.785
20
-4.7325
11
5.78478
21
-4.73241
0
LINE
8
BLACK
6
CONTINUOUS
10
5.78478
20
-4.73241
11
5.77606
21
-4.73401
0
LINE
8
BLACK
6
CONTINUOUS
10
5.77606
20
-4.73401
11
5.76719
21
-4.737
0
LINE
8
BLACK
6
CONTINUOUS
10
5.76719
20
-4.737
11
5.75883
21
-4.74122
0
LINE
8
BLACK
6
CONTINUOUS
10
5.75883
20
-4.74122
11
5.75117
21
-4.74658
0
LINE
8
BLACK
6
CONTINUOUS
10
5.75117
20
-4.74658
11
5.74434
21
-4.75298
0
LINE
8
BLACK
6
CONTINUOUS
10
5.74434
20
-4.75298
11
5.7385
21
-4.76029
0
LINE
8
BLACK
6
CONTINUOUS
10
5.7385
20
-4.76029
11
5.73375
21
-4.76835
0
LINE
8
BLACK
6
CONTINUOUS
10
5.73375
20
-4.76835
11
5.7302
21
-4.77701
0
LINE
8
BLACK
6
CONTINUOUS
10
5.7302
20
-4.77701
11
5.72792
21
-4.78609
0
LINE
8
BLACK
6
CONTINUOUS
10
5.72792
20
-4.78609
11
5.72695
21
-4.79539
0
LINE
8
BLACK
6
CONTINUOUS
10
5.72695
20
-4.79539
11
5.72731
21
-4.8044
0
LINE
8
BLACK
6
CONTINUOUS
10
5.72731
20
-4.8044
11
5.72748
21
-4.80472
0
LINE
8
BLACK
6
CONTINUOUS
10
5.72748
20
-4.80472
11
5.72744
21
-4.80486
0
LINE
8
BLACK
6
CONTINUOUS
10
5.72744
20
-4.80486
11
5.7275
21
-4.805
0
LINE
8
BLACK
6
CONTINUOUS
10
5.7275
20
-4.805
11
5.7275
21
-4.9575
0
LINE
8
BLACK
6
CONTINUOUS
10
5.7275
20
-4.9575
11
5.915
21
-4.9575
0
LINE
8
BLACK
6
CONTINUOUS
10
5.915
20
-4.9575
11
5.91677
21
-4.95823
0
LINE
8
BLACK
6
CONTINUOUS
10
5.91677
20
-4.95823
11
5.9175
21
-4.96
0
LINE
8
BLACK
6
CONTINUOUS
10
5.9175
20
-4.96
11
5.91677
21
-4.96177
0
LINE
8
BLACK
6
CONTINUOUS
10
5.91677
20
-4.96177
11
5.915
21
-4.9625
0
LINE
8
BLACK
6
CONTINUOUS
10
5.915
20
-4.9625
11
5.725
21
-4.9625
0
LINE
8
BLACK
6
CONTINUOUS
10
5.725
20
-4.9625
11
5.72323
21
-4.96177
0
LINE
8
BLACK
6
CONTINUOUS
10
5.72323
20
-4.96177
11
5.7225
21
-4.96
0
LINE
8
BLACK
6
CONTINUOUS
10
5.7225
20
-4.96
11
5.7225
21
-4.805
0
LINE
8
BLACK
6
CONTINUOUS
10
5.7225
20
-4.805
11
5.7225
21
-4.80499
0
LINE
8
BLACK
6
CONTINUOUS
10
5.7225
20
-4.80499
11
5.7221
21
-4.79607
0
LINE
8
BLACK
6
CONTINUOUS
10
5.7221
20
-4.79607
11
5.72289
21
-4.7869
0
LINE
8
BLACK
6
CONTINUOUS
10
5.72289
20
-4.7869
11
5.72487
21
-4.7779
0
LINE
8
BLACK
6
CONTINUOUS
10
5.72487
20
-4.7779
11
5.728
21
-4.76924
0
LINE
8
BLACK
6
CONTINUOUS
10
5.728
20
-4.76924
11
5.73224
21
-4.76107
0
LINE
8
BLACK
6
CONTINUOUS
10
5.73224
20
-4.76107
11
5.73751
21
-4.75351
0
LINE
8
BLACK
6
CONTINUOUS
10
5.73751
20
-4.75351
11
5.74373
21
-4.74671
0
LINE
8
BLACK
6
CONTINUOUS
10
5.74373
20
-4.74671
11
5.75077
21
-4.74078
0
LINE
8
BLACK
6
CONTINUOUS
10
5.75077
20
-4.74078
11
5.75853
21
-4.73582
0
LINE
8
BLACK
6
CONTINUOUS
10
5.75853
20
-4.73582
11
5.76688
21
-4.73191
0
LINE
8
BLACK
6
CONTINUOUS
10
5.76688
20
-4.73191
11
5.77566
21
-4.72913
0
LINE
8
BLACK
6
CONTINUOUS
10
5.77566
20
-4.72913
11
5.78472
21
-4.72752
0
LINE
8
BLACK
6
CONTINUOUS
10
5.78472
20
-4.72752
11
5.78472
21
-4.72752
0
LINE
8
BLACK
6
CONTINUOUS
10
5.78472
20
-4.72752
11
5.78486
21
-4.72756
0
LINE
8
BLACK
6
CONTINUOUS
10
5.78486
20
-4.72756
11
5.785
21
-4.7275
0
LINE
8
BLACK
6
CONTINUOUS
10
5.785
20
-4.7275
11
6.225
21
-4.7275
0
LINE
8
BLACK
6
CONTINUOUS
10
6.225
20
-4.7275
11
6.22677
21
-4.72823
0
LINE
8
BLACK
6
CONTINUOUS
10
6.22677
20
-4.72823
11
6.2275
21
-4.73
0
LINE
8
BLACK
6
CONTINUOUS
10
6.2275
20
-4.73
11
6.2275
21
-4.875
0
LINE
8
BLACK
6
CONTINUOUS
10
6.2275
20
-4.875
11
6.22677
21
-4.87677
0
LINE
8
BLACK
6
CONTINUOUS
10
6.22677
20
-4.87677
11
6.225
21
-4.8775
0
LINE
8
BLACK
6
CONTINUOUS
10
6.225
20
-4.8775
11
5.97
21
-4.8775
0
LINE
8
BLACK
6
CONTINUOUS
10
5.97
20
-4.8775
11
5.96981
21
-4.87742
0
LINE
8
BLACK
6
CONTINUOUS
10
6.46981
20
-3.67742
11
6.46179
21
-3.67897
0
LINE
8
BLACK
6
CONTINUOUS
10
6.46179
20
-3.67897
11
6.45362
21
-3.6818
0
LINE
8
BLACK
6
CONTINUOUS
10
6.45362
20
-3.6818
11
6.44594
21
-3.68577
0
LINE
8
BLACK
6
CONTINUOUS
10
6.44594
20
-3.68577
11
6.43889
21
-3.69078
0
LINE
8
BLACK
6
CONTINUOUS
10
6.43889
20
-3.69078
11
6.43264
21
-3.69675
0
LINE
8
BLACK
6
CONTINUOUS
10
6.43264
20
-3.69675
11
6.4273
21
-3.70355
0
LINE
8
BLACK
6
CONTINUOUS
10
6.4273
20
-3.70355
11
6.42298
21
-3.71104
0
LINE
8
BLACK
6
CONTINUOUS
10
6.42298
20
-3.71104
11
6.41977
21
-3.71907
0
LINE
8
BLACK
6
CONTINUOUS
10
6.41977
20
-3.71907
11
6.41773
21
-3.72748
0
LINE
8
BLACK
6
CONTINUOUS
10
6.41773
20
-3.72748
11
6.41691
21
-3.73608
0
LINE
8
BLACK
6
CONTINUOUS
10
6.41691
20
-3.73608
11
6.41731
21
-3.7444
0
LINE
8
BLACK
6
CONTINUOUS
10
6.41731
20
-3.7444
11
6.41748
21
-3.7447
0
LINE
8
BLACK
6
CONTINUOUS
10
6.41748
20
-3.7447
11
6.41697
21
-3.74654
0
LINE
8
BLACK
6
CONTINUOUS
10
6.41697
20
-3.74654
11
6.4153
21
-3.74748
0
LINE
8
BLACK
6
CONTINUOUS
10
6.4153
20
-3.74748
11
6.41346
21
-3.74697
0
LINE
8
BLACK
6
CONTINUOUS
10
6.41346
20
-3.74697
11
6.41252
21
-3.7453
0
LINE
8
BLACK
6
CONTINUOUS
10
6.41252
20
-3.7453
11
6.41207
21
-3.73597
0
LINE
8
BLACK
6
CONTINUOUS
10
6.41207
20
-3.73597
11
6.41295
21
-3.72667
0
LINE
8
BLACK
6
CONTINUOUS
10
6.41295
20
-3.72667
11
6.41515
21
-3.7176
0
LINE
8
BLACK
6
CONTINUOUS
10
6.41515
20
-3.7176
11
6.41862
21
-3.70893
0
LINE
8
BLACK
6
CONTINUOUS
10
6.41862
20
-3.70893
11
6.42328
21
-3.70084
0
LINE
8
BLACK
6
CONTINUOUS
10
6.42328
20
-3.70084
11
6.42905
21
-3.6935
0
LINE
8
BLACK
6
CONTINUOUS
10
6.42905
20
-3.6935
11
6.43581
21
-3.68705
0
LINE
8
BLACK
6
CONTINUOUS
10
6.43581
20
-3.68705
11
6.44341
21
-3.68163
0
LINE
8
BLACK
6
CONTINUOUS
10
6.44341
20
-3.68163
11
6.45171
21
-3.67735
0
LINE
8
BLACK
6
CONTINUOUS
10
6.45171
20
-3.67735
11
6.46053
21
-3.67429
0
LINE
8
BLACK
6
CONTINUOUS
10
6.46053
20
-3.67429
11
6.4697
21
-3.67252
0
LINE
8
BLACK
6
CONTINUOUS
10
6.4697
20
-3.67252
11
6.4697
21
-3.67252
0
LINE
8
BLACK
6
CONTINUOUS
10
6.4697
20
-3.67252
11
6.46985
21
-3.67256
0
LINE
8
BLACK
6
CONTINUOUS
10
6.46985
20
-3.67256
11
6.47
21
-3.6725
0
LINE
8
BLACK
6
CONTINUOUS
10
6.47
20
-3.6725
11
6.7225
21
-3.6725
0
LINE
8
BLACK
6
CONTINUOUS
10
6.7225
20
-3.6725
11
6.7225
21
-3.5325
0
LINE
8
BLACK
6
CONTINUOUS
10
6.7225
20
-3.5325
11
6.285
21
-3.5325
0
LINE
8
BLACK
6
CONTINUOUS
10
6.285
20
-3.5325
11
6.28478
21
-3.53241
0
LINE
8
BLACK
6
CONTINUOUS
10
6.28478
20
-3.53241
11
6.27606
21
-3.53401
0
LINE
8
BLACK
6
CONTINUOUS
10
6.27606
20
-3.53401
11
6.26719
21
-3.537
0
LINE
8
BLACK
6
CONTINUOUS
10
6.26719
20
-3.537
11
6.25883
21
-3.54122
0
LINE
8
BLACK
6
CONTINUOUS
10
6.25883
20
-3.54122
11
6.25117
21
-3.54658
0
LINE
8
BLACK
6
CONTINUOUS
10
6.25117
20
-3.54658
11
6.24434
21
-3.55298
0
LINE
8
BLACK
6
CONTINUOUS
10
6.24434
20
-3.55298
11
6.2385
21
-3.56029
0
LINE
8
BLACK
6
CONTINUOUS
10
6.2385
20
-3.56029
11
6.23375
21
-3.56835
0
LINE
8
BLACK
6
CONTINUOUS
10
6.23375
20
-3.56835
11
6.2302
21
-3.57701
0
LINE
8
BLACK
6
CONTINUOUS
10
6.2302
20
-3.57701
11
6.22792
21
-3.58609
0
LINE
8
BLACK
6
CONTINUOUS
10
6.22792
20
-3.58609
11
6.22695
21
-3.59539
0
LINE
8
BLACK
6
CONTINUOUS
10
6.22695
20
-3.59539
11
6.22731
21
-3.6044
0
LINE
8
BLACK
6
CONTINUOUS
10
6.22731
20
-3.6044
11
6.22748
21
-3.60472
0
LINE
8
BLACK
6
CONTINUOUS
10
6.22748
20
-3.60472
11
6.22744
21
-3.60486
0
LINE
8
BLACK
6
CONTINUOUS
10
6.22744
20
-3.60486
11
6.2275
21
-3.605
0
LINE
8
BLACK
6
CONTINUOUS
10
6.2275
20
-3.605
11
6.2275
21
-3.7575
0
LINE
8
BLACK
6
CONTINUOUS
10
6.2275
20
-3.7575
11
6.415
21
-3.7575
0
LINE
8
BLACK
6
CONTINUOUS
10
6.415
20
-3.7575
11
6.41677
21
-3.75823
0
LINE
8
BLACK
6
CONTINUOUS
10
6.41677
20
-3.75823
11
6.4175
21
-3.76
0
LINE
8
BLACK
6
CONTINUOUS
10
6.4175
20
-3.76
11
6.41677
21
-3.76177
0
LINE
8
BLACK
6
CONTINUOUS
10
6.41677
20
-3.76177
11
6.415
21
-3.7625
0
LINE
8
BLACK
6
CONTINUOUS
10
6.415
20
-3.7625
11
6.225
21
-3.7625
0
LINE
8
BLACK
6
CONTINUOUS
10
6.225
20
-3.7625
11
6.22323
21
-3.76177
0
LINE
8
BLACK
6
CONTINUOUS
10
6.22323
20
-3.76177
11
6.2225
21
-3.76
0
LINE
8
BLACK
6
CONTINUOUS
10
6.2225
20
-3.76
11
6.2225
21
-3.605
0
LINE
8
BLACK
6
CONTINUOUS
10
6.2225
20
-3.605
11
6.2225
21
-3.60499
0
LINE
8
BLACK
6
CONTINUOUS
10
6.2225
20
-3.60499
11
6.2221
21
-3.59607
0
LINE
8
BLACK
6
CONTINUOUS
10
6.2221
20
-3.59607
11
6.22289
21
-3.5869
0
LINE
8
BLACK
6
CONTINUOUS
10
6.22289
20
-3.5869
11
6.22487
21
-3.5779
0
LINE
8
BLACK
6
CONTINUOUS
10
6.22487
20
-3.5779
11
6.228
21
-3.56924
0
LINE
8
BLACK
6
CONTINUOUS
10
6.228
20
-3.56924
11
6.23224
21
-3.56107
0
LINE
8
BLACK
6
CONTINUOUS
10
6.23224
20
-3.56107
11
6.23751
21
-3.55351
0
LINE
8
BLACK
6
CONTINUOUS
10
6.23751
20
-3.55351
11
6.24373
21
-3.54671
0
LINE
8
BLACK
6
CONTINUOUS
10
6.24373
20
-3.54671
11
6.25077
21
-3.54078
0
LINE
8
BLACK
6
CONTINUOUS
10
6.25077
20
-3.54078
11
6.25853
21
-3.53582
0
LINE
8
BLACK
6
CONTINUOUS
10
6.25853
20
-3.53582
11
6.26688
21
-3.53191
0
LINE
8
BLACK
6
CONTINUOUS
10
6.26688
20
-3.53191
11
6.27566
21
-3.52913
0
LINE
8
BLACK
6
CONTINUOUS
10
6.27566
20
-3.52913
11
6.28472
21
-3.52752
0
LINE
8
BLACK
6
CONTINUOUS
10
6.28472
20
-3.52752
11
6.28472
21
-3.52752
0
LINE
8
BLACK
6
CONTINUOUS
10
6.28472
20
-3.52752
11
6.28486
21
-3.52756
0
LINE
8
BLACK
6
CONTINUOUS
10
6.28486
20
-3.52756
11
6.285
21
-3.5275
0
LINE
8
BLACK
6
CONTINUOUS
10
6.285
20
-3.5275
11
6.725
21
-3.5275
0
LINE
8
BLACK
6
CONTINUOUS
10
6.725
20
-3.5275
11
6.72677
21
-3.52823
0
LINE
8
BLACK
6
CONTINUOUS
10
6.72677
20
-3.52823
11
6.7275
21
-3.53
0
LINE
8
BLACK
6
CONTINUOUS
10
6.7275
20
-3.53
11
6.7275
21
-3.675
0
LINE
8
BLACK
6
CONTINUOUS
10
6.7275
20
-3.675
11
6.72677
21
-3.67677
0
LINE
8
BLACK
6
CONTINUOUS
10
6.72677
20
-3.67677
11
6.725
21
-3.6775
0
LINE
8
BLACK
6
CONTINUOUS
10
6.725
20
-3.6775
11
6.47
21
-3.6775
0
LINE
8
BLACK
6
CONTINUOUS
10
6.47
20
-3.6775
11
6.46981
21
-3.67742
0
LINE
8
BLACK
6
CONTINUOUS
10
9.16981
20
-3.57742
11
9.16179
21
-3.57897
0
LINE
8
BLACK
6
CONTINUOUS
10
9.16179
20
-3.57897
11
9.15362
21
-3.5818
0
LINE
8
BLACK
6
CONTINUOUS
10
9.15362
20
-3.5818
11
9.14594
21
-3.58577
0
LINE
8
BLACK
6
CONTINUOUS
10
9.14594
20
-3.58577
11
9.13889
21
-3.59078
0
LINE
8
BLACK
6
CONTINUOUS
10
9.13889
20
-3.59078
11
9.13264
21
-3.59675
0
LINE
8
BLACK
6
CONTINUOUS
10
9.13264
20
-3.59675
11
9.1273
21
-3.60355
0
LINE
8
BLACK
6
CONTINUOUS
10
9.1273
20
-3.60355
11
9.12298
21
-3.61104
0
LINE
8
BLACK
6
CONTINUOUS
10
9.12298
20
-3.61104
11
9.11977
21
-3.61907
0
LINE
8
BLACK
6
CONTINUOUS
10
9.11977
20
-3.61907
11
9.11773
21
-3.62748
0
LINE
8
BLACK
6
CONTINUOUS
10
9.11773
20
-3.62748
11
9.11691
21
-3.63608
0
LINE
8
BLACK
6
CONTINUOUS
10
9.11691
20
-3.63608
11
9.11731
21
-3.6444
0
LINE
8
BLACK
6
CONTINUOUS
10
9.11731
20
-3.6444
11
9.11748
21
-3.6447
0
LINE
8
BLACK
6
CONTINUOUS
10
9.11748
20
-3.6447
11
9.11697
21
-3.64654
0
LINE
8
BLACK
6
CONTINUOUS
10
9.11697
20
-3.64654
11
9.1153
21
-3.64748
0
LINE
8
BLACK
6
CONTINUOUS
10
9.1153
20
-3.64748
11
9.11346
21
-3.64697
0
LINE
8
BLACK
6
CONTINUOUS
10
9.11346
20
-3.64697
11
9.11252
21
-3.6453
0
LINE
8
BLACK
6
CONTINUOUS
10
9.11252
20
-3.6453
11
9.11207
21
-3.63597
0
LINE
8
BLACK
6
CONTINUOUS
10
9.11207
20
-3.63597
11
9.11295
21
-3.62667
0
LINE
8
BLACK
6
CONTINUOUS
10
9.11295
20
-3.62667
11
9.11515
21
-3.6176
0
LINE
8
BLACK
6
CONTINUOUS
10
9.11515
20
-3.6176
11
9.11862
21
-3.60893
0
LINE
8
BLACK
6
CONTINUOUS
10
9.11862
20
-3.60893
11
9.12328
21
-3.60084
0
LINE
8
BLACK
6
CONTINUOUS
10
9.12328
20
-3.60084
11
9.12905
21
-3.5935
0
LINE
8
BLACK
6
CONTINUOUS
10
9.12905
20
-3.5935
11
9.13581
21
-3.58705
0
LINE
8
BLACK
6
CONTINUOUS
10
9.13581
20
-3.58705
11
9.14341
21
-3.58163
0
LINE
8
BLACK
6
CONTINUOUS
10
9.14341
20
-3.58163
11
9.15171
21
-3.57735
0
LINE
8
BLACK
6
CONTINUOUS
10
9.15171
20
-3.57735
11
9.16053
21
-3.57429
0
LINE
8
BLACK
6
CONTINUOUS
10
9.16053
20
-3.57429
11
9.1697
21
-3.57252
0
LINE
8
BLACK
6
CONTINUOUS
10
9.1697
20
-3.57252
11
9.1697
21
-3.57252
0
LINE
8
BLACK
6
CONTINUOUS
10
9.1697
20
-3.57252
11
9.16985
21
-3.57256
0
LINE
8
BLACK
6
CONTINUOUS
10
9.16985
20
-3.57256
11
9.17
21
-3.5725
0
LINE
8
BLACK
6
CONTINUOUS
10
9.17
20
-3.5725
11
9.4225
21
-3.5725
0
LINE
8
BLACK
6
CONTINUOUS
10
9.4225
20
-3.5725
11
9.4225
21
-3.4325
0
LINE
8
BLACK
6
CONTINUOUS
10
9.4225
20
-3.4325
11
8.985
21
-3.4325
0
LINE
8
BLACK
6
CONTINUOUS
10
8.985
20
-3.4325
11
8.98478
21
-3.43241
0
LINE
8
BLACK
6
CONTINUOUS
10
8.98478
20
-3.43241
11
8.97606
21
-3.43401
0
LINE
8
BLACK
6
CONTINUOUS
10
8.97606
20
-3.43401
11
8.96719
21
-3.437
0
LINE
8
BLACK
6
CONTINUOUS
10
8.96719
20
-3.437
11
8.95883
21
-3.44122
0
LINE
8
BLACK
6
CONTINUOUS
10
8.95883
20
-3.44122
11
8.95117
21
-3.44658
0
LINE
8
BLACK
6
CONTINUOUS
10
8.95117
20
-3.44658
11
8.94434
21
-3.45298
0
LINE
8
BLACK
6
CONTINUOUS
10
8.94434
20
-3.45298
11
8.9385
21
-3.46029
0
LINE
8
BLACK
6
CONTINUOUS
10
8.9385
20
-3.46029
11
8.93375
21
-3.46835
0
LINE
8
BLACK
6
CONTINUOUS
10
8.93375
20
-3.46835
11
8.9302
21
-3.47701
0
LINE
8
BLACK
6
CONTINUOUS
10
8.9302
20
-3.47701
11
8.92792
21
-3.48609
0
LINE
8
BLACK
6
CONTINUOUS
10
8.92792
20
-3.48609
11
8.92695
21
-3.49539
0
LINE
8
BLACK
6
CONTINUOUS
10
8.92695
20
-3.49539
11
8.92731
21
-3.5044
0
LINE
8
BLACK
6
CONTINUOUS
10
8.92731
20
-3.5044
11
8.92748
21
-3.50472
0
LINE
8
BLACK
6
CONTINUOUS
10
8.92748
20
-3.50472
11
8.92744
21
-3.50486
0
LINE
8
BLACK
6
CONTINUOUS
10
8.92744
20
-3.50486
11
8.9275
21
-3.505
0
LINE
8
BLACK
6
CONTINUOUS
10
8.9275
20
-3.505
11
8.9275
21
-3.6575
0
LINE
8
BLACK
6
CONTINUOUS
10
8.9275
20
-3.6575
11
9.115
21
-3.6575
0
LINE
8
BLACK
6
CONTINUOUS
10
9.115
20
-3.6575
11
9.11677
21
-3.65823
0
LINE
8
BLACK
6
CONTINUOUS
10
9.11677
20
-3.65823
11
9.1175
21
-3.66
0
LINE
8
BLACK
6
CONTINUOUS
10
9.1175
20
-3.66
11
9.11677
21
-3.66177
0
LINE
8
BLACK
6
CONTINUOUS
10
9.11677
20
-3.66177
11
9.115
21
-3.6625
0
LINE
8
BLACK
6
CONTINUOUS
10
9.115
20
-3.6625
11
8.925
21
-3.6625
0
LINE
8
BLACK
6
CONTINUOUS
10
8.925
20
-3.6625
11
8.92323
21
-3.66177
0
LINE
8
BLACK
6
CONTINUOUS
10
8.92323
20
-3.66177
11
8.9225
21
-3.66
0
LINE
8
BLACK
6
CONTINUOUS
10
8.9225
20
-3.66
11
8.9225
21
-3.505
0
LINE
8
BLACK
6
CONTINUOUS
10
8.9225
20
-3.505
11
8.9225
21
-3.50499
0
LINE
8
BLACK
6
CONTINUOUS
10
8.9225
20
-3.50499
11
8.9221
21
-3.49607
0
LINE
8
BLACK
6
CONTINUOUS
10
8.9221
20
-3.49607
11
8.92289
21
-3.4869
0
LINE
8
BLACK
6
CONTINUOUS
10
8.92289
20
-3.4869
11
8.92487
21
-3.4779
0
LINE
8
BLACK
6
CONTINUOUS
10
8.92487
20
-3.4779
11
8.928
21
-3.46924
0
LINE
8
BLACK
6
CONTINUOUS
10
8.928
20
-3.46924
11
8.93224
21
-3.46107
0
LINE
8
BLACK
6
CONTINUOUS
10
8.93224
20
-3.46107
11
8.93751
21
-3.45351
0
LINE
8
BLACK
6
CONTINUOUS
10
8.93751
20
-3.45351
11
8.94373
21
-3.44671
0
LINE
8
BLACK
6
CONTINUOUS
10
8.94373
20
-3.44671
11
8.95077
21
-3.44078
0
LINE
8
BLACK
6
CONTINUOUS
10
8.95077
20
-3.44078
11
8.95853
21
-3.43582
0
LINE
8
BLACK
6
CONTINUOUS
10
8.95853
20
-3.43582
11
8.96688
21
-3.43191
0
LINE
8
BLACK
6
CONTINUOUS
10
8.96688
20
-3.43191
11
8.97566
21
-3.42913
0
LINE
8
BLACK
6
CONTINUOUS
10
8.97566
20
-3.42913
11
8.98472
21
-3.42752
0
LINE
8
BLACK
6
CONTINUOUS
10
8.98472
20
-3.42752
11
8.98472
21
-3.42752
0
LINE
8
BLACK
6
CONTINUOUS
10
8.98472
20
-3.42752
11
8.98486
21
-3.42756
0
LINE
8
BLACK
6
CONTINUOUS
10
8.98486
20
-3.42756
11
8.985
21
-3.4275
0
LINE
8
BLACK
6
CONTINUOUS
10
8.985
20
-3.4275
11
9.425
21
-3.4275
0
LINE
8
BLACK
6
CONTINUOUS
10
9.425
20
-3.4275
11
9.42677
21
-3.42823
0
LINE
8
BLACK
6
CONTINUOUS
10
9.42677
20
-3.42823
11
9.4275
21
-3.43
0
LINE
8
BLACK
6
CONTINUOUS
10
9.4275
20
-3.43
11
9.4275
21
-3.575
0
LINE
8
BLACK
6
CONTINUOUS
10
9.4275
20
-3.575
11
9.42677
21
-3.57677
0
LINE
8
BLACK
6
CONTINUOUS
10
9.42677
20
-3.57677
11
9.425
21
-3.5775
0
LINE
8
BLACK
6
CONTINUOUS
10
9.425
20
-3.5775
11
9.17
21
-3.5775
0
LINE
8
BLACK
6
CONTINUOUS
10
9.17
20
-3.5775
11
9.16981
21
-3.57742
0
LINE
8
BLACK
6
CONTINUOUS
10
8.26981
20
-3.47742
11
8.26179
21
-3.47897
0
LINE
8
BLACK
6
CONTINUOUS
10
8.26179
20
-3.47897
11
8.25362
21
-3.4818
0
LINE
8
BLACK
6
CONTINUOUS
10
8.25362
20
-3.4818
11
8.24594
21
-3.48577
0
LINE
8
BLACK
6
CONTINUOUS
10
8.24594
20
-3.48577
11
8.23889
21
-3.49078
0
LINE
8
BLACK
6
CONTINUOUS
10
8.23889
20
-3.49078
11
8.23264
21
-3.49675
0
LINE
8
BLACK
6
CONTINUOUS
10
8.23264
20
-3.49675
11
8.2273
21
-3.50355
0
LINE
8
BLACK
6
CONTINUOUS
10
8.2273
20
-3.50355
11
8.22298
21
-3.51104
0
LINE
8
BLACK
6
CONTINUOUS
10
8.22298
20
-3.51104
11
8.21977
21
-3.51907
0
LINE
8
BLACK
6
CONTINUOUS
10
8.21977
20
-3.51907
11
8.21773
21
-3.52748
0
LINE
8
BLACK
6
CONTINUOUS
10
8.21773
20
-3.52748
11
8.21691
21
-3.53608
0
LINE
8
BLACK
6
CONTINUOUS
10
8.21691
20
-3.53608
11
8.21731
21
-3.5444
0
LINE
8
BLACK
6
CONTINUOUS
10
8.21731
20
-3.5444
11
8.21748
21
-3.5447
0
LINE
8
BLACK
6
CONTINUOUS
10
8.21748
20
-3.5447
11
8.21697
21
-3.54654
0
LINE
8
BLACK
6
CONTINUOUS
10
8.21697
20
-3.54654
11
8.2153
21
-3.54748
0
LINE
8
BLACK
6
CONTINUOUS
10
8.2153
20
-3.54748
11
8.21346
21
-3.54697
0
LINE
8
BLACK
6
CONTINUOUS
10
8.21346
20
-3.54697
11
8.21252
21
-3.5453
0
LINE
8
BLACK
6
CONTINUOUS
10
8.21252
20
-3.5453
11
8.21207
21
-3.53597
0
LINE
8
BLACK
6
CONTINUOUS
10
8.21207
20
-3.53597
11
8.21295
21
-3.52667
0
LINE
8
BLACK
6
CONTINUOUS
10
8.21295
20
-3.52667
11
8.21515
21
-3.5176
0
LINE
8
BLACK
6
CONTINUOUS
10
8.21515
20
-3.5176
11
8.21862
21
-3.50893
0
LINE
8
BLACK
6
CONTINUOUS
10
8.21862
20
-3.50893
11
8.22328
21
-3.50084
0
LINE
8
BLACK
6
CONTINUOUS
10
8.22328
20
-3.50084
11
8.22905
21
-3.4935
0
LINE
8
BLACK
6
CONTINUOUS
10
8.22905
20
-3.4935
11
8.23581
21
-3.48705
0
LINE
8
BLACK
6
CONTINUOUS
10
8.23581
20
-3.48705
11
8.24341
21
-3.48163
0
LINE
8
BLACK
6
CONTINUOUS
10
8.24341
20
-3.48163
11
8.25171
21
-3.47735
0
LINE
8
BLACK
6
CONTINUOUS
10
8.25171
20
-3.47735
11
8.26053
21
-3.47429
0
LINE
8
BLACK
6
CONTINUOUS
10
8.26053
20
-3.47429
11
8.2697
21
-3.47252
0
LINE
8
BLACK
6
CONTINUOUS
10
8.2697
20
-3.47252
11
8.2697
21
-3.47252
0
LINE
8
BLACK
6
CONTINUOUS
10
8.2697
20
-3.47252
11
8.26985
21
-3.47256
0
LINE
8
BLACK
6
CONTINUOUS
10
8.26985
20
-3.47256
11
8.27
21
-3.4725
0
LINE
8
BLACK
6
CONTINUOUS
10
8.27
20
-3.4725
11
8.5225
21
-3.4725
0
LINE
8
BLACK
6
CONTINUOUS
10
8.5225
20
-3.4725
11
8.5225
21
-3.3325
0
LINE
8
BLACK
6
CONTINUOUS
10
8.5225
20
-3.3325
11
8.085
21
-3.3325
0
LINE
8
BLACK
6
CONTINUOUS
10
8.085
20
-3.3325
11
8.08478
21
-3.33241
0
LINE
8
BLACK
6
CONTINUOUS
10
8.08478
20
-3.33241
11
8.07606
21
-3.33401
0
LINE
8
BLACK
6
CONTINUOUS
10
8.07606
20
-3.33401
11
8.06719
21
-3.337
0
LINE
8
BLACK
6
CONTINUOUS
10
8.06719
20
-3.337
11
8.05883
21
-3.34122
0
LINE
8
BLACK
6
CONTINUOUS
10
8.05883
20
-3.34122
11
8.05117
21
-3.34658
0
LINE
8
BLACK
6
CONTINUOUS
10
8.05117
20
-3.34658
11
8.04434
21
-3.35298
0
LINE
8
BLACK
6
CONTINUOUS
10
8.04434
20
-3.35298
11
8.0385
21
-3.36029
0
LINE
8
BLACK
6
CONTINUOUS
10
8.0385
20
-3.36029
11
8.03375
21
-3.36835
0
LINE
8
BLACK
6
CONTINUOUS
10
8.03375
20
-3.36835
11
8.0302
21
-3.37701
0
LINE
8
BLACK
6
CONTINUOUS
10
8.0302
20
-3.37701
11
8.02792
21
-3.38609
0
LINE
8
BLACK
6
CONTINUOUS
10
8.02792
20
-3.38609
11
8.02695
21
-3.39539
0
LINE
8
BLACK
6
CONTINUOUS
10
8.02695
20
-3.39539
11
8.02731
21
-3.4044
0
LINE
8
BLACK
6
CONTINUOUS
10
8.02731
20
-3.4044
11
8.02748
21
-3.40472
0
LINE
8
BLACK
6
CONTINUOUS
10
8.02748
20
-3.40472
11
8.02744
21
-3.40486
0
LINE
8
BLACK
6
CONTINUOUS
10
8.02744
20
-3.40486
11
8.0275
21
-3.405
0
LINE
8
BLACK
6
CONTINUOUS
10
8.0275
20
-3.405
11
8.0275
21
-3.5575
0
LINE
8
BLACK
6
CONTINUOUS
10
8.0275
20
-3.5575
11
8.215
21
-3.5575
0
LINE
8
BLACK
6
CONTINUOUS
10
8.215
20
-3.5575
11
8.21677
21
-3.55823
0
LINE
8
BLACK
6
CONTINUOUS
10
8.21677
20
-3.55823
11
8.2175
21
-3.56
0
LINE
8
BLACK
6
CONTINUOUS
10
8.2175
20
-3.56
11
8.21677
21
-3.56177
0
LINE
8
BLACK
6
CONTINUOUS
10
8.21677
20
-3.56177
11
8.215
21
-3.5625
0
LINE
8
BLACK
6
CONTINUOUS
10
8.215
20
-3.5625
11
8.025
21
-3.5625
0
LINE
8
BLACK
6
CONTINUOUS
10
8.025
20
-3.5625
11
8.02323
21
-3.56177
0
LINE
8
BLACK
6
CONTINUOUS
10
8.02323
20
-3.56177
11
8.0225
21
-3.56
0
LINE
8
BLACK
6
CONTINUOUS
10
8.0225
20
-3.56
11
8.0225
21
-3.405
0
LINE
8
BLACK
6
CONTINUOUS
10
8.0225
20
-3.405
11
8.0225
21
-3.40499
0
LINE
8
BLACK
6
CONTINUOUS
10
8.0225
20
-3.40499
11
8.0221
21
-3.39607
0
LINE
8
BLACK
6
CONTINUOUS
10
8.0221
20
-3.39607
11
8.02289
21
-3.3869
0
LINE
8
BLACK
6
CONTINUOUS
10
8.02289
20
-3.3869
11
8.02487
21
-3.3779
0
LINE
8
BLACK
6
CONTINUOUS
10
8.02487
20
-3.3779
11
8.028
21
-3.36924
0
LINE
8
BLACK
6
CONTINUOUS
10
8.028
20
-3.36924
11
8.03224
21
-3.36107
0
LINE
8
BLACK
6
CONTINUOUS
10
8.03224
20
-3.36107
11
8.03751
21
-3.35351
0
LINE
8
BLACK
6
CONTINUOUS
10
8.03751
20
-3.35351
11
8.04373
21
-3.34671
0
LINE
8
BLACK
6
CONTINUOUS
10
8.04373
20
-3.34671
11
8.05077
21
-3.34078
0
LINE
8
BLACK
6
CONTINUOUS
10
8.05077
20
-3.34078
11
8.05853
21
-3.33582
0
LINE
8
BLACK
6
CONTINUOUS
10
8.05853
20
-3.33582
11
8.06688
21
-3.33191
0
LINE
8
BLACK
6
CONTINUOUS
10
8.06688
20
-3.33191
11
8.07566
21
-3.32913
0
LINE
8
BLACK
6
CONTINUOUS
10
8.07566
20
-3.32913
11
8.08472
21
-3.32752
0
LINE
8
BLACK
6
CONTINUOUS
10
8.08472
20
-3.32752
11
8.08472
21
-3.32752
0
LINE
8
BLACK
6
CONTINUOUS
10
8.08472
20
-3.32752
11
8.08486
21
-3.32756
0
LINE
8
BLACK
6
CONTINUOUS
10
8.08486
20
-3.32756
11
8.085
21
-3.3275
0
LINE
8
BLACK
6
CONTINUOUS
10
8.085
20
-3.3275
11
8.525
21
-3.3275
0
LINE
8
BLACK
6
CONTINUOUS
10
8.525
20
-3.3275
11
8.52677
21
-3.32823
0
LINE
8
BLACK
6
CONTINUOUS
10
8.52677
20
-3.32823
11
8.5275
21
-3.33
0
LINE
8
BLACK
6
CONTINUOUS
10
8.5275
20
-3.33
11
8.5275
21
-3.475
0
LINE
8
BLACK
6
CONTINUOUS
10
8.5275
20
-3.475
11
8.52677
21
-3.47677
0
LINE
8
BLACK
6
CONTINUOUS
10
8.52677
20
-3.47677
11
8.525
21
-3.4775
0
LINE
8
BLACK
6
CONTINUOUS
10
8.525
20
-3.4775
11
8.27
21
-3.4775
0
LINE
8
BLACK
6
CONTINUOUS
10
8.27
20
-3.4775
11
8.26981
21
-3.47742
0
LINE
8
BLACK
6
CONTINUOUS
10
7.36981
20
-3.47742
11
7.36179
21
-3.47897
0
LINE
8
BLACK
6
CONTINUOUS
10
7.36179
20
-3.47897
11
7.35362
21
-3.4818
0
LINE
8
BLACK
6
CONTINUOUS
10
7.35362
20
-3.4818
11
7.34594
21
-3.48577
0
LINE
8
BLACK
6
CONTINUOUS
10
7.34594
20
-3.48577
11
7.33889
21
-3.49078
0
LINE
8
BLACK
6
CONTINUOUS
10
7.33889
20
-3.49078
11
7.33264
21
-3.49675
0
LINE
8
BLACK
6
CONTINUOUS
10
7.33264
20
-3.49675
11
7.3273
21
-3.50355
0
LINE
8
BLACK
6
CONTINUOUS
10
7.3273
20
-3.50355
11
7.32298
21
-3.51104
0
LINE
8
BLACK
6
CONTINUOUS
10
7.32298
20
-3.51104
11
7.31977
21
-3.51907
0
LINE
8
BLACK
6
CONTINUOUS
10
7.31977
20
-3.51907
11
7.31773
21
-3.52748
0
LINE
8
BLACK
6
CONTINUOUS
10
7.31773
20
-3.52748
11
7.31691
21
-3.53608
0
LINE
8
BLACK
6
CONTINUOUS
10
7.31691
20
-3.53608
11
7.31731
21
-3.5444
0
LINE
8
BLACK
6
CONTINUOUS
10
7.31731
20
-3.5444
11
7.31748
21
-3.5447
0
LINE
8
BLACK
6
CONTINUOUS
10
7.31748
20
-3.5447
11
7.31697
21
-3.54654
0
LINE
8
BLACK
6
CONTINUOUS
10
7.31697
20
-3.54654
11
7.3153
21
-3.54748
0
LINE
8
BLACK
6
CONTINUOUS
10
7.3153
20
-3.54748
11
7.31346
21
-3.54697
0
LINE
8
BLACK
6
CONTINUOUS
10
7.31346
20
-3.54697
11
7.31252
21
-3.5453
0
LINE
8
BLACK
6
CONTINUOUS
10
7.31252
20
-3.5453
11
7.31207
21
-3.53597
0
LINE
8
BLACK
6
CONTINUOUS
10
7.31207
20
-3.53597
11
7.31295
21
-3.52667
0
LINE
8
BLACK
6
CONTINUOUS
10
7.31295
20
-3.52667
11
7.31515
21
-3.5176
0
LINE
8
BLACK
6
CONTINUOUS
10
7.31515
20
-3.5176
11
7.31862
21
-3.50893
0
LINE
8
BLACK
6
CONTINUOUS
10
7.31862
20
-3.50893
11
7.32328
21
-3.50084
0
LINE
8
BLACK
6
CONTINUOUS
10
7.32328
20
-3.50084
11
7.32905
21
-3.4935
0
LINE
8
BLACK
6
CONTINUOUS
10
7.32905
20
-3.4935
11
7.33581
21
-3.48705
0
LINE
8
BLACK
6
CONTINUOUS
10
7.33581
20
-3.48705
11
7.34341
21
-3.48163
0
LINE
8
BLACK
6
CONTINUOUS
10
7.34341
20
-3.48163
11
7.35171
21
-3.47735
0
LINE
8
BLACK
6
CONTINUOUS
10
7.35171
20
-3.47735
11
7.36053
21
-3.47429
0
LINE
8
BLACK
6
CONTINUOUS
10
7.36053
20
-3.47429
11
7.3697
21
-3.47252
0
LINE
8
BLACK
6
CONTINUOUS
10
7.3697
20
-3.47252
11
7.3697
21
-3.47252
0
LINE
8
BLACK
6
CONTINUOUS
10
7.3697
20
-3.47252
11
7.36985
21
-3.47256
0
LINE
8
BLACK
6
CONTINUOUS
10
7.36985
20
-3.47256
11
7.37
21
-3.4725
0
LINE
8
BLACK
6
CONTINUOUS
10
7.37
20
-3.4725
11
7.6225
21
-3.4725
0
LINE
8
BLACK
6
CONTINUOUS
10
7.6225
20
-3.4725
11
7.6225
21
-3.3325
0
LINE
8
BLACK
6
CONTINUOUS
10
7.6225
20
-3.3325
11
7.185
21
-3.3325
0
LINE
8
BLACK
6
CONTINUOUS
10
7.185
20
-3.3325
11
7.18478
21
-3.33241
0
LINE
8
BLACK
6
CONTINUOUS
10
7.18478
20
-3.33241
11
7.17606
21
-3.33401
0
LINE
8
BLACK
6
CONTINUOUS
10
7.17606
20
-3.33401
11
7.16719
21
-3.337
0
LINE
8
BLACK
6
CONTINUOUS
10
7.16719
20
-3.337
11
7.15883
21
-3.34122
0
LINE
8
BLACK
6
CONTINUOUS
10
7.15883
20
-3.34122
11
7.15117
21
-3.34658
0
LINE
8
BLACK
6
CONTINUOUS
10
7.15117
20
-3.34658
11
7.14434
21
-3.35298
0
LINE
8
BLACK
6
CONTINUOUS
10
7.14434
20
-3.35298
11
7.1385
21
-3.36029
0
LINE
8
BLACK
6
CONTINUOUS
10
7.1385
20
-3.36029
11
7.13375
21
-3.36835
0
LINE
8
BLACK
6
CONTINUOUS
10
7.13375
20
-3.36835
11
7.1302
21
-3.37701
0
LINE
8
BLACK
6
CONTINUOUS
10
7.1302
20
-3.37701
11
7.12792
21
-3.38609
0
LINE
8
BLACK
6
CONTINUOUS
10
7.12792
20
-3.38609
11
7.12695
21
-3.39539
0
LINE
8
BLACK
6
CONTINUOUS
10
7.12695
20
-3.39539
11
7.12731
21
-3.4044
0
LINE
8
BLACK
6
CONTINUOUS
10
7.12731
20
-3.4044
11
7.12748
21
-3.40472
0
LINE
8
BLACK
6
CONTINUOUS
10
7.12748
20
-3.40472
11
7.12744
21
-3.40486
0
LINE
8
BLACK
6
CONTINUOUS
10
7.12744
20
-3.40486
11
7.1275
21
-3.405
0
LINE
8
BLACK
6
CONTINUOUS
10
7.1275
20
-3.405
11
7.1275
21
-3.5575
0
LINE
8
BLACK
6
CONTINUOUS
10
7.1275
20
-3.5575
11
7.315
21
-3.5575
0
LINE
8
BLACK
6
CONTINUOUS
10
7.315
20
-3.5575
11
7.31677
21
-3.55823
0
LINE
8
BLACK
6
CONTINUOUS
10
7.31677
20
-3.55823
11
7.3175
21
-3.56
0
LINE
8
BLACK
6
CONTINUOUS
10
7.3175
20
-3.56
11
7.31677
21
-3.56177
0
LINE
8
BLACK
6
CONTINUOUS
10
7.31677
20
-3.56177
11
7.315
21
-3.5625
0
LINE
8
BLACK
6
CONTINUOUS
10
7.315
20
-3.5625
11
7.125
21
-3.5625
0
LINE
8
BLACK
6
CONTINUOUS
10
7.125
20
-3.5625
11
7.12323
21
-3.56177
0
LINE
8
BLACK
6
CONTINUOUS
10
7.12323
20
-3.56177
11
7.1225
21
-3.56
0
LINE
8
BLACK
6
CONTINUOUS
10
7.1225
20
-3.56
11
7.1225
21
-3.405
0
LINE
8
BLACK
6
CONTINUOUS
10
7.1225
20
-3.405
11
7.1225
21
-3.40499
0
LINE
8
BLACK
6
CONTINUOUS
10
7.1225
20
-3.40499
11
7.1221
21
-3.39607
0
LINE
8
BLACK
6
CONTINUOUS
10
7.1221
20
-3.39607
11
7.12289
21
-3.3869
0
LINE
8
BLACK
6
CONTINUOUS
10
7.12289
20
-3.3869
11
7.12487
21
-3.3779
0
LINE
8
BLACK
6
CONTINUOUS
10
7.12487
20
-3.3779
11
7.128
21
-3.36924
0
LINE
8
BLACK
6
CONTINUOUS
10
7.128
20
-3.36924
11
7.13224
21
-3.36107
0
LINE
8
BLACK
6
CONTINUOUS
10
7.13224
20
-3.36107
11
7.13751
21
-3.35351
0
LINE
8
BLACK
6
CONTINUOUS
10
7.13751
20
-3.35351
11
7.14373
21
-3.34671
0
LINE
8
BLACK
6
CONTINUOUS
10
7.14373
20
-3.34671
11
7.15077
21
-3.34078
0
LINE
8
BLACK
6
CONTINUOUS
10
7.15077
20
-3.34078
11
7.15853
21
-3.33582
0
LINE
8
BLACK
6
CONTINUOUS
10
7.15853
20
-3.33582
11
7.16688
21
-3.33191
0
LINE
8
BLACK
6
CONTINUOUS
10
7.16688
20
-3.33191
11
7.17566
21
-3.32913
0
LINE
8
BLACK
6
CONTINUOUS
10
7.17566
20
-3.32913
11
7.18472
21
-3.32752
0
LINE
8
BLACK
6
CONTINUOUS
10
7.18472
20
-3.32752
11
7.18472
21
-3.32752
0
LINE
8
BLACK
6
CONTINUOUS
10
7.18472
20
-3.32752
11
7.18486
21
-3.32756
0
LINE
8
BLACK
6
CONTINUOUS
10
7.18486
20
-3.32756
11
7.185
21
-3.3275
0
LINE
8
BLACK
6
CONTINUOUS
10
7.185
20
-3.3275
11
7.625
21
-3.3275
0
LINE
8
BLACK
6
CONTINUOUS
10
7.625
20
-3.3275
11
7.62677
21
-3.32823
0
LINE
8
BLACK
6
CONTINUOUS
10
7.62677
20
-3.32823
11
7.6275
21
-3.33
0
LINE
8
BLACK
6
CONTINUOUS
10
7.6275
20
-3.33
11
7.6275
21
-3.475
0
LINE
8
BLACK
6
CONTINUOUS
10
7.6275
20
-3.475
11
7.62677
21
-3.47677
0
LINE
8
BLACK
6
CONTINUOUS
10
7.62677
20
-3.47677
11
7.625
21
-3.4775
0
LINE
8
BLACK
6
CONTINUOUS
10
7.625
20
-3.4775
11
7.37
21
-3.4775
0
LINE
8
BLACK
6
CONTINUOUS
10
7.37
20
-3.4775
11
7.36981
21
-3.47742
0
LINE
8
BLACK
6
CONTINUOUS
10
5.56981
20
-3.37742
11
5.56179
21
-3.37897
0
LINE
8
BLACK
6
CONTINUOUS
10
5.56179
20
-3.37897
11
5.55362
21
-3.3818
0
LINE
8
BLACK
6
CONTINUOUS
10
5.55362
20
-3.3818
11
5.54594
21
-3.38577
0
LINE
8
BLACK
6
CONTINUOUS
10
5.54594
20
-3.38577
11
5.53889
21
-3.39078
0
LINE
8
BLACK
6
CONTINUOUS
10
5.53889
20
-3.39078
11
5.53264
21
-3.39675
0
LINE
8
BLACK
6
CONTINUOUS
10
5.53264
20
-3.39675
11
5.5273
21
-3.40355
0
LINE
8
BLACK
6
CONTINUOUS
10
5.5273
20
-3.40355
11
5.52298
21
-3.41104
0
LINE
8
BLACK
6
CONTINUOUS
10
5.52298
20
-3.41104
11
5.51977
21
-3.41907
0
LINE
8
BLACK
6
CONTINUOUS
10
5.51977
20
-3.41907
11
5.51773
21
-3.42748
0
LINE
8
BLACK
6
CONTINUOUS
10
5.51773
20
-3.42748
11
5.51691
21
-3.43608
0
LINE
8
BLACK
6
CONTINUOUS
10
5.51691
20
-3.43608
11
5.51731
21
-3.4444
0
LINE
8
BLACK
6
CONTINUOUS
10
5.51731
20
-3.4444
11
5.51748
21
-3.4447
0
LINE
8
BLACK
6
CONTINUOUS
10
5.51748
20
-3.4447
11
5.51697
21
-3.44654
0
LINE
8
BLACK
6
CONTINUOUS
10
5.51697
20
-3.44654
11
5.5153
21
-3.44748
0
LINE
8
BLACK
6
CONTINUOUS
10
5.5153
20
-3.44748
11
5.51346
21
-3.44697
0
LINE
8
BLACK
6
CONTINUOUS
10
5.51346
20
-3.44697
11
5.51252
21
-3.4453
0
LINE
8
BLACK
6
CONTINUOUS
10
5.51252
20
-3.4453
11
5.51207
21
-3.43597
0
LINE
8
BLACK
6
CONTINUOUS
10
5.51207
20
-3.43597
11
5.51295
21
-3.42667
0
LINE
8
BLACK
6
CONTINUOUS
10
5.51295
20
-3.42667
11
5.51515
21
-3.4176
0
LINE
8
BLACK
6
CONTINUOUS
10
5.51515
20
-3.4176
11
5.51862
21
-3.40893
0
LINE
8
BLACK
6
CONTINUOUS
10
5.51862
20
-3.40893
11
5.52328
21
-3.40084
0
LINE
8
BLACK
6
CONTINUOUS
10
5.52328
20
-3.40084
11
5.52905
21
-3.3935
0
LINE
8
BLACK
6
CONTINUOUS
10
5.52905
20
-3.3935
11
5.53581
21
-3.38705
0
LINE
8
BLACK
6
CONTINUOUS
10
5.53581
20
-3.38705
11
5.54341
21
-3.38163
0
LINE
8
BLACK
6
CONTINUOUS
10
5.54341
20
-3.38163
11
5.55171
21
-3.37735
0
LINE
8
BLACK
6
CONTINUOUS
10
5.55171
20
-3.37735
11
5.56053
21
-3.37429
0
LINE
8
BLACK
6
CONTINUOUS
10
5.56053
20
-3.37429
11
5.5697
21
-3.37252
0
LINE
8
BLACK
6
CONTINUOUS
10
5.5697
20
-3.37252
11
5.5697
21
-3.37252
0
LINE
8
BLACK
6
CONTINUOUS
10
5.5697
20
-3.37252
11
5.56985
21
-3.37256
0
LINE
8
BLACK
6
CONTINUOUS
10
5.56985
20
-3.37256
11
5.57
21
-3.3725
0
LINE
8
BLACK
6
CONTINUOUS
10
5.57
20
-3.3725
11
5.8225
21
-3.3725
0
LINE
8
BLACK
6
CONTINUOUS
10
5.8225
20
-3.3725
11
5.8225
21
-3.2325
0
LINE
8
BLACK
6
CONTINUOUS
10
5.8225
20
-3.2325
11
5.385
21
-3.2325
0
LINE
8
BLACK
6
CONTINUOUS
10
5.385
20
-3.2325
11
5.38478
21
-3.23241
0
LINE
8
BLACK
6
CONTINUOUS
10
5.38478
20
-3.23241
11
5.37606
21
-3.23401
0
LINE
8
BLACK
6
CONTINUOUS
10
5.37606
20
-3.23401
11
5.36719
21
-3.237
0
LINE
8
BLACK
6
CONTINUOUS
10
5.36719
20
-3.237
11
5.35883
21
-3.24122
0
LINE
8
BLACK
6
CONTINUOUS
10
5.35883
20
-3.24122
11
5.35117
21
-3.24658
0
LINE
8
BLACK
6
CONTINUOUS
10
5.35117
20
-3.24658
11
5.34434
21
-3.25298
0
LINE
8
BLACK
6
CONTINUOUS
10
5.34434
20
-3.25298
11
5.3385
21
-3.26029
0
LINE
8
BLACK
6
CONTINUOUS
10
5.3385
20
-3.26029
11
5.33375
21
-3.26835
0
LINE
8
BLACK
6
CONTINUOUS
10
5.33375
20
-3.26835
11
5.3302
21
-3.27701
0
LINE
8
BLACK
6
CONTINUOUS
10
5.3302
20
-3.27701
11
5.32792
21
-3.28609
0
LINE
8
BLACK
6
CONTINUOUS
10
5.32792
20
-3.28609
11
5.32695
21
-3.29539
0
LINE
8
BLACK
6
CONTINUOUS
10
5.32695
20
-3.29539
11
5.32731
21
-3.3044
0
LINE
8
BLACK
6
CONTINUOUS
10
5.32731
20
-3.3044
11
5.32748
21
-3.30472
0
LINE
8
BLACK
6
CONTINUOUS
10
5.32748
20
-3.30472
11
5.32744
21
-3.30486
0
LINE
8
BLACK
6
CONTINUOUS
10
5.32744
20
-3.30486
11
5.3275
21
-3.305
0
LINE
8
BLACK
6
CONTINUOUS
10
5.3275
20
-3.305
11
5.3275
21
-3.4575
0
LINE
8
BLACK
6
CONTINUOUS
10
5.3275
20
-3.4575
11
5.515
21
-3.4575
0
LINE
8
BLACK
6
CONTINUOUS
10
5.515
20
-3.4575
11
5.51677
21
-3.45823
0
LINE
8
BLACK
6
CONTINUOUS
10
5.51677
20
-3.45823
11
5.5175
21
-3.46
0
LINE
8
BLACK
6
CONTINUOUS
10
5.5175
20
-3.46
11
5.51677
21
-3.46177
0
LINE
8
BLACK
6
CONTINUOUS
10
5.51677
20
-3.46177
11
5.515
21
-3.4625
0
LINE
8
BLACK
6
CONTINUOUS
10
5.515
20
-3.4625
11
5.325
21
-3.4625
0
LINE
8
BLACK
6
CONTINUOUS
10
5.325
20
-3.4625
11
5.32323
21
-3.46177
0
LINE
8
BLACK
6
CONTINUOUS
10
5.32323
20
-3.46177
11
5.3225
21
-3.46
0
LINE
8
BLACK
6
CONTINUOUS
10
5.3225
20
-3.46
11
5.3225
21
-3.305
0
LINE
8
BLACK
6
CONTINUOUS
10
5.3225
20
-3.305
11
5.3225
21
-3.30499
0
LINE
8
BLACK
6
CONTINUOUS
10
5.3225
20
-3.30499
11
5.3221
21
-3.29607
0
LINE
8
BLACK
6
CONTINUOUS
10
5.3221
20
-3.29607
11
5.32289
21
-3.2869
0
LINE
8
BLACK
6
CONTINUOUS
10
5.32289
20
-3.2869
11
5.32487
21
-3.2779
0
LINE
8
BLACK
6
CONTINUOUS
10
5.32487
20
-3.2779
11
5.328
21
-3.26924
0
LINE
8
BLACK
6
CONTINUOUS
10
5.328
20
-3.26924
11
5.33224
21
-3.26107
0
LINE
8
BLACK
6
CONTINUOUS
10
5.33224
20
-3.26107
11
5.33751
21
-3.25351
0
LINE
8
BLACK
6
CONTINUOUS
10
5.33751
20
-3.25351
11
5.34373
21
-3.24671
0
LINE
8
BLACK
6
CONTINUOUS
10
5.34373
20
-3.24671
11
5.35077
21
-3.24078
0
LINE
8
BLACK
6
CONTINUOUS
10
5.35077
20
-3.24078
11
5.35853
21
-3.23582
0
LINE
8
BLACK
6
CONTINUOUS
10
5.35853
20
-3.23582
11
5.36688
21
-3.23191
0
LINE
8
BLACK
6
CONTINUOUS
10
5.36688
20
-3.23191
11
5.37566
21
-3.22913
0
LINE
8
BLACK
6
CONTINUOUS
10
5.37566
20
-3.22913
11
5.38472
21
-3.22752
0
LINE
8
BLACK
6
CONTINUOUS
10
5.38472
20
-3.22752
11
5.38472
21
-3.22752
0
LINE
8
BLACK
6
CONTINUOUS
10
5.38472
20
-3.22752
11
5.38486
21
-3.22756
0
LINE
8
BLACK
6
CONTINUOUS
10
5.38486
20
-3.22756
11
5.385
21
-3.2275
0
LINE
8
BLACK
6
CONTINUOUS
10
5.385
20
-3.2275
11
5.825
21
-3.2275
0
LINE
8
BLACK
6
CONTINUOUS
10
5.825
20
-3.2275
11
5.82677
21
-3.22823
0
LINE
8
BLACK
6
CONTINUOUS
10
5.82677
20
-3.22823
11
5.8275
21
-3.23
0
LINE
8
BLACK
6
CONTINUOUS
10
5.8275
20
-3.23
11
5.8275
21
-3.375
0
LINE
8
BLACK
6
CONTINUOUS
10
5.8275
20
-3.375
11
5.82677
21
-3.37677
0
LINE
8
BLACK
6
CONTINUOUS
10
5.82677
20
-3.37677
11
5.825
21
-3.3775
0
LINE
8
BLACK
6
CONTINUOUS
10
5.825
20
-3.3775
11
5.57
21
-3.3775
0
LINE
8
BLACK
6
CONTINUOUS
10
5.57
20
-3.3775
11
5.56981
21
-3.37742
0
LINE
8
BLACK
6
CONTINUOUS
10
4.76981
20
-3.07742
11
4.76179
21
-3.07897
0
LINE
8
BLACK
6
CONTINUOUS
10
4.76179
20
-3.07897
11
4.75362
21
-3.0818
0
LINE
8
BLACK
6
CONTINUOUS
10
4.75362
20
-3.0818
11
4.74594
21
-3.08577
0
LINE
8
BLACK
6
CONTINUOUS
10
4.74594
20
-3.08577
11
4.73889
21
-3.09078
0
LINE
8
BLACK
6
CONTINUOUS
10
4.73889
20
-3.09078
11
4.73264
21
-3.09675
0
LINE
8
BLACK
6
CONTINUOUS
10
4.73264
20
-3.09675
11
4.7273
21
-3.10355
0
LINE
8
BLACK
6
CONTINUOUS
10
4.7273
20
-3.10355
11
4.72298
21
-3.11104
0
LINE
8
BLACK
6
CONTINUOUS
10
4.72298
20
-3.11104
11
4.71977
21
-3.11907
0
LINE
8
BLACK
6
CONTINUOUS
10
4.71977
20
-3.11907
11
4.71773
21
-3.12748
0
LINE
8
BLACK
6
CONTINUOUS
10
4.71773
20
-3.12748
11
4.71691
21
-3.13608
0
LINE
8
BLACK
6
CONTINUOUS
10
4.71691
20
-3.13608
11
4.71731
21
-3.1444
0
LINE
8
BLACK
6
CONTINUOUS
10
4.71731
20
-3.1444
11
4.71748
21
-3.1447
0
LINE
8
BLACK
6
CONTINUOUS
10
4.71748
20
-3.1447
11
4.71697
21
-3.14654
0
LINE
8
BLACK
6
CONTINUOUS
10
4.71697
20
-3.14654
11
4.7153
21
-3.14748
0
LINE
8
BLACK
6
CONTINUOUS
10
4.7153
20
-3.14748
11
4.71346
21
-3.14697
0
LINE
8
BLACK
6
CONTINUOUS
10
4.71346
20
-3.14697
11
4.71252
21
-3.1453
0
LINE
8
BLACK
6
CONTINUOUS
10
4.71252
20
-3.1453
11
4.71207
21
-3.13597
0
LINE
8
BLACK
6
CONTINUOUS
10
4.71207
20
-3.13597
11
4.71295
21
-3.12667
0
LINE
8
BLACK
6
CONTINUOUS
10
4.71295
20
-3.12667
11
4.71515
21
-3.1176
0
LINE
8
BLACK
6
CONTINUOUS
10
4.71515
20
-3.1176
11
4.71862
21
-3.10893
0
LINE
8
BLACK
6
CONTINUOUS
10
4.71862
20
-3.10893
11
4.72328
21
-3.10084
0
LINE
8
BLACK
6
CONTINUOUS
10
4.72328
20
-3.10084
11
4.72905
21
-3.0935
0
LINE
8
BLACK
6
CONTINUOUS
10
4.72905
20
-3.0935
11
4.73581
21
-3.08705
0
LINE
8
BLACK
6
CONTINUOUS
10
4.73581
20
-3.08705
11
4.74341
21
-3.08163
0
LINE
8
BLACK
6
CONTINUOUS
10
4.74341
20
-3.08163
11
4.75171
21
-3.07735
0
LINE
8
BLACK
6
CONTINUOUS
10
4.75171
20
-3.07735
11
4.76053
21
-3.07429
0
LINE
8
BLACK
6
CONTINUOUS
10
4.76053
20
-3.07429
11
4.7697
21
-3.07252
0
LINE
8
BLACK
6
CONTINUOUS
10
4.7697
20
-3.07252
11
4.7697
21
-3.07252
0
LINE
8
BLACK
6
CONTINUOUS
10
4.7697
20
-3.07252
11
4.76985
21
-3.07256
0
LINE
8
BLACK
6
CONTINUOUS
10
4.76985
20
-3.07256
11
4.77
21
-3.0725
0
LINE
8
BLACK
6
CONTINUOUS
10
4.77
20
-3.0725
11
5.0225
21
-3.0725
0
LINE
8
BLACK
6
CONTINUOUS
10
5.0225
20
-3.0725
11
5.0225
21
-2.9325
0
LINE
8
BLACK
6
CONTINUOUS
10
5.0225
20
-2.9325
11
4.585
21
-2.9325
0
LINE
8
BLACK
6
CONTINUOUS
10
4.585
20
-2.9325
11
4.58478
21
-2.93241
0
LINE
8
BLACK
6
CONTINUOUS
10
4.58478
20
-2.93241
11
4.57606
21
-2.93401
0
LINE
8
BLACK
6
CONTINUOUS
10
4.57606
20
-2.93401
11
4.56719
21
-2.937
0
LINE
8
BLACK
6
CONTINUOUS
10
4.56719
20
-2.937
11
4.55883
21
-2.94122
0
LINE
8
BLACK
6
CONTINUOUS
10
4.55883
20
-2.94122
11
4.55117
21
-2.94658
0
LINE
8
BLACK
6
CONTINUOUS
10
4.55117
20
-2.94658
11
4.54434
21
-2.95298
0
LINE
8
BLACK
6
CONTINUOUS
10
4.54434
20
-2.95298
11
4.5385
21
-2.96029
0
LINE
8
BLACK
6
CONTINUOUS
10
4.5385
20
-2.96029
11
4.53375
21
-2.96835
0
LINE
8
BLACK
6
CONTINUOUS
10
4.53375
20
-2.96835
11
4.5302
21
-2.97701
0
LINE
8
BLACK
6
CONTINUOUS
10
4.5302
20
-2.97701
11
4.52792
21
-2.98609
0
LINE
8
BLACK
6
CONTINUOUS
10
4.52792
20
-2.98609
11
4.52695
21
-2.99539
0
LINE
8
BLACK
6
CONTINUOUS
10
4.52695
20
-2.99539
11
4.52731
21
-3.0044
0
LINE
8
BLACK
6
CONTINUOUS
10
4.52731
20
-3.0044
11
4.52748
21
-3.00472
0
LINE
8
BLACK
6
CONTINUOUS
10
4.52748
20
-3.00472
11
4.52744
21
-3.00486
0
LINE
8
BLACK
6
CONTINUOUS
10
4.52744
20
-3.00486
11
4.5275
21
-3.005
0
LINE
8
BLACK
6
CONTINUOUS
10
4.5275
20
-3.005
11
4.5275
21
-3.1575
0
LINE
8
BLACK
6
CONTINUOUS
10
4.5275
20
-3.1575
11
4.715
21
-3.1575
0
LINE
8
BLACK
6
CONTINUOUS
10
4.715
20
-3.1575
11
4.71677
21
-3.15823
0
LINE
8
BLACK
6
CONTINUOUS
10
4.71677
20
-3.15823
11
4.7175
21
-3.16
0
LINE
8
BLACK
6
CONTINUOUS
10
4.7175
20
-3.16
11
4.71677
21
-3.16177
0
LINE
8
BLACK
6
CONTINUOUS
10
4.71677
20
-3.16177
11
4.715
21
-3.1625
0
LINE
8
BLACK
6
CONTINUOUS
10
4.715
20
-3.1625
11
4.525
21
-3.1625
0
LINE
8
BLACK
6
CONTINUOUS
10
4.525
20
-3.1625
11
4.52323
21
-3.16177
0
LINE
8
BLACK
6
CONTINUOUS
10
4.52323
20
-3.16177
11
4.5225
21
-3.16
0
LINE
8
BLACK
6
CONTINUOUS
10
4.5225
20
-3.16
11
4.5225
21
-3.005
0
LINE
8
BLACK
6
CONTINUOUS
10
4.5225
20
-3.005
11
4.5225
21
-3.00499
0
LINE
8
BLACK
6
CONTINUOUS
10
4.5225
20
-3.00499
11
4.5221
21
-2.99607
0
LINE
8
BLACK
6
CONTINUOUS
10
4.5221
20
-2.99607
11
4.52289
21
-2.9869
0
LINE
8
BLACK
6
CONTINUOUS
10
4.52289
20
-2.9869
11
4.52487
21
-2.9779
0
LINE
8
BLACK
6
CONTINUOUS
10
4.52487
20
-2.9779
11
4.528
21
-2.96924
0
LINE
8
BLACK
6
CONTINUOUS
10
4.528
20
-2.96924
11
4.53224
21
-2.96107
0
LINE
8
BLACK
6
CONTINUOUS
10
4.53224
20
-2.96107
11
4.53751
21
-2.95351
0
LINE
8
BLACK
6
CONTINUOUS
10
4.53751
20
-2.95351
11
4.54373
21
-2.94671
0
LINE
8
BLACK
6
CONTINUOUS
10
4.54373
20
-2.94671
11
4.55077
21
-2.94078
0
LINE
8
BLACK
6
CONTINUOUS
10
4.55077
20
-2.94078
11
4.55853
21
-2.93582
0
LINE
8
BLACK
6
CONTINUOUS
10
4.55853
20
-2.93582
11
4.56688
21
-2.93191
0
LINE
8
BLACK
6
CONTINUOUS
10
4.56688
20
-2.93191
11
4.57566
21
-2.92913
0
LINE
8
BLACK
6
CONTINUOUS
10
4.57566
20
-2.92913
11
4.58472
21
-2.92752
0
LINE
8
BLACK
6
CONTINUOUS
10
4.58472
20
-2.92752
11
4.58472
21
-2.92752
0
LINE
8
BLACK
6
CONTINUOUS
10
4.58472
20
-2.92752
11
4.58486
21
-2.92756
0
LINE
8
BLACK
6
CONTINUOUS
10
4.58486
20
-2.92756
11
4.585
21
-2.9275
0
LINE
8
BLACK
6
CONTINUOUS
10
4.585
20
-2.9275
11
5.025
21
-2.9275
0
LINE
8
BLACK
6
CONTINUOUS
10
5.025
20
-2.9275
11
5.02677
21
-2.92823
0
LINE
8
BLACK
6
CONTINUOUS
10
5.02677
20
-2.92823
11
5.0275
21
-2.93
0
LINE
8
BLACK
6
CONTINUOUS
10
5.0275
20
-2.93
11
5.0275
21
-3.075
0
LINE
8
BLACK
6
CONTINUOUS
10
5.0275
20
-3.075
11
5.02677
21
-3.07677
0
LINE
8
BLACK
6
CONTINUOUS
10
5.02677
20
-3.07677
11
5.025
21
-3.0775
0
LINE
8
BLACK
6
CONTINUOUS
10
5.025
20
-3.0775
11
4.77
21
-3.0775
0
LINE
8
BLACK
6
CONTINUOUS
10
4.77
20
-3.0775
11
4.76981
21
-3.07742
0
LINE
8
BLACK
6
CONTINUOUS
10
3.86981
20
-3.07742
11
3.86179
21
-3.07897
0
LINE
8
BLACK
6
CONTINUOUS
10
3.86179
20
-3.07897
11
3.85362
21
-3.0818
0
LINE
8
BLACK
6
CONTINUOUS
10
3.85362
20
-3.0818
11
3.84594
21
-3.08577
0
LINE
8
BLACK
6
CONTINUOUS
10
3.84594
20
-3.08577
11
3.83889
21
-3.09078
0
LINE
8
BLACK
6
CONTINUOUS
10
3.83889
20
-3.09078
11
3.83264
21
-3.09675
0
LINE
8
BLACK
6
CONTINUOUS
10
3.83264
20
-3.09675
11
3.8273
21
-3.10355
0
LINE
8
BLACK
6
CONTINUOUS
10
3.8273
20
-3.10355
11
3.82298
21
-3.11104
0
LINE
8
BLACK
6
CONTINUOUS
10
3.82298
20
-3.11104
11
3.81977
21
-3.11907
0
LINE
8
BLACK
6
CONTINUOUS
10
3.81977
20
-3.11907
11
3.81773
21
-3.12748
0
LINE
8
BLACK
6
CONTINUOUS
10
3.81773
20
-3.12748
11
3.81691
21
-3.13608
0
LINE
8
BLACK
6
CONTINUOUS
10
3.81691
20
-3.13608
11
3.81731
21
-3.1444
0
LINE
8
BLACK
6
CONTINUOUS
10
3.81731
20
-3.1444
11
3.81748
21
-3.1447
0
LINE
8
BLACK
6
CONTINUOUS
10
3.81748
20
-3.1447
11
3.81697
21
-3.14654
0
LINE
8
BLACK
6
CONTINUOUS
10
3.81697
20
-3.14654
11
3.8153
21
-3.14748
0
LINE
8
BLACK
6
CONTINUOUS
10
3.8153
20
-3.14748
11
3.81346
21
-3.14697
0
LINE
8
BLACK
6
CONTINUOUS
10
3.81346
20
-3.14697
11
3.81252
21
-3.1453
0
LINE
8
BLACK
6
CONTINUOUS
10
3.81252
20
-3.1453
11
3.81207
21
-3.13597
0
LINE
8
BLACK
6
CONTINUOUS
10
3.81207
20
-3.13597
11
3.81295
21
-3.12667
0
LINE
8
BLACK
6
CONTINUOUS
10
3.81295
20
-3.12667
11
3.81515
21
-3.1176
0
LINE
8
BLACK
6
CONTINUOUS
10
3.81515
20
-3.1176
11
3.81862
21
-3.10893
0
LINE
8
BLACK
6
CONTINUOUS
10
3.81862
20
-3.10893
11
3.82328
21
-3.10084
0
LINE
8
BLACK
6
CONTINUOUS
10
3.82328
20
-3.10084
11
3.82905
21
-3.0935
0
LINE
8
BLACK
6
CONTINUOUS
10
3.82905
20
-3.0935
11
3.83581
21
-3.08705
0
LINE
8
BLACK
6
CONTINUOUS
10
3.83581
20
-3.08705
11
3.84341
21
-3.08163
0
LINE
8
BLACK
6
CONTINUOUS
10
3.84341
20
-3.08163
11
3.85171
21
-3.07735
0
LINE
8
BLACK
6
CONTINUOUS
10
3.85171
20
-3.07735
11
3.86053
21
-3.07429
0
LINE
8
BLACK
6
CONTINUOUS
10
3.86053
20
-3.07429
11
3.8697
21
-3.07252
0
LINE
8
BLACK
6
CONTINUOUS
10
3.8697
20
-3.07252
11
3.8697
21
-3.07252
0
LINE
8
BLACK
6
CONTINUOUS
10
3.8697
20
-3.07252
11
3.86985
21
-3.07256
0
LINE
8
BLACK
6
CONTINUOUS
10
3.86985
20
-3.07256
11
3.87
21
-3.0725
0
LINE
8
BLACK
6
CONTINUOUS
10
3.87
20
-3.0725
11
4.1225
21
-3.0725
0
LINE
8
BLACK
6
CONTINUOUS
10
4.1225
20
-3.0725
11
4.1225
21
-2.9325
0
LINE
8
BLACK
6
CONTINUOUS
10
4.1225
20
-2.9325
11
3.685
21
-2.9325
0
LINE
8
BLACK
6
CONTINUOUS
10
3.685
20
-2.9325
11
3.68478
21
-2.93241
0
LINE
8
BLACK
6
CONTINUOUS
10
3.68478
20
-2.93241
11
3.67606
21
-2.93401
0
LINE
8
BLACK
6
CONTINUOUS
10
3.67606
20
-2.93401
11
3.66719
21
-2.937
0
LINE
8
BLACK
6
CONTINUOUS
10
3.66719
20
-2.937
11
3.65883
21
-2.94122
0
LINE
8
BLACK
6
CONTINUOUS
10
3.65883
20
-2.94122
11
3.65117
21
-2.94658
0
LINE
8
BLACK
6
CONTINUOUS
10
3.65117
20
-2.94658
11
3.64434
21
-2.95298
0
LINE
8
BLACK
6
CONTINUOUS
10
3.64434
20
-2.95298
11
3.6385
21
-2.96029
0
LINE
8
BLACK
6
CONTINUOUS
10
3.6385
20
-2.96029
11
3.63375
21
-2.96835
0
LINE
8
BLACK
6
CONTINUOUS
10
3.63375
20
-2.96835
11
3.6302
21
-2.97701
0
LINE
8
BLACK
6
CONTINUOUS
10
3.6302
20
-2.97701
11
3.62792
21
-2.98609
0
LINE
8
BLACK
6
CONTINUOUS
10
3.62792
20
-2.98609
11
3.62695
21
-2.99539
0
LINE
8
BLACK
6
CONTINUOUS
10
3.62695
20
-2.99539
11
3.62731
21
-3.0044
0
LINE
8
BLACK
6
CONTINUOUS
10
3.62731
20
-3.0044
11
3.62748
21
-3.00472
0
LINE
8
BLACK
6
CONTINUOUS
10
3.62748
20
-3.00472
11
3.62744
21
-3.00486
0
LINE
8
BLACK
6
CONTINUOUS
10
3.62744
20
-3.00486
11
3.6275
21
-3.005
0
LINE
8
BLACK
6
CONTINUOUS
10
3.6275
20
-3.005
11
3.6275
21
-3.1575
0
LINE
8
BLACK
6
CONTINUOUS
10
3.6275
20
-3.1575
11
3.815
21
-3.1575
0
LINE
8
BLACK
6
CONTINUOUS
10
3.815
20
-3.1575
11
3.81677
21
-3.15823
0
LINE
8
BLACK
6
CONTINUOUS
10
3.81677
20
-3.15823
11
3.8175
21
-3.16
0
LINE
8
BLACK
6
CONTINUOUS
10
3.8175
20
-3.16
11
3.81677
21
-3.16177
0
LINE
8
BLACK
6
CONTINUOUS
10
3.81677
20
-3.16177
11
3.815
21
-3.1625
0
LINE
8
BLACK
6
CONTINUOUS
10
3.815
20
-3.1625
11
3.625
21
-3.1625
0
LINE
8
BLACK
6
CONTINUOUS
10
3.625
20
-3.1625
11
3.62323
21
-3.16177
0
LINE
8
BLACK
6
CONTINUOUS
10
3.62323
20
-3.16177
11
3.6225
21
-3.16
0
LINE
8
BLACK
6
CONTINUOUS
10
3.6225
20
-3.16
11
3.6225
21
-3.005
0
LINE
8
BLACK
6
CONTINUOUS
10
3.6225
20
-3.005
11
3.6225
21
-3.00499
0
LINE
8
BLACK
6
CONTINUOUS
10
3.6225
20
-3.00499
11
3.6221
21
-2.99607
0
LINE
8
BLACK
6
CONTINUOUS
10
3.6221
20
-2.99607
11
3.62289
21
-2.9869
0
LINE
8
BLACK
6
CONTINUOUS
10
3.62289
20
-2.9869
11
3.62487
21
-2.9779
0
LINE
8
BLACK
6
CONTINUOUS
10
3.62487
20
-2.9779
11
3.628
21
-2.96924
0
LINE
8
BLACK
6
CONTINUOUS
10
3.628
20
-2.96924
11
3.63224
21
-2.96107
0
LINE
8
BLACK
6
CONTINUOUS
10
3.63224
20
-2.96107
11
3.63751
21
-2.95351
0
LINE
8
BLACK
6
CONTINUOUS
10
3.63751
20
-2.95351
11
3.64373
21
-2.94671
0
LINE
8
BLACK
6
CONTINUOUS
10
3.64373
20
-2.94671
11
3.65077
21
-2.94078
0
LINE
8
BLACK
6
CONTINUOUS
10
3.65077
20
-2.94078
11
3.65853
21
-2.93582
0
LINE
8
BLACK
6
CONTINUOUS
10
3.65853
20
-2.93582
11
3.66688
21
-2.93191
0
LINE
8
BLACK
6
CONTINUOUS
10
3.66688
20
-2.93191
11
3.67566
21
-2.92913
0
LINE
8
BLACK
6
CONTINUOUS
10
3.67566
20
-2.92913
11
3.68472
21
-2.92752
0
LINE
8
BLACK
6
CONTINUOUS
10
3.68472
20
-2.92752
11
3.68472
21
-2.92752
0
LINE
8
BLACK
6
CONTINUOUS
10
3.68472
20
-2.92752
11
3.68486
21
-2.92756
0
LINE
8
BLACK
6
CONTINUOUS
10
3.68486
20
-2.92756
11
3.685
21
-2.9275
0
LINE
8
BLACK
6
CONTINUOUS
10
3.685
20
-2.9275
11
4.125
21
-2.9275
0
LINE
8
BLACK
6
CONTINUOUS
10
4.125
20
-2.9275
11
4.12677
21
-2.92823
0
LINE
8
BLACK
6
CONTINUOUS
10
4.12677
20
-2.92823
11
4.1275
21
-2.93
0
LINE
8
BLACK
6
CONTINUOUS
10
4.1275
20
-2.93
11
4.1275
21
-3.075
0
LINE
8
BLACK
6
CONTINUOUS
10
4.1275
20
-3.075
11
4.12677
21
-3.07677
0
LINE
8
BLACK
6
CONTINUOUS
10
4.12677
20
-3.07677
11
4.125
21
-3.0775
0
LINE
8
BLACK
6
CONTINUOUS
10
4.125
20
-3.0775
11
3.87
21
-3.0775
0
LINE
8
BLACK
6
CONTINUOUS
10
3.87
20
-3.0775
11
3.86981
21
-3.07742
0
LINE
8
BLACK
6
CONTINUOUS
10
6.46981
20
-2.77742
11
6.46179
21
-2.77897
0
LINE
8
BLACK
6
CONTINUOUS
10
6.46179
20
-2.77897
11
6.45362
21
-2.7818
0
LINE
8
BLACK
6
CONTINUOUS
10
6.45362
20
-2.7818
11
6.44594
21
-2.78577
0
LINE
8
BLACK
6
CONTINUOUS
10
6.44594
20
-2.78577
11
6.43889
21
-2.79078
0
LINE
8
BLACK
6
CONTINUOUS
10
6.43889
20
-2.79078
11
6.43264
21
-2.79675
0
LINE
8
BLACK
6
CONTINUOUS
10
6.43264
20
-2.79675
11
6.4273
21
-2.80355
0
LINE
8
BLACK
6
CONTINUOUS
10
6.4273
20
-2.80355
11
6.42298
21
-2.81104
0
LINE
8
BLACK
6
CONTINUOUS
10
6.42298
20
-2.81104
11
6.41977
21
-2.81907
0
LINE
8
BLACK
6
CONTINUOUS
10
6.41977
20
-2.81907
11
6.41773
21
-2.82748
0
LINE
8
BLACK
6
CONTINUOUS
10
6.41773
20
-2.82748
11
6.41691
21
-2.83608
0
LINE
8
BLACK
6
CONTINUOUS
10
6.41691
20
-2.83608
11
6.41731
21
-2.8444
0
LINE
8
BLACK
6
CONTINUOUS
10
6.41731
20
-2.8444
11
6.41748
21
-2.8447
0
LINE
8
BLACK
6
CONTINUOUS
10
6.41748
20
-2.8447
11
6.41697
21
-2.84654
0
LINE
8
BLACK
6
CONTINUOUS
10
6.41697
20
-2.84654
11
6.4153
21
-2.84748
0
LINE
8
BLACK
6
CONTINUOUS
10
6.4153
20
-2.84748
11
6.41346
21
-2.84697
0
LINE
8
BLACK
6
CONTINUOUS
10
6.41346
20
-2.84697
11
6.41252
21
-2.8453
0
LINE
8
BLACK
6
CONTINUOUS
10
6.41252
20
-2.8453
11
6.41207
21
-2.83597
0
LINE
8
BLACK
6
CONTINUOUS
10
6.41207
20
-2.83597
11
6.41295
21
-2.82667
0
LINE
8
BLACK
6
CONTINUOUS
10
6.41295
20
-2.82667
11
6.41515
21
-2.8176
0
LINE
8
BLACK
6
CONTINUOUS
10
6.41515
20
-2.8176
11
6.41862
21
-2.80893
0
LINE
8
BLACK
6
CONTINUOUS
10
6.41862
20
-2.80893
11
6.42328
21
-2.80084
0
LINE
8
BLACK
6
CONTINUOUS
10
6.42328
20
-2.80084
11
6.42905
21
-2.7935
0
LINE
8
BLACK
6
CONTINUOUS
10
6.42905
20
-2.7935
11
6.43581
21
-2.78705
0
LINE
8
BLACK
6
CONTINUOUS
10
6.43581
20
-2.78705
11
6.44341
21
-2.78163
0
LINE
8
BLACK
6
CONTINUOUS
10
6.44341
20
-2.78163
11
6.45171
21
-2.77735
0
LINE
8
BLACK
6
CONTINUOUS
10
6.45171
20
-2.77735
11
6.46053
21
-2.77429
0
LINE
8
BLACK
6
CONTINUOUS
10
6.46053
20
-2.77429
11
6.4697
21
-2.77252
0
LINE
8
BLACK
6
CONTINUOUS
10
6.4697
20
-2.77252
11
6.4697
21
-2.77252
0
LINE
8
BLACK
6
CONTINUOUS
10
6.4697
20
-2.77252
11
6.46985
21
-2.77256
0
LINE
8
BLACK
6
CONTINUOUS
10
6.46985
20
-2.77256
11
6.47
21
-2.7725
0
LINE
8
BLACK
6
CONTINUOUS
10
6.47
20
-2.7725
11
6.7225
21
-2.7725
0
LINE
8
BLACK
6
CONTINUOUS
10
6.7225
20
-2.7725
11
6.7225
21
-2.6325
0
LINE
8
BLACK
6
CONTINUOUS
10
6.7225
20
-2.6325
11
6.285
21
-2.6325
0
LINE
8
BLACK
6
CONTINUOUS
10
6.285
20
-2.6325
11
6.28478
21
-2.63241
0
LINE
8
BLACK
6
CONTINUOUS
10
6.28478
20
-2.63241
11
6.27606
21
-2.63401
0
LINE
8
BLACK
6
CONTINUOUS
10
6.27606
20
-2.63401
11
6.26719
21
-2.637
0
LINE
8
BLACK
6
CONTINUOUS
10
6.26719
20
-2.637
11
6.25883
21
-2.64122
0
LINE
8
BLACK
6
CONTINUOUS
10
6.25883
20
-2.64122
11
6.25117
21
-2.64658
0
LINE
8
BLACK
6
CONTINUOUS
10
6.25117
20
-2.64658
11
6.24434
21
-2.65298
0
LINE
8
BLACK
6
CONTINUOUS
10
6.24434
20
-2.65298
11
6.2385
21
-2.66029
0
LINE
8
BLACK
6
CONTINUOUS
10
6.2385
20
-2.66029
11
6.23375
21
-2.66835
0
LINE
8
BLACK
6
CONTINUOUS
10
6.23375
20
-2.66835
11
6.2302
21
-2.67701
0
LINE
8
BLACK
6
CONTINUOUS
10
6.2302
20
-2.67701
11
6.22792
21
-2.68609
0
LINE
8
BLACK
6
CONTINUOUS
10
6.22792
20
-2.68609
11
6.22695
21
-2.69539
0
LINE
8
BLACK
6
CONTINUOUS
10
6.22695
20
-2.69539
11
6.22731
21
-2.7044
0
LINE
8
BLACK
6
CONTINUOUS
10
6.22731
20
-2.7044
11
6.22748
21
-2.70472
0
LINE
8
BLACK
6
CONTINUOUS
10
6.22748
20
-2.70472
11
6.22744
21
-2.70486
0
LINE
8
BLACK
6
CONTINUOUS
10
6.22744
20
-2.70486
11
6.2275
21
-2.705
0
LINE
8
BLACK
6
CONTINUOUS
10
6.2275
20
-2.705
11
6.2275
21
-2.8575
0
LINE
8
BLACK
6
CONTINUOUS
10
6.2275
20
-2.8575
11
6.415
21
-2.8575
0
LINE
8
BLACK
6
CONTINUOUS
10
6.415
20
-2.8575
11
6.41677
21
-2.85823
0
LINE
8
BLACK
6
CONTINUOUS
10
6.41677
20
-2.85823
11
6.4175
21
-2.86
0
LINE
8
BLACK
6
CONTINUOUS
10
6.4175
20
-2.86
11
6.41677
21
-2.86177
0
LINE
8
BLACK
6
CONTINUOUS
10
6.41677
20
-2.86177
11
6.415
21
-2.8625
0
LINE
8
BLACK
6
CONTINUOUS
10
6.415
20
-2.8625
11
6.225
21
-2.8625
0
LINE
8
BLACK
6
CONTINUOUS
10
6.225
20
-2.8625
11
6.22323
21
-2.86177
0
LINE
8
BLACK
6
CONTINUOUS
10
6.22323
20
-2.86177
11
6.2225
21
-2.86
0
LINE
8
BLACK
6
CONTINUOUS
10
6.2225
20
-2.86
11
6.2225
21
-2.705
0
LINE
8
BLACK
6
CONTINUOUS
10
6.2225
20
-2.705
11
6.2225
21
-2.70499
0
LINE
8
BLACK
6
CONTINUOUS
10
6.2225
20
-2.70499
11
6.2221
21
-2.69607
0
LINE
8
BLACK
6
CONTINUOUS
10
6.2221
20
-2.69607
11
6.22289
21
-2.6869
0
LINE
8
BLACK
6
CONTINUOUS
10
6.22289
20
-2.6869
11
6.22487
21
-2.6779
0
LINE
8
BLACK
6
CONTINUOUS
10
6.22487
20
-2.6779
11
6.228
21
-2.66924
0
LINE
8
BLACK
6
CONTINUOUS
10
6.228
20
-2.66924
11
6.23224
21
-2.66107
0
LINE
8
BLACK
6
CONTINUOUS
10
6.23224
20
-2.66107
11
6.23751
21
-2.65351
0
LINE
8
BLACK
6
CONTINUOUS
10
6.23751
20
-2.65351
11
6.24373
21
-2.64671
0
LINE
8
BLACK
6
CONTINUOUS
10
6.24373
20
-2.64671
11
6.25077
21
-2.64078
0
LINE
8
BLACK
6
CONTINUOUS
10
6.25077
20
-2.64078
11
6.25853
21
-2.63582
0
LINE
8
BLACK
6
CONTINUOUS
10
6.25853
20
-2.63582
11
6.26688
21
-2.63191
0
LINE
8
BLACK
6
CONTINUOUS
10
6.26688
20
-2.63191
11
6.27566
21
-2.62913
0
LINE
8
BLACK
6
CONTINUOUS
10
6.27566
20
-2.62913
11
6.28472
21
-2.62752
0
LINE
8
BLACK
6
CONTINUOUS
10
6.28472
20
-2.62752
11
6.28472
21
-2.62752
0
LINE
8
BLACK
6
CONTINUOUS
10
6.28472
20
-2.62752
11
6.28486
21
-2.62756
0
LINE
8
BLACK
6
CONTINUOUS
10
6.28486
20
-2.62756
11
6.285
21
-2.6275
0
LINE
8
BLACK
6
CONTINUOUS
10
6.285
20
-2.6275
11
6.725
21
-2.6275
0
LINE
8
BLACK
6
CONTINUOUS
10
6.725
20
-2.6275
11
6.72677
21
-2.62823
0
LINE
8
BLACK
6
CONTINUOUS
10
6.72677
20
-2.62823
11
6.7275
21
-2.63
0
LINE
8
BLACK
6
CONTINUOUS
10
6.7275
20
-2.63
11
6.7275
21
-2.775
0
LINE
8
BLACK
6
CONTINUOUS
10
6.7275
20
-2.775
11
6.72677
21
-2.77677
0
LINE
8
BLACK
6
CONTINUOUS
10
6.72677
20
-2.77677
11
6.725
21
-2.7775
0
LINE
8
BLACK
6
CONTINUOUS
10
6.725
20
-2.7775
11
6.47
21
-2.7775
0
LINE
8
BLACK
6
CONTINUOUS
10
6.47
20
-2.7775
11
6.46981
21
-2.77742
0
LINE
8
BLACK
6
CONTINUOUS
10
9.16981
20
-2.67742
11
9.16179
21
-2.67897
0
LINE
8
BLACK
6
CONTINUOUS
10
9.16179
20
-2.67897
11
9.15362
21
-2.6818
0
LINE
8
BLACK
6
CONTINUOUS
10
9.15362
20
-2.6818
11
9.14594
21
-2.68577
0
LINE
8
BLACK
6
CONTINUOUS
10
9.14594
20
-2.68577
11
9.13889
21
-2.69078
0
LINE
8
BLACK
6
CONTINUOUS
10
9.13889
20
-2.69078
11
9.13264
21
-2.69675
0
LINE
8
BLACK
6
CONTINUOUS
10
9.13264
20
-2.69675
11
9.1273
21
-2.70355
0
LINE
8
BLACK
6
CONTINUOUS
10
9.1273
20
-2.70355
11
9.12298
21
-2.71104
0
LINE
8
BLACK
6
CONTINUOUS
10
9.12298
20
-2.71104
11
9.11977
21
-2.71907
0
LINE
8
BLACK
6
CONTINUOUS
10
9.11977
20
-2.71907
11
9.11773
21
-2.72748
0
LINE
8
BLACK
6
CONTINUOUS
10
9.11773
20
-2.72748
11
9.11691
21
-2.73608
0
LINE
8
BLACK
6
CONTINUOUS
10
9.11691
20
-2.73608
11
9.11731
21
-2.7444
0
LINE
8
BLACK
6
CONTINUOUS
10
9.11731
20
-2.7444
11
9.11748
21
-2.7447
0
LINE
8
BLACK
6
CONTINUOUS
10
9.11748
20
-2.7447
11
9.11697
21
-2.74654
0
LINE
8
BLACK
6
CONTINUOUS
10
9.11697
20
-2.74654
11
9.1153
21
-2.74748
0
LINE
8
BLACK
6
CONTINUOUS
10
9.1153
20
-2.74748
11
9.11346
21
-2.74697
0
LINE
8
BLACK
6
CONTINUOUS
10
9.11346
20
-2.74697
11
9.11252
21
-2.7453
0
LINE
8
BLACK
6
CONTINUOUS
10
9.11252
20
-2.7453
11
9.11207
21
-2.73597
0
LINE
8
BLACK
6
CONTINUOUS
10
9.11207
20
-2.73597
11
9.11295
21
-2.72667
0
LINE
8
BLACK
6
CONTINUOUS
10
9.11295
20
-2.72667
11
9.11515
21
-2.7176
0
LINE
8
BLACK
6
CONTINUOUS
10
9.11515
20
-2.7176
11
9.11862
21
-2.70893
0
LINE
8
BLACK
6
CONTINUOUS
10
9.11862
20
-2.70893
11
9.12328
21
-2.70084
0
LINE
8
BLACK
6
CONTINUOUS
10
9.12328
20
-2.70084
11
9.12905
21
-2.6935
0
LINE
8
BLACK
6
CONTINUOUS
10
9.12905
20
-2.6935
11
9.13581
21
-2.68705
0
LINE
8
BLACK
6
CONTINUOUS
10
9.13581
20
-2.68705
11
9.14341
21
-2.68163
0
LINE
8
BLACK
6
CONTINUOUS
10
9.14341
20
-2.68163
11
9.15171
21
-2.67735
0
LINE
8
BLACK
6
CONTINUOUS
10
9.15171
20
-2.67735
11
9.16053
21
-2.67429
0
LINE
8
BLACK
6
CONTINUOUS
10
9.16053
20
-2.67429
11
9.1697
21
-2.67252
0
LINE
8
BLACK
6
CONTINUOUS
10
9.1697
20
-2.67252
11
9.1697
21
-2.67252
0
LINE
8
BLACK
6
CONTINUOUS
10
9.1697
20
-2.67252
11
9.16985
21
-2.67256
0
LINE
8
BLACK
6
CONTINUOUS
10
9.16985
20
-2.67256
11
9.17
21
-2.6725
0
LINE
8
BLACK
6
CONTINUOUS
10
9.17
20
-2.6725
11
9.4225
21
-2.6725
0
LINE
8
BLACK
6
CONTINUOUS
10
9.4225
20
-2.6725
11
9.4225
21
-2.5325
0
LINE
8
BLACK
6
CONTINUOUS
10
9.4225
20
-2.5325
11
8.985
21
-2.5325
0
LINE
8
BLACK
6
CONTINUOUS
10
8.985
20
-2.5325
11
8.98478
21
-2.53241
0
LINE
8
BLACK
6
CONTINUOUS
10
8.98478
20
-2.53241
11
8.97606
21
-2.53401
0
LINE
8
BLACK
6
CONTINUOUS
10
8.97606
20
-2.53401
11
8.96719
21
-2.537
0
LINE
8
BLACK
6
CONTINUOUS
10
8.96719
20
-2.537
11
8.95883
21
-2.54122
0
LINE
8
BLACK
6
CONTINUOUS
10
8.95883
20
-2.54122
11
8.95117
21
-2.54658
0
LINE
8
BLACK
6
CONTINUOUS
10
8.95117
20
-2.54658
11
8.94434
21
-2.55298
0
LINE
8
BLACK
6
CONTINUOUS
10
8.94434
20
-2.55298
11
8.9385
21
-2.56029
0
LINE
8
BLACK
6
CONTINUOUS
10
8.9385
20
-2.56029
11
8.93375
21
-2.56835
0
LINE
8
BLACK
6
CONTINUOUS
10
8.93375
20
-2.56835
11
8.9302
21
-2.57701
0
LINE
8
BLACK
6
CONTINUOUS
10
8.9302
20
-2.57701
11
8.92792
21
-2.58609
0
LINE
8
BLACK
6
CONTINUOUS
10
8.92792
20
-2.58609
11
8.92695
21
-2.59539
0
LINE
8
BLACK
6
CONTINUOUS
10
8.92695
20
-2.59539
11
8.92731
21
-2.6044
0
LINE
8
BLACK
6
CONTINUOUS
10
8.92731
20
-2.6044
11
8.92748
21
-2.60472
0
LINE
8
BLACK
6
CONTINUOUS
10
8.92748
20
-2.60472
11
8.92744
21
-2.60486
0
LINE
8
BLACK
6
CONTINUOUS
10
8.92744
20
-2.60486
11
8.9275
21
-2.605
0
LINE
8
BLACK
6
CONTINUOUS
10
8.9275
20
-2.605
11
8.9275
21
-2.7575
0
LINE
8
BLACK
6
CONTINUOUS
10
8.9275
20
-2.7575
11
9.115
21
-2.7575
0
LINE
8
BLACK
6
CONTINUOUS
10
9.115
20
-2.7575
11
9.11677
21
-2.75823
0
LINE
8
BLACK
6
CONTINUOUS
10
9.11677
20
-2.75823
11
9.1175
21
-2.76
0
LINE
8
BLACK
6
CONTINUOUS
10
9.1175
20
-2.76
11
9.11677
21
-2.76177
0
LINE
8
BLACK
6
CONTINUOUS
10
9.11677
20
-2.76177
11
9.115
21
-2.7625
0
LINE
8
BLACK
6
CONTINUOUS
10
9.115
20
-2.7625
11
8.925
21
-2.7625
0
LINE
8
BLACK
6
CONTINUOUS
10
8.925
20
-2.7625
11
8.92323
21
-2.76177
0
LINE
8
BLACK
6
CONTINUOUS
10
8.92323
20
-2.76177
11
8.9225
21
-2.76
0
LINE
8
BLACK
6
CONTINUOUS
10
8.9225
20
-2.76
11
8.9225
21
-2.605
0
LINE
8
BLACK
6
CONTINUOUS
10
8.9225
20
-2.605
11
8.9225
21
-2.60499
0
LINE
8
BLACK
6
CONTINUOUS
10
8.9225
20
-2.60499
11
8.9221
21
-2.59607
0
LINE
8
BLACK
6
CONTINUOUS
10
8.9221
20
-2.59607
11
8.92289
21
-2.5869
0
LINE
8
BLACK
6
CONTINUOUS
10
8.92289
20
-2.5869
11
8.92487
21
-2.5779
0
LINE
8
BLACK
6
CONTINUOUS
10
8.92487
20
-2.5779
11
8.928
21
-2.56924
0
LINE
8
BLACK
6
CONTINUOUS
10
8.928
20
-2.56924
11
8.93224
21
-2.56107
0
LINE
8
BLACK
6
CONTINUOUS
10
8.93224
20
-2.56107
11
8.93751
21
-2.55351
0
LINE
8
BLACK
6
CONTINUOUS
10
8.93751
20
-2.55351
11
8.94373
21
-2.54671
0
LINE
8
BLACK
6
CONTINUOUS
10
8.94373
20
-2.54671
11
8.95077
21
-2.54078
0
LINE
8
BLACK
6
CONTINUOUS
10
8.95077
20
-2.54078
11
8.95853
21
-2.53582
0
LINE
8
BLACK
6
CONTINUOUS
10
8.95853
20
-2.53582
11
8.96688
21
-2.53191
0
LINE
8
BLACK
6
CONTINUOUS
10
8.96688
20
-2.53191
11
8.97566
21
-2.52913
0
LINE
8
BLACK
6
CONTINUOUS
10
8.97566
20
-2.52913
11
8.98472
21
-2.52752
0
LINE
8
BLACK
6
CONTINUOUS
10
8.98472
20
-2.52752
11
8.98472
21
-2.52752
0
LINE
8
BLACK
6
CONTINUOUS
10
8.98472
20
-2.52752
11
8.98486
21
-2.52756
0
LINE
8
BLACK
6
CONTINUOUS
10
8.98486
20
-2.52756
11
8.985
21
-2.5275
0
LINE
8
BLACK
6
CONTINUOUS
10
8.985
20
-2.5275
11
9.425
21
-2.5275
0
LINE
8
BLACK
6
CONTINUOUS
10
9.425
20
-2.5275
11
9.42677
21
-2.52823
0
LINE
8
BLACK
6
CONTINUOUS
10
9.42677
20
-2.52823
11
9.4275
21
-2.53
0
LINE
8
BLACK
6
CONTINUOUS
10
9.4275
20
-2.53
11
9.4275
21
-2.675
0
LINE
8
BLACK
6
CONTINUOUS
10
9.4275
20
-2.675
11
9.42677
21
-2.67677
0
LINE
8
BLACK
6
CONTINUOUS
10
9.42677
20
-2.67677
11
9.425
21
-2.6775
0
LINE
8
BLACK
6
CONTINUOUS
10
9.425
20
-2.6775
11
9.17
21
-2.6775
0
LINE
8
BLACK
6
CONTINUOUS
10
9.17
20
-2.6775
11
9.16981
21
-2.67742
0
LINE
8
BLACK
6
CONTINUOUS
10
8.26981
20
-2.57742
11
8.26179
21
-2.57897
0
LINE
8
BLACK
6
CONTINUOUS
10
8.26179
20
-2.57897
11
8.25362
21
-2.5818
0
LINE
8
BLACK
6
CONTINUOUS
10
8.25362
20
-2.5818
11
8.24594
21
-2.58577
0
LINE
8
BLACK
6
CONTINUOUS
10
8.24594
20
-2.58577
11
8.23889
21
-2.59078
0
LINE
8
BLACK
6
CONTINUOUS
10
8.23889
20
-2.59078
11
8.23264
21
-2.59675
0
LINE
8
BLACK
6
CONTINUOUS
10
8.23264
20
-2.59675
11
8.2273
21
-2.60355
0
LINE
8
BLACK
6
CONTINUOUS
10
8.2273
20
-2.60355
11
8.22298
21
-2.61104
0
LINE
8
BLACK
6
CONTINUOUS
10
8.22298
20
-2.61104
11
8.21977
21
-2.61907
0
LINE
8
BLACK
6
CONTINUOUS
10
8.21977
20
-2.61907
11
8.21773
21
-2.62748
0
LINE
8
BLACK
6
CONTINUOUS
10
8.21773
20
-2.62748
11
8.21691
21
-2.63608
0
LINE
8
BLACK
6
CONTINUOUS
10
8.21691
20
-2.63608
11
8.21731
21
-2.6444
0
LINE
8
BLACK
6
CONTINUOUS
10
8.21731
20
-2.6444
11
8.21748
21
-2.6447
0
LINE
8
BLACK
6
CONTINUOUS
10
8.21748
20
-2.6447
11
8.21697
21
-2.64654
0
LINE
8
BLACK
6
CONTINUOUS
10
8.21697
20
-2.64654
11
8.2153
21
-2.64748
0
LINE
8
BLACK
6
CONTINUOUS
10
8.2153
20
-2.64748
11
8.21346
21
-2.64697
0
LINE
8
BLACK
6
CONTINUOUS
10
8.21346
20
-2.64697
11
8.21252
21
-2.6453
0
LINE
8
BLACK
6
CONTINUOUS
10
8.21252
20
-2.6453
11
8.21207
21
-2.63597
0
LINE
8
BLACK
6
CONTINUOUS
10
8.21207
20
-2.63597
11
8.21295
21
-2.62667
0
LINE
8
BLACK
6
CONTINUOUS
10
8.21295
20
-2.62667
11
8.21515
21
-2.6176
0
LINE
8
BLACK
6
CONTINUOUS
10
8.21515
20
-2.6176
11
8.21862
21
-2.60893
0
LINE
8
BLACK
6
CONTINUOUS
10
8.21862
20
-2.60893
11
8.22328
21
-2.60084
0
LINE
8
BLACK
6
CONTINUOUS
10
8.22328
20
-2.60084
11
8.22905
21
-2.5935
0
LINE
8
BLACK
6
CONTINUOUS
10
8.22905
20
-2.5935
11
8.23581
21
-2.58705
0
LINE
8
BLACK
6
CONTINUOUS
10
8.23581
20
-2.58705
11
8.24341
21
-2.58163
0
LINE
8
BLACK
6
CONTINUOUS
10
8.24341
20
-2.58163
11
8.25171
21
-2.57735
0
LINE
8
BLACK
6
CONTINUOUS
10
8.25171
20
-2.57735
11
8.26053
21
-2.57429
0
LINE
8
BLACK
6
CONTINUOUS
10
8.26053
20
-2.57429
11
8.2697
21
-2.57252
0
LINE
8
BLACK
6
CONTINUOUS
10
8.2697
20
-2.57252
11
8.2697
21
-2.57252
0
LINE
8
BLACK
6
CONTINUOUS
10
8.2697
20
-2.57252
11
8.26985
21
-2.57256
0
LINE
8
BLACK
6
CONTINUOUS
10
8.26985
20
-2.57256
11
8.27
21
-2.5725
0
LINE
8
BLACK
6
CONTINUOUS
10
8.27
20
-2.5725
11
8.5225
21
-2.5725
0
LINE
8
BLACK
6
CONTINUOUS
10
8.5225
20
-2.5725
11
8.5225
21
-2.4325
0
LINE
8
BLACK
6
CONTINUOUS
10
8.5225
20
-2.4325
11
8.085
21
-2.4325
0
LINE
8
BLACK
6
CONTINUOUS
10
8.085
20
-2.4325
11
8.08478
21
-2.43241
0
LINE
8
BLACK
6
CONTINUOUS
10
8.08478
20
-2.43241
11
8.07606
21
-2.43401
0
LINE
8
BLACK
6
CONTINUOUS
10
8.07606
20
-2.43401
11
8.06719
21
-2.437
0
LINE
8
BLACK
6
CONTINUOUS
10
8.06719
20
-2.437
11
8.05883
21
-2.44122
0
LINE
8
BLACK
6
CONTINUOUS
10
8.05883
20
-2.44122
11
8.05117
21
-2.44658
0
LINE
8
BLACK
6
CONTINUOUS
10
8.05117
20
-2.44658
11
8.04434
21
-2.45298
0
LINE
8
BLACK
6
CONTINUOUS
10
8.04434
20
-2.45298
11
8.0385
21
-2.46029
0
LINE
8
BLACK
6
CONTINUOUS
10
8.0385
20
-2.46029
11
8.03375
21
-2.46835
0
LINE
8
BLACK
6
CONTINUOUS
10
8.03375
20
-2.46835
11
8.0302
21
-2.47701
0
LINE
8
BLACK
6
CONTINUOUS
10
8.0302
20
-2.47701
11
8.02792
21
-2.48609
0
LINE
8
BLACK
6
CONTINUOUS
10
8.02792
20
-2.48609
11
8.02695
21
-2.49539
0
LINE
8
BLACK
6
CONTINUOUS
10
8.02695
20
-2.49539
11
8.02731
21
-2.5044
0
LINE
8
BLACK
6
CONTINUOUS
10
8.02731
20
-2.5044
11
8.02748
21
-2.50472
0
LINE
8
BLACK
6
CONTINUOUS
10
8.02748
20
-2.50472
11
8.02744
21
-2.50486
0
LINE
8
BLACK
6
CONTINUOUS
10
8.02744
20
-2.50486
11
8.0275
21
-2.505
0
LINE
8
BLACK
6
CONTINUOUS
10
8.0275
20
-2.505
11
8.0275
21
-2.6575
0
LINE
8
BLACK
6
CONTINUOUS
10
8.0275
20
-2.6575
11
8.215
21
-2.6575
0
LINE
8
BLACK
6
CONTINUOUS
10
8.215
20
-2.6575
11
8.21677
21
-2.65823
0
LINE
8
BLACK
6
CONTINUOUS
10
8.21677
20
-2.65823
11
8.2175
21
-2.66
0
LINE
8
BLACK
6
CONTINUOUS
10
8.2175
20
-2.66
11
8.21677
21
-2.66177
0
LINE
8
BLACK
6
CONTINUOUS
10
8.21677
20
-2.66177
11
8.215
21
-2.6625
0
LINE
8
BLACK
6
CONTINUOUS
10
8.215
20
-2.6625
11
8.025
21
-2.6625
0
LINE
8
BLACK
6
CONTINUOUS
10
8.025
20
-2.6625
11
8.02323
21
-2.66177
0
LINE
8
BLACK
6
CONTINUOUS
10
8.02323
20
-2.66177
11
8.0225
21
-2.66
0
LINE
8
BLACK
6
CONTINUOUS
10
8.0225
20
-2.66
11
8.0225
21
-2.505
0
LINE
8
BLACK
6
CONTINUOUS
10
8.0225
20
-2.505
11
8.0225
21
-2.50499
0
LINE
8
BLACK
6
CONTINUOUS
10
8.0225
20
-2.50499
11
8.0221
21
-2.49607
0
LINE
8
BLACK
6
CONTINUOUS
10
8.0221
20
-2.49607
11
8.02289
21
-2.4869
0
LINE
8
BLACK
6
CONTINUOUS
10
8.02289
20
-2.4869
11
8.02487
21
-2.4779
0
LINE
8
BLACK
6
CONTINUOUS
10
8.02487
20
-2.4779
11
8.028
21
-2.46924
0
LINE
8
BLACK
6
CONTINUOUS
10
8.028
20
-2.46924
11
8.03224
21
-2.46107
0
LINE
8
BLACK
6
CONTINUOUS
10
8.03224
20
-2.46107
11
8.03751
21
-2.45351
0
LINE
8
BLACK
6
CONTINUOUS
10
8.03751
20
-2.45351
11
8.04373
21
-2.44671
0
LINE
8
BLACK
6
CONTINUOUS
10
8.04373
20
-2.44671
11
8.05077
21
-2.44078
0
LINE
8
BLACK
6
CONTINUOUS
10
8.05077
20
-2.44078
11
8.05853
21
-2.43582
0
LINE
8
BLACK
6
CONTINUOUS
10
8.05853
20
-2.43582
11
8.06688
21
-2.43191
0
LINE
8
BLACK
6
CONTINUOUS
10
8.06688
20
-2.43191
11
8.07566
21
-2.42913
0
LINE
8
BLACK
6
CONTINUOUS
10
8.07566
20
-2.42913
11
8.08472
21
-2.42752
0
LINE
8
BLACK
6
CONTINUOUS
10
8.08472
20
-2.42752
11
8.08472
21
-2.42752
0
LINE
8
BLACK
6
CONTINUOUS
10
8.08472
20
-2.42752
11
8.08486
21
-2.42756
0
LINE
8
BLACK
6
CONTINUOUS
10
8.08486
20
-2.42756
11
8.085
21
-2.4275
0
LINE
8
BLACK
6
CONTINUOUS
10
8.085
20
-2.4275
11
8.525
21
-2.4275
0
LINE
8
BLACK
6
CONTINUOUS
10
8.525
20
-2.4275
11
8.52677
21
-2.42823
0
LINE
8
BLACK
6
CONTINUOUS
10
8.52677
20
-2.42823
11
8.5275
21
-2.43
0
LINE
8
BLACK
6
CONTINUOUS
10
8.5275
20
-2.43
11
8.5275
21
-2.575
0
LINE
8
BLACK
6
CONTINUOUS
10
8.5275
20
-2.575
11
8.52677
21
-2.57677
0
LINE
8
BLACK
6
CONTINUOUS
10
8.52677
20
-2.57677
11
8.525
21
-2.5775
0
LINE
8
BLACK
6
CONTINUOUS
10
8.525
20
-2.5775
11
8.27
21
-2.5775
0
LINE
8
BLACK
6
CONTINUOUS
10
8.27
20
-2.5775
11
8.26981
21
-2.57742
0
LINE
8
BLACK
6
CONTINUOUS
10
7.36981
20
-2.57742
11
7.36179
21
-2.57897
0
LINE
8
BLACK
6
CONTINUOUS
10
7.36179
20
-2.57897
11
7.35362
21
-2.5818
0
LINE
8
BLACK
6
CONTINUOUS
10
7.35362
20
-2.5818
11
7.34594
21
-2.58577
0
LINE
8
BLACK
6
CONTINUOUS
10
7.34594
20
-2.58577
11
7.33889
21
-2.59078
0
LINE
8
BLACK
6
CONTINUOUS
10
7.33889
20
-2.59078
11
7.33264
21
-2.59675
0
LINE
8
BLACK
6
CONTINUOUS
10
7.33264
20
-2.59675
11
7.3273
21
-2.60355
0
LINE
8
BLACK
6
CONTINUOUS
10
7.3273
20
-2.60355
11
7.32298
21
-2.61104
0
LINE
8
BLACK
6
CONTINUOUS
10
7.32298
20
-2.61104
11
7.31977
21
-2.61907
0
LINE
8
BLACK
6
CONTINUOUS
10
7.31977
20
-2.61907
11
7.31773
21
-2.62748
0
LINE
8
BLACK
6
CONTINUOUS
10
7.31773
20
-2.62748
11
7.31691
21
-2.63608
0
LINE
8
BLACK
6
CONTINUOUS
10
7.31691
20
-2.63608
11
7.31731
21
-2.6444
0
LINE
8
BLACK
6
CONTINUOUS
10
7.31731
20
-2.6444
11
7.31748
21
-2.6447
0
LINE
8
BLACK
6
CONTINUOUS
10
7.31748
20
-2.6447
11
7.31697
21
-2.64654
0
LINE
8
BLACK
6
CONTINUOUS
10
7.31697
20
-2.64654
11
7.3153
21
-2.64748
0
LINE
8
BLACK
6
CONTINUOUS
10
7.3153
20
-2.64748
11
7.31346
21
-2.64697
0
LINE
8
BLACK
6
CONTINUOUS
10
7.31346
20
-2.64697
11
7.31252
21
-2.6453
0
LINE
8
BLACK
6
CONTINUOUS
10
7.31252
20
-2.6453
11
7.31207
21
-2.63597
0
LINE
8
BLACK
6
CONTINUOUS
10
7.31207
20
-2.63597
11
7.31295
21
-2.62667
0
LINE
8
BLACK
6
CONTINUOUS
10
7.31295
20
-2.62667
11
7.31515
21
-2.6176
0
LINE
8
BLACK
6
CONTINUOUS
10
7.31515
20
-2.6176
11
7.31862
21
-2.60893
0
LINE
8
BLACK
6
CONTINUOUS
10
7.31862
20
-2.60893
11
7.32328
21
-2.60084
0
LINE
8
BLACK
6
CONTINUOUS
10
7.32328
20
-2.60084
11
7.32905
21
-2.5935
0
LINE
8
BLACK
6
CONTINUOUS
10
7.32905
20
-2.5935
11
7.33581
21
-2.58705
0
LINE
8
BLACK
6
CONTINUOUS
10
7.33581
20
-2.58705
11
7.34341
21
-2.58163
0
LINE
8
BLACK
6
CONTINUOUS
10
7.34341
20
-2.58163
11
7.35171
21
-2.57735
0
LINE
8
BLACK
6
CONTINUOUS
10
7.35171
20
-2.57735
11
7.36053
21
-2.57429
0
LINE
8
BLACK
6
CONTINUOUS
10
7.36053
20
-2.57429
11
7.3697
21
-2.57252
0
LINE
8
BLACK
6
CONTINUOUS
10
7.3697
20
-2.57252
11
7.3697
21
-2.57252
0
LINE
8
BLACK
6
CONTINUOUS
10
7.3697
20
-2.57252
11
7.36985
21
-2.57256
0
LINE
8
BLACK
6
CONTINUOUS
10
7.36985
20
-2.57256
11
7.37
21
-2.5725
0
LINE
8
BLACK
6
CONTINUOUS
10
7.37
20
-2.5725
11
7.6225
21
-2.5725
0
LINE
8
BLACK
6
CONTINUOUS
10
7.6225
20
-2.5725
11
7.6225
21
-2.4325
0
LINE
8
BLACK
6
CONTINUOUS
10
7.6225
20
-2.4325
11
7.185
21
-2.4325
0
LINE
8
BLACK
6
CONTINUOUS
10
7.185
20
-2.4325
11
7.18478
21
-2.43241
0
LINE
8
BLACK
6
CONTINUOUS
10
7.18478
20
-2.43241
11
7.17606
21
-2.43401
0
LINE
8
BLACK
6
CONTINUOUS
10
7.17606
20
-2.43401
11
7.16719
21
-2.437
0
LINE
8
BLACK
6
CONTINUOUS
10
7.16719
20
-2.437
11
7.15883
21
-2.44122
0
LINE
8
BLACK
6
CONTINUOUS
10
7.15883
20
-2.44122
11
7.15117
21
-2.44658
0
LINE
8
BLACK
6
CONTINUOUS
10
7.15117
20
-2.44658
11
7.14434
21
-2.45298
0
LINE
8
BLACK
6
CONTINUOUS
10
7.14434
20
-2.45298
11
7.1385
21
-2.46029
0
LINE
8
BLACK
6
CONTINUOUS
10
7.1385
20
-2.46029
11
7.13375
21
-2.46835
0
LINE
8
BLACK
6
CONTINUOUS
10
7.13375
20
-2.46835
11
7.1302
21
-2.47701
0
LINE
8
BLACK
6
CONTINUOUS
10
7.1302
20
-2.47701
11
7.12792
21
-2.48609
0
LINE
8
BLACK
6
CONTINUOUS
10
7.12792
20
-2.48609
11
7.12695
21
-2.49539
0
LINE
8
BLACK
6
CONTINUOUS
10
7.12695
20
-2.49539
11
7.12731
21
-2.5044
0
LINE
8
BLACK
6
CONTINUOUS
10
7.12731
20
-2.5044
11
7.12748
21
-2.50472
0
LINE
8
BLACK
6
CONTINUOUS
10
7.12748
20
-2.50472
11
7.12744
21
-2.50486
0
LINE
8
BLACK
6
CONTINUOUS
10
7.12744
20
-2.50486
11
7.1275
21
-2.505
0
LINE
8
BLACK
6
CONTINUOUS
10
7.1275
20
-2.505
11
7.1275
21
-2.6575
0
LINE
8
BLACK
6
CONTINUOUS
10
7.1275
20
-2.6575
11
7.315
21
-2.6575
0
LINE
8
BLACK
6
CONTINUOUS
10
7.315
20
-2.6575
11
7.31677
21
-2.65823
0
LINE
8
BLACK
6
CONTINUOUS
10
7.31677
20
-2.65823
11
7.3175
21
-2.66
0
LINE
8
BLACK
6
CONTINUOUS
10
7.3175
20
-2.66
11
7.31677
21
-2.66177
0
LINE
8
BLACK
6
CONTINUOUS
10
7.31677
20
-2.66177
11
7.315
21
-2.6625
0
LINE
8
BLACK
6
CONTINUOUS
10
7.315
20
-2.6625
11
7.125
21
-2.6625
0
LINE
8
BLACK
6
CONTINUOUS
10
7.125
20
-2.6625
11
7.12323
21
-2.66177
0
LINE
8
BLACK
6
CONTINUOUS
10
7.12323
20
-2.66177
11
7.1225
21
-2.66
0
LINE
8
BLACK
6
CONTINUOUS
10
7.1225
20
-2.66
11
7.1225
21
-2.505
0
LINE
8
BLACK
6
CONTINUOUS
10
7.1225
20
-2.505
11
7.1225
21
-2.50499
0
LINE
8
BLACK
6
CONTINUOUS
10
7.1225
20
-2.50499
11
7.1221
21
-2.49607
0
LINE
8
BLACK
6
CONTINUOUS
10
7.1221
20
-2.49607
11
7.12289
21
-2.4869
0
LINE
8
BLACK
6
CONTINUOUS
10
7.12289
20
-2.4869
11
7.12487
21
-2.4779
0
LINE
8
BLACK
6
CONTINUOUS
10
7.12487
20
-2.4779
11
7.128
21
-2.46924
0
LINE
8
BLACK
6
CONTINUOUS
10
7.128
20
-2.46924
11
7.13224
21
-2.46107
0
LINE
8
BLACK
6
CONTINUOUS
10
7.13224
20
-2.46107
11
7.13751
21
-2.45351
0
LINE
8
BLACK
6
CONTINUOUS
10
7.13751
20
-2.45351
11
7.14373
21
-2.44671
0
LINE
8
BLACK
6
CONTINUOUS
10
7.14373
20
-2.44671
11
7.15077
21
-2.44078
0
LINE
8
BLACK
6
CONTINUOUS
10
7.15077
20
-2.44078
11
7.15853
21
-2.43582
0
LINE
8
BLACK
6
CONTINUOUS
10
7.15853
20
-2.43582
11
7.16688
21
-2.43191
0
LINE
8
BLACK
6
CONTINUOUS
10
7.16688
20
-2.43191
11
7.17566
21
-2.42913
0
LINE
8
BLACK
6
CONTINUOUS
10
7.17566
20
-2.42913
11
7.18472
21
-2.42752
0
LINE
8
BLACK
6
CONTINUOUS
10
7.18472
20
-2.42752
11
7.18472
21
-2.42752
0
LINE
8
BLACK
6
CONTINUOUS
10
7.18472
20
-2.42752
11
7.18486
21
-2.42756
0
LINE
8
BLACK
6
CONTINUOUS
10
7.18486
20
-2.42756
11
7.185
21
-2.4275
0
LINE
8
BLACK
6
CONTINUOUS
10
7.185
20
-2.4275
11
7.625
21
-2.4275
0
LINE
8
BLACK
6
CONTINUOUS
10
7.625
20
-2.4275
11
7.62677
21
-2.42823
0
LINE
8
BLACK
6
CONTINUOUS
10
7.62677
20
-2.42823
11
7.6275
21
-2.43
0
LINE
8
BLACK
6
CONTINUOUS
10
7.6275
20
-2.43
11
7.6275
21
-2.575
0
LINE
8
BLACK
6
CONTINUOUS
10
7.6275
20
-2.575
11
7.62677
21
-2.57677
0
LINE
8
BLACK
6
CONTINUOUS
10
7.62677
20
-2.57677
11
7.625
21
-2.5775
0
LINE
8
BLACK
6
CONTINUOUS
10
7.625
20
-2.5775
11
7.37
21
-2.5775
0
LINE
8
BLACK
6
CONTINUOUS
10
7.37
20
-2.5775
11
7.36981
21
-2.57742
0
LINE
8
BLACK
6
CONTINUOUS
10
3.76981
20
-1.67742
11
3.76179
21
-1.67897
0
LINE
8
BLACK
6
CONTINUOUS
10
3.76179
20
-1.67897
11
3.75362
21
-1.6818
0
LINE
8
BLACK
6
CONTINUOUS
10
3.75362
20
-1.6818
11
3.74594
21
-1.68577
0
LINE
8
BLACK
6
CONTINUOUS
10
3.74594
20
-1.68577
11
3.73889
21
-1.69078
0
LINE
8
BLACK
6
CONTINUOUS
10
3.73889
20
-1.69078
11
3.73264
21
-1.69675
0
LINE
8
BLACK
6
CONTINUOUS
10
3.73264
20
-1.69675
11
3.7273
21
-1.70355
0
LINE
8
BLACK
6
CONTINUOUS
10
3.7273
20
-1.70355
11
3.72298
21
-1.71104
0
LINE
8
BLACK
6
CONTINUOUS
10
3.72298
20
-1.71104
11
3.71977
21
-1.71907
0
LINE
8
BLACK
6
CONTINUOUS
10
3.71977
20
-1.71907
11
3.71773
21
-1.72748
0
LINE
8
BLACK
6
CONTINUOUS
10
3.71773
20
-1.72748
11
3.71691
21
-1.73608
0
LINE
8
BLACK
6
CONTINUOUS
10
3.71691
20
-1.73608
11
3.71731
21
-1.7444
0
LINE
8
BLACK
6
CONTINUOUS
10
3.71731
20
-1.7444
11
3.71748
21
-1.7447
0
LINE
8
BLACK
6
CONTINUOUS
10
3.71748
20
-1.7447
11
3.71697
21
-1.74654
0
LINE
8
BLACK
6
CONTINUOUS
10
3.71697
20
-1.74654
11
3.7153
21
-1.74748
0
LINE
8
BLACK
6
CONTINUOUS
10
3.7153
20
-1.74748
11
3.71346
21
-1.74697
0
LINE
8
BLACK
6
CONTINUOUS
10
3.71346
20
-1.74697
11
3.71252
21
-1.7453
0
LINE
8
BLACK
6
CONTINUOUS
10
3.71252
20
-1.7453
11
3.71207
21
-1.73597
0
LINE
8
BLACK
6
CONTINUOUS
10
3.71207
20
-1.73597
11
3.71295
21
-1.72667
0
LINE
8
BLACK
6
CONTINUOUS
10
3.71295
20
-1.72667
11
3.71515
21
-1.7176
0
LINE
8
BLACK
6
CONTINUOUS
10
3.71515
20
-1.7176
11
3.71862
21
-1.70893
0
LINE
8
BLACK
6
CONTINUOUS
10
3.71862
20
-1.70893
11
3.72328
21
-1.70084
0
LINE
8
BLACK
6
CONTINUOUS
10
3.72328
20
-1.70084
11
3.72905
21
-1.6935
0
LINE
8
BLACK
6
CONTINUOUS
10
3.72905
20
-1.6935
11
3.73581
21
-1.68705
0
LINE
8
BLACK
6
CONTINUOUS
10
3.73581
20
-1.68705
11
3.74341
21
-1.68163
0
LINE
8
BLACK
6
CONTINUOUS
10
3.74341
20
-1.68163
11
3.75171
21
-1.67735
0
LINE
8
BLACK
6
CONTINUOUS
10
3.75171
20
-1.67735
11
3.76053
21
-1.67429
0
LINE
8
BLACK
6
CONTINUOUS
10
3.76053
20
-1.67429
11
3.7697
21
-1.67252
0
LINE
8
BLACK
6
CONTINUOUS
10
3.7697
20
-1.67252
11
3.7697
21
-1.67252
0
LINE
8
BLACK
6
CONTINUOUS
10
3.7697
20
-1.67252
11
3.76985
21
-1.67256
0
LINE
8
BLACK
6
CONTINUOUS
10
3.76985
20
-1.67256
11
3.77
21
-1.6725
0
LINE
8
BLACK
6
CONTINUOUS
10
3.77
20
-1.6725
11
4.0225
21
-1.6725
0
LINE
8
BLACK
6
CONTINUOUS
10
4.0225
20
-1.6725
11
4.0225
21
-1.5325
0
LINE
8
BLACK
6
CONTINUOUS
10
4.0225
20
-1.5325
11
3.585
21
-1.5325
0
LINE
8
BLACK
6
CONTINUOUS
10
3.585
20
-1.5325
11
3.58478
21
-1.53241
0
LINE
8
BLACK
6
CONTINUOUS
10
3.58478
20
-1.53241
11
3.57606
21
-1.53401
0
LINE
8
BLACK
6
CONTINUOUS
10
3.57606
20
-1.53401
11
3.56719
21
-1.537
0
LINE
8
BLACK
6
CONTINUOUS
10
3.56719
20
-1.537
11
3.55883
21
-1.54122
0
LINE
8
BLACK
6
CONTINUOUS
10
3.55883
20
-1.54122
11
3.55117
21
-1.54658
0
LINE
8
BLACK
6
CONTINUOUS
10
3.55117
20
-1.54658
11
3.54434
21
-1.55298
0
LINE
8
BLACK
6
CONTINUOUS
10
3.54434
20
-1.55298
11
3.5385
21
-1.56029
0
LINE
8
BLACK
6
CONTINUOUS
10
3.5385
20
-1.56029
11
3.53375
21
-1.56835
0
LINE
8
BLACK
6
CONTINUOUS
10
3.53375
20
-1.56835
11
3.5302
21
-1.57701
0
LINE
8
BLACK
6
CONTINUOUS
10
3.5302
20
-1.57701
11
3.52792
21
-1.58609
0
LINE
8
BLACK
6
CONTINUOUS
10
3.52792
20
-1.58609
11
3.52695
21
-1.59539
0
LINE
8
BLACK
6
CONTINUOUS
10
3.52695
20
-1.59539
11
3.52731
21
-1.6044
0
LINE
8
BLACK
6
CONTINUOUS
10
3.52731
20
-1.6044
11
3.52748
21
-1.60472
0
LINE
8
BLACK
6
CONTINUOUS
10
3.52748
20
-1.60472
11
3.52744
21
-1.60486
0
LINE
8
BLACK
6
CONTINUOUS
10
3.52744
20
-1.60486
11
3.5275
21
-1.605
0
LINE
8
BLACK
6
CONTINUOUS
10
3.5275
20
-1.605
11
3.5275
21
-1.7575
0
LINE
8
BLACK
6
CONTINUOUS
10
3.5275
20
-1.7575
11
3.715
21
-1.7575
0
LINE
8
BLACK
6
CONTINUOUS
10
3.715
20
-1.7575
11
3.71677
21
-1.75823
0
LINE
8
BLACK
6
CONTINUOUS
10
3.71677
20
-1.75823
11
3.7175
21
-1.76
0
LINE
8
BLACK
6
CONTINUOUS
10
3.7175
20
-1.76
11
3.71677
21
-1.76177
0
LINE
8
BLACK
6
CONTINUOUS
10
3.71677
20
-1.76177
11
3.715
21
-1.7625
0
LINE
8
BLACK
6
CONTINUOUS
10
3.715
20
-1.7625
11
3.525
21
-1.7625
0
LINE
8
BLACK
6
CONTINUOUS
10
3.525
20
-1.7625
11
3.52323
21
-1.76177
0
LINE
8
BLACK
6
CONTINUOUS
10
3.52323
20
-1.76177
11
3.5225
21
-1.76
0
LINE
8
BLACK
6
CONTINUOUS
10
3.5225
20
-1.76
11
3.5225
21
-1.605
0
LINE
8
BLACK
6
CONTINUOUS
10
3.5225
20
-1.605
11
3.5225
21
-1.60499
0
LINE
8
BLACK
6
CONTINUOUS
10
3.5225
20
-1.60499
11
3.5221
21
-1.59607
0
LINE
8
BLACK
6
CONTINUOUS
10
3.5221
20
-1.59607
11
3.52289
21
-1.5869
0
LINE
8
BLACK
6
CONTINUOUS
10
3.52289
20
-1.5869
11
3.52487
21
-1.5779
0
LINE
8
BLACK
6
CONTINUOUS
10
3.52487
20
-1.5779
11
3.528
21
-1.56924
0
LINE
8
BLACK
6
CONTINUOUS
10
3.528
20
-1.56924
11
3.53224
21
-1.56107
0
LINE
8
BLACK
6
CONTINUOUS
10
3.53224
20
-1.56107
11
3.53751
21
-1.55351
0
LINE
8
BLACK
6
CONTINUOUS
10
3.53751
20
-1.55351
11
3.54373
21
-1.54671
0
LINE
8
BLACK
6
CONTINUOUS
10
3.54373
20
-1.54671
11
3.55077
21
-1.54078
0
LINE
8
BLACK
6
CONTINUOUS
10
3.55077
20
-1.54078
11
3.55853
21
-1.53582
0
LINE
8
BLACK
6
CONTINUOUS
10
3.55853
20
-1.53582
11
3.56688
21
-1.53191
0
LINE
8
BLACK
6
CONTINUOUS
10
3.56688
20
-1.53191
11
3.57566
21
-1.52913
0
LINE
8
BLACK
6
CONTINUOUS
10
3.57566
20
-1.52913
11
3.58472
21
-1.52752
0
LINE
8
BLACK
6
CONTINUOUS
10
3.58472
20
-1.52752
11
3.58472
21
-1.52752
0
LINE
8
BLACK
6
CONTINUOUS
10
3.58472
20
-1.52752
11
3.58486
21
-1.52756
0
LINE
8
BLACK
6
CONTINUOUS
10
3.58486
20
-1.52756
11
3.585
21
-1.5275
0
LINE
8
BLACK
6
CONTINUOUS
10
3.585
20
-1.5275
11
4.025
21
-1.5275
0
LINE
8
BLACK
6
CONTINUOUS
10
4.025
20
-1.5275
11
4.02677
21
-1.52823
0
LINE
8
BLACK
6
CONTINUOUS
10
4.02677
20
-1.52823
11
4.0275
21
-1.53
0
LINE
8
BLACK
6
CONTINUOUS
10
4.0275
20
-1.53
11
4.0275
21
-1.675
0
LINE
8
BLACK
6
CONTINUOUS
10
4.0275
20
-1.675
11
4.02677
21
-1.67677
0
LINE
8
BLACK
6
CONTINUOUS
10
4.02677
20
-1.67677
11
4.025
21
-1.6775
0
LINE
8
BLACK
6
CONTINUOUS
10
4.025
20
-1.6775
11
3.77
21
-1.6775
0
LINE
8
BLACK
6
CONTINUOUS
10
3.77
20
-1.6775
11
3.76981
21
-1.67742
0
LINE
8
BLACK
6
CONTINUOUS
10
4.66981
20
-1.67742
11
4.66179
21
-1.67897
0
LINE
8
BLACK
6
CONTINUOUS
10
4.66179
20
-1.67897
11
4.65362
21
-1.6818
0
LINE
8
BLACK
6
CONTINUOUS
10
4.65362
20
-1.6818
11
4.64594
21
-1.68577
0
LINE
8
BLACK
6
CONTINUOUS
10
4.64594
20
-1.68577
11
4.63889
21
-1.69078
0
LINE
8
BLACK
6
CONTINUOUS
10
4.63889
20
-1.69078
11
4.63264
21
-1.69675
0
LINE
8
BLACK
6
CONTINUOUS
10
4.63264
20
-1.69675
11
4.6273
21
-1.70355
0
LINE
8
BLACK
6
CONTINUOUS
10
4.6273
20
-1.70355
11
4.62298
21
-1.71104
0
LINE
8
BLACK
6
CONTINUOUS
10
4.62298
20
-1.71104
11
4.61977
21
-1.71907
0
LINE
8
BLACK
6
CONTINUOUS
10
4.61977
20
-1.71907
11
4.61773
21
-1.72748
0
LINE
8
BLACK
6
CONTINUOUS
10
4.61773
20
-1.72748
11
4.61691
21
-1.73608
0
LINE
8
BLACK
6
CONTINUOUS
10
4.61691
20
-1.73608
11
4.61731
21
-1.7444
0
LINE
8
BLACK
6
CONTINUOUS
10
4.61731
20
-1.7444
11
4.61748
21
-1.7447
0
LINE
8
BLACK
6
CONTINUOUS
10
4.61748
20
-1.7447
11
4.61697
21
-1.74654
0
LINE
8
BLACK
6
CONTINUOUS
10
4.61697
20
-1.74654
11
4.6153
21
-1.74748
0
LINE
8
BLACK
6
CONTINUOUS
10
4.6153
20
-1.74748
11
4.61346
21
-1.74697
0
LINE
8
BLACK
6
CONTINUOUS
10
4.61346
20
-1.74697
11
4.61252
21
-1.7453
0
LINE
8
BLACK
6
CONTINUOUS
10
4.61252
20
-1.7453
11
4.61207
21
-1.73597
0
LINE
8
BLACK
6
CONTINUOUS
10
4.61207
20
-1.73597
11
4.61295
21
-1.72667
0
LINE
8
BLACK
6
CONTINUOUS
10
4.61295
20
-1.72667
11
4.61515
21
-1.7176
0
LINE
8
BLACK
6
CONTINUOUS
10
4.61515
20
-1.7176
11
4.61862
21
-1.70893
0
LINE
8
BLACK
6
CONTINUOUS
10
4.61862
20
-1.70893
11
4.62328
21
-1.70084
0
LINE
8
BLACK
6
CONTINUOUS
10
4.62328
20
-1.70084
11
4.62905
21
-1.6935
0
LINE
8
BLACK
6
CONTINUOUS
10
4.62905
20
-1.6935
11
4.63581
21
-1.68705
0
LINE
8
BLACK
6
CONTINUOUS
10
4.63581
20
-1.68705
11
4.64341
21
-1.68163
0
LINE
8
BLACK
6
CONTINUOUS
10
4.64341
20
-1.68163
11
4.65171
21
-1.67735
0
LINE
8
BLACK
6
CONTINUOUS
10
4.65171
20
-1.67735
11
4.66053
21
-1.67429
0
LINE
8
BLACK
6
CONTINUOUS
10
4.66053
20
-1.67429
11
4.6697
21
-1.67252
0
LINE
8
BLACK
6
CONTINUOUS
10
4.6697
20
-1.67252
11
4.6697
21
-1.67252
0
LINE
8
BLACK
6
CONTINUOUS
10
4.6697
20
-1.67252
11
4.66985
21
-1.67256
0
LINE
8
BLACK
6
CONTINUOUS
10
4.66985
20
-1.67256
11
4.67
21
-1.6725
0
LINE
8
BLACK
6
CONTINUOUS
10
4.67
20
-1.6725
11
4.9225
21
-1.6725
0
LINE
8
BLACK
6
CONTINUOUS
10
4.9225
20
-1.6725
11
4.9225
21
-1.5325
0
LINE
8
BLACK
6
CONTINUOUS
10
4.9225
20
-1.5325
11
4.485
21
-1.5325
0
LINE
8
BLACK
6
CONTINUOUS
10
4.485
20
-1.5325
11
4.48478
21
-1.53241
0
LINE
8
BLACK
6
CONTINUOUS
10
4.48478
20
-1.53241
11
4.47606
21
-1.53401
0
LINE
8
BLACK
6
CONTINUOUS
10
4.47606
20
-1.53401
11
4.46719
21
-1.537
0
LINE
8
BLACK
6
CONTINUOUS
10
4.46719
20
-1.537
11
4.45883
21
-1.54122
0
LINE
8
BLACK
6
CONTINUOUS
10
4.45883
20
-1.54122
11
4.45117
21
-1.54658
0
LINE
8
BLACK
6
CONTINUOUS
10
4.45117
20
-1.54658
11
4.44434
21
-1.55298
0
LINE
8
BLACK
6
CONTINUOUS
10
4.44434
20
-1.55298
11
4.4385
21
-1.56029
0
LINE
8
BLACK
6
CONTINUOUS
10
4.4385
20
-1.56029
11
4.43375
21
-1.56835
0
LINE
8
BLACK
6
CONTINUOUS
10
4.43375
20
-1.56835
11
4.4302
21
-1.57701
0
LINE
8
BLACK
6
CONTINUOUS
10
4.4302
20
-1.57701
11
4.42792
21
-1.58609
0
LINE
8
BLACK
6
CONTINUOUS
10
4.42792
20
-1.58609
11
4.42695
21
-1.59539
0
LINE
8
BLACK
6
CONTINUOUS
10
4.42695
20
-1.59539
11
4.42731
21
-1.6044
0
LINE
8
BLACK
6
CONTINUOUS
10
4.42731
20
-1.6044
11
4.42748
21
-1.60472
0
LINE
8
BLACK
6
CONTINUOUS
10
4.42748
20
-1.60472
11
4.42744
21
-1.60486
0
LINE
8
BLACK
6
CONTINUOUS
10
4.42744
20
-1.60486
11
4.4275
21
-1.605
0
LINE
8
BLACK
6
CONTINUOUS
10
4.4275
20
-1.605
11
4.4275
21
-1.7575
0
LINE
8
BLACK
6
CONTINUOUS
10
4.4275
20
-1.7575
11
4.615
21
-1.7575
0
LINE
8
BLACK
6
CONTINUOUS
10
4.615
20
-1.7575
11
4.61677
21
-1.75823
0
LINE
8
BLACK
6
CONTINUOUS
10
4.61677
20
-1.75823
11
4.6175
21
-1.76
0
LINE
8
BLACK
6
CONTINUOUS
10
4.6175
20
-1.76
11
4.61677
21
-1.76177
0
LINE
8
BLACK
6
CONTINUOUS
10
4.61677
20
-1.76177
11
4.615
21
-1.7625
0
LINE
8
BLACK
6
CONTINUOUS
10
4.615
20
-1.7625
11
4.425
21
-1.7625
0
LINE
8
BLACK
6
CONTINUOUS
10
4.425
20
-1.7625
11
4.42323
21
-1.76177
0
LINE
8
BLACK
6
CONTINUOUS
10
4.42323
20
-1.76177
11
4.4225
21
-1.76
0
LINE
8
BLACK
6
CONTINUOUS
10
4.4225
20
-1.76
11
4.4225
21
-1.605
0
LINE
8
BLACK
6
CONTINUOUS
10
4.4225
20
-1.605
11
4.4225
21
-1.60499
0
LINE
8
BLACK
6
CONTINUOUS
10
4.4225
20
-1.60499
11
4.4221
21
-1.59607
0
LINE
8
BLACK
6
CONTINUOUS
10
4.4221
20
-1.59607
11
4.42289
21
-1.5869
0
LINE
8
BLACK
6
CONTINUOUS
10
4.42289
20
-1.5869
11
4.42487
21
-1.5779
0
LINE
8
BLACK
6
CONTINUOUS
10
4.42487
20
-1.5779
11
4.428
21
-1.56924
0
LINE
8
BLACK
6
CONTINUOUS
10
4.428
20
-1.56924
11
4.43224
21
-1.56107
0
LINE
8
BLACK
6
CONTINUOUS
10
4.43224
20
-1.56107
11
4.43751
21
-1.55351
0
LINE
8
BLACK
6
CONTINUOUS
10
4.43751
20
-1.55351
11
4.44373
21
-1.54671
0
LINE
8
BLACK
6
CONTINUOUS
10
4.44373
20
-1.54671
11
4.45077
21
-1.54078
0
LINE
8
BLACK
6
CONTINUOUS
10
4.45077
20
-1.54078
11
4.45853
21
-1.53582
0
LINE
8
BLACK
6
CONTINUOUS
10
4.45853
20
-1.53582
11
4.46688
21
-1.53191
0
LINE
8
BLACK
6
CONTINUOUS
10
4.46688
20
-1.53191
11
4.47566
21
-1.52913
0
LINE
8
BLACK
6
CONTINUOUS
10
4.47566
20
-1.52913
11
4.48472
21
-1.52752
0
LINE
8
BLACK
6
CONTINUOUS
10
4.48472
20
-1.52752
11
4.48472
21
-1.52752
0
LINE
8
BLACK
6
CONTINUOUS
10
4.48472
20
-1.52752
11
4.48486
21
-1.52756
0
LINE
8
BLACK
6
CONTINUOUS
10
4.48486
20
-1.52756
11
4.485
21
-1.5275
0
LINE
8
BLACK
6
CONTINUOUS
10
4.485
20
-1.5275
11
4.925
21
-1.5275
0
LINE
8
BLACK
6
CONTINUOUS
10
4.925
20
-1.5275
11
4.92677
21
-1.52823
0
LINE
8
BLACK
6
CONTINUOUS
10
4.92677
20
-1.52823
11
4.9275
21
-1.53
0
LINE
8
BLACK
6
CONTINUOUS
10
4.9275
20
-1.53
11
4.9275
21
-1.675
0
LINE
8
BLACK
6
CONTINUOUS
10
4.9275
20
-1.675
11
4.92677
21
-1.67677
0
LINE
8
BLACK
6
CONTINUOUS
10
4.92677
20
-1.67677
11
4.925
21
-1.6775
0
LINE
8
BLACK
6
CONTINUOUS
10
4.925
20
-1.6775
11
4.67
21
-1.6775
0
LINE
8
BLACK
6
CONTINUOUS
10
4.67
20
-1.6775
11
4.66981
21
-1.67742
  0
ENDSEC
  0
EOF
