  0
SECTION
  2
HEADER
  9
$ANGBASE
  50
0.0
  9
$ANGDIR
  70
1
  9
$MEASUREMENT
  70
1
  0
ENDSEC
  0
SECTION
  2
TABLES
  0
TABLE
  2
LTYPE
  70
4
  0
LTYPE
  5
40F
  2
CONTINUOUS
  70
0
  3
Solid line
  72
65
  73
0
  40
0.0
  0
LTYPE
  5
410
  2
DASHDOT
 70
0
  3
Dash Dot ____ _ ____ _
 72
65
 73
4
 40
2.0
 49
1.25
 49
-0.25
 49
0.25
 49
-0.25
  0
LTYPE
  5
411
  2
DASHED
 70
0
  3
Dashed __ __ __ __ __
 72
65
 73
2
 40
0.75
 49
0.5
 49
-0.25
  0
LTYPE
  5
43B
  2
DOTTED
 70
0
  3
Dotted .  .  .  .
 72
65
 73
2
 40
0.2
 49
0.0
 49
-0.2
  0
ENDTAB
  0
TABLE
  2
STYLE
  70
4
  0
STYLE
  2
KICAD
  70
0
  40
0
  41
1
  42
1
  50
0
  71
0
  3
isocp.shx
  0
STYLE
  2
KICADB
  70
0
  40
0
  41
1
  42
1
  50
0
  71
0
  3
isocp.shx
  0
STYLE
  2
KICADI
  70
0
  40
0
  41
1
  42
1
  50
15
  71
0
  3
isocp.shx
  0
STYLE
  2
KICADBI
  70
0
  40
0
  41
1
  42
1
  50
15
  71
0
  3
isocp.shx
  0
ENDTAB
  0
TABLE
  2
LAYER
  70
1
  0
LAYER
  2
BLACK
  70
0
  62
7
  6
CONTINUOUS
  0
ENDTAB
  0
ENDSEC
  0
SECTION
  2
ENTITIES
0
LINE
8
BLACK
6
CONTINUOUS
10
144.78
20
-35.56
11
86.36
21
-35.56
0
LINE
8
BLACK
6
CONTINUOUS
10
160.02
20
-35.56
11
157.48
21
-33.02
0
LINE
8
BLACK
6
CONTINUOUS
10
157.48
20
-33.02
11
147.32
21
-33.02
0
LINE
8
BLACK
6
CONTINUOUS
10
78.74
20
-129.54
11
86.36
21
-137.16
0
LINE
8
BLACK
6
CONTINUOUS
10
86.36
20
-137.16
11
246.38
21
-137.16
0
LINE
8
BLACK
6
CONTINUOUS
10
254
20
-43.18
11
246.38
21
-35.56
0
LINE
8
BLACK
6
CONTINUOUS
10
86.36
20
-35.56
11
78.74
21
-43.18
0
LINE
8
BLACK
6
CONTINUOUS
10
246.38
20
-35.56
11
160.02
21
-35.56
0
LINE
8
BLACK
6
CONTINUOUS
10
254
20
-129.54
11
254
21
-43.18
0
LINE
8
BLACK
6
CONTINUOUS
10
246.38
20
-137.16
11
254
21
-129.54
0
LINE
8
BLACK
6
CONTINUOUS
10
147.32
20
-33.02
11
144.78
21
-35.56
0
LINE
8
BLACK
6
CONTINUOUS
10
78.74
20
-43.18
11
78.74
21
-129.54
0
LINE
8
BLACK
6
CONTINUOUS
10
147.78
20
-35.26
11
148.38
21
-35.86
0
LINE
8
BLACK
6
CONTINUOUS
10
148.38
20
-35.26
11
147.78
21
-35.86
0
LINE
8
BLACK
6
CONTINUOUS
10
147.78
20
-39.44
11
148.38
21
-40.04
0
LINE
8
BLACK
6
CONTINUOUS
10
148.38
20
-39.44
11
147.78
21
-40.04
0
LINE
8
BLACK
6
CONTINUOUS
10
156.42
20
-35.26
11
157.02
21
-35.86
0
LINE
8
BLACK
6
CONTINUOUS
10
157.02
20
-35.26
11
156.42
21
-35.86
0
LINE
8
BLACK
6
CONTINUOUS
10
156.42
20
-39.44
11
157.02
21
-40.04
0
LINE
8
BLACK
6
CONTINUOUS
10
157.02
20
-39.44
11
156.42
21
-40.04
0
LINE
8
BLACK
6
CONTINUOUS
10
173.52
20
-115.54
11
174.12
21
-116.14
0
LINE
8
BLACK
6
CONTINUOUS
10
174.12
20
-115.54
11
173.52
21
-116.14
0
LINE
8
BLACK
6
CONTINUOUS
10
173.52
20
-117.54
11
174.12
21
-118.14
0
LINE
8
BLACK
6
CONTINUOUS
10
174.12
20
-117.54
11
173.52
21
-118.14
0
CIRCLE
8
BLACK
10
127
20
-45.72
40
0.4
0
CIRCLE
8
BLACK
10
127
20
-60.96
40
0.4
0
CIRCLE
8
BLACK
10
134.62
20
-45.72
40
0.4
0
CIRCLE
8
BLACK
10
134.62
20
-60.96
40
0.4
0
LINE
8
BLACK
6
CONTINUOUS
10
173.99
20
-107.4
11
173.99
21
-108.5
0
LINE
8
BLACK
6
CONTINUOUS
10
173.44
20
-107.95
11
174.54
21
-107.95
0
LINE
8
BLACK
6
CONTINUOUS
10
173.99
20
-125.18
11
173.99
21
-126.28
0
LINE
8
BLACK
6
CONTINUOUS
10
173.44
20
-125.73
11
174.54
21
-125.73
0
LINE
8
BLACK
6
CONTINUOUS
10
176.53
20
-107.4
11
176.53
21
-108.5
0
LINE
8
BLACK
6
CONTINUOUS
10
175.98
20
-107.95
11
177.08
21
-107.95
0
LINE
8
BLACK
6
CONTINUOUS
10
176.53
20
-125.18
11
176.53
21
-126.28
0
LINE
8
BLACK
6
CONTINUOUS
10
175.98
20
-125.73
11
177.08
21
-125.73
0
LINE
8
BLACK
6
CONTINUOUS
10
179.07
20
-107.4
11
179.07
21
-108.5
0
LINE
8
BLACK
6
CONTINUOUS
10
178.52
20
-107.95
11
179.62
21
-107.95
0
LINE
8
BLACK
6
CONTINUOUS
10
179.07
20
-125.18
11
179.07
21
-126.28
0
LINE
8
BLACK
6
CONTINUOUS
10
178.52
20
-125.73
11
179.62
21
-125.73
0
LINE
8
BLACK
6
CONTINUOUS
10
181.61
20
-107.4
11
181.61
21
-108.5
0
LINE
8
BLACK
6
CONTINUOUS
10
181.06
20
-107.95
11
182.16
21
-107.95
0
LINE
8
BLACK
6
CONTINUOUS
10
181.61
20
-125.18
11
181.61
21
-126.28
0
LINE
8
BLACK
6
CONTINUOUS
10
181.06
20
-125.73
11
182.16
21
-125.73
0
LINE
8
BLACK
6
CONTINUOUS
10
184.15
20
-107.4
11
184.15
21
-108.5
0
LINE
8
BLACK
6
CONTINUOUS
10
183.6
20
-107.95
11
184.7
21
-107.95
0
LINE
8
BLACK
6
CONTINUOUS
10
184.15
20
-125.18
11
184.15
21
-126.28
0
LINE
8
BLACK
6
CONTINUOUS
10
183.6
20
-125.73
11
184.7
21
-125.73
0
LINE
8
BLACK
6
CONTINUOUS
10
186.69
20
-107.4
11
186.69
21
-108.5
0
LINE
8
BLACK
6
CONTINUOUS
10
186.14
20
-107.95
11
187.24
21
-107.95
0
LINE
8
BLACK
6
CONTINUOUS
10
186.69
20
-125.18
11
186.69
21
-126.28
0
LINE
8
BLACK
6
CONTINUOUS
10
186.14
20
-125.73
11
187.24
21
-125.73
0
LINE
8
BLACK
6
CONTINUOUS
10
189.23
20
-107.4
11
189.23
21
-108.5
0
LINE
8
BLACK
6
CONTINUOUS
10
188.68
20
-107.95
11
189.78
21
-107.95
0
LINE
8
BLACK
6
CONTINUOUS
10
189.23
20
-125.18
11
189.23
21
-126.28
0
LINE
8
BLACK
6
CONTINUOUS
10
188.68
20
-125.73
11
189.78
21
-125.73
0
LINE
8
BLACK
6
CONTINUOUS
10
191.77
20
-107.4
11
191.77
21
-108.5
0
LINE
8
BLACK
6
CONTINUOUS
10
191.22
20
-107.95
11
192.32
21
-107.95
0
LINE
8
BLACK
6
CONTINUOUS
10
191.77
20
-125.18
11
191.77
21
-126.28
0
LINE
8
BLACK
6
CONTINUOUS
10
191.22
20
-125.73
11
192.32
21
-125.73
0
LINE
8
BLACK
6
CONTINUOUS
10
194.31
20
-107.4
11
194.31
21
-108.5
0
LINE
8
BLACK
6
CONTINUOUS
10
193.76
20
-107.95
11
194.86
21
-107.95
0
LINE
8
BLACK
6
CONTINUOUS
10
194.31
20
-125.18
11
194.31
21
-126.28
0
LINE
8
BLACK
6
CONTINUOUS
10
193.76
20
-125.73
11
194.86
21
-125.73
0
LINE
8
BLACK
6
CONTINUOUS
10
196.85
20
-107.4
11
196.85
21
-108.5
0
LINE
8
BLACK
6
CONTINUOUS
10
196.3
20
-107.95
11
197.4
21
-107.95
0
LINE
8
BLACK
6
CONTINUOUS
10
196.85
20
-125.18
11
196.85
21
-126.28
0
LINE
8
BLACK
6
CONTINUOUS
10
196.3
20
-125.73
11
197.4
21
-125.73
0
LINE
8
BLACK
6
CONTINUOUS
10
199.39
20
-107.4
11
199.39
21
-108.5
0
LINE
8
BLACK
6
CONTINUOUS
10
198.84
20
-107.95
11
199.94
21
-107.95
0
LINE
8
BLACK
6
CONTINUOUS
10
199.39
20
-125.18
11
199.39
21
-126.28
0
LINE
8
BLACK
6
CONTINUOUS
10
198.84
20
-125.73
11
199.94
21
-125.73
0
LINE
8
BLACK
6
CONTINUOUS
10
201.93
20
-107.4
11
201.93
21
-108.5
0
LINE
8
BLACK
6
CONTINUOUS
10
201.38
20
-107.95
11
202.48
21
-107.95
0
LINE
8
BLACK
6
CONTINUOUS
10
201.93
20
-125.18
11
201.93
21
-126.28
0
LINE
8
BLACK
6
CONTINUOUS
10
201.38
20
-125.73
11
202.48
21
-125.73
0
LINE
8
BLACK
6
CONTINUOUS
10
204.47
20
-107.4
11
204.47
21
-108.5
0
LINE
8
BLACK
6
CONTINUOUS
10
203.92
20
-107.95
11
205.02
21
-107.95
0
LINE
8
BLACK
6
CONTINUOUS
10
204.47
20
-125.18
11
204.47
21
-126.28
0
LINE
8
BLACK
6
CONTINUOUS
10
203.92
20
-125.73
11
205.02
21
-125.73
0
LINE
8
BLACK
6
CONTINUOUS
10
207.01
20
-107.4
11
207.01
21
-108.5
0
LINE
8
BLACK
6
CONTINUOUS
10
206.46
20
-107.95
11
207.56
21
-107.95
0
LINE
8
BLACK
6
CONTINUOUS
10
207.01
20
-125.18
11
207.01
21
-126.28
0
LINE
8
BLACK
6
CONTINUOUS
10
206.46
20
-125.73
11
207.56
21
-125.73
0
LINE
8
BLACK
6
CONTINUOUS
10
209.55
20
-107.4
11
209.55
21
-108.5
0
LINE
8
BLACK
6
CONTINUOUS
10
209
20
-107.95
11
210.1
21
-107.95
0
LINE
8
BLACK
6
CONTINUOUS
10
209.55
20
-125.18
11
209.55
21
-126.28
0
LINE
8
BLACK
6
CONTINUOUS
10
209
20
-125.73
11
210.1
21
-125.73
0
LINE
8
BLACK
6
CONTINUOUS
10
212.09
20
-107.4
11
212.09
21
-108.5
0
LINE
8
BLACK
6
CONTINUOUS
10
211.54
20
-107.95
11
212.64
21
-107.95
0
LINE
8
BLACK
6
CONTINUOUS
10
212.09
20
-125.18
11
212.09
21
-126.28
0
LINE
8
BLACK
6
CONTINUOUS
10
211.54
20
-125.73
11
212.64
21
-125.73
0
LINE
8
BLACK
6
CONTINUOUS
10
214.63
20
-107.4
11
214.63
21
-108.5
0
LINE
8
BLACK
6
CONTINUOUS
10
214.08
20
-107.95
11
215.18
21
-107.95
0
LINE
8
BLACK
6
CONTINUOUS
10
214.63
20
-125.18
11
214.63
21
-126.28
0
LINE
8
BLACK
6
CONTINUOUS
10
214.08
20
-125.73
11
215.18
21
-125.73
0
LINE
8
BLACK
6
CONTINUOUS
10
217.17
20
-107.4
11
217.17
21
-108.5
0
LINE
8
BLACK
6
CONTINUOUS
10
216.62
20
-107.95
11
217.72
21
-107.95
0
LINE
8
BLACK
6
CONTINUOUS
10
217.17
20
-125.18
11
217.17
21
-126.28
0
LINE
8
BLACK
6
CONTINUOUS
10
216.62
20
-125.73
11
217.72
21
-125.73
0
LINE
8
BLACK
6
CONTINUOUS
10
219.71
20
-107.4
11
219.71
21
-108.5
0
LINE
8
BLACK
6
CONTINUOUS
10
219.16
20
-107.95
11
220.26
21
-107.95
0
LINE
8
BLACK
6
CONTINUOUS
10
219.71
20
-125.18
11
219.71
21
-126.28
0
LINE
8
BLACK
6
CONTINUOUS
10
219.16
20
-125.73
11
220.26
21
-125.73
0
LINE
8
BLACK
6
CONTINUOUS
10
222.02
20
-113.75
11
222.02
21
-114.85
0
LINE
8
BLACK
6
CONTINUOUS
10
221.47
20
-114.3
11
222.57
21
-114.3
0
LINE
8
BLACK
6
CONTINUOUS
10
222.02
20
-116.29
11
222.02
21
-117.39
0
LINE
8
BLACK
6
CONTINUOUS
10
221.47
20
-116.84
11
222.57
21
-116.84
0
LINE
8
BLACK
6
CONTINUOUS
10
222.02
20
-118.83
11
222.02
21
-119.93
0
LINE
8
BLACK
6
CONTINUOUS
10
221.47
20
-119.38
11
222.57
21
-119.38
0
LINE
8
BLACK
6
CONTINUOUS
10
222.25
20
-107.4
11
222.25
21
-108.5
0
LINE
8
BLACK
6
CONTINUOUS
10
221.7
20
-107.95
11
222.8
21
-107.95
0
LINE
8
BLACK
6
CONTINUOUS
10
222.25
20
-125.18
11
222.25
21
-126.28
0
LINE
8
BLACK
6
CONTINUOUS
10
221.7
20
-125.73
11
222.8
21
-125.73
0
LINE
8
BLACK
6
CONTINUOUS
10
94.5098
20
-51.3298
11
94.5098
21
-50.2702
0
LINE
8
BLACK
6
CONTINUOUS
10
94.5098
20
-50.2702
11
93.4502
21
-50.2702
0
LINE
8
BLACK
6
CONTINUOUS
10
93.4502
20
-50.2702
11
93.4502
21
-51.3298
0
LINE
8
BLACK
6
CONTINUOUS
10
93.4502
20
-51.3298
11
94.5098
21
-51.3298
0
LINE
8
BLACK
6
CONTINUOUS
10
97.0498
20
-86.8898
11
97.0498
21
-85.8302
0
LINE
8
BLACK
6
CONTINUOUS
10
97.0498
20
-85.8302
11
95.9902
21
-85.8302
0
LINE
8
BLACK
6
CONTINUOUS
10
95.9902
20
-85.8302
11
95.9902
21
-86.8898
0
LINE
8
BLACK
6
CONTINUOUS
10
95.9902
20
-86.8898
11
97.0498
21
-86.8898
0
LINE
8
BLACK
6
CONTINUOUS
10
100.86
20
-48.7898
11
100.86
21
-47.7302
0
LINE
8
BLACK
6
CONTINUOUS
10
100.86
20
-47.7302
11
99.8002
21
-47.7302
0
LINE
8
BLACK
6
CONTINUOUS
10
99.8002
20
-47.7302
11
99.8002
21
-48.7898
0
LINE
8
BLACK
6
CONTINUOUS
10
99.8002
20
-48.7898
11
100.86
21
-48.7898
0
LINE
8
BLACK
6
CONTINUOUS
10
103.4
20
-84.3498
11
103.4
21
-83.2902
0
LINE
8
BLACK
6
CONTINUOUS
10
103.4
20
-83.2902
11
102.34
21
-83.2902
0
LINE
8
BLACK
6
CONTINUOUS
10
102.34
20
-83.2902
11
102.34
21
-84.3498
0
LINE
8
BLACK
6
CONTINUOUS
10
102.34
20
-84.3498
11
103.4
21
-84.3498
0
LINE
8
BLACK
6
CONTINUOUS
10
117.37
20
-51.3298
11
117.37
21
-50.2702
0
LINE
8
BLACK
6
CONTINUOUS
10
117.37
20
-50.2702
11
116.31
21
-50.2702
0
LINE
8
BLACK
6
CONTINUOUS
10
116.31
20
-50.2702
11
116.31
21
-51.3298
0
LINE
8
BLACK
6
CONTINUOUS
10
116.31
20
-51.3298
11
117.37
21
-51.3298
0
LINE
8
BLACK
6
CONTINUOUS
10
119.91
20
-86.8898
11
119.91
21
-85.8302
0
LINE
8
BLACK
6
CONTINUOUS
10
119.91
20
-85.8302
11
118.85
21
-85.8302
0
LINE
8
BLACK
6
CONTINUOUS
10
118.85
20
-85.8302
11
118.85
21
-86.8898
0
LINE
8
BLACK
6
CONTINUOUS
10
118.85
20
-86.8898
11
119.91
21
-86.8898
0
LINE
8
BLACK
6
CONTINUOUS
10
123.72
20
-48.7898
11
123.72
21
-47.7302
0
LINE
8
BLACK
6
CONTINUOUS
10
123.72
20
-47.7302
11
122.66
21
-47.7302
0
LINE
8
BLACK
6
CONTINUOUS
10
122.66
20
-47.7302
11
122.66
21
-48.7898
0
LINE
8
BLACK
6
CONTINUOUS
10
122.66
20
-48.7898
11
123.72
21
-48.7898
0
LINE
8
BLACK
6
CONTINUOUS
10
126.26
20
-84.3498
11
126.26
21
-83.2902
0
LINE
8
BLACK
6
CONTINUOUS
10
126.26
20
-83.2902
11
125.2
21
-83.2902
0
LINE
8
BLACK
6
CONTINUOUS
10
125.2
20
-83.2902
11
125.2
21
-84.3498
0
LINE
8
BLACK
6
CONTINUOUS
10
125.2
20
-84.3498
11
126.26
21
-84.3498
0
LINE
8
BLACK
6
CONTINUOUS
10
140.23
20
-94.5098
11
140.23
21
-93.4502
0
LINE
8
BLACK
6
CONTINUOUS
10
140.23
20
-93.4502
11
139.17
21
-93.4502
0
LINE
8
BLACK
6
CONTINUOUS
10
139.17
20
-93.4502
11
139.17
21
-94.5098
0
LINE
8
BLACK
6
CONTINUOUS
10
139.17
20
-94.5098
11
140.23
21
-94.5098
0
LINE
8
BLACK
6
CONTINUOUS
10
146.58
20
-91.9698
11
146.58
21
-90.9102
0
LINE
8
BLACK
6
CONTINUOUS
10
146.58
20
-90.9102
11
145.52
21
-90.9102
0
LINE
8
BLACK
6
CONTINUOUS
10
145.52
20
-90.9102
11
145.52
21
-91.9698
0
LINE
8
BLACK
6
CONTINUOUS
10
145.52
20
-91.9698
11
146.58
21
-91.9698
0
LINE
8
BLACK
6
CONTINUOUS
10
150.39
20
-132.61
11
150.39
21
-131.55
0
LINE
8
BLACK
6
CONTINUOUS
10
150.39
20
-131.55
11
149.33
21
-131.55
0
LINE
8
BLACK
6
CONTINUOUS
10
149.33
20
-131.55
11
149.33
21
-132.61
0
LINE
8
BLACK
6
CONTINUOUS
10
149.33
20
-132.61
11
150.39
21
-132.61
0
LINE
8
BLACK
6
CONTINUOUS
10
156.74
20
-130.07
11
156.74
21
-129.01
0
LINE
8
BLACK
6
CONTINUOUS
10
156.74
20
-129.01
11
155.68
21
-129.01
0
LINE
8
BLACK
6
CONTINUOUS
10
155.68
20
-129.01
11
155.68
21
-130.07
0
LINE
8
BLACK
6
CONTINUOUS
10
155.68
20
-130.07
11
156.74
21
-130.07
0
LINE
8
BLACK
6
CONTINUOUS
10
163.09
20
-79.2698
11
163.09
21
-78.2102
0
LINE
8
BLACK
6
CONTINUOUS
10
163.09
20
-78.2102
11
162.03
21
-78.2102
0
LINE
8
BLACK
6
CONTINUOUS
10
162.03
20
-78.2102
11
162.03
21
-79.2698
0
LINE
8
BLACK
6
CONTINUOUS
10
162.03
20
-79.2698
11
163.09
21
-79.2698
0
LINE
8
BLACK
6
CONTINUOUS
10
163.09
20
-102.13
11
163.09
21
-101.07
0
LINE
8
BLACK
6
CONTINUOUS
10
163.09
20
-101.07
11
162.03
21
-101.07
0
LINE
8
BLACK
6
CONTINUOUS
10
162.03
20
-101.07
11
162.03
21
-102.13
0
LINE
8
BLACK
6
CONTINUOUS
10
162.03
20
-102.13
11
163.09
21
-102.13
0
LINE
8
BLACK
6
CONTINUOUS
10
169.44
20
-76.7298
11
169.44
21
-75.6702
0
LINE
8
BLACK
6
CONTINUOUS
10
169.44
20
-75.6702
11
168.38
21
-75.6702
0
LINE
8
BLACK
6
CONTINUOUS
10
168.38
20
-75.6702
11
168.38
21
-76.7298
0
LINE
8
BLACK
6
CONTINUOUS
10
168.38
20
-76.7298
11
169.44
21
-76.7298
0
LINE
8
BLACK
6
CONTINUOUS
10
169.44
20
-99.5898
11
169.44
21
-98.5302
0
LINE
8
BLACK
6
CONTINUOUS
10
169.44
20
-98.5302
11
168.38
21
-98.5302
0
LINE
8
BLACK
6
CONTINUOUS
10
168.38
20
-98.5302
11
168.38
21
-99.5898
0
LINE
8
BLACK
6
CONTINUOUS
10
168.38
20
-99.5898
11
169.44
21
-99.5898
0
LINE
8
BLACK
6
CONTINUOUS
10
185.95
20
-74.1898
11
185.95
21
-73.1302
0
LINE
8
BLACK
6
CONTINUOUS
10
185.95
20
-73.1302
11
184.89
21
-73.1302
0
LINE
8
BLACK
6
CONTINUOUS
10
184.89
20
-73.1302
11
184.89
21
-74.1898
0
LINE
8
BLACK
6
CONTINUOUS
10
184.89
20
-74.1898
11
185.95
21
-74.1898
0
LINE
8
BLACK
6
CONTINUOUS
10
185.95
20
-97.0498
11
185.95
21
-95.9902
0
LINE
8
BLACK
6
CONTINUOUS
10
185.95
20
-95.9902
11
184.89
21
-95.9902
0
LINE
8
BLACK
6
CONTINUOUS
10
184.89
20
-95.9902
11
184.89
21
-97.0498
0
LINE
8
BLACK
6
CONTINUOUS
10
184.89
20
-97.0498
11
185.95
21
-97.0498
0
LINE
8
BLACK
6
CONTINUOUS
10
192.3
20
-71.6498
11
192.3
21
-70.5902
0
LINE
8
BLACK
6
CONTINUOUS
10
192.3
20
-70.5902
11
191.24
21
-70.5902
0
LINE
8
BLACK
6
CONTINUOUS
10
191.24
20
-70.5902
11
191.24
21
-71.6498
0
LINE
8
BLACK
6
CONTINUOUS
10
191.24
20
-71.6498
11
192.3
21
-71.6498
0
LINE
8
BLACK
6
CONTINUOUS
10
192.3
20
-94.5098
11
192.3
21
-93.4502
0
LINE
8
BLACK
6
CONTINUOUS
10
192.3
20
-93.4502
11
191.24
21
-93.4502
0
LINE
8
BLACK
6
CONTINUOUS
10
191.24
20
-93.4502
11
191.24
21
-94.5098
0
LINE
8
BLACK
6
CONTINUOUS
10
191.24
20
-94.5098
11
192.3
21
-94.5098
0
LINE
8
BLACK
6
CONTINUOUS
10
208.81
20
-74.1898
11
208.81
21
-73.1302
0
LINE
8
BLACK
6
CONTINUOUS
10
208.81
20
-73.1302
11
207.75
21
-73.1302
0
LINE
8
BLACK
6
CONTINUOUS
10
207.75
20
-73.1302
11
207.75
21
-74.1898
0
LINE
8
BLACK
6
CONTINUOUS
10
207.75
20
-74.1898
11
208.81
21
-74.1898
0
LINE
8
BLACK
6
CONTINUOUS
10
208.81
20
-97.0498
11
208.81
21
-95.9902
0
LINE
8
BLACK
6
CONTINUOUS
10
208.81
20
-95.9902
11
207.75
21
-95.9902
0
LINE
8
BLACK
6
CONTINUOUS
10
207.75
20
-95.9902
11
207.75
21
-97.0498
0
LINE
8
BLACK
6
CONTINUOUS
10
207.75
20
-97.0498
11
208.81
21
-97.0498
0
LINE
8
BLACK
6
CONTINUOUS
10
215.16
20
-71.6498
11
215.16
21
-70.5902
0
LINE
8
BLACK
6
CONTINUOUS
10
215.16
20
-70.5902
11
214.1
21
-70.5902
0
LINE
8
BLACK
6
CONTINUOUS
10
214.1
20
-70.5902
11
214.1
21
-71.6498
0
LINE
8
BLACK
6
CONTINUOUS
10
214.1
20
-71.6498
11
215.16
21
-71.6498
0
LINE
8
BLACK
6
CONTINUOUS
10
215.16
20
-94.5098
11
215.16
21
-93.4502
0
LINE
8
BLACK
6
CONTINUOUS
10
215.16
20
-93.4502
11
214.1
21
-93.4502
0
LINE
8
BLACK
6
CONTINUOUS
10
214.1
20
-93.4502
11
214.1
21
-94.5098
0
LINE
8
BLACK
6
CONTINUOUS
10
214.1
20
-94.5098
11
215.16
21
-94.5098
0
LINE
8
BLACK
6
CONTINUOUS
10
231.67
20
-76.7298
11
231.67
21
-75.6702
0
LINE
8
BLACK
6
CONTINUOUS
10
231.67
20
-75.6702
11
230.61
21
-75.6702
0
LINE
8
BLACK
6
CONTINUOUS
10
230.61
20
-75.6702
11
230.61
21
-76.7298
0
LINE
8
BLACK
6
CONTINUOUS
10
230.61
20
-76.7298
11
231.67
21
-76.7298
0
LINE
8
BLACK
6
CONTINUOUS
10
231.67
20
-99.5898
11
231.67
21
-98.5302
0
LINE
8
BLACK
6
CONTINUOUS
10
231.67
20
-98.5302
11
230.61
21
-98.5302
0
LINE
8
BLACK
6
CONTINUOUS
10
230.61
20
-98.5302
11
230.61
21
-99.5898
0
LINE
8
BLACK
6
CONTINUOUS
10
230.61
20
-99.5898
11
231.67
21
-99.5898
0
LINE
8
BLACK
6
CONTINUOUS
10
238.02
20
-74.1898
11
238.02
21
-73.1302
0
LINE
8
BLACK
6
CONTINUOUS
10
238.02
20
-73.1302
11
236.96
21
-73.1302
0
LINE
8
BLACK
6
CONTINUOUS
10
236.96
20
-73.1302
11
236.96
21
-74.1898
0
LINE
8
BLACK
6
CONTINUOUS
10
236.96
20
-74.1898
11
238.02
21
-74.1898
0
LINE
8
BLACK
6
CONTINUOUS
10
238.02
20
-97.0498
11
238.02
21
-95.9902
0
LINE
8
BLACK
6
CONTINUOUS
10
238.02
20
-95.9902
11
236.96
21
-95.9902
0
LINE
8
BLACK
6
CONTINUOUS
10
236.96
20
-95.9902
11
236.96
21
-97.0498
0
LINE
8
BLACK
6
CONTINUOUS
10
236.96
20
-97.0498
11
238.02
21
-97.0498
0
LINE
8
BLACK
6
CONTINUOUS
10
81.2912
20
-140.29
11
81.2912
21
-138.29
0
LINE
8
BLACK
6
CONTINUOUS
10
81.2912
20
-138.29
11
81.7674
21
-138.29
0
LINE
8
BLACK
6
CONTINUOUS
10
81.7674
20
-138.29
11
82.0531
21
-138.385
0
LINE
8
BLACK
6
CONTINUOUS
10
82.0531
20
-138.385
11
82.2436
21
-138.575
0
LINE
8
BLACK
6
CONTINUOUS
10
82.2436
20
-138.575
11
82.3388
21
-138.766
0
LINE
8
BLACK
6
CONTINUOUS
10
82.3388
20
-138.766
11
82.434
21
-139.147
0
LINE
8
BLACK
6
CONTINUOUS
10
82.434
20
-139.147
11
82.434
21
-139.433
0
LINE
8
BLACK
6
CONTINUOUS
10
82.434
20
-139.433
11
82.3388
21
-139.814
0
LINE
8
BLACK
6
CONTINUOUS
10
82.3388
20
-139.814
11
82.2436
21
-140.004
0
LINE
8
BLACK
6
CONTINUOUS
10
82.2436
20
-140.004
11
82.0531
21
-140.195
0
LINE
8
BLACK
6
CONTINUOUS
10
82.0531
20
-140.195
11
81.7674
21
-140.29
0
LINE
8
BLACK
6
CONTINUOUS
10
81.7674
20
-140.29
11
81.2912
21
-140.29
0
LINE
8
BLACK
6
CONTINUOUS
10
83.2912
20
-140.29
11
83.2912
21
-138.956
0
LINE
8
BLACK
6
CONTINUOUS
10
83.2912
20
-139.337
11
83.3864
21
-139.147
0
LINE
8
BLACK
6
CONTINUOUS
10
83.3864
20
-139.147
11
83.4817
21
-139.052
0
LINE
8
BLACK
6
CONTINUOUS
10
83.4817
20
-139.052
11
83.6721
21
-138.956
0
LINE
8
BLACK
6
CONTINUOUS
10
83.6721
20
-138.956
11
83.8626
21
-138.956
0
LINE
8
BLACK
6
CONTINUOUS
10
84.5293
20
-140.29
11
84.5293
21
-138.956
0
LINE
8
BLACK
6
CONTINUOUS
10
84.5293
20
-138.29
11
84.434
21
-138.385
0
LINE
8
BLACK
6
CONTINUOUS
10
84.434
20
-138.385
11
84.5293
21
-138.48
0
LINE
8
BLACK
6
CONTINUOUS
10
84.5293
20
-138.48
11
84.6245
21
-138.385
0
LINE
8
BLACK
6
CONTINUOUS
10
84.6245
20
-138.385
11
84.5293
21
-138.29
0
LINE
8
BLACK
6
CONTINUOUS
10
84.5293
20
-138.29
11
84.5293
21
-138.48
0
LINE
8
BLACK
6
CONTINUOUS
10
85.7674
20
-140.29
11
85.5769
21
-140.195
0
LINE
8
BLACK
6
CONTINUOUS
10
85.5769
20
-140.195
11
85.4817
21
-140.004
0
LINE
8
BLACK
6
CONTINUOUS
10
85.4817
20
-140.004
11
85.4817
21
-138.29
0
LINE
8
BLACK
6
CONTINUOUS
10
86.815
20
-140.29
11
86.6245
21
-140.195
0
LINE
8
BLACK
6
CONTINUOUS
10
86.6245
20
-140.195
11
86.5293
21
-140.004
0
LINE
8
BLACK
6
CONTINUOUS
10
86.5293
20
-140.004
11
86.5293
21
-138.29
0
LINE
8
BLACK
6
CONTINUOUS
10
89.1007
20
-140.29
11
89.1007
21
-138.29
0
LINE
8
BLACK
6
CONTINUOUS
10
89.1007
20
-138.29
11
89.7674
21
-139.718
0
LINE
8
BLACK
6
CONTINUOUS
10
89.7674
20
-139.718
11
90.434
21
-138.29
0
LINE
8
BLACK
6
CONTINUOUS
10
90.434
20
-138.29
11
90.434
21
-140.29
0
LINE
8
BLACK
6
CONTINUOUS
10
92.2436
20
-140.29
11
92.2436
21
-139.242
0
LINE
8
BLACK
6
CONTINUOUS
10
92.2436
20
-139.242
11
92.1483
21
-139.052
0
LINE
8
BLACK
6
CONTINUOUS
10
92.1483
20
-139.052
11
91.9579
21
-138.956
0
LINE
8
BLACK
6
CONTINUOUS
10
91.9579
20
-138.956
11
91.5769
21
-138.956
0
LINE
8
BLACK
6
CONTINUOUS
10
91.5769
20
-138.956
11
91.3864
21
-139.052
0
LINE
8
BLACK
6
CONTINUOUS
10
92.2436
20
-140.195
11
92.0531
21
-140.29
0
LINE
8
BLACK
6
CONTINUOUS
10
92.0531
20
-140.29
11
91.5769
21
-140.29
0
LINE
8
BLACK
6
CONTINUOUS
10
91.5769
20
-140.29
11
91.3864
21
-140.195
0
LINE
8
BLACK
6
CONTINUOUS
10
91.3864
20
-140.195
11
91.2912
21
-140.004
0
LINE
8
BLACK
6
CONTINUOUS
10
91.2912
20
-140.004
11
91.2912
21
-139.814
0
LINE
8
BLACK
6
CONTINUOUS
10
91.2912
20
-139.814
11
91.3864
21
-139.623
0
LINE
8
BLACK
6
CONTINUOUS
10
91.3864
20
-139.623
11
91.5769
21
-139.528
0
LINE
8
BLACK
6
CONTINUOUS
10
91.5769
20
-139.528
11
92.0531
21
-139.528
0
LINE
8
BLACK
6
CONTINUOUS
10
92.0531
20
-139.528
11
92.2436
21
-139.433
0
LINE
8
BLACK
6
CONTINUOUS
10
93.196
20
-138.956
11
93.196
21
-140.956
0
LINE
8
BLACK
6
CONTINUOUS
10
93.196
20
-139.052
11
93.3864
21
-138.956
0
LINE
8
BLACK
6
CONTINUOUS
10
93.3864
20
-138.956
11
93.7674
21
-138.956
0
LINE
8
BLACK
6
CONTINUOUS
10
93.7674
20
-138.956
11
93.9579
21
-139.052
0
LINE
8
BLACK
6
CONTINUOUS
10
93.9579
20
-139.052
11
94.0531
21
-139.147
0
LINE
8
BLACK
6
CONTINUOUS
10
94.0531
20
-139.147
11
94.1483
21
-139.337
0
LINE
8
BLACK
6
CONTINUOUS
10
94.1483
20
-139.337
11
94.1483
21
-139.909
0
LINE
8
BLACK
6
CONTINUOUS
10
94.1483
20
-139.909
11
94.0531
21
-140.099
0
LINE
8
BLACK
6
CONTINUOUS
10
94.0531
20
-140.099
11
93.9579
21
-140.195
0
LINE
8
BLACK
6
CONTINUOUS
10
93.9579
20
-140.195
11
93.7674
21
-140.29
0
LINE
8
BLACK
6
CONTINUOUS
10
93.7674
20
-140.29
11
93.3864
21
-140.29
0
LINE
8
BLACK
6
CONTINUOUS
10
93.3864
20
-140.29
11
93.196
21
-140.195
0
LINE
8
BLACK
6
CONTINUOUS
10
95.0055
20
-140.099
11
95.1007
21
-140.195
0
LINE
8
BLACK
6
CONTINUOUS
10
95.1007
20
-140.195
11
95.0055
21
-140.29
0
LINE
8
BLACK
6
CONTINUOUS
10
95.0055
20
-140.29
11
94.9102
21
-140.195
0
LINE
8
BLACK
6
CONTINUOUS
10
94.9102
20
-140.195
11
95.0055
21
-140.099
0
LINE
8
BLACK
6
CONTINUOUS
10
95.0055
20
-140.099
11
95.0055
21
-140.29
0
LINE
8
BLACK
6
CONTINUOUS
10
95.0055
20
-139.052
11
95.1007
21
-139.147
0
LINE
8
BLACK
6
CONTINUOUS
10
95.1007
20
-139.147
11
95.0055
21
-139.242
0
LINE
8
BLACK
6
CONTINUOUS
10
95.0055
20
-139.242
11
94.9102
21
-139.147
0
LINE
8
BLACK
6
CONTINUOUS
10
94.9102
20
-139.147
11
95.0055
21
-139.052
0
LINE
8
BLACK
6
CONTINUOUS
10
95.0055
20
-139.052
11
95.0055
21
-139.242
0
LINE
8
BLACK
6
CONTINUOUS
10
78.115
20
-143.285
11
78.715
21
-143.885
0
LINE
8
BLACK
6
CONTINUOUS
10
78.715
20
-143.285
11
78.115
21
-143.885
0
LINE
8
BLACK
6
CONTINUOUS
10
81.6721
20
-142.49
11
81.8626
21
-142.49
0
LINE
8
BLACK
6
CONTINUOUS
10
81.8626
20
-142.49
11
82.0531
21
-142.585
0
LINE
8
BLACK
6
CONTINUOUS
10
82.0531
20
-142.585
11
82.1483
21
-142.68
0
LINE
8
BLACK
6
CONTINUOUS
10
82.1483
20
-142.68
11
82.2436
21
-142.871
0
LINE
8
BLACK
6
CONTINUOUS
10
82.2436
20
-142.871
11
82.3388
21
-143.252
0
LINE
8
BLACK
6
CONTINUOUS
10
82.3388
20
-143.252
11
82.3388
21
-143.728
0
LINE
8
BLACK
6
CONTINUOUS
10
82.3388
20
-143.728
11
82.2436
21
-144.109
0
LINE
8
BLACK
6
CONTINUOUS
10
82.2436
20
-144.109
11
82.1483
21
-144.299
0
LINE
8
BLACK
6
CONTINUOUS
10
82.1483
20
-144.299
11
82.0531
21
-144.395
0
LINE
8
BLACK
6
CONTINUOUS
10
82.0531
20
-144.395
11
81.8626
21
-144.49
0
LINE
8
BLACK
6
CONTINUOUS
10
81.8626
20
-144.49
11
81.6721
21
-144.49
0
LINE
8
BLACK
6
CONTINUOUS
10
81.6721
20
-144.49
11
81.4817
21
-144.395
0
LINE
8
BLACK
6
CONTINUOUS
10
81.4817
20
-144.395
11
81.3864
21
-144.299
0
LINE
8
BLACK
6
CONTINUOUS
10
81.3864
20
-144.299
11
81.2912
21
-144.109
0
LINE
8
BLACK
6
CONTINUOUS
10
81.2912
20
-144.109
11
81.196
21
-143.728
0
LINE
8
BLACK
6
CONTINUOUS
10
81.196
20
-143.728
11
81.196
21
-143.252
0
LINE
8
BLACK
6
CONTINUOUS
10
81.196
20
-143.252
11
81.2912
21
-142.871
0
LINE
8
BLACK
6
CONTINUOUS
10
81.2912
20
-142.871
11
81.3864
21
-142.68
0
LINE
8
BLACK
6
CONTINUOUS
10
81.3864
20
-142.68
11
81.4817
21
-142.585
0
LINE
8
BLACK
6
CONTINUOUS
10
81.4817
20
-142.585
11
81.6721
21
-142.49
0
LINE
8
BLACK
6
CONTINUOUS
10
83.196
20
-144.299
11
83.2912
21
-144.395
0
LINE
8
BLACK
6
CONTINUOUS
10
83.2912
20
-144.395
11
83.196
21
-144.49
0
LINE
8
BLACK
6
CONTINUOUS
10
83.196
20
-144.49
11
83.1007
21
-144.395
0
LINE
8
BLACK
6
CONTINUOUS
10
83.1007
20
-144.395
11
83.196
21
-144.299
0
LINE
8
BLACK
6
CONTINUOUS
10
83.196
20
-144.299
11
83.196
21
-144.49
0
LINE
8
BLACK
6
CONTINUOUS
10
85.0055
20
-142.49
11
84.6245
21
-142.49
0
LINE
8
BLACK
6
CONTINUOUS
10
84.6245
20
-142.49
11
84.434
21
-142.585
0
LINE
8
BLACK
6
CONTINUOUS
10
84.434
20
-142.585
11
84.3388
21
-142.68
0
LINE
8
BLACK
6
CONTINUOUS
10
84.3388
20
-142.68
11
84.1483
21
-142.966
0
LINE
8
BLACK
6
CONTINUOUS
10
84.1483
20
-142.966
11
84.0531
21
-143.347
0
LINE
8
BLACK
6
CONTINUOUS
10
84.0531
20
-143.347
11
84.0531
21
-144.109
0
LINE
8
BLACK
6
CONTINUOUS
10
84.0531
20
-144.109
11
84.1483
21
-144.299
0
LINE
8
BLACK
6
CONTINUOUS
10
84.1483
20
-144.299
11
84.2436
21
-144.395
0
LINE
8
BLACK
6
CONTINUOUS
10
84.2436
20
-144.395
11
84.434
21
-144.49
0
LINE
8
BLACK
6
CONTINUOUS
10
84.434
20
-144.49
11
84.815
21
-144.49
0
LINE
8
BLACK
6
CONTINUOUS
10
84.815
20
-144.49
11
85.0055
21
-144.395
0
LINE
8
BLACK
6
CONTINUOUS
10
85.0055
20
-144.395
11
85.1007
21
-144.299
0
LINE
8
BLACK
6
CONTINUOUS
10
85.1007
20
-144.299
11
85.196
21
-144.109
0
LINE
8
BLACK
6
CONTINUOUS
10
85.196
20
-144.109
11
85.196
21
-143.633
0
LINE
8
BLACK
6
CONTINUOUS
10
85.196
20
-143.633
11
85.1007
21
-143.442
0
LINE
8
BLACK
6
CONTINUOUS
10
85.1007
20
-143.442
11
85.0055
21
-143.347
0
LINE
8
BLACK
6
CONTINUOUS
10
85.0055
20
-143.347
11
84.815
21
-143.252
0
LINE
8
BLACK
6
CONTINUOUS
10
84.815
20
-143.252
11
84.434
21
-143.252
0
LINE
8
BLACK
6
CONTINUOUS
10
84.434
20
-143.252
11
84.2436
21
-143.347
0
LINE
8
BLACK
6
CONTINUOUS
10
84.2436
20
-143.347
11
84.1483
21
-143.442
0
LINE
8
BLACK
6
CONTINUOUS
10
84.1483
20
-143.442
11
84.0531
21
-143.633
0
LINE
8
BLACK
6
CONTINUOUS
10
86.434
20
-142.49
11
86.6245
21
-142.49
0
LINE
8
BLACK
6
CONTINUOUS
10
86.6245
20
-142.49
11
86.815
21
-142.585
0
LINE
8
BLACK
6
CONTINUOUS
10
86.815
20
-142.585
11
86.9102
21
-142.68
0
LINE
8
BLACK
6
CONTINUOUS
10
86.9102
20
-142.68
11
87.0055
21
-142.871
0
LINE
8
BLACK
6
CONTINUOUS
10
87.0055
20
-142.871
11
87.1007
21
-143.252
0
LINE
8
BLACK
6
CONTINUOUS
10
87.1007
20
-143.252
11
87.1007
21
-143.728
0
LINE
8
BLACK
6
CONTINUOUS
10
87.1007
20
-143.728
11
87.0055
21
-144.109
0
LINE
8
BLACK
6
CONTINUOUS
10
87.0055
20
-144.109
11
86.9102
21
-144.299
0
LINE
8
BLACK
6
CONTINUOUS
10
86.9102
20
-144.299
11
86.815
21
-144.395
0
LINE
8
BLACK
6
CONTINUOUS
10
86.815
20
-144.395
11
86.6245
21
-144.49
0
LINE
8
BLACK
6
CONTINUOUS
10
86.6245
20
-144.49
11
86.434
21
-144.49
0
LINE
8
BLACK
6
CONTINUOUS
10
86.434
20
-144.49
11
86.2436
21
-144.395
0
LINE
8
BLACK
6
CONTINUOUS
10
86.2436
20
-144.395
11
86.1483
21
-144.299
0
LINE
8
BLACK
6
CONTINUOUS
10
86.1483
20
-144.299
11
86.0531
21
-144.109
0
LINE
8
BLACK
6
CONTINUOUS
10
86.0531
20
-144.109
11
85.9579
21
-143.728
0
LINE
8
BLACK
6
CONTINUOUS
10
85.9579
20
-143.728
11
85.9579
21
-143.252
0
LINE
8
BLACK
6
CONTINUOUS
10
85.9579
20
-143.252
11
86.0531
21
-142.871
0
LINE
8
BLACK
6
CONTINUOUS
10
86.0531
20
-142.871
11
86.1483
21
-142.68
0
LINE
8
BLACK
6
CONTINUOUS
10
86.1483
20
-142.68
11
86.2436
21
-142.585
0
LINE
8
BLACK
6
CONTINUOUS
10
86.2436
20
-142.585
11
86.434
21
-142.49
0
LINE
8
BLACK
6
CONTINUOUS
10
88.3388
20
-142.49
11
88.5293
21
-142.49
0
LINE
8
BLACK
6
CONTINUOUS
10
88.5293
20
-142.49
11
88.7198
21
-142.585
0
LINE
8
BLACK
6
CONTINUOUS
10
88.7198
20
-142.585
11
88.815
21
-142.68
0
LINE
8
BLACK
6
CONTINUOUS
10
88.815
20
-142.68
11
88.9102
21
-142.871
0
LINE
8
BLACK
6
CONTINUOUS
10
88.9102
20
-142.871
11
89.0055
21
-143.252
0
LINE
8
BLACK
6
CONTINUOUS
10
89.0055
20
-143.252
11
89.0055
21
-143.728
0
LINE
8
BLACK
6
CONTINUOUS
10
89.0055
20
-143.728
11
88.9102
21
-144.109
0
LINE
8
BLACK
6
CONTINUOUS
10
88.9102
20
-144.109
11
88.815
21
-144.299
0
LINE
8
BLACK
6
CONTINUOUS
10
88.815
20
-144.299
11
88.7198
21
-144.395
0
LINE
8
BLACK
6
CONTINUOUS
10
88.7198
20
-144.395
11
88.5293
21
-144.49
0
LINE
8
BLACK
6
CONTINUOUS
10
88.5293
20
-144.49
11
88.3388
21
-144.49
0
LINE
8
BLACK
6
CONTINUOUS
10
88.3388
20
-144.49
11
88.1483
21
-144.395
0
LINE
8
BLACK
6
CONTINUOUS
10
88.1483
20
-144.395
11
88.0531
21
-144.299
0
LINE
8
BLACK
6
CONTINUOUS
10
88.0531
20
-144.299
11
87.9579
21
-144.109
0
LINE
8
BLACK
6
CONTINUOUS
10
87.9579
20
-144.109
11
87.8626
21
-143.728
0
LINE
8
BLACK
6
CONTINUOUS
10
87.8626
20
-143.728
11
87.8626
21
-143.252
0
LINE
8
BLACK
6
CONTINUOUS
10
87.8626
20
-143.252
11
87.9579
21
-142.871
0
LINE
8
BLACK
6
CONTINUOUS
10
87.9579
20
-142.871
11
88.0531
21
-142.68
0
LINE
8
BLACK
6
CONTINUOUS
10
88.0531
20
-142.68
11
88.1483
21
-142.585
0
LINE
8
BLACK
6
CONTINUOUS
10
88.1483
20
-142.585
11
88.3388
21
-142.49
0
LINE
8
BLACK
6
CONTINUOUS
10
89.8626
20
-144.49
11
89.8626
21
-143.156
0
LINE
8
BLACK
6
CONTINUOUS
10
89.8626
20
-143.347
11
89.9579
21
-143.252
0
LINE
8
BLACK
6
CONTINUOUS
10
89.9579
20
-143.252
11
90.1483
21
-143.156
0
LINE
8
BLACK
6
CONTINUOUS
10
90.1483
20
-143.156
11
90.434
21
-143.156
0
LINE
8
BLACK
6
CONTINUOUS
10
90.434
20
-143.156
11
90.6245
21
-143.252
0
LINE
8
BLACK
6
CONTINUOUS
10
90.6245
20
-143.252
11
90.7198
21
-143.442
0
LINE
8
BLACK
6
CONTINUOUS
10
90.7198
20
-143.442
11
90.7198
21
-144.49
0
LINE
8
BLACK
6
CONTINUOUS
10
90.7198
20
-143.442
11
90.815
21
-143.252
0
LINE
8
BLACK
6
CONTINUOUS
10
90.815
20
-143.252
11
91.0055
21
-143.156
0
LINE
8
BLACK
6
CONTINUOUS
10
91.0055
20
-143.156
11
91.2912
21
-143.156
0
LINE
8
BLACK
6
CONTINUOUS
10
91.2912
20
-143.156
11
91.4817
21
-143.252
0
LINE
8
BLACK
6
CONTINUOUS
10
91.4817
20
-143.252
11
91.5769
21
-143.442
0
LINE
8
BLACK
6
CONTINUOUS
10
91.5769
20
-143.442
11
91.5769
21
-144.49
0
LINE
8
BLACK
6
CONTINUOUS
10
92.5293
20
-144.49
11
92.5293
21
-143.156
0
LINE
8
BLACK
6
CONTINUOUS
10
92.5293
20
-143.347
11
92.6245
21
-143.252
0
LINE
8
BLACK
6
CONTINUOUS
10
92.6245
20
-143.252
11
92.815
21
-143.156
0
LINE
8
BLACK
6
CONTINUOUS
10
92.815
20
-143.156
11
93.1007
21
-143.156
0
LINE
8
BLACK
6
CONTINUOUS
10
93.1007
20
-143.156
11
93.2912
21
-143.252
0
LINE
8
BLACK
6
CONTINUOUS
10
93.2912
20
-143.252
11
93.3864
21
-143.442
0
LINE
8
BLACK
6
CONTINUOUS
10
93.3864
20
-143.442
11
93.3864
21
-144.49
0
LINE
8
BLACK
6
CONTINUOUS
10
93.3864
20
-143.442
11
93.4817
21
-143.252
0
LINE
8
BLACK
6
CONTINUOUS
10
93.4817
20
-143.252
11
93.6721
21
-143.156
0
LINE
8
BLACK
6
CONTINUOUS
10
93.6721
20
-143.156
11
93.9579
21
-143.156
0
LINE
8
BLACK
6
CONTINUOUS
10
93.9579
20
-143.156
11
94.1483
21
-143.252
0
LINE
8
BLACK
6
CONTINUOUS
10
94.1483
20
-143.252
11
94.2436
21
-143.442
0
LINE
8
BLACK
6
CONTINUOUS
10
94.2436
20
-143.442
11
94.2436
21
-144.49
0
LINE
8
BLACK
6
CONTINUOUS
10
98.1483
20
-142.395
11
96.434
21
-144.966
0
LINE
8
BLACK
6
CONTINUOUS
10
100.72
20
-142.49
11
100.91
21
-142.49
0
LINE
8
BLACK
6
CONTINUOUS
10
100.91
20
-142.49
11
101.101
21
-142.585
0
LINE
8
BLACK
6
CONTINUOUS
10
101.101
20
-142.585
11
101.196
21
-142.68
0
LINE
8
BLACK
6
CONTINUOUS
10
101.196
20
-142.68
11
101.291
21
-142.871
0
LINE
8
BLACK
6
CONTINUOUS
10
101.291
20
-142.871
11
101.386
21
-143.252
0
LINE
8
BLACK
6
CONTINUOUS
10
101.386
20
-143.252
11
101.386
21
-143.728
0
LINE
8
BLACK
6
CONTINUOUS
10
101.386
20
-143.728
11
101.291
21
-144.109
0
LINE
8
BLACK
6
CONTINUOUS
10
101.291
20
-144.109
11
101.196
21
-144.299
0
LINE
8
BLACK
6
CONTINUOUS
10
101.196
20
-144.299
11
101.101
21
-144.395
0
LINE
8
BLACK
6
CONTINUOUS
10
101.101
20
-144.395
11
100.91
21
-144.49
0
LINE
8
BLACK
6
CONTINUOUS
10
100.91
20
-144.49
11
100.72
21
-144.49
0
LINE
8
BLACK
6
CONTINUOUS
10
100.72
20
-144.49
11
100.529
21
-144.395
0
LINE
8
BLACK
6
CONTINUOUS
10
100.529
20
-144.395
11
100.434
21
-144.299
0
LINE
8
BLACK
6
CONTINUOUS
10
100.434
20
-144.299
11
100.339
21
-144.109
0
LINE
8
BLACK
6
CONTINUOUS
10
100.339
20
-144.109
11
100.244
21
-143.728
0
LINE
8
BLACK
6
CONTINUOUS
10
100.244
20
-143.728
11
100.244
21
-143.252
0
LINE
8
BLACK
6
CONTINUOUS
10
100.244
20
-143.252
11
100.339
21
-142.871
0
LINE
8
BLACK
6
CONTINUOUS
10
100.339
20
-142.871
11
100.434
21
-142.68
0
LINE
8
BLACK
6
CONTINUOUS
10
100.434
20
-142.68
11
100.529
21
-142.585
0
LINE
8
BLACK
6
CONTINUOUS
10
100.529
20
-142.585
11
100.72
21
-142.49
0
LINE
8
BLACK
6
CONTINUOUS
10
102.244
20
-144.299
11
102.339
21
-144.395
0
LINE
8
BLACK
6
CONTINUOUS
10
102.339
20
-144.395
11
102.244
21
-144.49
0
LINE
8
BLACK
6
CONTINUOUS
10
102.244
20
-144.49
11
102.148
21
-144.395
0
LINE
8
BLACK
6
CONTINUOUS
10
102.148
20
-144.395
11
102.244
21
-144.299
0
LINE
8
BLACK
6
CONTINUOUS
10
102.244
20
-144.299
11
102.244
21
-144.49
0
LINE
8
BLACK
6
CONTINUOUS
10
103.577
20
-142.49
11
103.767
21
-142.49
0
LINE
8
BLACK
6
CONTINUOUS
10
103.767
20
-142.49
11
103.958
21
-142.585
0
LINE
8
BLACK
6
CONTINUOUS
10
103.958
20
-142.585
11
104.053
21
-142.68
0
LINE
8
BLACK
6
CONTINUOUS
10
104.053
20
-142.68
11
104.148
21
-142.871
0
LINE
8
BLACK
6
CONTINUOUS
10
104.148
20
-142.871
11
104.244
21
-143.252
0
LINE
8
BLACK
6
CONTINUOUS
10
104.244
20
-143.252
11
104.244
21
-143.728
0
LINE
8
BLACK
6
CONTINUOUS
10
104.244
20
-143.728
11
104.148
21
-144.109
0
LINE
8
BLACK
6
CONTINUOUS
10
104.148
20
-144.109
11
104.053
21
-144.299
0
LINE
8
BLACK
6
CONTINUOUS
10
104.053
20
-144.299
11
103.958
21
-144.395
0
LINE
8
BLACK
6
CONTINUOUS
10
103.958
20
-144.395
11
103.767
21
-144.49
0
LINE
8
BLACK
6
CONTINUOUS
10
103.767
20
-144.49
11
103.577
21
-144.49
0
LINE
8
BLACK
6
CONTINUOUS
10
103.577
20
-144.49
11
103.386
21
-144.395
0
LINE
8
BLACK
6
CONTINUOUS
10
103.386
20
-144.395
11
103.291
21
-144.299
0
LINE
8
BLACK
6
CONTINUOUS
10
103.291
20
-144.299
11
103.196
21
-144.109
0
LINE
8
BLACK
6
CONTINUOUS
10
103.196
20
-144.109
11
103.101
21
-143.728
0
LINE
8
BLACK
6
CONTINUOUS
10
103.101
20
-143.728
11
103.101
21
-143.252
0
LINE
8
BLACK
6
CONTINUOUS
10
103.101
20
-143.252
11
103.196
21
-142.871
0
LINE
8
BLACK
6
CONTINUOUS
10
103.196
20
-142.871
11
103.291
21
-142.68
0
LINE
8
BLACK
6
CONTINUOUS
10
103.291
20
-142.68
11
103.386
21
-142.585
0
LINE
8
BLACK
6
CONTINUOUS
10
103.386
20
-142.585
11
103.577
21
-142.49
0
LINE
8
BLACK
6
CONTINUOUS
10
105.005
20
-142.68
11
105.101
21
-142.585
0
LINE
8
BLACK
6
CONTINUOUS
10
105.101
20
-142.585
11
105.291
21
-142.49
0
LINE
8
BLACK
6
CONTINUOUS
10
105.291
20
-142.49
11
105.767
21
-142.49
0
LINE
8
BLACK
6
CONTINUOUS
10
105.767
20
-142.49
11
105.958
21
-142.585
0
LINE
8
BLACK
6
CONTINUOUS
10
105.958
20
-142.585
11
106.053
21
-142.68
0
LINE
8
BLACK
6
CONTINUOUS
10
106.053
20
-142.68
11
106.148
21
-142.871
0
LINE
8
BLACK
6
CONTINUOUS
10
106.148
20
-142.871
11
106.148
21
-143.061
0
LINE
8
BLACK
6
CONTINUOUS
10
106.148
20
-143.061
11
106.053
21
-143.347
0
LINE
8
BLACK
6
CONTINUOUS
10
106.053
20
-143.347
11
104.91
21
-144.49
0
LINE
8
BLACK
6
CONTINUOUS
10
104.91
20
-144.49
11
106.148
21
-144.49
0
LINE
8
BLACK
6
CONTINUOUS
10
106.815
20
-142.49
11
108.053
21
-142.49
0
LINE
8
BLACK
6
CONTINUOUS
10
108.053
20
-142.49
11
107.386
21
-143.252
0
LINE
8
BLACK
6
CONTINUOUS
10
107.386
20
-143.252
11
107.672
21
-143.252
0
LINE
8
BLACK
6
CONTINUOUS
10
107.672
20
-143.252
11
107.863
21
-143.347
0
LINE
8
BLACK
6
CONTINUOUS
10
107.863
20
-143.347
11
107.958
21
-143.442
0
LINE
8
BLACK
6
CONTINUOUS
10
107.958
20
-143.442
11
108.053
21
-143.633
0
LINE
8
BLACK
6
CONTINUOUS
10
108.053
20
-143.633
11
108.053
21
-144.109
0
LINE
8
BLACK
6
CONTINUOUS
10
108.053
20
-144.109
11
107.958
21
-144.299
0
LINE
8
BLACK
6
CONTINUOUS
10
107.958
20
-144.299
11
107.863
21
-144.395
0
LINE
8
BLACK
6
CONTINUOUS
10
107.863
20
-144.395
11
107.672
21
-144.49
0
LINE
8
BLACK
6
CONTINUOUS
10
107.672
20
-144.49
11
107.101
21
-144.49
0
LINE
8
BLACK
6
CONTINUOUS
10
107.101
20
-144.49
11
106.91
21
-144.395
0
LINE
8
BLACK
6
CONTINUOUS
10
106.91
20
-144.395
11
106.815
21
-144.299
0
LINE
8
BLACK
6
CONTINUOUS
10
109.767
20
-142.49
11
109.386
21
-142.49
0
LINE
8
BLACK
6
CONTINUOUS
10
109.386
20
-142.49
11
109.196
21
-142.585
0
LINE
8
BLACK
6
CONTINUOUS
10
109.196
20
-142.585
11
109.101
21
-142.68
0
LINE
8
BLACK
6
CONTINUOUS
10
109.101
20
-142.68
11
108.91
21
-142.966
0
LINE
8
BLACK
6
CONTINUOUS
10
108.91
20
-142.966
11
108.815
21
-143.347
0
LINE
8
BLACK
6
CONTINUOUS
10
108.815
20
-143.347
11
108.815
21
-144.109
0
LINE
8
BLACK
6
CONTINUOUS
10
108.815
20
-144.109
11
108.91
21
-144.299
0
LINE
8
BLACK
6
CONTINUOUS
10
108.91
20
-144.299
11
109.005
21
-144.395
0
LINE
8
BLACK
6
CONTINUOUS
10
109.005
20
-144.395
11
109.196
21
-144.49
0
LINE
8
BLACK
6
CONTINUOUS
10
109.196
20
-144.49
11
109.577
21
-144.49
0
LINE
8
BLACK
6
CONTINUOUS
10
109.577
20
-144.49
11
109.767
21
-144.395
0
LINE
8
BLACK
6
CONTINUOUS
10
109.767
20
-144.395
11
109.863
21
-144.299
0
LINE
8
BLACK
6
CONTINUOUS
10
109.863
20
-144.299
11
109.958
21
-144.109
0
LINE
8
BLACK
6
CONTINUOUS
10
109.958
20
-144.109
11
109.958
21
-143.633
0
LINE
8
BLACK
6
CONTINUOUS
10
109.958
20
-143.633
11
109.863
21
-143.442
0
LINE
8
BLACK
6
CONTINUOUS
10
109.863
20
-143.442
11
109.767
21
-143.347
0
LINE
8
BLACK
6
CONTINUOUS
10
109.767
20
-143.347
11
109.577
21
-143.252
0
LINE
8
BLACK
6
CONTINUOUS
10
109.577
20
-143.252
11
109.196
21
-143.252
0
LINE
8
BLACK
6
CONTINUOUS
10
109.196
20
-143.252
11
109.005
21
-143.347
0
LINE
8
BLACK
6
CONTINUOUS
10
109.005
20
-143.347
11
108.91
21
-143.442
0
LINE
8
BLACK
6
CONTINUOUS
10
108.91
20
-143.442
11
108.815
21
-143.633
0
LINE
8
BLACK
6
CONTINUOUS
10
110.72
20
-142.49
11
110.72
21
-142.871
0
LINE
8
BLACK
6
CONTINUOUS
10
111.482
20
-142.49
11
111.482
21
-142.871
0
LINE
8
BLACK
6
CONTINUOUS
10
114.434
20
-145.252
11
114.339
21
-145.156
0
LINE
8
BLACK
6
CONTINUOUS
10
114.339
20
-145.156
11
114.148
21
-144.871
0
LINE
8
BLACK
6
CONTINUOUS
10
114.148
20
-144.871
11
114.053
21
-144.68
0
LINE
8
BLACK
6
CONTINUOUS
10
114.053
20
-144.68
11
113.958
21
-144.395
0
LINE
8
BLACK
6
CONTINUOUS
10
113.958
20
-144.395
11
113.863
21
-143.918
0
LINE
8
BLACK
6
CONTINUOUS
10
113.863
20
-143.918
11
113.863
21
-143.537
0
LINE
8
BLACK
6
CONTINUOUS
10
113.863
20
-143.537
11
113.958
21
-143.061
0
LINE
8
BLACK
6
CONTINUOUS
10
113.958
20
-143.061
11
114.053
21
-142.775
0
LINE
8
BLACK
6
CONTINUOUS
10
114.053
20
-142.775
11
114.148
21
-142.585
0
LINE
8
BLACK
6
CONTINUOUS
10
114.148
20
-142.585
11
114.339
21
-142.299
0
LINE
8
BLACK
6
CONTINUOUS
10
114.339
20
-142.299
11
114.434
21
-142.204
0
LINE
8
BLACK
6
CONTINUOUS
10
116.053
20
-142.49
11
115.672
21
-142.49
0
LINE
8
BLACK
6
CONTINUOUS
10
115.672
20
-142.49
11
115.482
21
-142.585
0
LINE
8
BLACK
6
CONTINUOUS
10
115.482
20
-142.585
11
115.386
21
-142.68
0
LINE
8
BLACK
6
CONTINUOUS
10
115.386
20
-142.68
11
115.196
21
-142.966
0
LINE
8
BLACK
6
CONTINUOUS
10
115.196
20
-142.966
11
115.101
21
-143.347
0
LINE
8
BLACK
6
CONTINUOUS
10
115.101
20
-143.347
11
115.101
21
-144.109
0
LINE
8
BLACK
6
CONTINUOUS
10
115.101
20
-144.109
11
115.196
21
-144.299
0
LINE
8
BLACK
6
CONTINUOUS
10
115.196
20
-144.299
11
115.291
21
-144.395
0
LINE
8
BLACK
6
CONTINUOUS
10
115.291
20
-144.395
11
115.482
21
-144.49
0
LINE
8
BLACK
6
CONTINUOUS
10
115.482
20
-144.49
11
115.863
21
-144.49
0
LINE
8
BLACK
6
CONTINUOUS
10
115.863
20
-144.49
11
116.053
21
-144.395
0
LINE
8
BLACK
6
CONTINUOUS
10
116.053
20
-144.395
11
116.148
21
-144.299
0
LINE
8
BLACK
6
CONTINUOUS
10
116.148
20
-144.299
11
116.244
21
-144.109
0
LINE
8
BLACK
6
CONTINUOUS
10
116.244
20
-144.109
11
116.244
21
-143.633
0
LINE
8
BLACK
6
CONTINUOUS
10
116.244
20
-143.633
11
116.148
21
-143.442
0
LINE
8
BLACK
6
CONTINUOUS
10
116.148
20
-143.442
11
116.053
21
-143.347
0
LINE
8
BLACK
6
CONTINUOUS
10
116.053
20
-143.347
11
115.863
21
-143.252
0
LINE
8
BLACK
6
CONTINUOUS
10
115.863
20
-143.252
11
115.482
21
-143.252
0
LINE
8
BLACK
6
CONTINUOUS
10
115.482
20
-143.252
11
115.291
21
-143.347
0
LINE
8
BLACK
6
CONTINUOUS
10
115.291
20
-143.347
11
115.196
21
-143.442
0
LINE
8
BLACK
6
CONTINUOUS
10
115.196
20
-143.442
11
115.101
21
-143.633
0
LINE
8
BLACK
6
CONTINUOUS
10
118.625
20
-144.49
11
118.625
21
-142.49
0
LINE
8
BLACK
6
CONTINUOUS
10
119.482
20
-144.49
11
119.482
21
-143.442
0
LINE
8
BLACK
6
CONTINUOUS
10
119.482
20
-143.442
11
119.386
21
-143.252
0
LINE
8
BLACK
6
CONTINUOUS
10
119.386
20
-143.252
11
119.196
21
-143.156
0
LINE
8
BLACK
6
CONTINUOUS
10
119.196
20
-143.156
11
118.91
21
-143.156
0
LINE
8
BLACK
6
CONTINUOUS
10
118.91
20
-143.156
11
118.72
21
-143.252
0
LINE
8
BLACK
6
CONTINUOUS
10
118.72
20
-143.252
11
118.625
21
-143.347
0
LINE
8
BLACK
6
CONTINUOUS
10
120.72
20
-144.49
11
120.529
21
-144.395
0
LINE
8
BLACK
6
CONTINUOUS
10
120.529
20
-144.395
11
120.434
21
-144.299
0
LINE
8
BLACK
6
CONTINUOUS
10
120.434
20
-144.299
11
120.339
21
-144.109
0
LINE
8
BLACK
6
CONTINUOUS
10
120.339
20
-144.109
11
120.339
21
-143.537
0
LINE
8
BLACK
6
CONTINUOUS
10
120.339
20
-143.537
11
120.434
21
-143.347
0
LINE
8
BLACK
6
CONTINUOUS
10
120.434
20
-143.347
11
120.529
21
-143.252
0
LINE
8
BLACK
6
CONTINUOUS
10
120.529
20
-143.252
11
120.72
21
-143.156
0
LINE
8
BLACK
6
CONTINUOUS
10
120.72
20
-143.156
11
121.005
21
-143.156
0
LINE
8
BLACK
6
CONTINUOUS
10
121.005
20
-143.156
11
121.196
21
-143.252
0
LINE
8
BLACK
6
CONTINUOUS
10
121.196
20
-143.252
11
121.291
21
-143.347
0
LINE
8
BLACK
6
CONTINUOUS
10
121.291
20
-143.347
11
121.386
21
-143.537
0
LINE
8
BLACK
6
CONTINUOUS
10
121.386
20
-143.537
11
121.386
21
-144.109
0
LINE
8
BLACK
6
CONTINUOUS
10
121.386
20
-144.109
11
121.291
21
-144.299
0
LINE
8
BLACK
6
CONTINUOUS
10
121.291
20
-144.299
11
121.196
21
-144.395
0
LINE
8
BLACK
6
CONTINUOUS
10
121.196
20
-144.395
11
121.005
21
-144.49
0
LINE
8
BLACK
6
CONTINUOUS
10
121.005
20
-144.49
11
120.72
21
-144.49
0
LINE
8
BLACK
6
CONTINUOUS
10
122.529
20
-144.49
11
122.339
21
-144.395
0
LINE
8
BLACK
6
CONTINUOUS
10
122.339
20
-144.395
11
122.244
21
-144.204
0
LINE
8
BLACK
6
CONTINUOUS
10
122.244
20
-144.204
11
122.244
21
-142.49
0
LINE
8
BLACK
6
CONTINUOUS
10
124.053
20
-144.395
11
123.863
21
-144.49
0
LINE
8
BLACK
6
CONTINUOUS
10
123.863
20
-144.49
11
123.482
21
-144.49
0
LINE
8
BLACK
6
CONTINUOUS
10
123.482
20
-144.49
11
123.291
21
-144.395
0
LINE
8
BLACK
6
CONTINUOUS
10
123.291
20
-144.395
11
123.196
21
-144.204
0
LINE
8
BLACK
6
CONTINUOUS
10
123.196
20
-144.204
11
123.196
21
-143.442
0
LINE
8
BLACK
6
CONTINUOUS
10
123.196
20
-143.442
11
123.291
21
-143.252
0
LINE
8
BLACK
6
CONTINUOUS
10
123.291
20
-143.252
11
123.482
21
-143.156
0
LINE
8
BLACK
6
CONTINUOUS
10
123.482
20
-143.156
11
123.863
21
-143.156
0
LINE
8
BLACK
6
CONTINUOUS
10
123.863
20
-143.156
11
124.053
21
-143.252
0
LINE
8
BLACK
6
CONTINUOUS
10
124.053
20
-143.252
11
124.148
21
-143.442
0
LINE
8
BLACK
6
CONTINUOUS
10
124.148
20
-143.442
11
124.148
21
-143.633
0
LINE
8
BLACK
6
CONTINUOUS
10
124.148
20
-143.633
11
123.196
21
-143.823
0
LINE
8
BLACK
6
CONTINUOUS
10
124.91
20
-144.395
11
125.101
21
-144.49
0
LINE
8
BLACK
6
CONTINUOUS
10
125.101
20
-144.49
11
125.482
21
-144.49
0
LINE
8
BLACK
6
CONTINUOUS
10
125.482
20
-144.49
11
125.672
21
-144.395
0
LINE
8
BLACK
6
CONTINUOUS
10
125.672
20
-144.395
11
125.767
21
-144.204
0
LINE
8
BLACK
6
CONTINUOUS
10
125.767
20
-144.204
11
125.767
21
-144.109
0
LINE
8
BLACK
6
CONTINUOUS
10
125.767
20
-144.109
11
125.672
21
-143.918
0
LINE
8
BLACK
6
CONTINUOUS
10
125.672
20
-143.918
11
125.482
21
-143.823
0
LINE
8
BLACK
6
CONTINUOUS
10
125.482
20
-143.823
11
125.196
21
-143.823
0
LINE
8
BLACK
6
CONTINUOUS
10
125.196
20
-143.823
11
125.005
21
-143.728
0
LINE
8
BLACK
6
CONTINUOUS
10
125.005
20
-143.728
11
124.91
21
-143.537
0
LINE
8
BLACK
6
CONTINUOUS
10
124.91
20
-143.537
11
124.91
21
-143.442
0
LINE
8
BLACK
6
CONTINUOUS
10
124.91
20
-143.442
11
125.005
21
-143.252
0
LINE
8
BLACK
6
CONTINUOUS
10
125.005
20
-143.252
11
125.196
21
-143.156
0
LINE
8
BLACK
6
CONTINUOUS
10
125.196
20
-143.156
11
125.482
21
-143.156
0
LINE
8
BLACK
6
CONTINUOUS
10
125.482
20
-143.156
11
125.672
21
-143.252
0
LINE
8
BLACK
6
CONTINUOUS
10
126.434
20
-145.252
11
126.529
21
-145.156
0
LINE
8
BLACK
6
CONTINUOUS
10
126.529
20
-145.156
11
126.72
21
-144.871
0
LINE
8
BLACK
6
CONTINUOUS
10
126.72
20
-144.871
11
126.815
21
-144.68
0
LINE
8
BLACK
6
CONTINUOUS
10
126.815
20
-144.68
11
126.91
21
-144.395
0
LINE
8
BLACK
6
CONTINUOUS
10
126.91
20
-144.395
11
127.005
21
-143.918
0
LINE
8
BLACK
6
CONTINUOUS
10
127.005
20
-143.918
11
127.005
21
-143.537
0
LINE
8
BLACK
6
CONTINUOUS
10
127.005
20
-143.537
11
126.91
21
-143.061
0
LINE
8
BLACK
6
CONTINUOUS
10
126.91
20
-143.061
11
126.815
21
-142.775
0
LINE
8
BLACK
6
CONTINUOUS
10
126.815
20
-142.775
11
126.72
21
-142.585
0
LINE
8
BLACK
6
CONTINUOUS
10
126.72
20
-142.585
11
126.529
21
-142.299
0
LINE
8
BLACK
6
CONTINUOUS
10
126.529
20
-142.299
11
126.434
21
-142.204
0
CIRCLE
8
BLACK
10
78.315
20
-146.225
40
0.4
0
LINE
8
BLACK
6
CONTINUOUS
10
81.6721
20
-145.13
11
81.8626
21
-145.13
0
LINE
8
BLACK
6
CONTINUOUS
10
81.8626
20
-145.13
11
82.0531
21
-145.225
0
LINE
8
BLACK
6
CONTINUOUS
10
82.0531
20
-145.225
11
82.1483
21
-145.32
0
LINE
8
BLACK
6
CONTINUOUS
10
82.1483
20
-145.32
11
82.2436
21
-145.511
0
LINE
8
BLACK
6
CONTINUOUS
10
82.2436
20
-145.511
11
82.3388
21
-145.892
0
LINE
8
BLACK
6
CONTINUOUS
10
82.3388
20
-145.892
11
82.3388
21
-146.368
0
LINE
8
BLACK
6
CONTINUOUS
10
82.3388
20
-146.368
11
82.2436
21
-146.749
0
LINE
8
BLACK
6
CONTINUOUS
10
82.2436
20
-146.749
11
82.1483
21
-146.939
0
LINE
8
BLACK
6
CONTINUOUS
10
82.1483
20
-146.939
11
82.0531
21
-147.035
0
LINE
8
BLACK
6
CONTINUOUS
10
82.0531
20
-147.035
11
81.8626
21
-147.13
0
LINE
8
BLACK
6
CONTINUOUS
10
81.8626
20
-147.13
11
81.6721
21
-147.13
0
LINE
8
BLACK
6
CONTINUOUS
10
81.6721
20
-147.13
11
81.4817
21
-147.035
0
LINE
8
BLACK
6
CONTINUOUS
10
81.4817
20
-147.035
11
81.3864
21
-146.939
0
LINE
8
BLACK
6
CONTINUOUS
10
81.3864
20
-146.939
11
81.2912
21
-146.749
0
LINE
8
BLACK
6
CONTINUOUS
10
81.2912
20
-146.749
11
81.196
21
-146.368
0
LINE
8
BLACK
6
CONTINUOUS
10
81.196
20
-146.368
11
81.196
21
-145.892
0
LINE
8
BLACK
6
CONTINUOUS
10
81.196
20
-145.892
11
81.2912
21
-145.511
0
LINE
8
BLACK
6
CONTINUOUS
10
81.2912
20
-145.511
11
81.3864
21
-145.32
0
LINE
8
BLACK
6
CONTINUOUS
10
81.3864
20
-145.32
11
81.4817
21
-145.225
0
LINE
8
BLACK
6
CONTINUOUS
10
81.4817
20
-145.225
11
81.6721
21
-145.13
0
LINE
8
BLACK
6
CONTINUOUS
10
83.196
20
-146.939
11
83.2912
21
-147.035
0
LINE
8
BLACK
6
CONTINUOUS
10
83.2912
20
-147.035
11
83.196
21
-147.13
0
LINE
8
BLACK
6
CONTINUOUS
10
83.196
20
-147.13
11
83.1007
21
-147.035
0
LINE
8
BLACK
6
CONTINUOUS
10
83.1007
20
-147.035
11
83.196
21
-146.939
0
LINE
8
BLACK
6
CONTINUOUS
10
83.196
20
-146.939
11
83.196
21
-147.13
0
LINE
8
BLACK
6
CONTINUOUS
10
84.434
20
-145.987
11
84.2436
21
-145.892
0
LINE
8
BLACK
6
CONTINUOUS
10
84.2436
20
-145.892
11
84.1483
21
-145.796
0
LINE
8
BLACK
6
CONTINUOUS
10
84.1483
20
-145.796
11
84.0531
21
-145.606
0
LINE
8
BLACK
6
CONTINUOUS
10
84.0531
20
-145.606
11
84.0531
21
-145.511
0
LINE
8
BLACK
6
CONTINUOUS
10
84.0531
20
-145.511
11
84.1483
21
-145.32
0
LINE
8
BLACK
6
CONTINUOUS
10
84.1483
20
-145.32
11
84.2436
21
-145.225
0
LINE
8
BLACK
6
CONTINUOUS
10
84.2436
20
-145.225
11
84.434
21
-145.13
0
LINE
8
BLACK
6
CONTINUOUS
10
84.434
20
-145.13
11
84.815
21
-145.13
0
LINE
8
BLACK
6
CONTINUOUS
10
84.815
20
-145.13
11
85.0055
21
-145.225
0
LINE
8
BLACK
6
CONTINUOUS
10
85.0055
20
-145.225
11
85.1007
21
-145.32
0
LINE
8
BLACK
6
CONTINUOUS
10
85.1007
20
-145.32
11
85.196
21
-145.511
0
LINE
8
BLACK
6
CONTINUOUS
10
85.196
20
-145.511
11
85.196
21
-145.606
0
LINE
8
BLACK
6
CONTINUOUS
10
85.196
20
-145.606
11
85.1007
21
-145.796
0
LINE
8
BLACK
6
CONTINUOUS
10
85.1007
20
-145.796
11
85.0055
21
-145.892
0
LINE
8
BLACK
6
CONTINUOUS
10
85.0055
20
-145.892
11
84.815
21
-145.987
0
LINE
8
BLACK
6
CONTINUOUS
10
84.815
20
-145.987
11
84.434
21
-145.987
0
LINE
8
BLACK
6
CONTINUOUS
10
84.434
20
-145.987
11
84.2436
21
-146.082
0
LINE
8
BLACK
6
CONTINUOUS
10
84.2436
20
-146.082
11
84.1483
21
-146.177
0
LINE
8
BLACK
6
CONTINUOUS
10
84.1483
20
-146.177
11
84.0531
21
-146.368
0
LINE
8
BLACK
6
CONTINUOUS
10
84.0531
20
-146.368
11
84.0531
21
-146.749
0
LINE
8
BLACK
6
CONTINUOUS
10
84.0531
20
-146.749
11
84.1483
21
-146.939
0
LINE
8
BLACK
6
CONTINUOUS
10
84.1483
20
-146.939
11
84.2436
21
-147.035
0
LINE
8
BLACK
6
CONTINUOUS
10
84.2436
20
-147.035
11
84.434
21
-147.13
0
LINE
8
BLACK
6
CONTINUOUS
10
84.434
20
-147.13
11
84.815
21
-147.13
0
LINE
8
BLACK
6
CONTINUOUS
10
84.815
20
-147.13
11
85.0055
21
-147.035
0
LINE
8
BLACK
6
CONTINUOUS
10
85.0055
20
-147.035
11
85.1007
21
-146.939
0
LINE
8
BLACK
6
CONTINUOUS
10
85.1007
20
-146.939
11
85.196
21
-146.749
0
LINE
8
BLACK
6
CONTINUOUS
10
85.196
20
-146.749
11
85.196
21
-146.368
0
LINE
8
BLACK
6
CONTINUOUS
10
85.196
20
-146.368
11
85.1007
21
-146.177
0
LINE
8
BLACK
6
CONTINUOUS
10
85.1007
20
-146.177
11
85.0055
21
-146.082
0
LINE
8
BLACK
6
CONTINUOUS
10
85.0055
20
-146.082
11
84.815
21
-145.987
0
LINE
8
BLACK
6
CONTINUOUS
10
86.434
20
-145.13
11
86.6245
21
-145.13
0
LINE
8
BLACK
6
CONTINUOUS
10
86.6245
20
-145.13
11
86.815
21
-145.225
0
LINE
8
BLACK
6
CONTINUOUS
10
86.815
20
-145.225
11
86.9102
21
-145.32
0
LINE
8
BLACK
6
CONTINUOUS
10
86.9102
20
-145.32
11
87.0055
21
-145.511
0
LINE
8
BLACK
6
CONTINUOUS
10
87.0055
20
-145.511
11
87.1007
21
-145.892
0
LINE
8
BLACK
6
CONTINUOUS
10
87.1007
20
-145.892
11
87.1007
21
-146.368
0
LINE
8
BLACK
6
CONTINUOUS
10
87.1007
20
-146.368
11
87.0055
21
-146.749
0
LINE
8
BLACK
6
CONTINUOUS
10
87.0055
20
-146.749
11
86.9102
21
-146.939
0
LINE
8
BLACK
6
CONTINUOUS
10
86.9102
20
-146.939
11
86.815
21
-147.035
0
LINE
8
BLACK
6
CONTINUOUS
10
86.815
20
-147.035
11
86.6245
21
-147.13
0
LINE
8
BLACK
6
CONTINUOUS
10
86.6245
20
-147.13
11
86.434
21
-147.13
0
LINE
8
BLACK
6
CONTINUOUS
10
86.434
20
-147.13
11
86.2436
21
-147.035
0
LINE
8
BLACK
6
CONTINUOUS
10
86.2436
20
-147.035
11
86.1483
21
-146.939
0
LINE
8
BLACK
6
CONTINUOUS
10
86.1483
20
-146.939
11
86.0531
21
-146.749
0
LINE
8
BLACK
6
CONTINUOUS
10
86.0531
20
-146.749
11
85.9579
21
-146.368
0
LINE
8
BLACK
6
CONTINUOUS
10
85.9579
20
-146.368
11
85.9579
21
-145.892
0
LINE
8
BLACK
6
CONTINUOUS
10
85.9579
20
-145.892
11
86.0531
21
-145.511
0
LINE
8
BLACK
6
CONTINUOUS
10
86.0531
20
-145.511
11
86.1483
21
-145.32
0
LINE
8
BLACK
6
CONTINUOUS
10
86.1483
20
-145.32
11
86.2436
21
-145.225
0
LINE
8
BLACK
6
CONTINUOUS
10
86.2436
20
-145.225
11
86.434
21
-145.13
0
LINE
8
BLACK
6
CONTINUOUS
10
88.3388
20
-145.13
11
88.5293
21
-145.13
0
LINE
8
BLACK
6
CONTINUOUS
10
88.5293
20
-145.13
11
88.7198
21
-145.225
0
LINE
8
BLACK
6
CONTINUOUS
10
88.7198
20
-145.225
11
88.815
21
-145.32
0
LINE
8
BLACK
6
CONTINUOUS
10
88.815
20
-145.32
11
88.9102
21
-145.511
0
LINE
8
BLACK
6
CONTINUOUS
10
88.9102
20
-145.511
11
89.0055
21
-145.892
0
LINE
8
BLACK
6
CONTINUOUS
10
89.0055
20
-145.892
11
89.0055
21
-146.368
0
LINE
8
BLACK
6
CONTINUOUS
10
89.0055
20
-146.368
11
88.9102
21
-146.749
0
LINE
8
BLACK
6
CONTINUOUS
10
88.9102
20
-146.749
11
88.815
21
-146.939
0
LINE
8
BLACK
6
CONTINUOUS
10
88.815
20
-146.939
11
88.7198
21
-147.035
0
LINE
8
BLACK
6
CONTINUOUS
10
88.7198
20
-147.035
11
88.5293
21
-147.13
0
LINE
8
BLACK
6
CONTINUOUS
10
88.5293
20
-147.13
11
88.3388
21
-147.13
0
LINE
8
BLACK
6
CONTINUOUS
10
88.3388
20
-147.13
11
88.1483
21
-147.035
0
LINE
8
BLACK
6
CONTINUOUS
10
88.1483
20
-147.035
11
88.0531
21
-146.939
0
LINE
8
BLACK
6
CONTINUOUS
10
88.0531
20
-146.939
11
87.9579
21
-146.749
0
LINE
8
BLACK
6
CONTINUOUS
10
87.9579
20
-146.749
11
87.8626
21
-146.368
0
LINE
8
BLACK
6
CONTINUOUS
10
87.8626
20
-146.368
11
87.8626
21
-145.892
0
LINE
8
BLACK
6
CONTINUOUS
10
87.8626
20
-145.892
11
87.9579
21
-145.511
0
LINE
8
BLACK
6
CONTINUOUS
10
87.9579
20
-145.511
11
88.0531
21
-145.32
0
LINE
8
BLACK
6
CONTINUOUS
10
88.0531
20
-145.32
11
88.1483
21
-145.225
0
LINE
8
BLACK
6
CONTINUOUS
10
88.1483
20
-145.225
11
88.3388
21
-145.13
0
LINE
8
BLACK
6
CONTINUOUS
10
89.8626
20
-147.13
11
89.8626
21
-145.796
0
LINE
8
BLACK
6
CONTINUOUS
10
89.8626
20
-145.987
11
89.9579
21
-145.892
0
LINE
8
BLACK
6
CONTINUOUS
10
89.9579
20
-145.892
11
90.1483
21
-145.796
0
LINE
8
BLACK
6
CONTINUOUS
10
90.1483
20
-145.796
11
90.434
21
-145.796
0
LINE
8
BLACK
6
CONTINUOUS
10
90.434
20
-145.796
11
90.6245
21
-145.892
0
LINE
8
BLACK
6
CONTINUOUS
10
90.6245
20
-145.892
11
90.7198
21
-146.082
0
LINE
8
BLACK
6
CONTINUOUS
10
90.7198
20
-146.082
11
90.7198
21
-147.13
0
LINE
8
BLACK
6
CONTINUOUS
10
90.7198
20
-146.082
11
90.815
21
-145.892
0
LINE
8
BLACK
6
CONTINUOUS
10
90.815
20
-145.892
11
91.0055
21
-145.796
0
LINE
8
BLACK
6
CONTINUOUS
10
91.0055
20
-145.796
11
91.2912
21
-145.796
0
LINE
8
BLACK
6
CONTINUOUS
10
91.2912
20
-145.796
11
91.4817
21
-145.892
0
LINE
8
BLACK
6
CONTINUOUS
10
91.4817
20
-145.892
11
91.5769
21
-146.082
0
LINE
8
BLACK
6
CONTINUOUS
10
91.5769
20
-146.082
11
91.5769
21
-147.13
0
LINE
8
BLACK
6
CONTINUOUS
10
92.5293
20
-147.13
11
92.5293
21
-145.796
0
LINE
8
BLACK
6
CONTINUOUS
10
92.5293
20
-145.987
11
92.6245
21
-145.892
0
LINE
8
BLACK
6
CONTINUOUS
10
92.6245
20
-145.892
11
92.815
21
-145.796
0
LINE
8
BLACK
6
CONTINUOUS
10
92.815
20
-145.796
11
93.1007
21
-145.796
0
LINE
8
BLACK
6
CONTINUOUS
10
93.1007
20
-145.796
11
93.2912
21
-145.892
0
LINE
8
BLACK
6
CONTINUOUS
10
93.2912
20
-145.892
11
93.3864
21
-146.082
0
LINE
8
BLACK
6
CONTINUOUS
10
93.3864
20
-146.082
11
93.3864
21
-147.13
0
LINE
8
BLACK
6
CONTINUOUS
10
93.3864
20
-146.082
11
93.4817
21
-145.892
0
LINE
8
BLACK
6
CONTINUOUS
10
93.4817
20
-145.892
11
93.6721
21
-145.796
0
LINE
8
BLACK
6
CONTINUOUS
10
93.6721
20
-145.796
11
93.9579
21
-145.796
0
LINE
8
BLACK
6
CONTINUOUS
10
93.9579
20
-145.796
11
94.1483
21
-145.892
0
LINE
8
BLACK
6
CONTINUOUS
10
94.1483
20
-145.892
11
94.2436
21
-146.082
0
LINE
8
BLACK
6
CONTINUOUS
10
94.2436
20
-146.082
11
94.2436
21
-147.13
0
LINE
8
BLACK
6
CONTINUOUS
10
98.1483
20
-145.035
11
96.434
21
-147.606
0
LINE
8
BLACK
6
CONTINUOUS
10
100.72
20
-145.13
11
100.91
21
-145.13
0
LINE
8
BLACK
6
CONTINUOUS
10
100.91
20
-145.13
11
101.101
21
-145.225
0
LINE
8
BLACK
6
CONTINUOUS
10
101.101
20
-145.225
11
101.196
21
-145.32
0
LINE
8
BLACK
6
CONTINUOUS
10
101.196
20
-145.32
11
101.291
21
-145.511
0
LINE
8
BLACK
6
CONTINUOUS
10
101.291
20
-145.511
11
101.386
21
-145.892
0
LINE
8
BLACK
6
CONTINUOUS
10
101.386
20
-145.892
11
101.386
21
-146.368
0
LINE
8
BLACK
6
CONTINUOUS
10
101.386
20
-146.368
11
101.291
21
-146.749
0
LINE
8
BLACK
6
CONTINUOUS
10
101.291
20
-146.749
11
101.196
21
-146.939
0
LINE
8
BLACK
6
CONTINUOUS
10
101.196
20
-146.939
11
101.101
21
-147.035
0
LINE
8
BLACK
6
CONTINUOUS
10
101.101
20
-147.035
11
100.91
21
-147.13
0
LINE
8
BLACK
6
CONTINUOUS
10
100.91
20
-147.13
11
100.72
21
-147.13
0
LINE
8
BLACK
6
CONTINUOUS
10
100.72
20
-147.13
11
100.529
21
-147.035
0
LINE
8
BLACK
6
CONTINUOUS
10
100.529
20
-147.035
11
100.434
21
-146.939
0
LINE
8
BLACK
6
CONTINUOUS
10
100.434
20
-146.939
11
100.339
21
-146.749
0
LINE
8
BLACK
6
CONTINUOUS
10
100.339
20
-146.749
11
100.244
21
-146.368
0
LINE
8
BLACK
6
CONTINUOUS
10
100.244
20
-146.368
11
100.244
21
-145.892
0
LINE
8
BLACK
6
CONTINUOUS
10
100.244
20
-145.892
11
100.339
21
-145.511
0
LINE
8
BLACK
6
CONTINUOUS
10
100.339
20
-145.511
11
100.434
21
-145.32
0
LINE
8
BLACK
6
CONTINUOUS
10
100.434
20
-145.32
11
100.529
21
-145.225
0
LINE
8
BLACK
6
CONTINUOUS
10
100.529
20
-145.225
11
100.72
21
-145.13
0
LINE
8
BLACK
6
CONTINUOUS
10
102.244
20
-146.939
11
102.339
21
-147.035
0
LINE
8
BLACK
6
CONTINUOUS
10
102.339
20
-147.035
11
102.244
21
-147.13
0
LINE
8
BLACK
6
CONTINUOUS
10
102.244
20
-147.13
11
102.148
21
-147.035
0
LINE
8
BLACK
6
CONTINUOUS
10
102.148
20
-147.035
11
102.244
21
-146.939
0
LINE
8
BLACK
6
CONTINUOUS
10
102.244
20
-146.939
11
102.244
21
-147.13
0
LINE
8
BLACK
6
CONTINUOUS
10
103.577
20
-145.13
11
103.767
21
-145.13
0
LINE
8
BLACK
6
CONTINUOUS
10
103.767
20
-145.13
11
103.958
21
-145.225
0
LINE
8
BLACK
6
CONTINUOUS
10
103.958
20
-145.225
11
104.053
21
-145.32
0
LINE
8
BLACK
6
CONTINUOUS
10
104.053
20
-145.32
11
104.148
21
-145.511
0
LINE
8
BLACK
6
CONTINUOUS
10
104.148
20
-145.511
11
104.244
21
-145.892
0
LINE
8
BLACK
6
CONTINUOUS
10
104.244
20
-145.892
11
104.244
21
-146.368
0
LINE
8
BLACK
6
CONTINUOUS
10
104.244
20
-146.368
11
104.148
21
-146.749
0
LINE
8
BLACK
6
CONTINUOUS
10
104.148
20
-146.749
11
104.053
21
-146.939
0
LINE
8
BLACK
6
CONTINUOUS
10
104.053
20
-146.939
11
103.958
21
-147.035
0
LINE
8
BLACK
6
CONTINUOUS
10
103.958
20
-147.035
11
103.767
21
-147.13
0
LINE
8
BLACK
6
CONTINUOUS
10
103.767
20
-147.13
11
103.577
21
-147.13
0
LINE
8
BLACK
6
CONTINUOUS
10
103.577
20
-147.13
11
103.386
21
-147.035
0
LINE
8
BLACK
6
CONTINUOUS
10
103.386
20
-147.035
11
103.291
21
-146.939
0
LINE
8
BLACK
6
CONTINUOUS
10
103.291
20
-146.939
11
103.196
21
-146.749
0
LINE
8
BLACK
6
CONTINUOUS
10
103.196
20
-146.749
11
103.101
21
-146.368
0
LINE
8
BLACK
6
CONTINUOUS
10
103.101
20
-146.368
11
103.101
21
-145.892
0
LINE
8
BLACK
6
CONTINUOUS
10
103.101
20
-145.892
11
103.196
21
-145.511
0
LINE
8
BLACK
6
CONTINUOUS
10
103.196
20
-145.511
11
103.291
21
-145.32
0
LINE
8
BLACK
6
CONTINUOUS
10
103.291
20
-145.32
11
103.386
21
-145.225
0
LINE
8
BLACK
6
CONTINUOUS
10
103.386
20
-145.225
11
103.577
21
-145.13
0
LINE
8
BLACK
6
CONTINUOUS
10
104.91
20
-145.13
11
106.148
21
-145.13
0
LINE
8
BLACK
6
CONTINUOUS
10
106.148
20
-145.13
11
105.482
21
-145.892
0
LINE
8
BLACK
6
CONTINUOUS
10
105.482
20
-145.892
11
105.767
21
-145.892
0
LINE
8
BLACK
6
CONTINUOUS
10
105.767
20
-145.892
11
105.958
21
-145.987
0
LINE
8
BLACK
6
CONTINUOUS
10
105.958
20
-145.987
11
106.053
21
-146.082
0
LINE
8
BLACK
6
CONTINUOUS
10
106.053
20
-146.082
11
106.148
21
-146.273
0
LINE
8
BLACK
6
CONTINUOUS
10
106.148
20
-146.273
11
106.148
21
-146.749
0
LINE
8
BLACK
6
CONTINUOUS
10
106.148
20
-146.749
11
106.053
21
-146.939
0
LINE
8
BLACK
6
CONTINUOUS
10
106.053
20
-146.939
11
105.958
21
-147.035
0
LINE
8
BLACK
6
CONTINUOUS
10
105.958
20
-147.035
11
105.767
21
-147.13
0
LINE
8
BLACK
6
CONTINUOUS
10
105.767
20
-147.13
11
105.196
21
-147.13
0
LINE
8
BLACK
6
CONTINUOUS
10
105.196
20
-147.13
11
105.005
21
-147.035
0
LINE
8
BLACK
6
CONTINUOUS
10
105.005
20
-147.035
11
104.91
21
-146.939
0
LINE
8
BLACK
6
CONTINUOUS
10
108.053
20
-147.13
11
106.91
21
-147.13
0
LINE
8
BLACK
6
CONTINUOUS
10
107.482
20
-147.13
11
107.482
21
-145.13
0
LINE
8
BLACK
6
CONTINUOUS
10
107.482
20
-145.13
11
107.291
21
-145.415
0
LINE
8
BLACK
6
CONTINUOUS
10
107.291
20
-145.415
11
107.101
21
-145.606
0
LINE
8
BLACK
6
CONTINUOUS
10
107.101
20
-145.606
11
106.91
21
-145.701
0
LINE
8
BLACK
6
CONTINUOUS
10
109.863
20
-145.13
11
108.91
21
-145.13
0
LINE
8
BLACK
6
CONTINUOUS
10
108.91
20
-145.13
11
108.815
21
-146.082
0
LINE
8
BLACK
6
CONTINUOUS
10
108.815
20
-146.082
11
108.91
21
-145.987
0
LINE
8
BLACK
6
CONTINUOUS
10
108.91
20
-145.987
11
109.101
21
-145.892
0
LINE
8
BLACK
6
CONTINUOUS
10
109.101
20
-145.892
11
109.577
21
-145.892
0
LINE
8
BLACK
6
CONTINUOUS
10
109.577
20
-145.892
11
109.767
21
-145.987
0
LINE
8
BLACK
6
CONTINUOUS
10
109.767
20
-145.987
11
109.863
21
-146.082
0
LINE
8
BLACK
6
CONTINUOUS
10
109.863
20
-146.082
11
109.958
21
-146.273
0
LINE
8
BLACK
6
CONTINUOUS
10
109.958
20
-146.273
11
109.958
21
-146.749
0
LINE
8
BLACK
6
CONTINUOUS
10
109.958
20
-146.749
11
109.863
21
-146.939
0
LINE
8
BLACK
6
CONTINUOUS
10
109.863
20
-146.939
11
109.767
21
-147.035
0
LINE
8
BLACK
6
CONTINUOUS
10
109.767
20
-147.035
11
109.577
21
-147.13
0
LINE
8
BLACK
6
CONTINUOUS
10
109.577
20
-147.13
11
109.101
21
-147.13
0
LINE
8
BLACK
6
CONTINUOUS
10
109.101
20
-147.13
11
108.91
21
-147.035
0
LINE
8
BLACK
6
CONTINUOUS
10
108.91
20
-147.035
11
108.815
21
-146.939
0
LINE
8
BLACK
6
CONTINUOUS
10
110.72
20
-145.13
11
110.72
21
-145.511
0
LINE
8
BLACK
6
CONTINUOUS
10
111.482
20
-145.13
11
111.482
21
-145.511
0
LINE
8
BLACK
6
CONTINUOUS
10
114.434
20
-147.892
11
114.339
21
-147.796
0
LINE
8
BLACK
6
CONTINUOUS
10
114.339
20
-147.796
11
114.148
21
-147.511
0
LINE
8
BLACK
6
CONTINUOUS
10
114.148
20
-147.511
11
114.053
21
-147.32
0
LINE
8
BLACK
6
CONTINUOUS
10
114.053
20
-147.32
11
113.958
21
-147.035
0
LINE
8
BLACK
6
CONTINUOUS
10
113.958
20
-147.035
11
113.863
21
-146.558
0
LINE
8
BLACK
6
CONTINUOUS
10
113.863
20
-146.558
11
113.863
21
-146.177
0
LINE
8
BLACK
6
CONTINUOUS
10
113.863
20
-146.177
11
113.958
21
-145.701
0
LINE
8
BLACK
6
CONTINUOUS
10
113.958
20
-145.701
11
114.053
21
-145.415
0
LINE
8
BLACK
6
CONTINUOUS
10
114.053
20
-145.415
11
114.148
21
-145.225
0
LINE
8
BLACK
6
CONTINUOUS
10
114.148
20
-145.225
11
114.339
21
-144.939
0
LINE
8
BLACK
6
CONTINUOUS
10
114.339
20
-144.939
11
114.434
21
-144.844
0
LINE
8
BLACK
6
CONTINUOUS
10
116.053
20
-145.796
11
116.053
21
-147.13
0
LINE
8
BLACK
6
CONTINUOUS
10
115.577
20
-145.035
11
115.101
21
-146.463
0
LINE
8
BLACK
6
CONTINUOUS
10
115.101
20
-146.463
11
116.339
21
-146.463
0
LINE
8
BLACK
6
CONTINUOUS
10
118.625
20
-147.13
11
118.625
21
-145.13
0
LINE
8
BLACK
6
CONTINUOUS
10
119.482
20
-147.13
11
119.482
21
-146.082
0
LINE
8
BLACK
6
CONTINUOUS
10
119.482
20
-146.082
11
119.386
21
-145.892
0
LINE
8
BLACK
6
CONTINUOUS
10
119.386
20
-145.892
11
119.196
21
-145.796
0
LINE
8
BLACK
6
CONTINUOUS
10
119.196
20
-145.796
11
118.91
21
-145.796
0
LINE
8
BLACK
6
CONTINUOUS
10
118.91
20
-145.796
11
118.72
21
-145.892
0
LINE
8
BLACK
6
CONTINUOUS
10
118.72
20
-145.892
11
118.625
21
-145.987
0
LINE
8
BLACK
6
CONTINUOUS
10
120.72
20
-147.13
11
120.529
21
-147.035
0
LINE
8
BLACK
6
CONTINUOUS
10
120.529
20
-147.035
11
120.434
21
-146.939
0
LINE
8
BLACK
6
CONTINUOUS
10
120.434
20
-146.939
11
120.339
21
-146.749
0
LINE
8
BLACK
6
CONTINUOUS
10
120.339
20
-146.749
11
120.339
21
-146.177
0
LINE
8
BLACK
6
CONTINUOUS
10
120.339
20
-146.177
11
120.434
21
-145.987
0
LINE
8
BLACK
6
CONTINUOUS
10
120.434
20
-145.987
11
120.529
21
-145.892
0
LINE
8
BLACK
6
CONTINUOUS
10
120.529
20
-145.892
11
120.72
21
-145.796
0
LINE
8
BLACK
6
CONTINUOUS
10
120.72
20
-145.796
11
121.005
21
-145.796
0
LINE
8
BLACK
6
CONTINUOUS
10
121.005
20
-145.796
11
121.196
21
-145.892
0
LINE
8
BLACK
6
CONTINUOUS
10
121.196
20
-145.892
11
121.291
21
-145.987
0
LINE
8
BLACK
6
CONTINUOUS
10
121.291
20
-145.987
11
121.386
21
-146.177
0
LINE
8
BLACK
6
CONTINUOUS
10
121.386
20
-146.177
11
121.386
21
-146.749
0
LINE
8
BLACK
6
CONTINUOUS
10
121.386
20
-146.749
11
121.291
21
-146.939
0
LINE
8
BLACK
6
CONTINUOUS
10
121.291
20
-146.939
11
121.196
21
-147.035
0
LINE
8
BLACK
6
CONTINUOUS
10
121.196
20
-147.035
11
121.005
21
-147.13
0
LINE
8
BLACK
6
CONTINUOUS
10
121.005
20
-147.13
11
120.72
21
-147.13
0
LINE
8
BLACK
6
CONTINUOUS
10
122.529
20
-147.13
11
122.339
21
-147.035
0
LINE
8
BLACK
6
CONTINUOUS
10
122.339
20
-147.035
11
122.244
21
-146.844
0
LINE
8
BLACK
6
CONTINUOUS
10
122.244
20
-146.844
11
122.244
21
-145.13
0
LINE
8
BLACK
6
CONTINUOUS
10
124.053
20
-147.035
11
123.863
21
-147.13
0
LINE
8
BLACK
6
CONTINUOUS
10
123.863
20
-147.13
11
123.482
21
-147.13
0
LINE
8
BLACK
6
CONTINUOUS
10
123.482
20
-147.13
11
123.291
21
-147.035
0
LINE
8
BLACK
6
CONTINUOUS
10
123.291
20
-147.035
11
123.196
21
-146.844
0
LINE
8
BLACK
6
CONTINUOUS
10
123.196
20
-146.844
11
123.196
21
-146.082
0
LINE
8
BLACK
6
CONTINUOUS
10
123.196
20
-146.082
11
123.291
21
-145.892
0
LINE
8
BLACK
6
CONTINUOUS
10
123.291
20
-145.892
11
123.482
21
-145.796
0
LINE
8
BLACK
6
CONTINUOUS
10
123.482
20
-145.796
11
123.863
21
-145.796
0
LINE
8
BLACK
6
CONTINUOUS
10
123.863
20
-145.796
11
124.053
21
-145.892
0
LINE
8
BLACK
6
CONTINUOUS
10
124.053
20
-145.892
11
124.148
21
-146.082
0
LINE
8
BLACK
6
CONTINUOUS
10
124.148
20
-146.082
11
124.148
21
-146.273
0
LINE
8
BLACK
6
CONTINUOUS
10
124.148
20
-146.273
11
123.196
21
-146.463
0
LINE
8
BLACK
6
CONTINUOUS
10
124.91
20
-147.035
11
125.101
21
-147.13
0
LINE
8
BLACK
6
CONTINUOUS
10
125.101
20
-147.13
11
125.482
21
-147.13
0
LINE
8
BLACK
6
CONTINUOUS
10
125.482
20
-147.13
11
125.672
21
-147.035
0
LINE
8
BLACK
6
CONTINUOUS
10
125.672
20
-147.035
11
125.767
21
-146.844
0
LINE
8
BLACK
6
CONTINUOUS
10
125.767
20
-146.844
11
125.767
21
-146.749
0
LINE
8
BLACK
6
CONTINUOUS
10
125.767
20
-146.749
11
125.672
21
-146.558
0
LINE
8
BLACK
6
CONTINUOUS
10
125.672
20
-146.558
11
125.482
21
-146.463
0
LINE
8
BLACK
6
CONTINUOUS
10
125.482
20
-146.463
11
125.196
21
-146.463
0
LINE
8
BLACK
6
CONTINUOUS
10
125.196
20
-146.463
11
125.005
21
-146.368
0
LINE
8
BLACK
6
CONTINUOUS
10
125.005
20
-146.368
11
124.91
21
-146.177
0
LINE
8
BLACK
6
CONTINUOUS
10
124.91
20
-146.177
11
124.91
21
-146.082
0
LINE
8
BLACK
6
CONTINUOUS
10
124.91
20
-146.082
11
125.005
21
-145.892
0
LINE
8
BLACK
6
CONTINUOUS
10
125.005
20
-145.892
11
125.196
21
-145.796
0
LINE
8
BLACK
6
CONTINUOUS
10
125.196
20
-145.796
11
125.482
21
-145.796
0
LINE
8
BLACK
6
CONTINUOUS
10
125.482
20
-145.796
11
125.672
21
-145.892
0
LINE
8
BLACK
6
CONTINUOUS
10
126.434
20
-147.892
11
126.529
21
-147.796
0
LINE
8
BLACK
6
CONTINUOUS
10
126.529
20
-147.796
11
126.72
21
-147.511
0
LINE
8
BLACK
6
CONTINUOUS
10
126.72
20
-147.511
11
126.815
21
-147.32
0
LINE
8
BLACK
6
CONTINUOUS
10
126.815
20
-147.32
11
126.91
21
-147.035
0
LINE
8
BLACK
6
CONTINUOUS
10
126.91
20
-147.035
11
127.005
21
-146.558
0
LINE
8
BLACK
6
CONTINUOUS
10
127.005
20
-146.558
11
127.005
21
-146.177
0
LINE
8
BLACK
6
CONTINUOUS
10
127.005
20
-146.177
11
126.91
21
-145.701
0
LINE
8
BLACK
6
CONTINUOUS
10
126.91
20
-145.701
11
126.815
21
-145.415
0
LINE
8
BLACK
6
CONTINUOUS
10
126.815
20
-145.415
11
126.72
21
-145.225
0
LINE
8
BLACK
6
CONTINUOUS
10
126.72
20
-145.225
11
126.529
21
-144.939
0
LINE
8
BLACK
6
CONTINUOUS
10
126.529
20
-144.939
11
126.434
21
-144.844
0
LINE
8
BLACK
6
CONTINUOUS
10
78.165
20
-148.315
11
78.165
21
-149.415
0
LINE
8
BLACK
6
CONTINUOUS
10
77.615
20
-148.865
11
78.715
21
-148.865
0
LINE
8
BLACK
6
CONTINUOUS
10
82.3388
20
-149.77
11
81.196
21
-149.77
0
LINE
8
BLACK
6
CONTINUOUS
10
81.7674
20
-149.77
11
81.7674
21
-147.77
0
LINE
8
BLACK
6
CONTINUOUS
10
81.7674
20
-147.77
11
81.5769
21
-148.055
0
LINE
8
BLACK
6
CONTINUOUS
10
81.5769
20
-148.055
11
81.3864
21
-148.246
0
LINE
8
BLACK
6
CONTINUOUS
10
81.3864
20
-148.246
11
81.196
21
-148.341
0
LINE
8
BLACK
6
CONTINUOUS
10
83.196
20
-149.579
11
83.2912
21
-149.675
0
LINE
8
BLACK
6
CONTINUOUS
10
83.2912
20
-149.675
11
83.196
21
-149.77
0
LINE
8
BLACK
6
CONTINUOUS
10
83.196
20
-149.77
11
83.1007
21
-149.675
0
LINE
8
BLACK
6
CONTINUOUS
10
83.1007
20
-149.675
11
83.196
21
-149.579
0
LINE
8
BLACK
6
CONTINUOUS
10
83.196
20
-149.579
11
83.196
21
-149.77
0
LINE
8
BLACK
6
CONTINUOUS
10
85.196
20
-149.77
11
84.0531
21
-149.77
0
LINE
8
BLACK
6
CONTINUOUS
10
84.6245
20
-149.77
11
84.6245
21
-147.77
0
LINE
8
BLACK
6
CONTINUOUS
10
84.6245
20
-147.77
11
84.434
21
-148.055
0
LINE
8
BLACK
6
CONTINUOUS
10
84.434
20
-148.055
11
84.2436
21
-148.246
0
LINE
8
BLACK
6
CONTINUOUS
10
84.2436
20
-148.246
11
84.0531
21
-148.341
0
LINE
8
BLACK
6
CONTINUOUS
10
86.434
20
-147.77
11
86.6245
21
-147.77
0
LINE
8
BLACK
6
CONTINUOUS
10
86.6245
20
-147.77
11
86.815
21
-147.865
0
LINE
8
BLACK
6
CONTINUOUS
10
86.815
20
-147.865
11
86.9102
21
-147.96
0
LINE
8
BLACK
6
CONTINUOUS
10
86.9102
20
-147.96
11
87.0055
21
-148.151
0
LINE
8
BLACK
6
CONTINUOUS
10
87.0055
20
-148.151
11
87.1007
21
-148.532
0
LINE
8
BLACK
6
CONTINUOUS
10
87.1007
20
-148.532
11
87.1007
21
-149.008
0
LINE
8
BLACK
6
CONTINUOUS
10
87.1007
20
-149.008
11
87.0055
21
-149.389
0
LINE
8
BLACK
6
CONTINUOUS
10
87.0055
20
-149.389
11
86.9102
21
-149.579
0
LINE
8
BLACK
6
CONTINUOUS
10
86.9102
20
-149.579
11
86.815
21
-149.675
0
LINE
8
BLACK
6
CONTINUOUS
10
86.815
20
-149.675
11
86.6245
21
-149.77
0
LINE
8
BLACK
6
CONTINUOUS
10
86.6245
20
-149.77
11
86.434
21
-149.77
0
LINE
8
BLACK
6
CONTINUOUS
10
86.434
20
-149.77
11
86.2436
21
-149.675
0
LINE
8
BLACK
6
CONTINUOUS
10
86.2436
20
-149.675
11
86.1483
21
-149.579
0
LINE
8
BLACK
6
CONTINUOUS
10
86.1483
20
-149.579
11
86.0531
21
-149.389
0
LINE
8
BLACK
6
CONTINUOUS
10
86.0531
20
-149.389
11
85.9579
21
-149.008
0
LINE
8
BLACK
6
CONTINUOUS
10
85.9579
20
-149.008
11
85.9579
21
-148.532
0
LINE
8
BLACK
6
CONTINUOUS
10
85.9579
20
-148.532
11
86.0531
21
-148.151
0
LINE
8
BLACK
6
CONTINUOUS
10
86.0531
20
-148.151
11
86.1483
21
-147.96
0
LINE
8
BLACK
6
CONTINUOUS
10
86.1483
20
-147.96
11
86.2436
21
-147.865
0
LINE
8
BLACK
6
CONTINUOUS
10
86.2436
20
-147.865
11
86.434
21
-147.77
0
LINE
8
BLACK
6
CONTINUOUS
10
88.3388
20
-147.77
11
88.5293
21
-147.77
0
LINE
8
BLACK
6
CONTINUOUS
10
88.5293
20
-147.77
11
88.7198
21
-147.865
0
LINE
8
BLACK
6
CONTINUOUS
10
88.7198
20
-147.865
11
88.815
21
-147.96
0
LINE
8
BLACK
6
CONTINUOUS
10
88.815
20
-147.96
11
88.9102
21
-148.151
0
LINE
8
BLACK
6
CONTINUOUS
10
88.9102
20
-148.151
11
89.0055
21
-148.532
0
LINE
8
BLACK
6
CONTINUOUS
10
89.0055
20
-148.532
11
89.0055
21
-149.008
0
LINE
8
BLACK
6
CONTINUOUS
10
89.0055
20
-149.008
11
88.9102
21
-149.389
0
LINE
8
BLACK
6
CONTINUOUS
10
88.9102
20
-149.389
11
88.815
21
-149.579
0
LINE
8
BLACK
6
CONTINUOUS
10
88.815
20
-149.579
11
88.7198
21
-149.675
0
LINE
8
BLACK
6
CONTINUOUS
10
88.7198
20
-149.675
11
88.5293
21
-149.77
0
LINE
8
BLACK
6
CONTINUOUS
10
88.5293
20
-149.77
11
88.3388
21
-149.77
0
LINE
8
BLACK
6
CONTINUOUS
10
88.3388
20
-149.77
11
88.1483
21
-149.675
0
LINE
8
BLACK
6
CONTINUOUS
10
88.1483
20
-149.675
11
88.0531
21
-149.579
0
LINE
8
BLACK
6
CONTINUOUS
10
88.0531
20
-149.579
11
87.9579
21
-149.389
0
LINE
8
BLACK
6
CONTINUOUS
10
87.9579
20
-149.389
11
87.8626
21
-149.008
0
LINE
8
BLACK
6
CONTINUOUS
10
87.8626
20
-149.008
11
87.8626
21
-148.532
0
LINE
8
BLACK
6
CONTINUOUS
10
87.8626
20
-148.532
11
87.9579
21
-148.151
0
LINE
8
BLACK
6
CONTINUOUS
10
87.9579
20
-148.151
11
88.0531
21
-147.96
0
LINE
8
BLACK
6
CONTINUOUS
10
88.0531
20
-147.96
11
88.1483
21
-147.865
0
LINE
8
BLACK
6
CONTINUOUS
10
88.1483
20
-147.865
11
88.3388
21
-147.77
0
LINE
8
BLACK
6
CONTINUOUS
10
89.8626
20
-149.77
11
89.8626
21
-148.436
0
LINE
8
BLACK
6
CONTINUOUS
10
89.8626
20
-148.627
11
89.9579
21
-148.532
0
LINE
8
BLACK
6
CONTINUOUS
10
89.9579
20
-148.532
11
90.1483
21
-148.436
0
LINE
8
BLACK
6
CONTINUOUS
10
90.1483
20
-148.436
11
90.434
21
-148.436
0
LINE
8
BLACK
6
CONTINUOUS
10
90.434
20
-148.436
11
90.6245
21
-148.532
0
LINE
8
BLACK
6
CONTINUOUS
10
90.6245
20
-148.532
11
90.7198
21
-148.722
0
LINE
8
BLACK
6
CONTINUOUS
10
90.7198
20
-148.722
11
90.7198
21
-149.77
0
LINE
8
BLACK
6
CONTINUOUS
10
90.7198
20
-148.722
11
90.815
21
-148.532
0
LINE
8
BLACK
6
CONTINUOUS
10
90.815
20
-148.532
11
91.0055
21
-148.436
0
LINE
8
BLACK
6
CONTINUOUS
10
91.0055
20
-148.436
11
91.2912
21
-148.436
0
LINE
8
BLACK
6
CONTINUOUS
10
91.2912
20
-148.436
11
91.4817
21
-148.532
0
LINE
8
BLACK
6
CONTINUOUS
10
91.4817
20
-148.532
11
91.5769
21
-148.722
0
LINE
8
BLACK
6
CONTINUOUS
10
91.5769
20
-148.722
11
91.5769
21
-149.77
0
LINE
8
BLACK
6
CONTINUOUS
10
92.5293
20
-149.77
11
92.5293
21
-148.436
0
LINE
8
BLACK
6
CONTINUOUS
10
92.5293
20
-148.627
11
92.6245
21
-148.532
0
LINE
8
BLACK
6
CONTINUOUS
10
92.6245
20
-148.532
11
92.815
21
-148.436
0
LINE
8
BLACK
6
CONTINUOUS
10
92.815
20
-148.436
11
93.1007
21
-148.436
0
LINE
8
BLACK
6
CONTINUOUS
10
93.1007
20
-148.436
11
93.2912
21
-148.532
0
LINE
8
BLACK
6
CONTINUOUS
10
93.2912
20
-148.532
11
93.3864
21
-148.722
0
LINE
8
BLACK
6
CONTINUOUS
10
93.3864
20
-148.722
11
93.3864
21
-149.77
0
LINE
8
BLACK
6
CONTINUOUS
10
93.3864
20
-148.722
11
93.4817
21
-148.532
0
LINE
8
BLACK
6
CONTINUOUS
10
93.4817
20
-148.532
11
93.6721
21
-148.436
0
LINE
8
BLACK
6
CONTINUOUS
10
93.6721
20
-148.436
11
93.9579
21
-148.436
0
LINE
8
BLACK
6
CONTINUOUS
10
93.9579
20
-148.436
11
94.1483
21
-148.532
0
LINE
8
BLACK
6
CONTINUOUS
10
94.1483
20
-148.532
11
94.2436
21
-148.722
0
LINE
8
BLACK
6
CONTINUOUS
10
94.2436
20
-148.722
11
94.2436
21
-149.77
0
LINE
8
BLACK
6
CONTINUOUS
10
98.1483
20
-147.675
11
96.434
21
-150.246
0
LINE
8
BLACK
6
CONTINUOUS
10
100.72
20
-147.77
11
100.91
21
-147.77
0
LINE
8
BLACK
6
CONTINUOUS
10
100.91
20
-147.77
11
101.101
21
-147.865
0
LINE
8
BLACK
6
CONTINUOUS
10
101.101
20
-147.865
11
101.196
21
-147.96
0
LINE
8
BLACK
6
CONTINUOUS
10
101.196
20
-147.96
11
101.291
21
-148.151
0
LINE
8
BLACK
6
CONTINUOUS
10
101.291
20
-148.151
11
101.386
21
-148.532
0
LINE
8
BLACK
6
CONTINUOUS
10
101.386
20
-148.532
11
101.386
21
-149.008
0
LINE
8
BLACK
6
CONTINUOUS
10
101.386
20
-149.008
11
101.291
21
-149.389
0
LINE
8
BLACK
6
CONTINUOUS
10
101.291
20
-149.389
11
101.196
21
-149.579
0
LINE
8
BLACK
6
CONTINUOUS
10
101.196
20
-149.579
11
101.101
21
-149.675
0
LINE
8
BLACK
6
CONTINUOUS
10
101.101
20
-149.675
11
100.91
21
-149.77
0
LINE
8
BLACK
6
CONTINUOUS
10
100.91
20
-149.77
11
100.72
21
-149.77
0
LINE
8
BLACK
6
CONTINUOUS
10
100.72
20
-149.77
11
100.529
21
-149.675
0
LINE
8
BLACK
6
CONTINUOUS
10
100.529
20
-149.675
11
100.434
21
-149.579
0
LINE
8
BLACK
6
CONTINUOUS
10
100.434
20
-149.579
11
100.339
21
-149.389
0
LINE
8
BLACK
6
CONTINUOUS
10
100.339
20
-149.389
11
100.244
21
-149.008
0
LINE
8
BLACK
6
CONTINUOUS
10
100.244
20
-149.008
11
100.244
21
-148.532
0
LINE
8
BLACK
6
CONTINUOUS
10
100.244
20
-148.532
11
100.339
21
-148.151
0
LINE
8
BLACK
6
CONTINUOUS
10
100.339
20
-148.151
11
100.434
21
-147.96
0
LINE
8
BLACK
6
CONTINUOUS
10
100.434
20
-147.96
11
100.529
21
-147.865
0
LINE
8
BLACK
6
CONTINUOUS
10
100.529
20
-147.865
11
100.72
21
-147.77
0
LINE
8
BLACK
6
CONTINUOUS
10
102.244
20
-149.579
11
102.339
21
-149.675
0
LINE
8
BLACK
6
CONTINUOUS
10
102.339
20
-149.675
11
102.244
21
-149.77
0
LINE
8
BLACK
6
CONTINUOUS
10
102.244
20
-149.77
11
102.148
21
-149.675
0
LINE
8
BLACK
6
CONTINUOUS
10
102.148
20
-149.675
11
102.244
21
-149.579
0
LINE
8
BLACK
6
CONTINUOUS
10
102.244
20
-149.579
11
102.244
21
-149.77
0
LINE
8
BLACK
6
CONTINUOUS
10
103.577
20
-147.77
11
103.767
21
-147.77
0
LINE
8
BLACK
6
CONTINUOUS
10
103.767
20
-147.77
11
103.958
21
-147.865
0
LINE
8
BLACK
6
CONTINUOUS
10
103.958
20
-147.865
11
104.053
21
-147.96
0
LINE
8
BLACK
6
CONTINUOUS
10
104.053
20
-147.96
11
104.148
21
-148.151
0
LINE
8
BLACK
6
CONTINUOUS
10
104.148
20
-148.151
11
104.244
21
-148.532
0
LINE
8
BLACK
6
CONTINUOUS
10
104.244
20
-148.532
11
104.244
21
-149.008
0
LINE
8
BLACK
6
CONTINUOUS
10
104.244
20
-149.008
11
104.148
21
-149.389
0
LINE
8
BLACK
6
CONTINUOUS
10
104.148
20
-149.389
11
104.053
21
-149.579
0
LINE
8
BLACK
6
CONTINUOUS
10
104.053
20
-149.579
11
103.958
21
-149.675
0
LINE
8
BLACK
6
CONTINUOUS
10
103.958
20
-149.675
11
103.767
21
-149.77
0
LINE
8
BLACK
6
CONTINUOUS
10
103.767
20
-149.77
11
103.577
21
-149.77
0
LINE
8
BLACK
6
CONTINUOUS
10
103.577
20
-149.77
11
103.386
21
-149.675
0
LINE
8
BLACK
6
CONTINUOUS
10
103.386
20
-149.675
11
103.291
21
-149.579
0
LINE
8
BLACK
6
CONTINUOUS
10
103.291
20
-149.579
11
103.196
21
-149.389
0
LINE
8
BLACK
6
CONTINUOUS
10
103.196
20
-149.389
11
103.101
21
-149.008
0
LINE
8
BLACK
6
CONTINUOUS
10
103.101
20
-149.008
11
103.101
21
-148.532
0
LINE
8
BLACK
6
CONTINUOUS
10
103.101
20
-148.532
11
103.196
21
-148.151
0
LINE
8
BLACK
6
CONTINUOUS
10
103.196
20
-148.151
11
103.291
21
-147.96
0
LINE
8
BLACK
6
CONTINUOUS
10
103.291
20
-147.96
11
103.386
21
-147.865
0
LINE
8
BLACK
6
CONTINUOUS
10
103.386
20
-147.865
11
103.577
21
-147.77
0
LINE
8
BLACK
6
CONTINUOUS
10
105.958
20
-148.436
11
105.958
21
-149.77
0
LINE
8
BLACK
6
CONTINUOUS
10
105.482
20
-147.675
11
105.005
21
-149.103
0
LINE
8
BLACK
6
CONTINUOUS
10
105.005
20
-149.103
11
106.244
21
-149.103
0
LINE
8
BLACK
6
CONTINUOUS
10
106.815
20
-147.77
11
108.053
21
-147.77
0
LINE
8
BLACK
6
CONTINUOUS
10
108.053
20
-147.77
11
107.386
21
-148.532
0
LINE
8
BLACK
6
CONTINUOUS
10
107.386
20
-148.532
11
107.672
21
-148.532
0
LINE
8
BLACK
6
CONTINUOUS
10
107.672
20
-148.532
11
107.863
21
-148.627
0
LINE
8
BLACK
6
CONTINUOUS
10
107.863
20
-148.627
11
107.958
21
-148.722
0
LINE
8
BLACK
6
CONTINUOUS
10
107.958
20
-148.722
11
108.053
21
-148.913
0
LINE
8
BLACK
6
CONTINUOUS
10
108.053
20
-148.913
11
108.053
21
-149.389
0
LINE
8
BLACK
6
CONTINUOUS
10
108.053
20
-149.389
11
107.958
21
-149.579
0
LINE
8
BLACK
6
CONTINUOUS
10
107.958
20
-149.579
11
107.863
21
-149.675
0
LINE
8
BLACK
6
CONTINUOUS
10
107.863
20
-149.675
11
107.672
21
-149.77
0
LINE
8
BLACK
6
CONTINUOUS
10
107.672
20
-149.77
11
107.101
21
-149.77
0
LINE
8
BLACK
6
CONTINUOUS
10
107.101
20
-149.77
11
106.91
21
-149.675
0
LINE
8
BLACK
6
CONTINUOUS
10
106.91
20
-149.675
11
106.815
21
-149.579
0
LINE
8
BLACK
6
CONTINUOUS
10
108.72
20
-147.77
11
109.958
21
-147.77
0
LINE
8
BLACK
6
CONTINUOUS
10
109.958
20
-147.77
11
109.291
21
-148.532
0
LINE
8
BLACK
6
CONTINUOUS
10
109.291
20
-148.532
11
109.577
21
-148.532
0
LINE
8
BLACK
6
CONTINUOUS
10
109.577
20
-148.532
11
109.767
21
-148.627
0
LINE
8
BLACK
6
CONTINUOUS
10
109.767
20
-148.627
11
109.863
21
-148.722
0
LINE
8
BLACK
6
CONTINUOUS
10
109.863
20
-148.722
11
109.958
21
-148.913
0
LINE
8
BLACK
6
CONTINUOUS
10
109.958
20
-148.913
11
109.958
21
-149.389
0
LINE
8
BLACK
6
CONTINUOUS
10
109.958
20
-149.389
11
109.863
21
-149.579
0
LINE
8
BLACK
6
CONTINUOUS
10
109.863
20
-149.579
11
109.767
21
-149.675
0
LINE
8
BLACK
6
CONTINUOUS
10
109.767
20
-149.675
11
109.577
21
-149.77
0
LINE
8
BLACK
6
CONTINUOUS
10
109.577
20
-149.77
11
109.005
21
-149.77
0
LINE
8
BLACK
6
CONTINUOUS
10
109.005
20
-149.77
11
108.815
21
-149.675
0
LINE
8
BLACK
6
CONTINUOUS
10
108.815
20
-149.675
11
108.72
21
-149.579
0
LINE
8
BLACK
6
CONTINUOUS
10
110.72
20
-147.77
11
110.72
21
-148.151
0
LINE
8
BLACK
6
CONTINUOUS
10
111.482
20
-147.77
11
111.482
21
-148.151
0
LINE
8
BLACK
6
CONTINUOUS
10
114.434
20
-150.532
11
114.339
21
-150.436
0
LINE
8
BLACK
6
CONTINUOUS
10
114.339
20
-150.436
11
114.148
21
-150.151
0
LINE
8
BLACK
6
CONTINUOUS
10
114.148
20
-150.151
11
114.053
21
-149.96
0
LINE
8
BLACK
6
CONTINUOUS
10
114.053
20
-149.96
11
113.958
21
-149.675
0
LINE
8
BLACK
6
CONTINUOUS
10
113.958
20
-149.675
11
113.863
21
-149.198
0
LINE
8
BLACK
6
CONTINUOUS
10
113.863
20
-149.198
11
113.863
21
-148.817
0
LINE
8
BLACK
6
CONTINUOUS
10
113.863
20
-148.817
11
113.958
21
-148.341
0
LINE
8
BLACK
6
CONTINUOUS
10
113.958
20
-148.341
11
114.053
21
-148.055
0
LINE
8
BLACK
6
CONTINUOUS
10
114.053
20
-148.055
11
114.148
21
-147.865
0
LINE
8
BLACK
6
CONTINUOUS
10
114.148
20
-147.865
11
114.339
21
-147.579
0
LINE
8
BLACK
6
CONTINUOUS
10
114.339
20
-147.579
11
114.434
21
-147.484
0
LINE
8
BLACK
6
CONTINUOUS
10
116.053
20
-148.436
11
116.053
21
-149.77
0
LINE
8
BLACK
6
CONTINUOUS
10
115.577
20
-147.675
11
115.101
21
-149.103
0
LINE
8
BLACK
6
CONTINUOUS
10
115.101
20
-149.103
11
116.339
21
-149.103
0
LINE
8
BLACK
6
CONTINUOUS
10
116.91
20
-147.77
11
118.148
21
-147.77
0
LINE
8
BLACK
6
CONTINUOUS
10
118.148
20
-147.77
11
117.482
21
-148.532
0
LINE
8
BLACK
6
CONTINUOUS
10
117.482
20
-148.532
11
117.767
21
-148.532
0
LINE
8
BLACK
6
CONTINUOUS
10
117.767
20
-148.532
11
117.958
21
-148.627
0
LINE
8
BLACK
6
CONTINUOUS
10
117.958
20
-148.627
11
118.053
21
-148.722
0
LINE
8
BLACK
6
CONTINUOUS
10
118.053
20
-148.722
11
118.148
21
-148.913
0
LINE
8
BLACK
6
CONTINUOUS
10
118.148
20
-148.913
11
118.148
21
-149.389
0
LINE
8
BLACK
6
CONTINUOUS
10
118.148
20
-149.389
11
118.053
21
-149.579
0
LINE
8
BLACK
6
CONTINUOUS
10
118.053
20
-149.579
11
117.958
21
-149.675
0
LINE
8
BLACK
6
CONTINUOUS
10
117.958
20
-149.675
11
117.767
21
-149.77
0
LINE
8
BLACK
6
CONTINUOUS
10
117.767
20
-149.77
11
117.196
21
-149.77
0
LINE
8
BLACK
6
CONTINUOUS
10
117.196
20
-149.77
11
117.005
21
-149.675
0
LINE
8
BLACK
6
CONTINUOUS
10
117.005
20
-149.675
11
116.91
21
-149.579
0
LINE
8
BLACK
6
CONTINUOUS
10
120.529
20
-149.77
11
120.529
21
-147.77
0
LINE
8
BLACK
6
CONTINUOUS
10
121.386
20
-149.77
11
121.386
21
-148.722
0
LINE
8
BLACK
6
CONTINUOUS
10
121.386
20
-148.722
11
121.291
21
-148.532
0
LINE
8
BLACK
6
CONTINUOUS
10
121.291
20
-148.532
11
121.101
21
-148.436
0
LINE
8
BLACK
6
CONTINUOUS
10
121.101
20
-148.436
11
120.815
21
-148.436
0
LINE
8
BLACK
6
CONTINUOUS
10
120.815
20
-148.436
11
120.625
21
-148.532
0
LINE
8
BLACK
6
CONTINUOUS
10
120.625
20
-148.532
11
120.529
21
-148.627
0
LINE
8
BLACK
6
CONTINUOUS
10
122.625
20
-149.77
11
122.434
21
-149.675
0
LINE
8
BLACK
6
CONTINUOUS
10
122.434
20
-149.675
11
122.339
21
-149.579
0
LINE
8
BLACK
6
CONTINUOUS
10
122.339
20
-149.579
11
122.244
21
-149.389
0
LINE
8
BLACK
6
CONTINUOUS
10
122.244
20
-149.389
11
122.244
21
-148.817
0
LINE
8
BLACK
6
CONTINUOUS
10
122.244
20
-148.817
11
122.339
21
-148.627
0
LINE
8
BLACK
6
CONTINUOUS
10
122.339
20
-148.627
11
122.434
21
-148.532
0
LINE
8
BLACK
6
CONTINUOUS
10
122.434
20
-148.532
11
122.625
21
-148.436
0
LINE
8
BLACK
6
CONTINUOUS
10
122.625
20
-148.436
11
122.91
21
-148.436
0
LINE
8
BLACK
6
CONTINUOUS
10
122.91
20
-148.436
11
123.101
21
-148.532
0
LINE
8
BLACK
6
CONTINUOUS
10
123.101
20
-148.532
11
123.196
21
-148.627
0
LINE
8
BLACK
6
CONTINUOUS
10
123.196
20
-148.627
11
123.291
21
-148.817
0
LINE
8
BLACK
6
CONTINUOUS
10
123.291
20
-148.817
11
123.291
21
-149.389
0
LINE
8
BLACK
6
CONTINUOUS
10
123.291
20
-149.389
11
123.196
21
-149.579
0
LINE
8
BLACK
6
CONTINUOUS
10
123.196
20
-149.579
11
123.101
21
-149.675
0
LINE
8
BLACK
6
CONTINUOUS
10
123.101
20
-149.675
11
122.91
21
-149.77
0
LINE
8
BLACK
6
CONTINUOUS
10
122.91
20
-149.77
11
122.625
21
-149.77
0
LINE
8
BLACK
6
CONTINUOUS
10
124.434
20
-149.77
11
124.244
21
-149.675
0
LINE
8
BLACK
6
CONTINUOUS
10
124.244
20
-149.675
11
124.148
21
-149.484
0
LINE
8
BLACK
6
CONTINUOUS
10
124.148
20
-149.484
11
124.148
21
-147.77
0
LINE
8
BLACK
6
CONTINUOUS
10
125.958
20
-149.675
11
125.767
21
-149.77
0
LINE
8
BLACK
6
CONTINUOUS
10
125.767
20
-149.77
11
125.386
21
-149.77
0
LINE
8
BLACK
6
CONTINUOUS
10
125.386
20
-149.77
11
125.196
21
-149.675
0
LINE
8
BLACK
6
CONTINUOUS
10
125.196
20
-149.675
11
125.101
21
-149.484
0
LINE
8
BLACK
6
CONTINUOUS
10
125.101
20
-149.484
11
125.101
21
-148.722
0
LINE
8
BLACK
6
CONTINUOUS
10
125.101
20
-148.722
11
125.196
21
-148.532
0
LINE
8
BLACK
6
CONTINUOUS
10
125.196
20
-148.532
11
125.386
21
-148.436
0
LINE
8
BLACK
6
CONTINUOUS
10
125.386
20
-148.436
11
125.767
21
-148.436
0
LINE
8
BLACK
6
CONTINUOUS
10
125.767
20
-148.436
11
125.958
21
-148.532
0
LINE
8
BLACK
6
CONTINUOUS
10
125.958
20
-148.532
11
126.053
21
-148.722
0
LINE
8
BLACK
6
CONTINUOUS
10
126.053
20
-148.722
11
126.053
21
-148.913
0
LINE
8
BLACK
6
CONTINUOUS
10
126.053
20
-148.913
11
125.101
21
-149.103
0
LINE
8
BLACK
6
CONTINUOUS
10
126.815
20
-149.675
11
127.005
21
-149.77
0
LINE
8
BLACK
6
CONTINUOUS
10
127.005
20
-149.77
11
127.386
21
-149.77
0
LINE
8
BLACK
6
CONTINUOUS
10
127.386
20
-149.77
11
127.577
21
-149.675
0
LINE
8
BLACK
6
CONTINUOUS
10
127.577
20
-149.675
11
127.672
21
-149.484
0
LINE
8
BLACK
6
CONTINUOUS
10
127.672
20
-149.484
11
127.672
21
-149.389
0
LINE
8
BLACK
6
CONTINUOUS
10
127.672
20
-149.389
11
127.577
21
-149.198
0
LINE
8
BLACK
6
CONTINUOUS
10
127.577
20
-149.198
11
127.386
21
-149.103
0
LINE
8
BLACK
6
CONTINUOUS
10
127.386
20
-149.103
11
127.101
21
-149.103
0
LINE
8
BLACK
6
CONTINUOUS
10
127.101
20
-149.103
11
126.91
21
-149.008
0
LINE
8
BLACK
6
CONTINUOUS
10
126.91
20
-149.008
11
126.815
21
-148.817
0
LINE
8
BLACK
6
CONTINUOUS
10
126.815
20
-148.817
11
126.815
21
-148.722
0
LINE
8
BLACK
6
CONTINUOUS
10
126.815
20
-148.722
11
126.91
21
-148.532
0
LINE
8
BLACK
6
CONTINUOUS
10
126.91
20
-148.532
11
127.101
21
-148.436
0
LINE
8
BLACK
6
CONTINUOUS
10
127.101
20
-148.436
11
127.386
21
-148.436
0
LINE
8
BLACK
6
CONTINUOUS
10
127.386
20
-148.436
11
127.577
21
-148.532
0
LINE
8
BLACK
6
CONTINUOUS
10
128.339
20
-150.532
11
128.434
21
-150.436
0
LINE
8
BLACK
6
CONTINUOUS
10
128.434
20
-150.436
11
128.625
21
-150.151
0
LINE
8
BLACK
6
CONTINUOUS
10
128.625
20
-150.151
11
128.72
21
-149.96
0
LINE
8
BLACK
6
CONTINUOUS
10
128.72
20
-149.96
11
128.815
21
-149.675
0
LINE
8
BLACK
6
CONTINUOUS
10
128.815
20
-149.675
11
128.91
21
-149.198
0
LINE
8
BLACK
6
CONTINUOUS
10
128.91
20
-149.198
11
128.91
21
-148.817
0
LINE
8
BLACK
6
CONTINUOUS
10
128.91
20
-148.817
11
128.815
21
-148.341
0
LINE
8
BLACK
6
CONTINUOUS
10
128.815
20
-148.341
11
128.72
21
-148.055
0
LINE
8
BLACK
6
CONTINUOUS
10
128.72
20
-148.055
11
128.625
21
-147.865
0
LINE
8
BLACK
6
CONTINUOUS
10
128.625
20
-147.865
11
128.434
21
-147.579
0
LINE
8
BLACK
6
CONTINUOUS
10
128.434
20
-147.579
11
128.339
21
-147.484
0
LINE
8
BLACK
6
CONTINUOUS
10
78.4955
20
-152.035
11
78.4955
21
-150.975
0
LINE
8
BLACK
6
CONTINUOUS
10
78.4955
20
-150.975
11
77.4359
21
-150.975
0
LINE
8
BLACK
6
CONTINUOUS
10
77.4359
20
-150.975
11
77.4359
21
-152.035
0
LINE
8
BLACK
6
CONTINUOUS
10
77.4359
20
-152.035
11
78.4955
21
-152.035
0
LINE
8
BLACK
6
CONTINUOUS
10
82.3388
20
-152.41
11
81.196
21
-152.41
0
LINE
8
BLACK
6
CONTINUOUS
10
81.7674
20
-152.41
11
81.7674
21
-150.41
0
LINE
8
BLACK
6
CONTINUOUS
10
81.7674
20
-150.41
11
81.5769
21
-150.695
0
LINE
8
BLACK
6
CONTINUOUS
10
81.5769
20
-150.695
11
81.3864
21
-150.886
0
LINE
8
BLACK
6
CONTINUOUS
10
81.3864
20
-150.886
11
81.196
21
-150.981
0
LINE
8
BLACK
6
CONTINUOUS
10
83.196
20
-152.219
11
83.2912
21
-152.315
0
LINE
8
BLACK
6
CONTINUOUS
10
83.2912
20
-152.315
11
83.196
21
-152.41
0
LINE
8
BLACK
6
CONTINUOUS
10
83.196
20
-152.41
11
83.1007
21
-152.315
0
LINE
8
BLACK
6
CONTINUOUS
10
83.1007
20
-152.315
11
83.196
21
-152.219
0
LINE
8
BLACK
6
CONTINUOUS
10
83.196
20
-152.219
11
83.196
21
-152.41
0
LINE
8
BLACK
6
CONTINUOUS
10
85.0055
20
-151.076
11
85.0055
21
-152.41
0
LINE
8
BLACK
6
CONTINUOUS
10
84.5293
20
-150.315
11
84.0531
21
-151.743
0
LINE
8
BLACK
6
CONTINUOUS
10
84.0531
20
-151.743
11
85.2912
21
-151.743
0
LINE
8
BLACK
6
CONTINUOUS
10
86.1483
20
-152.41
11
86.5293
21
-152.41
0
LINE
8
BLACK
6
CONTINUOUS
10
86.5293
20
-152.41
11
86.7198
21
-152.315
0
LINE
8
BLACK
6
CONTINUOUS
10
86.7198
20
-152.315
11
86.815
21
-152.219
0
LINE
8
BLACK
6
CONTINUOUS
10
86.815
20
-152.219
11
87.0055
21
-151.934
0
LINE
8
BLACK
6
CONTINUOUS
10
87.0055
20
-151.934
11
87.1007
21
-151.553
0
LINE
8
BLACK
6
CONTINUOUS
10
87.1007
20
-151.553
11
87.1007
21
-150.791
0
LINE
8
BLACK
6
CONTINUOUS
10
87.1007
20
-150.791
11
87.0055
21
-150.6
0
LINE
8
BLACK
6
CONTINUOUS
10
87.0055
20
-150.6
11
86.9102
21
-150.505
0
LINE
8
BLACK
6
CONTINUOUS
10
86.9102
20
-150.505
11
86.7198
21
-150.41
0
LINE
8
BLACK
6
CONTINUOUS
10
86.7198
20
-150.41
11
86.3388
21
-150.41
0
LINE
8
BLACK
6
CONTINUOUS
10
86.3388
20
-150.41
11
86.1483
21
-150.505
0
LINE
8
BLACK
6
CONTINUOUS
10
86.1483
20
-150.505
11
86.0531
21
-150.6
0
LINE
8
BLACK
6
CONTINUOUS
10
86.0531
20
-150.6
11
85.9579
21
-150.791
0
LINE
8
BLACK
6
CONTINUOUS
10
85.9579
20
-150.791
11
85.9579
21
-151.267
0
LINE
8
BLACK
6
CONTINUOUS
10
85.9579
20
-151.267
11
86.0531
21
-151.457
0
LINE
8
BLACK
6
CONTINUOUS
10
86.0531
20
-151.457
11
86.1483
21
-151.553
0
LINE
8
BLACK
6
CONTINUOUS
10
86.1483
20
-151.553
11
86.3388
21
-151.648
0
LINE
8
BLACK
6
CONTINUOUS
10
86.3388
20
-151.648
11
86.7198
21
-151.648
0
LINE
8
BLACK
6
CONTINUOUS
10
86.7198
20
-151.648
11
86.9102
21
-151.553
0
LINE
8
BLACK
6
CONTINUOUS
10
86.9102
20
-151.553
11
87.0055
21
-151.457
0
LINE
8
BLACK
6
CONTINUOUS
10
87.0055
20
-151.457
11
87.1007
21
-151.267
0
LINE
8
BLACK
6
CONTINUOUS
10
88.0531
20
-152.41
11
88.434
21
-152.41
0
LINE
8
BLACK
6
CONTINUOUS
10
88.434
20
-152.41
11
88.6245
21
-152.315
0
LINE
8
BLACK
6
CONTINUOUS
10
88.6245
20
-152.315
11
88.7198
21
-152.219
0
LINE
8
BLACK
6
CONTINUOUS
10
88.7198
20
-152.219
11
88.9102
21
-151.934
0
LINE
8
BLACK
6
CONTINUOUS
10
88.9102
20
-151.934
11
89.0055
21
-151.553
0
LINE
8
BLACK
6
CONTINUOUS
10
89.0055
20
-151.553
11
89.0055
21
-150.791
0
LINE
8
BLACK
6
CONTINUOUS
10
89.0055
20
-150.791
11
88.9102
21
-150.6
0
LINE
8
BLACK
6
CONTINUOUS
10
88.9102
20
-150.6
11
88.815
21
-150.505
0
LINE
8
BLACK
6
CONTINUOUS
10
88.815
20
-150.505
11
88.6245
21
-150.41
0
LINE
8
BLACK
6
CONTINUOUS
10
88.6245
20
-150.41
11
88.2436
21
-150.41
0
LINE
8
BLACK
6
CONTINUOUS
10
88.2436
20
-150.41
11
88.0531
21
-150.505
0
LINE
8
BLACK
6
CONTINUOUS
10
88.0531
20
-150.505
11
87.9579
21
-150.6
0
LINE
8
BLACK
6
CONTINUOUS
10
87.9579
20
-150.6
11
87.8626
21
-150.791
0
LINE
8
BLACK
6
CONTINUOUS
10
87.8626
20
-150.791
11
87.8626
21
-151.267
0
LINE
8
BLACK
6
CONTINUOUS
10
87.8626
20
-151.267
11
87.9579
21
-151.457
0
LINE
8
BLACK
6
CONTINUOUS
10
87.9579
20
-151.457
11
88.0531
21
-151.553
0
LINE
8
BLACK
6
CONTINUOUS
10
88.0531
20
-151.553
11
88.2436
21
-151.648
0
LINE
8
BLACK
6
CONTINUOUS
10
88.2436
20
-151.648
11
88.6245
21
-151.648
0
LINE
8
BLACK
6
CONTINUOUS
10
88.6245
20
-151.648
11
88.815
21
-151.553
0
LINE
8
BLACK
6
CONTINUOUS
10
88.815
20
-151.553
11
88.9102
21
-151.457
0
LINE
8
BLACK
6
CONTINUOUS
10
88.9102
20
-151.457
11
89.0055
21
-151.267
0
LINE
8
BLACK
6
CONTINUOUS
10
89.8626
20
-152.41
11
89.8626
21
-151.076
0
LINE
8
BLACK
6
CONTINUOUS
10
89.8626
20
-151.267
11
89.9579
21
-151.172
0
LINE
8
BLACK
6
CONTINUOUS
10
89.9579
20
-151.172
11
90.1483
21
-151.076
0
LINE
8
BLACK
6
CONTINUOUS
10
90.1483
20
-151.076
11
90.434
21
-151.076
0
LINE
8
BLACK
6
CONTINUOUS
10
90.434
20
-151.076
11
90.6245
21
-151.172
0
LINE
8
BLACK
6
CONTINUOUS
10
90.6245
20
-151.172
11
90.7198
21
-151.362
0
LINE
8
BLACK
6
CONTINUOUS
10
90.7198
20
-151.362
11
90.7198
21
-152.41
0
LINE
8
BLACK
6
CONTINUOUS
10
90.7198
20
-151.362
11
90.815
21
-151.172
0
LINE
8
BLACK
6
CONTINUOUS
10
90.815
20
-151.172
11
91.0055
21
-151.076
0
LINE
8
BLACK
6
CONTINUOUS
10
91.0055
20
-151.076
11
91.2912
21
-151.076
0
LINE
8
BLACK
6
CONTINUOUS
10
91.2912
20
-151.076
11
91.4817
21
-151.172
0
LINE
8
BLACK
6
CONTINUOUS
10
91.4817
20
-151.172
11
91.5769
21
-151.362
0
LINE
8
BLACK
6
CONTINUOUS
10
91.5769
20
-151.362
11
91.5769
21
-152.41
0
LINE
8
BLACK
6
CONTINUOUS
10
92.5293
20
-152.41
11
92.5293
21
-151.076
0
LINE
8
BLACK
6
CONTINUOUS
10
92.5293
20
-151.267
11
92.6245
21
-151.172
0
LINE
8
BLACK
6
CONTINUOUS
10
92.6245
20
-151.172
11
92.815
21
-151.076
0
LINE
8
BLACK
6
CONTINUOUS
10
92.815
20
-151.076
11
93.1007
21
-151.076
0
LINE
8
BLACK
6
CONTINUOUS
10
93.1007
20
-151.076
11
93.2912
21
-151.172
0
LINE
8
BLACK
6
CONTINUOUS
10
93.2912
20
-151.172
11
93.3864
21
-151.362
0
LINE
8
BLACK
6
CONTINUOUS
10
93.3864
20
-151.362
11
93.3864
21
-152.41
0
LINE
8
BLACK
6
CONTINUOUS
10
93.3864
20
-151.362
11
93.4817
21
-151.172
0
LINE
8
BLACK
6
CONTINUOUS
10
93.4817
20
-151.172
11
93.6721
21
-151.076
0
LINE
8
BLACK
6
CONTINUOUS
10
93.6721
20
-151.076
11
93.9579
21
-151.076
0
LINE
8
BLACK
6
CONTINUOUS
10
93.9579
20
-151.076
11
94.1483
21
-151.172
0
LINE
8
BLACK
6
CONTINUOUS
10
94.1483
20
-151.172
11
94.2436
21
-151.362
0
LINE
8
BLACK
6
CONTINUOUS
10
94.2436
20
-151.362
11
94.2436
21
-152.41
0
LINE
8
BLACK
6
CONTINUOUS
10
98.1483
20
-150.315
11
96.434
21
-152.886
0
LINE
8
BLACK
6
CONTINUOUS
10
100.72
20
-150.41
11
100.91
21
-150.41
0
LINE
8
BLACK
6
CONTINUOUS
10
100.91
20
-150.41
11
101.101
21
-150.505
0
LINE
8
BLACK
6
CONTINUOUS
10
101.101
20
-150.505
11
101.196
21
-150.6
0
LINE
8
BLACK
6
CONTINUOUS
10
101.196
20
-150.6
11
101.291
21
-150.791
0
LINE
8
BLACK
6
CONTINUOUS
10
101.291
20
-150.791
11
101.386
21
-151.172
0
LINE
8
BLACK
6
CONTINUOUS
10
101.386
20
-151.172
11
101.386
21
-151.648
0
LINE
8
BLACK
6
CONTINUOUS
10
101.386
20
-151.648
11
101.291
21
-152.029
0
LINE
8
BLACK
6
CONTINUOUS
10
101.291
20
-152.029
11
101.196
21
-152.219
0
LINE
8
BLACK
6
CONTINUOUS
10
101.196
20
-152.219
11
101.101
21
-152.315
0
LINE
8
BLACK
6
CONTINUOUS
10
101.101
20
-152.315
11
100.91
21
-152.41
0
LINE
8
BLACK
6
CONTINUOUS
10
100.91
20
-152.41
11
100.72
21
-152.41
0
LINE
8
BLACK
6
CONTINUOUS
10
100.72
20
-152.41
11
100.529
21
-152.315
0
LINE
8
BLACK
6
CONTINUOUS
10
100.529
20
-152.315
11
100.434
21
-152.219
0
LINE
8
BLACK
6
CONTINUOUS
10
100.434
20
-152.219
11
100.339
21
-152.029
0
LINE
8
BLACK
6
CONTINUOUS
10
100.339
20
-152.029
11
100.244
21
-151.648
0
LINE
8
BLACK
6
CONTINUOUS
10
100.244
20
-151.648
11
100.244
21
-151.172
0
LINE
8
BLACK
6
CONTINUOUS
10
100.244
20
-151.172
11
100.339
21
-150.791
0
LINE
8
BLACK
6
CONTINUOUS
10
100.339
20
-150.791
11
100.434
21
-150.6
0
LINE
8
BLACK
6
CONTINUOUS
10
100.434
20
-150.6
11
100.529
21
-150.505
0
LINE
8
BLACK
6
CONTINUOUS
10
100.529
20
-150.505
11
100.72
21
-150.41
0
LINE
8
BLACK
6
CONTINUOUS
10
102.244
20
-152.219
11
102.339
21
-152.315
0
LINE
8
BLACK
6
CONTINUOUS
10
102.339
20
-152.315
11
102.244
21
-152.41
0
LINE
8
BLACK
6
CONTINUOUS
10
102.244
20
-152.41
11
102.148
21
-152.315
0
LINE
8
BLACK
6
CONTINUOUS
10
102.148
20
-152.315
11
102.244
21
-152.219
0
LINE
8
BLACK
6
CONTINUOUS
10
102.244
20
-152.219
11
102.244
21
-152.41
0
LINE
8
BLACK
6
CONTINUOUS
10
103.577
20
-150.41
11
103.767
21
-150.41
0
LINE
8
BLACK
6
CONTINUOUS
10
103.767
20
-150.41
11
103.958
21
-150.505
0
LINE
8
BLACK
6
CONTINUOUS
10
103.958
20
-150.505
11
104.053
21
-150.6
0
LINE
8
BLACK
6
CONTINUOUS
10
104.053
20
-150.6
11
104.148
21
-150.791
0
LINE
8
BLACK
6
CONTINUOUS
10
104.148
20
-150.791
11
104.244
21
-151.172
0
LINE
8
BLACK
6
CONTINUOUS
10
104.244
20
-151.172
11
104.244
21
-151.648
0
LINE
8
BLACK
6
CONTINUOUS
10
104.244
20
-151.648
11
104.148
21
-152.029
0
LINE
8
BLACK
6
CONTINUOUS
10
104.148
20
-152.029
11
104.053
21
-152.219
0
LINE
8
BLACK
6
CONTINUOUS
10
104.053
20
-152.219
11
103.958
21
-152.315
0
LINE
8
BLACK
6
CONTINUOUS
10
103.958
20
-152.315
11
103.767
21
-152.41
0
LINE
8
BLACK
6
CONTINUOUS
10
103.767
20
-152.41
11
103.577
21
-152.41
0
LINE
8
BLACK
6
CONTINUOUS
10
103.577
20
-152.41
11
103.386
21
-152.315
0
LINE
8
BLACK
6
CONTINUOUS
10
103.386
20
-152.315
11
103.291
21
-152.219
0
LINE
8
BLACK
6
CONTINUOUS
10
103.291
20
-152.219
11
103.196
21
-152.029
0
LINE
8
BLACK
6
CONTINUOUS
10
103.196
20
-152.029
11
103.101
21
-151.648
0
LINE
8
BLACK
6
CONTINUOUS
10
103.101
20
-151.648
11
103.101
21
-151.172
0
LINE
8
BLACK
6
CONTINUOUS
10
103.101
20
-151.172
11
103.196
21
-150.791
0
LINE
8
BLACK
6
CONTINUOUS
10
103.196
20
-150.791
11
103.291
21
-150.6
0
LINE
8
BLACK
6
CONTINUOUS
10
103.291
20
-150.6
11
103.386
21
-150.505
0
LINE
8
BLACK
6
CONTINUOUS
10
103.386
20
-150.505
11
103.577
21
-150.41
0
LINE
8
BLACK
6
CONTINUOUS
10
106.053
20
-150.41
11
105.101
21
-150.41
0
LINE
8
BLACK
6
CONTINUOUS
10
105.101
20
-150.41
11
105.005
21
-151.362
0
LINE
8
BLACK
6
CONTINUOUS
10
105.005
20
-151.362
11
105.101
21
-151.267
0
LINE
8
BLACK
6
CONTINUOUS
10
105.101
20
-151.267
11
105.291
21
-151.172
0
LINE
8
BLACK
6
CONTINUOUS
10
105.291
20
-151.172
11
105.767
21
-151.172
0
LINE
8
BLACK
6
CONTINUOUS
10
105.767
20
-151.172
11
105.958
21
-151.267
0
LINE
8
BLACK
6
CONTINUOUS
10
105.958
20
-151.267
11
106.053
21
-151.362
0
LINE
8
BLACK
6
CONTINUOUS
10
106.053
20
-151.362
11
106.148
21
-151.553
0
LINE
8
BLACK
6
CONTINUOUS
10
106.148
20
-151.553
11
106.148
21
-152.029
0
LINE
8
BLACK
6
CONTINUOUS
10
106.148
20
-152.029
11
106.053
21
-152.219
0
LINE
8
BLACK
6
CONTINUOUS
10
106.053
20
-152.219
11
105.958
21
-152.315
0
LINE
8
BLACK
6
CONTINUOUS
10
105.958
20
-152.315
11
105.767
21
-152.41
0
LINE
8
BLACK
6
CONTINUOUS
10
105.767
20
-152.41
11
105.291
21
-152.41
0
LINE
8
BLACK
6
CONTINUOUS
10
105.291
20
-152.41
11
105.101
21
-152.315
0
LINE
8
BLACK
6
CONTINUOUS
10
105.101
20
-152.315
11
105.005
21
-152.219
0
LINE
8
BLACK
6
CONTINUOUS
10
107.101
20
-152.41
11
107.482
21
-152.41
0
LINE
8
BLACK
6
CONTINUOUS
10
107.482
20
-152.41
11
107.672
21
-152.315
0
LINE
8
BLACK
6
CONTINUOUS
10
107.672
20
-152.315
11
107.767
21
-152.219
0
LINE
8
BLACK
6
CONTINUOUS
10
107.767
20
-152.219
11
107.958
21
-151.934
0
LINE
8
BLACK
6
CONTINUOUS
10
107.958
20
-151.934
11
108.053
21
-151.553
0
LINE
8
BLACK
6
CONTINUOUS
10
108.053
20
-151.553
11
108.053
21
-150.791
0
LINE
8
BLACK
6
CONTINUOUS
10
108.053
20
-150.791
11
107.958
21
-150.6
0
LINE
8
BLACK
6
CONTINUOUS
10
107.958
20
-150.6
11
107.863
21
-150.505
0
LINE
8
BLACK
6
CONTINUOUS
10
107.863
20
-150.505
11
107.672
21
-150.41
0
LINE
8
BLACK
6
CONTINUOUS
10
107.672
20
-150.41
11
107.291
21
-150.41
0
LINE
8
BLACK
6
CONTINUOUS
10
107.291
20
-150.41
11
107.101
21
-150.505
0
LINE
8
BLACK
6
CONTINUOUS
10
107.101
20
-150.505
11
107.005
21
-150.6
0
LINE
8
BLACK
6
CONTINUOUS
10
107.005
20
-150.6
11
106.91
21
-150.791
0
LINE
8
BLACK
6
CONTINUOUS
10
106.91
20
-150.791
11
106.91
21
-151.267
0
LINE
8
BLACK
6
CONTINUOUS
10
106.91
20
-151.267
11
107.005
21
-151.457
0
LINE
8
BLACK
6
CONTINUOUS
10
107.005
20
-151.457
11
107.101
21
-151.553
0
LINE
8
BLACK
6
CONTINUOUS
10
107.101
20
-151.553
11
107.291
21
-151.648
0
LINE
8
BLACK
6
CONTINUOUS
10
107.291
20
-151.648
11
107.672
21
-151.648
0
LINE
8
BLACK
6
CONTINUOUS
10
107.672
20
-151.648
11
107.863
21
-151.553
0
LINE
8
BLACK
6
CONTINUOUS
10
107.863
20
-151.553
11
107.958
21
-151.457
0
LINE
8
BLACK
6
CONTINUOUS
10
107.958
20
-151.457
11
108.053
21
-151.267
0
LINE
8
BLACK
6
CONTINUOUS
10
109.291
20
-150.41
11
109.482
21
-150.41
0
LINE
8
BLACK
6
CONTINUOUS
10
109.482
20
-150.41
11
109.672
21
-150.505
0
LINE
8
BLACK
6
CONTINUOUS
10
109.672
20
-150.505
11
109.767
21
-150.6
0
LINE
8
BLACK
6
CONTINUOUS
10
109.767
20
-150.6
11
109.863
21
-150.791
0
LINE
8
BLACK
6
CONTINUOUS
10
109.863
20
-150.791
11
109.958
21
-151.172
0
LINE
8
BLACK
6
CONTINUOUS
10
109.958
20
-151.172
11
109.958
21
-151.648
0
LINE
8
BLACK
6
CONTINUOUS
10
109.958
20
-151.648
11
109.863
21
-152.029
0
LINE
8
BLACK
6
CONTINUOUS
10
109.863
20
-152.029
11
109.767
21
-152.219
0
LINE
8
BLACK
6
CONTINUOUS
10
109.767
20
-152.219
11
109.672
21
-152.315
0
LINE
8
BLACK
6
CONTINUOUS
10
109.672
20
-152.315
11
109.482
21
-152.41
0
LINE
8
BLACK
6
CONTINUOUS
10
109.482
20
-152.41
11
109.291
21
-152.41
0
LINE
8
BLACK
6
CONTINUOUS
10
109.291
20
-152.41
11
109.101
21
-152.315
0
LINE
8
BLACK
6
CONTINUOUS
10
109.101
20
-152.315
11
109.005
21
-152.219
0
LINE
8
BLACK
6
CONTINUOUS
10
109.005
20
-152.219
11
108.91
21
-152.029
0
LINE
8
BLACK
6
CONTINUOUS
10
108.91
20
-152.029
11
108.815
21
-151.648
0
LINE
8
BLACK
6
CONTINUOUS
10
108.815
20
-151.648
11
108.815
21
-151.172
0
LINE
8
BLACK
6
CONTINUOUS
10
108.815
20
-151.172
11
108.91
21
-150.791
0
LINE
8
BLACK
6
CONTINUOUS
10
108.91
20
-150.791
11
109.005
21
-150.6
0
LINE
8
BLACK
6
CONTINUOUS
10
109.005
20
-150.6
11
109.101
21
-150.505
0
LINE
8
BLACK
6
CONTINUOUS
10
109.101
20
-150.505
11
109.291
21
-150.41
0
LINE
8
BLACK
6
CONTINUOUS
10
110.72
20
-150.41
11
110.72
21
-150.791
0
LINE
8
BLACK
6
CONTINUOUS
10
111.482
20
-150.41
11
111.482
21
-150.791
0
LINE
8
BLACK
6
CONTINUOUS
10
114.434
20
-153.172
11
114.339
21
-153.076
0
LINE
8
BLACK
6
CONTINUOUS
10
114.339
20
-153.076
11
114.148
21
-152.791
0
LINE
8
BLACK
6
CONTINUOUS
10
114.148
20
-152.791
11
114.053
21
-152.6
0
LINE
8
BLACK
6
CONTINUOUS
10
114.053
20
-152.6
11
113.958
21
-152.315
0
LINE
8
BLACK
6
CONTINUOUS
10
113.958
20
-152.315
11
113.863
21
-151.838
0
LINE
8
BLACK
6
CONTINUOUS
10
113.863
20
-151.838
11
113.863
21
-151.457
0
LINE
8
BLACK
6
CONTINUOUS
10
113.863
20
-151.457
11
113.958
21
-150.981
0
LINE
8
BLACK
6
CONTINUOUS
10
113.958
20
-150.981
11
114.053
21
-150.695
0
LINE
8
BLACK
6
CONTINUOUS
10
114.053
20
-150.695
11
114.148
21
-150.505
0
LINE
8
BLACK
6
CONTINUOUS
10
114.148
20
-150.505
11
114.339
21
-150.219
0
LINE
8
BLACK
6
CONTINUOUS
10
114.339
20
-150.219
11
114.434
21
-150.124
0
LINE
8
BLACK
6
CONTINUOUS
10
115.101
20
-150.6
11
115.196
21
-150.505
0
LINE
8
BLACK
6
CONTINUOUS
10
115.196
20
-150.505
11
115.386
21
-150.41
0
LINE
8
BLACK
6
CONTINUOUS
10
115.386
20
-150.41
11
115.863
21
-150.41
0
LINE
8
BLACK
6
CONTINUOUS
10
115.863
20
-150.41
11
116.053
21
-150.505
0
LINE
8
BLACK
6
CONTINUOUS
10
116.053
20
-150.505
11
116.148
21
-150.6
0
LINE
8
BLACK
6
CONTINUOUS
10
116.148
20
-150.6
11
116.244
21
-150.791
0
LINE
8
BLACK
6
CONTINUOUS
10
116.244
20
-150.791
11
116.244
21
-150.981
0
LINE
8
BLACK
6
CONTINUOUS
10
116.244
20
-150.981
11
116.148
21
-151.267
0
LINE
8
BLACK
6
CONTINUOUS
10
116.148
20
-151.267
11
115.005
21
-152.41
0
LINE
8
BLACK
6
CONTINUOUS
10
115.005
20
-152.41
11
116.244
21
-152.41
0
LINE
8
BLACK
6
CONTINUOUS
10
117.386
20
-151.267
11
117.196
21
-151.172
0
LINE
8
BLACK
6
CONTINUOUS
10
117.196
20
-151.172
11
117.101
21
-151.076
0
LINE
8
BLACK
6
CONTINUOUS
10
117.101
20
-151.076
11
117.005
21
-150.886
0
LINE
8
BLACK
6
CONTINUOUS
10
117.005
20
-150.886
11
117.005
21
-150.791
0
LINE
8
BLACK
6
CONTINUOUS
10
117.005
20
-150.791
11
117.101
21
-150.6
0
LINE
8
BLACK
6
CONTINUOUS
10
117.101
20
-150.6
11
117.196
21
-150.505
0
LINE
8
BLACK
6
CONTINUOUS
10
117.196
20
-150.505
11
117.386
21
-150.41
0
LINE
8
BLACK
6
CONTINUOUS
10
117.386
20
-150.41
11
117.767
21
-150.41
0
LINE
8
BLACK
6
CONTINUOUS
10
117.767
20
-150.41
11
117.958
21
-150.505
0
LINE
8
BLACK
6
CONTINUOUS
10
117.958
20
-150.505
11
118.053
21
-150.6
0
LINE
8
BLACK
6
CONTINUOUS
10
118.053
20
-150.6
11
118.148
21
-150.791
0
LINE
8
BLACK
6
CONTINUOUS
10
118.148
20
-150.791
11
118.148
21
-150.886
0
LINE
8
BLACK
6
CONTINUOUS
10
118.148
20
-150.886
11
118.053
21
-151.076
0
LINE
8
BLACK
6
CONTINUOUS
10
118.053
20
-151.076
11
117.958
21
-151.172
0
LINE
8
BLACK
6
CONTINUOUS
10
117.958
20
-151.172
11
117.767
21
-151.267
0
LINE
8
BLACK
6
CONTINUOUS
10
117.767
20
-151.267
11
117.386
21
-151.267
0
LINE
8
BLACK
6
CONTINUOUS
10
117.386
20
-151.267
11
117.196
21
-151.362
0
LINE
8
BLACK
6
CONTINUOUS
10
117.196
20
-151.362
11
117.101
21
-151.457
0
LINE
8
BLACK
6
CONTINUOUS
10
117.101
20
-151.457
11
117.005
21
-151.648
0
LINE
8
BLACK
6
CONTINUOUS
10
117.005
20
-151.648
11
117.005
21
-152.029
0
LINE
8
BLACK
6
CONTINUOUS
10
117.005
20
-152.029
11
117.101
21
-152.219
0
LINE
8
BLACK
6
CONTINUOUS
10
117.101
20
-152.219
11
117.196
21
-152.315
0
LINE
8
BLACK
6
CONTINUOUS
10
117.196
20
-152.315
11
117.386
21
-152.41
0
LINE
8
BLACK
6
CONTINUOUS
10
117.386
20
-152.41
11
117.767
21
-152.41
0
LINE
8
BLACK
6
CONTINUOUS
10
117.767
20
-152.41
11
117.958
21
-152.315
0
LINE
8
BLACK
6
CONTINUOUS
10
117.958
20
-152.315
11
118.053
21
-152.219
0
LINE
8
BLACK
6
CONTINUOUS
10
118.053
20
-152.219
11
118.148
21
-152.029
0
LINE
8
BLACK
6
CONTINUOUS
10
118.148
20
-152.029
11
118.148
21
-151.648
0
LINE
8
BLACK
6
CONTINUOUS
10
118.148
20
-151.648
11
118.053
21
-151.457
0
LINE
8
BLACK
6
CONTINUOUS
10
118.053
20
-151.457
11
117.958
21
-151.362
0
LINE
8
BLACK
6
CONTINUOUS
10
117.958
20
-151.362
11
117.767
21
-151.267
0
LINE
8
BLACK
6
CONTINUOUS
10
120.529
20
-152.41
11
120.529
21
-150.41
0
LINE
8
BLACK
6
CONTINUOUS
10
121.386
20
-152.41
11
121.386
21
-151.362
0
LINE
8
BLACK
6
CONTINUOUS
10
121.386
20
-151.362
11
121.291
21
-151.172
0
LINE
8
BLACK
6
CONTINUOUS
10
121.291
20
-151.172
11
121.101
21
-151.076
0
LINE
8
BLACK
6
CONTINUOUS
10
121.101
20
-151.076
11
120.815
21
-151.076
0
LINE
8
BLACK
6
CONTINUOUS
10
120.815
20
-151.076
11
120.625
21
-151.172
0
LINE
8
BLACK
6
CONTINUOUS
10
120.625
20
-151.172
11
120.529
21
-151.267
0
LINE
8
BLACK
6
CONTINUOUS
10
122.625
20
-152.41
11
122.434
21
-152.315
0
LINE
8
BLACK
6
CONTINUOUS
10
122.434
20
-152.315
11
122.339
21
-152.219
0
LINE
8
BLACK
6
CONTINUOUS
10
122.339
20
-152.219
11
122.244
21
-152.029
0
LINE
8
BLACK
6
CONTINUOUS
10
122.244
20
-152.029
11
122.244
21
-151.457
0
LINE
8
BLACK
6
CONTINUOUS
10
122.244
20
-151.457
11
122.339
21
-151.267
0
LINE
8
BLACK
6
CONTINUOUS
10
122.339
20
-151.267
11
122.434
21
-151.172
0
LINE
8
BLACK
6
CONTINUOUS
10
122.434
20
-151.172
11
122.625
21
-151.076
0
LINE
8
BLACK
6
CONTINUOUS
10
122.625
20
-151.076
11
122.91
21
-151.076
0
LINE
8
BLACK
6
CONTINUOUS
10
122.91
20
-151.076
11
123.101
21
-151.172
0
LINE
8
BLACK
6
CONTINUOUS
10
123.101
20
-151.172
11
123.196
21
-151.267
0
LINE
8
BLACK
6
CONTINUOUS
10
123.196
20
-151.267
11
123.291
21
-151.457
0
LINE
8
BLACK
6
CONTINUOUS
10
123.291
20
-151.457
11
123.291
21
-152.029
0
LINE
8
BLACK
6
CONTINUOUS
10
123.291
20
-152.029
11
123.196
21
-152.219
0
LINE
8
BLACK
6
CONTINUOUS
10
123.196
20
-152.219
11
123.101
21
-152.315
0
LINE
8
BLACK
6
CONTINUOUS
10
123.101
20
-152.315
11
122.91
21
-152.41
0
LINE
8
BLACK
6
CONTINUOUS
10
122.91
20
-152.41
11
122.625
21
-152.41
0
LINE
8
BLACK
6
CONTINUOUS
10
124.434
20
-152.41
11
124.244
21
-152.315
0
LINE
8
BLACK
6
CONTINUOUS
10
124.244
20
-152.315
11
124.148
21
-152.124
0
LINE
8
BLACK
6
CONTINUOUS
10
124.148
20
-152.124
11
124.148
21
-150.41
0
LINE
8
BLACK
6
CONTINUOUS
10
125.958
20
-152.315
11
125.767
21
-152.41
0
LINE
8
BLACK
6
CONTINUOUS
10
125.767
20
-152.41
11
125.386
21
-152.41
0
LINE
8
BLACK
6
CONTINUOUS
10
125.386
20
-152.41
11
125.196
21
-152.315
0
LINE
8
BLACK
6
CONTINUOUS
10
125.196
20
-152.315
11
125.101
21
-152.124
0
LINE
8
BLACK
6
CONTINUOUS
10
125.101
20
-152.124
11
125.101
21
-151.362
0
LINE
8
BLACK
6
CONTINUOUS
10
125.101
20
-151.362
11
125.196
21
-151.172
0
LINE
8
BLACK
6
CONTINUOUS
10
125.196
20
-151.172
11
125.386
21
-151.076
0
LINE
8
BLACK
6
CONTINUOUS
10
125.386
20
-151.076
11
125.767
21
-151.076
0
LINE
8
BLACK
6
CONTINUOUS
10
125.767
20
-151.076
11
125.958
21
-151.172
0
LINE
8
BLACK
6
CONTINUOUS
10
125.958
20
-151.172
11
126.053
21
-151.362
0
LINE
8
BLACK
6
CONTINUOUS
10
126.053
20
-151.362
11
126.053
21
-151.553
0
LINE
8
BLACK
6
CONTINUOUS
10
126.053
20
-151.553
11
125.101
21
-151.743
0
LINE
8
BLACK
6
CONTINUOUS
10
126.815
20
-152.315
11
127.005
21
-152.41
0
LINE
8
BLACK
6
CONTINUOUS
10
127.005
20
-152.41
11
127.386
21
-152.41
0
LINE
8
BLACK
6
CONTINUOUS
10
127.386
20
-152.41
11
127.577
21
-152.315
0
LINE
8
BLACK
6
CONTINUOUS
10
127.577
20
-152.315
11
127.672
21
-152.124
0
LINE
8
BLACK
6
CONTINUOUS
10
127.672
20
-152.124
11
127.672
21
-152.029
0
LINE
8
BLACK
6
CONTINUOUS
10
127.672
20
-152.029
11
127.577
21
-151.838
0
LINE
8
BLACK
6
CONTINUOUS
10
127.577
20
-151.838
11
127.386
21
-151.743
0
LINE
8
BLACK
6
CONTINUOUS
10
127.386
20
-151.743
11
127.101
21
-151.743
0
LINE
8
BLACK
6
CONTINUOUS
10
127.101
20
-151.743
11
126.91
21
-151.648
0
LINE
8
BLACK
6
CONTINUOUS
10
126.91
20
-151.648
11
126.815
21
-151.457
0
LINE
8
BLACK
6
CONTINUOUS
10
126.815
20
-151.457
11
126.815
21
-151.362
0
LINE
8
BLACK
6
CONTINUOUS
10
126.815
20
-151.362
11
126.91
21
-151.172
0
LINE
8
BLACK
6
CONTINUOUS
10
126.91
20
-151.172
11
127.101
21
-151.076
0
LINE
8
BLACK
6
CONTINUOUS
10
127.101
20
-151.076
11
127.386
21
-151.076
0
LINE
8
BLACK
6
CONTINUOUS
10
127.386
20
-151.076
11
127.577
21
-151.172
0
LINE
8
BLACK
6
CONTINUOUS
10
128.339
20
-153.172
11
128.434
21
-153.076
0
LINE
8
BLACK
6
CONTINUOUS
10
128.434
20
-153.076
11
128.625
21
-152.791
0
LINE
8
BLACK
6
CONTINUOUS
10
128.625
20
-152.791
11
128.72
21
-152.6
0
LINE
8
BLACK
6
CONTINUOUS
10
128.72
20
-152.6
11
128.815
21
-152.315
0
LINE
8
BLACK
6
CONTINUOUS
10
128.815
20
-152.315
11
128.91
21
-151.838
0
LINE
8
BLACK
6
CONTINUOUS
10
128.91
20
-151.838
11
128.91
21
-151.457
0
LINE
8
BLACK
6
CONTINUOUS
10
128.91
20
-151.457
11
128.815
21
-150.981
0
LINE
8
BLACK
6
CONTINUOUS
10
128.815
20
-150.981
11
128.72
21
-150.695
0
LINE
8
BLACK
6
CONTINUOUS
10
128.72
20
-150.695
11
128.625
21
-150.505
0
LINE
8
BLACK
6
CONTINUOUS
10
128.625
20
-150.505
11
128.434
21
-150.219
0
LINE
8
BLACK
6
CONTINUOUS
10
128.434
20
-150.219
11
128.339
21
-150.124
  0
ENDSEC
  0
EOF
