%TF.GenerationSoftware,KiCad,Pcbnew,7.0.8*%
%TF.CreationDate,2024-02-11T15:23:41-08:00*%
%TF.ProjectId,OF1 v1,4f463120-7631-42e6-9b69-6361645f7063,rev?*%
%TF.SameCoordinates,Original*%
%TF.FileFunction,Soldermask,Top*%
%TF.FilePolarity,Negative*%
%FSLAX46Y46*%
G04 Gerber Fmt 4.6, Leading zero omitted, Abs format (unit mm)*
G04 Created by KiCad (PCBNEW 7.0.8) date 2024-02-11 15:23:41*
%MOMM*%
%LPD*%
G01*
G04 APERTURE LIST*
G04 Aperture macros list*
%AMRoundRect*
0 Rectangle with rounded corners*
0 $1 Rounding radius*
0 $2 $3 $4 $5 $6 $7 $8 $9 X,Y pos of 4 corners*
0 Add a 4 corners polygon primitive as box body*
4,1,4,$2,$3,$4,$5,$6,$7,$8,$9,$2,$3,0*
0 Add four circle primitives for the rounded corners*
1,1,$1+$1,$2,$3*
1,1,$1+$1,$4,$5*
1,1,$1+$1,$6,$7*
1,1,$1+$1,$8,$9*
0 Add four rect primitives between the rounded corners*
20,1,$1+$1,$2,$3,$4,$5,0*
20,1,$1+$1,$4,$5,$6,$7,0*
20,1,$1+$1,$6,$7,$8,$9,0*
20,1,$1+$1,$8,$9,$2,$3,0*%
%AMFreePoly0*
4,1,17,0.425901,0.806901,0.806901,0.425901,0.825500,0.381000,0.825500,-0.381000,0.806901,-0.425901,0.425901,-0.806901,0.381000,-0.825500,-0.381000,-0.825500,-0.425901,-0.806901,-0.806901,-0.425901,-0.825500,-0.381000,-0.825500,0.381000,-0.806901,0.425901,-0.425901,0.806901,-0.381000,0.825500,0.381000,0.825500,0.425901,0.806901,0.425901,0.806901,$1*%
G04 Aperture macros list end*
%ADD10C,1.701800*%
%ADD11C,3.000000*%
%ADD12C,3.987800*%
%ADD13C,2.374900*%
%ADD14C,0.300000*%
%ADD15O,3.175000X1.651000*%
%ADD16FreePoly0,0.000000*%
%ADD17O,4.622800X2.374900*%
%ADD18C,9.000000*%
%ADD19C,8.000000*%
%ADD20RoundRect,0.063500X0.605000X0.365000X-0.605000X0.365000X-0.605000X-0.365000X0.605000X-0.365000X0*%
%ADD21RoundRect,0.200000X-0.200000X-0.275000X0.200000X-0.275000X0.200000X0.275000X-0.200000X0.275000X0*%
%ADD22C,8.500000*%
%ADD23C,0.650000*%
%ADD24RoundRect,0.063500X-0.150000X-0.450000X0.150000X-0.450000X0.150000X0.450000X-0.150000X0.450000X0*%
%ADD25C,0.777000*%
%ADD26O,0.877000X1.627000*%
%ADD27C,1.600000*%
%ADD28O,1.600000X1.600000*%
%ADD29C,2.100000*%
%ADD30C,1.500000*%
%ADD31O,3.327000X1.727000*%
%ADD32O,1.727000X3.327000*%
%ADD33RoundRect,0.063500X-0.400000X-0.400000X0.400000X-0.400000X0.400000X0.400000X-0.400000X0.400000X0*%
%ADD34RoundRect,0.063500X-0.620000X0.300000X-0.620000X-0.300000X0.620000X-0.300000X0.620000X0.300000X0*%
%ADD35RoundRect,0.063500X-0.620000X0.150000X-0.620000X-0.150000X0.620000X-0.150000X0.620000X0.150000X0*%
%ADD36O,2.227000X1.127000*%
%ADD37O,1.927000X1.127000*%
%ADD38O,1.651000X3.175000*%
G04 APERTURE END LIST*
D10*
%TO.C,U$15*%
X287921100Y-72757600D03*
D11*
X286651100Y-75297600D03*
D12*
X282841100Y-72757600D03*
D11*
X280301100Y-77837600D03*
D10*
X277761100Y-72757600D03*
D13*
X279031100Y-70217600D03*
X285381100Y-67677600D03*
D14*
X291831100Y-76047600D03*
X291831100Y-74467600D03*
X291096100Y-75297600D03*
X290401100Y-76047600D03*
X290401100Y-74427600D03*
X276531100Y-78607600D03*
X276531100Y-77027600D03*
X275796100Y-77857600D03*
X275101100Y-78607600D03*
X275101100Y-76987600D03*
%TD*%
D10*
%TO.C,U$11*%
X287921100Y-45147600D03*
D11*
X286651100Y-47687600D03*
D12*
X282841100Y-45147600D03*
D11*
X280301100Y-50227600D03*
D10*
X277761100Y-45147600D03*
D13*
X279031100Y-42607600D03*
X285381100Y-40067600D03*
D14*
X291831100Y-48437600D03*
X291831100Y-46857600D03*
X291096100Y-47687600D03*
X290401100Y-48437600D03*
X290401100Y-46817600D03*
X276531100Y-50997600D03*
X276531100Y-49417600D03*
X275796100Y-50247600D03*
X275101100Y-50997600D03*
X275101100Y-49377600D03*
%TD*%
D10*
%TO.C,U$17*%
X226033100Y-118117600D03*
D11*
X224763100Y-120657600D03*
D12*
X220953100Y-118117600D03*
D11*
X218413100Y-123197600D03*
D10*
X215873100Y-118117600D03*
D13*
X217143100Y-115577600D03*
X223493100Y-113037600D03*
D14*
X229943100Y-121407600D03*
X229943100Y-119827600D03*
X229208100Y-120657600D03*
X228513100Y-121407600D03*
X228513100Y-119787600D03*
X214643100Y-123967600D03*
X214643100Y-122387600D03*
X213908100Y-123217600D03*
X213213100Y-123967600D03*
X213213100Y-122347600D03*
%TD*%
D10*
%TO.C,U$6*%
X81213100Y-149302600D03*
D11*
X79943100Y-151842600D03*
D12*
X76133100Y-149302600D03*
D11*
X73593100Y-154382600D03*
D10*
X71053100Y-149302600D03*
D13*
X72323100Y-146762600D03*
X78673100Y-144222600D03*
D14*
X85123100Y-152592600D03*
X85123100Y-151012600D03*
X84388100Y-151842600D03*
X83693100Y-152592600D03*
X83693100Y-150972600D03*
X69823100Y-155152600D03*
X69823100Y-153572600D03*
X69088100Y-154402600D03*
X68393100Y-155152600D03*
X68393100Y-153532600D03*
%TD*%
D10*
%TO.C,U$20*%
X226033100Y-149302600D03*
D11*
X224763100Y-151842600D03*
D12*
X220953100Y-149302600D03*
D11*
X218413100Y-154382600D03*
D10*
X215873100Y-149302600D03*
D13*
X217143100Y-146762600D03*
X223493100Y-144222600D03*
D14*
X229943100Y-152592600D03*
X229943100Y-151012600D03*
X229208100Y-151842600D03*
X228513100Y-152592600D03*
X228513100Y-150972600D03*
X214643100Y-155152600D03*
X214643100Y-153572600D03*
X213908100Y-154402600D03*
X213213100Y-155152600D03*
X213213100Y-153532600D03*
%TD*%
D10*
%TO.C,U$10*%
X259566100Y-42172600D03*
D11*
X258296100Y-44712600D03*
D12*
X254486100Y-42172600D03*
D11*
X251946100Y-47252600D03*
D10*
X249406100Y-42172600D03*
D13*
X250676100Y-39632600D03*
X257026100Y-37092600D03*
D14*
X263476100Y-45462600D03*
X263476100Y-43882600D03*
X262741100Y-44712600D03*
X262046100Y-45462600D03*
X262046100Y-43842600D03*
X248176100Y-48022600D03*
X248176100Y-46442600D03*
X247441100Y-47272600D03*
X246746100Y-48022600D03*
X246746100Y-46402600D03*
%TD*%
D10*
%TO.C,U$13*%
X233048100Y-81777600D03*
D11*
X231778100Y-84317600D03*
D12*
X227968100Y-81777600D03*
D11*
X225428100Y-86857600D03*
D10*
X222888100Y-81777600D03*
D13*
X224158100Y-79237600D03*
X230508100Y-76697600D03*
D14*
X236958100Y-85067600D03*
X236958100Y-83487600D03*
X236223100Y-84317600D03*
X235528100Y-85067600D03*
X235528100Y-83447600D03*
X221658100Y-87627600D03*
X221658100Y-86047600D03*
X220923100Y-86877600D03*
X220228100Y-87627600D03*
X220228100Y-86007600D03*
%TD*%
D10*
%TO.C,U$1*%
X-5953900Y-89417600D03*
D11*
X-7223900Y-91957600D03*
D12*
X-11033900Y-89417600D03*
D11*
X-13573900Y-94497600D03*
D10*
X-16113900Y-89417600D03*
D13*
X-14843900Y-86877600D03*
X-8493900Y-84337600D03*
D14*
X-2043900Y-92707600D03*
X-2043900Y-91127600D03*
X-2778900Y-91957600D03*
X-3473900Y-92707600D03*
X-3473900Y-91087600D03*
X-17343900Y-95267600D03*
X-17343900Y-93687600D03*
X-18078900Y-94517600D03*
X-18773900Y-95267600D03*
X-18773900Y-93647600D03*
%TD*%
D10*
%TO.C,U$21*%
X203346100Y-165072600D03*
D11*
X202076100Y-167612600D03*
D12*
X198266100Y-165072600D03*
D11*
X195726100Y-170152600D03*
D10*
X193186100Y-165072600D03*
D13*
X194456100Y-162532600D03*
X200806100Y-159992600D03*
D14*
X207256100Y-168362600D03*
X207256100Y-166782600D03*
X206521100Y-167612600D03*
X205826100Y-168362600D03*
X205826100Y-166742600D03*
X191956100Y-170922600D03*
X191956100Y-169342600D03*
X191221100Y-170172600D03*
X190526100Y-170922600D03*
X190526100Y-169302600D03*
%TD*%
D10*
%TO.C,U$2*%
X19326100Y-73114600D03*
D11*
X18056100Y-75654600D03*
D12*
X14246100Y-73114600D03*
D11*
X11706100Y-78194600D03*
D10*
X9166100Y-73114600D03*
D13*
X10436100Y-70574600D03*
X16786100Y-68034600D03*
D14*
X23236100Y-76404600D03*
X23236100Y-74824600D03*
X22501100Y-75654600D03*
X21806100Y-76404600D03*
X21806100Y-74784600D03*
X7936100Y-78964600D03*
X7936100Y-77384600D03*
X7201100Y-78214600D03*
X6506100Y-78964600D03*
X6506100Y-77344600D03*
%TD*%
D10*
%TO.C,U$4*%
X47682100Y-70388600D03*
D11*
X46412100Y-72928600D03*
D12*
X42602100Y-70388600D03*
D11*
X40062100Y-75468600D03*
D10*
X37522100Y-70388600D03*
D13*
X38792100Y-67848600D03*
X45142100Y-65308600D03*
D14*
X51592100Y-73678600D03*
X51592100Y-72098600D03*
X50857100Y-72928600D03*
X50162100Y-73678600D03*
X50162100Y-72058600D03*
X36292100Y-76238600D03*
X36292100Y-74658600D03*
X35557100Y-75488600D03*
X34862100Y-76238600D03*
X34862100Y-74618600D03*
%TD*%
D10*
%TO.C,U$7*%
X103901100Y-165071600D03*
D11*
X102631100Y-167611600D03*
D12*
X98821100Y-165071600D03*
D11*
X96281100Y-170151600D03*
D10*
X93741100Y-165071600D03*
D13*
X95011100Y-162531600D03*
X101361100Y-159991600D03*
D14*
X107811100Y-168361600D03*
X107811100Y-166781600D03*
X107076100Y-167611600D03*
X106381100Y-168361600D03*
X106381100Y-166741600D03*
X92511100Y-170921600D03*
X92511100Y-169341600D03*
X91776100Y-170171600D03*
X91081100Y-170921600D03*
X91081100Y-169301600D03*
%TD*%
D10*
%TO.C,U$19*%
X248690100Y-133887600D03*
D11*
X247420100Y-136427600D03*
D12*
X243610100Y-133887600D03*
D11*
X241070100Y-138967600D03*
D10*
X238530100Y-133887600D03*
D13*
X239800100Y-131347600D03*
X246150100Y-128807600D03*
D14*
X252600100Y-137177600D03*
X252600100Y-135597600D03*
X251865100Y-136427600D03*
X251170100Y-137177600D03*
X251170100Y-135557600D03*
X237300100Y-139737600D03*
X237300100Y-138157600D03*
X236565100Y-138987600D03*
X235870100Y-139737600D03*
X235870100Y-138117600D03*
%TD*%
D10*
%TO.C,U$5*%
X74254100Y-82151600D03*
D11*
X72984100Y-84691600D03*
D12*
X69174100Y-82151600D03*
D11*
X66634100Y-87231600D03*
D10*
X64094100Y-82151600D03*
D13*
X65364100Y-79611600D03*
X71714100Y-77071600D03*
D14*
X78164100Y-85441600D03*
X78164100Y-83861600D03*
X77429100Y-84691600D03*
X76734100Y-85441600D03*
X76734100Y-83821600D03*
X62864100Y-88001600D03*
X62864100Y-86421600D03*
X62129100Y-87251600D03*
X61434100Y-88001600D03*
X61434100Y-86381600D03*
%TD*%
D10*
%TO.C,U$18*%
X203346100Y-133887600D03*
D11*
X202076100Y-136427600D03*
D12*
X198266100Y-133887600D03*
D11*
X195726100Y-138967600D03*
D10*
X193186100Y-133887600D03*
D13*
X194456100Y-131347600D03*
X200806100Y-128807600D03*
D14*
X207256100Y-137177600D03*
X207256100Y-135597600D03*
X206521100Y-136427600D03*
X205826100Y-137177600D03*
X205826100Y-135557600D03*
X191956100Y-139737600D03*
X191956100Y-138157600D03*
X191221100Y-138987600D03*
X190526100Y-139737600D03*
X190526100Y-138117600D03*
%TD*%
D10*
%TO.C,U$16*%
X314144100Y-88793600D03*
D11*
X312874100Y-91333600D03*
D12*
X309064100Y-88793600D03*
D11*
X306524100Y-93873600D03*
D10*
X303984100Y-88793600D03*
D13*
X305254100Y-86253600D03*
X311604100Y-83713600D03*
D14*
X318054100Y-92083600D03*
X318054100Y-90503600D03*
X317319100Y-91333600D03*
X316624100Y-92083600D03*
X316624100Y-90463600D03*
X302754100Y-94643600D03*
X302754100Y-93063600D03*
X302019100Y-93893600D03*
X301324100Y-94643600D03*
X301324100Y-93023600D03*
%TD*%
D10*
%TO.C,U$12*%
X314144100Y-61183600D03*
D11*
X312874100Y-63723600D03*
D12*
X309064100Y-61183600D03*
D11*
X306524100Y-66263600D03*
D10*
X303984100Y-61183600D03*
D13*
X305254100Y-58643600D03*
X311604100Y-56103600D03*
D14*
X318054100Y-64473600D03*
X318054100Y-62893600D03*
X317319100Y-63723600D03*
X316624100Y-64473600D03*
X316624100Y-62853600D03*
X302754100Y-67033600D03*
X302754100Y-65453600D03*
X302019100Y-66283600D03*
X301324100Y-67033600D03*
X301324100Y-65413600D03*
%TD*%
D10*
%TO.C,U$9*%
X233048100Y-54168600D03*
D11*
X231778100Y-56708600D03*
D12*
X227968100Y-54168600D03*
D11*
X225428100Y-59248600D03*
D10*
X222888100Y-54168600D03*
D13*
X224158100Y-51628600D03*
X230508100Y-49088600D03*
D14*
X236958100Y-57458600D03*
X236958100Y-55878600D03*
X236223100Y-56708600D03*
X235528100Y-57458600D03*
X235528100Y-55838600D03*
X221658100Y-60018600D03*
X221658100Y-58438600D03*
X220923100Y-59268600D03*
X220228100Y-60018600D03*
X220228100Y-58398600D03*
%TD*%
D10*
%TO.C,U$14*%
X259566100Y-69782600D03*
D11*
X258296100Y-72322600D03*
D12*
X254486100Y-69782600D03*
D11*
X251946100Y-74862600D03*
D10*
X249406100Y-69782600D03*
D13*
X250676100Y-67242600D03*
X257026100Y-64702600D03*
D14*
X263476100Y-73072600D03*
X263476100Y-71492600D03*
X262741100Y-72322600D03*
X262046100Y-73072600D03*
X262046100Y-71452600D03*
X248176100Y-75632600D03*
X248176100Y-74052600D03*
X247441100Y-74882600D03*
X246746100Y-75632600D03*
X246746100Y-74012600D03*
%TD*%
D10*
%TO.C,U$8*%
X153986100Y-82151600D03*
D11*
X152716100Y-84691600D03*
D12*
X148906100Y-82151600D03*
D11*
X146366100Y-87231600D03*
D10*
X143826100Y-82151600D03*
D13*
X145096100Y-79611600D03*
X151446100Y-77071600D03*
D14*
X157896100Y-85441600D03*
X157896100Y-83861600D03*
X157161100Y-84691600D03*
X156466100Y-85441600D03*
X156466100Y-83821600D03*
X142596100Y-88001600D03*
X142596100Y-86421600D03*
X141861100Y-87251600D03*
X141166100Y-88001600D03*
X141166100Y-86381600D03*
%TD*%
D15*
%TO.C,J4*%
X142745065Y-111563600D03*
X142745065Y-109023600D03*
X142745065Y-106483600D03*
X142745065Y-103943600D03*
%TD*%
D16*
%TO.C,JP11*%
X264501100Y-79753600D03*
%TD*%
%TO.C,JP10*%
X238501100Y-87753600D03*
%TD*%
%TO.C,JP5*%
X81501100Y-88753600D03*
%TD*%
D17*
%TO.C,D1*%
X151881100Y-65753600D03*
X167121100Y-65753600D03*
%TD*%
D18*
%TO.C,@HOLE11*%
X174501100Y-45253600D03*
%TD*%
D19*
%TO.C,@HOLE8*%
X184501100Y-71753600D03*
%TD*%
D11*
%TO.C,@HOLE0*%
X68501100Y-166753600D03*
%TD*%
D20*
%TO.C,D2*%
X157610214Y-65844142D03*
X160970214Y-65844142D03*
%TD*%
D16*
%TO.C,JP18*%
X211501100Y-133753600D03*
%TD*%
D19*
%TO.C,@HOLE9*%
X136501100Y-160753600D03*
%TD*%
D21*
%TO.C,R2*%
X154751379Y-53595091D03*
X156401379Y-53595091D03*
%TD*%
D16*
%TO.C,JP6*%
X86501100Y-158753600D03*
%TD*%
D22*
%TO.C,@HOLE14*%
X122501100Y-131553600D03*
%TD*%
D16*
%TO.C,JP14*%
X311501100Y-72753600D03*
%TD*%
%TO.C,JP4*%
X54501100Y-78753600D03*
%TD*%
%TO.C,JP9*%
X241501100Y-60753600D03*
%TD*%
D23*
%TO.C,J2*%
X151168981Y-34593600D03*
X143818981Y-34593600D03*
D24*
X150318981Y-35153600D03*
X149818981Y-35153600D03*
X149318981Y-35153600D03*
X148818981Y-35153600D03*
X148318981Y-35153600D03*
X147818981Y-35153600D03*
X147318981Y-35153600D03*
X146818981Y-35153600D03*
X146318981Y-35153600D03*
X145818981Y-35153600D03*
X145318981Y-35153600D03*
X144818981Y-35153600D03*
D25*
X144768981Y-33943600D03*
X145168981Y-33243600D03*
X145968981Y-33243600D03*
X146368981Y-33943600D03*
X146768981Y-33243600D03*
X147168981Y-33943600D03*
X147968981Y-33943600D03*
X148368981Y-33243600D03*
X148768981Y-33943600D03*
X149168981Y-33243600D03*
X149968981Y-33243600D03*
X150368981Y-33943600D03*
D26*
X151698981Y-33343600D03*
X143438981Y-33343600D03*
X152058981Y-28953600D03*
X143078981Y-28953600D03*
%TD*%
D16*
%TO.C,JP16*%
X291501100Y-83753600D03*
%TD*%
D18*
%TO.C,@HOLE13*%
X30301100Y-43453600D03*
%TD*%
D11*
%TO.C,@HOLE1*%
X284501100Y-147753600D03*
%TD*%
D16*
%TO.C,JP20*%
X235501100Y-150753600D03*
%TD*%
%TO.C,JP13*%
X294501100Y-54753600D03*
%TD*%
%TO.C,JP17*%
X236501100Y-125753600D03*
%TD*%
%TO.C,JP12*%
X268501100Y-39753600D03*
%TD*%
D11*
%TO.C,@HOLE2*%
X-19498900Y-154753600D03*
%TD*%
D27*
%TO.C,R3*%
X151781476Y-59692391D03*
D28*
X159401476Y-59692391D03*
%TD*%
D29*
%TO.C,J1*%
X21801100Y-128253600D03*
X21801100Y-175253600D03*
D30*
X24776100Y-127753600D03*
X25076100Y-130783600D03*
X29926100Y-130783600D03*
X30226100Y-127753600D03*
D29*
X33201100Y-128253600D03*
X33201100Y-175253600D03*
D31*
X37191100Y-137783600D03*
X37191100Y-135243600D03*
X37191100Y-140323600D03*
X37191100Y-145403600D03*
X17811100Y-132703600D03*
X17811100Y-145403600D03*
X17811100Y-158103600D03*
X17811100Y-170803600D03*
D32*
X27501100Y-176453600D03*
D31*
X37191100Y-170803600D03*
X37191100Y-158103600D03*
X37191100Y-132703600D03*
X17811100Y-127623600D03*
X17811100Y-130163600D03*
X17811100Y-135243600D03*
X17811100Y-137783600D03*
X17811100Y-140323600D03*
X17811100Y-142863600D03*
X17811100Y-147943600D03*
X17811100Y-150483600D03*
X17811100Y-153023600D03*
X17811100Y-155563600D03*
X17811100Y-160643600D03*
X17811100Y-163183600D03*
X17811100Y-165723600D03*
X17811100Y-168263600D03*
X17811100Y-173343600D03*
X17811100Y-175883600D03*
X37191100Y-175883600D03*
X37191100Y-173343600D03*
X37191100Y-168263600D03*
X37191100Y-165723600D03*
X37191100Y-163183600D03*
X37191100Y-160643600D03*
X37191100Y-155563600D03*
X37191100Y-150483600D03*
X37191100Y-147943600D03*
X37191100Y-142863600D03*
X37191100Y-153023600D03*
D32*
X24961100Y-176453600D03*
X30041100Y-176453600D03*
D33*
X28501100Y-127453600D03*
X26501100Y-127453600D03*
D31*
X37191100Y-127623600D03*
X37191100Y-130163600D03*
%TD*%
D16*
%TO.C,JP15*%
X313501100Y-100753600D03*
%TD*%
D21*
%TO.C,R4*%
X154825956Y-59663792D03*
X156475956Y-59663792D03*
%TD*%
D11*
%TO.C,@HOLE10*%
X119501100Y-59753600D03*
%TD*%
D18*
%TO.C,@HOLE15*%
X256501100Y-161753600D03*
%TD*%
D19*
%TO.C,@HOLE6*%
X-13498900Y-143753600D03*
%TD*%
D11*
%TO.C,@HOLE16*%
X71501100Y-125753600D03*
%TD*%
%TO.C,@HOLE3*%
X182501100Y-126753600D03*
%TD*%
D18*
%TO.C,@HOLE12*%
X-11098900Y-108953600D03*
%TD*%
D19*
%TO.C,@HOLE4*%
X268501100Y-54753600D03*
%TD*%
D16*
%TO.C,JP7*%
X112501100Y-161753600D03*
%TD*%
D23*
%TO.C,J5*%
X122579393Y-105081075D03*
X122579393Y-110861075D03*
D34*
X123699393Y-104771075D03*
X123699393Y-105571075D03*
D35*
X123699393Y-106721075D03*
X123699393Y-107721075D03*
X123699393Y-108221075D03*
X123699393Y-109221075D03*
D34*
X123699393Y-111171075D03*
X123699393Y-110371075D03*
D35*
X123699393Y-109721075D03*
X123699393Y-108721075D03*
X123699393Y-107221075D03*
X123699393Y-106221075D03*
D36*
X123079393Y-103651075D03*
D37*
X118899393Y-103651075D03*
D36*
X123079393Y-112291075D03*
D37*
X118899393Y-112291075D03*
%TD*%
D16*
%TO.C,JP2*%
X2501100Y-96753600D03*
%TD*%
%TO.C,JP8*%
X156501100Y-94753600D03*
%TD*%
%TO.C,JP21*%
X183501100Y-171753600D03*
%TD*%
%TO.C,JP19*%
X257501100Y-141753600D03*
%TD*%
D38*
%TO.C,J3*%
X162151100Y-32753600D03*
X164691100Y-32753600D03*
X167231100Y-32753600D03*
X169771100Y-32753600D03*
X172311100Y-32753600D03*
X174851100Y-32753600D03*
%TD*%
D19*
%TO.C,@HOLE5*%
X276501100Y-158753600D03*
%TD*%
D27*
%TO.C,R1*%
X151826963Y-53595091D03*
D28*
X159446963Y-53595091D03*
%TD*%
D19*
%TO.C,@HOLE7*%
X65501100Y-49753600D03*
%TD*%
D16*
%TO.C,JP3*%
X17501100Y-85753600D03*
%TD*%
M02*
