%TF.GenerationSoftware,KiCad,Pcbnew,7.0.8*%
%TF.CreationDate,2024-02-11T15:23:41-08:00*%
%TF.ProjectId,OF1 v1,4f463120-7631-42e6-9b69-6361645f7063,rev?*%
%TF.SameCoordinates,Original*%
%TF.FileFunction,Legend,Top*%
%TF.FilePolarity,Positive*%
%FSLAX46Y46*%
G04 Gerber Fmt 4.6, Leading zero omitted, Abs format (unit mm)*
G04 Created by KiCad (PCBNEW 7.0.8) date 2024-02-11 15:23:41*
%MOMM*%
%LPD*%
G01*
G04 APERTURE LIST*
G04 Aperture macros list*
%AMRoundRect*
0 Rectangle with rounded corners*
0 $1 Rounding radius*
0 $2 $3 $4 $5 $6 $7 $8 $9 X,Y pos of 4 corners*
0 Add a 4 corners polygon primitive as box body*
4,1,4,$2,$3,$4,$5,$6,$7,$8,$9,$2,$3,0*
0 Add four circle primitives for the rounded corners*
1,1,$1+$1,$2,$3*
1,1,$1+$1,$4,$5*
1,1,$1+$1,$6,$7*
1,1,$1+$1,$8,$9*
0 Add four rect primitives between the rounded corners*
20,1,$1+$1,$2,$3,$4,$5,0*
20,1,$1+$1,$4,$5,$6,$7,0*
20,1,$1+$1,$6,$7,$8,$9,0*
20,1,$1+$1,$8,$9,$2,$3,0*%
%AMFreePoly0*
4,1,17,0.425901,0.806901,0.806901,0.425901,0.825500,0.381000,0.825500,-0.381000,0.806901,-0.425901,0.425901,-0.806901,0.381000,-0.825500,-0.381000,-0.825500,-0.425901,-0.806901,-0.806901,-0.425901,-0.825500,-0.381000,-0.825500,0.381000,-0.806901,0.425901,-0.425901,0.806901,-0.381000,0.825500,0.381000,0.825500,0.425901,0.806901,0.425901,0.806901,$1*%
G04 Aperture macros list end*
%ADD10C,0.200000*%
%ADD11C,0.065024*%
%ADD12C,0.142240*%
%ADD13C,0.150000*%
%ADD14C,0.114300*%
%ADD15C,0.127000*%
%ADD16C,0.044941*%
%ADD17C,0.076200*%
%ADD18C,0.152400*%
%ADD19C,0.120000*%
%ADD20C,0.020000*%
%ADD21C,1.701800*%
%ADD22C,3.000000*%
%ADD23C,3.987800*%
%ADD24C,2.374900*%
%ADD25C,0.300000*%
%ADD26O,3.175000X1.651000*%
%ADD27FreePoly0,0.000000*%
%ADD28O,4.622800X2.374900*%
%ADD29C,9.000000*%
%ADD30C,8.000000*%
%ADD31RoundRect,0.063500X0.605000X0.365000X-0.605000X0.365000X-0.605000X-0.365000X0.605000X-0.365000X0*%
%ADD32RoundRect,0.200000X-0.200000X-0.275000X0.200000X-0.275000X0.200000X0.275000X-0.200000X0.275000X0*%
%ADD33C,8.500000*%
%ADD34C,0.650000*%
%ADD35RoundRect,0.063500X-0.150000X-0.450000X0.150000X-0.450000X0.150000X0.450000X-0.150000X0.450000X0*%
%ADD36C,0.777000*%
%ADD37O,0.877000X1.627000*%
%ADD38C,1.600000*%
%ADD39O,1.600000X1.600000*%
%ADD40C,2.100000*%
%ADD41C,1.500000*%
%ADD42O,3.327000X1.727000*%
%ADD43O,1.727000X3.327000*%
%ADD44RoundRect,0.063500X-0.400000X-0.400000X0.400000X-0.400000X0.400000X0.400000X-0.400000X0.400000X0*%
%ADD45RoundRect,0.063500X-0.620000X0.300000X-0.620000X-0.300000X0.620000X-0.300000X0.620000X0.300000X0*%
%ADD46RoundRect,0.063500X-0.620000X0.150000X-0.620000X-0.150000X0.620000X-0.150000X0.620000X0.150000X0*%
%ADD47O,2.227000X1.127000*%
%ADD48O,1.927000X1.127000*%
%ADD49O,1.651000X3.175000*%
G04 APERTURE END LIST*
D10*
X73737165Y-125753600D02*
G75*
G03*
X73737165Y-125753600I-2236065J0D01*
G01*
X145500000Y-50200000D02*
X170500000Y-50200000D01*
X170501100Y-50753600D02*
X170501100Y-73753600D01*
X170501100Y-73753600D02*
X145501100Y-73753600D01*
X162272621Y-34794232D02*
X164674246Y-34794232D01*
X145501100Y-73753600D02*
X145501100Y-50753600D01*
X164706284Y-33815094D02*
X164690587Y-33799397D01*
X163421272Y-34948854D02*
X163421272Y-36958357D01*
X164691100Y-34802747D02*
X164691100Y-34410263D01*
X162272621Y-34378054D02*
X162272621Y-34801935D01*
D11*
X145263393Y-110492794D02*
X145192176Y-110457186D01*
X145192176Y-110457186D02*
X145085351Y-110457186D01*
X145085351Y-110457186D02*
X144978526Y-110492794D01*
X144978526Y-110492794D02*
X144907309Y-110564011D01*
X144907309Y-110564011D02*
X144871700Y-110635228D01*
X144871700Y-110635228D02*
X144836092Y-110777661D01*
X144836092Y-110777661D02*
X144836092Y-110884486D01*
X144836092Y-110884486D02*
X144871700Y-111026920D01*
X144871700Y-111026920D02*
X144907309Y-111098137D01*
X144907309Y-111098137D02*
X144978526Y-111169354D01*
X144978526Y-111169354D02*
X145085351Y-111204962D01*
X145085351Y-111204962D02*
X145156567Y-111204962D01*
X145156567Y-111204962D02*
X145263393Y-111169354D01*
X145263393Y-111169354D02*
X145299001Y-111133745D01*
X145299001Y-111133745D02*
X145299001Y-110884486D01*
X145299001Y-110884486D02*
X145156567Y-110884486D01*
X145619476Y-111204962D02*
X145619476Y-110457186D01*
X145619476Y-110457186D02*
X146046777Y-111204962D01*
X146046777Y-111204962D02*
X146046777Y-110457186D01*
X146402860Y-111204962D02*
X146402860Y-110457186D01*
X146402860Y-110457186D02*
X146580902Y-110457186D01*
X146580902Y-110457186D02*
X146687727Y-110492794D01*
X146687727Y-110492794D02*
X146758944Y-110564011D01*
X146758944Y-110564011D02*
X146794553Y-110635228D01*
X146794553Y-110635228D02*
X146830161Y-110777661D01*
X146830161Y-110777661D02*
X146830161Y-110884486D01*
X146830161Y-110884486D02*
X146794553Y-111026920D01*
X146794553Y-111026920D02*
X146758944Y-111098137D01*
X146758944Y-111098137D02*
X146687727Y-111169354D01*
X146687727Y-111169354D02*
X146580902Y-111204962D01*
X146580902Y-111204962D02*
X146402860Y-111204962D01*
X171790550Y-37950396D02*
X171790550Y-37487487D01*
X171790550Y-37487487D02*
X172075417Y-37736746D01*
X172075417Y-37736746D02*
X172075417Y-37629921D01*
X172075417Y-37629921D02*
X172111025Y-37558704D01*
X172111025Y-37558704D02*
X172146634Y-37523096D01*
X172146634Y-37523096D02*
X172217850Y-37487487D01*
X172217850Y-37487487D02*
X172395892Y-37487487D01*
X172395892Y-37487487D02*
X172467109Y-37523096D01*
X172467109Y-37523096D02*
X172502718Y-37558704D01*
X172502718Y-37558704D02*
X172538326Y-37629921D01*
X172538326Y-37629921D02*
X172538326Y-37843571D01*
X172538326Y-37843571D02*
X172502718Y-37914788D01*
X172502718Y-37914788D02*
X172467109Y-37950396D01*
X171790550Y-37273837D02*
X172538326Y-37024578D01*
X172538326Y-37024578D02*
X171790550Y-36775319D01*
X171790550Y-36597277D02*
X171790550Y-36134368D01*
X171790550Y-36134368D02*
X172075417Y-36383627D01*
X172075417Y-36383627D02*
X172075417Y-36276802D01*
X172075417Y-36276802D02*
X172111025Y-36205585D01*
X172111025Y-36205585D02*
X172146634Y-36169977D01*
X172146634Y-36169977D02*
X172217850Y-36134368D01*
X172217850Y-36134368D02*
X172395892Y-36134368D01*
X172395892Y-36134368D02*
X172467109Y-36169977D01*
X172467109Y-36169977D02*
X172502718Y-36205585D01*
X172502718Y-36205585D02*
X172538326Y-36276802D01*
X172538326Y-36276802D02*
X172538326Y-36490452D01*
X172538326Y-36490452D02*
X172502718Y-36561669D01*
X172502718Y-36561669D02*
X172467109Y-36597277D01*
X172538326Y-35244159D02*
X172039809Y-35244159D01*
X171790550Y-35244159D02*
X171826158Y-35279767D01*
X171826158Y-35279767D02*
X171861767Y-35244159D01*
X171861767Y-35244159D02*
X171826158Y-35208550D01*
X171826158Y-35208550D02*
X171790550Y-35244159D01*
X171790550Y-35244159D02*
X171861767Y-35244159D01*
X172039809Y-34888075D02*
X172538326Y-34888075D01*
X172111025Y-34888075D02*
X172075417Y-34852466D01*
X172075417Y-34852466D02*
X172039809Y-34781249D01*
X172039809Y-34781249D02*
X172039809Y-34674424D01*
X172039809Y-34674424D02*
X172075417Y-34603208D01*
X172075417Y-34603208D02*
X172146634Y-34567599D01*
X172146634Y-34567599D02*
X172538326Y-34567599D01*
X174453215Y-39002436D02*
X174453215Y-39358520D01*
X174453215Y-39358520D02*
X174809299Y-39394128D01*
X174809299Y-39394128D02*
X174773690Y-39358520D01*
X174773690Y-39358520D02*
X174738082Y-39287303D01*
X174738082Y-39287303D02*
X174738082Y-39109261D01*
X174738082Y-39109261D02*
X174773690Y-39038044D01*
X174773690Y-39038044D02*
X174809299Y-39002436D01*
X174809299Y-39002436D02*
X174880515Y-38966827D01*
X174880515Y-38966827D02*
X175058557Y-38966827D01*
X175058557Y-38966827D02*
X175129774Y-39002436D01*
X175129774Y-39002436D02*
X175165383Y-39038044D01*
X175165383Y-39038044D02*
X175200991Y-39109261D01*
X175200991Y-39109261D02*
X175200991Y-39287303D01*
X175200991Y-39287303D02*
X175165383Y-39358520D01*
X175165383Y-39358520D02*
X175129774Y-39394128D01*
X174453215Y-38753177D02*
X175200991Y-38503918D01*
X175200991Y-38503918D02*
X174453215Y-38254659D01*
X174417607Y-37471275D02*
X175379033Y-38112226D01*
X174453215Y-37328842D02*
X175200991Y-37079583D01*
X175200991Y-37079583D02*
X174453215Y-36830324D01*
X174809299Y-36331807D02*
X174844907Y-36224982D01*
X174844907Y-36224982D02*
X174880515Y-36189373D01*
X174880515Y-36189373D02*
X174951732Y-36153765D01*
X174951732Y-36153765D02*
X175058557Y-36153765D01*
X175058557Y-36153765D02*
X175129774Y-36189373D01*
X175129774Y-36189373D02*
X175165383Y-36224982D01*
X175165383Y-36224982D02*
X175200991Y-36296199D01*
X175200991Y-36296199D02*
X175200991Y-36581066D01*
X175200991Y-36581066D02*
X174453215Y-36581066D01*
X174453215Y-36581066D02*
X174453215Y-36331807D01*
X174453215Y-36331807D02*
X174488823Y-36260590D01*
X174488823Y-36260590D02*
X174524432Y-36224982D01*
X174524432Y-36224982D02*
X174595648Y-36189373D01*
X174595648Y-36189373D02*
X174666865Y-36189373D01*
X174666865Y-36189373D02*
X174738082Y-36224982D01*
X174738082Y-36224982D02*
X174773690Y-36260590D01*
X174773690Y-36260590D02*
X174809299Y-36331807D01*
X174809299Y-36331807D02*
X174809299Y-36581066D01*
X174453215Y-35833290D02*
X175058557Y-35833290D01*
X175058557Y-35833290D02*
X175129774Y-35797681D01*
X175129774Y-35797681D02*
X175165383Y-35762073D01*
X175165383Y-35762073D02*
X175200991Y-35690856D01*
X175200991Y-35690856D02*
X175200991Y-35548423D01*
X175200991Y-35548423D02*
X175165383Y-35477206D01*
X175165383Y-35477206D02*
X175129774Y-35441597D01*
X175129774Y-35441597D02*
X175058557Y-35405989D01*
X175058557Y-35405989D02*
X174453215Y-35405989D01*
X175165383Y-35085514D02*
X175200991Y-34978689D01*
X175200991Y-34978689D02*
X175200991Y-34800647D01*
X175200991Y-34800647D02*
X175165383Y-34729430D01*
X175165383Y-34729430D02*
X175129774Y-34693822D01*
X175129774Y-34693822D02*
X175058557Y-34658213D01*
X175058557Y-34658213D02*
X174987341Y-34658213D01*
X174987341Y-34658213D02*
X174916124Y-34693822D01*
X174916124Y-34693822D02*
X174880515Y-34729430D01*
X174880515Y-34729430D02*
X174844907Y-34800647D01*
X174844907Y-34800647D02*
X174809299Y-34943080D01*
X174809299Y-34943080D02*
X174773690Y-35014297D01*
X174773690Y-35014297D02*
X174738082Y-35049906D01*
X174738082Y-35049906D02*
X174666865Y-35085514D01*
X174666865Y-35085514D02*
X174595648Y-35085514D01*
X174595648Y-35085514D02*
X174524432Y-35049906D01*
X174524432Y-35049906D02*
X174488823Y-35014297D01*
X174488823Y-35014297D02*
X174453215Y-34943080D01*
X174453215Y-34943080D02*
X174453215Y-34765039D01*
X174453215Y-34765039D02*
X174488823Y-34658213D01*
X144898665Y-106015030D02*
X144898665Y-105267254D01*
X144898665Y-105267254D02*
X145076707Y-105267254D01*
X145076707Y-105267254D02*
X145183532Y-105302862D01*
X145183532Y-105302862D02*
X145254749Y-105374079D01*
X145254749Y-105374079D02*
X145290358Y-105445296D01*
X145290358Y-105445296D02*
X145325966Y-105587729D01*
X145325966Y-105587729D02*
X145325966Y-105694554D01*
X145325966Y-105694554D02*
X145290358Y-105836988D01*
X145290358Y-105836988D02*
X145254749Y-105908205D01*
X145254749Y-105908205D02*
X145183532Y-105979422D01*
X145183532Y-105979422D02*
X145076707Y-106015030D01*
X145076707Y-106015030D02*
X144898665Y-106015030D01*
X145646441Y-105730163D02*
X146216176Y-105730163D01*
X166745029Y-37986005D02*
X167492805Y-37736746D01*
X167492805Y-37736746D02*
X166745029Y-37487487D01*
X167457197Y-37273837D02*
X167492805Y-37167012D01*
X167492805Y-37167012D02*
X167492805Y-36988970D01*
X167492805Y-36988970D02*
X167457197Y-36917753D01*
X167457197Y-36917753D02*
X167421588Y-36882145D01*
X167421588Y-36882145D02*
X167350371Y-36846536D01*
X167350371Y-36846536D02*
X167279155Y-36846536D01*
X167279155Y-36846536D02*
X167207938Y-36882145D01*
X167207938Y-36882145D02*
X167172329Y-36917753D01*
X167172329Y-36917753D02*
X167136721Y-36988970D01*
X167136721Y-36988970D02*
X167101113Y-37131403D01*
X167101113Y-37131403D02*
X167065504Y-37202620D01*
X167065504Y-37202620D02*
X167029896Y-37238229D01*
X167029896Y-37238229D02*
X166958679Y-37273837D01*
X166958679Y-37273837D02*
X166887462Y-37273837D01*
X166887462Y-37273837D02*
X166816246Y-37238229D01*
X166816246Y-37238229D02*
X166780637Y-37202620D01*
X166780637Y-37202620D02*
X166745029Y-37131403D01*
X166745029Y-37131403D02*
X166745029Y-36953362D01*
X166745029Y-36953362D02*
X166780637Y-36846536D01*
X167136721Y-36383627D02*
X167492805Y-36383627D01*
X166745029Y-36632886D02*
X167136721Y-36383627D01*
X167136721Y-36383627D02*
X166745029Y-36134368D01*
X167457197Y-35920718D02*
X167492805Y-35813893D01*
X167492805Y-35813893D02*
X167492805Y-35635851D01*
X167492805Y-35635851D02*
X167457197Y-35564634D01*
X167457197Y-35564634D02*
X167421588Y-35529026D01*
X167421588Y-35529026D02*
X167350371Y-35493417D01*
X167350371Y-35493417D02*
X167279155Y-35493417D01*
X167279155Y-35493417D02*
X167207938Y-35529026D01*
X167207938Y-35529026D02*
X167172329Y-35564634D01*
X167172329Y-35564634D02*
X167136721Y-35635851D01*
X167136721Y-35635851D02*
X167101113Y-35778284D01*
X167101113Y-35778284D02*
X167065504Y-35849501D01*
X167065504Y-35849501D02*
X167029896Y-35885110D01*
X167029896Y-35885110D02*
X166958679Y-35920718D01*
X166958679Y-35920718D02*
X166887462Y-35920718D01*
X166887462Y-35920718D02*
X166816246Y-35885110D01*
X166816246Y-35885110D02*
X166780637Y-35849501D01*
X166780637Y-35849501D02*
X166745029Y-35778284D01*
X166745029Y-35778284D02*
X166745029Y-35600243D01*
X166745029Y-35600243D02*
X166780637Y-35493417D01*
X170105305Y-37879180D02*
X169357529Y-37879180D01*
X169357529Y-37879180D02*
X169357529Y-37701138D01*
X169357529Y-37701138D02*
X169393137Y-37594313D01*
X169393137Y-37594313D02*
X169464354Y-37523096D01*
X169464354Y-37523096D02*
X169535571Y-37487487D01*
X169535571Y-37487487D02*
X169678004Y-37451879D01*
X169678004Y-37451879D02*
X169784829Y-37451879D01*
X169784829Y-37451879D02*
X169927263Y-37487487D01*
X169927263Y-37487487D02*
X169998480Y-37523096D01*
X169998480Y-37523096D02*
X170069697Y-37594313D01*
X170069697Y-37594313D02*
X170105305Y-37701138D01*
X170105305Y-37701138D02*
X170105305Y-37879180D01*
X169891655Y-37167012D02*
X169891655Y-36810928D01*
X170105305Y-37238229D02*
X169357529Y-36988970D01*
X169357529Y-36988970D02*
X170105305Y-36739711D01*
X169357529Y-36597278D02*
X169357529Y-36169977D01*
X170105305Y-36383627D02*
X169357529Y-36383627D01*
X169891655Y-35956327D02*
X169891655Y-35600243D01*
X170105305Y-36027544D02*
X169357529Y-35778285D01*
X169357529Y-35778285D02*
X170105305Y-35529026D01*
X162762502Y-37292937D02*
X162691285Y-37257329D01*
X162691285Y-37257329D02*
X162584460Y-37257329D01*
X162584460Y-37257329D02*
X162477635Y-37292937D01*
X162477635Y-37292937D02*
X162406418Y-37364154D01*
X162406418Y-37364154D02*
X162370809Y-37435371D01*
X162370809Y-37435371D02*
X162335201Y-37577804D01*
X162335201Y-37577804D02*
X162335201Y-37684629D01*
X162335201Y-37684629D02*
X162370809Y-37827063D01*
X162370809Y-37827063D02*
X162406418Y-37898280D01*
X162406418Y-37898280D02*
X162477635Y-37969497D01*
X162477635Y-37969497D02*
X162584460Y-38005105D01*
X162584460Y-38005105D02*
X162655676Y-38005105D01*
X162655676Y-38005105D02*
X162762502Y-37969497D01*
X162762502Y-37969497D02*
X162798110Y-37933888D01*
X162798110Y-37933888D02*
X162798110Y-37684629D01*
X162798110Y-37684629D02*
X162655676Y-37684629D01*
X163118585Y-38005105D02*
X163118585Y-37257329D01*
X163118585Y-37257329D02*
X163545886Y-38005105D01*
X163545886Y-38005105D02*
X163545886Y-37257329D01*
X163901969Y-38005105D02*
X163901969Y-37257329D01*
X163901969Y-37257329D02*
X164080011Y-37257329D01*
X164080011Y-37257329D02*
X164186836Y-37292937D01*
X164186836Y-37292937D02*
X164258053Y-37364154D01*
X164258053Y-37364154D02*
X164293662Y-37435371D01*
X164293662Y-37435371D02*
X164329270Y-37577804D01*
X164329270Y-37577804D02*
X164329270Y-37684629D01*
X164329270Y-37684629D02*
X164293662Y-37827063D01*
X164293662Y-37827063D02*
X164258053Y-37898280D01*
X164258053Y-37898280D02*
X164186836Y-37969497D01*
X164186836Y-37969497D02*
X164080011Y-38005105D01*
X164080011Y-38005105D02*
X163901969Y-38005105D01*
D12*
X143448591Y-70634294D02*
X143448591Y-70443818D01*
X143448591Y-70443818D02*
X143496210Y-70348580D01*
X143496210Y-70348580D02*
X143591448Y-70253342D01*
X143591448Y-70253342D02*
X143781924Y-70205723D01*
X143781924Y-70205723D02*
X144115257Y-70205723D01*
X144115257Y-70205723D02*
X144305733Y-70253342D01*
X144305733Y-70253342D02*
X144400972Y-70348580D01*
X144400972Y-70348580D02*
X144448591Y-70443818D01*
X144448591Y-70443818D02*
X144448591Y-70634294D01*
X144448591Y-70634294D02*
X144400972Y-70729532D01*
X144400972Y-70729532D02*
X144305733Y-70824770D01*
X144305733Y-70824770D02*
X144115257Y-70872389D01*
X144115257Y-70872389D02*
X143781924Y-70872389D01*
X143781924Y-70872389D02*
X143591448Y-70824770D01*
X143591448Y-70824770D02*
X143496210Y-70729532D01*
X143496210Y-70729532D02*
X143448591Y-70634294D01*
X143781924Y-69777151D02*
X144448591Y-69777151D01*
X143877162Y-69777151D02*
X143829543Y-69729532D01*
X143829543Y-69729532D02*
X143781924Y-69634294D01*
X143781924Y-69634294D02*
X143781924Y-69491437D01*
X143781924Y-69491437D02*
X143829543Y-69396199D01*
X143829543Y-69396199D02*
X143924781Y-69348580D01*
X143924781Y-69348580D02*
X144448591Y-69348580D01*
X144448591Y-68729532D02*
X144400972Y-68824770D01*
X144400972Y-68824770D02*
X144305733Y-68872389D01*
X144305733Y-68872389D02*
X143448591Y-68872389D01*
X143781924Y-68443817D02*
X144448591Y-68205722D01*
X143781924Y-67967627D02*
X144448591Y-68205722D01*
X144448591Y-68205722D02*
X144686686Y-68300960D01*
X144686686Y-68300960D02*
X144734305Y-68348579D01*
X144734305Y-68348579D02*
X144781924Y-68443817D01*
X143781924Y-66824769D02*
X144781924Y-66824769D01*
X143829543Y-66824769D02*
X143781924Y-66729531D01*
X143781924Y-66729531D02*
X143781924Y-66539055D01*
X143781924Y-66539055D02*
X143829543Y-66443817D01*
X143829543Y-66443817D02*
X143877162Y-66396198D01*
X143877162Y-66396198D02*
X143972400Y-66348579D01*
X143972400Y-66348579D02*
X144258114Y-66348579D01*
X144258114Y-66348579D02*
X144353352Y-66396198D01*
X144353352Y-66396198D02*
X144400972Y-66443817D01*
X144400972Y-66443817D02*
X144448591Y-66539055D01*
X144448591Y-66539055D02*
X144448591Y-66729531D01*
X144448591Y-66729531D02*
X144400972Y-66824769D01*
X144448591Y-65777150D02*
X144400972Y-65872388D01*
X144400972Y-65872388D02*
X144305733Y-65920007D01*
X144305733Y-65920007D02*
X143448591Y-65920007D01*
X144448591Y-64967626D02*
X143924781Y-64967626D01*
X143924781Y-64967626D02*
X143829543Y-65015245D01*
X143829543Y-65015245D02*
X143781924Y-65110483D01*
X143781924Y-65110483D02*
X143781924Y-65300959D01*
X143781924Y-65300959D02*
X143829543Y-65396197D01*
X144400972Y-64967626D02*
X144448591Y-65062864D01*
X144448591Y-65062864D02*
X144448591Y-65300959D01*
X144448591Y-65300959D02*
X144400972Y-65396197D01*
X144400972Y-65396197D02*
X144305733Y-65443816D01*
X144305733Y-65443816D02*
X144210495Y-65443816D01*
X144210495Y-65443816D02*
X144115257Y-65396197D01*
X144115257Y-65396197D02*
X144067638Y-65300959D01*
X144067638Y-65300959D02*
X144067638Y-65062864D01*
X144067638Y-65062864D02*
X144020019Y-64967626D01*
X144400972Y-64062864D02*
X144448591Y-64158102D01*
X144448591Y-64158102D02*
X144448591Y-64348578D01*
X144448591Y-64348578D02*
X144400972Y-64443816D01*
X144400972Y-64443816D02*
X144353352Y-64491435D01*
X144353352Y-64491435D02*
X144258114Y-64539054D01*
X144258114Y-64539054D02*
X143972400Y-64539054D01*
X143972400Y-64539054D02*
X143877162Y-64491435D01*
X143877162Y-64491435D02*
X143829543Y-64443816D01*
X143829543Y-64443816D02*
X143781924Y-64348578D01*
X143781924Y-64348578D02*
X143781924Y-64158102D01*
X143781924Y-64158102D02*
X143829543Y-64062864D01*
X144400972Y-63253340D02*
X144448591Y-63348578D01*
X144448591Y-63348578D02*
X144448591Y-63539054D01*
X144448591Y-63539054D02*
X144400972Y-63634292D01*
X144400972Y-63634292D02*
X144305733Y-63681911D01*
X144305733Y-63681911D02*
X143924781Y-63681911D01*
X143924781Y-63681911D02*
X143829543Y-63634292D01*
X143829543Y-63634292D02*
X143781924Y-63539054D01*
X143781924Y-63539054D02*
X143781924Y-63348578D01*
X143781924Y-63348578D02*
X143829543Y-63253340D01*
X143829543Y-63253340D02*
X143924781Y-63205721D01*
X143924781Y-63205721D02*
X144020019Y-63205721D01*
X144020019Y-63205721D02*
X144115257Y-63681911D01*
X144448591Y-61872387D02*
X144400972Y-61967625D01*
X144400972Y-61967625D02*
X144353352Y-62015244D01*
X144353352Y-62015244D02*
X144258114Y-62062863D01*
X144258114Y-62062863D02*
X143972400Y-62062863D01*
X143972400Y-62062863D02*
X143877162Y-62015244D01*
X143877162Y-62015244D02*
X143829543Y-61967625D01*
X143829543Y-61967625D02*
X143781924Y-61872387D01*
X143781924Y-61872387D02*
X143781924Y-61729530D01*
X143781924Y-61729530D02*
X143829543Y-61634292D01*
X143829543Y-61634292D02*
X143877162Y-61586673D01*
X143877162Y-61586673D02*
X143972400Y-61539054D01*
X143972400Y-61539054D02*
X144258114Y-61539054D01*
X144258114Y-61539054D02*
X144353352Y-61586673D01*
X144353352Y-61586673D02*
X144400972Y-61634292D01*
X144400972Y-61634292D02*
X144448591Y-61729530D01*
X144448591Y-61729530D02*
X144448591Y-61872387D01*
X143781924Y-61110482D02*
X144448591Y-61110482D01*
X143877162Y-61110482D02*
X143829543Y-61062863D01*
X143829543Y-61062863D02*
X143781924Y-60967625D01*
X143781924Y-60967625D02*
X143781924Y-60824768D01*
X143781924Y-60824768D02*
X143829543Y-60729530D01*
X143829543Y-60729530D02*
X143924781Y-60681911D01*
X143924781Y-60681911D02*
X144448591Y-60681911D01*
X144400972Y-59824768D02*
X144448591Y-59920006D01*
X144448591Y-59920006D02*
X144448591Y-60110482D01*
X144448591Y-60110482D02*
X144400972Y-60205720D01*
X144400972Y-60205720D02*
X144305733Y-60253339D01*
X144305733Y-60253339D02*
X143924781Y-60253339D01*
X143924781Y-60253339D02*
X143829543Y-60205720D01*
X143829543Y-60205720D02*
X143781924Y-60110482D01*
X143781924Y-60110482D02*
X143781924Y-59920006D01*
X143781924Y-59920006D02*
X143829543Y-59824768D01*
X143829543Y-59824768D02*
X143924781Y-59777149D01*
X143924781Y-59777149D02*
X144020019Y-59777149D01*
X144020019Y-59777149D02*
X144115257Y-60253339D01*
X144448591Y-58443815D02*
X144400972Y-58539053D01*
X144400972Y-58539053D02*
X144353352Y-58586672D01*
X144353352Y-58586672D02*
X144258114Y-58634291D01*
X144258114Y-58634291D02*
X143972400Y-58634291D01*
X143972400Y-58634291D02*
X143877162Y-58586672D01*
X143877162Y-58586672D02*
X143829543Y-58539053D01*
X143829543Y-58539053D02*
X143781924Y-58443815D01*
X143781924Y-58443815D02*
X143781924Y-58300958D01*
X143781924Y-58300958D02*
X143829543Y-58205720D01*
X143829543Y-58205720D02*
X143877162Y-58158101D01*
X143877162Y-58158101D02*
X143972400Y-58110482D01*
X143972400Y-58110482D02*
X144258114Y-58110482D01*
X144258114Y-58110482D02*
X144353352Y-58158101D01*
X144353352Y-58158101D02*
X144400972Y-58205720D01*
X144400972Y-58205720D02*
X144448591Y-58300958D01*
X144448591Y-58300958D02*
X144448591Y-58443815D01*
X143781924Y-57824767D02*
X143781924Y-57443815D01*
X144448591Y-57681910D02*
X143591448Y-57681910D01*
X143591448Y-57681910D02*
X143496210Y-57634291D01*
X143496210Y-57634291D02*
X143448591Y-57539053D01*
X143448591Y-57539053D02*
X143448591Y-57443815D01*
X144400972Y-55967624D02*
X144448591Y-56062862D01*
X144448591Y-56062862D02*
X144448591Y-56253338D01*
X144448591Y-56253338D02*
X144400972Y-56348576D01*
X144400972Y-56348576D02*
X144305733Y-56396195D01*
X144305733Y-56396195D02*
X143924781Y-56396195D01*
X143924781Y-56396195D02*
X143829543Y-56348576D01*
X143829543Y-56348576D02*
X143781924Y-56253338D01*
X143781924Y-56253338D02*
X143781924Y-56062862D01*
X143781924Y-56062862D02*
X143829543Y-55967624D01*
X143829543Y-55967624D02*
X143924781Y-55920005D01*
X143924781Y-55920005D02*
X144020019Y-55920005D01*
X144020019Y-55920005D02*
X144115257Y-56396195D01*
X144448591Y-55062862D02*
X143924781Y-55062862D01*
X143924781Y-55062862D02*
X143829543Y-55110481D01*
X143829543Y-55110481D02*
X143781924Y-55205719D01*
X143781924Y-55205719D02*
X143781924Y-55396195D01*
X143781924Y-55396195D02*
X143829543Y-55491433D01*
X144400972Y-55062862D02*
X144448591Y-55158100D01*
X144448591Y-55158100D02*
X144448591Y-55396195D01*
X144448591Y-55396195D02*
X144400972Y-55491433D01*
X144400972Y-55491433D02*
X144305733Y-55539052D01*
X144305733Y-55539052D02*
X144210495Y-55539052D01*
X144210495Y-55539052D02*
X144115257Y-55491433D01*
X144115257Y-55491433D02*
X144067638Y-55396195D01*
X144067638Y-55396195D02*
X144067638Y-55158100D01*
X144067638Y-55158100D02*
X144020019Y-55062862D01*
X144400972Y-54158100D02*
X144448591Y-54253338D01*
X144448591Y-54253338D02*
X144448591Y-54443814D01*
X144448591Y-54443814D02*
X144400972Y-54539052D01*
X144400972Y-54539052D02*
X144353352Y-54586671D01*
X144353352Y-54586671D02*
X144258114Y-54634290D01*
X144258114Y-54634290D02*
X143972400Y-54634290D01*
X143972400Y-54634290D02*
X143877162Y-54586671D01*
X143877162Y-54586671D02*
X143829543Y-54539052D01*
X143829543Y-54539052D02*
X143781924Y-54443814D01*
X143781924Y-54443814D02*
X143781924Y-54253338D01*
X143781924Y-54253338D02*
X143829543Y-54158100D01*
X144448591Y-53729528D02*
X143448591Y-53729528D01*
X144448591Y-53300957D02*
X143924781Y-53300957D01*
X143924781Y-53300957D02*
X143829543Y-53348576D01*
X143829543Y-53348576D02*
X143781924Y-53443814D01*
X143781924Y-53443814D02*
X143781924Y-53586671D01*
X143781924Y-53586671D02*
X143829543Y-53681909D01*
X143829543Y-53681909D02*
X143877162Y-53729528D01*
X75828358Y-124910257D02*
X76918864Y-124910257D01*
X76918864Y-124910257D02*
X75828358Y-126546017D01*
X75828358Y-126546017D02*
X76918864Y-126546017D01*
X77542011Y-126546017D02*
X77542011Y-125455510D01*
X77542011Y-124910257D02*
X77464118Y-124988150D01*
X77464118Y-124988150D02*
X77542011Y-125066044D01*
X77542011Y-125066044D02*
X77619905Y-124988150D01*
X77619905Y-124988150D02*
X77542011Y-124910257D01*
X77542011Y-124910257D02*
X77542011Y-125066044D01*
X78320944Y-125455510D02*
X78320944Y-127091270D01*
X78320944Y-125533404D02*
X78476731Y-125455510D01*
X78476731Y-125455510D02*
X78788304Y-125455510D01*
X78788304Y-125455510D02*
X78944091Y-125533404D01*
X78944091Y-125533404D02*
X79021984Y-125611297D01*
X79021984Y-125611297D02*
X79099878Y-125767084D01*
X79099878Y-125767084D02*
X79099878Y-126234444D01*
X79099878Y-126234444D02*
X79021984Y-126390230D01*
X79021984Y-126390230D02*
X78944091Y-126468124D01*
X78944091Y-126468124D02*
X78788304Y-126546017D01*
X78788304Y-126546017D02*
X78476731Y-126546017D01*
X78476731Y-126546017D02*
X78320944Y-126468124D01*
X80813530Y-125455510D02*
X81436677Y-125455510D01*
X81047210Y-124910257D02*
X81047210Y-126312337D01*
X81047210Y-126312337D02*
X81125104Y-126468124D01*
X81125104Y-126468124D02*
X81280890Y-126546017D01*
X81280890Y-126546017D02*
X81436677Y-126546017D01*
X81981930Y-126546017D02*
X81981930Y-125455510D01*
X81981930Y-124910257D02*
X81904037Y-124988150D01*
X81904037Y-124988150D02*
X81981930Y-125066044D01*
X81981930Y-125066044D02*
X82059824Y-124988150D01*
X82059824Y-124988150D02*
X81981930Y-124910257D01*
X81981930Y-124910257D02*
X81981930Y-125066044D01*
X83384010Y-126468124D02*
X83228223Y-126546017D01*
X83228223Y-126546017D02*
X82916650Y-126546017D01*
X82916650Y-126546017D02*
X82760863Y-126468124D01*
X82760863Y-126468124D02*
X82682970Y-126312337D01*
X82682970Y-126312337D02*
X82682970Y-125689190D01*
X82682970Y-125689190D02*
X82760863Y-125533404D01*
X82760863Y-125533404D02*
X82916650Y-125455510D01*
X82916650Y-125455510D02*
X83228223Y-125455510D01*
X83228223Y-125455510D02*
X83384010Y-125533404D01*
X83384010Y-125533404D02*
X83461903Y-125689190D01*
X83461903Y-125689190D02*
X83461903Y-125844977D01*
X83461903Y-125844977D02*
X82682970Y-126000764D01*
X85409236Y-126546017D02*
X85409236Y-124910257D01*
X86110276Y-126546017D02*
X86110276Y-125689190D01*
X86110276Y-125689190D02*
X86032383Y-125533404D01*
X86032383Y-125533404D02*
X85876596Y-125455510D01*
X85876596Y-125455510D02*
X85642916Y-125455510D01*
X85642916Y-125455510D02*
X85487130Y-125533404D01*
X85487130Y-125533404D02*
X85409236Y-125611297D01*
X87122889Y-126546017D02*
X86967103Y-126468124D01*
X86967103Y-126468124D02*
X86889209Y-126390230D01*
X86889209Y-126390230D02*
X86811316Y-126234444D01*
X86811316Y-126234444D02*
X86811316Y-125767084D01*
X86811316Y-125767084D02*
X86889209Y-125611297D01*
X86889209Y-125611297D02*
X86967103Y-125533404D01*
X86967103Y-125533404D02*
X87122889Y-125455510D01*
X87122889Y-125455510D02*
X87356569Y-125455510D01*
X87356569Y-125455510D02*
X87512356Y-125533404D01*
X87512356Y-125533404D02*
X87590249Y-125611297D01*
X87590249Y-125611297D02*
X87668143Y-125767084D01*
X87668143Y-125767084D02*
X87668143Y-126234444D01*
X87668143Y-126234444D02*
X87590249Y-126390230D01*
X87590249Y-126390230D02*
X87512356Y-126468124D01*
X87512356Y-126468124D02*
X87356569Y-126546017D01*
X87356569Y-126546017D02*
X87122889Y-126546017D01*
X88602862Y-126546017D02*
X88447076Y-126468124D01*
X88447076Y-126468124D02*
X88369182Y-126312337D01*
X88369182Y-126312337D02*
X88369182Y-124910257D01*
X89849156Y-126468124D02*
X89693369Y-126546017D01*
X89693369Y-126546017D02*
X89381796Y-126546017D01*
X89381796Y-126546017D02*
X89226009Y-126468124D01*
X89226009Y-126468124D02*
X89148116Y-126312337D01*
X89148116Y-126312337D02*
X89148116Y-125689190D01*
X89148116Y-125689190D02*
X89226009Y-125533404D01*
X89226009Y-125533404D02*
X89381796Y-125455510D01*
X89381796Y-125455510D02*
X89693369Y-125455510D01*
X89693369Y-125455510D02*
X89849156Y-125533404D01*
X89849156Y-125533404D02*
X89927049Y-125689190D01*
X89927049Y-125689190D02*
X89927049Y-125844977D01*
X89927049Y-125844977D02*
X89148116Y-126000764D01*
D11*
X145246621Y-102789054D02*
X144890537Y-102789054D01*
X144890537Y-102789054D02*
X144854929Y-103145138D01*
X144854929Y-103145138D02*
X144890537Y-103109529D01*
X144890537Y-103109529D02*
X144961754Y-103073921D01*
X144961754Y-103073921D02*
X145139796Y-103073921D01*
X145139796Y-103073921D02*
X145211013Y-103109529D01*
X145211013Y-103109529D02*
X145246621Y-103145138D01*
X145246621Y-103145138D02*
X145282230Y-103216354D01*
X145282230Y-103216354D02*
X145282230Y-103394396D01*
X145282230Y-103394396D02*
X145246621Y-103465613D01*
X145246621Y-103465613D02*
X145211013Y-103501222D01*
X145211013Y-103501222D02*
X145139796Y-103536830D01*
X145139796Y-103536830D02*
X144961754Y-103536830D01*
X144961754Y-103536830D02*
X144890537Y-103501222D01*
X144890537Y-103501222D02*
X144854929Y-103465613D01*
X145495880Y-102789054D02*
X145745139Y-103536830D01*
X145745139Y-103536830D02*
X145994398Y-102789054D01*
X144834028Y-108680318D02*
X144834028Y-107932542D01*
X144834028Y-107932542D02*
X145012070Y-107932542D01*
X145012070Y-107932542D02*
X145118895Y-107968150D01*
X145118895Y-107968150D02*
X145190112Y-108039367D01*
X145190112Y-108039367D02*
X145225721Y-108110584D01*
X145225721Y-108110584D02*
X145261329Y-108253017D01*
X145261329Y-108253017D02*
X145261329Y-108359842D01*
X145261329Y-108359842D02*
X145225721Y-108502276D01*
X145225721Y-108502276D02*
X145190112Y-108573493D01*
X145190112Y-108573493D02*
X145118895Y-108644710D01*
X145118895Y-108644710D02*
X145012070Y-108680318D01*
X145012070Y-108680318D02*
X144834028Y-108680318D01*
X145581804Y-108395451D02*
X146151539Y-108395451D01*
X145866671Y-108680318D02*
X145866671Y-108110584D01*
D13*
X280663956Y-72067326D02*
X280663956Y-73095421D01*
X280663956Y-73095421D02*
X280724433Y-73216373D01*
X280724433Y-73216373D02*
X280784909Y-73276850D01*
X280784909Y-73276850D02*
X280905861Y-73337326D01*
X280905861Y-73337326D02*
X281147766Y-73337326D01*
X281147766Y-73337326D02*
X281268718Y-73276850D01*
X281268718Y-73276850D02*
X281329195Y-73216373D01*
X281329195Y-73216373D02*
X281389671Y-73095421D01*
X281389671Y-73095421D02*
X281389671Y-72067326D01*
X281933956Y-73276850D02*
X282115385Y-73337326D01*
X282115385Y-73337326D02*
X282417766Y-73337326D01*
X282417766Y-73337326D02*
X282538718Y-73276850D01*
X282538718Y-73276850D02*
X282599194Y-73216373D01*
X282599194Y-73216373D02*
X282659671Y-73095421D01*
X282659671Y-73095421D02*
X282659671Y-72974469D01*
X282659671Y-72974469D02*
X282599194Y-72853516D01*
X282599194Y-72853516D02*
X282538718Y-72793040D01*
X282538718Y-72793040D02*
X282417766Y-72732564D01*
X282417766Y-72732564D02*
X282175861Y-72672088D01*
X282175861Y-72672088D02*
X282054909Y-72611611D01*
X282054909Y-72611611D02*
X281994432Y-72551135D01*
X281994432Y-72551135D02*
X281933956Y-72430183D01*
X281933956Y-72430183D02*
X281933956Y-72309230D01*
X281933956Y-72309230D02*
X281994432Y-72188278D01*
X281994432Y-72188278D02*
X282054909Y-72127802D01*
X282054909Y-72127802D02*
X282175861Y-72067326D01*
X282175861Y-72067326D02*
X282478242Y-72067326D01*
X282478242Y-72067326D02*
X282659671Y-72127802D01*
X282296813Y-71885897D02*
X282296813Y-73518754D01*
X283869195Y-73337326D02*
X283143480Y-73337326D01*
X283506337Y-73337326D02*
X283506337Y-72067326D01*
X283506337Y-72067326D02*
X283385385Y-72248754D01*
X283385385Y-72248754D02*
X283264433Y-72369707D01*
X283264433Y-72369707D02*
X283143480Y-72430183D01*
X285018242Y-72067326D02*
X284413480Y-72067326D01*
X284413480Y-72067326D02*
X284353004Y-72672088D01*
X284353004Y-72672088D02*
X284413480Y-72611611D01*
X284413480Y-72611611D02*
X284534433Y-72551135D01*
X284534433Y-72551135D02*
X284836814Y-72551135D01*
X284836814Y-72551135D02*
X284957766Y-72611611D01*
X284957766Y-72611611D02*
X285018242Y-72672088D01*
X285018242Y-72672088D02*
X285078719Y-72793040D01*
X285078719Y-72793040D02*
X285078719Y-73095421D01*
X285078719Y-73095421D02*
X285018242Y-73216373D01*
X285018242Y-73216373D02*
X284957766Y-73276850D01*
X284957766Y-73276850D02*
X284836814Y-73337326D01*
X284836814Y-73337326D02*
X284534433Y-73337326D01*
X284534433Y-73337326D02*
X284413480Y-73276850D01*
X284413480Y-73276850D02*
X284353004Y-73216373D01*
X280663956Y-44457326D02*
X280663956Y-45485421D01*
X280663956Y-45485421D02*
X280724433Y-45606373D01*
X280724433Y-45606373D02*
X280784909Y-45666850D01*
X280784909Y-45666850D02*
X280905861Y-45727326D01*
X280905861Y-45727326D02*
X281147766Y-45727326D01*
X281147766Y-45727326D02*
X281268718Y-45666850D01*
X281268718Y-45666850D02*
X281329195Y-45606373D01*
X281329195Y-45606373D02*
X281389671Y-45485421D01*
X281389671Y-45485421D02*
X281389671Y-44457326D01*
X281933956Y-45666850D02*
X282115385Y-45727326D01*
X282115385Y-45727326D02*
X282417766Y-45727326D01*
X282417766Y-45727326D02*
X282538718Y-45666850D01*
X282538718Y-45666850D02*
X282599194Y-45606373D01*
X282599194Y-45606373D02*
X282659671Y-45485421D01*
X282659671Y-45485421D02*
X282659671Y-45364469D01*
X282659671Y-45364469D02*
X282599194Y-45243516D01*
X282599194Y-45243516D02*
X282538718Y-45183040D01*
X282538718Y-45183040D02*
X282417766Y-45122564D01*
X282417766Y-45122564D02*
X282175861Y-45062088D01*
X282175861Y-45062088D02*
X282054909Y-45001611D01*
X282054909Y-45001611D02*
X281994432Y-44941135D01*
X281994432Y-44941135D02*
X281933956Y-44820183D01*
X281933956Y-44820183D02*
X281933956Y-44699230D01*
X281933956Y-44699230D02*
X281994432Y-44578278D01*
X281994432Y-44578278D02*
X282054909Y-44517802D01*
X282054909Y-44517802D02*
X282175861Y-44457326D01*
X282175861Y-44457326D02*
X282478242Y-44457326D01*
X282478242Y-44457326D02*
X282659671Y-44517802D01*
X282296813Y-44275897D02*
X282296813Y-45908754D01*
X283869195Y-45727326D02*
X283143480Y-45727326D01*
X283506337Y-45727326D02*
X283506337Y-44457326D01*
X283506337Y-44457326D02*
X283385385Y-44638754D01*
X283385385Y-44638754D02*
X283264433Y-44759707D01*
X283264433Y-44759707D02*
X283143480Y-44820183D01*
X285078719Y-45727326D02*
X284353004Y-45727326D01*
X284715861Y-45727326D02*
X284715861Y-44457326D01*
X284715861Y-44457326D02*
X284594909Y-44638754D01*
X284594909Y-44638754D02*
X284473957Y-44759707D01*
X284473957Y-44759707D02*
X284353004Y-44820183D01*
X218775956Y-117427326D02*
X218775956Y-118455421D01*
X218775956Y-118455421D02*
X218836433Y-118576373D01*
X218836433Y-118576373D02*
X218896909Y-118636850D01*
X218896909Y-118636850D02*
X219017861Y-118697326D01*
X219017861Y-118697326D02*
X219259766Y-118697326D01*
X219259766Y-118697326D02*
X219380718Y-118636850D01*
X219380718Y-118636850D02*
X219441195Y-118576373D01*
X219441195Y-118576373D02*
X219501671Y-118455421D01*
X219501671Y-118455421D02*
X219501671Y-117427326D01*
X220045956Y-118636850D02*
X220227385Y-118697326D01*
X220227385Y-118697326D02*
X220529766Y-118697326D01*
X220529766Y-118697326D02*
X220650718Y-118636850D01*
X220650718Y-118636850D02*
X220711194Y-118576373D01*
X220711194Y-118576373D02*
X220771671Y-118455421D01*
X220771671Y-118455421D02*
X220771671Y-118334469D01*
X220771671Y-118334469D02*
X220711194Y-118213516D01*
X220711194Y-118213516D02*
X220650718Y-118153040D01*
X220650718Y-118153040D02*
X220529766Y-118092564D01*
X220529766Y-118092564D02*
X220287861Y-118032088D01*
X220287861Y-118032088D02*
X220166909Y-117971611D01*
X220166909Y-117971611D02*
X220106432Y-117911135D01*
X220106432Y-117911135D02*
X220045956Y-117790183D01*
X220045956Y-117790183D02*
X220045956Y-117669230D01*
X220045956Y-117669230D02*
X220106432Y-117548278D01*
X220106432Y-117548278D02*
X220166909Y-117487802D01*
X220166909Y-117487802D02*
X220287861Y-117427326D01*
X220287861Y-117427326D02*
X220590242Y-117427326D01*
X220590242Y-117427326D02*
X220771671Y-117487802D01*
X220408813Y-117245897D02*
X220408813Y-118878754D01*
X221981195Y-118697326D02*
X221255480Y-118697326D01*
X221618337Y-118697326D02*
X221618337Y-117427326D01*
X221618337Y-117427326D02*
X221497385Y-117608754D01*
X221497385Y-117608754D02*
X221376433Y-117729707D01*
X221376433Y-117729707D02*
X221255480Y-117790183D01*
X222404528Y-117427326D02*
X223251195Y-117427326D01*
X223251195Y-117427326D02*
X222706909Y-118697326D01*
X74560718Y-148612326D02*
X74560718Y-149640421D01*
X74560718Y-149640421D02*
X74621195Y-149761373D01*
X74621195Y-149761373D02*
X74681671Y-149821850D01*
X74681671Y-149821850D02*
X74802623Y-149882326D01*
X74802623Y-149882326D02*
X75044528Y-149882326D01*
X75044528Y-149882326D02*
X75165480Y-149821850D01*
X75165480Y-149821850D02*
X75225957Y-149761373D01*
X75225957Y-149761373D02*
X75286433Y-149640421D01*
X75286433Y-149640421D02*
X75286433Y-148612326D01*
X75830718Y-149821850D02*
X76012147Y-149882326D01*
X76012147Y-149882326D02*
X76314528Y-149882326D01*
X76314528Y-149882326D02*
X76435480Y-149821850D01*
X76435480Y-149821850D02*
X76495956Y-149761373D01*
X76495956Y-149761373D02*
X76556433Y-149640421D01*
X76556433Y-149640421D02*
X76556433Y-149519469D01*
X76556433Y-149519469D02*
X76495956Y-149398516D01*
X76495956Y-149398516D02*
X76435480Y-149338040D01*
X76435480Y-149338040D02*
X76314528Y-149277564D01*
X76314528Y-149277564D02*
X76072623Y-149217088D01*
X76072623Y-149217088D02*
X75951671Y-149156611D01*
X75951671Y-149156611D02*
X75891194Y-149096135D01*
X75891194Y-149096135D02*
X75830718Y-148975183D01*
X75830718Y-148975183D02*
X75830718Y-148854230D01*
X75830718Y-148854230D02*
X75891194Y-148733278D01*
X75891194Y-148733278D02*
X75951671Y-148672802D01*
X75951671Y-148672802D02*
X76072623Y-148612326D01*
X76072623Y-148612326D02*
X76375004Y-148612326D01*
X76375004Y-148612326D02*
X76556433Y-148672802D01*
X76193575Y-148430897D02*
X76193575Y-150063754D01*
X77645004Y-148612326D02*
X77403099Y-148612326D01*
X77403099Y-148612326D02*
X77282147Y-148672802D01*
X77282147Y-148672802D02*
X77221671Y-148733278D01*
X77221671Y-148733278D02*
X77100718Y-148914707D01*
X77100718Y-148914707D02*
X77040242Y-149156611D01*
X77040242Y-149156611D02*
X77040242Y-149640421D01*
X77040242Y-149640421D02*
X77100718Y-149761373D01*
X77100718Y-149761373D02*
X77161195Y-149821850D01*
X77161195Y-149821850D02*
X77282147Y-149882326D01*
X77282147Y-149882326D02*
X77524052Y-149882326D01*
X77524052Y-149882326D02*
X77645004Y-149821850D01*
X77645004Y-149821850D02*
X77705480Y-149761373D01*
X77705480Y-149761373D02*
X77765957Y-149640421D01*
X77765957Y-149640421D02*
X77765957Y-149338040D01*
X77765957Y-149338040D02*
X77705480Y-149217088D01*
X77705480Y-149217088D02*
X77645004Y-149156611D01*
X77645004Y-149156611D02*
X77524052Y-149096135D01*
X77524052Y-149096135D02*
X77282147Y-149096135D01*
X77282147Y-149096135D02*
X77161195Y-149156611D01*
X77161195Y-149156611D02*
X77100718Y-149217088D01*
X77100718Y-149217088D02*
X77040242Y-149338040D01*
X218775956Y-148612326D02*
X218775956Y-149640421D01*
X218775956Y-149640421D02*
X218836433Y-149761373D01*
X218836433Y-149761373D02*
X218896909Y-149821850D01*
X218896909Y-149821850D02*
X219017861Y-149882326D01*
X219017861Y-149882326D02*
X219259766Y-149882326D01*
X219259766Y-149882326D02*
X219380718Y-149821850D01*
X219380718Y-149821850D02*
X219441195Y-149761373D01*
X219441195Y-149761373D02*
X219501671Y-149640421D01*
X219501671Y-149640421D02*
X219501671Y-148612326D01*
X220045956Y-149821850D02*
X220227385Y-149882326D01*
X220227385Y-149882326D02*
X220529766Y-149882326D01*
X220529766Y-149882326D02*
X220650718Y-149821850D01*
X220650718Y-149821850D02*
X220711194Y-149761373D01*
X220711194Y-149761373D02*
X220771671Y-149640421D01*
X220771671Y-149640421D02*
X220771671Y-149519469D01*
X220771671Y-149519469D02*
X220711194Y-149398516D01*
X220711194Y-149398516D02*
X220650718Y-149338040D01*
X220650718Y-149338040D02*
X220529766Y-149277564D01*
X220529766Y-149277564D02*
X220287861Y-149217088D01*
X220287861Y-149217088D02*
X220166909Y-149156611D01*
X220166909Y-149156611D02*
X220106432Y-149096135D01*
X220106432Y-149096135D02*
X220045956Y-148975183D01*
X220045956Y-148975183D02*
X220045956Y-148854230D01*
X220045956Y-148854230D02*
X220106432Y-148733278D01*
X220106432Y-148733278D02*
X220166909Y-148672802D01*
X220166909Y-148672802D02*
X220287861Y-148612326D01*
X220287861Y-148612326D02*
X220590242Y-148612326D01*
X220590242Y-148612326D02*
X220771671Y-148672802D01*
X220408813Y-148430897D02*
X220408813Y-150063754D01*
X221255480Y-148733278D02*
X221315956Y-148672802D01*
X221315956Y-148672802D02*
X221436909Y-148612326D01*
X221436909Y-148612326D02*
X221739290Y-148612326D01*
X221739290Y-148612326D02*
X221860242Y-148672802D01*
X221860242Y-148672802D02*
X221920718Y-148733278D01*
X221920718Y-148733278D02*
X221981195Y-148854230D01*
X221981195Y-148854230D02*
X221981195Y-148975183D01*
X221981195Y-148975183D02*
X221920718Y-149156611D01*
X221920718Y-149156611D02*
X221195004Y-149882326D01*
X221195004Y-149882326D02*
X221981195Y-149882326D01*
X222767385Y-148612326D02*
X222888338Y-148612326D01*
X222888338Y-148612326D02*
X223009290Y-148672802D01*
X223009290Y-148672802D02*
X223069766Y-148733278D01*
X223069766Y-148733278D02*
X223130242Y-148854230D01*
X223130242Y-148854230D02*
X223190719Y-149096135D01*
X223190719Y-149096135D02*
X223190719Y-149398516D01*
X223190719Y-149398516D02*
X223130242Y-149640421D01*
X223130242Y-149640421D02*
X223069766Y-149761373D01*
X223069766Y-149761373D02*
X223009290Y-149821850D01*
X223009290Y-149821850D02*
X222888338Y-149882326D01*
X222888338Y-149882326D02*
X222767385Y-149882326D01*
X222767385Y-149882326D02*
X222646433Y-149821850D01*
X222646433Y-149821850D02*
X222585957Y-149761373D01*
X222585957Y-149761373D02*
X222525480Y-149640421D01*
X222525480Y-149640421D02*
X222465004Y-149398516D01*
X222465004Y-149398516D02*
X222465004Y-149096135D01*
X222465004Y-149096135D02*
X222525480Y-148854230D01*
X222525480Y-148854230D02*
X222585957Y-148733278D01*
X222585957Y-148733278D02*
X222646433Y-148672802D01*
X222646433Y-148672802D02*
X222767385Y-148612326D01*
X252308956Y-41482326D02*
X252308956Y-42510421D01*
X252308956Y-42510421D02*
X252369433Y-42631373D01*
X252369433Y-42631373D02*
X252429909Y-42691850D01*
X252429909Y-42691850D02*
X252550861Y-42752326D01*
X252550861Y-42752326D02*
X252792766Y-42752326D01*
X252792766Y-42752326D02*
X252913718Y-42691850D01*
X252913718Y-42691850D02*
X252974195Y-42631373D01*
X252974195Y-42631373D02*
X253034671Y-42510421D01*
X253034671Y-42510421D02*
X253034671Y-41482326D01*
X253578956Y-42691850D02*
X253760385Y-42752326D01*
X253760385Y-42752326D02*
X254062766Y-42752326D01*
X254062766Y-42752326D02*
X254183718Y-42691850D01*
X254183718Y-42691850D02*
X254244194Y-42631373D01*
X254244194Y-42631373D02*
X254304671Y-42510421D01*
X254304671Y-42510421D02*
X254304671Y-42389469D01*
X254304671Y-42389469D02*
X254244194Y-42268516D01*
X254244194Y-42268516D02*
X254183718Y-42208040D01*
X254183718Y-42208040D02*
X254062766Y-42147564D01*
X254062766Y-42147564D02*
X253820861Y-42087088D01*
X253820861Y-42087088D02*
X253699909Y-42026611D01*
X253699909Y-42026611D02*
X253639432Y-41966135D01*
X253639432Y-41966135D02*
X253578956Y-41845183D01*
X253578956Y-41845183D02*
X253578956Y-41724230D01*
X253578956Y-41724230D02*
X253639432Y-41603278D01*
X253639432Y-41603278D02*
X253699909Y-41542802D01*
X253699909Y-41542802D02*
X253820861Y-41482326D01*
X253820861Y-41482326D02*
X254123242Y-41482326D01*
X254123242Y-41482326D02*
X254304671Y-41542802D01*
X253941813Y-41300897D02*
X253941813Y-42933754D01*
X255514195Y-42752326D02*
X254788480Y-42752326D01*
X255151337Y-42752326D02*
X255151337Y-41482326D01*
X255151337Y-41482326D02*
X255030385Y-41663754D01*
X255030385Y-41663754D02*
X254909433Y-41784707D01*
X254909433Y-41784707D02*
X254788480Y-41845183D01*
X256300385Y-41482326D02*
X256421338Y-41482326D01*
X256421338Y-41482326D02*
X256542290Y-41542802D01*
X256542290Y-41542802D02*
X256602766Y-41603278D01*
X256602766Y-41603278D02*
X256663242Y-41724230D01*
X256663242Y-41724230D02*
X256723719Y-41966135D01*
X256723719Y-41966135D02*
X256723719Y-42268516D01*
X256723719Y-42268516D02*
X256663242Y-42510421D01*
X256663242Y-42510421D02*
X256602766Y-42631373D01*
X256602766Y-42631373D02*
X256542290Y-42691850D01*
X256542290Y-42691850D02*
X256421338Y-42752326D01*
X256421338Y-42752326D02*
X256300385Y-42752326D01*
X256300385Y-42752326D02*
X256179433Y-42691850D01*
X256179433Y-42691850D02*
X256118957Y-42631373D01*
X256118957Y-42631373D02*
X256058480Y-42510421D01*
X256058480Y-42510421D02*
X255998004Y-42268516D01*
X255998004Y-42268516D02*
X255998004Y-41966135D01*
X255998004Y-41966135D02*
X256058480Y-41724230D01*
X256058480Y-41724230D02*
X256118957Y-41603278D01*
X256118957Y-41603278D02*
X256179433Y-41542802D01*
X256179433Y-41542802D02*
X256300385Y-41482326D01*
X225790956Y-81087326D02*
X225790956Y-82115421D01*
X225790956Y-82115421D02*
X225851433Y-82236373D01*
X225851433Y-82236373D02*
X225911909Y-82296850D01*
X225911909Y-82296850D02*
X226032861Y-82357326D01*
X226032861Y-82357326D02*
X226274766Y-82357326D01*
X226274766Y-82357326D02*
X226395718Y-82296850D01*
X226395718Y-82296850D02*
X226456195Y-82236373D01*
X226456195Y-82236373D02*
X226516671Y-82115421D01*
X226516671Y-82115421D02*
X226516671Y-81087326D01*
X227060956Y-82296850D02*
X227242385Y-82357326D01*
X227242385Y-82357326D02*
X227544766Y-82357326D01*
X227544766Y-82357326D02*
X227665718Y-82296850D01*
X227665718Y-82296850D02*
X227726194Y-82236373D01*
X227726194Y-82236373D02*
X227786671Y-82115421D01*
X227786671Y-82115421D02*
X227786671Y-81994469D01*
X227786671Y-81994469D02*
X227726194Y-81873516D01*
X227726194Y-81873516D02*
X227665718Y-81813040D01*
X227665718Y-81813040D02*
X227544766Y-81752564D01*
X227544766Y-81752564D02*
X227302861Y-81692088D01*
X227302861Y-81692088D02*
X227181909Y-81631611D01*
X227181909Y-81631611D02*
X227121432Y-81571135D01*
X227121432Y-81571135D02*
X227060956Y-81450183D01*
X227060956Y-81450183D02*
X227060956Y-81329230D01*
X227060956Y-81329230D02*
X227121432Y-81208278D01*
X227121432Y-81208278D02*
X227181909Y-81147802D01*
X227181909Y-81147802D02*
X227302861Y-81087326D01*
X227302861Y-81087326D02*
X227605242Y-81087326D01*
X227605242Y-81087326D02*
X227786671Y-81147802D01*
X227423813Y-80905897D02*
X227423813Y-82538754D01*
X228996195Y-82357326D02*
X228270480Y-82357326D01*
X228633337Y-82357326D02*
X228633337Y-81087326D01*
X228633337Y-81087326D02*
X228512385Y-81268754D01*
X228512385Y-81268754D02*
X228391433Y-81389707D01*
X228391433Y-81389707D02*
X228270480Y-81450183D01*
X229419528Y-81087326D02*
X230205719Y-81087326D01*
X230205719Y-81087326D02*
X229782385Y-81571135D01*
X229782385Y-81571135D02*
X229963814Y-81571135D01*
X229963814Y-81571135D02*
X230084766Y-81631611D01*
X230084766Y-81631611D02*
X230145242Y-81692088D01*
X230145242Y-81692088D02*
X230205719Y-81813040D01*
X230205719Y-81813040D02*
X230205719Y-82115421D01*
X230205719Y-82115421D02*
X230145242Y-82236373D01*
X230145242Y-82236373D02*
X230084766Y-82296850D01*
X230084766Y-82296850D02*
X229963814Y-82357326D01*
X229963814Y-82357326D02*
X229600957Y-82357326D01*
X229600957Y-82357326D02*
X229480004Y-82296850D01*
X229480004Y-82296850D02*
X229419528Y-82236373D01*
X-12606281Y-88727326D02*
X-12606281Y-89755421D01*
X-12606281Y-89755421D02*
X-12545804Y-89876373D01*
X-12545804Y-89876373D02*
X-12485328Y-89936850D01*
X-12485328Y-89936850D02*
X-12364376Y-89997326D01*
X-12364376Y-89997326D02*
X-12122471Y-89997326D01*
X-12122471Y-89997326D02*
X-12001519Y-89936850D01*
X-12001519Y-89936850D02*
X-11941042Y-89876373D01*
X-11941042Y-89876373D02*
X-11880566Y-89755421D01*
X-11880566Y-89755421D02*
X-11880566Y-88727326D01*
X-11336281Y-89936850D02*
X-11154852Y-89997326D01*
X-11154852Y-89997326D02*
X-10852471Y-89997326D01*
X-10852471Y-89997326D02*
X-10731519Y-89936850D01*
X-10731519Y-89936850D02*
X-10671043Y-89876373D01*
X-10671043Y-89876373D02*
X-10610566Y-89755421D01*
X-10610566Y-89755421D02*
X-10610566Y-89634469D01*
X-10610566Y-89634469D02*
X-10671043Y-89513516D01*
X-10671043Y-89513516D02*
X-10731519Y-89453040D01*
X-10731519Y-89453040D02*
X-10852471Y-89392564D01*
X-10852471Y-89392564D02*
X-11094376Y-89332088D01*
X-11094376Y-89332088D02*
X-11215328Y-89271611D01*
X-11215328Y-89271611D02*
X-11275805Y-89211135D01*
X-11275805Y-89211135D02*
X-11336281Y-89090183D01*
X-11336281Y-89090183D02*
X-11336281Y-88969230D01*
X-11336281Y-88969230D02*
X-11275805Y-88848278D01*
X-11275805Y-88848278D02*
X-11215328Y-88787802D01*
X-11215328Y-88787802D02*
X-11094376Y-88727326D01*
X-11094376Y-88727326D02*
X-10791995Y-88727326D01*
X-10791995Y-88727326D02*
X-10610566Y-88787802D01*
X-10973424Y-88545897D02*
X-10973424Y-90178754D01*
X-9401042Y-89997326D02*
X-10126757Y-89997326D01*
X-9763900Y-89997326D02*
X-9763900Y-88727326D01*
X-9763900Y-88727326D02*
X-9884852Y-88908754D01*
X-9884852Y-88908754D02*
X-10005804Y-89029707D01*
X-10005804Y-89029707D02*
X-10126757Y-89090183D01*
X196088956Y-164382326D02*
X196088956Y-165410421D01*
X196088956Y-165410421D02*
X196149433Y-165531373D01*
X196149433Y-165531373D02*
X196209909Y-165591850D01*
X196209909Y-165591850D02*
X196330861Y-165652326D01*
X196330861Y-165652326D02*
X196572766Y-165652326D01*
X196572766Y-165652326D02*
X196693718Y-165591850D01*
X196693718Y-165591850D02*
X196754195Y-165531373D01*
X196754195Y-165531373D02*
X196814671Y-165410421D01*
X196814671Y-165410421D02*
X196814671Y-164382326D01*
X197358956Y-165591850D02*
X197540385Y-165652326D01*
X197540385Y-165652326D02*
X197842766Y-165652326D01*
X197842766Y-165652326D02*
X197963718Y-165591850D01*
X197963718Y-165591850D02*
X198024194Y-165531373D01*
X198024194Y-165531373D02*
X198084671Y-165410421D01*
X198084671Y-165410421D02*
X198084671Y-165289469D01*
X198084671Y-165289469D02*
X198024194Y-165168516D01*
X198024194Y-165168516D02*
X197963718Y-165108040D01*
X197963718Y-165108040D02*
X197842766Y-165047564D01*
X197842766Y-165047564D02*
X197600861Y-164987088D01*
X197600861Y-164987088D02*
X197479909Y-164926611D01*
X197479909Y-164926611D02*
X197419432Y-164866135D01*
X197419432Y-164866135D02*
X197358956Y-164745183D01*
X197358956Y-164745183D02*
X197358956Y-164624230D01*
X197358956Y-164624230D02*
X197419432Y-164503278D01*
X197419432Y-164503278D02*
X197479909Y-164442802D01*
X197479909Y-164442802D02*
X197600861Y-164382326D01*
X197600861Y-164382326D02*
X197903242Y-164382326D01*
X197903242Y-164382326D02*
X198084671Y-164442802D01*
X197721813Y-164200897D02*
X197721813Y-165833754D01*
X198568480Y-164503278D02*
X198628956Y-164442802D01*
X198628956Y-164442802D02*
X198749909Y-164382326D01*
X198749909Y-164382326D02*
X199052290Y-164382326D01*
X199052290Y-164382326D02*
X199173242Y-164442802D01*
X199173242Y-164442802D02*
X199233718Y-164503278D01*
X199233718Y-164503278D02*
X199294195Y-164624230D01*
X199294195Y-164624230D02*
X199294195Y-164745183D01*
X199294195Y-164745183D02*
X199233718Y-164926611D01*
X199233718Y-164926611D02*
X198508004Y-165652326D01*
X198508004Y-165652326D02*
X199294195Y-165652326D01*
X200503719Y-165652326D02*
X199778004Y-165652326D01*
X200140861Y-165652326D02*
X200140861Y-164382326D01*
X200140861Y-164382326D02*
X200019909Y-164563754D01*
X200019909Y-164563754D02*
X199898957Y-164684707D01*
X199898957Y-164684707D02*
X199778004Y-164745183D01*
X12673718Y-72424326D02*
X12673718Y-73452421D01*
X12673718Y-73452421D02*
X12734195Y-73573373D01*
X12734195Y-73573373D02*
X12794671Y-73633850D01*
X12794671Y-73633850D02*
X12915623Y-73694326D01*
X12915623Y-73694326D02*
X13157528Y-73694326D01*
X13157528Y-73694326D02*
X13278480Y-73633850D01*
X13278480Y-73633850D02*
X13338957Y-73573373D01*
X13338957Y-73573373D02*
X13399433Y-73452421D01*
X13399433Y-73452421D02*
X13399433Y-72424326D01*
X13943718Y-73633850D02*
X14125147Y-73694326D01*
X14125147Y-73694326D02*
X14427528Y-73694326D01*
X14427528Y-73694326D02*
X14548480Y-73633850D01*
X14548480Y-73633850D02*
X14608956Y-73573373D01*
X14608956Y-73573373D02*
X14669433Y-73452421D01*
X14669433Y-73452421D02*
X14669433Y-73331469D01*
X14669433Y-73331469D02*
X14608956Y-73210516D01*
X14608956Y-73210516D02*
X14548480Y-73150040D01*
X14548480Y-73150040D02*
X14427528Y-73089564D01*
X14427528Y-73089564D02*
X14185623Y-73029088D01*
X14185623Y-73029088D02*
X14064671Y-72968611D01*
X14064671Y-72968611D02*
X14004194Y-72908135D01*
X14004194Y-72908135D02*
X13943718Y-72787183D01*
X13943718Y-72787183D02*
X13943718Y-72666230D01*
X13943718Y-72666230D02*
X14004194Y-72545278D01*
X14004194Y-72545278D02*
X14064671Y-72484802D01*
X14064671Y-72484802D02*
X14185623Y-72424326D01*
X14185623Y-72424326D02*
X14488004Y-72424326D01*
X14488004Y-72424326D02*
X14669433Y-72484802D01*
X14306575Y-72242897D02*
X14306575Y-73875754D01*
X15153242Y-72545278D02*
X15213718Y-72484802D01*
X15213718Y-72484802D02*
X15334671Y-72424326D01*
X15334671Y-72424326D02*
X15637052Y-72424326D01*
X15637052Y-72424326D02*
X15758004Y-72484802D01*
X15758004Y-72484802D02*
X15818480Y-72545278D01*
X15818480Y-72545278D02*
X15878957Y-72666230D01*
X15878957Y-72666230D02*
X15878957Y-72787183D01*
X15878957Y-72787183D02*
X15818480Y-72968611D01*
X15818480Y-72968611D02*
X15092766Y-73694326D01*
X15092766Y-73694326D02*
X15878957Y-73694326D01*
X41029718Y-69698326D02*
X41029718Y-70726421D01*
X41029718Y-70726421D02*
X41090195Y-70847373D01*
X41090195Y-70847373D02*
X41150671Y-70907850D01*
X41150671Y-70907850D02*
X41271623Y-70968326D01*
X41271623Y-70968326D02*
X41513528Y-70968326D01*
X41513528Y-70968326D02*
X41634480Y-70907850D01*
X41634480Y-70907850D02*
X41694957Y-70847373D01*
X41694957Y-70847373D02*
X41755433Y-70726421D01*
X41755433Y-70726421D02*
X41755433Y-69698326D01*
X42299718Y-70907850D02*
X42481147Y-70968326D01*
X42481147Y-70968326D02*
X42783528Y-70968326D01*
X42783528Y-70968326D02*
X42904480Y-70907850D01*
X42904480Y-70907850D02*
X42964956Y-70847373D01*
X42964956Y-70847373D02*
X43025433Y-70726421D01*
X43025433Y-70726421D02*
X43025433Y-70605469D01*
X43025433Y-70605469D02*
X42964956Y-70484516D01*
X42964956Y-70484516D02*
X42904480Y-70424040D01*
X42904480Y-70424040D02*
X42783528Y-70363564D01*
X42783528Y-70363564D02*
X42541623Y-70303088D01*
X42541623Y-70303088D02*
X42420671Y-70242611D01*
X42420671Y-70242611D02*
X42360194Y-70182135D01*
X42360194Y-70182135D02*
X42299718Y-70061183D01*
X42299718Y-70061183D02*
X42299718Y-69940230D01*
X42299718Y-69940230D02*
X42360194Y-69819278D01*
X42360194Y-69819278D02*
X42420671Y-69758802D01*
X42420671Y-69758802D02*
X42541623Y-69698326D01*
X42541623Y-69698326D02*
X42844004Y-69698326D01*
X42844004Y-69698326D02*
X43025433Y-69758802D01*
X42662575Y-69516897D02*
X42662575Y-71149754D01*
X44114004Y-70121659D02*
X44114004Y-70968326D01*
X43811623Y-69637850D02*
X43509242Y-70544992D01*
X43509242Y-70544992D02*
X44295433Y-70544992D01*
X97248718Y-164381326D02*
X97248718Y-165409421D01*
X97248718Y-165409421D02*
X97309195Y-165530373D01*
X97309195Y-165530373D02*
X97369671Y-165590850D01*
X97369671Y-165590850D02*
X97490623Y-165651326D01*
X97490623Y-165651326D02*
X97732528Y-165651326D01*
X97732528Y-165651326D02*
X97853480Y-165590850D01*
X97853480Y-165590850D02*
X97913957Y-165530373D01*
X97913957Y-165530373D02*
X97974433Y-165409421D01*
X97974433Y-165409421D02*
X97974433Y-164381326D01*
X98518718Y-165590850D02*
X98700147Y-165651326D01*
X98700147Y-165651326D02*
X99002528Y-165651326D01*
X99002528Y-165651326D02*
X99123480Y-165590850D01*
X99123480Y-165590850D02*
X99183956Y-165530373D01*
X99183956Y-165530373D02*
X99244433Y-165409421D01*
X99244433Y-165409421D02*
X99244433Y-165288469D01*
X99244433Y-165288469D02*
X99183956Y-165167516D01*
X99183956Y-165167516D02*
X99123480Y-165107040D01*
X99123480Y-165107040D02*
X99002528Y-165046564D01*
X99002528Y-165046564D02*
X98760623Y-164986088D01*
X98760623Y-164986088D02*
X98639671Y-164925611D01*
X98639671Y-164925611D02*
X98579194Y-164865135D01*
X98579194Y-164865135D02*
X98518718Y-164744183D01*
X98518718Y-164744183D02*
X98518718Y-164623230D01*
X98518718Y-164623230D02*
X98579194Y-164502278D01*
X98579194Y-164502278D02*
X98639671Y-164441802D01*
X98639671Y-164441802D02*
X98760623Y-164381326D01*
X98760623Y-164381326D02*
X99063004Y-164381326D01*
X99063004Y-164381326D02*
X99244433Y-164441802D01*
X98881575Y-164199897D02*
X98881575Y-165832754D01*
X99667766Y-164381326D02*
X100514433Y-164381326D01*
X100514433Y-164381326D02*
X99970147Y-165651326D01*
X241432956Y-133197326D02*
X241432956Y-134225421D01*
X241432956Y-134225421D02*
X241493433Y-134346373D01*
X241493433Y-134346373D02*
X241553909Y-134406850D01*
X241553909Y-134406850D02*
X241674861Y-134467326D01*
X241674861Y-134467326D02*
X241916766Y-134467326D01*
X241916766Y-134467326D02*
X242037718Y-134406850D01*
X242037718Y-134406850D02*
X242098195Y-134346373D01*
X242098195Y-134346373D02*
X242158671Y-134225421D01*
X242158671Y-134225421D02*
X242158671Y-133197326D01*
X242702956Y-134406850D02*
X242884385Y-134467326D01*
X242884385Y-134467326D02*
X243186766Y-134467326D01*
X243186766Y-134467326D02*
X243307718Y-134406850D01*
X243307718Y-134406850D02*
X243368194Y-134346373D01*
X243368194Y-134346373D02*
X243428671Y-134225421D01*
X243428671Y-134225421D02*
X243428671Y-134104469D01*
X243428671Y-134104469D02*
X243368194Y-133983516D01*
X243368194Y-133983516D02*
X243307718Y-133923040D01*
X243307718Y-133923040D02*
X243186766Y-133862564D01*
X243186766Y-133862564D02*
X242944861Y-133802088D01*
X242944861Y-133802088D02*
X242823909Y-133741611D01*
X242823909Y-133741611D02*
X242763432Y-133681135D01*
X242763432Y-133681135D02*
X242702956Y-133560183D01*
X242702956Y-133560183D02*
X242702956Y-133439230D01*
X242702956Y-133439230D02*
X242763432Y-133318278D01*
X242763432Y-133318278D02*
X242823909Y-133257802D01*
X242823909Y-133257802D02*
X242944861Y-133197326D01*
X242944861Y-133197326D02*
X243247242Y-133197326D01*
X243247242Y-133197326D02*
X243428671Y-133257802D01*
X243065813Y-133015897D02*
X243065813Y-134648754D01*
X244638195Y-134467326D02*
X243912480Y-134467326D01*
X244275337Y-134467326D02*
X244275337Y-133197326D01*
X244275337Y-133197326D02*
X244154385Y-133378754D01*
X244154385Y-133378754D02*
X244033433Y-133499707D01*
X244033433Y-133499707D02*
X243912480Y-133560183D01*
X245242957Y-134467326D02*
X245484861Y-134467326D01*
X245484861Y-134467326D02*
X245605814Y-134406850D01*
X245605814Y-134406850D02*
X245666290Y-134346373D01*
X245666290Y-134346373D02*
X245787242Y-134164945D01*
X245787242Y-134164945D02*
X245847719Y-133923040D01*
X245847719Y-133923040D02*
X245847719Y-133439230D01*
X245847719Y-133439230D02*
X245787242Y-133318278D01*
X245787242Y-133318278D02*
X245726766Y-133257802D01*
X245726766Y-133257802D02*
X245605814Y-133197326D01*
X245605814Y-133197326D02*
X245363909Y-133197326D01*
X245363909Y-133197326D02*
X245242957Y-133257802D01*
X245242957Y-133257802D02*
X245182480Y-133318278D01*
X245182480Y-133318278D02*
X245122004Y-133439230D01*
X245122004Y-133439230D02*
X245122004Y-133741611D01*
X245122004Y-133741611D02*
X245182480Y-133862564D01*
X245182480Y-133862564D02*
X245242957Y-133923040D01*
X245242957Y-133923040D02*
X245363909Y-133983516D01*
X245363909Y-133983516D02*
X245605814Y-133983516D01*
X245605814Y-133983516D02*
X245726766Y-133923040D01*
X245726766Y-133923040D02*
X245787242Y-133862564D01*
X245787242Y-133862564D02*
X245847719Y-133741611D01*
X67601718Y-81461326D02*
X67601718Y-82489421D01*
X67601718Y-82489421D02*
X67662195Y-82610373D01*
X67662195Y-82610373D02*
X67722671Y-82670850D01*
X67722671Y-82670850D02*
X67843623Y-82731326D01*
X67843623Y-82731326D02*
X68085528Y-82731326D01*
X68085528Y-82731326D02*
X68206480Y-82670850D01*
X68206480Y-82670850D02*
X68266957Y-82610373D01*
X68266957Y-82610373D02*
X68327433Y-82489421D01*
X68327433Y-82489421D02*
X68327433Y-81461326D01*
X68871718Y-82670850D02*
X69053147Y-82731326D01*
X69053147Y-82731326D02*
X69355528Y-82731326D01*
X69355528Y-82731326D02*
X69476480Y-82670850D01*
X69476480Y-82670850D02*
X69536956Y-82610373D01*
X69536956Y-82610373D02*
X69597433Y-82489421D01*
X69597433Y-82489421D02*
X69597433Y-82368469D01*
X69597433Y-82368469D02*
X69536956Y-82247516D01*
X69536956Y-82247516D02*
X69476480Y-82187040D01*
X69476480Y-82187040D02*
X69355528Y-82126564D01*
X69355528Y-82126564D02*
X69113623Y-82066088D01*
X69113623Y-82066088D02*
X68992671Y-82005611D01*
X68992671Y-82005611D02*
X68932194Y-81945135D01*
X68932194Y-81945135D02*
X68871718Y-81824183D01*
X68871718Y-81824183D02*
X68871718Y-81703230D01*
X68871718Y-81703230D02*
X68932194Y-81582278D01*
X68932194Y-81582278D02*
X68992671Y-81521802D01*
X68992671Y-81521802D02*
X69113623Y-81461326D01*
X69113623Y-81461326D02*
X69416004Y-81461326D01*
X69416004Y-81461326D02*
X69597433Y-81521802D01*
X69234575Y-81279897D02*
X69234575Y-82912754D01*
X70746480Y-81461326D02*
X70141718Y-81461326D01*
X70141718Y-81461326D02*
X70081242Y-82066088D01*
X70081242Y-82066088D02*
X70141718Y-82005611D01*
X70141718Y-82005611D02*
X70262671Y-81945135D01*
X70262671Y-81945135D02*
X70565052Y-81945135D01*
X70565052Y-81945135D02*
X70686004Y-82005611D01*
X70686004Y-82005611D02*
X70746480Y-82066088D01*
X70746480Y-82066088D02*
X70806957Y-82187040D01*
X70806957Y-82187040D02*
X70806957Y-82489421D01*
X70806957Y-82489421D02*
X70746480Y-82610373D01*
X70746480Y-82610373D02*
X70686004Y-82670850D01*
X70686004Y-82670850D02*
X70565052Y-82731326D01*
X70565052Y-82731326D02*
X70262671Y-82731326D01*
X70262671Y-82731326D02*
X70141718Y-82670850D01*
X70141718Y-82670850D02*
X70081242Y-82610373D01*
X196088956Y-133197326D02*
X196088956Y-134225421D01*
X196088956Y-134225421D02*
X196149433Y-134346373D01*
X196149433Y-134346373D02*
X196209909Y-134406850D01*
X196209909Y-134406850D02*
X196330861Y-134467326D01*
X196330861Y-134467326D02*
X196572766Y-134467326D01*
X196572766Y-134467326D02*
X196693718Y-134406850D01*
X196693718Y-134406850D02*
X196754195Y-134346373D01*
X196754195Y-134346373D02*
X196814671Y-134225421D01*
X196814671Y-134225421D02*
X196814671Y-133197326D01*
X197358956Y-134406850D02*
X197540385Y-134467326D01*
X197540385Y-134467326D02*
X197842766Y-134467326D01*
X197842766Y-134467326D02*
X197963718Y-134406850D01*
X197963718Y-134406850D02*
X198024194Y-134346373D01*
X198024194Y-134346373D02*
X198084671Y-134225421D01*
X198084671Y-134225421D02*
X198084671Y-134104469D01*
X198084671Y-134104469D02*
X198024194Y-133983516D01*
X198024194Y-133983516D02*
X197963718Y-133923040D01*
X197963718Y-133923040D02*
X197842766Y-133862564D01*
X197842766Y-133862564D02*
X197600861Y-133802088D01*
X197600861Y-133802088D02*
X197479909Y-133741611D01*
X197479909Y-133741611D02*
X197419432Y-133681135D01*
X197419432Y-133681135D02*
X197358956Y-133560183D01*
X197358956Y-133560183D02*
X197358956Y-133439230D01*
X197358956Y-133439230D02*
X197419432Y-133318278D01*
X197419432Y-133318278D02*
X197479909Y-133257802D01*
X197479909Y-133257802D02*
X197600861Y-133197326D01*
X197600861Y-133197326D02*
X197903242Y-133197326D01*
X197903242Y-133197326D02*
X198084671Y-133257802D01*
X197721813Y-133015897D02*
X197721813Y-134648754D01*
X199294195Y-134467326D02*
X198568480Y-134467326D01*
X198931337Y-134467326D02*
X198931337Y-133197326D01*
X198931337Y-133197326D02*
X198810385Y-133378754D01*
X198810385Y-133378754D02*
X198689433Y-133499707D01*
X198689433Y-133499707D02*
X198568480Y-133560183D01*
X200019909Y-133741611D02*
X199898957Y-133681135D01*
X199898957Y-133681135D02*
X199838480Y-133620659D01*
X199838480Y-133620659D02*
X199778004Y-133499707D01*
X199778004Y-133499707D02*
X199778004Y-133439230D01*
X199778004Y-133439230D02*
X199838480Y-133318278D01*
X199838480Y-133318278D02*
X199898957Y-133257802D01*
X199898957Y-133257802D02*
X200019909Y-133197326D01*
X200019909Y-133197326D02*
X200261814Y-133197326D01*
X200261814Y-133197326D02*
X200382766Y-133257802D01*
X200382766Y-133257802D02*
X200443242Y-133318278D01*
X200443242Y-133318278D02*
X200503719Y-133439230D01*
X200503719Y-133439230D02*
X200503719Y-133499707D01*
X200503719Y-133499707D02*
X200443242Y-133620659D01*
X200443242Y-133620659D02*
X200382766Y-133681135D01*
X200382766Y-133681135D02*
X200261814Y-133741611D01*
X200261814Y-133741611D02*
X200019909Y-133741611D01*
X200019909Y-133741611D02*
X199898957Y-133802088D01*
X199898957Y-133802088D02*
X199838480Y-133862564D01*
X199838480Y-133862564D02*
X199778004Y-133983516D01*
X199778004Y-133983516D02*
X199778004Y-134225421D01*
X199778004Y-134225421D02*
X199838480Y-134346373D01*
X199838480Y-134346373D02*
X199898957Y-134406850D01*
X199898957Y-134406850D02*
X200019909Y-134467326D01*
X200019909Y-134467326D02*
X200261814Y-134467326D01*
X200261814Y-134467326D02*
X200382766Y-134406850D01*
X200382766Y-134406850D02*
X200443242Y-134346373D01*
X200443242Y-134346373D02*
X200503719Y-134225421D01*
X200503719Y-134225421D02*
X200503719Y-133983516D01*
X200503719Y-133983516D02*
X200443242Y-133862564D01*
X200443242Y-133862564D02*
X200382766Y-133802088D01*
X200382766Y-133802088D02*
X200261814Y-133741611D01*
X306886956Y-88103326D02*
X306886956Y-89131421D01*
X306886956Y-89131421D02*
X306947433Y-89252373D01*
X306947433Y-89252373D02*
X307007909Y-89312850D01*
X307007909Y-89312850D02*
X307128861Y-89373326D01*
X307128861Y-89373326D02*
X307370766Y-89373326D01*
X307370766Y-89373326D02*
X307491718Y-89312850D01*
X307491718Y-89312850D02*
X307552195Y-89252373D01*
X307552195Y-89252373D02*
X307612671Y-89131421D01*
X307612671Y-89131421D02*
X307612671Y-88103326D01*
X308156956Y-89312850D02*
X308338385Y-89373326D01*
X308338385Y-89373326D02*
X308640766Y-89373326D01*
X308640766Y-89373326D02*
X308761718Y-89312850D01*
X308761718Y-89312850D02*
X308822194Y-89252373D01*
X308822194Y-89252373D02*
X308882671Y-89131421D01*
X308882671Y-89131421D02*
X308882671Y-89010469D01*
X308882671Y-89010469D02*
X308822194Y-88889516D01*
X308822194Y-88889516D02*
X308761718Y-88829040D01*
X308761718Y-88829040D02*
X308640766Y-88768564D01*
X308640766Y-88768564D02*
X308398861Y-88708088D01*
X308398861Y-88708088D02*
X308277909Y-88647611D01*
X308277909Y-88647611D02*
X308217432Y-88587135D01*
X308217432Y-88587135D02*
X308156956Y-88466183D01*
X308156956Y-88466183D02*
X308156956Y-88345230D01*
X308156956Y-88345230D02*
X308217432Y-88224278D01*
X308217432Y-88224278D02*
X308277909Y-88163802D01*
X308277909Y-88163802D02*
X308398861Y-88103326D01*
X308398861Y-88103326D02*
X308701242Y-88103326D01*
X308701242Y-88103326D02*
X308882671Y-88163802D01*
X308519813Y-87921897D02*
X308519813Y-89554754D01*
X310092195Y-89373326D02*
X309366480Y-89373326D01*
X309729337Y-89373326D02*
X309729337Y-88103326D01*
X309729337Y-88103326D02*
X309608385Y-88284754D01*
X309608385Y-88284754D02*
X309487433Y-88405707D01*
X309487433Y-88405707D02*
X309366480Y-88466183D01*
X311180766Y-88103326D02*
X310938861Y-88103326D01*
X310938861Y-88103326D02*
X310817909Y-88163802D01*
X310817909Y-88163802D02*
X310757433Y-88224278D01*
X310757433Y-88224278D02*
X310636480Y-88405707D01*
X310636480Y-88405707D02*
X310576004Y-88647611D01*
X310576004Y-88647611D02*
X310576004Y-89131421D01*
X310576004Y-89131421D02*
X310636480Y-89252373D01*
X310636480Y-89252373D02*
X310696957Y-89312850D01*
X310696957Y-89312850D02*
X310817909Y-89373326D01*
X310817909Y-89373326D02*
X311059814Y-89373326D01*
X311059814Y-89373326D02*
X311180766Y-89312850D01*
X311180766Y-89312850D02*
X311241242Y-89252373D01*
X311241242Y-89252373D02*
X311301719Y-89131421D01*
X311301719Y-89131421D02*
X311301719Y-88829040D01*
X311301719Y-88829040D02*
X311241242Y-88708088D01*
X311241242Y-88708088D02*
X311180766Y-88647611D01*
X311180766Y-88647611D02*
X311059814Y-88587135D01*
X311059814Y-88587135D02*
X310817909Y-88587135D01*
X310817909Y-88587135D02*
X310696957Y-88647611D01*
X310696957Y-88647611D02*
X310636480Y-88708088D01*
X310636480Y-88708088D02*
X310576004Y-88829040D01*
X306886956Y-60493326D02*
X306886956Y-61521421D01*
X306886956Y-61521421D02*
X306947433Y-61642373D01*
X306947433Y-61642373D02*
X307007909Y-61702850D01*
X307007909Y-61702850D02*
X307128861Y-61763326D01*
X307128861Y-61763326D02*
X307370766Y-61763326D01*
X307370766Y-61763326D02*
X307491718Y-61702850D01*
X307491718Y-61702850D02*
X307552195Y-61642373D01*
X307552195Y-61642373D02*
X307612671Y-61521421D01*
X307612671Y-61521421D02*
X307612671Y-60493326D01*
X308156956Y-61702850D02*
X308338385Y-61763326D01*
X308338385Y-61763326D02*
X308640766Y-61763326D01*
X308640766Y-61763326D02*
X308761718Y-61702850D01*
X308761718Y-61702850D02*
X308822194Y-61642373D01*
X308822194Y-61642373D02*
X308882671Y-61521421D01*
X308882671Y-61521421D02*
X308882671Y-61400469D01*
X308882671Y-61400469D02*
X308822194Y-61279516D01*
X308822194Y-61279516D02*
X308761718Y-61219040D01*
X308761718Y-61219040D02*
X308640766Y-61158564D01*
X308640766Y-61158564D02*
X308398861Y-61098088D01*
X308398861Y-61098088D02*
X308277909Y-61037611D01*
X308277909Y-61037611D02*
X308217432Y-60977135D01*
X308217432Y-60977135D02*
X308156956Y-60856183D01*
X308156956Y-60856183D02*
X308156956Y-60735230D01*
X308156956Y-60735230D02*
X308217432Y-60614278D01*
X308217432Y-60614278D02*
X308277909Y-60553802D01*
X308277909Y-60553802D02*
X308398861Y-60493326D01*
X308398861Y-60493326D02*
X308701242Y-60493326D01*
X308701242Y-60493326D02*
X308882671Y-60553802D01*
X308519813Y-60311897D02*
X308519813Y-61944754D01*
X310092195Y-61763326D02*
X309366480Y-61763326D01*
X309729337Y-61763326D02*
X309729337Y-60493326D01*
X309729337Y-60493326D02*
X309608385Y-60674754D01*
X309608385Y-60674754D02*
X309487433Y-60795707D01*
X309487433Y-60795707D02*
X309366480Y-60856183D01*
X310576004Y-60614278D02*
X310636480Y-60553802D01*
X310636480Y-60553802D02*
X310757433Y-60493326D01*
X310757433Y-60493326D02*
X311059814Y-60493326D01*
X311059814Y-60493326D02*
X311180766Y-60553802D01*
X311180766Y-60553802D02*
X311241242Y-60614278D01*
X311241242Y-60614278D02*
X311301719Y-60735230D01*
X311301719Y-60735230D02*
X311301719Y-60856183D01*
X311301719Y-60856183D02*
X311241242Y-61037611D01*
X311241242Y-61037611D02*
X310515528Y-61763326D01*
X310515528Y-61763326D02*
X311301719Y-61763326D01*
X226395718Y-53478326D02*
X226395718Y-54506421D01*
X226395718Y-54506421D02*
X226456195Y-54627373D01*
X226456195Y-54627373D02*
X226516671Y-54687850D01*
X226516671Y-54687850D02*
X226637623Y-54748326D01*
X226637623Y-54748326D02*
X226879528Y-54748326D01*
X226879528Y-54748326D02*
X227000480Y-54687850D01*
X227000480Y-54687850D02*
X227060957Y-54627373D01*
X227060957Y-54627373D02*
X227121433Y-54506421D01*
X227121433Y-54506421D02*
X227121433Y-53478326D01*
X227665718Y-54687850D02*
X227847147Y-54748326D01*
X227847147Y-54748326D02*
X228149528Y-54748326D01*
X228149528Y-54748326D02*
X228270480Y-54687850D01*
X228270480Y-54687850D02*
X228330956Y-54627373D01*
X228330956Y-54627373D02*
X228391433Y-54506421D01*
X228391433Y-54506421D02*
X228391433Y-54385469D01*
X228391433Y-54385469D02*
X228330956Y-54264516D01*
X228330956Y-54264516D02*
X228270480Y-54204040D01*
X228270480Y-54204040D02*
X228149528Y-54143564D01*
X228149528Y-54143564D02*
X227907623Y-54083088D01*
X227907623Y-54083088D02*
X227786671Y-54022611D01*
X227786671Y-54022611D02*
X227726194Y-53962135D01*
X227726194Y-53962135D02*
X227665718Y-53841183D01*
X227665718Y-53841183D02*
X227665718Y-53720230D01*
X227665718Y-53720230D02*
X227726194Y-53599278D01*
X227726194Y-53599278D02*
X227786671Y-53538802D01*
X227786671Y-53538802D02*
X227907623Y-53478326D01*
X227907623Y-53478326D02*
X228210004Y-53478326D01*
X228210004Y-53478326D02*
X228391433Y-53538802D01*
X228028575Y-53296897D02*
X228028575Y-54929754D01*
X228996195Y-54748326D02*
X229238099Y-54748326D01*
X229238099Y-54748326D02*
X229359052Y-54687850D01*
X229359052Y-54687850D02*
X229419528Y-54627373D01*
X229419528Y-54627373D02*
X229540480Y-54445945D01*
X229540480Y-54445945D02*
X229600957Y-54204040D01*
X229600957Y-54204040D02*
X229600957Y-53720230D01*
X229600957Y-53720230D02*
X229540480Y-53599278D01*
X229540480Y-53599278D02*
X229480004Y-53538802D01*
X229480004Y-53538802D02*
X229359052Y-53478326D01*
X229359052Y-53478326D02*
X229117147Y-53478326D01*
X229117147Y-53478326D02*
X228996195Y-53538802D01*
X228996195Y-53538802D02*
X228935718Y-53599278D01*
X228935718Y-53599278D02*
X228875242Y-53720230D01*
X228875242Y-53720230D02*
X228875242Y-54022611D01*
X228875242Y-54022611D02*
X228935718Y-54143564D01*
X228935718Y-54143564D02*
X228996195Y-54204040D01*
X228996195Y-54204040D02*
X229117147Y-54264516D01*
X229117147Y-54264516D02*
X229359052Y-54264516D01*
X229359052Y-54264516D02*
X229480004Y-54204040D01*
X229480004Y-54204040D02*
X229540480Y-54143564D01*
X229540480Y-54143564D02*
X229600957Y-54022611D01*
X252308956Y-69092326D02*
X252308956Y-70120421D01*
X252308956Y-70120421D02*
X252369433Y-70241373D01*
X252369433Y-70241373D02*
X252429909Y-70301850D01*
X252429909Y-70301850D02*
X252550861Y-70362326D01*
X252550861Y-70362326D02*
X252792766Y-70362326D01*
X252792766Y-70362326D02*
X252913718Y-70301850D01*
X252913718Y-70301850D02*
X252974195Y-70241373D01*
X252974195Y-70241373D02*
X253034671Y-70120421D01*
X253034671Y-70120421D02*
X253034671Y-69092326D01*
X253578956Y-70301850D02*
X253760385Y-70362326D01*
X253760385Y-70362326D02*
X254062766Y-70362326D01*
X254062766Y-70362326D02*
X254183718Y-70301850D01*
X254183718Y-70301850D02*
X254244194Y-70241373D01*
X254244194Y-70241373D02*
X254304671Y-70120421D01*
X254304671Y-70120421D02*
X254304671Y-69999469D01*
X254304671Y-69999469D02*
X254244194Y-69878516D01*
X254244194Y-69878516D02*
X254183718Y-69818040D01*
X254183718Y-69818040D02*
X254062766Y-69757564D01*
X254062766Y-69757564D02*
X253820861Y-69697088D01*
X253820861Y-69697088D02*
X253699909Y-69636611D01*
X253699909Y-69636611D02*
X253639432Y-69576135D01*
X253639432Y-69576135D02*
X253578956Y-69455183D01*
X253578956Y-69455183D02*
X253578956Y-69334230D01*
X253578956Y-69334230D02*
X253639432Y-69213278D01*
X253639432Y-69213278D02*
X253699909Y-69152802D01*
X253699909Y-69152802D02*
X253820861Y-69092326D01*
X253820861Y-69092326D02*
X254123242Y-69092326D01*
X254123242Y-69092326D02*
X254304671Y-69152802D01*
X253941813Y-68910897D02*
X253941813Y-70543754D01*
X255514195Y-70362326D02*
X254788480Y-70362326D01*
X255151337Y-70362326D02*
X255151337Y-69092326D01*
X255151337Y-69092326D02*
X255030385Y-69273754D01*
X255030385Y-69273754D02*
X254909433Y-69394707D01*
X254909433Y-69394707D02*
X254788480Y-69455183D01*
X256602766Y-69515659D02*
X256602766Y-70362326D01*
X256300385Y-69031850D02*
X255998004Y-69938992D01*
X255998004Y-69938992D02*
X256784195Y-69938992D01*
X147333718Y-81461326D02*
X147333718Y-82489421D01*
X147333718Y-82489421D02*
X147394195Y-82610373D01*
X147394195Y-82610373D02*
X147454671Y-82670850D01*
X147454671Y-82670850D02*
X147575623Y-82731326D01*
X147575623Y-82731326D02*
X147817528Y-82731326D01*
X147817528Y-82731326D02*
X147938480Y-82670850D01*
X147938480Y-82670850D02*
X147998957Y-82610373D01*
X147998957Y-82610373D02*
X148059433Y-82489421D01*
X148059433Y-82489421D02*
X148059433Y-81461326D01*
X148603718Y-82670850D02*
X148785147Y-82731326D01*
X148785147Y-82731326D02*
X149087528Y-82731326D01*
X149087528Y-82731326D02*
X149208480Y-82670850D01*
X149208480Y-82670850D02*
X149268956Y-82610373D01*
X149268956Y-82610373D02*
X149329433Y-82489421D01*
X149329433Y-82489421D02*
X149329433Y-82368469D01*
X149329433Y-82368469D02*
X149268956Y-82247516D01*
X149268956Y-82247516D02*
X149208480Y-82187040D01*
X149208480Y-82187040D02*
X149087528Y-82126564D01*
X149087528Y-82126564D02*
X148845623Y-82066088D01*
X148845623Y-82066088D02*
X148724671Y-82005611D01*
X148724671Y-82005611D02*
X148664194Y-81945135D01*
X148664194Y-81945135D02*
X148603718Y-81824183D01*
X148603718Y-81824183D02*
X148603718Y-81703230D01*
X148603718Y-81703230D02*
X148664194Y-81582278D01*
X148664194Y-81582278D02*
X148724671Y-81521802D01*
X148724671Y-81521802D02*
X148845623Y-81461326D01*
X148845623Y-81461326D02*
X149148004Y-81461326D01*
X149148004Y-81461326D02*
X149329433Y-81521802D01*
X148966575Y-81279897D02*
X148966575Y-82912754D01*
X150055147Y-82005611D02*
X149934195Y-81945135D01*
X149934195Y-81945135D02*
X149873718Y-81884659D01*
X149873718Y-81884659D02*
X149813242Y-81763707D01*
X149813242Y-81763707D02*
X149813242Y-81703230D01*
X149813242Y-81703230D02*
X149873718Y-81582278D01*
X149873718Y-81582278D02*
X149934195Y-81521802D01*
X149934195Y-81521802D02*
X150055147Y-81461326D01*
X150055147Y-81461326D02*
X150297052Y-81461326D01*
X150297052Y-81461326D02*
X150418004Y-81521802D01*
X150418004Y-81521802D02*
X150478480Y-81582278D01*
X150478480Y-81582278D02*
X150538957Y-81703230D01*
X150538957Y-81703230D02*
X150538957Y-81763707D01*
X150538957Y-81763707D02*
X150478480Y-81884659D01*
X150478480Y-81884659D02*
X150418004Y-81945135D01*
X150418004Y-81945135D02*
X150297052Y-82005611D01*
X150297052Y-82005611D02*
X150055147Y-82005611D01*
X150055147Y-82005611D02*
X149934195Y-82066088D01*
X149934195Y-82066088D02*
X149873718Y-82126564D01*
X149873718Y-82126564D02*
X149813242Y-82247516D01*
X149813242Y-82247516D02*
X149813242Y-82489421D01*
X149813242Y-82489421D02*
X149873718Y-82610373D01*
X149873718Y-82610373D02*
X149934195Y-82670850D01*
X149934195Y-82670850D02*
X150055147Y-82731326D01*
X150055147Y-82731326D02*
X150297052Y-82731326D01*
X150297052Y-82731326D02*
X150418004Y-82670850D01*
X150418004Y-82670850D02*
X150478480Y-82610373D01*
X150478480Y-82610373D02*
X150538957Y-82489421D01*
X150538957Y-82489421D02*
X150538957Y-82247516D01*
X150538957Y-82247516D02*
X150478480Y-82126564D01*
X150478480Y-82126564D02*
X150418004Y-82066088D01*
X150418004Y-82066088D02*
X150297052Y-82005611D01*
D14*
X139073005Y-112153036D02*
X139898505Y-112153036D01*
X139898505Y-112153036D02*
X140063605Y-112208069D01*
X140063605Y-112208069D02*
X140173672Y-112318136D01*
X140173672Y-112318136D02*
X140228705Y-112483236D01*
X140228705Y-112483236D02*
X140228705Y-112593303D01*
X139458238Y-111107403D02*
X140228705Y-111107403D01*
X139017972Y-111382570D02*
X139843472Y-111657736D01*
X139843472Y-111657736D02*
X139843472Y-110942303D01*
D15*
X142471579Y-101574048D02*
X143233579Y-101574048D01*
X142036151Y-101846190D02*
X142852579Y-102118333D01*
X142852579Y-102118333D02*
X142852579Y-101410762D01*
X143233579Y-113022190D02*
X143233579Y-113675333D01*
X143233579Y-113348762D02*
X142090579Y-113348762D01*
X142090579Y-113348762D02*
X142253865Y-113457619D01*
X142253865Y-113457619D02*
X142362722Y-113566476D01*
X142362722Y-113566476D02*
X142417151Y-113675333D01*
D14*
X161943602Y-70328705D02*
X161943602Y-69173005D01*
X161943602Y-69173005D02*
X162218769Y-69173005D01*
X162218769Y-69173005D02*
X162383869Y-69228038D01*
X162383869Y-69228038D02*
X162493936Y-69338105D01*
X162493936Y-69338105D02*
X162548969Y-69448172D01*
X162548969Y-69448172D02*
X162604002Y-69668305D01*
X162604002Y-69668305D02*
X162604002Y-69833405D01*
X162604002Y-69833405D02*
X162548969Y-70053538D01*
X162548969Y-70053538D02*
X162493936Y-70163605D01*
X162493936Y-70163605D02*
X162383869Y-70273672D01*
X162383869Y-70273672D02*
X162218769Y-70328705D01*
X162218769Y-70328705D02*
X161943602Y-70328705D01*
X163704669Y-70328705D02*
X163044269Y-70328705D01*
X163374469Y-70328705D02*
X163374469Y-69173005D01*
X163374469Y-69173005D02*
X163264402Y-69338105D01*
X163264402Y-69338105D02*
X163154336Y-69448172D01*
X163154336Y-69448172D02*
X163044269Y-69503205D01*
D16*
X159000707Y-64459354D02*
X159000707Y-63893680D01*
X159000707Y-63893680D02*
X159135391Y-63893680D01*
X159135391Y-63893680D02*
X159216202Y-63920617D01*
X159216202Y-63920617D02*
X159270075Y-63974491D01*
X159270075Y-63974491D02*
X159297012Y-64028365D01*
X159297012Y-64028365D02*
X159323949Y-64136112D01*
X159323949Y-64136112D02*
X159323949Y-64216923D01*
X159323949Y-64216923D02*
X159297012Y-64324670D01*
X159297012Y-64324670D02*
X159270075Y-64378544D01*
X159270075Y-64378544D02*
X159216202Y-64432418D01*
X159216202Y-64432418D02*
X159135391Y-64459354D01*
X159135391Y-64459354D02*
X159000707Y-64459354D01*
X159539444Y-63947554D02*
X159566381Y-63920617D01*
X159566381Y-63920617D02*
X159620255Y-63893680D01*
X159620255Y-63893680D02*
X159754939Y-63893680D01*
X159754939Y-63893680D02*
X159808813Y-63920617D01*
X159808813Y-63920617D02*
X159835749Y-63947554D01*
X159835749Y-63947554D02*
X159862686Y-64001428D01*
X159862686Y-64001428D02*
X159862686Y-64055302D01*
X159862686Y-64055302D02*
X159835749Y-64136112D01*
X159835749Y-64136112D02*
X159512507Y-64459354D01*
X159512507Y-64459354D02*
X159862686Y-64459354D01*
D13*
X155233333Y-51854819D02*
X154900000Y-51378628D01*
X154661905Y-51854819D02*
X154661905Y-50854819D01*
X154661905Y-50854819D02*
X155042857Y-50854819D01*
X155042857Y-50854819D02*
X155138095Y-50902438D01*
X155138095Y-50902438D02*
X155185714Y-50950057D01*
X155185714Y-50950057D02*
X155233333Y-51045295D01*
X155233333Y-51045295D02*
X155233333Y-51188152D01*
X155233333Y-51188152D02*
X155185714Y-51283390D01*
X155185714Y-51283390D02*
X155138095Y-51331009D01*
X155138095Y-51331009D02*
X155042857Y-51378628D01*
X155042857Y-51378628D02*
X154661905Y-51378628D01*
X155614286Y-50950057D02*
X155661905Y-50902438D01*
X155661905Y-50902438D02*
X155757143Y-50854819D01*
X155757143Y-50854819D02*
X155995238Y-50854819D01*
X155995238Y-50854819D02*
X156090476Y-50902438D01*
X156090476Y-50902438D02*
X156138095Y-50950057D01*
X156138095Y-50950057D02*
X156185714Y-51045295D01*
X156185714Y-51045295D02*
X156185714Y-51140533D01*
X156185714Y-51140533D02*
X156138095Y-51283390D01*
X156138095Y-51283390D02*
X155566667Y-51854819D01*
X155566667Y-51854819D02*
X156185714Y-51854819D01*
X138677553Y-31091625D02*
X138677553Y-31998768D01*
X138677553Y-31998768D02*
X138617076Y-32180196D01*
X138617076Y-32180196D02*
X138496124Y-32301149D01*
X138496124Y-32301149D02*
X138314695Y-32361625D01*
X138314695Y-32361625D02*
X138193743Y-32361625D01*
X139221838Y-31212577D02*
X139282314Y-31152101D01*
X139282314Y-31152101D02*
X139403267Y-31091625D01*
X139403267Y-31091625D02*
X139705648Y-31091625D01*
X139705648Y-31091625D02*
X139826600Y-31152101D01*
X139826600Y-31152101D02*
X139887076Y-31212577D01*
X139887076Y-31212577D02*
X139947553Y-31333529D01*
X139947553Y-31333529D02*
X139947553Y-31454482D01*
X139947553Y-31454482D02*
X139887076Y-31635910D01*
X139887076Y-31635910D02*
X139161362Y-32361625D01*
X139161362Y-32361625D02*
X139947553Y-32361625D01*
X149433333Y-60254819D02*
X149100000Y-59778628D01*
X148861905Y-60254819D02*
X148861905Y-59254819D01*
X148861905Y-59254819D02*
X149242857Y-59254819D01*
X149242857Y-59254819D02*
X149338095Y-59302438D01*
X149338095Y-59302438D02*
X149385714Y-59350057D01*
X149385714Y-59350057D02*
X149433333Y-59445295D01*
X149433333Y-59445295D02*
X149433333Y-59588152D01*
X149433333Y-59588152D02*
X149385714Y-59683390D01*
X149385714Y-59683390D02*
X149338095Y-59731009D01*
X149338095Y-59731009D02*
X149242857Y-59778628D01*
X149242857Y-59778628D02*
X148861905Y-59778628D01*
X149766667Y-59254819D02*
X150385714Y-59254819D01*
X150385714Y-59254819D02*
X150052381Y-59635771D01*
X150052381Y-59635771D02*
X150195238Y-59635771D01*
X150195238Y-59635771D02*
X150290476Y-59683390D01*
X150290476Y-59683390D02*
X150338095Y-59731009D01*
X150338095Y-59731009D02*
X150385714Y-59826247D01*
X150385714Y-59826247D02*
X150385714Y-60064342D01*
X150385714Y-60064342D02*
X150338095Y-60159580D01*
X150338095Y-60159580D02*
X150290476Y-60207200D01*
X150290476Y-60207200D02*
X150195238Y-60254819D01*
X150195238Y-60254819D02*
X149909524Y-60254819D01*
X149909524Y-60254819D02*
X149814286Y-60207200D01*
X149814286Y-60207200D02*
X149766667Y-60159580D01*
X155433333Y-57654819D02*
X155100000Y-57178628D01*
X154861905Y-57654819D02*
X154861905Y-56654819D01*
X154861905Y-56654819D02*
X155242857Y-56654819D01*
X155242857Y-56654819D02*
X155338095Y-56702438D01*
X155338095Y-56702438D02*
X155385714Y-56750057D01*
X155385714Y-56750057D02*
X155433333Y-56845295D01*
X155433333Y-56845295D02*
X155433333Y-56988152D01*
X155433333Y-56988152D02*
X155385714Y-57083390D01*
X155385714Y-57083390D02*
X155338095Y-57131009D01*
X155338095Y-57131009D02*
X155242857Y-57178628D01*
X155242857Y-57178628D02*
X154861905Y-57178628D01*
X156290476Y-56988152D02*
X156290476Y-57654819D01*
X156052381Y-56607200D02*
X155814286Y-57321485D01*
X155814286Y-57321485D02*
X156433333Y-57321485D01*
X124126666Y-113754819D02*
X124126666Y-114469104D01*
X124126666Y-114469104D02*
X124079047Y-114611961D01*
X124079047Y-114611961D02*
X123983809Y-114707200D01*
X123983809Y-114707200D02*
X123840952Y-114754819D01*
X123840952Y-114754819D02*
X123745714Y-114754819D01*
X125079047Y-113754819D02*
X124602857Y-113754819D01*
X124602857Y-113754819D02*
X124555238Y-114231009D01*
X124555238Y-114231009D02*
X124602857Y-114183390D01*
X124602857Y-114183390D02*
X124698095Y-114135771D01*
X124698095Y-114135771D02*
X124936190Y-114135771D01*
X124936190Y-114135771D02*
X125031428Y-114183390D01*
X125031428Y-114183390D02*
X125079047Y-114231009D01*
X125079047Y-114231009D02*
X125126666Y-114326247D01*
X125126666Y-114326247D02*
X125126666Y-114564342D01*
X125126666Y-114564342D02*
X125079047Y-114659580D01*
X125079047Y-114659580D02*
X125031428Y-114707200D01*
X125031428Y-114707200D02*
X124936190Y-114754819D01*
X124936190Y-114754819D02*
X124698095Y-114754819D01*
X124698095Y-114754819D02*
X124602857Y-114707200D01*
X124602857Y-114707200D02*
X124555238Y-114659580D01*
D14*
X178480563Y-32126605D02*
X178480563Y-32952105D01*
X178480563Y-32952105D02*
X178425530Y-33117205D01*
X178425530Y-33117205D02*
X178315463Y-33227272D01*
X178315463Y-33227272D02*
X178150363Y-33282305D01*
X178150363Y-33282305D02*
X178040297Y-33282305D01*
X178920830Y-32126605D02*
X179636263Y-32126605D01*
X179636263Y-32126605D02*
X179251030Y-32566872D01*
X179251030Y-32566872D02*
X179416130Y-32566872D01*
X179416130Y-32566872D02*
X179526196Y-32621905D01*
X179526196Y-32621905D02*
X179581230Y-32676938D01*
X179581230Y-32676938D02*
X179636263Y-32787005D01*
X179636263Y-32787005D02*
X179636263Y-33062172D01*
X179636263Y-33062172D02*
X179581230Y-33172238D01*
X179581230Y-33172238D02*
X179526196Y-33227272D01*
X179526196Y-33227272D02*
X179416130Y-33282305D01*
X179416130Y-33282305D02*
X179085930Y-33282305D01*
X179085930Y-33282305D02*
X178975863Y-33227272D01*
X178975863Y-33227272D02*
X178920830Y-33172238D01*
D15*
X162054524Y-35539758D02*
X161401381Y-35539758D01*
X161727952Y-35539758D02*
X161727952Y-34396758D01*
X161727952Y-34396758D02*
X161619095Y-34560044D01*
X161619095Y-34560044D02*
X161510238Y-34668901D01*
X161510238Y-34668901D02*
X161401381Y-34723330D01*
X175061652Y-29813114D02*
X174843937Y-29813114D01*
X174843937Y-29813114D02*
X174735080Y-29867543D01*
X174735080Y-29867543D02*
X174680652Y-29921971D01*
X174680652Y-29921971D02*
X174571794Y-30085257D01*
X174571794Y-30085257D02*
X174517366Y-30302971D01*
X174517366Y-30302971D02*
X174517366Y-30738400D01*
X174517366Y-30738400D02*
X174571794Y-30847257D01*
X174571794Y-30847257D02*
X174626223Y-30901686D01*
X174626223Y-30901686D02*
X174735080Y-30956114D01*
X174735080Y-30956114D02*
X174952794Y-30956114D01*
X174952794Y-30956114D02*
X175061652Y-30901686D01*
X175061652Y-30901686D02*
X175116080Y-30847257D01*
X175116080Y-30847257D02*
X175170509Y-30738400D01*
X175170509Y-30738400D02*
X175170509Y-30466257D01*
X175170509Y-30466257D02*
X175116080Y-30357400D01*
X175116080Y-30357400D02*
X175061652Y-30302971D01*
X175061652Y-30302971D02*
X174952794Y-30248543D01*
X174952794Y-30248543D02*
X174735080Y-30248543D01*
X174735080Y-30248543D02*
X174626223Y-30302971D01*
X174626223Y-30302971D02*
X174571794Y-30357400D01*
X174571794Y-30357400D02*
X174517366Y-30466257D01*
D13*
X149433333Y-54054819D02*
X149100000Y-53578628D01*
X148861905Y-54054819D02*
X148861905Y-53054819D01*
X148861905Y-53054819D02*
X149242857Y-53054819D01*
X149242857Y-53054819D02*
X149338095Y-53102438D01*
X149338095Y-53102438D02*
X149385714Y-53150057D01*
X149385714Y-53150057D02*
X149433333Y-53245295D01*
X149433333Y-53245295D02*
X149433333Y-53388152D01*
X149433333Y-53388152D02*
X149385714Y-53483390D01*
X149385714Y-53483390D02*
X149338095Y-53531009D01*
X149338095Y-53531009D02*
X149242857Y-53578628D01*
X149242857Y-53578628D02*
X148861905Y-53578628D01*
X150385714Y-54054819D02*
X149814286Y-54054819D01*
X150100000Y-54054819D02*
X150100000Y-53054819D01*
X150100000Y-53054819D02*
X150004762Y-53197676D01*
X150004762Y-53197676D02*
X149909524Y-53292914D01*
X149909524Y-53292914D02*
X149814286Y-53340533D01*
D15*
%TO.C,U$15*%
X285000100Y-73773600D02*
X285000100Y-74154600D01*
D17*
X282968100Y-67677600D02*
G75*
G03*
X282968100Y-67677600I-127000J0D01*
G01*
D15*
%TO.C,U$11*%
X285000100Y-46163600D02*
X285000100Y-46544600D01*
D17*
X282968100Y-40067600D02*
G75*
G03*
X282968100Y-40067600I-127000J0D01*
G01*
D15*
%TO.C,U$17*%
X223112100Y-119133600D02*
X223112100Y-119514600D01*
D17*
X221080100Y-113037600D02*
G75*
G03*
X221080100Y-113037600I-127000J0D01*
G01*
D15*
%TO.C,U$6*%
X78292100Y-150318600D02*
X78292100Y-150699600D01*
D17*
X76260100Y-144222600D02*
G75*
G03*
X76260100Y-144222600I-127000J0D01*
G01*
D15*
%TO.C,U$20*%
X223112100Y-150318600D02*
X223112100Y-150699600D01*
D17*
X221080100Y-144222600D02*
G75*
G03*
X221080100Y-144222600I-127000J0D01*
G01*
D15*
%TO.C,U$10*%
X256645100Y-43188600D02*
X256645100Y-43569600D01*
D17*
X254613100Y-37092600D02*
G75*
G03*
X254613100Y-37092600I-127000J0D01*
G01*
D15*
%TO.C,U$13*%
X230127100Y-82793600D02*
X230127100Y-83174600D01*
D17*
X228095100Y-76697600D02*
G75*
G03*
X228095100Y-76697600I-127000J0D01*
G01*
D15*
%TO.C,U$1*%
X-8874900Y-90433600D02*
X-8874900Y-90814600D01*
D17*
X-10906900Y-84337600D02*
G75*
G03*
X-10906900Y-84337600I-127000J0D01*
G01*
D15*
%TO.C,U$21*%
X200425100Y-166088600D02*
X200425100Y-166469600D01*
D17*
X198393100Y-159992600D02*
G75*
G03*
X198393100Y-159992600I-127000J0D01*
G01*
D15*
%TO.C,U$2*%
X16405100Y-74130600D02*
X16405100Y-74511600D01*
D17*
X14373100Y-68034600D02*
G75*
G03*
X14373100Y-68034600I-127000J0D01*
G01*
D15*
%TO.C,U$4*%
X44761100Y-71404600D02*
X44761100Y-71785600D01*
D17*
X42729100Y-65308600D02*
G75*
G03*
X42729100Y-65308600I-127000J0D01*
G01*
D15*
%TO.C,U$7*%
X100980100Y-166087600D02*
X100980100Y-166468600D01*
D17*
X98948100Y-159991600D02*
G75*
G03*
X98948100Y-159991600I-127000J0D01*
G01*
D15*
%TO.C,U$19*%
X245769100Y-134903600D02*
X245769100Y-135284600D01*
D17*
X243737100Y-128807600D02*
G75*
G03*
X243737100Y-128807600I-127000J0D01*
G01*
D15*
%TO.C,U$5*%
X71333100Y-83167600D02*
X71333100Y-83548600D01*
D17*
X69301100Y-77071600D02*
G75*
G03*
X69301100Y-77071600I-127000J0D01*
G01*
D15*
%TO.C,U$18*%
X200425100Y-134903600D02*
X200425100Y-135284600D01*
D17*
X198393100Y-128807600D02*
G75*
G03*
X198393100Y-128807600I-127000J0D01*
G01*
D15*
%TO.C,U$16*%
X311223100Y-89809600D02*
X311223100Y-90190600D01*
D17*
X309191100Y-83713600D02*
G75*
G03*
X309191100Y-83713600I-127000J0D01*
G01*
D15*
%TO.C,U$12*%
X311223100Y-62199600D02*
X311223100Y-62580600D01*
D17*
X309191100Y-56103600D02*
G75*
G03*
X309191100Y-56103600I-127000J0D01*
G01*
D15*
%TO.C,U$9*%
X230127100Y-55184600D02*
X230127100Y-55565600D01*
D17*
X228095100Y-49088600D02*
G75*
G03*
X228095100Y-49088600I-127000J0D01*
G01*
D15*
%TO.C,U$14*%
X256645100Y-70798600D02*
X256645100Y-71179600D01*
D17*
X254613100Y-64702600D02*
G75*
G03*
X254613100Y-64702600I-127000J0D01*
G01*
D15*
%TO.C,U$8*%
X151065100Y-83167600D02*
X151065100Y-83548600D01*
D17*
X149033100Y-77071600D02*
G75*
G03*
X149033100Y-77071600I-127000J0D01*
G01*
D18*
%TO.C,J4*%
X142110065Y-112833600D02*
X143380065Y-112833600D01*
X143380065Y-112833600D02*
X144015065Y-112198600D01*
X141475065Y-112198600D02*
X142110065Y-112833600D01*
X141475065Y-112198600D02*
X141475065Y-110928600D01*
X141475065Y-110928600D02*
X142110065Y-110293600D01*
X144015065Y-110928600D02*
X144015065Y-112198600D01*
X142110065Y-110293600D02*
X141475065Y-109658600D01*
X143380065Y-110293600D02*
X144015065Y-110928600D01*
X141475065Y-109658600D02*
X141475065Y-108388600D01*
X144015065Y-109658600D02*
X143380065Y-110293600D01*
X141475065Y-108388600D02*
X142110065Y-107753600D01*
X144015065Y-108388600D02*
X144015065Y-109658600D01*
X142110065Y-107753600D02*
X141475065Y-107118600D01*
X143380065Y-107753600D02*
X144015065Y-108388600D01*
X141475065Y-107118600D02*
X141475065Y-105848600D01*
X144015065Y-107118600D02*
X143380065Y-107753600D01*
X141475065Y-105848600D02*
X142110065Y-105213600D01*
X144015065Y-105848600D02*
X144015065Y-107118600D01*
X143380065Y-105213600D02*
X144015065Y-105848600D01*
X143380065Y-105213600D02*
X144015065Y-104578600D01*
X141475065Y-104578600D02*
X142110065Y-105213600D01*
X141475065Y-104578600D02*
X141475065Y-103308600D01*
X141475065Y-103308600D02*
X142110065Y-102673600D01*
X144015065Y-103308600D02*
X144015065Y-104578600D01*
X142110065Y-102673600D02*
X143380065Y-102673600D01*
X143380065Y-102673600D02*
X144015065Y-103308600D01*
%TO.C,JP11*%
X263231100Y-79118600D02*
X263231100Y-80388600D01*
X263231100Y-80388600D02*
X263866100Y-81023600D01*
X263866100Y-78483600D02*
X263231100Y-79118600D01*
X263866100Y-78483600D02*
X265136100Y-78483600D01*
X265136100Y-78483600D02*
X265771100Y-79118600D01*
X265136100Y-81023600D02*
X263866100Y-81023600D01*
X265771100Y-79118600D02*
X265771100Y-80388600D01*
X265771100Y-80388600D02*
X265136100Y-81023600D01*
%TO.C,JP10*%
X237231100Y-87118600D02*
X237231100Y-88388600D01*
X237231100Y-88388600D02*
X237866100Y-89023600D01*
X237866100Y-86483600D02*
X237231100Y-87118600D01*
X237866100Y-86483600D02*
X239136100Y-86483600D01*
X239136100Y-86483600D02*
X239771100Y-87118600D01*
X239136100Y-89023600D02*
X237866100Y-89023600D01*
X239771100Y-87118600D02*
X239771100Y-88388600D01*
X239771100Y-88388600D02*
X239136100Y-89023600D01*
%TO.C,JP5*%
X80231100Y-88118600D02*
X80231100Y-89388600D01*
X80231100Y-89388600D02*
X80866100Y-90023600D01*
X80866100Y-87483600D02*
X80231100Y-88118600D01*
X80866100Y-87483600D02*
X82136100Y-87483600D01*
X82136100Y-87483600D02*
X82771100Y-88118600D01*
X82136100Y-90023600D02*
X80866100Y-90023600D01*
X82771100Y-88118600D02*
X82771100Y-89388600D01*
X82771100Y-89388600D02*
X82136100Y-90023600D01*
%TO.C,D1*%
X164581100Y-68547600D02*
X154421100Y-68547600D01*
X164581100Y-62959600D02*
X164581100Y-68547600D01*
X160771100Y-65753600D02*
X159501100Y-65753600D01*
X159501100Y-66337800D02*
X159501100Y-65753600D01*
X159501100Y-65753600D02*
X159501100Y-65169400D01*
X159501100Y-65753600D02*
X158358100Y-66337800D01*
X159501100Y-65753600D02*
X157215100Y-65753600D01*
X158358100Y-66337800D02*
X158358100Y-65169400D01*
X158358100Y-65169400D02*
X159501100Y-65753600D01*
X154421100Y-68547600D02*
X154421100Y-62959600D01*
X154421100Y-62959600D02*
X164581100Y-62959600D01*
G36*
X165470100Y-66388600D02*
G01*
X164581100Y-66388600D01*
X164581100Y-65118600D01*
X165470100Y-65118600D01*
X165470100Y-66388600D01*
G37*
G36*
X163692100Y-68547600D02*
G01*
X162930100Y-68547600D01*
X162930100Y-62959600D01*
X163692100Y-62959600D01*
X163692100Y-68547600D01*
G37*
G36*
X154421100Y-66388600D02*
G01*
X153532100Y-66388600D01*
X153532100Y-65118600D01*
X154421100Y-65118600D01*
X154421100Y-66388600D01*
G37*
D15*
%TO.C,D2*%
X160715214Y-66694142D02*
X157865214Y-66694142D01*
X157865214Y-64994142D02*
X160715214Y-64994142D01*
D10*
X162390214Y-65844142D02*
G75*
G03*
X162390214Y-65844142I-100000J0D01*
G01*
D18*
%TO.C,JP18*%
X210231100Y-133118600D02*
X210231100Y-134388600D01*
X210231100Y-134388600D02*
X210866100Y-135023600D01*
X210866100Y-132483600D02*
X210231100Y-133118600D01*
X210866100Y-132483600D02*
X212136100Y-132483600D01*
X212136100Y-132483600D02*
X212771100Y-133118600D01*
X212136100Y-135023600D02*
X210866100Y-135023600D01*
X212771100Y-133118600D02*
X212771100Y-134388600D01*
X212771100Y-134388600D02*
X212136100Y-135023600D01*
D19*
%TO.C,R2*%
X155339121Y-53072591D02*
X155813637Y-53072591D01*
X155339121Y-54117591D02*
X155813637Y-54117591D01*
D18*
%TO.C,JP6*%
X85231100Y-158118600D02*
X85231100Y-159388600D01*
X85231100Y-159388600D02*
X85866100Y-160023600D01*
X85866100Y-157483600D02*
X85231100Y-158118600D01*
X85866100Y-157483600D02*
X87136100Y-157483600D01*
X87136100Y-157483600D02*
X87771100Y-158118600D01*
X87136100Y-160023600D02*
X85866100Y-160023600D01*
X87771100Y-158118600D02*
X87771100Y-159388600D01*
X87771100Y-159388600D02*
X87136100Y-160023600D01*
%TO.C,JP14*%
X310231100Y-72118600D02*
X310231100Y-73388600D01*
X310231100Y-73388600D02*
X310866100Y-74023600D01*
X310866100Y-71483600D02*
X310231100Y-72118600D01*
X310866100Y-71483600D02*
X312136100Y-71483600D01*
X312136100Y-71483600D02*
X312771100Y-72118600D01*
X312136100Y-74023600D02*
X310866100Y-74023600D01*
X312771100Y-72118600D02*
X312771100Y-73388600D01*
X312771100Y-73388600D02*
X312136100Y-74023600D01*
%TO.C,JP4*%
X53231100Y-78118600D02*
X53231100Y-79388600D01*
X53231100Y-79388600D02*
X53866100Y-80023600D01*
X53866100Y-77483600D02*
X53231100Y-78118600D01*
X53866100Y-77483600D02*
X55136100Y-77483600D01*
X55136100Y-77483600D02*
X55771100Y-78118600D01*
X55136100Y-80023600D02*
X53866100Y-80023600D01*
X55771100Y-78118600D02*
X55771100Y-79388600D01*
X55771100Y-79388600D02*
X55136100Y-80023600D01*
%TO.C,JP9*%
X240231100Y-60118600D02*
X240231100Y-61388600D01*
X240231100Y-61388600D02*
X240866100Y-62023600D01*
X240866100Y-59483600D02*
X240231100Y-60118600D01*
X240866100Y-59483600D02*
X242136100Y-59483600D01*
X242136100Y-59483600D02*
X242771100Y-60118600D01*
X242136100Y-62023600D02*
X240866100Y-62023600D01*
X242771100Y-60118600D02*
X242771100Y-61388600D01*
X242771100Y-61388600D02*
X242136100Y-62023600D01*
D19*
%TO.C,J2*%
X151568981Y-26753600D02*
X143568981Y-26753600D01*
D18*
%TO.C,JP16*%
X290231100Y-83118600D02*
X290231100Y-84388600D01*
X290231100Y-84388600D02*
X290866100Y-85023600D01*
X290866100Y-82483600D02*
X290231100Y-83118600D01*
X290866100Y-82483600D02*
X292136100Y-82483600D01*
X292136100Y-82483600D02*
X292771100Y-83118600D01*
X292136100Y-85023600D02*
X290866100Y-85023600D01*
X292771100Y-83118600D02*
X292771100Y-84388600D01*
X292771100Y-84388600D02*
X292136100Y-85023600D01*
%TO.C,JP20*%
X234231100Y-150118600D02*
X234231100Y-151388600D01*
X234231100Y-151388600D02*
X234866100Y-152023600D01*
X234866100Y-149483600D02*
X234231100Y-150118600D01*
X234866100Y-149483600D02*
X236136100Y-149483600D01*
X236136100Y-149483600D02*
X236771100Y-150118600D01*
X236136100Y-152023600D02*
X234866100Y-152023600D01*
X236771100Y-150118600D02*
X236771100Y-151388600D01*
X236771100Y-151388600D02*
X236136100Y-152023600D01*
%TO.C,JP13*%
X293231100Y-54118600D02*
X293231100Y-55388600D01*
X293231100Y-55388600D02*
X293866100Y-56023600D01*
X293866100Y-53483600D02*
X293231100Y-54118600D01*
X293866100Y-53483600D02*
X295136100Y-53483600D01*
X295136100Y-53483600D02*
X295771100Y-54118600D01*
X295136100Y-56023600D02*
X293866100Y-56023600D01*
X295771100Y-54118600D02*
X295771100Y-55388600D01*
X295771100Y-55388600D02*
X295136100Y-56023600D01*
%TO.C,JP17*%
X235231100Y-125118600D02*
X235231100Y-126388600D01*
X235231100Y-126388600D02*
X235866100Y-127023600D01*
X235866100Y-124483600D02*
X235231100Y-125118600D01*
X235866100Y-124483600D02*
X237136100Y-124483600D01*
X237136100Y-124483600D02*
X237771100Y-125118600D01*
X237136100Y-127023600D02*
X235866100Y-127023600D01*
X237771100Y-125118600D02*
X237771100Y-126388600D01*
X237771100Y-126388600D02*
X237136100Y-127023600D01*
%TO.C,JP12*%
X267231100Y-39118600D02*
X267231100Y-40388600D01*
X267231100Y-40388600D02*
X267866100Y-41023600D01*
X267866100Y-38483600D02*
X267231100Y-39118600D01*
X267866100Y-38483600D02*
X269136100Y-38483600D01*
X269136100Y-38483600D02*
X269771100Y-39118600D01*
X269136100Y-41023600D02*
X267866100Y-41023600D01*
X269771100Y-39118600D02*
X269771100Y-40388600D01*
X269771100Y-40388600D02*
X269136100Y-41023600D01*
D19*
%TO.C,R3*%
X152321476Y-58322391D02*
X158861476Y-58322391D01*
X152321476Y-58652391D02*
X152321476Y-58322391D01*
X152321476Y-60732391D02*
X152321476Y-61062391D01*
X152321476Y-61062391D02*
X158861476Y-61062391D01*
X158861476Y-58322391D02*
X158861476Y-58652391D01*
X158861476Y-61062391D02*
X158861476Y-60732391D01*
D15*
%TO.C,J1*%
X17001100Y-126253600D02*
X23501100Y-126253600D01*
X17001100Y-177253600D02*
X17001100Y-126253600D01*
X23501100Y-124753600D02*
X31501100Y-124753600D01*
X23501100Y-126253600D02*
X23501100Y-124753600D01*
X23501100Y-126253600D02*
X23501100Y-130753600D01*
X23501100Y-126253600D02*
X31401100Y-126253600D01*
X23501100Y-130753600D02*
X31501100Y-130753600D01*
X31401100Y-126253600D02*
X38001100Y-126253600D01*
X31501100Y-124753600D02*
X31401100Y-126253600D01*
X31501100Y-130753600D02*
X31401100Y-126253600D01*
X38001100Y-126253600D02*
X38001100Y-177253600D01*
X38001100Y-177253600D02*
X17001100Y-177253600D01*
D18*
%TO.C,JP15*%
X312231100Y-100118600D02*
X312231100Y-101388600D01*
X312231100Y-101388600D02*
X312866100Y-102023600D01*
X312866100Y-99483600D02*
X312231100Y-100118600D01*
X312866100Y-99483600D02*
X314136100Y-99483600D01*
X314136100Y-99483600D02*
X314771100Y-100118600D01*
X314136100Y-102023600D02*
X312866100Y-102023600D01*
X314771100Y-100118600D02*
X314771100Y-101388600D01*
X314771100Y-101388600D02*
X314136100Y-102023600D01*
D19*
%TO.C,R4*%
X155413698Y-59141292D02*
X155888214Y-59141292D01*
X155413698Y-60186292D02*
X155888214Y-60186292D01*
D18*
%TO.C,JP7*%
X111231100Y-161118600D02*
X111231100Y-162388600D01*
X111231100Y-162388600D02*
X111866100Y-163023600D01*
X111866100Y-160483600D02*
X111231100Y-161118600D01*
X111866100Y-160483600D02*
X113136100Y-160483600D01*
X113136100Y-160483600D02*
X113771100Y-161118600D01*
X113136100Y-163023600D02*
X111866100Y-163023600D01*
X113771100Y-161118600D02*
X113771100Y-162388600D01*
X113771100Y-162388600D02*
X113136100Y-163023600D01*
D20*
%TO.C,J5*%
X116299393Y-103971075D02*
X116299393Y-111971075D01*
D18*
%TO.C,JP2*%
X1231100Y-96118600D02*
X1231100Y-97388600D01*
X1231100Y-97388600D02*
X1866100Y-98023600D01*
X1866100Y-95483600D02*
X1231100Y-96118600D01*
X1866100Y-95483600D02*
X3136100Y-95483600D01*
X3136100Y-95483600D02*
X3771100Y-96118600D01*
X3136100Y-98023600D02*
X1866100Y-98023600D01*
X3771100Y-96118600D02*
X3771100Y-97388600D01*
X3771100Y-97388600D02*
X3136100Y-98023600D01*
%TO.C,JP8*%
X155231100Y-94118600D02*
X155231100Y-95388600D01*
X155231100Y-95388600D02*
X155866100Y-96023600D01*
X155866100Y-93483600D02*
X155231100Y-94118600D01*
X155866100Y-93483600D02*
X157136100Y-93483600D01*
X157136100Y-93483600D02*
X157771100Y-94118600D01*
X157136100Y-96023600D02*
X155866100Y-96023600D01*
X157771100Y-94118600D02*
X157771100Y-95388600D01*
X157771100Y-95388600D02*
X157136100Y-96023600D01*
%TO.C,JP21*%
X182231100Y-171118600D02*
X182231100Y-172388600D01*
X182231100Y-172388600D02*
X182866100Y-173023600D01*
X182866100Y-170483600D02*
X182231100Y-171118600D01*
X182866100Y-170483600D02*
X184136100Y-170483600D01*
X184136100Y-170483600D02*
X184771100Y-171118600D01*
X184136100Y-173023600D02*
X182866100Y-173023600D01*
X184771100Y-171118600D02*
X184771100Y-172388600D01*
X184771100Y-172388600D02*
X184136100Y-173023600D01*
%TO.C,JP19*%
X256231100Y-141118600D02*
X256231100Y-142388600D01*
X256231100Y-142388600D02*
X256866100Y-143023600D01*
X256866100Y-140483600D02*
X256231100Y-141118600D01*
X256866100Y-140483600D02*
X258136100Y-140483600D01*
X258136100Y-140483600D02*
X258771100Y-141118600D01*
X258136100Y-143023600D02*
X256866100Y-143023600D01*
X258771100Y-141118600D02*
X258771100Y-142388600D01*
X258771100Y-142388600D02*
X258136100Y-143023600D01*
%TO.C,J3*%
X160881100Y-32118600D02*
X160881100Y-33388600D01*
X160881100Y-33388600D02*
X161516100Y-34023600D01*
X161516100Y-31483600D02*
X160881100Y-32118600D01*
X161516100Y-31483600D02*
X162786100Y-31483600D01*
X162786100Y-31483600D02*
X163421100Y-32118600D01*
X162786100Y-34023600D02*
X161516100Y-34023600D01*
X163421100Y-32118600D02*
X164056100Y-31483600D01*
X163421100Y-33388600D02*
X162786100Y-34023600D01*
X164056100Y-31483600D02*
X165326100Y-31483600D01*
X164056100Y-34023600D02*
X163421100Y-33388600D01*
X165326100Y-31483600D02*
X165961100Y-32118600D01*
X165326100Y-34023600D02*
X164056100Y-34023600D01*
X165961100Y-32118600D02*
X166596100Y-31483600D01*
X165961100Y-33388600D02*
X165326100Y-34023600D01*
X166596100Y-31483600D02*
X167866100Y-31483600D01*
X166596100Y-34023600D02*
X165961100Y-33388600D01*
X167866100Y-31483600D02*
X168501100Y-32118600D01*
X167866100Y-34023600D02*
X166596100Y-34023600D01*
X168501100Y-33388600D02*
X167866100Y-34023600D01*
X168501100Y-33388600D02*
X169136100Y-34023600D01*
X169136100Y-31483600D02*
X168501100Y-32118600D01*
X169136100Y-31483600D02*
X170406100Y-31483600D01*
X170406100Y-31483600D02*
X171041100Y-32118600D01*
X170406100Y-34023600D02*
X169136100Y-34023600D01*
X171041100Y-32118600D02*
X171676100Y-31483600D01*
X171041100Y-33388600D02*
X170406100Y-34023600D01*
X171676100Y-31483600D02*
X172946100Y-31483600D01*
X171676100Y-34023600D02*
X171041100Y-33388600D01*
X172946100Y-31483600D02*
X173581100Y-32118600D01*
X172946100Y-34023600D02*
X171676100Y-34023600D01*
X173581100Y-32118600D02*
X174216100Y-31483600D01*
X173581100Y-33388600D02*
X172946100Y-34023600D01*
X174216100Y-31483600D02*
X175486100Y-31483600D01*
X174216100Y-34023600D02*
X173581100Y-33388600D01*
X175486100Y-31483600D02*
X176121100Y-32118600D01*
X175486100Y-34023600D02*
X174216100Y-34023600D01*
X176121100Y-32118600D02*
X176121100Y-33388600D01*
X176121100Y-33388600D02*
X175486100Y-34023600D01*
D19*
%TO.C,R1*%
X152366963Y-52225091D02*
X158906963Y-52225091D01*
X152366963Y-52555091D02*
X152366963Y-52225091D01*
X152366963Y-54635091D02*
X152366963Y-54965091D01*
X152366963Y-54965091D02*
X158906963Y-54965091D01*
X158906963Y-52225091D02*
X158906963Y-52555091D01*
X158906963Y-54965091D02*
X158906963Y-54635091D01*
D18*
%TO.C,JP3*%
X16231100Y-85118600D02*
X16231100Y-86388600D01*
X16231100Y-86388600D02*
X16866100Y-87023600D01*
X16866100Y-84483600D02*
X16231100Y-85118600D01*
X16866100Y-84483600D02*
X18136100Y-84483600D01*
X18136100Y-84483600D02*
X18771100Y-85118600D01*
X18136100Y-87023600D02*
X16866100Y-87023600D01*
X18771100Y-85118600D02*
X18771100Y-86388600D01*
X18771100Y-86388600D02*
X18136100Y-87023600D01*
%TD*%
%LPC*%
D21*
%TO.C,U$15*%
X287921100Y-72757600D03*
D22*
X286651100Y-75297600D03*
D23*
X282841100Y-72757600D03*
D22*
X280301100Y-77837600D03*
D21*
X277761100Y-72757600D03*
D24*
X279031100Y-70217600D03*
X285381100Y-67677600D03*
D25*
X291831100Y-76047600D03*
X291831100Y-74467600D03*
X291096100Y-75297600D03*
X290401100Y-76047600D03*
X290401100Y-74427600D03*
X276531100Y-78607600D03*
X276531100Y-77027600D03*
X275796100Y-77857600D03*
X275101100Y-78607600D03*
X275101100Y-76987600D03*
%TD*%
D21*
%TO.C,U$11*%
X287921100Y-45147600D03*
D22*
X286651100Y-47687600D03*
D23*
X282841100Y-45147600D03*
D22*
X280301100Y-50227600D03*
D21*
X277761100Y-45147600D03*
D24*
X279031100Y-42607600D03*
X285381100Y-40067600D03*
D25*
X291831100Y-48437600D03*
X291831100Y-46857600D03*
X291096100Y-47687600D03*
X290401100Y-48437600D03*
X290401100Y-46817600D03*
X276531100Y-50997600D03*
X276531100Y-49417600D03*
X275796100Y-50247600D03*
X275101100Y-50997600D03*
X275101100Y-49377600D03*
%TD*%
D21*
%TO.C,U$17*%
X226033100Y-118117600D03*
D22*
X224763100Y-120657600D03*
D23*
X220953100Y-118117600D03*
D22*
X218413100Y-123197600D03*
D21*
X215873100Y-118117600D03*
D24*
X217143100Y-115577600D03*
X223493100Y-113037600D03*
D25*
X229943100Y-121407600D03*
X229943100Y-119827600D03*
X229208100Y-120657600D03*
X228513100Y-121407600D03*
X228513100Y-119787600D03*
X214643100Y-123967600D03*
X214643100Y-122387600D03*
X213908100Y-123217600D03*
X213213100Y-123967600D03*
X213213100Y-122347600D03*
%TD*%
D21*
%TO.C,U$6*%
X81213100Y-149302600D03*
D22*
X79943100Y-151842600D03*
D23*
X76133100Y-149302600D03*
D22*
X73593100Y-154382600D03*
D21*
X71053100Y-149302600D03*
D24*
X72323100Y-146762600D03*
X78673100Y-144222600D03*
D25*
X85123100Y-152592600D03*
X85123100Y-151012600D03*
X84388100Y-151842600D03*
X83693100Y-152592600D03*
X83693100Y-150972600D03*
X69823100Y-155152600D03*
X69823100Y-153572600D03*
X69088100Y-154402600D03*
X68393100Y-155152600D03*
X68393100Y-153532600D03*
%TD*%
D21*
%TO.C,U$20*%
X226033100Y-149302600D03*
D22*
X224763100Y-151842600D03*
D23*
X220953100Y-149302600D03*
D22*
X218413100Y-154382600D03*
D21*
X215873100Y-149302600D03*
D24*
X217143100Y-146762600D03*
X223493100Y-144222600D03*
D25*
X229943100Y-152592600D03*
X229943100Y-151012600D03*
X229208100Y-151842600D03*
X228513100Y-152592600D03*
X228513100Y-150972600D03*
X214643100Y-155152600D03*
X214643100Y-153572600D03*
X213908100Y-154402600D03*
X213213100Y-155152600D03*
X213213100Y-153532600D03*
%TD*%
D21*
%TO.C,U$10*%
X259566100Y-42172600D03*
D22*
X258296100Y-44712600D03*
D23*
X254486100Y-42172600D03*
D22*
X251946100Y-47252600D03*
D21*
X249406100Y-42172600D03*
D24*
X250676100Y-39632600D03*
X257026100Y-37092600D03*
D25*
X263476100Y-45462600D03*
X263476100Y-43882600D03*
X262741100Y-44712600D03*
X262046100Y-45462600D03*
X262046100Y-43842600D03*
X248176100Y-48022600D03*
X248176100Y-46442600D03*
X247441100Y-47272600D03*
X246746100Y-48022600D03*
X246746100Y-46402600D03*
%TD*%
D21*
%TO.C,U$13*%
X233048100Y-81777600D03*
D22*
X231778100Y-84317600D03*
D23*
X227968100Y-81777600D03*
D22*
X225428100Y-86857600D03*
D21*
X222888100Y-81777600D03*
D24*
X224158100Y-79237600D03*
X230508100Y-76697600D03*
D25*
X236958100Y-85067600D03*
X236958100Y-83487600D03*
X236223100Y-84317600D03*
X235528100Y-85067600D03*
X235528100Y-83447600D03*
X221658100Y-87627600D03*
X221658100Y-86047600D03*
X220923100Y-86877600D03*
X220228100Y-87627600D03*
X220228100Y-86007600D03*
%TD*%
D21*
%TO.C,U$1*%
X-5953900Y-89417600D03*
D22*
X-7223900Y-91957600D03*
D23*
X-11033900Y-89417600D03*
D22*
X-13573900Y-94497600D03*
D21*
X-16113900Y-89417600D03*
D24*
X-14843900Y-86877600D03*
X-8493900Y-84337600D03*
D25*
X-2043900Y-92707600D03*
X-2043900Y-91127600D03*
X-2778900Y-91957600D03*
X-3473900Y-92707600D03*
X-3473900Y-91087600D03*
X-17343900Y-95267600D03*
X-17343900Y-93687600D03*
X-18078900Y-94517600D03*
X-18773900Y-95267600D03*
X-18773900Y-93647600D03*
%TD*%
D21*
%TO.C,U$21*%
X203346100Y-165072600D03*
D22*
X202076100Y-167612600D03*
D23*
X198266100Y-165072600D03*
D22*
X195726100Y-170152600D03*
D21*
X193186100Y-165072600D03*
D24*
X194456100Y-162532600D03*
X200806100Y-159992600D03*
D25*
X207256100Y-168362600D03*
X207256100Y-166782600D03*
X206521100Y-167612600D03*
X205826100Y-168362600D03*
X205826100Y-166742600D03*
X191956100Y-170922600D03*
X191956100Y-169342600D03*
X191221100Y-170172600D03*
X190526100Y-170922600D03*
X190526100Y-169302600D03*
%TD*%
D21*
%TO.C,U$2*%
X19326100Y-73114600D03*
D22*
X18056100Y-75654600D03*
D23*
X14246100Y-73114600D03*
D22*
X11706100Y-78194600D03*
D21*
X9166100Y-73114600D03*
D24*
X10436100Y-70574600D03*
X16786100Y-68034600D03*
D25*
X23236100Y-76404600D03*
X23236100Y-74824600D03*
X22501100Y-75654600D03*
X21806100Y-76404600D03*
X21806100Y-74784600D03*
X7936100Y-78964600D03*
X7936100Y-77384600D03*
X7201100Y-78214600D03*
X6506100Y-78964600D03*
X6506100Y-77344600D03*
%TD*%
D21*
%TO.C,U$4*%
X47682100Y-70388600D03*
D22*
X46412100Y-72928600D03*
D23*
X42602100Y-70388600D03*
D22*
X40062100Y-75468600D03*
D21*
X37522100Y-70388600D03*
D24*
X38792100Y-67848600D03*
X45142100Y-65308600D03*
D25*
X51592100Y-73678600D03*
X51592100Y-72098600D03*
X50857100Y-72928600D03*
X50162100Y-73678600D03*
X50162100Y-72058600D03*
X36292100Y-76238600D03*
X36292100Y-74658600D03*
X35557100Y-75488600D03*
X34862100Y-76238600D03*
X34862100Y-74618600D03*
%TD*%
D21*
%TO.C,U$7*%
X103901100Y-165071600D03*
D22*
X102631100Y-167611600D03*
D23*
X98821100Y-165071600D03*
D22*
X96281100Y-170151600D03*
D21*
X93741100Y-165071600D03*
D24*
X95011100Y-162531600D03*
X101361100Y-159991600D03*
D25*
X107811100Y-168361600D03*
X107811100Y-166781600D03*
X107076100Y-167611600D03*
X106381100Y-168361600D03*
X106381100Y-166741600D03*
X92511100Y-170921600D03*
X92511100Y-169341600D03*
X91776100Y-170171600D03*
X91081100Y-170921600D03*
X91081100Y-169301600D03*
%TD*%
D21*
%TO.C,U$19*%
X248690100Y-133887600D03*
D22*
X247420100Y-136427600D03*
D23*
X243610100Y-133887600D03*
D22*
X241070100Y-138967600D03*
D21*
X238530100Y-133887600D03*
D24*
X239800100Y-131347600D03*
X246150100Y-128807600D03*
D25*
X252600100Y-137177600D03*
X252600100Y-135597600D03*
X251865100Y-136427600D03*
X251170100Y-137177600D03*
X251170100Y-135557600D03*
X237300100Y-139737600D03*
X237300100Y-138157600D03*
X236565100Y-138987600D03*
X235870100Y-139737600D03*
X235870100Y-138117600D03*
%TD*%
D21*
%TO.C,U$5*%
X74254100Y-82151600D03*
D22*
X72984100Y-84691600D03*
D23*
X69174100Y-82151600D03*
D22*
X66634100Y-87231600D03*
D21*
X64094100Y-82151600D03*
D24*
X65364100Y-79611600D03*
X71714100Y-77071600D03*
D25*
X78164100Y-85441600D03*
X78164100Y-83861600D03*
X77429100Y-84691600D03*
X76734100Y-85441600D03*
X76734100Y-83821600D03*
X62864100Y-88001600D03*
X62864100Y-86421600D03*
X62129100Y-87251600D03*
X61434100Y-88001600D03*
X61434100Y-86381600D03*
%TD*%
D21*
%TO.C,U$18*%
X203346100Y-133887600D03*
D22*
X202076100Y-136427600D03*
D23*
X198266100Y-133887600D03*
D22*
X195726100Y-138967600D03*
D21*
X193186100Y-133887600D03*
D24*
X194456100Y-131347600D03*
X200806100Y-128807600D03*
D25*
X207256100Y-137177600D03*
X207256100Y-135597600D03*
X206521100Y-136427600D03*
X205826100Y-137177600D03*
X205826100Y-135557600D03*
X191956100Y-139737600D03*
X191956100Y-138157600D03*
X191221100Y-138987600D03*
X190526100Y-139737600D03*
X190526100Y-138117600D03*
%TD*%
D21*
%TO.C,U$16*%
X314144100Y-88793600D03*
D22*
X312874100Y-91333600D03*
D23*
X309064100Y-88793600D03*
D22*
X306524100Y-93873600D03*
D21*
X303984100Y-88793600D03*
D24*
X305254100Y-86253600D03*
X311604100Y-83713600D03*
D25*
X318054100Y-92083600D03*
X318054100Y-90503600D03*
X317319100Y-91333600D03*
X316624100Y-92083600D03*
X316624100Y-90463600D03*
X302754100Y-94643600D03*
X302754100Y-93063600D03*
X302019100Y-93893600D03*
X301324100Y-94643600D03*
X301324100Y-93023600D03*
%TD*%
D21*
%TO.C,U$12*%
X314144100Y-61183600D03*
D22*
X312874100Y-63723600D03*
D23*
X309064100Y-61183600D03*
D22*
X306524100Y-66263600D03*
D21*
X303984100Y-61183600D03*
D24*
X305254100Y-58643600D03*
X311604100Y-56103600D03*
D25*
X318054100Y-64473600D03*
X318054100Y-62893600D03*
X317319100Y-63723600D03*
X316624100Y-64473600D03*
X316624100Y-62853600D03*
X302754100Y-67033600D03*
X302754100Y-65453600D03*
X302019100Y-66283600D03*
X301324100Y-67033600D03*
X301324100Y-65413600D03*
%TD*%
D21*
%TO.C,U$9*%
X233048100Y-54168600D03*
D22*
X231778100Y-56708600D03*
D23*
X227968100Y-54168600D03*
D22*
X225428100Y-59248600D03*
D21*
X222888100Y-54168600D03*
D24*
X224158100Y-51628600D03*
X230508100Y-49088600D03*
D25*
X236958100Y-57458600D03*
X236958100Y-55878600D03*
X236223100Y-56708600D03*
X235528100Y-57458600D03*
X235528100Y-55838600D03*
X221658100Y-60018600D03*
X221658100Y-58438600D03*
X220923100Y-59268600D03*
X220228100Y-60018600D03*
X220228100Y-58398600D03*
%TD*%
D21*
%TO.C,U$14*%
X259566100Y-69782600D03*
D22*
X258296100Y-72322600D03*
D23*
X254486100Y-69782600D03*
D22*
X251946100Y-74862600D03*
D21*
X249406100Y-69782600D03*
D24*
X250676100Y-67242600D03*
X257026100Y-64702600D03*
D25*
X263476100Y-73072600D03*
X263476100Y-71492600D03*
X262741100Y-72322600D03*
X262046100Y-73072600D03*
X262046100Y-71452600D03*
X248176100Y-75632600D03*
X248176100Y-74052600D03*
X247441100Y-74882600D03*
X246746100Y-75632600D03*
X246746100Y-74012600D03*
%TD*%
D21*
%TO.C,U$8*%
X153986100Y-82151600D03*
D22*
X152716100Y-84691600D03*
D23*
X148906100Y-82151600D03*
D22*
X146366100Y-87231600D03*
D21*
X143826100Y-82151600D03*
D24*
X145096100Y-79611600D03*
X151446100Y-77071600D03*
D25*
X157896100Y-85441600D03*
X157896100Y-83861600D03*
X157161100Y-84691600D03*
X156466100Y-85441600D03*
X156466100Y-83821600D03*
X142596100Y-88001600D03*
X142596100Y-86421600D03*
X141861100Y-87251600D03*
X141166100Y-88001600D03*
X141166100Y-86381600D03*
%TD*%
D26*
%TO.C,J4*%
X142745065Y-111563600D03*
X142745065Y-109023600D03*
X142745065Y-106483600D03*
X142745065Y-103943600D03*
%TD*%
D27*
%TO.C,JP11*%
X264501100Y-79753600D03*
%TD*%
%TO.C,JP10*%
X238501100Y-87753600D03*
%TD*%
%TO.C,JP5*%
X81501100Y-88753600D03*
%TD*%
D28*
%TO.C,D1*%
X151881100Y-65753600D03*
X167121100Y-65753600D03*
%TD*%
D29*
%TO.C,@HOLE11*%
X174501100Y-45253600D03*
%TD*%
D30*
%TO.C,@HOLE8*%
X184501100Y-71753600D03*
%TD*%
D22*
%TO.C,@HOLE0*%
X68501100Y-166753600D03*
%TD*%
D31*
%TO.C,D2*%
X157610214Y-65844142D03*
X160970214Y-65844142D03*
%TD*%
D27*
%TO.C,JP18*%
X211501100Y-133753600D03*
%TD*%
D30*
%TO.C,@HOLE9*%
X136501100Y-160753600D03*
%TD*%
D32*
%TO.C,R2*%
X154751379Y-53595091D03*
X156401379Y-53595091D03*
%TD*%
D27*
%TO.C,JP6*%
X86501100Y-158753600D03*
%TD*%
D33*
%TO.C,@HOLE14*%
X122501100Y-131553600D03*
%TD*%
D27*
%TO.C,JP14*%
X311501100Y-72753600D03*
%TD*%
%TO.C,JP4*%
X54501100Y-78753600D03*
%TD*%
%TO.C,JP9*%
X241501100Y-60753600D03*
%TD*%
D34*
%TO.C,J2*%
X151168981Y-34593600D03*
X143818981Y-34593600D03*
D35*
X150318981Y-35153600D03*
X149818981Y-35153600D03*
X149318981Y-35153600D03*
X148818981Y-35153600D03*
X148318981Y-35153600D03*
X147818981Y-35153600D03*
X147318981Y-35153600D03*
X146818981Y-35153600D03*
X146318981Y-35153600D03*
X145818981Y-35153600D03*
X145318981Y-35153600D03*
X144818981Y-35153600D03*
D36*
X144768981Y-33943600D03*
X145168981Y-33243600D03*
X145968981Y-33243600D03*
X146368981Y-33943600D03*
X146768981Y-33243600D03*
X147168981Y-33943600D03*
X147968981Y-33943600D03*
X148368981Y-33243600D03*
X148768981Y-33943600D03*
X149168981Y-33243600D03*
X149968981Y-33243600D03*
X150368981Y-33943600D03*
D37*
X151698981Y-33343600D03*
X143438981Y-33343600D03*
X152058981Y-28953600D03*
X143078981Y-28953600D03*
%TD*%
D27*
%TO.C,JP16*%
X291501100Y-83753600D03*
%TD*%
D29*
%TO.C,@HOLE13*%
X30301100Y-43453600D03*
%TD*%
D22*
%TO.C,@HOLE1*%
X284501100Y-147753600D03*
%TD*%
D27*
%TO.C,JP20*%
X235501100Y-150753600D03*
%TD*%
%TO.C,JP13*%
X294501100Y-54753600D03*
%TD*%
%TO.C,JP17*%
X236501100Y-125753600D03*
%TD*%
%TO.C,JP12*%
X268501100Y-39753600D03*
%TD*%
D22*
%TO.C,@HOLE2*%
X-19498900Y-154753600D03*
%TD*%
D38*
%TO.C,R3*%
X151781476Y-59692391D03*
D39*
X159401476Y-59692391D03*
%TD*%
D40*
%TO.C,J1*%
X21801100Y-128253600D03*
X21801100Y-175253600D03*
D41*
X24776100Y-127753600D03*
X25076100Y-130783600D03*
X29926100Y-130783600D03*
X30226100Y-127753600D03*
D40*
X33201100Y-128253600D03*
X33201100Y-175253600D03*
D42*
X37191100Y-137783600D03*
X37191100Y-135243600D03*
X37191100Y-140323600D03*
X37191100Y-145403600D03*
X17811100Y-132703600D03*
X17811100Y-145403600D03*
X17811100Y-158103600D03*
X17811100Y-170803600D03*
D43*
X27501100Y-176453600D03*
D42*
X37191100Y-170803600D03*
X37191100Y-158103600D03*
X37191100Y-132703600D03*
X17811100Y-127623600D03*
X17811100Y-130163600D03*
X17811100Y-135243600D03*
X17811100Y-137783600D03*
X17811100Y-140323600D03*
X17811100Y-142863600D03*
X17811100Y-147943600D03*
X17811100Y-150483600D03*
X17811100Y-153023600D03*
X17811100Y-155563600D03*
X17811100Y-160643600D03*
X17811100Y-163183600D03*
X17811100Y-165723600D03*
X17811100Y-168263600D03*
X17811100Y-173343600D03*
X17811100Y-175883600D03*
X37191100Y-175883600D03*
X37191100Y-173343600D03*
X37191100Y-168263600D03*
X37191100Y-165723600D03*
X37191100Y-163183600D03*
X37191100Y-160643600D03*
X37191100Y-155563600D03*
X37191100Y-150483600D03*
X37191100Y-147943600D03*
X37191100Y-142863600D03*
X37191100Y-153023600D03*
D43*
X24961100Y-176453600D03*
X30041100Y-176453600D03*
D44*
X28501100Y-127453600D03*
X26501100Y-127453600D03*
D42*
X37191100Y-127623600D03*
X37191100Y-130163600D03*
%TD*%
D27*
%TO.C,JP15*%
X313501100Y-100753600D03*
%TD*%
D32*
%TO.C,R4*%
X154825956Y-59663792D03*
X156475956Y-59663792D03*
%TD*%
D22*
%TO.C,@HOLE10*%
X119501100Y-59753600D03*
%TD*%
D29*
%TO.C,@HOLE15*%
X256501100Y-161753600D03*
%TD*%
D30*
%TO.C,@HOLE6*%
X-13498900Y-143753600D03*
%TD*%
D22*
%TO.C,@HOLE16*%
X71501100Y-125753600D03*
%TD*%
%TO.C,@HOLE3*%
X182501100Y-126753600D03*
%TD*%
D29*
%TO.C,@HOLE12*%
X-11098900Y-108953600D03*
%TD*%
D30*
%TO.C,@HOLE4*%
X268501100Y-54753600D03*
%TD*%
D27*
%TO.C,JP7*%
X112501100Y-161753600D03*
%TD*%
D34*
%TO.C,J5*%
X122579393Y-105081075D03*
X122579393Y-110861075D03*
D45*
X123699393Y-104771075D03*
X123699393Y-105571075D03*
D46*
X123699393Y-106721075D03*
X123699393Y-107721075D03*
X123699393Y-108221075D03*
X123699393Y-109221075D03*
D45*
X123699393Y-111171075D03*
X123699393Y-110371075D03*
D46*
X123699393Y-109721075D03*
X123699393Y-108721075D03*
X123699393Y-107221075D03*
X123699393Y-106221075D03*
D47*
X123079393Y-103651075D03*
D48*
X118899393Y-103651075D03*
D47*
X123079393Y-112291075D03*
D48*
X118899393Y-112291075D03*
%TD*%
D27*
%TO.C,JP2*%
X2501100Y-96753600D03*
%TD*%
%TO.C,JP8*%
X156501100Y-94753600D03*
%TD*%
%TO.C,JP21*%
X183501100Y-171753600D03*
%TD*%
%TO.C,JP19*%
X257501100Y-141753600D03*
%TD*%
D49*
%TO.C,J3*%
X162151100Y-32753600D03*
X164691100Y-32753600D03*
X167231100Y-32753600D03*
X169771100Y-32753600D03*
X172311100Y-32753600D03*
X174851100Y-32753600D03*
%TD*%
D30*
%TO.C,@HOLE5*%
X276501100Y-158753600D03*
%TD*%
D38*
%TO.C,R1*%
X151826963Y-53595091D03*
D39*
X159446963Y-53595091D03*
%TD*%
D30*
%TO.C,@HOLE7*%
X65501100Y-49753600D03*
%TD*%
D27*
%TO.C,JP3*%
X17501100Y-85753600D03*
%TD*%
%LPD*%
M02*
