M48
; DRILL file {KiCad 7.0.8} date Sun Feb 11 15:23:49 2024
; FORMAT={-:-/ absolute / metric / decimal}
; #@! TF.CreationDate,2024-02-11T15:23:49-08:00
; #@! TF.GenerationSoftware,Kicad,Pcbnew,7.0.8
; #@! TF.FileFunction,Plated,1,2,PTH
FMAT,2
METRIC
; #@! TA.AperFunction,Plated,PTH,ComponentDrill
T1C0.200
; #@! TA.AperFunction,Plated,PTH,ViaDrill
T2C0.305
; #@! TA.AperFunction,Plated,PTH,ViaDrill
T3C0.350
; #@! TA.AperFunction,Plated,PTH,ViaDrill
T4C0.400
; #@! TA.AperFunction,Plated,PTH,ComponentDrill
T5C0.400
; #@! TA.AperFunction,Plated,PTH,ComponentDrill
T6C0.500
; #@! TA.AperFunction,Plated,PTH,ComponentDrill
T7C0.600
; #@! TA.AperFunction,Plated,PTH,ComponentDrill
T8C0.800
; #@! TA.AperFunction,Plated,PTH,ComponentDrill
T9C1.016
; #@! TA.AperFunction,Plated,PTH,ComponentDrill
T10C1.100
; #@! TA.AperFunction,Plated,PTH,ComponentDrill
T11C1.499
%
G90
G05
T1
X-18.774Y-93.648
X-18.774Y-95.268
X-18.079Y-94.518
X-17.344Y-93.688
X-17.344Y-95.268
X-3.474Y-91.088
X-3.474Y-92.708
X-2.779Y-91.958
X-2.044Y-91.128
X-2.044Y-92.708
X6.506Y-77.345
X6.506Y-78.965
X7.201Y-78.215
X7.936Y-77.385
X7.936Y-78.965
X21.806Y-74.785
X21.806Y-76.405
X22.501Y-75.655
X23.236Y-74.825
X23.236Y-76.405
X34.862Y-74.619
X34.862Y-76.239
X35.557Y-75.489
X36.292Y-74.659
X36.292Y-76.239
X50.162Y-72.059
X50.162Y-73.679
X50.857Y-72.929
X51.592Y-72.099
X51.592Y-73.679
X61.434Y-86.382
X61.434Y-88.002
X62.129Y-87.252
X62.864Y-86.422
X62.864Y-88.002
X68.393Y-153.533
X68.393Y-155.153
X69.088Y-154.403
X69.823Y-153.573
X69.823Y-155.153
X76.734Y-83.822
X76.734Y-85.442
X77.429Y-84.692
X78.164Y-83.862
X78.164Y-85.442
X83.693Y-150.973
X83.693Y-152.593
X84.388Y-151.843
X85.123Y-151.013
X85.123Y-152.593
X91.081Y-169.302
X91.081Y-170.922
X91.776Y-170.172
X92.511Y-169.342
X92.511Y-170.922
X106.381Y-166.742
X106.381Y-168.362
X107.076Y-167.612
X107.811Y-166.782
X107.811Y-168.362
X141.166Y-86.382
X141.166Y-88.002
X141.861Y-87.252
X142.596Y-86.422
X142.596Y-88.002
X156.466Y-83.822
X156.466Y-85.442
X157.161Y-84.692
X157.896Y-83.862
X157.896Y-85.442
X190.526Y-138.118
X190.526Y-139.738
X190.526Y-169.303
X190.526Y-170.923
X191.221Y-138.988
X191.221Y-170.173
X191.956Y-138.158
X191.956Y-139.738
X191.956Y-169.343
X191.956Y-170.923
X205.826Y-135.558
X205.826Y-137.178
X205.826Y-166.743
X205.826Y-168.363
X206.521Y-136.428
X206.521Y-167.613
X207.256Y-135.598
X207.256Y-137.178
X207.256Y-166.783
X207.256Y-168.363
X213.213Y-122.348
X213.213Y-123.968
X213.213Y-153.533
X213.213Y-155.153
X213.908Y-123.218
X213.908Y-154.403
X214.643Y-122.388
X214.643Y-123.968
X214.643Y-153.573
X214.643Y-155.153
X220.228Y-58.399
X220.228Y-60.019
X220.228Y-86.008
X220.228Y-87.628
X220.923Y-59.269
X220.923Y-86.878
X221.658Y-58.439
X221.658Y-60.019
X221.658Y-86.048
X221.658Y-87.628
X228.513Y-119.788
X228.513Y-121.408
X228.513Y-150.973
X228.513Y-152.593
X229.208Y-120.658
X229.208Y-151.843
X229.943Y-119.828
X229.943Y-121.408
X229.943Y-151.013
X229.943Y-152.593
X235.528Y-55.839
X235.528Y-57.459
X235.528Y-83.448
X235.528Y-85.068
X235.87Y-138.118
X235.87Y-139.738
X236.223Y-56.709
X236.223Y-84.318
X236.565Y-138.988
X236.958Y-55.879
X236.958Y-57.459
X236.958Y-83.488
X236.958Y-85.068
X237.3Y-138.158
X237.3Y-139.738
X246.746Y-46.403
X246.746Y-48.023
X246.746Y-74.013
X246.746Y-75.633
X247.441Y-47.273
X247.441Y-74.883
X248.176Y-46.443
X248.176Y-48.023
X248.176Y-74.053
X248.176Y-75.633
X251.17Y-135.558
X251.17Y-137.178
X251.865Y-136.428
X252.6Y-135.598
X252.6Y-137.178
X262.046Y-43.843
X262.046Y-45.463
X262.046Y-71.453
X262.046Y-73.073
X262.741Y-44.713
X262.741Y-72.323
X263.476Y-43.883
X263.476Y-45.463
X263.476Y-71.493
X263.476Y-73.073
X275.101Y-49.378
X275.101Y-50.998
X275.101Y-76.988
X275.101Y-78.608
X275.796Y-50.248
X275.796Y-77.858
X276.531Y-49.418
X276.531Y-50.998
X276.531Y-77.028
X276.531Y-78.608
X290.401Y-46.818
X290.401Y-48.438
X290.401Y-74.428
X290.401Y-76.048
X291.096Y-47.688
X291.096Y-75.298
X291.831Y-46.858
X291.831Y-48.438
X291.831Y-74.468
X291.831Y-76.048
X301.324Y-65.414
X301.324Y-67.034
X301.324Y-93.024
X301.324Y-94.644
X302.019Y-66.284
X302.019Y-93.894
X302.754Y-65.454
X302.754Y-67.034
X302.754Y-93.064
X302.754Y-94.644
X316.624Y-62.854
X316.624Y-64.474
X316.624Y-90.464
X316.624Y-92.084
X317.319Y-63.724
X317.319Y-91.334
X318.054Y-62.894
X318.054Y-64.474
X318.054Y-90.504
X318.054Y-92.084
T2
X144.321Y-36.764
X147.326Y-36.001
T3
X119.501Y-115.754
X120.501Y-100.754
X126.501Y-100.754
X126.501Y-114.754
X135.501Y-111.754
X150.705Y-32.589
X158.501Y-30.754
X223.501Y-175.754
X238.501Y-164.754
X248.501Y-149.754
X265.501Y-172.754
X266.501Y-121.754
X269.501Y-144.754
X280.501Y-133.754
X287.501Y-120.754
X290.501Y-170.754
X303.501Y-137.754
X306.501Y-159.754
X309.501Y-114.754
T4
X-22.499Y-128.754
X-19.499Y-115.754
X-18.499Y-99.754
X-17.499Y-50.754
X-17.499Y-75.754
X-15.499Y-164.754
X-12.499Y-122.754
X-11.499Y-175.754
X-9.499Y-42.754
X-9.499Y-61.754
X-4.499Y-134.754
X-2.499Y-157.754
X-2.499Y-166.754
X0.501Y-75.754
X4.501Y-173.754
X7.501Y-38.754
X8.501Y-59.754
X8.501Y-85.754
X9.501Y-50.754
X12.501Y-144.754
X13.501Y-170.754
X14.501Y-131.754
X19.501Y-121.754
X20.501Y-110.754
X29.501Y-60.754
X32.501Y-109.754
X34.501Y-80.754
X34.501Y-96.754
X38.501Y-123.754
X40.501Y-132.754
X40.501Y-170.754
X41.501Y-145.754
X41.501Y-157.754
X44.501Y-97.754
X46.501Y-55.754
X47.501Y-107.754
X49.501Y-126.754
X49.501Y-137.754
X52.501Y-85.754
X53.501Y-38.754
X62.501Y-157.754
X77.501Y-132.754
X79.501Y-67.754
X81.501Y-41.754
X85.501Y-170.754
X91.501Y-85.754
X92.501Y-149.754
X95.501Y-59.754
X95.501Y-75.754
X96.501Y-125.754
X100.501Y-41.754
X107.501Y-125.754
X108.501Y-68.754
X109.501Y-86.754
X112.501Y-151.754
X121.501Y-167.754
X125.501Y-77.754
X125.501Y-90.754
X126.501Y-40.754
X134.501Y-103.754
X136.501Y-70.754
X139.501Y-33.754
X139.501Y-56.754
X142.501Y-36.754
X146.272Y-38.412
X146.501Y-75.754
X146.501Y-111.754
X148.501Y-129.754
X149.501Y-37.754
X149.501Y-99.754
X149.501Y-151.754
X149.86Y-30.48
X152.501Y-42.754
X153.501Y-33.754
X158.501Y-39.754
X159.501Y-33.754
X159.501Y-107.754
X162.501Y-49.754
X166.501Y-167.754
X167.501Y-76.754
X167.501Y-92.754
X167.501Y-118.754
X171.128Y-35.253
X181.501Y-103.754
X182.501Y-152.754
X184.501Y-56.754
X187.501Y-41.754
X189.501Y-174.754
X199.501Y-146.754
X200.501Y-72.754
X202.501Y-53.754
X202.501Y-147.754
X203.501Y-156.754
X206.501Y-124.754
X208.501Y-40.754
X215.501Y-161.754
X216.501Y-65.754
X216.501Y-93.754
X231.501Y-99.754
X231.501Y-146.754
X232.501Y-139.754
X233.501Y-36.754
X235.501Y-72.754
X235.501Y-121.754
X237.501Y-93.754
X241.501Y-112.754
X245.501Y-99.754
X246.501Y-52.754
X248.501Y-80.754
X256.501Y-134.754
X257.501Y-87.754
X263.501Y-62.754
X273.501Y-86.754
X273.501Y-102.754
X277.501Y-55.754
X280.501Y-34.754
X286.501Y-89.754
X291.501Y-62.754
X294.501Y-100.754
X300.501Y-38.754
X301.501Y-71.754
X303.501Y-49.754
X311.501Y-42.754
X312.501Y-35.754
X317.501Y-97.754
T5
X144.769Y-33.944
X145.169Y-33.244
X145.969Y-33.244
X146.369Y-33.944
X146.769Y-33.244
X147.169Y-33.944
X147.969Y-33.944
X148.369Y-33.244
X148.769Y-33.944
X149.169Y-33.244
X149.969Y-33.244
X150.369Y-33.944
T7
X26.501Y-127.454
X28.501Y-127.454
T8
X151.781Y-59.692
X151.827Y-53.595
X159.401Y-59.692
X159.447Y-53.595
T9
X2.501Y-96.754
X17.501Y-85.754
X54.501Y-78.754
X81.501Y-88.754
X86.501Y-158.754
X112.501Y-161.754
X142.745Y-103.944
X142.745Y-106.484
X142.745Y-109.024
X142.745Y-111.564
X156.501Y-94.754
X162.151Y-32.754
X164.691Y-32.754
X167.231Y-32.754
X169.771Y-32.754
X172.311Y-32.754
X174.851Y-32.754
X183.501Y-171.754
X211.501Y-133.754
X235.501Y-150.754
X236.501Y-125.754
X238.501Y-87.754
X241.501Y-60.754
X257.501Y-141.754
X264.501Y-79.754
X268.501Y-39.754
X291.501Y-83.754
X294.501Y-54.754
X311.501Y-72.754
X313.501Y-100.754
T10
X18.611Y-127.624
X18.611Y-130.164
X18.611Y-132.704
X18.611Y-135.244
X18.611Y-137.784
X18.611Y-140.324
X18.611Y-142.864
X18.611Y-145.404
X18.611Y-147.944
X18.611Y-150.484
X18.611Y-153.024
X18.611Y-155.564
X18.611Y-158.104
X18.611Y-160.644
X18.611Y-163.184
X18.611Y-165.724
X18.611Y-168.264
X18.611Y-170.804
X18.611Y-173.344
X18.611Y-175.884
X24.961Y-175.654
X27.501Y-175.654
X30.041Y-175.654
X36.391Y-127.624
X36.391Y-130.164
X36.391Y-132.704
X36.391Y-135.244
X36.391Y-137.784
X36.391Y-140.324
X36.391Y-142.864
X36.391Y-145.404
X36.391Y-147.944
X36.391Y-150.484
X36.391Y-153.024
X36.391Y-155.564
X36.391Y-158.104
X36.391Y-160.644
X36.391Y-163.184
X36.391Y-165.724
X36.391Y-168.264
X36.391Y-170.804
X36.391Y-173.344
X36.391Y-175.884
T11
X-14.844Y-86.878
X-8.494Y-84.338
X10.436Y-70.575
X16.786Y-68.035
X38.792Y-67.849
X45.142Y-65.309
X65.364Y-79.612
X71.714Y-77.072
X72.323Y-146.763
X78.673Y-144.223
X95.011Y-162.532
X101.361Y-159.992
X145.096Y-79.612
X151.446Y-77.072
X151.881Y-65.754
X167.121Y-65.754
X194.456Y-131.348
X194.456Y-162.533
X200.806Y-128.808
X200.806Y-159.993
X217.143Y-115.578
X217.143Y-146.763
X223.493Y-113.038
X223.493Y-144.223
X224.158Y-51.629
X224.158Y-79.238
X230.508Y-49.089
X230.508Y-76.698
X239.8Y-131.348
X246.15Y-128.808
X250.676Y-39.633
X250.676Y-67.243
X257.026Y-37.093
X257.026Y-64.703
X279.031Y-42.608
X279.031Y-70.218
X285.381Y-40.068
X285.381Y-67.678
X305.254Y-58.644
X305.254Y-86.254
X311.604Y-56.104
X311.604Y-83.714
T6
G00X143.079Y-28.654
M15
G01X143.079Y-29.254
M16
G05
G00X143.439Y-33.044
M15
G01X143.439Y-33.644
M16
G05
G00X151.699Y-33.044
M15
G01X151.699Y-33.644
M16
G05
G00X152.059Y-28.654
M15
G01X152.059Y-29.254
M16
G05
T7
G00X118.499Y-103.651
M15
G01X119.299Y-103.651
M16
G05
G00X118.499Y-112.291
M15
G01X119.299Y-112.291
M16
G05
G00X122.529Y-103.651
M15
G01X123.629Y-103.651
M16
G05
G00X122.529Y-112.291
M15
G01X123.629Y-112.291
M16
G05
T0
M30
