0
SECTION
2
HEADER
9
$INSUNITS
70
4
9
$ACADVER
1
AC1014
9
$HANDSEED
5
FFFF
0
ENDSEC
0
SECTION
2
TABLES
0
TABLE
2
VPORT
5
8
100
AcDbSymbolTable
0
ENDTAB
0
TABLE
2
LTYPE
5
5
100
AcDbSymbolTable
0
LTYPE
5
14
100
AcDbSymbolTableRecord
100
AcDbLinetypeTableRecord
2
BYBLOCK
70
0
0
LTYPE
5
15
100
AcDbSymbolTableRecord
100
AcDbLinetypeTableRecord
2
BYLAYER
70
0
0
ENDTAB
0
TABLE
2
LAYER
5
2
100
AcDbSymbolTable
70
2
0
LAYER
5
50
100
AcDbSymbolTableRecord
100
AcDbLayerTableRecord
2
0
70
0
6
CONTINUOUS
0
ENDTAB
0
TABLE
2
STYLE
5
3
100
AcDbSymbolTable
70
1
0
STYLE
5
11
100
AcDbSymbolTableRecord
100
AcDbTextStyleTableRecord
2
STANDARD
70
0
0
ENDTAB
0
TABLE
2
VIEW
5
6
100
AcDbSymbolTable
70
0
0
ENDTAB
0
TABLE
2
UCS
5
7
100
AcDbSymbolTable
70
0
0
ENDTAB
0
TABLE
2
APPID
5
9
100
AcDbSymbolTable
70
2
0
APPID
5
12
100
AcDbSymbolTableRecord
100
AcDbRegAppTableRecord
2
ACAD
70
0
0
ENDTAB
0
TABLE
2
DIMSTYLE
5
A
100
AcDbSymbolTable
70
1
0
ENDTAB
0
TABLE
2
BLOCK_RECORD
5
1
100
AcDbSymbolTable
70
1
0
BLOCK_RECORD
5
1F
100
AcDbSymbolTableRecord
100
AcDbBlockTableRecord
2
*MODEL_SPACE
0
BLOCK_RECORD
5
1B
100
AcDbSymbolTableRecord
100
AcDbBlockTableRecord
2
*PAPER_SPACE
0
ENDTAB
0
ENDSEC
0
SECTION
2
BLOCKS
0
BLOCK
5
20
100
AcDbEntity
100
AcDbBlockBegin
2
*MODEL_SPACE
0
ENDBLK
5
21
100
AcDbEntity
100
AcDbBlockEnd
0
BLOCK
5
1C
100
AcDbEntity
100
AcDbBlockBegin
2
*PAPER_SPACE
0
ENDBLK
5
1D
100
AcDbEntity
100
AcDbBlockEnd
0
ENDSEC
0
SECTION
2
ENTITIES
0
LWPOLYLINE
5
100
100
AcDbEntity
8
0
100
AcDbPolyline
90
4
70
1
43
0.0
10
144.98500000000004
20
-104.58100000000002
10
144.98500000000004
20
-90.580999999999989
10
130.98499999999999
20
-90.580999999999989
10
130.98499999999999
20
-104.58100000000002
0
LWPOLYLINE
5
101
100
AcDbEntity
8
0
100
AcDbPolyline
90
4
70
1
43
0.0
10
-120.535
20
-57.335999999999999
10
-120.535
20
-43.335999999999999
10
-134.53500000000003
20
-43.335999999999999
10
-134.53500000000003
20
-57.335999999999999
0
LWPOLYLINE
5
102
100
AcDbEntity
8
0
100
AcDbPolyline
90
4
70
1
43
0.0
10
199.56299999999999
20
-57.960000000000001
10
199.56299999999999
20
-43.960000000000001
10
185.56299999999999
20
-43.960000000000001
10
185.56299999999999
20
-57.960000000000001
0
LWPOLYLINE
5
103
100
AcDbEntity
8
0
100
AcDbPolyline
90
4
70
1
43
0.0
10
199.56299999999999
20
-85.569999999999993
10
199.56299999999999
20
-71.569999999999993
10
185.56299999999999
20
-71.569999999999993
10
185.56299999999999
20
-85.569999999999993
0
LWPOLYLINE
5
104
100
AcDbEntity
8
0
100
AcDbPolyline
90
37
70
1
43
0.0
10
-138.00000205636024
20
-53.72476555110795
42
-0.15787399144943681
10
-138.00000205636024
20
-46.947234448892033
10
-138.00000205636024
20
-24.000000551342957
10
-133.00000205636024
20
-19.000000551342957
10
-122.00000175833702
20
-19.000000551342961
10
-117.00000175833702
20
-24.000000551342961
10
-117.00000175833702
20
-39.807120150355871
10
-116.0000017285347
20
-46.000000685453415
10
-116.0000017285347
20
-55.000000819563866
10
-95.000001415610313
20
-55.000000819563866
10
-90.068735660777449
20
-57.050074225996816
10
-89.000001326203346
20
-58.000000864267349
10
-79.000001177191734
20
-58.000000864267349
10
-77.470536271630777
20
-57.050074225996816
10
-59.868892429429167
20
-57.050074225996816
10
-59.868892429429167
20
10
10
-50.264782361620917
20
18.380040493999186
10
-46.656484760925153
20
19.065266129294578
10
-43.500000648200512
20
20.500000305473804
10
-30.697727005426113
20
31.890095775396606
10
-25.77705364759705
20
36.810769133225669
10
197.84660455848766
20
36.810769133225669
10
201.83646040882277
20
32.810785201805714
10
201.6374732324839
20
-45.677582413995182
42
-0.27122296744993285
10
201.61057231693957
20
-56.288361396315835
10
201.56777418986132
20
-73.169625773188727
42
-0.27823975510496485
10
201.54027607635982
20
-84.015963114896891
10
201.49430049164366
20
-102.15054173924811
10
195.51549666872495
20
-108.12934556216678
10
141.53476763909916
20
-107.99249123365163
42
-0.16709070391678307
10
134.38248698703666
20
-107.97435845583273
10
100.99998536193146
20
-107.88972566323834
10
96.000001430511475
20
-102.87704948313069
10
57.884339506787406
20
-102.78041697348783
10
52.884355575368502
20
-107.76774079338018
10
-91.955319607172257
20
-107.40053685142178
10
-138.00000205636024
20
-68.210835233395215
0
LWPOLYLINE
5
105
100
AcDbEntity
8
0
100
AcDbPolyline
90
4
70
1
43
0.0
10
25.00000037252903
20
-45.000000670552254
10
55.000000819563866
20
-45.000000670552254
10
55.000000819563866
20
-16.000000238418579
10
25.00000037252903
20
-16.000000238418579
0
LWPOLYLINE
5
106
100
AcDbEntity
8
0
100
AcDbPolyline
90
4
70
1
43
0.0
10
173.34000000000003
20
-73.996000000000009
10
173.34000000000003
20
-59.996000000000002
10
159.34000000000003
20
-59.996000000000002
10
159.34000000000003
20
-73.996000000000009
0
LWPOLYLINE
5
107
100
AcDbEntity
8
0
100
AcDbPolyline
90
4
70
1
43
0.0
10
173.34000000000003
20
-101.60599999999999
10
173.34000000000003
20
-87.605999999999995
10
159.34000000000003
20
-87.605999999999995
10
159.34000000000003
20
-101.60599999999999
0
LWPOLYLINE
5
108
100
AcDbEntity
8
0
100
AcDbPolyline
90
4
70
1
43
0.0
10
144.98500000000004
20
-76.971000000000004
10
144.98500000000004
20
-62.971000000000004
10
130.98499999999999
20
-62.971000000000004
10
130.98499999999999
20
-76.971000000000004
0
LWPOLYLINE
5
109
100
AcDbEntity
8
0
100
AcDbPolyline
90
4
70
1
43
0.0
10
118.46700000000004
20
-64.975999999999999
10
118.46700000000004
20
-50.975999999999999
10
104.46699999999998
20
-50.975999999999999
10
104.46699999999998
20
-64.975999999999999
0
LWPOLYLINE
5
110
100
AcDbEntity
8
0
100
AcDbPolyline
90
4
70
1
43
0.0
10
118.46700000000004
20
-92.585000000000008
10
118.46700000000004
20
-78.584999999999994
10
104.46699999999998
20
-78.584999999999994
10
104.46699999999998
20
-92.585000000000008
0
LWPOLYLINE
5
111
100
AcDbEntity
8
0
100
AcDbPolyline
90
4
70
1
43
0.0
10
134.10900000000004
20
-12.866
10
134.10900000000004
20
1.1340000000000039
10
120.10899999999998
20
1.1340000000000039
10
120.10899999999998
20
-12.866
0
LWPOLYLINE
5
112
100
AcDbEntity
8
0
100
AcDbPolyline
90
4
70
1
43
0.0
10
111.45200000000001
20
-28.636000000000003
10
111.45200000000001
20
-14.635999999999999
10
97.451999999999998
20
-14.635999999999999
10
97.451999999999998
20
-28.636000000000003
0
LWPOLYLINE
5
113
100
AcDbEntity
8
0
100
AcDbPolyline
90
4
70
1
43
0.0
10
111.45200000000001
20
2.5490000000000013
10
111.45200000000001
20
16.548999999999996
10
97.451999999999998
20
16.548999999999996
10
97.451999999999998
20
2.5490000000000013
0
LWPOLYLINE
5
114
100
AcDbEntity
8
0
100
AcDbPolyline
90
4
70
1
43
0.0
10
88.765000000000001
20
18.319000000000003
10
88.765000000000001
20
32.319000000000003
10
74.765000000000015
20
32.319000000000003
10
74.765000000000015
20
18.319000000000003
0
LWPOLYLINE
5
115
100
AcDbEntity
8
0
100
AcDbPolyline
90
4
70
1
43
0.0
10
88.765000000000001
20
-12.866
10
88.765000000000001
20
1.1340000000000039
10
74.765000000000015
20
1.1340000000000039
10
74.765000000000015
20
-12.866
0
LWPOLYLINE
5
116
100
AcDbEntity
8
0
100
AcDbPolyline
90
4
70
1
43
0.0
10
39.405000000000001
20
-64.602000000000004
10
39.405000000000001
20
-50.602000000000004
10
25.405000000000015
20
-50.602000000000004
10
25.405000000000015
20
-64.602000000000004
0
LWPOLYLINE
5
117
100
AcDbEntity
8
0
100
AcDbPolyline
90
4
70
1
43
0.0
10
-10.679999999999996
20
18.318000000000005
10
-10.679999999999996
20
32.318000000000005
10
-24.68
20
32.318000000000005
10
-24.68
20
18.318000000000005
0
LWPOLYLINE
5
118
100
AcDbEntity
8
0
100
AcDbPolyline
90
4
70
1
43
0.0
10
-33.368000000000002
20
2.5490000000000013
10
-33.368000000000002
20
16.548999999999996
10
-47.368000000000009
20
16.548999999999996
10
-47.368000000000009
20
2.5490000000000013
0
LWPOLYLINE
5
119
100
AcDbEntity
8
0
100
AcDbPolyline
90
4
70
1
43
0.0
10
-40.326999999999998
20
-64.602000000000004
10
-40.326999999999998
20
-50.602000000000004
10
-54.327000000000005
20
-50.602000000000004
10
-54.327000000000005
20
-64.602000000000004
0
LWPOLYLINE
5
120
100
AcDbEntity
8
0
100
AcDbPolyline
90
4
70
1
43
0.0
10
-66.899000000000001
20
-76.364999999999995
10
-66.899000000000001
20
-62.364999999999995
10
-80.899000000000001
20
-62.364999999999995
10
-80.899000000000001
20
-76.364999999999995
0
LWPOLYLINE
5
121
100
AcDbEntity
8
0
100
AcDbPolyline
90
4
70
1
43
0.0
10
-95.25500000000001
20
-73.638999999999996
10
-95.25500000000001
20
-59.638999999999996
10
-109.255
20
-59.638999999999996
10
-109.255
20
-73.638999999999996
0
LWPOLYLINE
5
122
100
AcDbEntity
8
0
100
AcDbPolyline
90
8
70
1
43
0.0
10
164.75
20
0.50000000745057394
10
167.50000261515382
20
0.5000000074505806
42
0.41421356237309503
10
175.50000261515382
20
8.5000000074505806
10
175.50000261515379
20
14.249999999999998
42
0.41421356237309503
10
167.50000261515379
20
22.250000000000007
10
160
20
22.249999999999996
42
0.41421356237309503
10
156.75
20
19
10
156.75
20
8.5000000074505806
42
0.41421356237309503
0
CIRCLE
5
123
100
AcDbEntity
8
0
100
AcDbCircle
10
127.62158182887896
20
-30.836059085061454
30
0
40
1.4999999999999858
210
0
220
0
230
-1
0
CIRCLE
5
124
100
AcDbEntity
8
0
100
AcDbCircle
10
-20
20
21
30
0
40
3.5000000000000009
210
0
220
0
230
-1
0
CIRCLE
5
125
100
AcDbEntity
8
0
100
AcDbCircle
10
-152
20
-85
30
0
40
3.4999999999999964
210
0
220
0
230
-1
0
CIRCLE
5
126
100
AcDbEntity
8
0
100
AcDbCircle
10
-66
20
-13
30
0
40
5.2500000000000036
210
0
220
0
230
-1
0
CIRCLE
5
127
100
AcDbEntity
8
0
100
AcDbCircle
10
-68
20
-68
30
0
40
3.4999999999999964
210
0
220
0
230
-1
0
CIRCLE
5
128
100
AcDbEntity
8
0
100
AcDbCircle
10
-3.0000000000000004
20
-80
30
0
40
7.7500000000000018
210
0
220
0
230
-1
0
CIRCLE
5
129
100
AcDbEntity
8
0
100
AcDbCircle
10
51.000000000000007
20
-90
30
0
40
3.4999999999999964
210
0
220
0
230
-1
0
CIRCLE
5
130
100
AcDbEntity
8
0
100
AcDbCircle
10
-57.616737509963727
20
-93.704101270614203
30
0
40
1.5000000000000036
210
0
220
0
230
-1
0
CIRCLE
5
131
100
AcDbEntity
8
0
100
AcDbCircle
10
-6.3226337947225471
20
-8.1830044949135115
30
0
40
1.5000000000000013
210
0
220
0
230
-1
0
CIRCLE
5
132
100
AcDbEntity
8
0
100
AcDbCircle
10
-190
20
-100
30
0
40
1.4999999999999858
210
0
220
0
230
-1
0
CIRCLE
5
133
100
AcDbEntity
8
0
100
AcDbCircle
10
-140.0000020861626
20
22.00000032782555
30
0
40
1.5000000000000036
210
0
220
0
230
-1
0
CIRCLE
5
134
100
AcDbEntity
8
0
100
AcDbCircle
10
86.234843933352735
20
-96.319720563209557
30
0
40
1.5000000000000036
210
0
220
0
230
-1
0
ENDSEC
0
SECTION
2
OBJECTS
0
DICTIONARY
5
C
100
AcDbDictionary
3
ACAD_GROUP
350
D
3
ACAD_MLINESTYLE
350
17
0
DICTIONARY
5
D
100
AcDbDictionary
0
DICTIONARY
5
1A
330
C
100
AcDbDictionary
0
DICTIONARY
5
17
100
AcDbDictionary
0
ENDSEC
0
EOF
