%TF.GenerationSoftware,KiCad,Pcbnew,(6.0.5)*%
%TF.CreationDate,2022-06-18T14:06:17-07:00*%
%TF.ProjectId,OF1 v1,4f463120-7631-42e6-9b69-6361645f7063,rev?*%
%TF.SameCoordinates,Original*%
%TF.FileFunction,Legend,Bot*%
%TF.FilePolarity,Positive*%
%FSLAX46Y46*%
G04 Gerber Fmt 4.6, Leading zero omitted, Abs format (unit mm)*
G04 Created by KiCad (PCBNEW (6.0.5)) date 2022-06-18 14:06:17*
%MOMM*%
%LPD*%
G01*
G04 APERTURE LIST*
G04 Aperture macros list*
%AMRoundRect*
0 Rectangle with rounded corners*
0 $1 Rounding radius*
0 $2 $3 $4 $5 $6 $7 $8 $9 X,Y pos of 4 corners*
0 Add a 4 corners polygon primitive as box body*
4,1,4,$2,$3,$4,$5,$6,$7,$8,$9,$2,$3,0*
0 Add four circle primitives for the rounded corners*
1,1,$1+$1,$2,$3*
1,1,$1+$1,$4,$5*
1,1,$1+$1,$6,$7*
1,1,$1+$1,$8,$9*
0 Add four rect primitives between the rounded corners*
20,1,$1+$1,$2,$3,$4,$5,0*
20,1,$1+$1,$4,$5,$6,$7,0*
20,1,$1+$1,$6,$7,$8,$9,0*
20,1,$1+$1,$8,$9,$2,$3,0*%
%AMFreePoly0*
4,1,17,0.425901,0.806901,0.806901,0.425901,0.825500,0.381000,0.825500,-0.381000,0.806901,-0.425901,0.425901,-0.806901,0.381000,-0.825500,-0.381000,-0.825500,-0.425901,-0.806901,-0.806901,-0.425901,-0.825500,-0.381000,-0.825500,0.381000,-0.806901,0.425901,-0.425901,0.806901,-0.381000,0.825500,0.381000,0.825500,0.425901,0.806901,0.425901,0.806901,$1*%
G04 Aperture macros list end*
%ADD10C,0.142240*%
%ADD11C,0.127000*%
%ADD12O,4.622800X2.374900*%
%ADD13C,0.650000*%
%ADD14O,2.227000X1.127000*%
%ADD15O,1.927000X1.127000*%
%ADD16C,0.777000*%
%ADD17O,0.877000X1.627000*%
%ADD18C,3.000000*%
%ADD19C,8.000000*%
%ADD20C,9.000000*%
%ADD21C,8.500000*%
%ADD22C,2.374900*%
%ADD23C,1.701800*%
%ADD24RoundRect,0.063500X1.275000X1.250000X-1.275000X1.250000X-1.275000X-1.250000X1.275000X-1.250000X0*%
%ADD25C,3.987800*%
%ADD26FreePoly0,0.000000*%
%ADD27O,1.651000X3.175000*%
%ADD28C,2.100000*%
%ADD29C,1.500000*%
%ADD30RoundRect,0.063500X-0.400000X-0.400000X0.400000X-0.400000X0.400000X0.400000X-0.400000X0.400000X0*%
%ADD31O,1.727000X3.327000*%
%ADD32O,3.327000X1.727000*%
%ADD33O,3.175000X1.651000*%
G04 APERTURE END LIST*
D10*
X307707604Y-170039946D02*
X307396030Y-170039946D01*
X307240244Y-170117840D01*
X307084457Y-170273626D01*
X307006564Y-170585200D01*
X307006564Y-171130453D01*
X307084457Y-171442026D01*
X307240244Y-171597813D01*
X307396030Y-171675706D01*
X307707604Y-171675706D01*
X307863390Y-171597813D01*
X308019177Y-171442026D01*
X308097070Y-171130453D01*
X308097070Y-170585200D01*
X308019177Y-170273626D01*
X307863390Y-170117840D01*
X307707604Y-170039946D01*
X305760270Y-170818880D02*
X306305524Y-170818880D01*
X306305524Y-171675706D02*
X306305524Y-170039946D01*
X305526590Y-170039946D01*
X304046617Y-171675706D02*
X304981337Y-171675706D01*
X304513977Y-171675706D02*
X304513977Y-170039946D01*
X304669764Y-170273626D01*
X304825550Y-170429413D01*
X304981337Y-170507306D01*
X302255070Y-170585200D02*
X301865604Y-171675706D01*
X301476137Y-170585200D01*
X299996164Y-171675706D02*
X300930884Y-171675706D01*
X300463524Y-171675706D02*
X300463524Y-170039946D01*
X300619310Y-170273626D01*
X300775097Y-170429413D01*
X300930884Y-170507306D01*
D11*
%TO.C,U$1*%
X-5572900Y-96275600D02*
G75*
G03*
X-4048900Y-94370600I-190500J1714500D01*
G01*
X-4048900Y-90433600D02*
X-4048900Y-94370600D01*
X-10271900Y-92592600D02*
X-16748900Y-92592600D01*
X-10271901Y-92592601D02*
G75*
G03*
X-8874900Y-90814600I-190500J1587501D01*
G01*
X-4048900Y-90433600D02*
X-8874900Y-90433600D01*
X-16748900Y-96275600D02*
X-5572900Y-96275600D01*
X-16748900Y-96275600D02*
X-16748900Y-92592600D01*
%TO.C,U$10*%
X259947100Y-49030600D02*
G75*
G03*
X261471100Y-47125600I-190500J1714500D01*
G01*
X261471100Y-43188600D02*
X261471100Y-47125600D01*
X255248100Y-45347600D02*
X248771100Y-45347600D01*
X255248099Y-45347601D02*
G75*
G03*
X256645100Y-43569600I-190500J1587501D01*
G01*
X261471100Y-43188600D02*
X256645100Y-43188600D01*
X248771100Y-49030600D02*
X259947100Y-49030600D01*
X248771100Y-49030600D02*
X248771100Y-45347600D01*
%TO.C,U$11*%
X288302100Y-52005600D02*
G75*
G03*
X289826100Y-50100600I-190500J1714500D01*
G01*
X289826100Y-46163600D02*
X289826100Y-50100600D01*
X283603100Y-48322600D02*
X277126100Y-48322600D01*
X283603099Y-48322601D02*
G75*
G03*
X285000100Y-46544600I-190500J1587501D01*
G01*
X289826100Y-46163600D02*
X285000100Y-46163600D01*
X277126100Y-52005600D02*
X288302100Y-52005600D01*
X277126100Y-52005600D02*
X277126100Y-48322600D01*
%TO.C,U$12*%
X314525100Y-68041600D02*
G75*
G03*
X316049100Y-66136600I-190500J1714500D01*
G01*
X316049100Y-62199600D02*
X316049100Y-66136600D01*
X309826100Y-64358600D02*
X303349100Y-64358600D01*
X309826099Y-64358601D02*
G75*
G03*
X311223100Y-62580600I-190500J1587501D01*
G01*
X316049100Y-62199600D02*
X311223100Y-62199600D01*
X303349100Y-68041600D02*
X314525100Y-68041600D01*
X303349100Y-68041600D02*
X303349100Y-64358600D01*
%TO.C,U$13*%
X233429100Y-88635600D02*
G75*
G03*
X234953100Y-86730600I-190500J1714500D01*
G01*
X234953100Y-82793600D02*
X234953100Y-86730600D01*
X228730100Y-84952600D02*
X222253100Y-84952600D01*
X228730099Y-84952601D02*
G75*
G03*
X230127100Y-83174600I-190500J1587501D01*
G01*
X234953100Y-82793600D02*
X230127100Y-82793600D01*
X222253100Y-88635600D02*
X233429100Y-88635600D01*
X222253100Y-88635600D02*
X222253100Y-84952600D01*
%TO.C,U$14*%
X259947100Y-76640600D02*
G75*
G03*
X261471100Y-74735600I-190500J1714500D01*
G01*
X261471100Y-70798600D02*
X261471100Y-74735600D01*
X255248100Y-72957600D02*
X248771100Y-72957600D01*
X255248099Y-72957601D02*
G75*
G03*
X256645100Y-71179600I-190500J1587501D01*
G01*
X261471100Y-70798600D02*
X256645100Y-70798600D01*
X248771100Y-76640600D02*
X259947100Y-76640600D01*
X248771100Y-76640600D02*
X248771100Y-72957600D01*
%TO.C,U$15*%
X288302100Y-79615600D02*
G75*
G03*
X289826100Y-77710600I-190500J1714500D01*
G01*
X289826100Y-73773600D02*
X289826100Y-77710600D01*
X283603100Y-75932600D02*
X277126100Y-75932600D01*
X283603099Y-75932601D02*
G75*
G03*
X285000100Y-74154600I-190500J1587501D01*
G01*
X289826100Y-73773600D02*
X285000100Y-73773600D01*
X277126100Y-79615600D02*
X288302100Y-79615600D01*
X277126100Y-79615600D02*
X277126100Y-75932600D01*
%TO.C,U$16*%
X314525100Y-95651600D02*
G75*
G03*
X316049100Y-93746600I-190500J1714500D01*
G01*
X316049100Y-89809600D02*
X316049100Y-93746600D01*
X309826100Y-91968600D02*
X303349100Y-91968600D01*
X309826099Y-91968601D02*
G75*
G03*
X311223100Y-90190600I-190500J1587501D01*
G01*
X316049100Y-89809600D02*
X311223100Y-89809600D01*
X303349100Y-95651600D02*
X314525100Y-95651600D01*
X303349100Y-95651600D02*
X303349100Y-91968600D01*
%TO.C,U$17*%
X226414100Y-124975600D02*
G75*
G03*
X227938100Y-123070600I-190500J1714500D01*
G01*
X227938100Y-119133600D02*
X227938100Y-123070600D01*
X221715100Y-121292600D02*
X215238100Y-121292600D01*
X221715099Y-121292601D02*
G75*
G03*
X223112100Y-119514600I-190500J1587501D01*
G01*
X227938100Y-119133600D02*
X223112100Y-119133600D01*
X215238100Y-124975600D02*
X226414100Y-124975600D01*
X215238100Y-124975600D02*
X215238100Y-121292600D01*
%TO.C,U$18*%
X203727100Y-140745600D02*
G75*
G03*
X205251100Y-138840600I-190500J1714500D01*
G01*
X205251100Y-134903600D02*
X205251100Y-138840600D01*
X199028100Y-137062600D02*
X192551100Y-137062600D01*
X199028099Y-137062601D02*
G75*
G03*
X200425100Y-135284600I-190500J1587501D01*
G01*
X205251100Y-134903600D02*
X200425100Y-134903600D01*
X192551100Y-140745600D02*
X203727100Y-140745600D01*
X192551100Y-140745600D02*
X192551100Y-137062600D01*
%TO.C,U$19*%
X249071100Y-140745600D02*
G75*
G03*
X250595100Y-138840600I-190500J1714500D01*
G01*
X250595100Y-134903600D02*
X250595100Y-138840600D01*
X244372100Y-137062600D02*
X237895100Y-137062600D01*
X244372099Y-137062601D02*
G75*
G03*
X245769100Y-135284600I-190500J1587501D01*
G01*
X250595100Y-134903600D02*
X245769100Y-134903600D01*
X237895100Y-140745600D02*
X249071100Y-140745600D01*
X237895100Y-140745600D02*
X237895100Y-137062600D01*
%TO.C,U$2*%
X19707100Y-79972600D02*
G75*
G03*
X21231100Y-78067600I-190500J1714500D01*
G01*
X21231100Y-74130600D02*
X21231100Y-78067600D01*
X15008100Y-76289600D02*
X8531100Y-76289600D01*
X15008099Y-76289601D02*
G75*
G03*
X16405100Y-74511600I-190500J1587501D01*
G01*
X21231100Y-74130600D02*
X16405100Y-74130600D01*
X8531100Y-79972600D02*
X19707100Y-79972600D01*
X8531100Y-79972600D02*
X8531100Y-76289600D01*
%TO.C,U$20*%
X226414100Y-156160600D02*
G75*
G03*
X227938100Y-154255600I-190500J1714500D01*
G01*
X227938100Y-150318600D02*
X227938100Y-154255600D01*
X221715100Y-152477600D02*
X215238100Y-152477600D01*
X221715099Y-152477601D02*
G75*
G03*
X223112100Y-150699600I-190500J1587501D01*
G01*
X227938100Y-150318600D02*
X223112100Y-150318600D01*
X215238100Y-156160600D02*
X226414100Y-156160600D01*
X215238100Y-156160600D02*
X215238100Y-152477600D01*
%TO.C,U$21*%
X203727100Y-171930600D02*
G75*
G03*
X205251100Y-170025600I-190500J1714500D01*
G01*
X205251100Y-166088600D02*
X205251100Y-170025600D01*
X199028100Y-168247600D02*
X192551100Y-168247600D01*
X199028099Y-168247601D02*
G75*
G03*
X200425100Y-166469600I-190500J1587501D01*
G01*
X205251100Y-166088600D02*
X200425100Y-166088600D01*
X192551100Y-171930600D02*
X203727100Y-171930600D01*
X192551100Y-171930600D02*
X192551100Y-168247600D01*
%TO.C,U$4*%
X48063100Y-77246600D02*
G75*
G03*
X49587100Y-75341600I-190500J1714500D01*
G01*
X49587100Y-71404600D02*
X49587100Y-75341600D01*
X43364100Y-73563600D02*
X36887100Y-73563600D01*
X43364099Y-73563601D02*
G75*
G03*
X44761100Y-71785600I-190500J1587501D01*
G01*
X49587100Y-71404600D02*
X44761100Y-71404600D01*
X36887100Y-77246600D02*
X48063100Y-77246600D01*
X36887100Y-77246600D02*
X36887100Y-73563600D01*
%TO.C,U$5*%
X74635100Y-89009600D02*
G75*
G03*
X76159100Y-87104600I-190500J1714500D01*
G01*
X76159100Y-83167600D02*
X76159100Y-87104600D01*
X69936100Y-85326600D02*
X63459100Y-85326600D01*
X69936099Y-85326601D02*
G75*
G03*
X71333100Y-83548600I-190500J1587501D01*
G01*
X76159100Y-83167600D02*
X71333100Y-83167600D01*
X63459100Y-89009600D02*
X74635100Y-89009600D01*
X63459100Y-89009600D02*
X63459100Y-85326600D01*
%TO.C,U$6*%
X81594100Y-156160600D02*
G75*
G03*
X83118100Y-154255600I-190500J1714500D01*
G01*
X83118100Y-150318600D02*
X83118100Y-154255600D01*
X76895100Y-152477600D02*
X70418100Y-152477600D01*
X76895099Y-152477601D02*
G75*
G03*
X78292100Y-150699600I-190500J1587501D01*
G01*
X83118100Y-150318600D02*
X78292100Y-150318600D01*
X70418100Y-156160600D02*
X81594100Y-156160600D01*
X70418100Y-156160600D02*
X70418100Y-152477600D01*
%TO.C,U$7*%
X104282100Y-171929600D02*
G75*
G03*
X105806100Y-170024600I-190500J1714500D01*
G01*
X105806100Y-166087600D02*
X105806100Y-170024600D01*
X99583100Y-168246600D02*
X93106100Y-168246600D01*
X99583099Y-168246601D02*
G75*
G03*
X100980100Y-166468600I-190500J1587501D01*
G01*
X105806100Y-166087600D02*
X100980100Y-166087600D01*
X93106100Y-171929600D02*
X104282100Y-171929600D01*
X93106100Y-171929600D02*
X93106100Y-168246600D01*
%TO.C,U$8*%
X154367100Y-89009600D02*
G75*
G03*
X155891100Y-87104600I-190500J1714500D01*
G01*
X155891100Y-83167600D02*
X155891100Y-87104600D01*
X149668100Y-85326600D02*
X143191100Y-85326600D01*
X149668099Y-85326601D02*
G75*
G03*
X151065100Y-83548600I-190500J1587501D01*
G01*
X155891100Y-83167600D02*
X151065100Y-83167600D01*
X143191100Y-89009600D02*
X154367100Y-89009600D01*
X143191100Y-89009600D02*
X143191100Y-85326600D01*
%TO.C,U$9*%
X233429100Y-61026600D02*
G75*
G03*
X234953100Y-59121600I-190500J1714500D01*
G01*
X234953100Y-55184600D02*
X234953100Y-59121600D01*
X228730100Y-57343600D02*
X222253100Y-57343600D01*
X228730099Y-57343601D02*
G75*
G03*
X230127100Y-55565600I-190500J1587501D01*
G01*
X234953100Y-55184600D02*
X230127100Y-55184600D01*
X222253100Y-61026600D02*
X233429100Y-61026600D01*
X222253100Y-61026600D02*
X222253100Y-57343600D01*
%TD*%
%LPC*%
D12*
%TO.C,D1*%
X151881100Y-65753600D03*
X167121100Y-65753600D03*
%TD*%
D13*
%TO.C,J5*%
X122579393Y-110861075D03*
X122579393Y-105081075D03*
D14*
X123079393Y-103651075D03*
X123079393Y-112291075D03*
D15*
X118899393Y-103651075D03*
X118899393Y-112291075D03*
%TD*%
D13*
%TO.C,J2*%
X151168981Y-34593600D03*
X143818981Y-34593600D03*
D16*
X144768981Y-33943600D03*
X145168981Y-33243600D03*
X145968981Y-33243600D03*
X146368981Y-33943600D03*
X146768981Y-33243600D03*
X147168981Y-33943600D03*
X147968981Y-33943600D03*
X148368981Y-33243600D03*
X148768981Y-33943600D03*
X149168981Y-33243600D03*
X149968981Y-33243600D03*
X150368981Y-33943600D03*
D17*
X151698981Y-33343600D03*
X143438981Y-33343600D03*
X152058981Y-28953600D03*
X143078981Y-28953600D03*
%TD*%
D18*
%TO.C,@HOLE0*%
X68501100Y-166753600D03*
%TD*%
%TO.C,@HOLE1*%
X284501100Y-147753600D03*
%TD*%
%TO.C,@HOLE2*%
X-19498900Y-154753600D03*
%TD*%
%TO.C,@HOLE3*%
X182501100Y-126753600D03*
%TD*%
D19*
%TO.C,@HOLE4*%
X268501100Y-54753600D03*
%TD*%
%TO.C,@HOLE5*%
X276501100Y-158753600D03*
%TD*%
%TO.C,@HOLE6*%
X-13498900Y-143753600D03*
%TD*%
%TO.C,@HOLE7*%
X65501100Y-49753600D03*
%TD*%
%TO.C,@HOLE8*%
X184501100Y-71753600D03*
%TD*%
%TO.C,@HOLE9*%
X136501100Y-160753600D03*
%TD*%
D18*
%TO.C,@HOLE10*%
X119501100Y-59753600D03*
%TD*%
D20*
%TO.C,@HOLE11*%
X174501100Y-45253600D03*
%TD*%
%TO.C,@HOLE12*%
X-11098900Y-108953600D03*
%TD*%
%TO.C,@HOLE13*%
X30301100Y-43453600D03*
%TD*%
D21*
%TO.C,@HOLE14*%
X122501100Y-131553600D03*
%TD*%
D20*
%TO.C,@HOLE15*%
X256501100Y-161753600D03*
%TD*%
D18*
%TO.C,@HOLE16*%
X71501100Y-125753600D03*
%TD*%
D22*
%TO.C,U$1*%
X-8493900Y-84337600D03*
X-14843900Y-86877600D03*
D23*
X-5953900Y-89417600D03*
X-16113900Y-89417600D03*
D18*
X-13573900Y-94497600D03*
X-7223900Y-91957600D03*
D24*
X-18018900Y-94497600D03*
X-2778900Y-91957600D03*
D25*
X-11033900Y-89417600D03*
%TD*%
D22*
%TO.C,U$10*%
X257026100Y-37092600D03*
X250676100Y-39632600D03*
D23*
X259566100Y-42172600D03*
X249406100Y-42172600D03*
D18*
X251946100Y-47252600D03*
X258296100Y-44712600D03*
D24*
X247501100Y-47252600D03*
X262741100Y-44712600D03*
D25*
X254486100Y-42172600D03*
%TD*%
D22*
%TO.C,U$11*%
X285381100Y-40067600D03*
X279031100Y-42607600D03*
D23*
X287921100Y-45147600D03*
X277761100Y-45147600D03*
D18*
X280301100Y-50227600D03*
X286651100Y-47687600D03*
D24*
X275856100Y-50227600D03*
X291096100Y-47687600D03*
D25*
X282841100Y-45147600D03*
%TD*%
D22*
%TO.C,U$12*%
X311604100Y-56103600D03*
X305254100Y-58643600D03*
D23*
X314144100Y-61183600D03*
X303984100Y-61183600D03*
D18*
X306524100Y-66263600D03*
X312874100Y-63723600D03*
D24*
X302079100Y-66263600D03*
X317319100Y-63723600D03*
D25*
X309064100Y-61183600D03*
%TD*%
D22*
%TO.C,U$13*%
X230508100Y-76697600D03*
X224158100Y-79237600D03*
D23*
X233048100Y-81777600D03*
X222888100Y-81777600D03*
D18*
X225428100Y-86857600D03*
X231778100Y-84317600D03*
D24*
X220983100Y-86857600D03*
X236223100Y-84317600D03*
D25*
X227968100Y-81777600D03*
%TD*%
D22*
%TO.C,U$14*%
X257026100Y-64702600D03*
X250676100Y-67242600D03*
D23*
X259566100Y-69782600D03*
X249406100Y-69782600D03*
D18*
X251946100Y-74862600D03*
X258296100Y-72322600D03*
D24*
X247501100Y-74862600D03*
X262741100Y-72322600D03*
D25*
X254486100Y-69782600D03*
%TD*%
D22*
%TO.C,U$15*%
X285381100Y-67677600D03*
X279031100Y-70217600D03*
D23*
X287921100Y-72757600D03*
X277761100Y-72757600D03*
D18*
X280301100Y-77837600D03*
X286651100Y-75297600D03*
D24*
X275856100Y-77837600D03*
X291096100Y-75297600D03*
D25*
X282841100Y-72757600D03*
%TD*%
D22*
%TO.C,U$16*%
X311604100Y-83713600D03*
X305254100Y-86253600D03*
D23*
X314144100Y-88793600D03*
X303984100Y-88793600D03*
D18*
X306524100Y-93873600D03*
X312874100Y-91333600D03*
D24*
X302079100Y-93873600D03*
X317319100Y-91333600D03*
D25*
X309064100Y-88793600D03*
%TD*%
D22*
%TO.C,U$17*%
X223493100Y-113037600D03*
X217143100Y-115577600D03*
D23*
X226033100Y-118117600D03*
X215873100Y-118117600D03*
D18*
X218413100Y-123197600D03*
X224763100Y-120657600D03*
D24*
X213968100Y-123197600D03*
X229208100Y-120657600D03*
D25*
X220953100Y-118117600D03*
%TD*%
D22*
%TO.C,U$18*%
X200806100Y-128807600D03*
X194456100Y-131347600D03*
D23*
X203346100Y-133887600D03*
X193186100Y-133887600D03*
D18*
X195726100Y-138967600D03*
X202076100Y-136427600D03*
D24*
X191281100Y-138967600D03*
X206521100Y-136427600D03*
D25*
X198266100Y-133887600D03*
%TD*%
D22*
%TO.C,U$19*%
X246150100Y-128807600D03*
X239800100Y-131347600D03*
D23*
X248690100Y-133887600D03*
X238530100Y-133887600D03*
D18*
X241070100Y-138967600D03*
X247420100Y-136427600D03*
D24*
X236625100Y-138967600D03*
X251865100Y-136427600D03*
D25*
X243610100Y-133887600D03*
%TD*%
D22*
%TO.C,U$2*%
X16786100Y-68034600D03*
X10436100Y-70574600D03*
D23*
X19326100Y-73114600D03*
X9166100Y-73114600D03*
D18*
X11706100Y-78194600D03*
X18056100Y-75654600D03*
D24*
X7261100Y-78194600D03*
X22501100Y-75654600D03*
D25*
X14246100Y-73114600D03*
%TD*%
D22*
%TO.C,U$20*%
X223493100Y-144222600D03*
X217143100Y-146762600D03*
D23*
X226033100Y-149302600D03*
X215873100Y-149302600D03*
D18*
X218413100Y-154382600D03*
X224763100Y-151842600D03*
D24*
X213968100Y-154382600D03*
X229208100Y-151842600D03*
D25*
X220953100Y-149302600D03*
%TD*%
D22*
%TO.C,U$21*%
X200806100Y-159992600D03*
X194456100Y-162532600D03*
D23*
X203346100Y-165072600D03*
X193186100Y-165072600D03*
D18*
X195726100Y-170152600D03*
X202076100Y-167612600D03*
D24*
X191281100Y-170152600D03*
X206521100Y-167612600D03*
D25*
X198266100Y-165072600D03*
%TD*%
D22*
%TO.C,U$4*%
X45142100Y-65308600D03*
X38792100Y-67848600D03*
D23*
X47682100Y-70388600D03*
X37522100Y-70388600D03*
D18*
X40062100Y-75468600D03*
X46412100Y-72928600D03*
D24*
X35617100Y-75468600D03*
X50857100Y-72928600D03*
D25*
X42602100Y-70388600D03*
%TD*%
D22*
%TO.C,U$5*%
X71714100Y-77071600D03*
X65364100Y-79611600D03*
D23*
X74254100Y-82151600D03*
X64094100Y-82151600D03*
D18*
X66634100Y-87231600D03*
X72984100Y-84691600D03*
D24*
X62189100Y-87231600D03*
X77429100Y-84691600D03*
D25*
X69174100Y-82151600D03*
%TD*%
D22*
%TO.C,U$6*%
X78673100Y-144222600D03*
X72323100Y-146762600D03*
D23*
X81213100Y-149302600D03*
X71053100Y-149302600D03*
D18*
X73593100Y-154382600D03*
X79943100Y-151842600D03*
D24*
X69148100Y-154382600D03*
X84388100Y-151842600D03*
D25*
X76133100Y-149302600D03*
%TD*%
D22*
%TO.C,U$7*%
X101361100Y-159991600D03*
X95011100Y-162531600D03*
D23*
X103901100Y-165071600D03*
X93741100Y-165071600D03*
D18*
X96281100Y-170151600D03*
X102631100Y-167611600D03*
D24*
X91836100Y-170151600D03*
X107076100Y-167611600D03*
D25*
X98821100Y-165071600D03*
%TD*%
D22*
%TO.C,U$8*%
X151446100Y-77071600D03*
X145096100Y-79611600D03*
D23*
X153986100Y-82151600D03*
X143826100Y-82151600D03*
D18*
X146366100Y-87231600D03*
X152716100Y-84691600D03*
D24*
X141921100Y-87231600D03*
X157161100Y-84691600D03*
D25*
X148906100Y-82151600D03*
%TD*%
D22*
%TO.C,U$9*%
X230508100Y-49088600D03*
X224158100Y-51628600D03*
D23*
X233048100Y-54168600D03*
X222888100Y-54168600D03*
D18*
X225428100Y-59248600D03*
X231778100Y-56708600D03*
D24*
X220983100Y-59248600D03*
X236223100Y-56708600D03*
D25*
X227968100Y-54168600D03*
%TD*%
D26*
%TO.C,JP2*%
X2501100Y-96753600D03*
%TD*%
%TO.C,JP3*%
X17501100Y-85753600D03*
%TD*%
%TO.C,JP4*%
X54501100Y-78753600D03*
%TD*%
%TO.C,JP5*%
X81501100Y-88753600D03*
%TD*%
%TO.C,JP6*%
X86501100Y-158753600D03*
%TD*%
%TO.C,JP7*%
X112501100Y-161753600D03*
%TD*%
%TO.C,JP8*%
X156501100Y-94753600D03*
%TD*%
%TO.C,JP9*%
X241501100Y-60753600D03*
%TD*%
%TO.C,JP10*%
X238501100Y-87753600D03*
%TD*%
%TO.C,JP11*%
X264501100Y-79753600D03*
%TD*%
%TO.C,JP12*%
X268501100Y-39753600D03*
%TD*%
%TO.C,JP13*%
X294501100Y-54753600D03*
%TD*%
%TO.C,JP14*%
X311501100Y-72753600D03*
%TD*%
%TO.C,JP15*%
X313501100Y-100753600D03*
%TD*%
%TO.C,JP16*%
X291501100Y-83753600D03*
%TD*%
%TO.C,JP17*%
X236501100Y-125753600D03*
%TD*%
%TO.C,JP18*%
X211501100Y-133753600D03*
%TD*%
%TO.C,JP19*%
X257501100Y-141753600D03*
%TD*%
%TO.C,JP20*%
X235501100Y-150753600D03*
%TD*%
%TO.C,JP21*%
X183501100Y-171753600D03*
%TD*%
D27*
%TO.C,J3*%
X174851100Y-32753600D03*
X172311100Y-32753600D03*
X169771100Y-32753600D03*
X167231100Y-32753600D03*
X164691100Y-32753600D03*
X162151100Y-32753600D03*
%TD*%
D28*
%TO.C,J1*%
X33201100Y-175253600D03*
X21801100Y-175253600D03*
X33201100Y-128253600D03*
X21801100Y-128253600D03*
D29*
X29926100Y-130783600D03*
X25076100Y-130783600D03*
X30226100Y-127753600D03*
X24776100Y-127753600D03*
D30*
X28501100Y-127453600D03*
X26501100Y-127453600D03*
D31*
X30041100Y-176453600D03*
X27501100Y-176453600D03*
X24961100Y-176453600D03*
D32*
X37191100Y-127623600D03*
X37191100Y-130163600D03*
X37191100Y-132703600D03*
X37191100Y-135243600D03*
X37191100Y-137783600D03*
X37191100Y-140323600D03*
X37191100Y-142863600D03*
X37191100Y-145403600D03*
X37191100Y-147943600D03*
X37191100Y-150483600D03*
X37191100Y-153023600D03*
X37191100Y-155563600D03*
X37191100Y-158103600D03*
X37191100Y-160643600D03*
X37191100Y-163183600D03*
X37191100Y-165723600D03*
X37191100Y-168263600D03*
X37191100Y-170803600D03*
X37191100Y-173343600D03*
X37191100Y-175883600D03*
X17811100Y-175883600D03*
X17811100Y-173343600D03*
X17811100Y-170803600D03*
X17811100Y-168263600D03*
X17811100Y-165723600D03*
X17811100Y-163183600D03*
X17811100Y-160643600D03*
X17811100Y-158103600D03*
X17811100Y-155563600D03*
X17811100Y-153023600D03*
X17811100Y-150483600D03*
X17811100Y-147943600D03*
X17811100Y-145403600D03*
X17811100Y-142863600D03*
X17811100Y-140323600D03*
X17811100Y-137783600D03*
X17811100Y-135243600D03*
X17811100Y-132703600D03*
X17811100Y-130163600D03*
X17811100Y-127623600D03*
%TD*%
D33*
%TO.C,J4*%
X142745065Y-103943600D03*
X142745065Y-106483600D03*
X142745065Y-109023600D03*
X142745065Y-111563600D03*
%TD*%
M02*
