M48
; DRILL file {KiCad 7.0.1} date Wed 12 Apr 2023 05:13:56 PM MDT
; FORMAT={-:-/ absolute / inch / decimal}
; #@! TF.CreationDate,2023-04-12T17:13:56-06:00
; #@! TF.GenerationSoftware,Kicad,Pcbnew,7.0.1
; #@! TF.FileFunction,Plated,1,2,PTH
FMAT,2
INCH
; #@! TA.AperFunction,Plated,PTH,ViaDrill
T1C0.0120
; #@! TA.AperFunction,Plated,PTH,ViaDrill
T2C0.0138
; #@! TA.AperFunction,Plated,PTH,ViaDrill
T3C0.0157
; #@! TA.AperFunction,Plated,PTH,ComponentDrill
T4C0.0157
; #@! TA.AperFunction,Plated,PTH,ComponentDrill
T5C0.0197
; #@! TA.AperFunction,Plated,PTH,ComponentDrill
T6C0.0236
; #@! TA.AperFunction,Plated,PTH,ComponentDrill
T7C0.0315
; #@! TA.AperFunction,Plated,PTH,ComponentDrill
T8C0.0400
; #@! TA.AperFunction,Plated,PTH,ComponentDrill
T9C0.0433
; #@! TA.AperFunction,Plated,PTH,ComponentDrill
T10C0.0590
%
G90
G05
T1
X5.6819Y-1.4474
X5.8002Y-1.4174
T2
X4.7048Y-4.5572
X4.7441Y-3.9667
X4.9804Y-3.9667
X4.9804Y-4.5179
X5.3347Y-4.3997
X5.9333Y-1.283
X6.2402Y-1.2108
X8.7993Y-6.9194
X9.3898Y-6.4864
X9.7835Y-5.8958
X10.4528Y-6.8013
X10.4922Y-4.7934
X10.6103Y-5.699
X11.0434Y-5.2659
X11.3189Y-4.7541
X11.4371Y-6.7226
X11.9489Y-5.4234
X12.067Y-6.2895
X12.1851Y-4.5179
T3
X-0.8858Y-5.069
X-0.7677Y-4.5572
X-0.7283Y-3.9273
X-0.6889Y-1.9982
X-0.6889Y-2.9824
X-0.6102Y-6.4864
X-0.4921Y-4.8328
X-0.4527Y-6.9194
X-0.374Y-1.6832
X-0.374Y-2.4312
X-0.1771Y-5.3053
X-0.0984Y-6.2108
X-0.0984Y-6.5651
X0.0197Y-2.9824
X0.1772Y-6.8407
X0.2953Y-1.5257
X0.3347Y-2.3525
X0.3347Y-3.3761
X0.3741Y-1.9982
X0.4922Y-5.699
X0.5315Y-6.7226
X0.5709Y-5.1871
X0.7678Y-4.7934
X0.8071Y-4.3604
X1.1615Y-2.3919
X1.2796Y-4.321
X1.3583Y-3.1793
X1.3583Y-3.8092
X1.5158Y-4.8722
X1.5945Y-5.2265
X1.5945Y-6.7226
X1.6339Y-5.7383
X1.6339Y-6.2108
X1.752Y-3.8486
X1.8308Y-2.195
X1.8701Y-4.2423
X1.9489Y-4.9903
X1.9489Y-5.4234
X2.067Y-3.3761
X2.1063Y-1.5257
X2.4607Y-6.2108
X3.0512Y-5.2265
X3.13Y-2.6675
X3.2087Y-1.6438
X3.3662Y-6.7226
X3.6024Y-3.3761
X3.6418Y-5.8958
X3.7599Y-2.3525
X3.7599Y-2.9824
X3.7993Y-4.9509
X3.9567Y-1.6438
X4.2323Y-4.9509
X4.2717Y-2.7068
X4.3111Y-3.4155
X4.4292Y-5.9746
X4.7835Y-6.6045
X4.941Y-3.0612
X4.941Y-3.573
X4.9804Y-1.6045
X5.2953Y-4.0848
X5.3741Y-2.7856
X5.4922Y-1.3289
X5.4922Y-2.2344
X5.6103Y-1.447
X5.7587Y-1.5123
X5.7678Y-2.9824
X5.7678Y-4.3997
X5.8465Y-5.1084
X5.8859Y-1.4864
X5.8859Y-3.9273
X5.8859Y-5.9746
X5.9Y-1.2
X6.004Y-1.6832
X6.0434Y-1.3289
X6.2402Y-1.5651
X6.2796Y-1.3289
X6.2796Y-4.2423
X6.3977Y-1.9588
X6.5552Y-6.6045
X6.5945Y-3.0218
X6.5945Y-3.6517
X6.5945Y-4.6753
X6.7373Y-1.3879
X7.1457Y-4.0848
X7.1851Y-6.0139
X7.2638Y-2.2344
X7.3819Y-1.6438
X7.4607Y-6.8801
X7.5394Y-3.4155
X7.8544Y-5.7777
X7.8937Y-2.8643
X7.9725Y-2.1163
X7.9725Y-5.8171
X8.0119Y-6.1714
X8.13Y-4.9116
X8.2087Y-1.6045
X8.4843Y-6.3683
X8.5237Y-2.5887
X8.5237Y-3.6911
X9.1142Y-3.9273
X9.1142Y-5.7777
X9.1536Y-5.5021
X9.193Y-1.447
X9.2717Y-2.8643
X9.2717Y-4.7934
X9.3504Y-3.6911
X9.5079Y-4.4391
X9.6654Y-3.9273
X9.7048Y-2.0769
X9.7835Y-3.1793
X10.0985Y-5.3053
X10.1378Y-3.4549
X10.3741Y-2.4706
X10.7678Y-3.4155
X10.7678Y-4.0454
X10.9252Y-2.195
X11.0434Y-1.3683
X11.2796Y-3.5336
X11.4764Y-2.4706
X11.5945Y-3.9667
X11.8308Y-1.5257
X11.8701Y-2.8249
X11.9489Y-1.9588
X12.2638Y-1.6832
X12.3032Y-1.4076
X12.5Y-3.8486
T4
X5.6996Y-1.3364
X5.7153Y-1.3088
X5.7468Y-1.3088
X5.7626Y-1.3364
X5.7783Y-1.3088
X5.7941Y-1.3364
X5.8256Y-1.3364
X5.8413Y-1.3088
X5.857Y-1.3364
X5.8728Y-1.3088
X5.9043Y-1.3088
X5.92Y-1.3364
T6
X1.0434Y-5.0179
X1.1221Y-5.0179
T7
X5.9756Y-2.3501
X5.9774Y-2.11
X6.2756Y-2.3501
X6.2774Y-2.11
T8
X0.0985Y-3.8092
X0.689Y-3.3761
X2.1457Y-3.1005
X3.2087Y-3.4942
X3.4056Y-6.2501
X4.4292Y-6.3683
X5.6199Y-4.0923
X5.6199Y-4.1923
X5.6199Y-4.2923
X5.6199Y-4.3923
X6.1615Y-3.7305
X6.3839Y-1.2895
X6.4839Y-1.2895
X6.5839Y-1.2895
X6.6839Y-1.2895
X6.7839Y-1.2895
X6.8839Y-1.2895
X7.2245Y-6.762
X8.3268Y-5.2659
X9.2717Y-5.9352
X9.3111Y-4.9509
X9.3898Y-3.4549
X9.5079Y-2.3919
X10.1378Y-5.5809
X10.4134Y-3.1399
X10.5709Y-1.5651
X11.4764Y-3.2974
X11.5945Y-2.1557
X12.2638Y-2.8643
X12.3426Y-3.9667
T9
X0.7327Y-5.0246
X0.7327Y-5.1246
X0.7327Y-5.2246
X0.7327Y-5.3246
X0.7327Y-5.4246
X0.7327Y-5.5246
X0.7327Y-5.6246
X0.7327Y-5.7246
X0.7327Y-5.8246
X0.7327Y-5.9246
X0.7327Y-6.0246
X0.7327Y-6.1246
X0.7327Y-6.2246
X0.7327Y-6.3246
X0.7327Y-6.4246
X0.7327Y-6.5246
X0.7327Y-6.6246
X0.7327Y-6.7246
X0.7327Y-6.8246
X0.7327Y-6.9246
X0.9827Y-6.9155
X1.0827Y-6.9155
X1.1827Y-6.9155
X1.4327Y-5.0246
X1.4327Y-5.1246
X1.4327Y-5.2246
X1.4327Y-5.3246
X1.4327Y-5.4246
X1.4327Y-5.5246
X1.4327Y-5.6246
X1.4327Y-5.7246
X1.4327Y-5.8246
X1.4327Y-5.9246
X1.4327Y-6.0246
X1.4327Y-6.1246
X1.4327Y-6.2246
X1.4327Y-6.3246
X1.4327Y-6.4246
X1.4327Y-6.5246
X1.4327Y-6.6246
X1.4327Y-6.7246
X1.4327Y-6.8246
X1.4327Y-6.9246
T10
X-0.5844Y-3.4204
X-0.3344Y-3.3204
X0.4109Y-2.7785
X0.6609Y-2.6785
X1.5272Y-2.6712
X1.7772Y-2.5712
X2.5734Y-3.1343
X2.8234Y-3.0343
X2.8474Y-5.7781
X3.0974Y-5.6781
X3.7406Y-6.3989
X3.9906Y-6.2989
X5.7124Y-3.1343
X5.9624Y-3.0343
X5.9796Y-2.5887
X6.5796Y-2.5887
X7.6558Y-5.1712
X7.6558Y-6.3989
X7.9058Y-5.0712
X7.9058Y-6.2989
X8.5489Y-4.5503
X8.5489Y-5.7781
X8.7989Y-4.4503
X8.7989Y-5.6781
X8.8251Y-2.0326
X8.8251Y-3.1196
X9.0751Y-1.9326
X9.0751Y-3.0196
X9.4409Y-5.1712
X9.6909Y-5.0712
X9.8691Y-1.5603
X9.8691Y-2.6473
X10.1191Y-1.4603
X10.1191Y-2.5473
X10.9855Y-1.6775
X10.9855Y-2.7645
X11.2355Y-1.5775
X11.2355Y-2.6645
X12.0179Y-2.3088
X12.0179Y-3.3958
X12.2679Y-2.2088
X12.2679Y-3.2958
T5
G00X5.633Y-1.1281
M15
G01X5.633Y-1.1517
M16
G05
G00X5.6472Y-1.3009
M15
G01X5.6472Y-1.3246
M16
G05
G00X5.9724Y-1.3009
M15
G01X5.9724Y-1.3246
M16
G05
G00X5.9866Y-1.1281
M15
G01X5.9866Y-1.1517
M16
G05
T6
G00X4.6653Y-4.0808
M15
G01X4.6968Y-4.0808
M16
G05
G00X4.6653Y-4.4209
M15
G01X4.6968Y-4.4209
M16
G05
G00X4.824Y-4.0808
M15
G01X4.8673Y-4.0808
M16
G05
G00X4.824Y-4.4209
M15
G01X4.8673Y-4.4209
M16
G05
T0
M30
