M48
; DRILL file {KiCad 7.0.1} date Wed 12 Apr 2023 05:13:56 PM MDT
; FORMAT={-:-/ absolute / inch / decimal}
; #@! TF.CreationDate,2023-04-12T17:13:56-06:00
; #@! TF.GenerationSoftware,Kicad,Pcbnew,7.0.1
; #@! TF.FileFunction,NonPlated,1,2,NPTH
FMAT,2
INCH
; #@! TA.AperFunction,NonPlated,NPTH,ComponentDrill
T1C0.0256
; #@! TA.AperFunction,NonPlated,NPTH,ComponentDrill
T2C0.0591
; #@! TA.AperFunction,NonPlated,NPTH,ComponentDrill
T3C0.0670
; #@! TA.AperFunction,NonPlated,NPTH,ComponentDrill
T4C0.0827
; #@! TA.AperFunction,NonPlated,NPTH,ComponentDrill
T5C0.1181
; #@! TA.AperFunction,NonPlated,NPTH,ComponentDrill
T6C0.1570
; #@! TA.AperFunction,NonPlated,NPTH,ComponentDrill
T7C0.3150
; #@! TA.AperFunction,NonPlated,NPTH,ComponentDrill
T8C0.3346
; #@! TA.AperFunction,NonPlated,NPTH,ComponentDrill
T9C0.3543
%
G90
G05
T1
X4.826Y-4.1371
X4.826Y-4.3646
X5.6622Y-1.362
X5.9515Y-1.362
T2
X0.9754Y-5.0297
X0.9872Y-5.149
X1.1782Y-5.149
X1.19Y-5.0297
T3
X-0.6344Y-3.5204
X-0.2344Y-3.5204
X0.3609Y-2.8785
X0.7609Y-2.8785
X1.4772Y-2.7712
X1.8772Y-2.7712
X2.5234Y-3.2343
X2.7974Y-5.8781
X2.9234Y-3.2343
X3.1974Y-5.8781
X3.6906Y-6.4989
X4.0906Y-6.4989
X5.6624Y-3.2343
X6.0624Y-3.2343
X7.6058Y-5.2712
X7.6058Y-6.4989
X8.0058Y-5.2712
X8.0058Y-6.4989
X8.4989Y-4.6503
X8.4989Y-5.8781
X8.7751Y-2.1326
X8.7751Y-3.2196
X8.8989Y-4.6503
X8.8989Y-5.8781
X9.1751Y-2.1326
X9.1751Y-3.2196
X9.3909Y-5.2712
X9.7909Y-5.2712
X9.8191Y-1.6603
X9.8191Y-2.7473
X10.2191Y-1.6603
X10.2191Y-2.7473
X10.9355Y-1.7775
X10.9355Y-2.8645
X11.3355Y-1.7775
X11.3355Y-2.8645
X11.9679Y-2.4088
X11.9679Y-3.4958
X12.3679Y-2.4088
X12.3679Y-3.4958
T4
X0.8583Y-5.0494
X0.8583Y-6.8997
X1.3071Y-5.0494
X1.3071Y-6.8997
T5
X-0.7677Y-6.0927
X-0.5344Y-3.7204
X-0.2844Y-3.6204
X0.4609Y-3.0785
X0.7109Y-2.9785
X1.5772Y-2.9712
X1.8272Y-2.8712
X2.6234Y-3.4343
X2.6969Y-6.5651
X2.815Y-4.9509
X2.8734Y-3.3343
X2.8974Y-6.0781
X3.1474Y-5.9781
X3.7906Y-6.6989
X4.0406Y-6.5989
X4.7048Y-2.3525
X5.7624Y-3.4343
X6.0124Y-3.3343
X7.1851Y-4.9903
X7.7058Y-5.4712
X7.7058Y-6.6989
X7.9558Y-5.3712
X7.9558Y-6.5989
X8.5989Y-4.8503
X8.5989Y-6.0781
X8.8489Y-4.7503
X8.8489Y-5.9781
X8.8751Y-2.3326
X8.8751Y-3.4196
X9.1251Y-2.2326
X9.1251Y-3.3196
X9.4909Y-5.4712
X9.7409Y-5.3712
X9.9191Y-1.8603
X9.9191Y-2.9473
X10.1691Y-1.7603
X10.1691Y-2.8473
X11.0355Y-1.9775
X11.0355Y-3.0645
X11.2008Y-5.8171
X11.2855Y-1.8775
X11.2855Y-2.9645
X12.0679Y-2.6088
X12.0679Y-3.6958
X12.3179Y-2.5088
X12.3179Y-3.5958
T6
X-0.4344Y-3.5204
X0.5609Y-2.8785
X1.6772Y-2.7712
X2.7234Y-3.2343
X2.9974Y-5.8781
X3.8906Y-6.4989
X5.8624Y-3.2343
X7.8058Y-5.2712
X7.8058Y-6.4989
X8.6989Y-4.6503
X8.6989Y-5.8781
X8.9751Y-2.1326
X8.9751Y-3.2196
X9.5909Y-5.2712
X10.0191Y-1.6603
X10.0191Y-2.7473
X11.1355Y-1.7775
X11.1355Y-2.8645
X12.1679Y-2.4088
X12.1679Y-3.4958
T7
X-0.5315Y-5.6596
X2.5788Y-1.9588
X5.3741Y-6.3289
X7.2638Y-2.8249
X10.5709Y-2.1557
X10.8859Y-6.2501
T8
X4.8229Y-5.1793
T9
X-0.437Y-4.2895
X1.193Y-1.7108
X6.8701Y-1.7816
X10.0985Y-6.3683
T0
M30
