%TF.GenerationSoftware,KiCad,Pcbnew,7.0.1*%
%TF.CreationDate,2023-04-12T17:14:02-06:00*%
%TF.ProjectId,OF1 v1,4f463120-7631-42e6-9b69-6361645f7063,rev?*%
%TF.SameCoordinates,Original*%
%TF.FileFunction,Legend,Top*%
%TF.FilePolarity,Positive*%
%FSLAX46Y46*%
G04 Gerber Fmt 4.6, Leading zero omitted, Abs format (unit mm)*
G04 Created by KiCad (PCBNEW 7.0.1) date 2023-04-12 17:14:02*
%MOMM*%
%LPD*%
G01*
G04 APERTURE LIST*
G04 Aperture macros list*
%AMRoundRect*
0 Rectangle with rounded corners*
0 $1 Rounding radius*
0 $2 $3 $4 $5 $6 $7 $8 $9 X,Y pos of 4 corners*
0 Add a 4 corners polygon primitive as box body*
4,1,4,$2,$3,$4,$5,$6,$7,$8,$9,$2,$3,0*
0 Add four circle primitives for the rounded corners*
1,1,$1+$1,$2,$3*
1,1,$1+$1,$4,$5*
1,1,$1+$1,$6,$7*
1,1,$1+$1,$8,$9*
0 Add four rect primitives between the rounded corners*
20,1,$1+$1,$2,$3,$4,$5,0*
20,1,$1+$1,$4,$5,$6,$7,0*
20,1,$1+$1,$6,$7,$8,$9,0*
20,1,$1+$1,$8,$9,$2,$3,0*%
%AMFreePoly0*
4,1,17,0.425901,0.806901,0.806901,0.425901,0.825500,0.381000,0.825500,-0.381000,0.806901,-0.425901,0.425901,-0.806901,0.381000,-0.825500,-0.381000,-0.825500,-0.425901,-0.806901,-0.806901,-0.425901,-0.825500,-0.381000,-0.825500,0.381000,-0.806901,0.425901,-0.425901,0.806901,-0.381000,0.825500,0.381000,0.825500,0.425901,0.806901,0.425901,0.806901,$1*%
G04 Aperture macros list end*
%ADD10C,0.200000*%
%ADD11C,0.065024*%
%ADD12C,0.142240*%
%ADD13C,0.114300*%
%ADD14C,0.127000*%
%ADD15C,0.150000*%
%ADD16C,0.044941*%
%ADD17C,0.152400*%
%ADD18C,0.120000*%
%ADD19C,0.020000*%
%ADD20O,3.175000X1.651000*%
%ADD21C,3.000000*%
%ADD22C,1.701800*%
%ADD23C,3.987800*%
%ADD24C,2.374900*%
%ADD25FreePoly0,0.000000*%
%ADD26O,4.622800X2.374900*%
%ADD27C,9.000000*%
%ADD28C,8.000000*%
%ADD29RoundRect,0.063500X0.605000X0.365000X-0.605000X0.365000X-0.605000X-0.365000X0.605000X-0.365000X0*%
%ADD30RoundRect,0.200000X-0.200000X-0.275000X0.200000X-0.275000X0.200000X0.275000X-0.200000X0.275000X0*%
%ADD31C,8.500000*%
%ADD32C,0.650000*%
%ADD33RoundRect,0.063500X-0.150000X-0.450000X0.150000X-0.450000X0.150000X0.450000X-0.150000X0.450000X0*%
%ADD34C,0.777000*%
%ADD35O,0.877000X1.627000*%
%ADD36C,1.600000*%
%ADD37O,1.600000X1.600000*%
%ADD38C,1.500000*%
%ADD39C,2.100000*%
%ADD40O,3.327000X1.727000*%
%ADD41O,1.727000X3.327000*%
%ADD42RoundRect,0.063500X-0.400000X-0.400000X0.400000X-0.400000X0.400000X0.400000X-0.400000X0.400000X0*%
%ADD43RoundRect,0.063500X-0.620000X0.300000X-0.620000X-0.300000X0.620000X-0.300000X0.620000X0.300000X0*%
%ADD44RoundRect,0.063500X-0.620000X0.150000X-0.620000X-0.150000X0.620000X-0.150000X0.620000X0.150000X0*%
%ADD45O,2.227000X1.127000*%
%ADD46O,1.927000X1.127000*%
%ADD47O,1.651000X3.175000*%
G04 APERTURE END LIST*
D10*
X73737165Y-125753600D02*
G75*
G03*
X73737165Y-125753600I-2236065J0D01*
G01*
X145501100Y-50753600D02*
X170501100Y-50753600D01*
X170501100Y-50753600D02*
X170501100Y-73753600D01*
X170501100Y-73753600D02*
X145501100Y-73753600D01*
X162272621Y-34794232D02*
X164674246Y-34794232D01*
X145501100Y-73753600D02*
X145501100Y-50753600D01*
X164706284Y-33815094D02*
X164690587Y-33799397D01*
X163421272Y-34948854D02*
X163421272Y-36958357D01*
X164691100Y-34802747D02*
X164691100Y-34410263D01*
X162272621Y-34378054D02*
X162272621Y-34801935D01*
D11*
X145220615Y-110496176D02*
X145149398Y-110460568D01*
X145149398Y-110460568D02*
X145042573Y-110460568D01*
X145042573Y-110460568D02*
X144935748Y-110496176D01*
X144935748Y-110496176D02*
X144864531Y-110567393D01*
X144864531Y-110567393D02*
X144828922Y-110638610D01*
X144828922Y-110638610D02*
X144793314Y-110781043D01*
X144793314Y-110781043D02*
X144793314Y-110887868D01*
X144793314Y-110887868D02*
X144828922Y-111030302D01*
X144828922Y-111030302D02*
X144864531Y-111101519D01*
X144864531Y-111101519D02*
X144935748Y-111172736D01*
X144935748Y-111172736D02*
X145042573Y-111208344D01*
X145042573Y-111208344D02*
X145113789Y-111208344D01*
X145113789Y-111208344D02*
X145220615Y-111172736D01*
X145220615Y-111172736D02*
X145256223Y-111137127D01*
X145256223Y-111137127D02*
X145256223Y-110887868D01*
X145256223Y-110887868D02*
X145113789Y-110887868D01*
X145576698Y-111208344D02*
X145576698Y-110460568D01*
X145576698Y-110460568D02*
X146003999Y-111208344D01*
X146003999Y-111208344D02*
X146003999Y-110460568D01*
X146360082Y-111208344D02*
X146360082Y-110460568D01*
X146360082Y-110460568D02*
X146538124Y-110460568D01*
X146538124Y-110460568D02*
X146644949Y-110496176D01*
X146644949Y-110496176D02*
X146716166Y-110567393D01*
X146716166Y-110567393D02*
X146751775Y-110638610D01*
X146751775Y-110638610D02*
X146787383Y-110781043D01*
X146787383Y-110781043D02*
X146787383Y-110887868D01*
X146787383Y-110887868D02*
X146751775Y-111030302D01*
X146751775Y-111030302D02*
X146716166Y-111101519D01*
X146716166Y-111101519D02*
X146644949Y-111172736D01*
X146644949Y-111172736D02*
X146538124Y-111208344D01*
X146538124Y-111208344D02*
X146360082Y-111208344D01*
X171793932Y-37993174D02*
X171793932Y-37530265D01*
X171793932Y-37530265D02*
X172078799Y-37779524D01*
X172078799Y-37779524D02*
X172078799Y-37672699D01*
X172078799Y-37672699D02*
X172114407Y-37601482D01*
X172114407Y-37601482D02*
X172150016Y-37565874D01*
X172150016Y-37565874D02*
X172221232Y-37530265D01*
X172221232Y-37530265D02*
X172399274Y-37530265D01*
X172399274Y-37530265D02*
X172470491Y-37565874D01*
X172470491Y-37565874D02*
X172506100Y-37601482D01*
X172506100Y-37601482D02*
X172541708Y-37672699D01*
X172541708Y-37672699D02*
X172541708Y-37886349D01*
X172541708Y-37886349D02*
X172506100Y-37957566D01*
X172506100Y-37957566D02*
X172470491Y-37993174D01*
X171793932Y-37316615D02*
X172541708Y-37067356D01*
X172541708Y-37067356D02*
X171793932Y-36818097D01*
X171793932Y-36640055D02*
X171793932Y-36177146D01*
X171793932Y-36177146D02*
X172078799Y-36426405D01*
X172078799Y-36426405D02*
X172078799Y-36319580D01*
X172078799Y-36319580D02*
X172114407Y-36248363D01*
X172114407Y-36248363D02*
X172150016Y-36212755D01*
X172150016Y-36212755D02*
X172221232Y-36177146D01*
X172221232Y-36177146D02*
X172399274Y-36177146D01*
X172399274Y-36177146D02*
X172470491Y-36212755D01*
X172470491Y-36212755D02*
X172506100Y-36248363D01*
X172506100Y-36248363D02*
X172541708Y-36319580D01*
X172541708Y-36319580D02*
X172541708Y-36533230D01*
X172541708Y-36533230D02*
X172506100Y-36604447D01*
X172506100Y-36604447D02*
X172470491Y-36640055D01*
X172541708Y-35286937D02*
X172043191Y-35286937D01*
X171793932Y-35286937D02*
X171829540Y-35322545D01*
X171829540Y-35322545D02*
X171865149Y-35286937D01*
X171865149Y-35286937D02*
X171829540Y-35251328D01*
X171829540Y-35251328D02*
X171793932Y-35286937D01*
X171793932Y-35286937D02*
X171865149Y-35286937D01*
X172043191Y-34930853D02*
X172541708Y-34930853D01*
X172114407Y-34930853D02*
X172078799Y-34895244D01*
X172078799Y-34895244D02*
X172043191Y-34824027D01*
X172043191Y-34824027D02*
X172043191Y-34717202D01*
X172043191Y-34717202D02*
X172078799Y-34645986D01*
X172078799Y-34645986D02*
X172150016Y-34610377D01*
X172150016Y-34610377D02*
X172541708Y-34610377D01*
X174456597Y-39045214D02*
X174456597Y-39401298D01*
X174456597Y-39401298D02*
X174812681Y-39436906D01*
X174812681Y-39436906D02*
X174777072Y-39401298D01*
X174777072Y-39401298D02*
X174741464Y-39330081D01*
X174741464Y-39330081D02*
X174741464Y-39152039D01*
X174741464Y-39152039D02*
X174777072Y-39080822D01*
X174777072Y-39080822D02*
X174812681Y-39045214D01*
X174812681Y-39045214D02*
X174883897Y-39009605D01*
X174883897Y-39009605D02*
X175061939Y-39009605D01*
X175061939Y-39009605D02*
X175133156Y-39045214D01*
X175133156Y-39045214D02*
X175168765Y-39080822D01*
X175168765Y-39080822D02*
X175204373Y-39152039D01*
X175204373Y-39152039D02*
X175204373Y-39330081D01*
X175204373Y-39330081D02*
X175168765Y-39401298D01*
X175168765Y-39401298D02*
X175133156Y-39436906D01*
X174456597Y-38795955D02*
X175204373Y-38546696D01*
X175204373Y-38546696D02*
X174456597Y-38297437D01*
X174420989Y-37514053D02*
X175382415Y-38155004D01*
X174456597Y-37371620D02*
X175204373Y-37122361D01*
X175204373Y-37122361D02*
X174456597Y-36873102D01*
X174812681Y-36374585D02*
X174848289Y-36267760D01*
X174848289Y-36267760D02*
X174883897Y-36232151D01*
X174883897Y-36232151D02*
X174955114Y-36196543D01*
X174955114Y-36196543D02*
X175061939Y-36196543D01*
X175061939Y-36196543D02*
X175133156Y-36232151D01*
X175133156Y-36232151D02*
X175168765Y-36267760D01*
X175168765Y-36267760D02*
X175204373Y-36338977D01*
X175204373Y-36338977D02*
X175204373Y-36623844D01*
X175204373Y-36623844D02*
X174456597Y-36623844D01*
X174456597Y-36623844D02*
X174456597Y-36374585D01*
X174456597Y-36374585D02*
X174492205Y-36303368D01*
X174492205Y-36303368D02*
X174527814Y-36267760D01*
X174527814Y-36267760D02*
X174599030Y-36232151D01*
X174599030Y-36232151D02*
X174670247Y-36232151D01*
X174670247Y-36232151D02*
X174741464Y-36267760D01*
X174741464Y-36267760D02*
X174777072Y-36303368D01*
X174777072Y-36303368D02*
X174812681Y-36374585D01*
X174812681Y-36374585D02*
X174812681Y-36623844D01*
X174456597Y-35876068D02*
X175061939Y-35876068D01*
X175061939Y-35876068D02*
X175133156Y-35840459D01*
X175133156Y-35840459D02*
X175168765Y-35804851D01*
X175168765Y-35804851D02*
X175204373Y-35733634D01*
X175204373Y-35733634D02*
X175204373Y-35591201D01*
X175204373Y-35591201D02*
X175168765Y-35519984D01*
X175168765Y-35519984D02*
X175133156Y-35484375D01*
X175133156Y-35484375D02*
X175061939Y-35448767D01*
X175061939Y-35448767D02*
X174456597Y-35448767D01*
X175168765Y-35128292D02*
X175204373Y-35021467D01*
X175204373Y-35021467D02*
X175204373Y-34843425D01*
X175204373Y-34843425D02*
X175168765Y-34772208D01*
X175168765Y-34772208D02*
X175133156Y-34736600D01*
X175133156Y-34736600D02*
X175061939Y-34700991D01*
X175061939Y-34700991D02*
X174990723Y-34700991D01*
X174990723Y-34700991D02*
X174919506Y-34736600D01*
X174919506Y-34736600D02*
X174883897Y-34772208D01*
X174883897Y-34772208D02*
X174848289Y-34843425D01*
X174848289Y-34843425D02*
X174812681Y-34985858D01*
X174812681Y-34985858D02*
X174777072Y-35057075D01*
X174777072Y-35057075D02*
X174741464Y-35092684D01*
X174741464Y-35092684D02*
X174670247Y-35128292D01*
X174670247Y-35128292D02*
X174599030Y-35128292D01*
X174599030Y-35128292D02*
X174527814Y-35092684D01*
X174527814Y-35092684D02*
X174492205Y-35057075D01*
X174492205Y-35057075D02*
X174456597Y-34985858D01*
X174456597Y-34985858D02*
X174456597Y-34807817D01*
X174456597Y-34807817D02*
X174492205Y-34700991D01*
X144855887Y-106018412D02*
X144855887Y-105270636D01*
X144855887Y-105270636D02*
X145033929Y-105270636D01*
X145033929Y-105270636D02*
X145140754Y-105306244D01*
X145140754Y-105306244D02*
X145211971Y-105377461D01*
X145211971Y-105377461D02*
X145247580Y-105448678D01*
X145247580Y-105448678D02*
X145283188Y-105591111D01*
X145283188Y-105591111D02*
X145283188Y-105697936D01*
X145283188Y-105697936D02*
X145247580Y-105840370D01*
X145247580Y-105840370D02*
X145211971Y-105911587D01*
X145211971Y-105911587D02*
X145140754Y-105982804D01*
X145140754Y-105982804D02*
X145033929Y-106018412D01*
X145033929Y-106018412D02*
X144855887Y-106018412D01*
X145603663Y-105733545D02*
X146173398Y-105733545D01*
X166748411Y-38028783D02*
X167496187Y-37779524D01*
X167496187Y-37779524D02*
X166748411Y-37530265D01*
X167460579Y-37316615D02*
X167496187Y-37209790D01*
X167496187Y-37209790D02*
X167496187Y-37031748D01*
X167496187Y-37031748D02*
X167460579Y-36960531D01*
X167460579Y-36960531D02*
X167424970Y-36924923D01*
X167424970Y-36924923D02*
X167353753Y-36889314D01*
X167353753Y-36889314D02*
X167282537Y-36889314D01*
X167282537Y-36889314D02*
X167211320Y-36924923D01*
X167211320Y-36924923D02*
X167175711Y-36960531D01*
X167175711Y-36960531D02*
X167140103Y-37031748D01*
X167140103Y-37031748D02*
X167104495Y-37174181D01*
X167104495Y-37174181D02*
X167068886Y-37245398D01*
X167068886Y-37245398D02*
X167033278Y-37281007D01*
X167033278Y-37281007D02*
X166962061Y-37316615D01*
X166962061Y-37316615D02*
X166890844Y-37316615D01*
X166890844Y-37316615D02*
X166819628Y-37281007D01*
X166819628Y-37281007D02*
X166784019Y-37245398D01*
X166784019Y-37245398D02*
X166748411Y-37174181D01*
X166748411Y-37174181D02*
X166748411Y-36996140D01*
X166748411Y-36996140D02*
X166784019Y-36889314D01*
X167140103Y-36426405D02*
X167496187Y-36426405D01*
X166748411Y-36675664D02*
X167140103Y-36426405D01*
X167140103Y-36426405D02*
X166748411Y-36177146D01*
X167460579Y-35963496D02*
X167496187Y-35856671D01*
X167496187Y-35856671D02*
X167496187Y-35678629D01*
X167496187Y-35678629D02*
X167460579Y-35607412D01*
X167460579Y-35607412D02*
X167424970Y-35571804D01*
X167424970Y-35571804D02*
X167353753Y-35536195D01*
X167353753Y-35536195D02*
X167282537Y-35536195D01*
X167282537Y-35536195D02*
X167211320Y-35571804D01*
X167211320Y-35571804D02*
X167175711Y-35607412D01*
X167175711Y-35607412D02*
X167140103Y-35678629D01*
X167140103Y-35678629D02*
X167104495Y-35821062D01*
X167104495Y-35821062D02*
X167068886Y-35892279D01*
X167068886Y-35892279D02*
X167033278Y-35927888D01*
X167033278Y-35927888D02*
X166962061Y-35963496D01*
X166962061Y-35963496D02*
X166890844Y-35963496D01*
X166890844Y-35963496D02*
X166819628Y-35927888D01*
X166819628Y-35927888D02*
X166784019Y-35892279D01*
X166784019Y-35892279D02*
X166748411Y-35821062D01*
X166748411Y-35821062D02*
X166748411Y-35643021D01*
X166748411Y-35643021D02*
X166784019Y-35536195D01*
X170108687Y-37921958D02*
X169360911Y-37921958D01*
X169360911Y-37921958D02*
X169360911Y-37743916D01*
X169360911Y-37743916D02*
X169396519Y-37637091D01*
X169396519Y-37637091D02*
X169467736Y-37565874D01*
X169467736Y-37565874D02*
X169538953Y-37530265D01*
X169538953Y-37530265D02*
X169681386Y-37494657D01*
X169681386Y-37494657D02*
X169788211Y-37494657D01*
X169788211Y-37494657D02*
X169930645Y-37530265D01*
X169930645Y-37530265D02*
X170001862Y-37565874D01*
X170001862Y-37565874D02*
X170073079Y-37637091D01*
X170073079Y-37637091D02*
X170108687Y-37743916D01*
X170108687Y-37743916D02*
X170108687Y-37921958D01*
X169895037Y-37209790D02*
X169895037Y-36853706D01*
X170108687Y-37281007D02*
X169360911Y-37031748D01*
X169360911Y-37031748D02*
X170108687Y-36782489D01*
X169360911Y-36640056D02*
X169360911Y-36212755D01*
X170108687Y-36426405D02*
X169360911Y-36426405D01*
X169895037Y-35999105D02*
X169895037Y-35643021D01*
X170108687Y-36070322D02*
X169360911Y-35821063D01*
X169360911Y-35821063D02*
X170108687Y-35571804D01*
X162719724Y-37296319D02*
X162648507Y-37260711D01*
X162648507Y-37260711D02*
X162541682Y-37260711D01*
X162541682Y-37260711D02*
X162434857Y-37296319D01*
X162434857Y-37296319D02*
X162363640Y-37367536D01*
X162363640Y-37367536D02*
X162328031Y-37438753D01*
X162328031Y-37438753D02*
X162292423Y-37581186D01*
X162292423Y-37581186D02*
X162292423Y-37688011D01*
X162292423Y-37688011D02*
X162328031Y-37830445D01*
X162328031Y-37830445D02*
X162363640Y-37901662D01*
X162363640Y-37901662D02*
X162434857Y-37972879D01*
X162434857Y-37972879D02*
X162541682Y-38008487D01*
X162541682Y-38008487D02*
X162612898Y-38008487D01*
X162612898Y-38008487D02*
X162719724Y-37972879D01*
X162719724Y-37972879D02*
X162755332Y-37937270D01*
X162755332Y-37937270D02*
X162755332Y-37688011D01*
X162755332Y-37688011D02*
X162612898Y-37688011D01*
X163075807Y-38008487D02*
X163075807Y-37260711D01*
X163075807Y-37260711D02*
X163503108Y-38008487D01*
X163503108Y-38008487D02*
X163503108Y-37260711D01*
X163859191Y-38008487D02*
X163859191Y-37260711D01*
X163859191Y-37260711D02*
X164037233Y-37260711D01*
X164037233Y-37260711D02*
X164144058Y-37296319D01*
X164144058Y-37296319D02*
X164215275Y-37367536D01*
X164215275Y-37367536D02*
X164250884Y-37438753D01*
X164250884Y-37438753D02*
X164286492Y-37581186D01*
X164286492Y-37581186D02*
X164286492Y-37688011D01*
X164286492Y-37688011D02*
X164250884Y-37830445D01*
X164250884Y-37830445D02*
X164215275Y-37901662D01*
X164215275Y-37901662D02*
X164144058Y-37972879D01*
X164144058Y-37972879D02*
X164037233Y-38008487D01*
X164037233Y-38008487D02*
X163859191Y-38008487D01*
D12*
X143455988Y-70540716D02*
X143455988Y-70350240D01*
X143455988Y-70350240D02*
X143503607Y-70255002D01*
X143503607Y-70255002D02*
X143598845Y-70159764D01*
X143598845Y-70159764D02*
X143789321Y-70112145D01*
X143789321Y-70112145D02*
X144122654Y-70112145D01*
X144122654Y-70112145D02*
X144313130Y-70159764D01*
X144313130Y-70159764D02*
X144408369Y-70255002D01*
X144408369Y-70255002D02*
X144455988Y-70350240D01*
X144455988Y-70350240D02*
X144455988Y-70540716D01*
X144455988Y-70540716D02*
X144408369Y-70635954D01*
X144408369Y-70635954D02*
X144313130Y-70731192D01*
X144313130Y-70731192D02*
X144122654Y-70778811D01*
X144122654Y-70778811D02*
X143789321Y-70778811D01*
X143789321Y-70778811D02*
X143598845Y-70731192D01*
X143598845Y-70731192D02*
X143503607Y-70635954D01*
X143503607Y-70635954D02*
X143455988Y-70540716D01*
X143789321Y-69683573D02*
X144455988Y-69683573D01*
X143884559Y-69683573D02*
X143836940Y-69635954D01*
X143836940Y-69635954D02*
X143789321Y-69540716D01*
X143789321Y-69540716D02*
X143789321Y-69397859D01*
X143789321Y-69397859D02*
X143836940Y-69302621D01*
X143836940Y-69302621D02*
X143932178Y-69255002D01*
X143932178Y-69255002D02*
X144455988Y-69255002D01*
X144455988Y-68635954D02*
X144408369Y-68731192D01*
X144408369Y-68731192D02*
X144313130Y-68778811D01*
X144313130Y-68778811D02*
X143455988Y-68778811D01*
X143789321Y-68350239D02*
X144455988Y-68112144D01*
X143789321Y-67874049D02*
X144455988Y-68112144D01*
X144455988Y-68112144D02*
X144694083Y-68207382D01*
X144694083Y-68207382D02*
X144741702Y-68255001D01*
X144741702Y-68255001D02*
X144789321Y-68350239D01*
X143789321Y-66731191D02*
X144789321Y-66731191D01*
X143836940Y-66731191D02*
X143789321Y-66635953D01*
X143789321Y-66635953D02*
X143789321Y-66445477D01*
X143789321Y-66445477D02*
X143836940Y-66350239D01*
X143836940Y-66350239D02*
X143884559Y-66302620D01*
X143884559Y-66302620D02*
X143979797Y-66255001D01*
X143979797Y-66255001D02*
X144265511Y-66255001D01*
X144265511Y-66255001D02*
X144360749Y-66302620D01*
X144360749Y-66302620D02*
X144408369Y-66350239D01*
X144408369Y-66350239D02*
X144455988Y-66445477D01*
X144455988Y-66445477D02*
X144455988Y-66635953D01*
X144455988Y-66635953D02*
X144408369Y-66731191D01*
X144455988Y-65683572D02*
X144408369Y-65778810D01*
X144408369Y-65778810D02*
X144313130Y-65826429D01*
X144313130Y-65826429D02*
X143455988Y-65826429D01*
X144455988Y-64874048D02*
X143932178Y-64874048D01*
X143932178Y-64874048D02*
X143836940Y-64921667D01*
X143836940Y-64921667D02*
X143789321Y-65016905D01*
X143789321Y-65016905D02*
X143789321Y-65207381D01*
X143789321Y-65207381D02*
X143836940Y-65302619D01*
X144408369Y-64874048D02*
X144455988Y-64969286D01*
X144455988Y-64969286D02*
X144455988Y-65207381D01*
X144455988Y-65207381D02*
X144408369Y-65302619D01*
X144408369Y-65302619D02*
X144313130Y-65350238D01*
X144313130Y-65350238D02*
X144217892Y-65350238D01*
X144217892Y-65350238D02*
X144122654Y-65302619D01*
X144122654Y-65302619D02*
X144075035Y-65207381D01*
X144075035Y-65207381D02*
X144075035Y-64969286D01*
X144075035Y-64969286D02*
X144027416Y-64874048D01*
X144408369Y-63969286D02*
X144455988Y-64064524D01*
X144455988Y-64064524D02*
X144455988Y-64255000D01*
X144455988Y-64255000D02*
X144408369Y-64350238D01*
X144408369Y-64350238D02*
X144360749Y-64397857D01*
X144360749Y-64397857D02*
X144265511Y-64445476D01*
X144265511Y-64445476D02*
X143979797Y-64445476D01*
X143979797Y-64445476D02*
X143884559Y-64397857D01*
X143884559Y-64397857D02*
X143836940Y-64350238D01*
X143836940Y-64350238D02*
X143789321Y-64255000D01*
X143789321Y-64255000D02*
X143789321Y-64064524D01*
X143789321Y-64064524D02*
X143836940Y-63969286D01*
X144408369Y-63159762D02*
X144455988Y-63255000D01*
X144455988Y-63255000D02*
X144455988Y-63445476D01*
X144455988Y-63445476D02*
X144408369Y-63540714D01*
X144408369Y-63540714D02*
X144313130Y-63588333D01*
X144313130Y-63588333D02*
X143932178Y-63588333D01*
X143932178Y-63588333D02*
X143836940Y-63540714D01*
X143836940Y-63540714D02*
X143789321Y-63445476D01*
X143789321Y-63445476D02*
X143789321Y-63255000D01*
X143789321Y-63255000D02*
X143836940Y-63159762D01*
X143836940Y-63159762D02*
X143932178Y-63112143D01*
X143932178Y-63112143D02*
X144027416Y-63112143D01*
X144027416Y-63112143D02*
X144122654Y-63588333D01*
X144455988Y-61778809D02*
X144408369Y-61874047D01*
X144408369Y-61874047D02*
X144360749Y-61921666D01*
X144360749Y-61921666D02*
X144265511Y-61969285D01*
X144265511Y-61969285D02*
X143979797Y-61969285D01*
X143979797Y-61969285D02*
X143884559Y-61921666D01*
X143884559Y-61921666D02*
X143836940Y-61874047D01*
X143836940Y-61874047D02*
X143789321Y-61778809D01*
X143789321Y-61778809D02*
X143789321Y-61635952D01*
X143789321Y-61635952D02*
X143836940Y-61540714D01*
X143836940Y-61540714D02*
X143884559Y-61493095D01*
X143884559Y-61493095D02*
X143979797Y-61445476D01*
X143979797Y-61445476D02*
X144265511Y-61445476D01*
X144265511Y-61445476D02*
X144360749Y-61493095D01*
X144360749Y-61493095D02*
X144408369Y-61540714D01*
X144408369Y-61540714D02*
X144455988Y-61635952D01*
X144455988Y-61635952D02*
X144455988Y-61778809D01*
X143789321Y-61016904D02*
X144455988Y-61016904D01*
X143884559Y-61016904D02*
X143836940Y-60969285D01*
X143836940Y-60969285D02*
X143789321Y-60874047D01*
X143789321Y-60874047D02*
X143789321Y-60731190D01*
X143789321Y-60731190D02*
X143836940Y-60635952D01*
X143836940Y-60635952D02*
X143932178Y-60588333D01*
X143932178Y-60588333D02*
X144455988Y-60588333D01*
X144408369Y-59731190D02*
X144455988Y-59826428D01*
X144455988Y-59826428D02*
X144455988Y-60016904D01*
X144455988Y-60016904D02*
X144408369Y-60112142D01*
X144408369Y-60112142D02*
X144313130Y-60159761D01*
X144313130Y-60159761D02*
X143932178Y-60159761D01*
X143932178Y-60159761D02*
X143836940Y-60112142D01*
X143836940Y-60112142D02*
X143789321Y-60016904D01*
X143789321Y-60016904D02*
X143789321Y-59826428D01*
X143789321Y-59826428D02*
X143836940Y-59731190D01*
X143836940Y-59731190D02*
X143932178Y-59683571D01*
X143932178Y-59683571D02*
X144027416Y-59683571D01*
X144027416Y-59683571D02*
X144122654Y-60159761D01*
X144455988Y-58350237D02*
X144408369Y-58445475D01*
X144408369Y-58445475D02*
X144360749Y-58493094D01*
X144360749Y-58493094D02*
X144265511Y-58540713D01*
X144265511Y-58540713D02*
X143979797Y-58540713D01*
X143979797Y-58540713D02*
X143884559Y-58493094D01*
X143884559Y-58493094D02*
X143836940Y-58445475D01*
X143836940Y-58445475D02*
X143789321Y-58350237D01*
X143789321Y-58350237D02*
X143789321Y-58207380D01*
X143789321Y-58207380D02*
X143836940Y-58112142D01*
X143836940Y-58112142D02*
X143884559Y-58064523D01*
X143884559Y-58064523D02*
X143979797Y-58016904D01*
X143979797Y-58016904D02*
X144265511Y-58016904D01*
X144265511Y-58016904D02*
X144360749Y-58064523D01*
X144360749Y-58064523D02*
X144408369Y-58112142D01*
X144408369Y-58112142D02*
X144455988Y-58207380D01*
X144455988Y-58207380D02*
X144455988Y-58350237D01*
X143789321Y-57731189D02*
X143789321Y-57350237D01*
X144455988Y-57588332D02*
X143598845Y-57588332D01*
X143598845Y-57588332D02*
X143503607Y-57540713D01*
X143503607Y-57540713D02*
X143455988Y-57445475D01*
X143455988Y-57445475D02*
X143455988Y-57350237D01*
X144408369Y-55874046D02*
X144455988Y-55969284D01*
X144455988Y-55969284D02*
X144455988Y-56159760D01*
X144455988Y-56159760D02*
X144408369Y-56254998D01*
X144408369Y-56254998D02*
X144313130Y-56302617D01*
X144313130Y-56302617D02*
X143932178Y-56302617D01*
X143932178Y-56302617D02*
X143836940Y-56254998D01*
X143836940Y-56254998D02*
X143789321Y-56159760D01*
X143789321Y-56159760D02*
X143789321Y-55969284D01*
X143789321Y-55969284D02*
X143836940Y-55874046D01*
X143836940Y-55874046D02*
X143932178Y-55826427D01*
X143932178Y-55826427D02*
X144027416Y-55826427D01*
X144027416Y-55826427D02*
X144122654Y-56302617D01*
X144455988Y-54969284D02*
X143932178Y-54969284D01*
X143932178Y-54969284D02*
X143836940Y-55016903D01*
X143836940Y-55016903D02*
X143789321Y-55112141D01*
X143789321Y-55112141D02*
X143789321Y-55302617D01*
X143789321Y-55302617D02*
X143836940Y-55397855D01*
X144408369Y-54969284D02*
X144455988Y-55064522D01*
X144455988Y-55064522D02*
X144455988Y-55302617D01*
X144455988Y-55302617D02*
X144408369Y-55397855D01*
X144408369Y-55397855D02*
X144313130Y-55445474D01*
X144313130Y-55445474D02*
X144217892Y-55445474D01*
X144217892Y-55445474D02*
X144122654Y-55397855D01*
X144122654Y-55397855D02*
X144075035Y-55302617D01*
X144075035Y-55302617D02*
X144075035Y-55064522D01*
X144075035Y-55064522D02*
X144027416Y-54969284D01*
X144408369Y-54064522D02*
X144455988Y-54159760D01*
X144455988Y-54159760D02*
X144455988Y-54350236D01*
X144455988Y-54350236D02*
X144408369Y-54445474D01*
X144408369Y-54445474D02*
X144360749Y-54493093D01*
X144360749Y-54493093D02*
X144265511Y-54540712D01*
X144265511Y-54540712D02*
X143979797Y-54540712D01*
X143979797Y-54540712D02*
X143884559Y-54493093D01*
X143884559Y-54493093D02*
X143836940Y-54445474D01*
X143836940Y-54445474D02*
X143789321Y-54350236D01*
X143789321Y-54350236D02*
X143789321Y-54159760D01*
X143789321Y-54159760D02*
X143836940Y-54064522D01*
X144455988Y-53635950D02*
X143455988Y-53635950D01*
X144455988Y-53207379D02*
X143932178Y-53207379D01*
X143932178Y-53207379D02*
X143836940Y-53254998D01*
X143836940Y-53254998D02*
X143789321Y-53350236D01*
X143789321Y-53350236D02*
X143789321Y-53493093D01*
X143789321Y-53493093D02*
X143836940Y-53588331D01*
X143836940Y-53588331D02*
X143884559Y-53635950D01*
X75734780Y-124917654D02*
X76825286Y-124917654D01*
X76825286Y-124917654D02*
X75734780Y-126553414D01*
X75734780Y-126553414D02*
X76825286Y-126553414D01*
X77448433Y-126553414D02*
X77448433Y-125462907D01*
X77448433Y-124917654D02*
X77370540Y-124995547D01*
X77370540Y-124995547D02*
X77448433Y-125073441D01*
X77448433Y-125073441D02*
X77526327Y-124995547D01*
X77526327Y-124995547D02*
X77448433Y-124917654D01*
X77448433Y-124917654D02*
X77448433Y-125073441D01*
X78227366Y-125462907D02*
X78227366Y-127098667D01*
X78227366Y-125540801D02*
X78383153Y-125462907D01*
X78383153Y-125462907D02*
X78694726Y-125462907D01*
X78694726Y-125462907D02*
X78850513Y-125540801D01*
X78850513Y-125540801D02*
X78928406Y-125618694D01*
X78928406Y-125618694D02*
X79006300Y-125774481D01*
X79006300Y-125774481D02*
X79006300Y-126241841D01*
X79006300Y-126241841D02*
X78928406Y-126397627D01*
X78928406Y-126397627D02*
X78850513Y-126475521D01*
X78850513Y-126475521D02*
X78694726Y-126553414D01*
X78694726Y-126553414D02*
X78383153Y-126553414D01*
X78383153Y-126553414D02*
X78227366Y-126475521D01*
X80719952Y-125462907D02*
X81343099Y-125462907D01*
X80953632Y-124917654D02*
X80953632Y-126319734D01*
X80953632Y-126319734D02*
X81031526Y-126475521D01*
X81031526Y-126475521D02*
X81187312Y-126553414D01*
X81187312Y-126553414D02*
X81343099Y-126553414D01*
X81888352Y-126553414D02*
X81888352Y-125462907D01*
X81888352Y-124917654D02*
X81810459Y-124995547D01*
X81810459Y-124995547D02*
X81888352Y-125073441D01*
X81888352Y-125073441D02*
X81966246Y-124995547D01*
X81966246Y-124995547D02*
X81888352Y-124917654D01*
X81888352Y-124917654D02*
X81888352Y-125073441D01*
X83290432Y-126475521D02*
X83134645Y-126553414D01*
X83134645Y-126553414D02*
X82823072Y-126553414D01*
X82823072Y-126553414D02*
X82667285Y-126475521D01*
X82667285Y-126475521D02*
X82589392Y-126319734D01*
X82589392Y-126319734D02*
X82589392Y-125696587D01*
X82589392Y-125696587D02*
X82667285Y-125540801D01*
X82667285Y-125540801D02*
X82823072Y-125462907D01*
X82823072Y-125462907D02*
X83134645Y-125462907D01*
X83134645Y-125462907D02*
X83290432Y-125540801D01*
X83290432Y-125540801D02*
X83368325Y-125696587D01*
X83368325Y-125696587D02*
X83368325Y-125852374D01*
X83368325Y-125852374D02*
X82589392Y-126008161D01*
X85315658Y-126553414D02*
X85315658Y-124917654D01*
X86016698Y-126553414D02*
X86016698Y-125696587D01*
X86016698Y-125696587D02*
X85938805Y-125540801D01*
X85938805Y-125540801D02*
X85783018Y-125462907D01*
X85783018Y-125462907D02*
X85549338Y-125462907D01*
X85549338Y-125462907D02*
X85393552Y-125540801D01*
X85393552Y-125540801D02*
X85315658Y-125618694D01*
X87029311Y-126553414D02*
X86873525Y-126475521D01*
X86873525Y-126475521D02*
X86795631Y-126397627D01*
X86795631Y-126397627D02*
X86717738Y-126241841D01*
X86717738Y-126241841D02*
X86717738Y-125774481D01*
X86717738Y-125774481D02*
X86795631Y-125618694D01*
X86795631Y-125618694D02*
X86873525Y-125540801D01*
X86873525Y-125540801D02*
X87029311Y-125462907D01*
X87029311Y-125462907D02*
X87262991Y-125462907D01*
X87262991Y-125462907D02*
X87418778Y-125540801D01*
X87418778Y-125540801D02*
X87496671Y-125618694D01*
X87496671Y-125618694D02*
X87574565Y-125774481D01*
X87574565Y-125774481D02*
X87574565Y-126241841D01*
X87574565Y-126241841D02*
X87496671Y-126397627D01*
X87496671Y-126397627D02*
X87418778Y-126475521D01*
X87418778Y-126475521D02*
X87262991Y-126553414D01*
X87262991Y-126553414D02*
X87029311Y-126553414D01*
X88509284Y-126553414D02*
X88353498Y-126475521D01*
X88353498Y-126475521D02*
X88275604Y-126319734D01*
X88275604Y-126319734D02*
X88275604Y-124917654D01*
X89755578Y-126475521D02*
X89599791Y-126553414D01*
X89599791Y-126553414D02*
X89288218Y-126553414D01*
X89288218Y-126553414D02*
X89132431Y-126475521D01*
X89132431Y-126475521D02*
X89054538Y-126319734D01*
X89054538Y-126319734D02*
X89054538Y-125696587D01*
X89054538Y-125696587D02*
X89132431Y-125540801D01*
X89132431Y-125540801D02*
X89288218Y-125462907D01*
X89288218Y-125462907D02*
X89599791Y-125462907D01*
X89599791Y-125462907D02*
X89755578Y-125540801D01*
X89755578Y-125540801D02*
X89833471Y-125696587D01*
X89833471Y-125696587D02*
X89833471Y-125852374D01*
X89833471Y-125852374D02*
X89054538Y-126008161D01*
D11*
X145203843Y-102792436D02*
X144847759Y-102792436D01*
X144847759Y-102792436D02*
X144812151Y-103148520D01*
X144812151Y-103148520D02*
X144847759Y-103112911D01*
X144847759Y-103112911D02*
X144918976Y-103077303D01*
X144918976Y-103077303D02*
X145097018Y-103077303D01*
X145097018Y-103077303D02*
X145168235Y-103112911D01*
X145168235Y-103112911D02*
X145203843Y-103148520D01*
X145203843Y-103148520D02*
X145239452Y-103219736D01*
X145239452Y-103219736D02*
X145239452Y-103397778D01*
X145239452Y-103397778D02*
X145203843Y-103468995D01*
X145203843Y-103468995D02*
X145168235Y-103504604D01*
X145168235Y-103504604D02*
X145097018Y-103540212D01*
X145097018Y-103540212D02*
X144918976Y-103540212D01*
X144918976Y-103540212D02*
X144847759Y-103504604D01*
X144847759Y-103504604D02*
X144812151Y-103468995D01*
X145453102Y-102792436D02*
X145702361Y-103540212D01*
X145702361Y-103540212D02*
X145951620Y-102792436D01*
X144791250Y-108683700D02*
X144791250Y-107935924D01*
X144791250Y-107935924D02*
X144969292Y-107935924D01*
X144969292Y-107935924D02*
X145076117Y-107971532D01*
X145076117Y-107971532D02*
X145147334Y-108042749D01*
X145147334Y-108042749D02*
X145182943Y-108113966D01*
X145182943Y-108113966D02*
X145218551Y-108256399D01*
X145218551Y-108256399D02*
X145218551Y-108363224D01*
X145218551Y-108363224D02*
X145182943Y-108505658D01*
X145182943Y-108505658D02*
X145147334Y-108576875D01*
X145147334Y-108576875D02*
X145076117Y-108648092D01*
X145076117Y-108648092D02*
X144969292Y-108683700D01*
X144969292Y-108683700D02*
X144791250Y-108683700D01*
X145539026Y-108398833D02*
X146108761Y-108398833D01*
X145823893Y-108683700D02*
X145823893Y-108113966D01*
D13*
%TO.C,J4*%
X139078949Y-112228233D02*
X139904449Y-112228233D01*
X139904449Y-112228233D02*
X140069549Y-112283266D01*
X140069549Y-112283266D02*
X140179616Y-112393333D01*
X140179616Y-112393333D02*
X140234649Y-112558433D01*
X140234649Y-112558433D02*
X140234649Y-112668500D01*
X139464182Y-111182600D02*
X140234649Y-111182600D01*
X139023916Y-111457767D02*
X139849416Y-111732933D01*
X139849416Y-111732933D02*
X139849416Y-111017500D01*
D14*
X142478183Y-101657600D02*
X143240183Y-101657600D01*
X142042755Y-101929742D02*
X142859183Y-102201885D01*
X142859183Y-102201885D02*
X142859183Y-101494314D01*
X143240183Y-113105742D02*
X143240183Y-113758885D01*
X143240183Y-113432314D02*
X142097183Y-113432314D01*
X142097183Y-113432314D02*
X142260469Y-113541171D01*
X142260469Y-113541171D02*
X142369326Y-113650028D01*
X142369326Y-113650028D02*
X142423755Y-113758885D01*
D13*
%TO.C,D1*%
X162599899Y-70621652D02*
X162599899Y-69465952D01*
X162599899Y-69465952D02*
X162875066Y-69465952D01*
X162875066Y-69465952D02*
X163040166Y-69520985D01*
X163040166Y-69520985D02*
X163150233Y-69631052D01*
X163150233Y-69631052D02*
X163205266Y-69741119D01*
X163205266Y-69741119D02*
X163260299Y-69961252D01*
X163260299Y-69961252D02*
X163260299Y-70126352D01*
X163260299Y-70126352D02*
X163205266Y-70346485D01*
X163205266Y-70346485D02*
X163150233Y-70456552D01*
X163150233Y-70456552D02*
X163040166Y-70566619D01*
X163040166Y-70566619D02*
X162875066Y-70621652D01*
X162875066Y-70621652D02*
X162599899Y-70621652D01*
X164360966Y-70621652D02*
X163700566Y-70621652D01*
X164030766Y-70621652D02*
X164030766Y-69465952D01*
X164030766Y-69465952D02*
X163920699Y-69631052D01*
X163920699Y-69631052D02*
X163810633Y-69741119D01*
X163810633Y-69741119D02*
X163700566Y-69796152D01*
D15*
%TO.C,@HOLE11*%
%TO.C,@HOLE8*%
%TO.C,@HOLE0*%
D16*
%TO.C,D2*%
X160824655Y-67357924D02*
X160824655Y-66792250D01*
X160824655Y-66792250D02*
X160959339Y-66792250D01*
X160959339Y-66792250D02*
X161040150Y-66819187D01*
X161040150Y-66819187D02*
X161094023Y-66873061D01*
X161094023Y-66873061D02*
X161120960Y-66926935D01*
X161120960Y-66926935D02*
X161147897Y-67034682D01*
X161147897Y-67034682D02*
X161147897Y-67115493D01*
X161147897Y-67115493D02*
X161120960Y-67223240D01*
X161120960Y-67223240D02*
X161094023Y-67277114D01*
X161094023Y-67277114D02*
X161040150Y-67330988D01*
X161040150Y-67330988D02*
X160959339Y-67357924D01*
X160959339Y-67357924D02*
X160824655Y-67357924D01*
X161363392Y-66846124D02*
X161390329Y-66819187D01*
X161390329Y-66819187D02*
X161444203Y-66792250D01*
X161444203Y-66792250D02*
X161578887Y-66792250D01*
X161578887Y-66792250D02*
X161632761Y-66819187D01*
X161632761Y-66819187D02*
X161659697Y-66846124D01*
X161659697Y-66846124D02*
X161686634Y-66899998D01*
X161686634Y-66899998D02*
X161686634Y-66953872D01*
X161686634Y-66953872D02*
X161659697Y-67034682D01*
X161659697Y-67034682D02*
X161336455Y-67357924D01*
X161336455Y-67357924D02*
X161686634Y-67357924D01*
D15*
%TO.C,@HOLE9*%
%TO.C,R2*%
X155409712Y-52627710D02*
X155076379Y-52151519D01*
X154838284Y-52627710D02*
X154838284Y-51627710D01*
X154838284Y-51627710D02*
X155219236Y-51627710D01*
X155219236Y-51627710D02*
X155314474Y-51675329D01*
X155314474Y-51675329D02*
X155362093Y-51722948D01*
X155362093Y-51722948D02*
X155409712Y-51818186D01*
X155409712Y-51818186D02*
X155409712Y-51961043D01*
X155409712Y-51961043D02*
X155362093Y-52056281D01*
X155362093Y-52056281D02*
X155314474Y-52103900D01*
X155314474Y-52103900D02*
X155219236Y-52151519D01*
X155219236Y-52151519D02*
X154838284Y-52151519D01*
X155790665Y-51722948D02*
X155838284Y-51675329D01*
X155838284Y-51675329D02*
X155933522Y-51627710D01*
X155933522Y-51627710D02*
X156171617Y-51627710D01*
X156171617Y-51627710D02*
X156266855Y-51675329D01*
X156266855Y-51675329D02*
X156314474Y-51722948D01*
X156314474Y-51722948D02*
X156362093Y-51818186D01*
X156362093Y-51818186D02*
X156362093Y-51913424D01*
X156362093Y-51913424D02*
X156314474Y-52056281D01*
X156314474Y-52056281D02*
X155743046Y-52627710D01*
X155743046Y-52627710D02*
X156362093Y-52627710D01*
%TO.C,@HOLE14*%
%TO.C,J2*%
X138677553Y-31099425D02*
X138677553Y-32006568D01*
X138677553Y-32006568D02*
X138617076Y-32187996D01*
X138617076Y-32187996D02*
X138496124Y-32308949D01*
X138496124Y-32308949D02*
X138314695Y-32369425D01*
X138314695Y-32369425D02*
X138193743Y-32369425D01*
X139221838Y-31220377D02*
X139282314Y-31159901D01*
X139282314Y-31159901D02*
X139403267Y-31099425D01*
X139403267Y-31099425D02*
X139705648Y-31099425D01*
X139705648Y-31099425D02*
X139826600Y-31159901D01*
X139826600Y-31159901D02*
X139887076Y-31220377D01*
X139887076Y-31220377D02*
X139947553Y-31341329D01*
X139947553Y-31341329D02*
X139947553Y-31462282D01*
X139947553Y-31462282D02*
X139887076Y-31643710D01*
X139887076Y-31643710D02*
X139161362Y-32369425D01*
X139161362Y-32369425D02*
X139947553Y-32369425D01*
%TO.C,@HOLE13*%
%TO.C,@HOLE1*%
%TO.C,@HOLE2*%
%TO.C,R3*%
X155424809Y-57785010D02*
X155091476Y-57308819D01*
X154853381Y-57785010D02*
X154853381Y-56785010D01*
X154853381Y-56785010D02*
X155234333Y-56785010D01*
X155234333Y-56785010D02*
X155329571Y-56832629D01*
X155329571Y-56832629D02*
X155377190Y-56880248D01*
X155377190Y-56880248D02*
X155424809Y-56975486D01*
X155424809Y-56975486D02*
X155424809Y-57118343D01*
X155424809Y-57118343D02*
X155377190Y-57213581D01*
X155377190Y-57213581D02*
X155329571Y-57261200D01*
X155329571Y-57261200D02*
X155234333Y-57308819D01*
X155234333Y-57308819D02*
X154853381Y-57308819D01*
X155758143Y-56785010D02*
X156377190Y-56785010D01*
X156377190Y-56785010D02*
X156043857Y-57165962D01*
X156043857Y-57165962D02*
X156186714Y-57165962D01*
X156186714Y-57165962D02*
X156281952Y-57213581D01*
X156281952Y-57213581D02*
X156329571Y-57261200D01*
X156329571Y-57261200D02*
X156377190Y-57356438D01*
X156377190Y-57356438D02*
X156377190Y-57594533D01*
X156377190Y-57594533D02*
X156329571Y-57689771D01*
X156329571Y-57689771D02*
X156281952Y-57737391D01*
X156281952Y-57737391D02*
X156186714Y-57785010D01*
X156186714Y-57785010D02*
X155901000Y-57785010D01*
X155901000Y-57785010D02*
X155805762Y-57737391D01*
X155805762Y-57737391D02*
X155758143Y-57689771D01*
%TO.C,R4*%
X155484289Y-58696411D02*
X155150956Y-58220220D01*
X154912861Y-58696411D02*
X154912861Y-57696411D01*
X154912861Y-57696411D02*
X155293813Y-57696411D01*
X155293813Y-57696411D02*
X155389051Y-57744030D01*
X155389051Y-57744030D02*
X155436670Y-57791649D01*
X155436670Y-57791649D02*
X155484289Y-57886887D01*
X155484289Y-57886887D02*
X155484289Y-58029744D01*
X155484289Y-58029744D02*
X155436670Y-58124982D01*
X155436670Y-58124982D02*
X155389051Y-58172601D01*
X155389051Y-58172601D02*
X155293813Y-58220220D01*
X155293813Y-58220220D02*
X154912861Y-58220220D01*
X156341432Y-58029744D02*
X156341432Y-58696411D01*
X156103337Y-57648792D02*
X155865242Y-58363077D01*
X155865242Y-58363077D02*
X156484289Y-58363077D01*
%TO.C,@HOLE10*%
%TO.C,@HOLE15*%
%TO.C,@HOLE6*%
%TO.C,@HOLE16*%
%TO.C,@HOLE3*%
%TO.C,@HOLE12*%
%TO.C,@HOLE4*%
%TO.C,J5*%
X124126666Y-113762619D02*
X124126666Y-114476904D01*
X124126666Y-114476904D02*
X124079047Y-114619761D01*
X124079047Y-114619761D02*
X123983809Y-114715000D01*
X123983809Y-114715000D02*
X123840952Y-114762619D01*
X123840952Y-114762619D02*
X123745714Y-114762619D01*
X125079047Y-113762619D02*
X124602857Y-113762619D01*
X124602857Y-113762619D02*
X124555238Y-114238809D01*
X124555238Y-114238809D02*
X124602857Y-114191190D01*
X124602857Y-114191190D02*
X124698095Y-114143571D01*
X124698095Y-114143571D02*
X124936190Y-114143571D01*
X124936190Y-114143571D02*
X125031428Y-114191190D01*
X125031428Y-114191190D02*
X125079047Y-114238809D01*
X125079047Y-114238809D02*
X125126666Y-114334047D01*
X125126666Y-114334047D02*
X125126666Y-114572142D01*
X125126666Y-114572142D02*
X125079047Y-114667380D01*
X125079047Y-114667380D02*
X125031428Y-114715000D01*
X125031428Y-114715000D02*
X124936190Y-114762619D01*
X124936190Y-114762619D02*
X124698095Y-114762619D01*
X124698095Y-114762619D02*
X124602857Y-114715000D01*
X124602857Y-114715000D02*
X124555238Y-114667380D01*
D13*
%TO.C,J3*%
X178405366Y-32132549D02*
X178405366Y-32958049D01*
X178405366Y-32958049D02*
X178350333Y-33123149D01*
X178350333Y-33123149D02*
X178240266Y-33233216D01*
X178240266Y-33233216D02*
X178075166Y-33288249D01*
X178075166Y-33288249D02*
X177965100Y-33288249D01*
X178845633Y-32132549D02*
X179561066Y-32132549D01*
X179561066Y-32132549D02*
X179175833Y-32572816D01*
X179175833Y-32572816D02*
X179340933Y-32572816D01*
X179340933Y-32572816D02*
X179450999Y-32627849D01*
X179450999Y-32627849D02*
X179506033Y-32682882D01*
X179506033Y-32682882D02*
X179561066Y-32792949D01*
X179561066Y-32792949D02*
X179561066Y-33068116D01*
X179561066Y-33068116D02*
X179506033Y-33178182D01*
X179506033Y-33178182D02*
X179450999Y-33233216D01*
X179450999Y-33233216D02*
X179340933Y-33288249D01*
X179340933Y-33288249D02*
X179010733Y-33288249D01*
X179010733Y-33288249D02*
X178900666Y-33233216D01*
X178900666Y-33233216D02*
X178845633Y-33178182D01*
D14*
X161970972Y-35546362D02*
X161317829Y-35546362D01*
X161644400Y-35546362D02*
X161644400Y-34403362D01*
X161644400Y-34403362D02*
X161535543Y-34566648D01*
X161535543Y-34566648D02*
X161426686Y-34675505D01*
X161426686Y-34675505D02*
X161317829Y-34729934D01*
X174978100Y-29819718D02*
X174760385Y-29819718D01*
X174760385Y-29819718D02*
X174651528Y-29874147D01*
X174651528Y-29874147D02*
X174597100Y-29928575D01*
X174597100Y-29928575D02*
X174488242Y-30091861D01*
X174488242Y-30091861D02*
X174433814Y-30309575D01*
X174433814Y-30309575D02*
X174433814Y-30745004D01*
X174433814Y-30745004D02*
X174488242Y-30853861D01*
X174488242Y-30853861D02*
X174542671Y-30908290D01*
X174542671Y-30908290D02*
X174651528Y-30962718D01*
X174651528Y-30962718D02*
X174869242Y-30962718D01*
X174869242Y-30962718D02*
X174978100Y-30908290D01*
X174978100Y-30908290D02*
X175032528Y-30853861D01*
X175032528Y-30853861D02*
X175086957Y-30745004D01*
X175086957Y-30745004D02*
X175086957Y-30472861D01*
X175086957Y-30472861D02*
X175032528Y-30364004D01*
X175032528Y-30364004D02*
X174978100Y-30309575D01*
X174978100Y-30309575D02*
X174869242Y-30255147D01*
X174869242Y-30255147D02*
X174651528Y-30255147D01*
X174651528Y-30255147D02*
X174542671Y-30309575D01*
X174542671Y-30309575D02*
X174488242Y-30364004D01*
X174488242Y-30364004D02*
X174433814Y-30472861D01*
D15*
%TO.C,@HOLE5*%
%TO.C,R1*%
X155470296Y-51687710D02*
X155136963Y-51211519D01*
X154898868Y-51687710D02*
X154898868Y-50687710D01*
X154898868Y-50687710D02*
X155279820Y-50687710D01*
X155279820Y-50687710D02*
X155375058Y-50735329D01*
X155375058Y-50735329D02*
X155422677Y-50782948D01*
X155422677Y-50782948D02*
X155470296Y-50878186D01*
X155470296Y-50878186D02*
X155470296Y-51021043D01*
X155470296Y-51021043D02*
X155422677Y-51116281D01*
X155422677Y-51116281D02*
X155375058Y-51163900D01*
X155375058Y-51163900D02*
X155279820Y-51211519D01*
X155279820Y-51211519D02*
X154898868Y-51211519D01*
X156422677Y-51687710D02*
X155851249Y-51687710D01*
X156136963Y-51687710D02*
X156136963Y-50687710D01*
X156136963Y-50687710D02*
X156041725Y-50830567D01*
X156041725Y-50830567D02*
X155946487Y-50925805D01*
X155946487Y-50925805D02*
X155851249Y-50973424D01*
%TO.C,@HOLE7*%
D17*
%TO.C,J4*%
X143380065Y-107753600D02*
X144015065Y-108388600D01*
X141475065Y-107118600D02*
X141475065Y-105848600D01*
X141475065Y-112198600D02*
X142110065Y-112833600D01*
X144015065Y-107118600D02*
X143380065Y-107753600D01*
X142110065Y-110293600D02*
X141475065Y-109658600D01*
X143380065Y-102673600D02*
X144015065Y-103308600D01*
X141475065Y-103308600D02*
X142110065Y-102673600D01*
X143380065Y-105213600D02*
X144015065Y-104578600D01*
X143380065Y-105213600D02*
X144015065Y-105848600D01*
X141475065Y-109658600D02*
X141475065Y-108388600D01*
X141475065Y-104578600D02*
X142110065Y-105213600D01*
X141475065Y-105848600D02*
X142110065Y-105213600D01*
X144015065Y-103308600D02*
X144015065Y-104578600D01*
X142110065Y-112833600D02*
X143380065Y-112833600D01*
X143380065Y-112833600D02*
X144015065Y-112198600D01*
X144015065Y-108388600D02*
X144015065Y-109658600D01*
X141475065Y-104578600D02*
X141475065Y-103308600D01*
X141475065Y-110928600D02*
X142110065Y-110293600D01*
X142110065Y-107753600D02*
X141475065Y-107118600D01*
X142110065Y-102673600D02*
X143380065Y-102673600D01*
X141475065Y-112198600D02*
X141475065Y-110928600D01*
X141475065Y-108388600D02*
X142110065Y-107753600D01*
X143380065Y-110293600D02*
X144015065Y-110928600D01*
X144015065Y-110928600D02*
X144015065Y-112198600D01*
X144015065Y-105848600D02*
X144015065Y-107118600D01*
X144015065Y-109658600D02*
X143380065Y-110293600D01*
D14*
%TO.C,U$15*%
X285000100Y-73773600D02*
X285000100Y-74154600D01*
D17*
%TO.C,JP11*%
X265136100Y-78483600D02*
X265771100Y-79118600D01*
X263231100Y-80388600D02*
X263866100Y-81023600D01*
X263231100Y-79118600D02*
X263231100Y-80388600D01*
X265136100Y-81023600D02*
X263866100Y-81023600D01*
X265771100Y-80388600D02*
X265136100Y-81023600D01*
X265771100Y-79118600D02*
X265771100Y-80388600D01*
X263866100Y-78483600D02*
X265136100Y-78483600D01*
X263866100Y-78483600D02*
X263231100Y-79118600D01*
D14*
%TO.C,U$11*%
X285000100Y-46163600D02*
X285000100Y-46544600D01*
D17*
%TO.C,JP10*%
X239136100Y-89023600D02*
X237866100Y-89023600D01*
X237231100Y-88388600D02*
X237866100Y-89023600D01*
X237866100Y-86483600D02*
X239136100Y-86483600D01*
X239771100Y-88388600D02*
X239136100Y-89023600D01*
X239136100Y-86483600D02*
X239771100Y-87118600D01*
X239771100Y-87118600D02*
X239771100Y-88388600D01*
X237866100Y-86483600D02*
X237231100Y-87118600D01*
X237231100Y-87118600D02*
X237231100Y-88388600D01*
D14*
%TO.C,U$17*%
X223112100Y-119133600D02*
X223112100Y-119514600D01*
D17*
%TO.C,JP5*%
X82771100Y-89388600D02*
X82136100Y-90023600D01*
X80866100Y-87483600D02*
X82136100Y-87483600D01*
X82136100Y-87483600D02*
X82771100Y-88118600D01*
X80866100Y-87483600D02*
X80231100Y-88118600D01*
X80231100Y-89388600D02*
X80866100Y-90023600D01*
X82771100Y-88118600D02*
X82771100Y-89388600D01*
X82136100Y-90023600D02*
X80866100Y-90023600D01*
X80231100Y-88118600D02*
X80231100Y-89388600D01*
D14*
%TO.C,U$6*%
X78292100Y-150318600D02*
X78292100Y-150699600D01*
D17*
%TO.C,D1*%
X158358100Y-66337800D02*
X158358100Y-65169400D01*
X159501100Y-65753600D02*
X159501100Y-65169400D01*
X159501100Y-65753600D02*
X157215100Y-65753600D01*
X164581100Y-68547600D02*
X154421100Y-68547600D01*
X160771100Y-65753600D02*
X159501100Y-65753600D01*
X154421100Y-68547600D02*
X154421100Y-62959600D01*
X159501100Y-66337800D02*
X159501100Y-65753600D01*
X164581100Y-62959600D02*
X164581100Y-68547600D01*
X159501100Y-65753600D02*
X158358100Y-66337800D01*
X158358100Y-65169400D02*
X159501100Y-65753600D01*
X154421100Y-62959600D02*
X164581100Y-62959600D01*
G36*
X163692100Y-68547600D02*
G01*
X162930100Y-68547600D01*
X162930100Y-62959600D01*
X163692100Y-62959600D01*
X163692100Y-68547600D01*
G37*
G36*
X154421100Y-66388600D02*
G01*
X153532100Y-66388600D01*
X153532100Y-65118600D01*
X154421100Y-65118600D01*
X154421100Y-66388600D01*
G37*
G36*
X165470100Y-66388600D02*
G01*
X164581100Y-66388600D01*
X164581100Y-65118600D01*
X165470100Y-65118600D01*
X165470100Y-66388600D01*
G37*
D14*
%TO.C,U$20*%
X223112100Y-150318600D02*
X223112100Y-150699600D01*
%TO.C,D2*%
X157865214Y-64994142D02*
X160715214Y-64994142D01*
X160715214Y-66694142D02*
X157865214Y-66694142D01*
D10*
X162390214Y-65844142D02*
G75*
G03*
X162390214Y-65844142I-100000J0D01*
G01*
D17*
%TO.C,JP18*%
X210866100Y-132483600D02*
X210231100Y-133118600D01*
X212771100Y-134388600D02*
X212136100Y-135023600D01*
X210231100Y-133118600D02*
X210231100Y-134388600D01*
X212136100Y-132483600D02*
X212771100Y-133118600D01*
X210866100Y-132483600D02*
X212136100Y-132483600D01*
X212771100Y-133118600D02*
X212771100Y-134388600D01*
X212136100Y-135023600D02*
X210866100Y-135023600D01*
X210231100Y-134388600D02*
X210866100Y-135023600D01*
D18*
%TO.C,R2*%
X155339121Y-53072591D02*
X155813637Y-53072591D01*
X155339121Y-54117591D02*
X155813637Y-54117591D01*
D14*
%TO.C,U$10*%
X256645100Y-43188600D02*
X256645100Y-43569600D01*
D17*
%TO.C,JP6*%
X85231100Y-159388600D02*
X85866100Y-160023600D01*
X85866100Y-157483600D02*
X85231100Y-158118600D01*
X85231100Y-158118600D02*
X85231100Y-159388600D01*
X87136100Y-160023600D02*
X85866100Y-160023600D01*
X87771100Y-159388600D02*
X87136100Y-160023600D01*
X87771100Y-158118600D02*
X87771100Y-159388600D01*
X85866100Y-157483600D02*
X87136100Y-157483600D01*
X87136100Y-157483600D02*
X87771100Y-158118600D01*
%TO.C,JP14*%
X310231100Y-73388600D02*
X310866100Y-74023600D01*
X312771100Y-73388600D02*
X312136100Y-74023600D01*
X312771100Y-72118600D02*
X312771100Y-73388600D01*
X310231100Y-72118600D02*
X310231100Y-73388600D01*
X310866100Y-71483600D02*
X310231100Y-72118600D01*
X312136100Y-71483600D02*
X312771100Y-72118600D01*
X310866100Y-71483600D02*
X312136100Y-71483600D01*
X312136100Y-74023600D02*
X310866100Y-74023600D01*
%TO.C,JP4*%
X53866100Y-77483600D02*
X55136100Y-77483600D01*
X55136100Y-77483600D02*
X55771100Y-78118600D01*
X55771100Y-78118600D02*
X55771100Y-79388600D01*
X53231100Y-79388600D02*
X53866100Y-80023600D01*
X55771100Y-79388600D02*
X55136100Y-80023600D01*
X53231100Y-78118600D02*
X53231100Y-79388600D01*
X53866100Y-77483600D02*
X53231100Y-78118600D01*
X55136100Y-80023600D02*
X53866100Y-80023600D01*
D14*
%TO.C,U$13*%
X230127100Y-82793600D02*
X230127100Y-83174600D01*
D17*
%TO.C,JP9*%
X240866100Y-59483600D02*
X240231100Y-60118600D01*
X242771100Y-60118600D02*
X242771100Y-61388600D01*
X242136100Y-59483600D02*
X242771100Y-60118600D01*
X242136100Y-62023600D02*
X240866100Y-62023600D01*
X242771100Y-61388600D02*
X242136100Y-62023600D01*
X240231100Y-61388600D02*
X240866100Y-62023600D01*
X240231100Y-60118600D02*
X240231100Y-61388600D01*
X240866100Y-59483600D02*
X242136100Y-59483600D01*
D18*
%TO.C,J2*%
X151568981Y-26753600D02*
X143568981Y-26753600D01*
D14*
%TO.C,U$1*%
X-8874900Y-90433600D02*
X-8874900Y-90814600D01*
%TO.C,U$21*%
X200425100Y-166088600D02*
X200425100Y-166469600D01*
D17*
%TO.C,JP16*%
X290866100Y-82483600D02*
X290231100Y-83118600D01*
X292136100Y-82483600D02*
X292771100Y-83118600D01*
X290866100Y-82483600D02*
X292136100Y-82483600D01*
X292136100Y-85023600D02*
X290866100Y-85023600D01*
X290231100Y-83118600D02*
X290231100Y-84388600D01*
X290231100Y-84388600D02*
X290866100Y-85023600D01*
X292771100Y-83118600D02*
X292771100Y-84388600D01*
X292771100Y-84388600D02*
X292136100Y-85023600D01*
D14*
%TO.C,U$2*%
X16405100Y-74130600D02*
X16405100Y-74511600D01*
%TO.C,U$4*%
X44761100Y-71404600D02*
X44761100Y-71785600D01*
D17*
%TO.C,JP20*%
X236771100Y-151388600D02*
X236136100Y-152023600D01*
X236136100Y-152023600D02*
X234866100Y-152023600D01*
X234231100Y-150118600D02*
X234231100Y-151388600D01*
X234866100Y-149483600D02*
X234231100Y-150118600D01*
X236136100Y-149483600D02*
X236771100Y-150118600D01*
X236771100Y-150118600D02*
X236771100Y-151388600D01*
X234866100Y-149483600D02*
X236136100Y-149483600D01*
X234231100Y-151388600D02*
X234866100Y-152023600D01*
D14*
%TO.C,U$7*%
X100980100Y-166087600D02*
X100980100Y-166468600D01*
D17*
%TO.C,JP13*%
X295136100Y-53483600D02*
X295771100Y-54118600D01*
X295136100Y-56023600D02*
X293866100Y-56023600D01*
X293231100Y-54118600D02*
X293231100Y-55388600D01*
X293231100Y-55388600D02*
X293866100Y-56023600D01*
X293866100Y-53483600D02*
X295136100Y-53483600D01*
X295771100Y-55388600D02*
X295136100Y-56023600D01*
X293866100Y-53483600D02*
X293231100Y-54118600D01*
X295771100Y-54118600D02*
X295771100Y-55388600D01*
D14*
%TO.C,U$19*%
X245769100Y-134903600D02*
X245769100Y-135284600D01*
D17*
%TO.C,JP17*%
X235231100Y-126388600D02*
X235866100Y-127023600D01*
X237771100Y-126388600D02*
X237136100Y-127023600D01*
X237136100Y-127023600D02*
X235866100Y-127023600D01*
X237136100Y-124483600D02*
X237771100Y-125118600D01*
X235231100Y-125118600D02*
X235231100Y-126388600D01*
X237771100Y-125118600D02*
X237771100Y-126388600D01*
X235866100Y-124483600D02*
X237136100Y-124483600D01*
X235866100Y-124483600D02*
X235231100Y-125118600D01*
%TO.C,JP12*%
X269136100Y-38483600D02*
X269771100Y-39118600D01*
X269771100Y-39118600D02*
X269771100Y-40388600D01*
X269136100Y-41023600D02*
X267866100Y-41023600D01*
X267866100Y-38483600D02*
X267231100Y-39118600D01*
X267866100Y-38483600D02*
X269136100Y-38483600D01*
X269771100Y-40388600D02*
X269136100Y-41023600D01*
X267231100Y-39118600D02*
X267231100Y-40388600D01*
X267231100Y-40388600D02*
X267866100Y-41023600D01*
D18*
%TO.C,R3*%
X152321476Y-60732391D02*
X152321476Y-61062391D01*
X158861476Y-61062391D02*
X158861476Y-60732391D01*
X152321476Y-58322391D02*
X158861476Y-58322391D01*
X158861476Y-58322391D02*
X158861476Y-58652391D01*
X152321476Y-61062391D02*
X158861476Y-61062391D01*
X152321476Y-58652391D02*
X152321476Y-58322391D01*
D14*
%TO.C,J1*%
X38001100Y-177253600D02*
X17001100Y-177253600D01*
X31501100Y-124753600D02*
X31401100Y-126253600D01*
X23501100Y-126253600D02*
X23501100Y-130753600D01*
X23501100Y-130753600D02*
X31501100Y-130753600D01*
X23501100Y-126253600D02*
X31401100Y-126253600D01*
X23501100Y-124753600D02*
X31501100Y-124753600D01*
X31501100Y-130753600D02*
X31401100Y-126253600D01*
X17001100Y-177253600D02*
X17001100Y-126253600D01*
X31401100Y-126253600D02*
X38001100Y-126253600D01*
X17001100Y-126253600D02*
X23501100Y-126253600D01*
X38001100Y-126253600D02*
X38001100Y-177253600D01*
X23501100Y-126253600D02*
X23501100Y-124753600D01*
D17*
%TO.C,JP15*%
X314136100Y-99483600D02*
X314771100Y-100118600D01*
X314771100Y-101388600D02*
X314136100Y-102023600D01*
X312866100Y-99483600D02*
X314136100Y-99483600D01*
X312231100Y-101388600D02*
X312866100Y-102023600D01*
X312231100Y-100118600D02*
X312231100Y-101388600D01*
X314136100Y-102023600D02*
X312866100Y-102023600D01*
X312866100Y-99483600D02*
X312231100Y-100118600D01*
X314771100Y-100118600D02*
X314771100Y-101388600D01*
D18*
%TO.C,R4*%
X155413698Y-60186292D02*
X155888214Y-60186292D01*
X155413698Y-59141292D02*
X155888214Y-59141292D01*
D14*
%TO.C,U$5*%
X71333100Y-83167600D02*
X71333100Y-83548600D01*
%TO.C,U$18*%
X200425100Y-134903600D02*
X200425100Y-135284600D01*
%TO.C,U$16*%
X311223100Y-89809600D02*
X311223100Y-90190600D01*
D17*
%TO.C,JP7*%
X113136100Y-160483600D02*
X113771100Y-161118600D01*
X111866100Y-160483600D02*
X113136100Y-160483600D01*
X111231100Y-161118600D02*
X111231100Y-162388600D01*
X113771100Y-161118600D02*
X113771100Y-162388600D01*
X111231100Y-162388600D02*
X111866100Y-163023600D01*
X113771100Y-162388600D02*
X113136100Y-163023600D01*
X111866100Y-160483600D02*
X111231100Y-161118600D01*
X113136100Y-163023600D02*
X111866100Y-163023600D01*
D19*
%TO.C,J5*%
X116299393Y-103971075D02*
X116299393Y-111971075D01*
D17*
%TO.C,JP2*%
X3771100Y-96118600D02*
X3771100Y-97388600D01*
X1231100Y-97388600D02*
X1866100Y-98023600D01*
X1866100Y-95483600D02*
X3136100Y-95483600D01*
X1231100Y-96118600D02*
X1231100Y-97388600D01*
X3136100Y-98023600D02*
X1866100Y-98023600D01*
X3771100Y-97388600D02*
X3136100Y-98023600D01*
X3136100Y-95483600D02*
X3771100Y-96118600D01*
X1866100Y-95483600D02*
X1231100Y-96118600D01*
%TO.C,JP8*%
X157771100Y-94118600D02*
X157771100Y-95388600D01*
X157136100Y-96023600D02*
X155866100Y-96023600D01*
X155866100Y-93483600D02*
X155231100Y-94118600D01*
X155231100Y-94118600D02*
X155231100Y-95388600D01*
X155866100Y-93483600D02*
X157136100Y-93483600D01*
X157136100Y-93483600D02*
X157771100Y-94118600D01*
X155231100Y-95388600D02*
X155866100Y-96023600D01*
X157771100Y-95388600D02*
X157136100Y-96023600D01*
D14*
%TO.C,U$12*%
X311223100Y-62199600D02*
X311223100Y-62580600D01*
%TO.C,U$9*%
X230127100Y-55184600D02*
X230127100Y-55565600D01*
D17*
%TO.C,JP21*%
X182866100Y-170483600D02*
X182231100Y-171118600D01*
X184136100Y-173023600D02*
X182866100Y-173023600D01*
X182231100Y-172388600D02*
X182866100Y-173023600D01*
X184771100Y-171118600D02*
X184771100Y-172388600D01*
X182231100Y-171118600D02*
X182231100Y-172388600D01*
X182866100Y-170483600D02*
X184136100Y-170483600D01*
X184136100Y-170483600D02*
X184771100Y-171118600D01*
X184771100Y-172388600D02*
X184136100Y-173023600D01*
D14*
%TO.C,U$14*%
X256645100Y-70798600D02*
X256645100Y-71179600D01*
D17*
%TO.C,JP19*%
X258136100Y-143023600D02*
X256866100Y-143023600D01*
X256866100Y-140483600D02*
X256231100Y-141118600D01*
X258771100Y-142388600D02*
X258136100Y-143023600D01*
X258136100Y-140483600D02*
X258771100Y-141118600D01*
X256231100Y-142388600D02*
X256866100Y-143023600D01*
X256231100Y-141118600D02*
X256231100Y-142388600D01*
X258771100Y-141118600D02*
X258771100Y-142388600D01*
X256866100Y-140483600D02*
X258136100Y-140483600D01*
%TO.C,J3*%
X160881100Y-33388600D02*
X161516100Y-34023600D01*
X175486100Y-34023600D02*
X174216100Y-34023600D01*
X166596100Y-31483600D02*
X167866100Y-31483600D01*
X175486100Y-31483600D02*
X176121100Y-32118600D01*
X170406100Y-31483600D02*
X171041100Y-32118600D01*
X171676100Y-34023600D02*
X171041100Y-33388600D01*
X172946100Y-31483600D02*
X173581100Y-32118600D01*
X165326100Y-34023600D02*
X164056100Y-34023600D01*
X165961100Y-32118600D02*
X166596100Y-31483600D01*
X165961100Y-33388600D02*
X165326100Y-34023600D01*
X173581100Y-32118600D02*
X174216100Y-31483600D01*
X165326100Y-31483600D02*
X165961100Y-32118600D01*
X166596100Y-34023600D02*
X165961100Y-33388600D01*
X164056100Y-31483600D02*
X165326100Y-31483600D01*
X167866100Y-34023600D02*
X166596100Y-34023600D01*
X171676100Y-31483600D02*
X172946100Y-31483600D01*
X161516100Y-31483600D02*
X160881100Y-32118600D01*
X168501100Y-33388600D02*
X169136100Y-34023600D01*
X162786100Y-31483600D02*
X163421100Y-32118600D01*
X164056100Y-34023600D02*
X163421100Y-33388600D01*
X174216100Y-31483600D02*
X175486100Y-31483600D01*
X171041100Y-32118600D02*
X171676100Y-31483600D01*
X162786100Y-34023600D02*
X161516100Y-34023600D01*
X160881100Y-32118600D02*
X160881100Y-33388600D01*
X176121100Y-32118600D02*
X176121100Y-33388600D01*
X168501100Y-33388600D02*
X167866100Y-34023600D01*
X163421100Y-33388600D02*
X162786100Y-34023600D01*
X167866100Y-31483600D02*
X168501100Y-32118600D01*
X170406100Y-34023600D02*
X169136100Y-34023600D01*
X163421100Y-32118600D02*
X164056100Y-31483600D01*
X176121100Y-33388600D02*
X175486100Y-34023600D01*
X172946100Y-34023600D02*
X171676100Y-34023600D01*
X174216100Y-34023600D02*
X173581100Y-33388600D01*
X173581100Y-33388600D02*
X172946100Y-34023600D01*
X161516100Y-31483600D02*
X162786100Y-31483600D01*
X171041100Y-33388600D02*
X170406100Y-34023600D01*
X169136100Y-31483600D02*
X170406100Y-31483600D01*
X169136100Y-31483600D02*
X168501100Y-32118600D01*
D18*
%TO.C,R1*%
X152366963Y-52225091D02*
X158906963Y-52225091D01*
X152366963Y-52555091D02*
X152366963Y-52225091D01*
X152366963Y-54965091D02*
X158906963Y-54965091D01*
X158906963Y-52225091D02*
X158906963Y-52555091D01*
X158906963Y-54965091D02*
X158906963Y-54635091D01*
X152366963Y-54635091D02*
X152366963Y-54965091D01*
D17*
%TO.C,JP3*%
X18136100Y-84483600D02*
X18771100Y-85118600D01*
X16866100Y-84483600D02*
X16231100Y-85118600D01*
X18771100Y-85118600D02*
X18771100Y-86388600D01*
X18771100Y-86388600D02*
X18136100Y-87023600D01*
X16231100Y-86388600D02*
X16866100Y-87023600D01*
X16231100Y-85118600D02*
X16231100Y-86388600D01*
X18136100Y-87023600D02*
X16866100Y-87023600D01*
X16866100Y-84483600D02*
X18136100Y-84483600D01*
D14*
%TO.C,U$8*%
X151065100Y-83167600D02*
X151065100Y-83548600D01*
%TD*%
%LPC*%
D20*
%TO.C,J4*%
X142745065Y-111563600D03*
X142745065Y-109023600D03*
X142745065Y-106483600D03*
X142745065Y-103943600D03*
%TD*%
D21*
%TO.C,U$15*%
X280301100Y-77837600D03*
D22*
X287921100Y-72757600D03*
D23*
X282841100Y-72757600D03*
D21*
X286651100Y-75297600D03*
D22*
X277761100Y-72757600D03*
D24*
X279031100Y-70217600D03*
X285381100Y-67677600D03*
%TD*%
D25*
%TO.C,JP11*%
X264501100Y-79753600D03*
%TD*%
D23*
%TO.C,U$11*%
X282841100Y-45147600D03*
D21*
X286651100Y-47687600D03*
D22*
X277761100Y-45147600D03*
D21*
X280301100Y-50227600D03*
D22*
X287921100Y-45147600D03*
D24*
X279031100Y-42607600D03*
X285381100Y-40067600D03*
%TD*%
D25*
%TO.C,JP10*%
X238501100Y-87753600D03*
%TD*%
D23*
%TO.C,U$17*%
X220953100Y-118117600D03*
D21*
X224763100Y-120657600D03*
X218413100Y-123197600D03*
D22*
X215873100Y-118117600D03*
X226033100Y-118117600D03*
D24*
X217143100Y-115577600D03*
X223493100Y-113037600D03*
%TD*%
D25*
%TO.C,JP5*%
X81501100Y-88753600D03*
%TD*%
D23*
%TO.C,U$6*%
X76133100Y-149302600D03*
D22*
X81213100Y-149302600D03*
D21*
X79943100Y-151842600D03*
D22*
X71053100Y-149302600D03*
D21*
X73593100Y-154382600D03*
D24*
X72323100Y-146762600D03*
X78673100Y-144222600D03*
%TD*%
D26*
%TO.C,D1*%
X151881100Y-65753600D03*
X167121100Y-65753600D03*
%TD*%
D27*
%TO.C,@HOLE11*%
X174501100Y-45253600D03*
%TD*%
D28*
%TO.C,@HOLE8*%
X184501100Y-71753600D03*
%TD*%
D21*
%TO.C,@HOLE0*%
X68501100Y-166753600D03*
%TD*%
%TO.C,U$20*%
X224763100Y-151842600D03*
D23*
X220953100Y-149302600D03*
D21*
X218413100Y-154382600D03*
D22*
X215873100Y-149302600D03*
X226033100Y-149302600D03*
D24*
X217143100Y-146762600D03*
X223493100Y-144222600D03*
%TD*%
D29*
%TO.C,D2*%
X157610214Y-65844142D03*
X160970214Y-65844142D03*
%TD*%
D25*
%TO.C,JP18*%
X211501100Y-133753600D03*
%TD*%
D28*
%TO.C,@HOLE9*%
X136501100Y-160753600D03*
%TD*%
D30*
%TO.C,R2*%
X154751379Y-53595091D03*
X156401379Y-53595091D03*
%TD*%
D21*
%TO.C,U$10*%
X258296100Y-44712600D03*
X251946100Y-47252600D03*
D23*
X254486100Y-42172600D03*
D22*
X259566100Y-42172600D03*
X249406100Y-42172600D03*
D24*
X250676100Y-39632600D03*
X257026100Y-37092600D03*
%TD*%
D25*
%TO.C,JP6*%
X86501100Y-158753600D03*
%TD*%
D31*
%TO.C,@HOLE14*%
X122501100Y-131553600D03*
%TD*%
D25*
%TO.C,JP14*%
X311501100Y-72753600D03*
%TD*%
%TO.C,JP4*%
X54501100Y-78753600D03*
%TD*%
D23*
%TO.C,U$13*%
X227968100Y-81777600D03*
D22*
X222888100Y-81777600D03*
D21*
X225428100Y-86857600D03*
D22*
X233048100Y-81777600D03*
D21*
X231778100Y-84317600D03*
D24*
X224158100Y-79237600D03*
X230508100Y-76697600D03*
%TD*%
D25*
%TO.C,JP9*%
X241501100Y-60753600D03*
%TD*%
D32*
%TO.C,J2*%
X151168981Y-34593600D03*
X143818981Y-34593600D03*
D33*
X150318981Y-35153600D03*
X149818981Y-35153600D03*
X149318981Y-35153600D03*
X148818981Y-35153600D03*
X148318981Y-35153600D03*
X147818981Y-35153600D03*
X147318981Y-35153600D03*
X146818981Y-35153600D03*
X146318981Y-35153600D03*
X145818981Y-35153600D03*
X145318981Y-35153600D03*
X144818981Y-35153600D03*
D34*
X144768981Y-33943600D03*
X145168981Y-33243600D03*
X145968981Y-33243600D03*
X146368981Y-33943600D03*
X146768981Y-33243600D03*
X147168981Y-33943600D03*
X147968981Y-33943600D03*
X148368981Y-33243600D03*
X148768981Y-33943600D03*
X149168981Y-33243600D03*
X149968981Y-33243600D03*
X150368981Y-33943600D03*
D35*
X151698981Y-33343600D03*
X143438981Y-33343600D03*
X152058981Y-28953600D03*
X143078981Y-28953600D03*
%TD*%
D21*
%TO.C,U$1*%
X-13573900Y-94497600D03*
D23*
X-11033900Y-89417600D03*
D21*
X-7223900Y-91957600D03*
D22*
X-16113900Y-89417600D03*
X-5953900Y-89417600D03*
D24*
X-14843900Y-86877600D03*
X-8493900Y-84337600D03*
%TD*%
D23*
%TO.C,U$21*%
X198266100Y-165072600D03*
D22*
X193186100Y-165072600D03*
D21*
X195726100Y-170152600D03*
X202076100Y-167612600D03*
D22*
X203346100Y-165072600D03*
D24*
X194456100Y-162532600D03*
X200806100Y-159992600D03*
%TD*%
D25*
%TO.C,JP16*%
X291501100Y-83753600D03*
%TD*%
D22*
%TO.C,U$2*%
X19326100Y-73114600D03*
D21*
X18056100Y-75654600D03*
D22*
X9166100Y-73114600D03*
D23*
X14246100Y-73114600D03*
D21*
X11706100Y-78194600D03*
D24*
X10436100Y-70574600D03*
X16786100Y-68034600D03*
%TD*%
D22*
%TO.C,U$4*%
X47682100Y-70388600D03*
D23*
X42602100Y-70388600D03*
D21*
X46412100Y-72928600D03*
X40062100Y-75468600D03*
D22*
X37522100Y-70388600D03*
D24*
X38792100Y-67848600D03*
X45142100Y-65308600D03*
%TD*%
D27*
%TO.C,@HOLE13*%
X30301100Y-43453600D03*
%TD*%
D21*
%TO.C,@HOLE1*%
X284501100Y-147753600D03*
%TD*%
D25*
%TO.C,JP20*%
X235501100Y-150753600D03*
%TD*%
D21*
%TO.C,U$7*%
X102631100Y-167611600D03*
D22*
X93741100Y-165071600D03*
D21*
X96281100Y-170151600D03*
D23*
X98821100Y-165071600D03*
D22*
X103901100Y-165071600D03*
D24*
X95011100Y-162531600D03*
X101361100Y-159991600D03*
%TD*%
D25*
%TO.C,JP13*%
X294501100Y-54753600D03*
%TD*%
D23*
%TO.C,U$19*%
X243610100Y-133887600D03*
D21*
X247420100Y-136427600D03*
X241070100Y-138967600D03*
D22*
X248690100Y-133887600D03*
X238530100Y-133887600D03*
D24*
X239800100Y-131347600D03*
X246150100Y-128807600D03*
%TD*%
D25*
%TO.C,JP17*%
X236501100Y-125753600D03*
%TD*%
%TO.C,JP12*%
X268501100Y-39753600D03*
%TD*%
D21*
%TO.C,@HOLE2*%
X-19498900Y-154753600D03*
%TD*%
D36*
%TO.C,R3*%
X151781476Y-59692391D03*
D37*
X159401476Y-59692391D03*
%TD*%
D38*
%TO.C,J1*%
X24776100Y-127753600D03*
D39*
X21801100Y-175253600D03*
X33201100Y-175253600D03*
D38*
X25076100Y-130783600D03*
X29926100Y-130783600D03*
D39*
X21801100Y-128253600D03*
D38*
X30226100Y-127753600D03*
D39*
X33201100Y-128253600D03*
D40*
X37191100Y-137783600D03*
X37191100Y-135243600D03*
X37191100Y-140323600D03*
X37191100Y-145403600D03*
X17811100Y-132703600D03*
X17811100Y-145403600D03*
X17811100Y-158103600D03*
X17811100Y-170803600D03*
D41*
X27501100Y-176453600D03*
D40*
X37191100Y-170803600D03*
X37191100Y-158103600D03*
X37191100Y-132703600D03*
X17811100Y-127623600D03*
X17811100Y-130163600D03*
X17811100Y-135243600D03*
X17811100Y-137783600D03*
X17811100Y-140323600D03*
X17811100Y-142863600D03*
X17811100Y-147943600D03*
X17811100Y-150483600D03*
X17811100Y-153023600D03*
X17811100Y-155563600D03*
X17811100Y-160643600D03*
X17811100Y-163183600D03*
X17811100Y-165723600D03*
X17811100Y-168263600D03*
X17811100Y-173343600D03*
X17811100Y-175883600D03*
X37191100Y-175883600D03*
X37191100Y-173343600D03*
X37191100Y-168263600D03*
X37191100Y-165723600D03*
X37191100Y-163183600D03*
X37191100Y-160643600D03*
X37191100Y-155563600D03*
X37191100Y-150483600D03*
X37191100Y-147943600D03*
X37191100Y-142863600D03*
X37191100Y-153023600D03*
D41*
X24961100Y-176453600D03*
X30041100Y-176453600D03*
D42*
X28501100Y-127453600D03*
X26501100Y-127453600D03*
D40*
X37191100Y-127623600D03*
X37191100Y-130163600D03*
%TD*%
D25*
%TO.C,JP15*%
X313501100Y-100753600D03*
%TD*%
D30*
%TO.C,R4*%
X154825956Y-59663792D03*
X156475956Y-59663792D03*
%TD*%
D21*
%TO.C,@HOLE10*%
X119501100Y-59753600D03*
%TD*%
D27*
%TO.C,@HOLE15*%
X256501100Y-161753600D03*
%TD*%
D28*
%TO.C,@HOLE6*%
X-13498900Y-143753600D03*
%TD*%
D21*
%TO.C,@HOLE16*%
X71501100Y-125753600D03*
%TD*%
%TO.C,U$5*%
X72984100Y-84691600D03*
X66634100Y-87231600D03*
D22*
X64094100Y-82151600D03*
D23*
X69174100Y-82151600D03*
D22*
X74254100Y-82151600D03*
D24*
X65364100Y-79611600D03*
X71714100Y-77071600D03*
%TD*%
D22*
%TO.C,U$18*%
X203346100Y-133887600D03*
D21*
X202076100Y-136427600D03*
D22*
X193186100Y-133887600D03*
D23*
X198266100Y-133887600D03*
D21*
X195726100Y-138967600D03*
D24*
X194456100Y-131347600D03*
X200806100Y-128807600D03*
%TD*%
D21*
%TO.C,@HOLE3*%
X182501100Y-126753600D03*
%TD*%
D27*
%TO.C,@HOLE12*%
X-11098900Y-108953600D03*
%TD*%
D23*
%TO.C,U$16*%
X309064100Y-88793600D03*
D22*
X314144100Y-88793600D03*
X303984100Y-88793600D03*
D21*
X312874100Y-91333600D03*
X306524100Y-93873600D03*
D24*
X305254100Y-86253600D03*
X311604100Y-83713600D03*
%TD*%
D28*
%TO.C,@HOLE4*%
X268501100Y-54753600D03*
%TD*%
D25*
%TO.C,JP7*%
X112501100Y-161753600D03*
%TD*%
D32*
%TO.C,J5*%
X122579393Y-105081075D03*
X122579393Y-110861075D03*
D43*
X123699393Y-104771075D03*
X123699393Y-105571075D03*
D44*
X123699393Y-106721075D03*
X123699393Y-107721075D03*
X123699393Y-108221075D03*
X123699393Y-109221075D03*
D43*
X123699393Y-111171075D03*
X123699393Y-110371075D03*
D44*
X123699393Y-109721075D03*
X123699393Y-108721075D03*
X123699393Y-107221075D03*
X123699393Y-106221075D03*
D45*
X123079393Y-103651075D03*
D46*
X118899393Y-103651075D03*
D45*
X123079393Y-112291075D03*
D46*
X118899393Y-112291075D03*
%TD*%
D25*
%TO.C,JP2*%
X2501100Y-96753600D03*
%TD*%
%TO.C,JP8*%
X156501100Y-94753600D03*
%TD*%
D21*
%TO.C,U$12*%
X306524100Y-66263600D03*
D23*
X309064100Y-61183600D03*
D22*
X314144100Y-61183600D03*
D21*
X312874100Y-63723600D03*
D22*
X303984100Y-61183600D03*
D24*
X305254100Y-58643600D03*
X311604100Y-56103600D03*
%TD*%
D21*
%TO.C,U$9*%
X225428100Y-59248600D03*
D22*
X222888100Y-54168600D03*
D23*
X227968100Y-54168600D03*
D22*
X233048100Y-54168600D03*
D21*
X231778100Y-56708600D03*
D24*
X224158100Y-51628600D03*
X230508100Y-49088600D03*
%TD*%
D25*
%TO.C,JP21*%
X183501100Y-171753600D03*
%TD*%
D22*
%TO.C,U$14*%
X259566100Y-69782600D03*
D21*
X251946100Y-74862600D03*
X258296100Y-72322600D03*
D22*
X249406100Y-69782600D03*
D23*
X254486100Y-69782600D03*
D24*
X250676100Y-67242600D03*
X257026100Y-64702600D03*
%TD*%
D25*
%TO.C,JP19*%
X257501100Y-141753600D03*
%TD*%
D47*
%TO.C,J3*%
X162151100Y-32753600D03*
X164691100Y-32753600D03*
X167231100Y-32753600D03*
X169771100Y-32753600D03*
X172311100Y-32753600D03*
X174851100Y-32753600D03*
%TD*%
D28*
%TO.C,@HOLE5*%
X276501100Y-158753600D03*
%TD*%
D36*
%TO.C,R1*%
X151826963Y-53595091D03*
D37*
X159446963Y-53595091D03*
%TD*%
D28*
%TO.C,@HOLE7*%
X65501100Y-49753600D03*
%TD*%
D25*
%TO.C,JP3*%
X17501100Y-85753600D03*
%TD*%
D22*
%TO.C,U$8*%
X153986100Y-82151600D03*
X143826100Y-82151600D03*
D21*
X152716100Y-84691600D03*
D23*
X148906100Y-82151600D03*
D21*
X146366100Y-87231600D03*
D24*
X145096100Y-79611600D03*
X151446100Y-77071600D03*
%TD*%
M02*
