%TF.GenerationSoftware,KiCad,Pcbnew,(7.0.0)*%
%TF.CreationDate,2023-02-14T15:50:17+01:00*%
%TF.ProjectId,OF1 v1,4f463120-7631-42e6-9b69-6361645f7063,rev?*%
%TF.SameCoordinates,Original*%
%TF.FileFunction,Legend,Top*%
%TF.FilePolarity,Positive*%
%FSLAX46Y46*%
G04 Gerber Fmt 4.6, Leading zero omitted, Abs format (unit mm)*
G04 Created by KiCad (PCBNEW (7.0.0)) date 2023-02-14 15:50:17*
%MOMM*%
%LPD*%
G01*
G04 APERTURE LIST*
G04 Aperture macros list*
%AMRoundRect*
0 Rectangle with rounded corners*
0 $1 Rounding radius*
0 $2 $3 $4 $5 $6 $7 $8 $9 X,Y pos of 4 corners*
0 Add a 4 corners polygon primitive as box body*
4,1,4,$2,$3,$4,$5,$6,$7,$8,$9,$2,$3,0*
0 Add four circle primitives for the rounded corners*
1,1,$1+$1,$2,$3*
1,1,$1+$1,$4,$5*
1,1,$1+$1,$6,$7*
1,1,$1+$1,$8,$9*
0 Add four rect primitives between the rounded corners*
20,1,$1+$1,$2,$3,$4,$5,0*
20,1,$1+$1,$4,$5,$6,$7,0*
20,1,$1+$1,$6,$7,$8,$9,0*
20,1,$1+$1,$8,$9,$2,$3,0*%
%AMFreePoly0*
4,1,17,0.425901,0.806901,0.806901,0.425901,0.825500,0.381000,0.825500,-0.381000,0.806901,-0.425901,0.425901,-0.806901,0.381000,-0.825500,-0.381000,-0.825500,-0.425901,-0.806901,-0.806901,-0.425901,-0.825500,-0.381000,-0.825500,0.381000,-0.806901,0.425901,-0.425901,0.806901,-0.381000,0.825500,0.381000,0.825500,0.425901,0.806901,0.425901,0.806901,$1*%
G04 Aperture macros list end*
%ADD10C,0.200000*%
%ADD11C,0.065024*%
%ADD12C,0.142240*%
%ADD13C,0.150000*%
%ADD14C,0.114300*%
%ADD15C,0.127000*%
%ADD16C,0.044941*%
%ADD17C,0.152400*%
%ADD18C,0.120000*%
%ADD19C,0.020000*%
%ADD20O,3.175000X1.651000*%
%ADD21C,1.701800*%
%ADD22C,3.000000*%
%ADD23C,3.987800*%
%ADD24C,2.374900*%
%ADD25FreePoly0,0.000000*%
%ADD26O,4.622800X2.374900*%
%ADD27C,9.000000*%
%ADD28C,8.000000*%
%ADD29RoundRect,0.063500X0.605000X0.365000X-0.605000X0.365000X-0.605000X-0.365000X0.605000X-0.365000X0*%
%ADD30C,8.500000*%
%ADD31C,0.650000*%
%ADD32RoundRect,0.063500X-0.150000X-0.450000X0.150000X-0.450000X0.150000X0.450000X-0.150000X0.450000X0*%
%ADD33C,0.777000*%
%ADD34O,0.877000X1.627000*%
%ADD35C,2.100000*%
%ADD36C,1.500000*%
%ADD37O,3.327000X1.727000*%
%ADD38O,1.727000X3.327000*%
%ADD39RoundRect,0.063500X-0.400000X-0.400000X0.400000X-0.400000X0.400000X0.400000X-0.400000X0.400000X0*%
%ADD40RoundRect,0.063500X-0.620000X0.300000X-0.620000X-0.300000X0.620000X-0.300000X0.620000X0.300000X0*%
%ADD41RoundRect,0.063500X-0.620000X0.150000X-0.620000X-0.150000X0.620000X-0.150000X0.620000X0.150000X0*%
%ADD42O,2.227000X1.127000*%
%ADD43O,1.927000X1.127000*%
%ADD44O,1.651000X3.175000*%
G04 APERTURE END LIST*
D10*
X73737165Y-125753600D02*
G75*
G03*
X73737165Y-125753600I-2236065J0D01*
G01*
X145501100Y-50753600D02*
X170501100Y-50753600D01*
X170501100Y-50753600D02*
X170501100Y-73753600D01*
X170501100Y-73753600D02*
X145501100Y-73753600D01*
X162272621Y-34794232D02*
X164674246Y-34794232D01*
X145501100Y-73753600D02*
X145501100Y-50753600D01*
X164706284Y-33815094D02*
X164690587Y-33799397D01*
X163421272Y-34948854D02*
X163421272Y-36958357D01*
X164691100Y-34802747D02*
X164691100Y-34410263D01*
X162272621Y-34378054D02*
X162272621Y-34801935D01*
D11*
X145220615Y-110424960D02*
X145149398Y-110389351D01*
X145149398Y-110389351D02*
X145042573Y-110389351D01*
X145042573Y-110389351D02*
X144935748Y-110424960D01*
X144935748Y-110424960D02*
X144864531Y-110496176D01*
X144864531Y-110496176D02*
X144828922Y-110567393D01*
X144828922Y-110567393D02*
X144793314Y-110709827D01*
X144793314Y-110709827D02*
X144793314Y-110816652D01*
X144793314Y-110816652D02*
X144828922Y-110959085D01*
X144828922Y-110959085D02*
X144864531Y-111030302D01*
X144864531Y-111030302D02*
X144935748Y-111101519D01*
X144935748Y-111101519D02*
X145042573Y-111137127D01*
X145042573Y-111137127D02*
X145113789Y-111137127D01*
X145113789Y-111137127D02*
X145220615Y-111101519D01*
X145220615Y-111101519D02*
X145256223Y-111065910D01*
X145256223Y-111065910D02*
X145256223Y-110816652D01*
X145256223Y-110816652D02*
X145113789Y-110816652D01*
X145576698Y-111137127D02*
X145576698Y-110389351D01*
X145576698Y-110389351D02*
X146003999Y-111137127D01*
X146003999Y-111137127D02*
X146003999Y-110389351D01*
X146360082Y-111137127D02*
X146360082Y-110389351D01*
X146360082Y-110389351D02*
X146538124Y-110389351D01*
X146538124Y-110389351D02*
X146644949Y-110424960D01*
X146644949Y-110424960D02*
X146716166Y-110496176D01*
X146716166Y-110496176D02*
X146751775Y-110567393D01*
X146751775Y-110567393D02*
X146787383Y-110709827D01*
X146787383Y-110709827D02*
X146787383Y-110816652D01*
X146787383Y-110816652D02*
X146751775Y-110959085D01*
X146751775Y-110959085D02*
X146716166Y-111030302D01*
X146716166Y-111030302D02*
X146644949Y-111101519D01*
X146644949Y-111101519D02*
X146538124Y-111137127D01*
X146538124Y-111137127D02*
X146360082Y-111137127D01*
X171722715Y-37993174D02*
X171722715Y-37530265D01*
X171722715Y-37530265D02*
X172007582Y-37779524D01*
X172007582Y-37779524D02*
X172007582Y-37672699D01*
X172007582Y-37672699D02*
X172043191Y-37601482D01*
X172043191Y-37601482D02*
X172078799Y-37565874D01*
X172078799Y-37565874D02*
X172150016Y-37530265D01*
X172150016Y-37530265D02*
X172328058Y-37530265D01*
X172328058Y-37530265D02*
X172399274Y-37565874D01*
X172399274Y-37565874D02*
X172434883Y-37601482D01*
X172434883Y-37601482D02*
X172470491Y-37672699D01*
X172470491Y-37672699D02*
X172470491Y-37886349D01*
X172470491Y-37886349D02*
X172434883Y-37957566D01*
X172434883Y-37957566D02*
X172399274Y-37993174D01*
X171722715Y-37316615D02*
X172470491Y-37067356D01*
X172470491Y-37067356D02*
X171722715Y-36818097D01*
X171722715Y-36640055D02*
X171722715Y-36177146D01*
X171722715Y-36177146D02*
X172007582Y-36426405D01*
X172007582Y-36426405D02*
X172007582Y-36319580D01*
X172007582Y-36319580D02*
X172043191Y-36248363D01*
X172043191Y-36248363D02*
X172078799Y-36212755D01*
X172078799Y-36212755D02*
X172150016Y-36177146D01*
X172150016Y-36177146D02*
X172328058Y-36177146D01*
X172328058Y-36177146D02*
X172399274Y-36212755D01*
X172399274Y-36212755D02*
X172434883Y-36248363D01*
X172434883Y-36248363D02*
X172470491Y-36319580D01*
X172470491Y-36319580D02*
X172470491Y-36533230D01*
X172470491Y-36533230D02*
X172434883Y-36604447D01*
X172434883Y-36604447D02*
X172399274Y-36640055D01*
X172470491Y-35408005D02*
X171971974Y-35408005D01*
X171722715Y-35408005D02*
X171758324Y-35443613D01*
X171758324Y-35443613D02*
X171793932Y-35408005D01*
X171793932Y-35408005D02*
X171758324Y-35372396D01*
X171758324Y-35372396D02*
X171722715Y-35408005D01*
X171722715Y-35408005D02*
X171793932Y-35408005D01*
X171971974Y-35051921D02*
X172470491Y-35051921D01*
X172043191Y-35051921D02*
X172007582Y-35016312D01*
X172007582Y-35016312D02*
X171971974Y-34945095D01*
X171971974Y-34945095D02*
X171971974Y-34838270D01*
X171971974Y-34838270D02*
X172007582Y-34767054D01*
X172007582Y-34767054D02*
X172078799Y-34731445D01*
X172078799Y-34731445D02*
X172470491Y-34731445D01*
X174385380Y-39045214D02*
X174385380Y-39401298D01*
X174385380Y-39401298D02*
X174741464Y-39436906D01*
X174741464Y-39436906D02*
X174705856Y-39401298D01*
X174705856Y-39401298D02*
X174670247Y-39330081D01*
X174670247Y-39330081D02*
X174670247Y-39152039D01*
X174670247Y-39152039D02*
X174705856Y-39080822D01*
X174705856Y-39080822D02*
X174741464Y-39045214D01*
X174741464Y-39045214D02*
X174812681Y-39009605D01*
X174812681Y-39009605D02*
X174990723Y-39009605D01*
X174990723Y-39009605D02*
X175061939Y-39045214D01*
X175061939Y-39045214D02*
X175097548Y-39080822D01*
X175097548Y-39080822D02*
X175133156Y-39152039D01*
X175133156Y-39152039D02*
X175133156Y-39330081D01*
X175133156Y-39330081D02*
X175097548Y-39401298D01*
X175097548Y-39401298D02*
X175061939Y-39436906D01*
X174385380Y-38795955D02*
X175133156Y-38546696D01*
X175133156Y-38546696D02*
X174385380Y-38297437D01*
X174349772Y-37514053D02*
X175311198Y-38155004D01*
X174385380Y-37371620D02*
X175133156Y-37122361D01*
X175133156Y-37122361D02*
X174385380Y-36873102D01*
X174741464Y-36374585D02*
X174777072Y-36267760D01*
X174777072Y-36267760D02*
X174812681Y-36232151D01*
X174812681Y-36232151D02*
X174883897Y-36196543D01*
X174883897Y-36196543D02*
X174990723Y-36196543D01*
X174990723Y-36196543D02*
X175061939Y-36232151D01*
X175061939Y-36232151D02*
X175097548Y-36267760D01*
X175097548Y-36267760D02*
X175133156Y-36338977D01*
X175133156Y-36338977D02*
X175133156Y-36623844D01*
X175133156Y-36623844D02*
X174385380Y-36623844D01*
X174385380Y-36623844D02*
X174385380Y-36374585D01*
X174385380Y-36374585D02*
X174420989Y-36303368D01*
X174420989Y-36303368D02*
X174456597Y-36267760D01*
X174456597Y-36267760D02*
X174527814Y-36232151D01*
X174527814Y-36232151D02*
X174599030Y-36232151D01*
X174599030Y-36232151D02*
X174670247Y-36267760D01*
X174670247Y-36267760D02*
X174705856Y-36303368D01*
X174705856Y-36303368D02*
X174741464Y-36374585D01*
X174741464Y-36374585D02*
X174741464Y-36623844D01*
X174385380Y-35876068D02*
X174990723Y-35876068D01*
X174990723Y-35876068D02*
X175061939Y-35840459D01*
X175061939Y-35840459D02*
X175097548Y-35804851D01*
X175097548Y-35804851D02*
X175133156Y-35733634D01*
X175133156Y-35733634D02*
X175133156Y-35591201D01*
X175133156Y-35591201D02*
X175097548Y-35519984D01*
X175097548Y-35519984D02*
X175061939Y-35484375D01*
X175061939Y-35484375D02*
X174990723Y-35448767D01*
X174990723Y-35448767D02*
X174385380Y-35448767D01*
X175097548Y-35128292D02*
X175133156Y-35021467D01*
X175133156Y-35021467D02*
X175133156Y-34843425D01*
X175133156Y-34843425D02*
X175097548Y-34772208D01*
X175097548Y-34772208D02*
X175061939Y-34736600D01*
X175061939Y-34736600D02*
X174990723Y-34700991D01*
X174990723Y-34700991D02*
X174919506Y-34700991D01*
X174919506Y-34700991D02*
X174848289Y-34736600D01*
X174848289Y-34736600D02*
X174812681Y-34772208D01*
X174812681Y-34772208D02*
X174777072Y-34843425D01*
X174777072Y-34843425D02*
X174741464Y-34985858D01*
X174741464Y-34985858D02*
X174705856Y-35057075D01*
X174705856Y-35057075D02*
X174670247Y-35092684D01*
X174670247Y-35092684D02*
X174599030Y-35128292D01*
X174599030Y-35128292D02*
X174527814Y-35128292D01*
X174527814Y-35128292D02*
X174456597Y-35092684D01*
X174456597Y-35092684D02*
X174420989Y-35057075D01*
X174420989Y-35057075D02*
X174385380Y-34985858D01*
X174385380Y-34985858D02*
X174385380Y-34807817D01*
X174385380Y-34807817D02*
X174420989Y-34700991D01*
X144855887Y-105947195D02*
X144855887Y-105199419D01*
X144855887Y-105199419D02*
X145033929Y-105199419D01*
X145033929Y-105199419D02*
X145140754Y-105235028D01*
X145140754Y-105235028D02*
X145211971Y-105306244D01*
X145211971Y-105306244D02*
X145247580Y-105377461D01*
X145247580Y-105377461D02*
X145283188Y-105519895D01*
X145283188Y-105519895D02*
X145283188Y-105626720D01*
X145283188Y-105626720D02*
X145247580Y-105769153D01*
X145247580Y-105769153D02*
X145211971Y-105840370D01*
X145211971Y-105840370D02*
X145140754Y-105911587D01*
X145140754Y-105911587D02*
X145033929Y-105947195D01*
X145033929Y-105947195D02*
X144855887Y-105947195D01*
X145603663Y-105662328D02*
X146173398Y-105662328D01*
X166677194Y-38028783D02*
X167424970Y-37779524D01*
X167424970Y-37779524D02*
X166677194Y-37530265D01*
X167389362Y-37316615D02*
X167424970Y-37209790D01*
X167424970Y-37209790D02*
X167424970Y-37031748D01*
X167424970Y-37031748D02*
X167389362Y-36960531D01*
X167389362Y-36960531D02*
X167353753Y-36924923D01*
X167353753Y-36924923D02*
X167282537Y-36889314D01*
X167282537Y-36889314D02*
X167211320Y-36889314D01*
X167211320Y-36889314D02*
X167140103Y-36924923D01*
X167140103Y-36924923D02*
X167104495Y-36960531D01*
X167104495Y-36960531D02*
X167068886Y-37031748D01*
X167068886Y-37031748D02*
X167033278Y-37174181D01*
X167033278Y-37174181D02*
X166997670Y-37245398D01*
X166997670Y-37245398D02*
X166962061Y-37281007D01*
X166962061Y-37281007D02*
X166890844Y-37316615D01*
X166890844Y-37316615D02*
X166819628Y-37316615D01*
X166819628Y-37316615D02*
X166748411Y-37281007D01*
X166748411Y-37281007D02*
X166712803Y-37245398D01*
X166712803Y-37245398D02*
X166677194Y-37174181D01*
X166677194Y-37174181D02*
X166677194Y-36996140D01*
X166677194Y-36996140D02*
X166712803Y-36889314D01*
X167068886Y-36426405D02*
X167424970Y-36426405D01*
X166677194Y-36675664D02*
X167068886Y-36426405D01*
X167068886Y-36426405D02*
X166677194Y-36177146D01*
X167389362Y-35963496D02*
X167424970Y-35856671D01*
X167424970Y-35856671D02*
X167424970Y-35678629D01*
X167424970Y-35678629D02*
X167389362Y-35607412D01*
X167389362Y-35607412D02*
X167353753Y-35571804D01*
X167353753Y-35571804D02*
X167282537Y-35536195D01*
X167282537Y-35536195D02*
X167211320Y-35536195D01*
X167211320Y-35536195D02*
X167140103Y-35571804D01*
X167140103Y-35571804D02*
X167104495Y-35607412D01*
X167104495Y-35607412D02*
X167068886Y-35678629D01*
X167068886Y-35678629D02*
X167033278Y-35821062D01*
X167033278Y-35821062D02*
X166997670Y-35892279D01*
X166997670Y-35892279D02*
X166962061Y-35927888D01*
X166962061Y-35927888D02*
X166890844Y-35963496D01*
X166890844Y-35963496D02*
X166819628Y-35963496D01*
X166819628Y-35963496D02*
X166748411Y-35927888D01*
X166748411Y-35927888D02*
X166712803Y-35892279D01*
X166712803Y-35892279D02*
X166677194Y-35821062D01*
X166677194Y-35821062D02*
X166677194Y-35643021D01*
X166677194Y-35643021D02*
X166712803Y-35536195D01*
X170037470Y-37921958D02*
X169289694Y-37921958D01*
X169289694Y-37921958D02*
X169289694Y-37743916D01*
X169289694Y-37743916D02*
X169325303Y-37637091D01*
X169325303Y-37637091D02*
X169396519Y-37565874D01*
X169396519Y-37565874D02*
X169467736Y-37530265D01*
X169467736Y-37530265D02*
X169610170Y-37494657D01*
X169610170Y-37494657D02*
X169716995Y-37494657D01*
X169716995Y-37494657D02*
X169859428Y-37530265D01*
X169859428Y-37530265D02*
X169930645Y-37565874D01*
X169930645Y-37565874D02*
X170001862Y-37637091D01*
X170001862Y-37637091D02*
X170037470Y-37743916D01*
X170037470Y-37743916D02*
X170037470Y-37921958D01*
X169823820Y-37209790D02*
X169823820Y-36853706D01*
X170037470Y-37281007D02*
X169289694Y-37031748D01*
X169289694Y-37031748D02*
X170037470Y-36782489D01*
X169289694Y-36640056D02*
X169289694Y-36212755D01*
X170037470Y-36426405D02*
X169289694Y-36426405D01*
X169823820Y-35999105D02*
X169823820Y-35643021D01*
X170037470Y-36070322D02*
X169289694Y-35821063D01*
X169289694Y-35821063D02*
X170037470Y-35571804D01*
X162719724Y-37225103D02*
X162648507Y-37189494D01*
X162648507Y-37189494D02*
X162541682Y-37189494D01*
X162541682Y-37189494D02*
X162434857Y-37225103D01*
X162434857Y-37225103D02*
X162363640Y-37296319D01*
X162363640Y-37296319D02*
X162328031Y-37367536D01*
X162328031Y-37367536D02*
X162292423Y-37509970D01*
X162292423Y-37509970D02*
X162292423Y-37616795D01*
X162292423Y-37616795D02*
X162328031Y-37759228D01*
X162328031Y-37759228D02*
X162363640Y-37830445D01*
X162363640Y-37830445D02*
X162434857Y-37901662D01*
X162434857Y-37901662D02*
X162541682Y-37937270D01*
X162541682Y-37937270D02*
X162612898Y-37937270D01*
X162612898Y-37937270D02*
X162719724Y-37901662D01*
X162719724Y-37901662D02*
X162755332Y-37866053D01*
X162755332Y-37866053D02*
X162755332Y-37616795D01*
X162755332Y-37616795D02*
X162612898Y-37616795D01*
X163075807Y-37937270D02*
X163075807Y-37189494D01*
X163075807Y-37189494D02*
X163503108Y-37937270D01*
X163503108Y-37937270D02*
X163503108Y-37189494D01*
X163859191Y-37937270D02*
X163859191Y-37189494D01*
X163859191Y-37189494D02*
X164037233Y-37189494D01*
X164037233Y-37189494D02*
X164144058Y-37225103D01*
X164144058Y-37225103D02*
X164215275Y-37296319D01*
X164215275Y-37296319D02*
X164250884Y-37367536D01*
X164250884Y-37367536D02*
X164286492Y-37509970D01*
X164286492Y-37509970D02*
X164286492Y-37616795D01*
X164286492Y-37616795D02*
X164250884Y-37759228D01*
X164250884Y-37759228D02*
X164215275Y-37830445D01*
X164215275Y-37830445D02*
X164144058Y-37901662D01*
X164144058Y-37901662D02*
X164037233Y-37937270D01*
X164037233Y-37937270D02*
X163859191Y-37937270D01*
D12*
X142423206Y-75897565D02*
X142423206Y-75585991D01*
X142423206Y-75585991D02*
X142501100Y-75430205D01*
X142501100Y-75430205D02*
X142656886Y-75274418D01*
X142656886Y-75274418D02*
X142968460Y-75196525D01*
X142968460Y-75196525D02*
X143513713Y-75196525D01*
X143513713Y-75196525D02*
X143825286Y-75274418D01*
X143825286Y-75274418D02*
X143981073Y-75430205D01*
X143981073Y-75430205D02*
X144058966Y-75585991D01*
X144058966Y-75585991D02*
X144058966Y-75897565D01*
X144058966Y-75897565D02*
X143981073Y-76053351D01*
X143981073Y-76053351D02*
X143825286Y-76209138D01*
X143825286Y-76209138D02*
X143513713Y-76287031D01*
X143513713Y-76287031D02*
X142968460Y-76287031D01*
X142968460Y-76287031D02*
X142656886Y-76209138D01*
X142656886Y-76209138D02*
X142501100Y-76053351D01*
X142501100Y-76053351D02*
X142423206Y-75897565D01*
X142968460Y-74495485D02*
X144058966Y-74495485D01*
X143124246Y-74495485D02*
X143046353Y-74417592D01*
X143046353Y-74417592D02*
X142968460Y-74261805D01*
X142968460Y-74261805D02*
X142968460Y-74028125D01*
X142968460Y-74028125D02*
X143046353Y-73872338D01*
X143046353Y-73872338D02*
X143202140Y-73794445D01*
X143202140Y-73794445D02*
X144058966Y-73794445D01*
X144058966Y-72781832D02*
X143981073Y-72937619D01*
X143981073Y-72937619D02*
X143825286Y-73015512D01*
X143825286Y-73015512D02*
X142423206Y-73015512D01*
X142968460Y-72314472D02*
X144058966Y-71925005D01*
X142968460Y-71535538D02*
X144058966Y-71925005D01*
X144058966Y-71925005D02*
X144448433Y-72080792D01*
X144448433Y-72080792D02*
X144526326Y-72158685D01*
X144526326Y-72158685D02*
X144604220Y-72314472D01*
X142968460Y-69930936D02*
X144604220Y-69930936D01*
X143046353Y-69930936D02*
X142968460Y-69775149D01*
X142968460Y-69775149D02*
X142968460Y-69463576D01*
X142968460Y-69463576D02*
X143046353Y-69307789D01*
X143046353Y-69307789D02*
X143124246Y-69229896D01*
X143124246Y-69229896D02*
X143280033Y-69152003D01*
X143280033Y-69152003D02*
X143747393Y-69152003D01*
X143747393Y-69152003D02*
X143903180Y-69229896D01*
X143903180Y-69229896D02*
X143981073Y-69307789D01*
X143981073Y-69307789D02*
X144058966Y-69463576D01*
X144058966Y-69463576D02*
X144058966Y-69775149D01*
X144058966Y-69775149D02*
X143981073Y-69930936D01*
X144058966Y-68217283D02*
X143981073Y-68373070D01*
X143981073Y-68373070D02*
X143825286Y-68450963D01*
X143825286Y-68450963D02*
X142423206Y-68450963D01*
X144058966Y-66893096D02*
X143202140Y-66893096D01*
X143202140Y-66893096D02*
X143046353Y-66970989D01*
X143046353Y-66970989D02*
X142968460Y-67126776D01*
X142968460Y-67126776D02*
X142968460Y-67438349D01*
X142968460Y-67438349D02*
X143046353Y-67594136D01*
X143981073Y-66893096D02*
X144058966Y-67048883D01*
X144058966Y-67048883D02*
X144058966Y-67438349D01*
X144058966Y-67438349D02*
X143981073Y-67594136D01*
X143981073Y-67594136D02*
X143825286Y-67672029D01*
X143825286Y-67672029D02*
X143669500Y-67672029D01*
X143669500Y-67672029D02*
X143513713Y-67594136D01*
X143513713Y-67594136D02*
X143435820Y-67438349D01*
X143435820Y-67438349D02*
X143435820Y-67048883D01*
X143435820Y-67048883D02*
X143357926Y-66893096D01*
X143981073Y-65413123D02*
X144058966Y-65568910D01*
X144058966Y-65568910D02*
X144058966Y-65880483D01*
X144058966Y-65880483D02*
X143981073Y-66036270D01*
X143981073Y-66036270D02*
X143903180Y-66114163D01*
X143903180Y-66114163D02*
X143747393Y-66192056D01*
X143747393Y-66192056D02*
X143280033Y-66192056D01*
X143280033Y-66192056D02*
X143124246Y-66114163D01*
X143124246Y-66114163D02*
X143046353Y-66036270D01*
X143046353Y-66036270D02*
X142968460Y-65880483D01*
X142968460Y-65880483D02*
X142968460Y-65568910D01*
X142968460Y-65568910D02*
X143046353Y-65413123D01*
X143981073Y-64088936D02*
X144058966Y-64244723D01*
X144058966Y-64244723D02*
X144058966Y-64556296D01*
X144058966Y-64556296D02*
X143981073Y-64712083D01*
X143981073Y-64712083D02*
X143825286Y-64789976D01*
X143825286Y-64789976D02*
X143202140Y-64789976D01*
X143202140Y-64789976D02*
X143046353Y-64712083D01*
X143046353Y-64712083D02*
X142968460Y-64556296D01*
X142968460Y-64556296D02*
X142968460Y-64244723D01*
X142968460Y-64244723D02*
X143046353Y-64088936D01*
X143046353Y-64088936D02*
X143202140Y-64011043D01*
X143202140Y-64011043D02*
X143357926Y-64011043D01*
X143357926Y-64011043D02*
X143513713Y-64789976D01*
X144058966Y-62094867D02*
X143981073Y-62250654D01*
X143981073Y-62250654D02*
X143903180Y-62328547D01*
X143903180Y-62328547D02*
X143747393Y-62406440D01*
X143747393Y-62406440D02*
X143280033Y-62406440D01*
X143280033Y-62406440D02*
X143124246Y-62328547D01*
X143124246Y-62328547D02*
X143046353Y-62250654D01*
X143046353Y-62250654D02*
X142968460Y-62094867D01*
X142968460Y-62094867D02*
X142968460Y-61861187D01*
X142968460Y-61861187D02*
X143046353Y-61705400D01*
X143046353Y-61705400D02*
X143124246Y-61627507D01*
X143124246Y-61627507D02*
X143280033Y-61549614D01*
X143280033Y-61549614D02*
X143747393Y-61549614D01*
X143747393Y-61549614D02*
X143903180Y-61627507D01*
X143903180Y-61627507D02*
X143981073Y-61705400D01*
X143981073Y-61705400D02*
X144058966Y-61861187D01*
X144058966Y-61861187D02*
X144058966Y-62094867D01*
X142968460Y-60848574D02*
X144058966Y-60848574D01*
X143124246Y-60848574D02*
X143046353Y-60770681D01*
X143046353Y-60770681D02*
X142968460Y-60614894D01*
X142968460Y-60614894D02*
X142968460Y-60381214D01*
X142968460Y-60381214D02*
X143046353Y-60225427D01*
X143046353Y-60225427D02*
X143202140Y-60147534D01*
X143202140Y-60147534D02*
X144058966Y-60147534D01*
X143981073Y-58745454D02*
X144058966Y-58901241D01*
X144058966Y-58901241D02*
X144058966Y-59212814D01*
X144058966Y-59212814D02*
X143981073Y-59368601D01*
X143981073Y-59368601D02*
X143825286Y-59446494D01*
X143825286Y-59446494D02*
X143202140Y-59446494D01*
X143202140Y-59446494D02*
X143046353Y-59368601D01*
X143046353Y-59368601D02*
X142968460Y-59212814D01*
X142968460Y-59212814D02*
X142968460Y-58901241D01*
X142968460Y-58901241D02*
X143046353Y-58745454D01*
X143046353Y-58745454D02*
X143202140Y-58667561D01*
X143202140Y-58667561D02*
X143357926Y-58667561D01*
X143357926Y-58667561D02*
X143513713Y-59446494D01*
X144058966Y-56284025D02*
X142423206Y-56284025D01*
X143981073Y-56284025D02*
X144058966Y-56439812D01*
X144058966Y-56439812D02*
X144058966Y-56751385D01*
X144058966Y-56751385D02*
X143981073Y-56907172D01*
X143981073Y-56907172D02*
X143903180Y-56985065D01*
X143903180Y-56985065D02*
X143747393Y-57062958D01*
X143747393Y-57062958D02*
X143280033Y-57062958D01*
X143280033Y-57062958D02*
X143124246Y-56985065D01*
X143124246Y-56985065D02*
X143046353Y-56907172D01*
X143046353Y-56907172D02*
X142968460Y-56751385D01*
X142968460Y-56751385D02*
X142968460Y-56439812D01*
X142968460Y-56439812D02*
X143046353Y-56284025D01*
X144058966Y-55505092D02*
X142968460Y-55505092D01*
X142423206Y-55505092D02*
X142501100Y-55582985D01*
X142501100Y-55582985D02*
X142578993Y-55505092D01*
X142578993Y-55505092D02*
X142501100Y-55427199D01*
X142501100Y-55427199D02*
X142423206Y-55505092D01*
X142423206Y-55505092D02*
X142578993Y-55505092D01*
X144058966Y-54492479D02*
X143981073Y-54648266D01*
X143981073Y-54648266D02*
X143903180Y-54726159D01*
X143903180Y-54726159D02*
X143747393Y-54804052D01*
X143747393Y-54804052D02*
X143280033Y-54804052D01*
X143280033Y-54804052D02*
X143124246Y-54726159D01*
X143124246Y-54726159D02*
X143046353Y-54648266D01*
X143046353Y-54648266D02*
X142968460Y-54492479D01*
X142968460Y-54492479D02*
X142968460Y-54258799D01*
X142968460Y-54258799D02*
X143046353Y-54103012D01*
X143046353Y-54103012D02*
X143124246Y-54025119D01*
X143124246Y-54025119D02*
X143280033Y-53947226D01*
X143280033Y-53947226D02*
X143747393Y-53947226D01*
X143747393Y-53947226D02*
X143903180Y-54025119D01*
X143903180Y-54025119D02*
X143981073Y-54103012D01*
X143981073Y-54103012D02*
X144058966Y-54258799D01*
X144058966Y-54258799D02*
X144058966Y-54492479D01*
X144058966Y-52545146D02*
X142423206Y-52545146D01*
X143981073Y-52545146D02*
X144058966Y-52700933D01*
X144058966Y-52700933D02*
X144058966Y-53012506D01*
X144058966Y-53012506D02*
X143981073Y-53168293D01*
X143981073Y-53168293D02*
X143903180Y-53246186D01*
X143903180Y-53246186D02*
X143747393Y-53324079D01*
X143747393Y-53324079D02*
X143280033Y-53324079D01*
X143280033Y-53324079D02*
X143124246Y-53246186D01*
X143124246Y-53246186D02*
X143046353Y-53168293D01*
X143046353Y-53168293D02*
X142968460Y-53012506D01*
X142968460Y-53012506D02*
X142968460Y-52700933D01*
X142968460Y-52700933D02*
X143046353Y-52545146D01*
X143981073Y-51143066D02*
X144058966Y-51298853D01*
X144058966Y-51298853D02*
X144058966Y-51610426D01*
X144058966Y-51610426D02*
X143981073Y-51766213D01*
X143981073Y-51766213D02*
X143825286Y-51844106D01*
X143825286Y-51844106D02*
X143202140Y-51844106D01*
X143202140Y-51844106D02*
X143046353Y-51766213D01*
X143046353Y-51766213D02*
X142968460Y-51610426D01*
X142968460Y-51610426D02*
X142968460Y-51298853D01*
X142968460Y-51298853D02*
X143046353Y-51143066D01*
X143046353Y-51143066D02*
X143202140Y-51065173D01*
X143202140Y-51065173D02*
X143357926Y-51065173D01*
X143357926Y-51065173D02*
X143513713Y-51844106D01*
D13*
G36*
X250030669Y-77972227D02*
G01*
X250171842Y-77985059D01*
X250311855Y-78005581D01*
X250450708Y-78033794D01*
X250588400Y-78069698D01*
X250724932Y-78113293D01*
X250860304Y-78164578D01*
X250994515Y-78223555D01*
X251127566Y-78290222D01*
X251259457Y-78364580D01*
X251390187Y-78446628D01*
X251519757Y-78536368D01*
X251648166Y-78633798D01*
X251775415Y-78738919D01*
X251901504Y-78851731D01*
X252026432Y-78972234D01*
X252146935Y-79097163D01*
X252259747Y-79223251D01*
X252364868Y-79350500D01*
X252462299Y-79478910D01*
X252552038Y-79608480D01*
X252634087Y-79739210D01*
X252708445Y-79871100D01*
X252775112Y-80004151D01*
X252834088Y-80138362D01*
X252885374Y-80273734D01*
X252928968Y-80410266D01*
X252964872Y-80547958D01*
X252993085Y-80686811D01*
X253013608Y-80826824D01*
X253026439Y-80967998D01*
X253031580Y-81110332D01*
X253029003Y-81252612D01*
X253018681Y-81393623D01*
X253000614Y-81533366D01*
X252974803Y-81671841D01*
X252941247Y-81809048D01*
X252899946Y-81944986D01*
X252850900Y-82079656D01*
X252794110Y-82213058D01*
X252729574Y-82345191D01*
X252657294Y-82476057D01*
X252577269Y-82605653D01*
X252489500Y-82733982D01*
X252393985Y-82861042D01*
X252290726Y-82986834D01*
X252179722Y-83111357D01*
X252060974Y-83234613D01*
X248783018Y-86512568D01*
X248658508Y-86632572D01*
X248532810Y-86744750D01*
X248405926Y-86849102D01*
X248277854Y-86945628D01*
X248148594Y-87034329D01*
X248018147Y-87115203D01*
X247886513Y-87188253D01*
X247753692Y-87253476D01*
X247619683Y-87310874D01*
X247484486Y-87360446D01*
X247348103Y-87402192D01*
X247210532Y-87436112D01*
X247071774Y-87462207D01*
X246931828Y-87480476D01*
X246790695Y-87490919D01*
X246648375Y-87493537D01*
X246506041Y-87488396D01*
X246364867Y-87475565D01*
X246224854Y-87455043D01*
X246086001Y-87426829D01*
X245948309Y-87390926D01*
X245811777Y-87347331D01*
X245676405Y-87296045D01*
X245542194Y-87237069D01*
X245409143Y-87170402D01*
X245277253Y-87096044D01*
X245146522Y-87013995D01*
X245016953Y-86924256D01*
X244888543Y-86826825D01*
X244761294Y-86721704D01*
X244635205Y-86608892D01*
X244510277Y-86488389D01*
X244389774Y-86363461D01*
X244276962Y-86237372D01*
X244171841Y-86110123D01*
X244074411Y-85981714D01*
X243984671Y-85852144D01*
X243902623Y-85721414D01*
X243828265Y-85589523D01*
X243761598Y-85456472D01*
X243702621Y-85322261D01*
X243651336Y-85186890D01*
X243607741Y-85050358D01*
X243571837Y-84912665D01*
X243543624Y-84773812D01*
X243523102Y-84633799D01*
X243510270Y-84492626D01*
X243507998Y-84429737D01*
X244845326Y-84429737D01*
X244847143Y-84546369D01*
X244859069Y-84661817D01*
X244881104Y-84776081D01*
X244913248Y-84889161D01*
X244955502Y-85001057D01*
X245007865Y-85111769D01*
X245070338Y-85221297D01*
X245142920Y-85329642D01*
X245225611Y-85436802D01*
X245318412Y-85542778D01*
X245385895Y-85612771D01*
X245491067Y-85712296D01*
X245597392Y-85801682D01*
X245704871Y-85880927D01*
X245813504Y-85950033D01*
X245923290Y-86008999D01*
X246034230Y-86057826D01*
X246146324Y-86096513D01*
X246259571Y-86125060D01*
X246373971Y-86143467D01*
X246489526Y-86151735D01*
X246567203Y-86151613D01*
X246684230Y-86143229D01*
X246800862Y-86124554D01*
X246917099Y-86095587D01*
X247032942Y-86056328D01*
X247148390Y-86006778D01*
X247263443Y-85946937D01*
X247378102Y-85876804D01*
X247492366Y-85796379D01*
X247606236Y-85705663D01*
X247681929Y-85639468D01*
X247757448Y-85568699D01*
X247795141Y-85531599D01*
X251080005Y-82246736D01*
X251151826Y-82172580D01*
X251219195Y-82098209D01*
X251311899Y-81986247D01*
X251394586Y-81873799D01*
X251467254Y-81760866D01*
X251529903Y-81647447D01*
X251582535Y-81533542D01*
X251625148Y-81419151D01*
X251657743Y-81304275D01*
X251680319Y-81188913D01*
X251692877Y-81073065D01*
X251694837Y-81034341D01*
X251693871Y-80918559D01*
X251682552Y-80803718D01*
X251660881Y-80689818D01*
X251628858Y-80576860D01*
X251586483Y-80464842D01*
X251533755Y-80353766D01*
X251470676Y-80243630D01*
X251397244Y-80134436D01*
X251313459Y-80026183D01*
X251219323Y-79918871D01*
X251150814Y-79847852D01*
X251079796Y-79779344D01*
X250972484Y-79685207D01*
X250864230Y-79601423D01*
X250755036Y-79527991D01*
X250644901Y-79464911D01*
X250533824Y-79412184D01*
X250421807Y-79369808D01*
X250308848Y-79337785D01*
X250194948Y-79316114D01*
X250080107Y-79304796D01*
X249964325Y-79303829D01*
X249848316Y-79313048D01*
X249732792Y-79332285D01*
X249617754Y-79361541D01*
X249503201Y-79400814D01*
X249389134Y-79450106D01*
X249275553Y-79509417D01*
X249162458Y-79578745D01*
X249049848Y-79658092D01*
X248937725Y-79747457D01*
X248863245Y-79812600D01*
X248788982Y-79882195D01*
X248751931Y-79918662D01*
X245467067Y-83203526D01*
X245394004Y-83278949D01*
X245325502Y-83354535D01*
X245261561Y-83430283D01*
X245174199Y-83544208D01*
X245097099Y-83658497D01*
X245030260Y-83773151D01*
X244973682Y-83888169D01*
X244927365Y-84003551D01*
X244891309Y-84119298D01*
X244865515Y-84235409D01*
X244849981Y-84351884D01*
X244845326Y-84429737D01*
X243507998Y-84429737D01*
X243505129Y-84350292D01*
X243507747Y-84207972D01*
X243518190Y-84066839D01*
X243536459Y-83926893D01*
X243562554Y-83788135D01*
X243596475Y-83650564D01*
X243638221Y-83514180D01*
X243687793Y-83378984D01*
X243745191Y-83244975D01*
X243810414Y-83112153D01*
X243883463Y-82980519D01*
X243964338Y-82850072D01*
X244053039Y-82720813D01*
X244149565Y-82592741D01*
X244253917Y-82465856D01*
X244366095Y-82340159D01*
X244486098Y-82215649D01*
X247764054Y-78937693D01*
X247887309Y-78818944D01*
X248011833Y-78707940D01*
X248137625Y-78604681D01*
X248264685Y-78509167D01*
X248393013Y-78421397D01*
X248522610Y-78341372D01*
X248653475Y-78269092D01*
X248785609Y-78204557D01*
X248919010Y-78147766D01*
X249053680Y-78098721D01*
X249189619Y-78057420D01*
X249326825Y-78023864D01*
X249465300Y-77998052D01*
X249605043Y-77979986D01*
X249746055Y-77969664D01*
X249888335Y-77967087D01*
X250030669Y-77972227D01*
G37*
G36*
X254957249Y-85661129D02*
G01*
X253872657Y-86745721D01*
X253883019Y-86756083D01*
X253965682Y-86700339D01*
X254048736Y-86648817D01*
X254174051Y-86579453D01*
X254300246Y-86519591D01*
X254427321Y-86469232D01*
X254555277Y-86428374D01*
X254684113Y-86397019D01*
X254813829Y-86375166D01*
X254944426Y-86362815D01*
X255075904Y-86359966D01*
X255208261Y-86366620D01*
X255252576Y-86370950D01*
X255385065Y-86389858D01*
X255515703Y-86418086D01*
X255644488Y-86455634D01*
X255771422Y-86502503D01*
X255896504Y-86558691D01*
X256019734Y-86624200D01*
X256141112Y-86699028D01*
X256260638Y-86783177D01*
X256339294Y-86844453D01*
X256417126Y-86909872D01*
X256494135Y-86979434D01*
X256570321Y-87053137D01*
X256668791Y-87155978D01*
X256760406Y-87260708D01*
X256845166Y-87367327D01*
X256923073Y-87475835D01*
X256994125Y-87586231D01*
X257058323Y-87698517D01*
X257115667Y-87812692D01*
X257166156Y-87928756D01*
X257209791Y-88046708D01*
X257246572Y-88166550D01*
X257276499Y-88288280D01*
X257299571Y-88411900D01*
X257315790Y-88537409D01*
X257325153Y-88664806D01*
X257327663Y-88794092D01*
X257323318Y-88925268D01*
X257312045Y-89057003D01*
X257293770Y-89187970D01*
X257268491Y-89318167D01*
X257236210Y-89447595D01*
X257196926Y-89576254D01*
X257150640Y-89704144D01*
X257097350Y-89831265D01*
X257037059Y-89957617D01*
X256969764Y-90083199D01*
X256895467Y-90208013D01*
X256814167Y-90332058D01*
X256725864Y-90455333D01*
X256630559Y-90577840D01*
X256528251Y-90699577D01*
X256418941Y-90820545D01*
X256302627Y-90940744D01*
X254720642Y-92522729D01*
X254599209Y-92640318D01*
X254477127Y-92750863D01*
X254354398Y-92854365D01*
X254231022Y-92950824D01*
X254106997Y-93040239D01*
X253982325Y-93122612D01*
X253857006Y-93197941D01*
X253731038Y-93266228D01*
X253604423Y-93327471D01*
X253477161Y-93381671D01*
X253349251Y-93428827D01*
X253220693Y-93468941D01*
X253091487Y-93502011D01*
X252961634Y-93528039D01*
X252831133Y-93547023D01*
X252699985Y-93558964D01*
X252569396Y-93563895D01*
X252440575Y-93561851D01*
X252313522Y-93552831D01*
X252188236Y-93536836D01*
X252064718Y-93513865D01*
X251942967Y-93483918D01*
X251822984Y-93446995D01*
X251704768Y-93403097D01*
X251588320Y-93352223D01*
X251473639Y-93294373D01*
X251360726Y-93229548D01*
X251249580Y-93157747D01*
X251140202Y-93078970D01*
X251032592Y-92993217D01*
X250926749Y-92900489D01*
X250822673Y-92800785D01*
X250749955Y-92725665D01*
X250681189Y-92649695D01*
X250616377Y-92572875D01*
X250555519Y-92495204D01*
X250471644Y-92377105D01*
X250396663Y-92257093D01*
X250330578Y-92135168D01*
X250273388Y-92011331D01*
X250225093Y-91885581D01*
X250185692Y-91757919D01*
X250155187Y-91628344D01*
X250133577Y-91496857D01*
X250121677Y-91365051D01*
X250119005Y-91234519D01*
X250125562Y-91105263D01*
X250141349Y-90977282D01*
X250166364Y-90850576D01*
X250200609Y-90725145D01*
X250244082Y-90600990D01*
X250296784Y-90478109D01*
X250332076Y-90408810D01*
X250845125Y-90408810D01*
X250845833Y-90528038D01*
X250856378Y-90645444D01*
X250876758Y-90761029D01*
X250906975Y-90874792D01*
X250947028Y-90986734D01*
X250996917Y-91096854D01*
X251056642Y-91205153D01*
X251126204Y-91311630D01*
X251205601Y-91416286D01*
X251294835Y-91519120D01*
X251359788Y-91586664D01*
X251463199Y-91684337D01*
X251568128Y-91772053D01*
X251674575Y-91849811D01*
X251782539Y-91917611D01*
X251892022Y-91975454D01*
X252003023Y-92023340D01*
X252115541Y-92061267D01*
X252229578Y-92089238D01*
X252345132Y-92107250D01*
X252462204Y-92115305D01*
X252541096Y-92115144D01*
X252660065Y-92106668D01*
X252778640Y-92087720D01*
X252896821Y-92058297D01*
X253014606Y-92018401D01*
X253131997Y-91968032D01*
X253248994Y-91907188D01*
X253365595Y-91835871D01*
X253481802Y-91754081D01*
X253559054Y-91693735D01*
X253636131Y-91628734D01*
X253713032Y-91559078D01*
X253789758Y-91484767D01*
X255264666Y-90009860D01*
X255337722Y-89934389D01*
X255406203Y-89858662D01*
X255470111Y-89782678D01*
X255557397Y-89668221D01*
X255634391Y-89553188D01*
X255701093Y-89437578D01*
X255757504Y-89321392D01*
X255803624Y-89204628D01*
X255839452Y-89087288D01*
X255864989Y-88969370D01*
X255880234Y-88850876D01*
X255884679Y-88771560D01*
X255883263Y-88653476D01*
X255871888Y-88536909D01*
X255850556Y-88421861D01*
X255819267Y-88308330D01*
X255778020Y-88196318D01*
X255726815Y-88085823D01*
X255665653Y-87976847D01*
X255594534Y-87869388D01*
X255513456Y-87763447D01*
X255422422Y-87659024D01*
X255356200Y-87590252D01*
X255254580Y-87494461D01*
X255151139Y-87408506D01*
X255045876Y-87332388D01*
X254938791Y-87266105D01*
X254829886Y-87209659D01*
X254719158Y-87163048D01*
X254606609Y-87126274D01*
X254492239Y-87099336D01*
X254376047Y-87082234D01*
X254258034Y-87074968D01*
X254178346Y-87075589D01*
X254058850Y-87085208D01*
X253939992Y-87104996D01*
X253821771Y-87134955D01*
X253704188Y-87175084D01*
X253587242Y-87225383D01*
X253470934Y-87285852D01*
X253355263Y-87356491D01*
X253240230Y-87437300D01*
X253125834Y-87528279D01*
X253049925Y-87594582D01*
X252974299Y-87665405D01*
X252936592Y-87702511D01*
X251472047Y-89167056D01*
X251398964Y-89242541D01*
X251330401Y-89318308D01*
X251266358Y-89394360D01*
X251178769Y-89508968D01*
X251101350Y-89624214D01*
X251034101Y-89740097D01*
X250977022Y-89856618D01*
X250930113Y-89973776D01*
X250893375Y-90091572D01*
X250866806Y-90210005D01*
X250850407Y-90329076D01*
X250845125Y-90408810D01*
X250332076Y-90408810D01*
X250358715Y-90356503D01*
X250429875Y-90236172D01*
X250482443Y-90156660D01*
X250461718Y-90135935D01*
X249245869Y-91393233D01*
X247672520Y-92966583D01*
X246688097Y-91982160D01*
X253983189Y-84687068D01*
X254957249Y-85661129D01*
G37*
G36*
X260048325Y-91613953D02*
G01*
X260189851Y-91624371D01*
X260331529Y-91642469D01*
X260473359Y-91668249D01*
X260615340Y-91701709D01*
X260710079Y-91728283D01*
X260804662Y-91758034D01*
X260898436Y-91791158D01*
X260991400Y-91827656D01*
X261083555Y-91867527D01*
X261174900Y-91910771D01*
X261265436Y-91957388D01*
X261355162Y-92007378D01*
X261444078Y-92060741D01*
X261532185Y-92117478D01*
X261619482Y-92177587D01*
X261705970Y-92241070D01*
X261791649Y-92307926D01*
X261876517Y-92378156D01*
X261960576Y-92451758D01*
X262043826Y-92528733D01*
X262126266Y-92609082D01*
X262206621Y-92691515D01*
X262283617Y-92774745D01*
X262357253Y-92858770D01*
X262427530Y-92943592D01*
X262494446Y-93029209D01*
X262558003Y-93115623D01*
X262618201Y-93202832D01*
X262675039Y-93290838D01*
X262728517Y-93379640D01*
X262778635Y-93469238D01*
X262825394Y-93559632D01*
X262868793Y-93650822D01*
X262908832Y-93742808D01*
X262945512Y-93835590D01*
X262978832Y-93929168D01*
X263008792Y-94023542D01*
X263035582Y-94118052D01*
X263069366Y-94259638D01*
X263095469Y-94401012D01*
X263113892Y-94542174D01*
X263124634Y-94683123D01*
X263127695Y-94823860D01*
X263123075Y-94964384D01*
X263110775Y-95104696D01*
X263090794Y-95244795D01*
X263063132Y-95384681D01*
X263027790Y-95524356D01*
X262985506Y-95662937D01*
X262935723Y-95799545D01*
X262878442Y-95934179D01*
X262836088Y-96022839D01*
X262790402Y-96110622D01*
X262741384Y-96197529D01*
X262689032Y-96283558D01*
X262633348Y-96368710D01*
X262574331Y-96452985D01*
X262511982Y-96536383D01*
X262446300Y-96618904D01*
X262377285Y-96700548D01*
X262304937Y-96781315D01*
X262229257Y-96861204D01*
X262190167Y-96900821D01*
X261209198Y-97881789D01*
X257817257Y-94489848D01*
X257330227Y-94976878D01*
X257253204Y-95056343D01*
X257181025Y-95135848D01*
X257113690Y-95215394D01*
X257051199Y-95294981D01*
X256993552Y-95374607D01*
X256916163Y-95494124D01*
X256849673Y-95613731D01*
X256794081Y-95733429D01*
X256749389Y-95853218D01*
X256715595Y-95973099D01*
X256692699Y-96093070D01*
X256680703Y-96213133D01*
X256679126Y-96253174D01*
X256682126Y-96372842D01*
X256695661Y-96491569D01*
X256719730Y-96609354D01*
X256754334Y-96726199D01*
X256799472Y-96842102D01*
X256855144Y-96957065D01*
X256921351Y-97071086D01*
X256998092Y-97184166D01*
X257085367Y-97296305D01*
X257149403Y-97370541D01*
X257218121Y-97444360D01*
X257254236Y-97481112D01*
X257347270Y-97571110D01*
X257439848Y-97654580D01*
X257531970Y-97731523D01*
X257623638Y-97801940D01*
X257714850Y-97865829D01*
X257805606Y-97923191D01*
X257895907Y-97974027D01*
X257985753Y-98018335D01*
X258104839Y-98067259D01*
X258223116Y-98104580D01*
X258340690Y-98129541D01*
X258456808Y-98142251D01*
X258571468Y-98142710D01*
X258684672Y-98130917D01*
X258796418Y-98106874D01*
X258906707Y-98070578D01*
X259015538Y-98022032D01*
X259122913Y-97961234D01*
X260096973Y-98935295D01*
X259993458Y-99010341D01*
X259888431Y-99079180D01*
X259781893Y-99141813D01*
X259673844Y-99198239D01*
X259564284Y-99248459D01*
X259453212Y-99292472D01*
X259340630Y-99330278D01*
X259226536Y-99361878D01*
X259110931Y-99387271D01*
X258993815Y-99406457D01*
X258875188Y-99419437D01*
X258755049Y-99426211D01*
X258633400Y-99426777D01*
X258510239Y-99421137D01*
X258385567Y-99409291D01*
X258259384Y-99391238D01*
X258133032Y-99367363D01*
X258007854Y-99338050D01*
X257883850Y-99303299D01*
X257761020Y-99263112D01*
X257639363Y-99217486D01*
X257518881Y-99166423D01*
X257399572Y-99109923D01*
X257281437Y-99047985D01*
X257164476Y-98980610D01*
X257048689Y-98907797D01*
X256934076Y-98829546D01*
X256820637Y-98745858D01*
X256708371Y-98656732D01*
X256597280Y-98562169D01*
X256487362Y-98462168D01*
X256378618Y-98356730D01*
X256298262Y-98274297D01*
X256221267Y-98191068D01*
X256147631Y-98107042D01*
X256077354Y-98022221D01*
X256010437Y-97936603D01*
X255946880Y-97850190D01*
X255886683Y-97762980D01*
X255829845Y-97674974D01*
X255776367Y-97586172D01*
X255726249Y-97496574D01*
X255679490Y-97406181D01*
X255636091Y-97314991D01*
X255596052Y-97223004D01*
X255559372Y-97130222D01*
X255526052Y-97036644D01*
X255496091Y-96942270D01*
X255469720Y-96847329D01*
X255436513Y-96705095D01*
X255410926Y-96563073D01*
X255392959Y-96421263D01*
X255382612Y-96279667D01*
X255379884Y-96138282D01*
X255384777Y-95997111D01*
X255397290Y-95856151D01*
X255417423Y-95715405D01*
X255445175Y-95574870D01*
X255480548Y-95434549D01*
X255524188Y-95295229D01*
X255557515Y-95203344D01*
X255594228Y-95112255D01*
X255634328Y-95021962D01*
X255677815Y-94932465D01*
X255724689Y-94843765D01*
X255774949Y-94755860D01*
X255828596Y-94668752D01*
X255885629Y-94582439D01*
X255946049Y-94496923D01*
X256009856Y-94412203D01*
X256077049Y-94328279D01*
X256147629Y-94245150D01*
X256221596Y-94162818D01*
X256298949Y-94081282D01*
X256338896Y-94040813D01*
X256553051Y-93826658D01*
X258480447Y-93826658D01*
X260917326Y-96263536D01*
X261185020Y-95995842D01*
X261260592Y-95917828D01*
X261331442Y-95839651D01*
X261397569Y-95761313D01*
X261458974Y-95682813D01*
X261542227Y-95564759D01*
X261614855Y-95446341D01*
X261676857Y-95327559D01*
X261728233Y-95208412D01*
X261768984Y-95088901D01*
X261799110Y-94969025D01*
X261818610Y-94848786D01*
X261827485Y-94728182D01*
X261825937Y-94607497D01*
X261813520Y-94487662D01*
X261790235Y-94368677D01*
X261756082Y-94250542D01*
X261711060Y-94133258D01*
X261655171Y-94016823D01*
X261588412Y-93901238D01*
X261510786Y-93786504D01*
X261422291Y-93672619D01*
X261357256Y-93597168D01*
X261287392Y-93522095D01*
X261250648Y-93484700D01*
X261175777Y-93412434D01*
X261100556Y-93345025D01*
X261024983Y-93282473D01*
X260910967Y-93197752D01*
X260796162Y-93123961D01*
X260680567Y-93061099D01*
X260564183Y-93009166D01*
X260447009Y-92968162D01*
X260329047Y-92938087D01*
X260210294Y-92918940D01*
X260090753Y-92910723D01*
X260010620Y-92911317D01*
X259890942Y-92921118D01*
X259771537Y-92941453D01*
X259652406Y-92972322D01*
X259533548Y-93013726D01*
X259414962Y-93065665D01*
X259296651Y-93128137D01*
X259178612Y-93201144D01*
X259060846Y-93284685D01*
X258982488Y-93346232D01*
X258904251Y-93412461D01*
X258826135Y-93483371D01*
X258748141Y-93558964D01*
X258480447Y-93826658D01*
X256553051Y-93826658D01*
X257820711Y-92558997D01*
X257900587Y-92481212D01*
X257981327Y-92406746D01*
X258062931Y-92335600D01*
X258145398Y-92267772D01*
X258228728Y-92203264D01*
X258312923Y-92142075D01*
X258397980Y-92084205D01*
X258483901Y-92029654D01*
X258570686Y-91978423D01*
X258658334Y-91930510D01*
X258746846Y-91885917D01*
X258836221Y-91844643D01*
X258926460Y-91806688D01*
X259063437Y-91755980D01*
X259202357Y-91712739D01*
X259342972Y-91677073D01*
X259483739Y-91649088D01*
X259624658Y-91628783D01*
X259765729Y-91616159D01*
X259906951Y-91611215D01*
X260048325Y-91613953D01*
G37*
G36*
X260314582Y-102071631D02*
G01*
X265841167Y-96545047D01*
X266815228Y-97519107D01*
X265696094Y-98638241D01*
X265716819Y-98658965D01*
X265799225Y-98596245D01*
X265881942Y-98538044D01*
X265964969Y-98484364D01*
X266090091Y-98412318D01*
X266215912Y-98350443D01*
X266342431Y-98298737D01*
X266469648Y-98257202D01*
X266597563Y-98225836D01*
X266726176Y-98204641D01*
X266855488Y-98193616D01*
X266985498Y-98192761D01*
X267072559Y-98197841D01*
X267203070Y-98213536D01*
X267332306Y-98239250D01*
X267460267Y-98274982D01*
X267586953Y-98320732D01*
X267712363Y-98376500D01*
X267836499Y-98442287D01*
X267959360Y-98518092D01*
X268040558Y-98574194D01*
X268121190Y-98634749D01*
X268201256Y-98699757D01*
X268280754Y-98769217D01*
X268359686Y-98843130D01*
X268398940Y-98881756D01*
X268497510Y-98984414D01*
X268589429Y-99088598D01*
X268674695Y-99194306D01*
X268753310Y-99301539D01*
X268825273Y-99410296D01*
X268890584Y-99520578D01*
X268949244Y-99632385D01*
X269001251Y-99745716D01*
X269046607Y-99860572D01*
X269085310Y-99976953D01*
X269117362Y-100094859D01*
X269142762Y-100214289D01*
X269161510Y-100335243D01*
X269173606Y-100457723D01*
X269179050Y-100581727D01*
X269177843Y-100707256D01*
X269170199Y-100833270D01*
X269155904Y-100958300D01*
X269134956Y-101082344D01*
X269107357Y-101205404D01*
X269073106Y-101327479D01*
X269032203Y-101448568D01*
X268984648Y-101568673D01*
X268930442Y-101687793D01*
X268869583Y-101805928D01*
X268802073Y-101923077D01*
X268727910Y-102039242D01*
X268647096Y-102154422D01*
X268559630Y-102268617D01*
X268465512Y-102381827D01*
X268364743Y-102494052D01*
X268257321Y-102605292D01*
X264552782Y-106309831D01*
X263566632Y-105323681D01*
X267152004Y-101738309D01*
X267220209Y-101667770D01*
X267314371Y-101561353D01*
X267398757Y-101454208D01*
X267473368Y-101346335D01*
X267538204Y-101237732D01*
X267593264Y-101128401D01*
X267638549Y-101018342D01*
X267674058Y-100907554D01*
X267699792Y-100796037D01*
X267715750Y-100683792D01*
X267721933Y-100570818D01*
X267719231Y-100458239D01*
X267707240Y-100347178D01*
X267685958Y-100237634D01*
X267655387Y-100129609D01*
X267615527Y-100023101D01*
X267566376Y-99918112D01*
X267507936Y-99814640D01*
X267440207Y-99712686D01*
X267363187Y-99612251D01*
X267276878Y-99513333D01*
X267214178Y-99448231D01*
X267112604Y-99352394D01*
X267009299Y-99266303D01*
X266904264Y-99189956D01*
X266797498Y-99123355D01*
X266689002Y-99066499D01*
X266578776Y-99019387D01*
X266466819Y-98982021D01*
X266353132Y-98954400D01*
X266237714Y-98936524D01*
X266120566Y-98928393D01*
X266041506Y-98928386D01*
X265922936Y-98937079D01*
X265804912Y-98956033D01*
X265687435Y-98985248D01*
X265570505Y-99024724D01*
X265454121Y-99074461D01*
X265338283Y-99134459D01*
X265222992Y-99204719D01*
X265108247Y-99285240D01*
X264994049Y-99376021D01*
X264918220Y-99442243D01*
X264842634Y-99513026D01*
X264804933Y-99550127D01*
X261299005Y-103056054D01*
X260314582Y-102071631D01*
G37*
G36*
X272212283Y-113969332D02*
G01*
X279507375Y-106674240D01*
X283845744Y-111012609D01*
X282970126Y-111888228D01*
X279597182Y-108515284D01*
X277267381Y-110845085D01*
X280381266Y-113958970D01*
X279505648Y-114834588D01*
X276410761Y-111739701D01*
X273196706Y-114953755D01*
X272212283Y-113969332D01*
G37*
G36*
X278286345Y-120043394D02*
G01*
X283812930Y-114516809D01*
X284786991Y-115490870D01*
X283712761Y-116565100D01*
X283733485Y-116585825D01*
X283813153Y-116525884D01*
X283933488Y-116444346D01*
X284054826Y-116372857D01*
X284177165Y-116311416D01*
X284300507Y-116260025D01*
X284424850Y-116218681D01*
X284550195Y-116187387D01*
X284676541Y-116166141D01*
X284803890Y-116154944D01*
X284932240Y-116153795D01*
X285061593Y-116162695D01*
X285190869Y-116181477D01*
X285318992Y-116209974D01*
X285445961Y-116248185D01*
X285571776Y-116296111D01*
X285696438Y-116353751D01*
X285819946Y-116421106D01*
X285942301Y-116498176D01*
X286023230Y-116554953D01*
X286103646Y-116616048D01*
X286183549Y-116681460D01*
X286262940Y-116751190D01*
X286341818Y-116825238D01*
X286381065Y-116863881D01*
X286483150Y-116970297D01*
X286578273Y-117078414D01*
X286666434Y-117188230D01*
X286747633Y-117299747D01*
X286821869Y-117412964D01*
X286889144Y-117527881D01*
X286949456Y-117644497D01*
X287002806Y-117762814D01*
X287049193Y-117882831D01*
X287088619Y-118004549D01*
X287121082Y-118127966D01*
X287146583Y-118253083D01*
X287165122Y-118379900D01*
X287176699Y-118508418D01*
X287181313Y-118638635D01*
X287178965Y-118770553D01*
X287169656Y-118902834D01*
X287153383Y-119034145D01*
X287130149Y-119164484D01*
X287099953Y-119293851D01*
X287062794Y-119422247D01*
X287018673Y-119549672D01*
X286967590Y-119676125D01*
X286909544Y-119801606D01*
X286844537Y-119926116D01*
X286772567Y-120049655D01*
X286693635Y-120172222D01*
X286607741Y-120293818D01*
X286514885Y-120414442D01*
X286415066Y-120534094D01*
X286308286Y-120652776D01*
X286194543Y-120770485D01*
X285790411Y-121174617D01*
X284795626Y-120179832D01*
X285116859Y-119858599D01*
X285188693Y-119784389D01*
X285256103Y-119709856D01*
X285319086Y-119634999D01*
X285405264Y-119522106D01*
X285481484Y-119408485D01*
X285547746Y-119294134D01*
X285604051Y-119179056D01*
X285650398Y-119063248D01*
X285686788Y-118946713D01*
X285713220Y-118829448D01*
X285729694Y-118711455D01*
X285735145Y-118632388D01*
X285734923Y-118513646D01*
X285723892Y-118395754D01*
X285702055Y-118278712D01*
X285669409Y-118162520D01*
X285625956Y-118047179D01*
X285571695Y-117932687D01*
X285506627Y-117819045D01*
X285430751Y-117706253D01*
X285344068Y-117594312D01*
X285280275Y-117520156D01*
X285211678Y-117446378D01*
X285175579Y-117409631D01*
X285103992Y-117340537D01*
X284960039Y-117216526D01*
X284815047Y-117111419D01*
X284669016Y-117025214D01*
X284521946Y-116957913D01*
X284373838Y-116909515D01*
X284224690Y-116880020D01*
X284074503Y-116869428D01*
X283923278Y-116877740D01*
X283771013Y-116904954D01*
X283617710Y-116951072D01*
X283463368Y-117016093D01*
X283307987Y-117100017D01*
X283151566Y-117202845D01*
X283072967Y-117261347D01*
X282994107Y-117324575D01*
X282914988Y-117392529D01*
X282835609Y-117465209D01*
X282755971Y-117542615D01*
X279270768Y-121027817D01*
X278286345Y-120043394D01*
G37*
G36*
X289631214Y-121276923D02*
G01*
X289754899Y-121283718D01*
X289878858Y-121296434D01*
X290003089Y-121315069D01*
X290127594Y-121339624D01*
X290252373Y-121370098D01*
X290377424Y-121406493D01*
X290502749Y-121448808D01*
X290586450Y-121480306D01*
X290711983Y-121532381D01*
X290835997Y-121590163D01*
X290958493Y-121653653D01*
X291079471Y-121722850D01*
X291198932Y-121797754D01*
X291316874Y-121878366D01*
X291433299Y-121964685D01*
X291510072Y-122025402D01*
X291586171Y-122088656D01*
X291661594Y-122154446D01*
X291736344Y-122222772D01*
X291810418Y-122293636D01*
X291847203Y-122330019D01*
X291963098Y-122449813D01*
X292072017Y-122570430D01*
X292173961Y-122691871D01*
X292268928Y-122814134D01*
X292356921Y-122937221D01*
X292437937Y-123061131D01*
X292511978Y-123185863D01*
X292579043Y-123311419D01*
X292639133Y-123437798D01*
X292692247Y-123565000D01*
X292738385Y-123693025D01*
X292777547Y-123821873D01*
X292809734Y-123951544D01*
X292834945Y-124082038D01*
X292853180Y-124213355D01*
X292864440Y-124345495D01*
X292869081Y-124477210D01*
X292866598Y-124607252D01*
X292856992Y-124735621D01*
X292840261Y-124862317D01*
X292816406Y-124987340D01*
X292785427Y-125110690D01*
X292747323Y-125232366D01*
X292702096Y-125352370D01*
X292649745Y-125470700D01*
X292590269Y-125587357D01*
X292523669Y-125702342D01*
X292449946Y-125815653D01*
X292369098Y-125927291D01*
X292281126Y-126037256D01*
X292186030Y-126145548D01*
X292083809Y-126252167D01*
X288289464Y-130046513D01*
X287324038Y-129081087D01*
X288341275Y-128063850D01*
X288330913Y-128053488D01*
X288218445Y-128133371D01*
X288103184Y-128202690D01*
X287985130Y-128261443D01*
X287864284Y-128309632D01*
X287740644Y-128347256D01*
X287614211Y-128374316D01*
X287484985Y-128390811D01*
X287352967Y-128396741D01*
X287218155Y-128392106D01*
X287080550Y-128376906D01*
X286987262Y-128360904D01*
X286847193Y-128328861D01*
X286708066Y-128287133D01*
X286615837Y-128253935D01*
X286524026Y-128216432D01*
X286432634Y-128174625D01*
X286341660Y-128128514D01*
X286251104Y-128078099D01*
X286160966Y-128023379D01*
X286071247Y-127964356D01*
X285981946Y-127901028D01*
X285893063Y-127833396D01*
X285804599Y-127761460D01*
X285716552Y-127685220D01*
X285628924Y-127604676D01*
X285541715Y-127519827D01*
X285436749Y-127411394D01*
X285338165Y-127302407D01*
X285245963Y-127192867D01*
X285160143Y-127082774D01*
X285080705Y-126972127D01*
X285007649Y-126860928D01*
X284940975Y-126749175D01*
X284880683Y-126636869D01*
X284826774Y-126524010D01*
X284779246Y-126410597D01*
X284738100Y-126296632D01*
X284703336Y-126182113D01*
X284674954Y-126067041D01*
X284652955Y-125951416D01*
X284640007Y-125855099D01*
X286001132Y-125855099D01*
X286004566Y-125924026D01*
X286017003Y-126027821D01*
X286038122Y-126131313D01*
X286067924Y-126234501D01*
X286106409Y-126337386D01*
X286153576Y-126439967D01*
X286209425Y-126542245D01*
X286273957Y-126644219D01*
X286347171Y-126745889D01*
X286429068Y-126847256D01*
X286519648Y-126948319D01*
X286584858Y-127015526D01*
X286659755Y-127087995D01*
X286735489Y-127156443D01*
X286812060Y-127220871D01*
X286889467Y-127281277D01*
X287007147Y-127364348D01*
X287126709Y-127438372D01*
X287248152Y-127503349D01*
X287371478Y-127559280D01*
X287496687Y-127606163D01*
X287623777Y-127644000D01*
X287752750Y-127672790D01*
X287883605Y-127692533D01*
X288014151Y-127702728D01*
X288140903Y-127702875D01*
X288263860Y-127692973D01*
X288383022Y-127673023D01*
X288498389Y-127643023D01*
X288609961Y-127602975D01*
X288717739Y-127552879D01*
X288821721Y-127492734D01*
X288921909Y-127422540D01*
X289018302Y-127342298D01*
X289080456Y-127283220D01*
X289845543Y-126518134D01*
X288273920Y-124946511D01*
X288191446Y-124868348D01*
X288107880Y-124797714D01*
X288023220Y-124734609D01*
X287937468Y-124679033D01*
X287850622Y-124630986D01*
X287733128Y-124578634D01*
X287613692Y-124539668D01*
X287492312Y-124514086D01*
X287368989Y-124501888D01*
X287337855Y-124500930D01*
X287214343Y-124505437D01*
X287093368Y-124523274D01*
X286974930Y-124554442D01*
X286859028Y-124598941D01*
X286745663Y-124656770D01*
X286662304Y-124708891D01*
X286580371Y-124768509D01*
X286499866Y-124835627D01*
X286420787Y-124910243D01*
X286339067Y-124997215D01*
X286266182Y-125085856D01*
X286202131Y-125176168D01*
X286146914Y-125268149D01*
X286100531Y-125361799D01*
X286062983Y-125457120D01*
X286034269Y-125554110D01*
X286014389Y-125652770D01*
X286003343Y-125753099D01*
X286001132Y-125855099D01*
X284640007Y-125855099D01*
X284637337Y-125835237D01*
X284628101Y-125718506D01*
X284625416Y-125601983D01*
X284629019Y-125486864D01*
X284638909Y-125373148D01*
X284655087Y-125260836D01*
X284677552Y-125149926D01*
X284706305Y-125040420D01*
X284741345Y-124932317D01*
X284782673Y-124825617D01*
X284830288Y-124720320D01*
X284884192Y-124616427D01*
X284944382Y-124513937D01*
X285010860Y-124412850D01*
X285083626Y-124313167D01*
X285162680Y-124214886D01*
X285248021Y-124118009D01*
X285339649Y-124022535D01*
X285437700Y-123928478D01*
X285537127Y-123841032D01*
X285637931Y-123760198D01*
X285740111Y-123685975D01*
X285843667Y-123618363D01*
X285948599Y-123557363D01*
X286054907Y-123502974D01*
X286162592Y-123455197D01*
X286271653Y-123414031D01*
X286382090Y-123379476D01*
X286493904Y-123351533D01*
X286607094Y-123330201D01*
X286721660Y-123315480D01*
X286837602Y-123307371D01*
X286954920Y-123305874D01*
X287073615Y-123310987D01*
X287193146Y-123322605D01*
X287312111Y-123340617D01*
X287430509Y-123365025D01*
X287548340Y-123395829D01*
X287665604Y-123433028D01*
X287782302Y-123476623D01*
X287898433Y-123526613D01*
X288013998Y-123582999D01*
X288128996Y-123645780D01*
X288243427Y-123714957D01*
X288357291Y-123790529D01*
X288470589Y-123872497D01*
X288583320Y-123960860D01*
X288695484Y-124055619D01*
X288807082Y-124156773D01*
X288918113Y-124264323D01*
X290508733Y-125854943D01*
X291037212Y-125326464D01*
X291124346Y-125234169D01*
X291202464Y-125140569D01*
X291271564Y-125045663D01*
X291331649Y-124949452D01*
X291382717Y-124851936D01*
X291424768Y-124753114D01*
X291457803Y-124652987D01*
X291481822Y-124551555D01*
X291496824Y-124448817D01*
X291502810Y-124344773D01*
X291501791Y-124274686D01*
X291493225Y-124169823D01*
X291475946Y-124065718D01*
X291449954Y-123962373D01*
X291415249Y-123859787D01*
X291371832Y-123757960D01*
X291319701Y-123656891D01*
X291258858Y-123556582D01*
X291189302Y-123457032D01*
X291111032Y-123358240D01*
X291024050Y-123260208D01*
X290961222Y-123195275D01*
X290872980Y-123110706D01*
X290783767Y-123032513D01*
X290693582Y-122960695D01*
X290602426Y-122895252D01*
X290510298Y-122836185D01*
X290417199Y-122783493D01*
X290323128Y-122737176D01*
X290228086Y-122697234D01*
X290132072Y-122663668D01*
X290035087Y-122636477D01*
X289969891Y-122621891D01*
X289873113Y-122605725D01*
X289747240Y-122594324D01*
X289624984Y-122594527D01*
X289506343Y-122606333D01*
X289391318Y-122629742D01*
X289279909Y-122664756D01*
X289172117Y-122711373D01*
X289067940Y-122769594D01*
X289042461Y-122785962D01*
X288077036Y-121820537D01*
X288177836Y-121739004D01*
X288280761Y-121664089D01*
X288385811Y-121595793D01*
X288492987Y-121534115D01*
X288602287Y-121479055D01*
X288713713Y-121430613D01*
X288827263Y-121388789D01*
X288942939Y-121353583D01*
X289060740Y-121324996D01*
X289180666Y-121303026D01*
X289261797Y-121292057D01*
X289384663Y-121281092D01*
X289507802Y-121276048D01*
X289631214Y-121276923D01*
G37*
G36*
X289676291Y-131433340D02*
G01*
X295202876Y-125906755D01*
X296049134Y-126753013D01*
X295297864Y-127504284D01*
X295356584Y-127563004D01*
X295440788Y-127504776D01*
X295525660Y-127452499D01*
X295639862Y-127392052D01*
X295755251Y-127342183D01*
X295871827Y-127302892D01*
X295989591Y-127274180D01*
X296108542Y-127256046D01*
X296228681Y-127248490D01*
X296289195Y-127248679D01*
X296408929Y-127256694D01*
X296524615Y-127275556D01*
X296636253Y-127305267D01*
X296743843Y-127345826D01*
X296847386Y-127397233D01*
X296946880Y-127459488D01*
X297042327Y-127532591D01*
X297133726Y-127616542D01*
X297210715Y-127700817D01*
X297277612Y-127789572D01*
X297334416Y-127882806D01*
X297381127Y-127980520D01*
X297417746Y-128082713D01*
X297444273Y-128189386D01*
X297460707Y-128300538D01*
X297467048Y-128416170D01*
X297464566Y-128534581D01*
X297452800Y-128654072D01*
X297431752Y-128774642D01*
X297401420Y-128896292D01*
X297361806Y-129019021D01*
X297326003Y-129111776D01*
X297284979Y-129205139D01*
X297238733Y-129299108D01*
X297187265Y-129393685D01*
X297237350Y-129443769D01*
X297321584Y-129385572D01*
X297406547Y-129333386D01*
X297520965Y-129273155D01*
X297636678Y-129223610D01*
X297753686Y-129184751D01*
X297871989Y-129156579D01*
X297991588Y-129139092D01*
X298112482Y-129132292D01*
X298173415Y-129132899D01*
X298294552Y-129142317D01*
X298411857Y-129162799D01*
X298525330Y-129194345D01*
X298634971Y-129236954D01*
X298740780Y-129290628D01*
X298842758Y-129355366D01*
X298940903Y-129431167D01*
X299035217Y-129518033D01*
X299121511Y-129611309D01*
X299197756Y-129708502D01*
X299263952Y-129809611D01*
X299320100Y-129914636D01*
X299366200Y-130023577D01*
X299402250Y-130136434D01*
X299428252Y-130253208D01*
X299444206Y-130373898D01*
X299450110Y-130498504D01*
X299445966Y-130627027D01*
X299437621Y-130714884D01*
X299417220Y-130847631D01*
X299387105Y-130979043D01*
X299347275Y-131109119D01*
X299297730Y-131237859D01*
X299238470Y-131365263D01*
X299169496Y-131491331D01*
X299118116Y-131574635D01*
X299062418Y-131657345D01*
X299002403Y-131739461D01*
X298938070Y-131820983D01*
X298869419Y-131901912D01*
X298796451Y-131982247D01*
X298719165Y-132061989D01*
X294512053Y-136269102D01*
X293615710Y-135372759D01*
X297796916Y-131191552D01*
X297877353Y-131106771D01*
X297948115Y-131022975D01*
X298009203Y-130940164D01*
X298082696Y-130817794D01*
X298134421Y-130697640D01*
X298164380Y-130579703D01*
X298172572Y-130463982D01*
X298158996Y-130350476D01*
X298123654Y-130239187D01*
X298066545Y-130130115D01*
X297987669Y-130023258D01*
X297922992Y-129953251D01*
X297834463Y-129873324D01*
X297743742Y-129808408D01*
X297650828Y-129758502D01*
X297555722Y-129723607D01*
X297458423Y-129703722D01*
X297358932Y-129698848D01*
X297318521Y-129701101D01*
X297217386Y-129716660D01*
X297115828Y-129747145D01*
X297013849Y-129792556D01*
X296911449Y-129852893D01*
X296829224Y-129911910D01*
X296746730Y-129980480D01*
X296663967Y-130058602D01*
X292482760Y-134239809D01*
X291705584Y-133462633D01*
X295886791Y-129281426D01*
X295962484Y-129200929D01*
X296028949Y-129120054D01*
X296086185Y-129038801D01*
X296144751Y-128936704D01*
X296188898Y-128834017D01*
X296218623Y-128730739D01*
X296233929Y-128626871D01*
X296235312Y-128523770D01*
X296222191Y-128423874D01*
X296194564Y-128327183D01*
X296152434Y-128233696D01*
X296095798Y-128143413D01*
X296024658Y-128056335D01*
X295992141Y-128022401D01*
X295886762Y-127929013D01*
X295779167Y-127857393D01*
X295669355Y-127807539D01*
X295557327Y-127779452D01*
X295443083Y-127773133D01*
X295326623Y-127788580D01*
X295207947Y-127825795D01*
X295087055Y-127884776D01*
X294963946Y-127965524D01*
X294880643Y-128031449D01*
X294796354Y-128107049D01*
X294753841Y-128148476D01*
X290572634Y-132329683D01*
X289676291Y-131433340D01*
G37*
G36*
X301587518Y-133153145D02*
G01*
X301729044Y-133163563D01*
X301870722Y-133181662D01*
X302012551Y-133207441D01*
X302154533Y-133240901D01*
X302249271Y-133267475D01*
X302343855Y-133297227D01*
X302437629Y-133330351D01*
X302530593Y-133366849D01*
X302622748Y-133406719D01*
X302714093Y-133449963D01*
X302804628Y-133496580D01*
X302894354Y-133546570D01*
X302983271Y-133599934D01*
X303071378Y-133656670D01*
X303158675Y-133716780D01*
X303245163Y-133780263D01*
X303330841Y-133847119D01*
X303415710Y-133917348D01*
X303499769Y-133990951D01*
X303583019Y-134067926D01*
X303665459Y-134148275D01*
X303745814Y-134230708D01*
X303822810Y-134313937D01*
X303896446Y-134397963D01*
X303966722Y-134482784D01*
X304033639Y-134568402D01*
X304097196Y-134654815D01*
X304157393Y-134742025D01*
X304214231Y-134830031D01*
X304267709Y-134918833D01*
X304317828Y-135008430D01*
X304364586Y-135098824D01*
X304407986Y-135190014D01*
X304448025Y-135282000D01*
X304484705Y-135374783D01*
X304518025Y-135468361D01*
X304547985Y-135562735D01*
X304574775Y-135657244D01*
X304608559Y-135798831D01*
X304634662Y-135940205D01*
X304653084Y-136081367D01*
X304663826Y-136222316D01*
X304666887Y-136363053D01*
X304662268Y-136503577D01*
X304649968Y-136643888D01*
X304629987Y-136783987D01*
X304602325Y-136923874D01*
X304566983Y-137063548D01*
X304524699Y-137202129D01*
X304474916Y-137338737D01*
X304417634Y-137473372D01*
X304375281Y-137562032D01*
X304329595Y-137649815D01*
X304280576Y-137736721D01*
X304228225Y-137822750D01*
X304172541Y-137907902D01*
X304113524Y-137992177D01*
X304051174Y-138075575D01*
X303985492Y-138158096D01*
X303916477Y-138239740D01*
X303844130Y-138320507D01*
X303768450Y-138400397D01*
X303729360Y-138440013D01*
X302748391Y-139420982D01*
X299356450Y-136029041D01*
X298869419Y-136516071D01*
X298792397Y-136595536D01*
X298720218Y-136675041D01*
X298652883Y-136754587D01*
X298590392Y-136834173D01*
X298532744Y-136913800D01*
X298455356Y-137033316D01*
X298388865Y-137152923D01*
X298333274Y-137272622D01*
X298288581Y-137392411D01*
X298254787Y-137512291D01*
X298231892Y-137632263D01*
X298219895Y-137752325D01*
X298218319Y-137792367D01*
X298221319Y-137912034D01*
X298234854Y-138030761D01*
X298258923Y-138148547D01*
X298293527Y-138265391D01*
X298338664Y-138381295D01*
X298394337Y-138496257D01*
X298460543Y-138610278D01*
X298537285Y-138723359D01*
X298624560Y-138835498D01*
X298688596Y-138909734D01*
X298757314Y-138983552D01*
X298793429Y-139020305D01*
X298886462Y-139110302D01*
X298979040Y-139193773D01*
X299071163Y-139270716D01*
X299162830Y-139341133D01*
X299254042Y-139405022D01*
X299344799Y-139462384D01*
X299435100Y-139513219D01*
X299524946Y-139557527D01*
X299644032Y-139606452D01*
X299762308Y-139643772D01*
X299879883Y-139668734D01*
X299996001Y-139681444D01*
X300110661Y-139681903D01*
X300223864Y-139670110D01*
X300335610Y-139646066D01*
X300445899Y-139609771D01*
X300554731Y-139561224D01*
X300662105Y-139500427D01*
X301636166Y-140474487D01*
X301532650Y-140549533D01*
X301427624Y-140618373D01*
X301321086Y-140681005D01*
X301213037Y-140737432D01*
X301103476Y-140787651D01*
X300992405Y-140831664D01*
X300879822Y-140869471D01*
X300765729Y-140901070D01*
X300650124Y-140926464D01*
X300533008Y-140945650D01*
X300414380Y-140958630D01*
X300294242Y-140965403D01*
X300172592Y-140965970D01*
X300049432Y-140960330D01*
X299924760Y-140948484D01*
X299798576Y-140930430D01*
X299672225Y-140906555D01*
X299547047Y-140877242D01*
X299423043Y-140842492D01*
X299300212Y-140802304D01*
X299178556Y-140756679D01*
X299058073Y-140705616D01*
X298938765Y-140649116D01*
X298820630Y-140587178D01*
X298703669Y-140519802D01*
X298587882Y-140446989D01*
X298473269Y-140368739D01*
X298359829Y-140285051D01*
X298247564Y-140195925D01*
X298136472Y-140101362D01*
X298026554Y-140001361D01*
X297917810Y-139895923D01*
X297837455Y-139813490D01*
X297760459Y-139730260D01*
X297686823Y-139646235D01*
X297616547Y-139561413D01*
X297549630Y-139475796D01*
X297486073Y-139389382D01*
X297425876Y-139302173D01*
X297369038Y-139214167D01*
X297315560Y-139125365D01*
X297265441Y-139035767D01*
X297218683Y-138945373D01*
X297175284Y-138854183D01*
X297135244Y-138762197D01*
X297098564Y-138669415D01*
X297065244Y-138575837D01*
X297035284Y-138481463D01*
X297008913Y-138386522D01*
X296975706Y-138244287D01*
X296950118Y-138102265D01*
X296932151Y-137960456D01*
X296921804Y-137818859D01*
X296919077Y-137677475D01*
X296923970Y-137536303D01*
X296936482Y-137395344D01*
X296956615Y-137254597D01*
X296984368Y-137114063D01*
X297019740Y-136973741D01*
X297063381Y-136834421D01*
X297096708Y-136742536D01*
X297133421Y-136651448D01*
X297173521Y-136561155D01*
X297217008Y-136471658D01*
X297263881Y-136382958D01*
X297314141Y-136295053D01*
X297367788Y-136207945D01*
X297424822Y-136121632D01*
X297485242Y-136036116D01*
X297549048Y-135951395D01*
X297616242Y-135867471D01*
X297686822Y-135784343D01*
X297760788Y-135702011D01*
X297838142Y-135620475D01*
X297878088Y-135580006D01*
X298092244Y-135365850D01*
X300019640Y-135365850D01*
X302456518Y-137802729D01*
X302724212Y-137535035D01*
X302799784Y-137457020D01*
X302870634Y-137378844D01*
X302936762Y-137300506D01*
X302998167Y-137222006D01*
X303081420Y-137103952D01*
X303154047Y-136985534D01*
X303216049Y-136866751D01*
X303267426Y-136747605D01*
X303308177Y-136628093D01*
X303338303Y-136508218D01*
X303357803Y-136387978D01*
X303366678Y-136267375D01*
X303365129Y-136146690D01*
X303352713Y-136026855D01*
X303329428Y-135907870D01*
X303295275Y-135789735D01*
X303250253Y-135672450D01*
X303194363Y-135556016D01*
X303127605Y-135440431D01*
X303049978Y-135325696D01*
X302961484Y-135211812D01*
X302896449Y-135136361D01*
X302826584Y-135061288D01*
X302789840Y-135023893D01*
X302714970Y-134951626D01*
X302639748Y-134884217D01*
X302564176Y-134821665D01*
X302450160Y-134736945D01*
X302335354Y-134663154D01*
X302219760Y-134600292D01*
X302103375Y-134548358D01*
X301986202Y-134507354D01*
X301868239Y-134477279D01*
X301749487Y-134458133D01*
X301629946Y-134449916D01*
X301549813Y-134450510D01*
X301430135Y-134460311D01*
X301310730Y-134480646D01*
X301191599Y-134511515D01*
X301072740Y-134552919D01*
X300954155Y-134604857D01*
X300835843Y-134667330D01*
X300717805Y-134740337D01*
X300600039Y-134823878D01*
X300521681Y-134885425D01*
X300443444Y-134951653D01*
X300365328Y-135022564D01*
X300287334Y-135098156D01*
X300019640Y-135365850D01*
X298092244Y-135365850D01*
X299359904Y-134098190D01*
X299439780Y-134020405D01*
X299520520Y-133945939D01*
X299602124Y-133874792D01*
X299684591Y-133806965D01*
X299767921Y-133742457D01*
X299852115Y-133681267D01*
X299937173Y-133623398D01*
X300023094Y-133568847D01*
X300109879Y-133517615D01*
X300197527Y-133469703D01*
X300286038Y-133425110D01*
X300375414Y-133383836D01*
X300465652Y-133345881D01*
X300602630Y-133295172D01*
X300741550Y-133251932D01*
X300882165Y-133216266D01*
X301022932Y-133188280D01*
X301163851Y-133167975D01*
X301304922Y-133155351D01*
X301446144Y-133150408D01*
X301587518Y-133153145D01*
G37*
G36*
X307798308Y-149555357D02*
G01*
X308673926Y-148679738D01*
X310613412Y-150619224D01*
X316122726Y-145109910D01*
X312716968Y-144615972D01*
X313787744Y-143545196D01*
X316734105Y-143900970D01*
X318017308Y-145184174D01*
X311597835Y-151603647D01*
X313190182Y-153195994D01*
X312314564Y-154071613D01*
X307798308Y-149555357D01*
G37*
G36*
X244122726Y-109638563D02*
G01*
X250542199Y-103219089D01*
X248571626Y-101248516D01*
X249447245Y-100372898D01*
X254362451Y-105288104D01*
X253486833Y-106163722D01*
X251526622Y-104203512D01*
X245107149Y-110622986D01*
X244122726Y-109638563D01*
G37*
G36*
X255953786Y-107654133D02*
G01*
X256094960Y-107666964D01*
X256234973Y-107687487D01*
X256373826Y-107715700D01*
X256511518Y-107751604D01*
X256648050Y-107795198D01*
X256783422Y-107846484D01*
X256917633Y-107905460D01*
X257050684Y-107972127D01*
X257182574Y-108046485D01*
X257313305Y-108128534D01*
X257442874Y-108218273D01*
X257571284Y-108315704D01*
X257698533Y-108420825D01*
X257824622Y-108533637D01*
X257949550Y-108654140D01*
X258070053Y-108779068D01*
X258182865Y-108905157D01*
X258287986Y-109032406D01*
X258385416Y-109160815D01*
X258475156Y-109290385D01*
X258557204Y-109421115D01*
X258631562Y-109553006D01*
X258698229Y-109686057D01*
X258757206Y-109820268D01*
X258808491Y-109955640D01*
X258852086Y-110092172D01*
X258887990Y-110229864D01*
X258916203Y-110368717D01*
X258936725Y-110508730D01*
X258949557Y-110649903D01*
X258954697Y-110792237D01*
X258952120Y-110934517D01*
X258941799Y-111075529D01*
X258923732Y-111215272D01*
X258897920Y-111353747D01*
X258864364Y-111490953D01*
X258823063Y-111626892D01*
X258774018Y-111761562D01*
X258717227Y-111894964D01*
X258652692Y-112027097D01*
X258580412Y-112157962D01*
X258500387Y-112287559D01*
X258412617Y-112415887D01*
X258317103Y-112542947D01*
X258213844Y-112668739D01*
X258102840Y-112793263D01*
X257984091Y-112916518D01*
X254706135Y-116194474D01*
X254581625Y-116314477D01*
X254455928Y-116426655D01*
X254329043Y-116531007D01*
X254200971Y-116627533D01*
X254071712Y-116716234D01*
X253941265Y-116797109D01*
X253809631Y-116870158D01*
X253676809Y-116935382D01*
X253542800Y-116992779D01*
X253407604Y-117042351D01*
X253271220Y-117084097D01*
X253133649Y-117118018D01*
X252994891Y-117144113D01*
X252854945Y-117162382D01*
X252713812Y-117172825D01*
X252571492Y-117175443D01*
X252429158Y-117170302D01*
X252287985Y-117157470D01*
X252147972Y-117136948D01*
X252009119Y-117108735D01*
X251871427Y-117072831D01*
X251734895Y-117029236D01*
X251599523Y-116977951D01*
X251465312Y-116918974D01*
X251332261Y-116852307D01*
X251200370Y-116777949D01*
X251069640Y-116695901D01*
X250940070Y-116606161D01*
X250811661Y-116508731D01*
X250684412Y-116403610D01*
X250558323Y-116290798D01*
X250433395Y-116170295D01*
X250312892Y-116045367D01*
X250200080Y-115919278D01*
X250094959Y-115792029D01*
X249997528Y-115663619D01*
X249907789Y-115534050D01*
X249825740Y-115403319D01*
X249751382Y-115271429D01*
X249684715Y-115138378D01*
X249625739Y-115004167D01*
X249574453Y-114868795D01*
X249530859Y-114732263D01*
X249494955Y-114594571D01*
X249466742Y-114455718D01*
X249446219Y-114315705D01*
X249433388Y-114174531D01*
X249431116Y-114111642D01*
X250768444Y-114111642D01*
X250770260Y-114228274D01*
X250782186Y-114343722D01*
X250804221Y-114457986D01*
X250836366Y-114571066D01*
X250878620Y-114682963D01*
X250930983Y-114793675D01*
X250993455Y-114903203D01*
X251066037Y-115011547D01*
X251148729Y-115118707D01*
X251241529Y-115224684D01*
X251309013Y-115294677D01*
X251414185Y-115394202D01*
X251520510Y-115483587D01*
X251627989Y-115562833D01*
X251736622Y-115631939D01*
X251846408Y-115690905D01*
X251957348Y-115739731D01*
X252069441Y-115778418D01*
X252182688Y-115806965D01*
X252297089Y-115825373D01*
X252412643Y-115833640D01*
X252490320Y-115833519D01*
X252607347Y-115825135D01*
X252723979Y-115806459D01*
X252840217Y-115777492D01*
X252956059Y-115738234D01*
X253071507Y-115688684D01*
X253186561Y-115628842D01*
X253301220Y-115558709D01*
X253415484Y-115478285D01*
X253529353Y-115387568D01*
X253605047Y-115321374D01*
X253680565Y-115250605D01*
X253718258Y-115213505D01*
X257003122Y-111928641D01*
X257074944Y-111854486D01*
X257142312Y-111780114D01*
X257235017Y-111668152D01*
X257317703Y-111555705D01*
X257390371Y-111442771D01*
X257453021Y-111329352D01*
X257505652Y-111215447D01*
X257548265Y-111101057D01*
X257580860Y-110986180D01*
X257603437Y-110870818D01*
X257615995Y-110754970D01*
X257617955Y-110716247D01*
X257616988Y-110600465D01*
X257605670Y-110485624D01*
X257583999Y-110371724D01*
X257551976Y-110258765D01*
X257509600Y-110146748D01*
X257456873Y-110035671D01*
X257393793Y-109925536D01*
X257320361Y-109816342D01*
X257236577Y-109708088D01*
X257142440Y-109600776D01*
X257073932Y-109529758D01*
X257002913Y-109461249D01*
X256895601Y-109367113D01*
X256787348Y-109283328D01*
X256678154Y-109209896D01*
X256568018Y-109146817D01*
X256456942Y-109094089D01*
X256344924Y-109051714D01*
X256231966Y-109019691D01*
X256118066Y-108998020D01*
X256003225Y-108986701D01*
X255887443Y-108985735D01*
X255771433Y-108994954D01*
X255655909Y-109014191D01*
X255540871Y-109043446D01*
X255426319Y-109082720D01*
X255312252Y-109132012D01*
X255198671Y-109191322D01*
X255085575Y-109260651D01*
X254972966Y-109339997D01*
X254860842Y-109429363D01*
X254786363Y-109494505D01*
X254712099Y-109564100D01*
X254675048Y-109600567D01*
X251390185Y-112885431D01*
X251317122Y-112960855D01*
X251248620Y-113036441D01*
X251184678Y-113112188D01*
X251097317Y-113226114D01*
X251020216Y-113340403D01*
X250953377Y-113455057D01*
X250896799Y-113570075D01*
X250850482Y-113685457D01*
X250814427Y-113801204D01*
X250788632Y-113917314D01*
X250773099Y-114033790D01*
X250768444Y-114111642D01*
X249431116Y-114111642D01*
X249428247Y-114032197D01*
X249430865Y-113889877D01*
X249441308Y-113748744D01*
X249459577Y-113608798D01*
X249485672Y-113470040D01*
X249519592Y-113332469D01*
X249561338Y-113196086D01*
X249610910Y-113060889D01*
X249668308Y-112926881D01*
X249733531Y-112794059D01*
X249806581Y-112662425D01*
X249887455Y-112531978D01*
X249976156Y-112402718D01*
X250072682Y-112274646D01*
X250177034Y-112147762D01*
X250289212Y-112022064D01*
X250409216Y-111897554D01*
X253687171Y-108619599D01*
X253810427Y-108500850D01*
X253934950Y-108389846D01*
X254060742Y-108286587D01*
X254187802Y-108191072D01*
X254316131Y-108103303D01*
X254445728Y-108023278D01*
X254576593Y-107950998D01*
X254708726Y-107886463D01*
X254842128Y-107829672D01*
X254976798Y-107780626D01*
X255112736Y-107739325D01*
X255249943Y-107705769D01*
X255388418Y-107679958D01*
X255528161Y-107661891D01*
X255669173Y-107651569D01*
X255811452Y-107648992D01*
X255953786Y-107654133D01*
G37*
G36*
X254348634Y-119864471D02*
G01*
X261643726Y-112569380D01*
X262918295Y-113843948D01*
X258920156Y-122177002D01*
X258995597Y-122083380D01*
X259060443Y-122004232D01*
X259129282Y-121921306D01*
X259202115Y-121834602D01*
X259278942Y-121744121D01*
X259359763Y-121649861D01*
X259444578Y-121551824D01*
X259510810Y-121475816D01*
X259578823Y-121398888D01*
X259647504Y-121321595D01*
X259716853Y-121243939D01*
X259786869Y-121165917D01*
X259857554Y-121087532D01*
X259928906Y-121008782D01*
X260000927Y-120929668D01*
X260073615Y-120850190D01*
X260146971Y-120770347D01*
X260220995Y-120690140D01*
X260270715Y-120636466D01*
X260345878Y-120556366D01*
X260420464Y-120477327D01*
X260494472Y-120399352D01*
X260567904Y-120322439D01*
X260640760Y-120246588D01*
X260713038Y-120171800D01*
X260784739Y-120098075D01*
X260855864Y-120025412D01*
X260926412Y-119953811D01*
X260996383Y-119883273D01*
X261042710Y-119836839D01*
X264976948Y-115902601D01*
X265911286Y-116836939D01*
X258616194Y-124132031D01*
X257332990Y-122848827D01*
X261287952Y-114596945D01*
X261211188Y-114686579D01*
X261145708Y-114762232D01*
X261076612Y-114841393D01*
X261003900Y-114924063D01*
X260927573Y-115010240D01*
X260847629Y-115099926D01*
X260764069Y-115193119D01*
X260699026Y-115265317D01*
X260632910Y-115339083D01*
X260566036Y-115413365D01*
X260498402Y-115488163D01*
X260430010Y-115563477D01*
X260360858Y-115639307D01*
X260290948Y-115715654D01*
X260220278Y-115792516D01*
X260148850Y-115869895D01*
X260076663Y-115947790D01*
X260003716Y-116026200D01*
X259954664Y-116078761D01*
X259881783Y-116157197D01*
X259809510Y-116234479D01*
X259737844Y-116310608D01*
X259666785Y-116385583D01*
X259596333Y-116459405D01*
X259526489Y-116532073D01*
X259457251Y-116603587D01*
X259388621Y-116673948D01*
X259298058Y-116765968D01*
X259208575Y-116855937D01*
X255274337Y-120790174D01*
X254348634Y-119864471D01*
G37*
G36*
X269707359Y-120633012D02*
G01*
X269829413Y-120758939D01*
X269944290Y-120885432D01*
X270051988Y-121012493D01*
X270152508Y-121140119D01*
X270245850Y-121268313D01*
X270332014Y-121397073D01*
X270411000Y-121526400D01*
X270482808Y-121656294D01*
X270547438Y-121786754D01*
X270604889Y-121917781D01*
X270655163Y-122049375D01*
X270698258Y-122181535D01*
X270734176Y-122314262D01*
X270762915Y-122447556D01*
X270784476Y-122581417D01*
X270798859Y-122715844D01*
X270806159Y-122849502D01*
X270806038Y-122981487D01*
X270798495Y-123111799D01*
X270783532Y-123240438D01*
X270761148Y-123367403D01*
X270731342Y-123492696D01*
X270694116Y-123616315D01*
X270649469Y-123738262D01*
X270597401Y-123858535D01*
X270537912Y-123977136D01*
X270471002Y-124094063D01*
X270396671Y-124209317D01*
X270314919Y-124322898D01*
X270225746Y-124434806D01*
X270129152Y-124545041D01*
X270025138Y-124653603D01*
X269952338Y-124724068D01*
X269878581Y-124790823D01*
X269803865Y-124853867D01*
X269689996Y-124941476D01*
X269573971Y-125020737D01*
X269455790Y-125091649D01*
X269335455Y-125154213D01*
X269212963Y-125208428D01*
X269088317Y-125254295D01*
X268961515Y-125291813D01*
X268832557Y-125320982D01*
X268745388Y-125335790D01*
X268614341Y-125350970D01*
X268484143Y-125357648D01*
X268354796Y-125355827D01*
X268226299Y-125345505D01*
X268098652Y-125326683D01*
X267971855Y-125299360D01*
X267845908Y-125263537D01*
X267720811Y-125219214D01*
X267596564Y-125166390D01*
X267473167Y-125105066D01*
X267391375Y-125059461D01*
X267442087Y-125153269D01*
X267488441Y-125247737D01*
X267530436Y-125342867D01*
X267568074Y-125438658D01*
X267601354Y-125535110D01*
X267630275Y-125632224D01*
X267654839Y-125729998D01*
X267675044Y-125828434D01*
X267690891Y-125927530D01*
X267702380Y-126027288D01*
X267709511Y-126127707D01*
X267712283Y-126228787D01*
X267710698Y-126330528D01*
X267704755Y-126432931D01*
X267694453Y-126535994D01*
X267679793Y-126639719D01*
X267660870Y-126743133D01*
X267637345Y-126845698D01*
X267609220Y-126947412D01*
X267576494Y-127048276D01*
X267539166Y-127148290D01*
X267497238Y-127247454D01*
X267450708Y-127345768D01*
X267399578Y-127443233D01*
X267343847Y-127539847D01*
X267283514Y-127635611D01*
X267218581Y-127730525D01*
X267149047Y-127824588D01*
X267074911Y-127917802D01*
X266996175Y-128010166D01*
X266912838Y-128101680D01*
X266824900Y-128192344D01*
X266704538Y-128308077D01*
X266582653Y-128416079D01*
X266459242Y-128516349D01*
X266334307Y-128608889D01*
X266207847Y-128693697D01*
X266079863Y-128770773D01*
X265950354Y-128840119D01*
X265819320Y-128901733D01*
X265686762Y-128955616D01*
X265552679Y-129001767D01*
X265417071Y-129040188D01*
X265279938Y-129070877D01*
X265141281Y-129093834D01*
X265001100Y-129109061D01*
X264859393Y-129116556D01*
X264716162Y-129116320D01*
X264572917Y-129108177D01*
X264430739Y-129092384D01*
X264289626Y-129068940D01*
X264149579Y-129037847D01*
X264010598Y-128999102D01*
X263872683Y-128952708D01*
X263735834Y-128898663D01*
X263600051Y-128836968D01*
X263465334Y-128767623D01*
X263331682Y-128690627D01*
X263199097Y-128605981D01*
X263067578Y-128513685D01*
X262937124Y-128413738D01*
X262807736Y-128306141D01*
X262679415Y-128190893D01*
X262552159Y-128067996D01*
X260401972Y-125917809D01*
X262153208Y-125917809D01*
X263337970Y-127102570D01*
X263414021Y-127176045D01*
X263490626Y-127244918D01*
X263567783Y-127309190D01*
X263645494Y-127368861D01*
X263763098Y-127449741D01*
X263881946Y-127520269D01*
X264002039Y-127580444D01*
X264123377Y-127630268D01*
X264245959Y-127669739D01*
X264369786Y-127698857D01*
X264494858Y-127717624D01*
X264621174Y-127726038D01*
X264747480Y-127724424D01*
X264871874Y-127712458D01*
X264994355Y-127690139D01*
X265114924Y-127657469D01*
X265233579Y-127614446D01*
X265350323Y-127561071D01*
X265465154Y-127497343D01*
X265578072Y-127423263D01*
X265689077Y-127338832D01*
X265798170Y-127244047D01*
X265869837Y-127175107D01*
X265941219Y-127100999D01*
X266008136Y-127025905D01*
X266070587Y-126949827D01*
X266155889Y-126833863D01*
X266231143Y-126715682D01*
X266296347Y-126595286D01*
X266351504Y-126472673D01*
X266396611Y-126347844D01*
X266431670Y-126220799D01*
X266456680Y-126091538D01*
X266471642Y-125960061D01*
X266476034Y-125871178D01*
X266474101Y-125738380D01*
X266461179Y-125607465D01*
X266437266Y-125478431D01*
X266402364Y-125351280D01*
X266356472Y-125226011D01*
X266299591Y-125102624D01*
X266231719Y-124981119D01*
X266152858Y-124861497D01*
X266094179Y-124782795D01*
X266030615Y-124704929D01*
X265962167Y-124627899D01*
X265888834Y-124551706D01*
X264704073Y-123366945D01*
X262153208Y-125917809D01*
X260401972Y-125917809D01*
X260313892Y-125829729D01*
X263652295Y-122491326D01*
X265579691Y-122491326D01*
X266704006Y-123615641D01*
X266808965Y-123715652D01*
X266914653Y-123806494D01*
X267021069Y-123888169D01*
X267128214Y-123960675D01*
X267236088Y-124024012D01*
X267344690Y-124078182D01*
X267454021Y-124123183D01*
X267564080Y-124159016D01*
X267674868Y-124185681D01*
X267786385Y-124203178D01*
X267861134Y-124209749D01*
X267972838Y-124211626D01*
X268082569Y-124204304D01*
X268190326Y-124187784D01*
X268296110Y-124162066D01*
X268399921Y-124127148D01*
X268501758Y-124083033D01*
X268601622Y-124029718D01*
X268699513Y-123967205D01*
X268795430Y-123895493D01*
X268889374Y-123814583D01*
X268950908Y-123755533D01*
X269039787Y-123661067D01*
X269119255Y-123564841D01*
X269189312Y-123466854D01*
X269249958Y-123367106D01*
X269301193Y-123265598D01*
X269343017Y-123162329D01*
X269375430Y-123057299D01*
X269398431Y-122950508D01*
X269412022Y-122841956D01*
X269416201Y-122731644D01*
X269413759Y-122657124D01*
X269402774Y-122544904D01*
X269382773Y-122433625D01*
X269353756Y-122323287D01*
X269315722Y-122213891D01*
X269268671Y-122105435D01*
X269212604Y-121997921D01*
X269147521Y-121891347D01*
X269073421Y-121785715D01*
X268990304Y-121681024D01*
X268898172Y-121577274D01*
X268831741Y-121508630D01*
X267697064Y-120373953D01*
X265579691Y-122491326D01*
X263652295Y-122491326D01*
X267608984Y-118534637D01*
X269707359Y-120633012D01*
G37*
G36*
X266327507Y-131843344D02*
G01*
X273622599Y-124548252D01*
X277850436Y-128776089D01*
X276974818Y-129651708D01*
X273721041Y-126397931D01*
X271603668Y-128515304D01*
X274508579Y-131420215D01*
X273632961Y-132295833D01*
X270728050Y-129390922D01*
X268177186Y-131941786D01*
X271430963Y-135195563D01*
X270555344Y-136071181D01*
X266327507Y-131843344D01*
G37*
G36*
X281724227Y-132649880D02*
G01*
X281805871Y-132733575D01*
X281884141Y-132817998D01*
X281959039Y-132903150D01*
X282030564Y-132989031D01*
X282098715Y-133075640D01*
X282163493Y-133162978D01*
X282224898Y-133251044D01*
X282282930Y-133339839D01*
X282337589Y-133429363D01*
X282388874Y-133519615D01*
X282436786Y-133610596D01*
X282481326Y-133702306D01*
X282522492Y-133794744D01*
X282560285Y-133887910D01*
X282594704Y-133981806D01*
X282625751Y-134076430D01*
X282653654Y-134171161D01*
X282678210Y-134265812D01*
X282708771Y-134407637D01*
X282731803Y-134549279D01*
X282747306Y-134690739D01*
X282755280Y-134832017D01*
X282755725Y-134973113D01*
X282748642Y-135114027D01*
X282734029Y-135254759D01*
X282711888Y-135395308D01*
X282682217Y-135535675D01*
X282670654Y-135582424D01*
X282631148Y-135721931D01*
X282583870Y-135859374D01*
X282528820Y-135994752D01*
X282487802Y-136083858D01*
X282443330Y-136172045D01*
X282395404Y-136259316D01*
X282344025Y-136345669D01*
X282289190Y-136431104D01*
X282230902Y-136515622D01*
X282169160Y-136599222D01*
X282103963Y-136681905D01*
X282035313Y-136763671D01*
X281963208Y-136844519D01*
X281887649Y-136924449D01*
X281848575Y-136964070D01*
X281756582Y-137053108D01*
X281663240Y-137137585D01*
X281568549Y-137217502D01*
X281472508Y-137292859D01*
X281375118Y-137363655D01*
X281276379Y-137429890D01*
X281176291Y-137491565D01*
X281074853Y-137548679D01*
X280972066Y-137601233D01*
X280867930Y-137649226D01*
X280762444Y-137692659D01*
X280655610Y-137731531D01*
X280547426Y-137765843D01*
X280437892Y-137795594D01*
X280327010Y-137820785D01*
X280214778Y-137841415D01*
X280102277Y-137857269D01*
X279990153Y-137868563D01*
X279878407Y-137875295D01*
X279767038Y-137877468D01*
X279656048Y-137875080D01*
X279545435Y-137868131D01*
X279435201Y-137856622D01*
X279325343Y-137840552D01*
X279215864Y-137819922D01*
X279106763Y-137794731D01*
X278998039Y-137764980D01*
X278889693Y-137730668D01*
X278781725Y-137691796D01*
X278674135Y-137648363D01*
X278566922Y-137600369D01*
X278460088Y-137547816D01*
X276746846Y-142262683D01*
X275603534Y-141119371D01*
X277346135Y-136672197D01*
X276251181Y-135577243D01*
X273156293Y-138672130D01*
X272171870Y-137687707D01*
X275157953Y-134701624D01*
X277126799Y-134701624D01*
X278399641Y-135974466D01*
X278505101Y-136074067D01*
X278612291Y-136163680D01*
X278721212Y-136243305D01*
X278831864Y-136312942D01*
X278944246Y-136372592D01*
X279058358Y-136422253D01*
X279174201Y-136461926D01*
X279291774Y-136491612D01*
X279411077Y-136511309D01*
X279532111Y-136521019D01*
X279613762Y-136521943D01*
X279736198Y-136514941D01*
X279856751Y-136498466D01*
X279975422Y-136472520D01*
X280092211Y-136437102D01*
X280207118Y-136392212D01*
X280320142Y-136337850D01*
X280431284Y-136274016D01*
X280540544Y-136200711D01*
X280647922Y-136117933D01*
X280753418Y-136025684D01*
X280822703Y-135958922D01*
X280890692Y-135888369D01*
X280984530Y-135781073D01*
X281068592Y-135672015D01*
X281142879Y-135561197D01*
X281207391Y-135448617D01*
X281262127Y-135334277D01*
X281307088Y-135218177D01*
X281342274Y-135100315D01*
X281367684Y-134980693D01*
X281383318Y-134859310D01*
X281389177Y-134736166D01*
X281385600Y-134612834D01*
X281372278Y-134491537D01*
X281349211Y-134372274D01*
X281316398Y-134255045D01*
X281273841Y-134139850D01*
X281221538Y-134026689D01*
X281159491Y-133915562D01*
X281087698Y-133806469D01*
X281006160Y-133699410D01*
X280914877Y-133594385D01*
X280848608Y-133525498D01*
X279575767Y-132252657D01*
X277126799Y-134701624D01*
X275157953Y-134701624D01*
X279466962Y-130392615D01*
X281724227Y-132649880D01*
G37*
G36*
X287658397Y-138584050D02*
G01*
X287740041Y-138667745D01*
X287818312Y-138752169D01*
X287893209Y-138837321D01*
X287964734Y-138923201D01*
X288032885Y-139009810D01*
X288097663Y-139097148D01*
X288159068Y-139185215D01*
X288217100Y-139274010D01*
X288271759Y-139363533D01*
X288323044Y-139453786D01*
X288370957Y-139544767D01*
X288415496Y-139636476D01*
X288456662Y-139728914D01*
X288494455Y-139822081D01*
X288528875Y-139915976D01*
X288559921Y-140010600D01*
X288587824Y-140105332D01*
X288612381Y-140199983D01*
X288642941Y-140341807D01*
X288665973Y-140483449D01*
X288681476Y-140624910D01*
X288689451Y-140766188D01*
X288689896Y-140907284D01*
X288682812Y-141048197D01*
X288668200Y-141188929D01*
X288646058Y-141329478D01*
X288616388Y-141469846D01*
X288604825Y-141516594D01*
X288565318Y-141656101D01*
X288518040Y-141793544D01*
X288462990Y-141928923D01*
X288421972Y-142018028D01*
X288377501Y-142106216D01*
X288329575Y-142193486D01*
X288278195Y-142279839D01*
X288223361Y-142365274D01*
X288165073Y-142449792D01*
X288103330Y-142533393D01*
X288038134Y-142616076D01*
X287969483Y-142697841D01*
X287897379Y-142778689D01*
X287821820Y-142858619D01*
X287782745Y-142898240D01*
X287690752Y-142987278D01*
X287597410Y-143071756D01*
X287502719Y-143151673D01*
X287406678Y-143227029D01*
X287309289Y-143297825D01*
X287210549Y-143364060D01*
X287110461Y-143425735D01*
X287009023Y-143482849D01*
X286906236Y-143535403D01*
X286802100Y-143583397D01*
X286696615Y-143626829D01*
X286589780Y-143665702D01*
X286481596Y-143700014D01*
X286372063Y-143729765D01*
X286261180Y-143754956D01*
X286148949Y-143775586D01*
X286036447Y-143791440D01*
X285924323Y-143802733D01*
X285812577Y-143809466D01*
X285701209Y-143811638D01*
X285590218Y-143809250D01*
X285479606Y-143802301D01*
X285369371Y-143790792D01*
X285259514Y-143774722D01*
X285150035Y-143754092D01*
X285040933Y-143728901D01*
X284932209Y-143699150D01*
X284823864Y-143664838D01*
X284715895Y-143625966D01*
X284608305Y-143582533D01*
X284501093Y-143534540D01*
X284394258Y-143481986D01*
X282681017Y-148196854D01*
X281537704Y-147053541D01*
X283280306Y-142606368D01*
X282185351Y-141511413D01*
X279090464Y-144606301D01*
X278106041Y-143621878D01*
X281092124Y-140635795D01*
X283060969Y-140635795D01*
X284333811Y-141908636D01*
X284439271Y-142008237D01*
X284546462Y-142097850D01*
X284655383Y-142177476D01*
X284766034Y-142247113D01*
X284878416Y-142306762D01*
X284992528Y-142356423D01*
X285108371Y-142396097D01*
X285225944Y-142425782D01*
X285345248Y-142445480D01*
X285466282Y-142455189D01*
X285547932Y-142456114D01*
X285670368Y-142449111D01*
X285790921Y-142432636D01*
X285909593Y-142406690D01*
X286026381Y-142371272D01*
X286141288Y-142326382D01*
X286254313Y-142272020D01*
X286365455Y-142208186D01*
X286474715Y-142134881D01*
X286582093Y-142052104D01*
X286687588Y-141959854D01*
X286756873Y-141893093D01*
X286824862Y-141822540D01*
X286918700Y-141715243D01*
X287002763Y-141606185D01*
X287077050Y-141495367D01*
X287141562Y-141382788D01*
X287196298Y-141268448D01*
X287241259Y-141152347D01*
X287276444Y-141034485D01*
X287301854Y-140914863D01*
X287317489Y-140793480D01*
X287323348Y-140670336D01*
X287319771Y-140547005D01*
X287306448Y-140425708D01*
X287283381Y-140306445D01*
X287250569Y-140189215D01*
X287208011Y-140074020D01*
X287155709Y-139960859D01*
X287093661Y-139849732D01*
X287021868Y-139740639D01*
X286940331Y-139633580D01*
X286849048Y-139528555D01*
X286782779Y-139459669D01*
X285509937Y-138186827D01*
X283060969Y-140635795D01*
X281092124Y-140635795D01*
X285401133Y-136326786D01*
X287658397Y-138584050D01*
G37*
G36*
X285661918Y-151177755D02*
G01*
X288345766Y-148493908D01*
X290777463Y-141703117D01*
X291803336Y-142728989D01*
X290262800Y-146994821D01*
X290227449Y-147088352D01*
X290183413Y-147201168D01*
X290139545Y-147309429D01*
X290095846Y-147413137D01*
X290052315Y-147512291D01*
X290008953Y-147606891D01*
X289983017Y-147661466D01*
X289934160Y-147762256D01*
X289889918Y-147850902D01*
X289844134Y-147938976D01*
X289794498Y-148027926D01*
X289775770Y-148058689D01*
X289867351Y-148012578D01*
X289963689Y-147965246D01*
X290064807Y-147916215D01*
X290163978Y-147868532D01*
X290181628Y-147860077D01*
X290273749Y-147817070D01*
X290370930Y-147774399D01*
X290473171Y-147732066D01*
X290580471Y-147690070D01*
X290692831Y-147648412D01*
X290786362Y-147615328D01*
X290858635Y-147590656D01*
X295095108Y-146020761D01*
X296110618Y-147036271D01*
X289330189Y-149478330D01*
X286646341Y-152162178D01*
X285661918Y-151177755D01*
G37*
D12*
X75734780Y-124761867D02*
X76825286Y-124761867D01*
X76825286Y-124761867D02*
X75734780Y-126397627D01*
X75734780Y-126397627D02*
X76825286Y-126397627D01*
X77448433Y-126397627D02*
X77448433Y-125307121D01*
X77448433Y-124761867D02*
X77370540Y-124839761D01*
X77370540Y-124839761D02*
X77448433Y-124917654D01*
X77448433Y-124917654D02*
X77526327Y-124839761D01*
X77526327Y-124839761D02*
X77448433Y-124761867D01*
X77448433Y-124761867D02*
X77448433Y-124917654D01*
X78227366Y-125307121D02*
X78227366Y-126942881D01*
X78227366Y-125385014D02*
X78383153Y-125307121D01*
X78383153Y-125307121D02*
X78694726Y-125307121D01*
X78694726Y-125307121D02*
X78850513Y-125385014D01*
X78850513Y-125385014D02*
X78928406Y-125462907D01*
X78928406Y-125462907D02*
X79006300Y-125618694D01*
X79006300Y-125618694D02*
X79006300Y-126086054D01*
X79006300Y-126086054D02*
X78928406Y-126241841D01*
X78928406Y-126241841D02*
X78850513Y-126319734D01*
X78850513Y-126319734D02*
X78694726Y-126397627D01*
X78694726Y-126397627D02*
X78383153Y-126397627D01*
X78383153Y-126397627D02*
X78227366Y-126319734D01*
X80455115Y-125307121D02*
X81078262Y-125307121D01*
X80688795Y-124761867D02*
X80688795Y-126163947D01*
X80688795Y-126163947D02*
X80766689Y-126319734D01*
X80766689Y-126319734D02*
X80922475Y-126397627D01*
X80922475Y-126397627D02*
X81078262Y-126397627D01*
X81623515Y-126397627D02*
X81623515Y-125307121D01*
X81623515Y-124761867D02*
X81545622Y-124839761D01*
X81545622Y-124839761D02*
X81623515Y-124917654D01*
X81623515Y-124917654D02*
X81701409Y-124839761D01*
X81701409Y-124839761D02*
X81623515Y-124761867D01*
X81623515Y-124761867D02*
X81623515Y-124917654D01*
X83025595Y-126319734D02*
X82869808Y-126397627D01*
X82869808Y-126397627D02*
X82558235Y-126397627D01*
X82558235Y-126397627D02*
X82402448Y-126319734D01*
X82402448Y-126319734D02*
X82324555Y-126163947D01*
X82324555Y-126163947D02*
X82324555Y-125540801D01*
X82324555Y-125540801D02*
X82402448Y-125385014D01*
X82402448Y-125385014D02*
X82558235Y-125307121D01*
X82558235Y-125307121D02*
X82869808Y-125307121D01*
X82869808Y-125307121D02*
X83025595Y-125385014D01*
X83025595Y-125385014D02*
X83103488Y-125540801D01*
X83103488Y-125540801D02*
X83103488Y-125696587D01*
X83103488Y-125696587D02*
X82324555Y-125852374D01*
X84785984Y-126397627D02*
X84785984Y-124761867D01*
X85487024Y-126397627D02*
X85487024Y-125540801D01*
X85487024Y-125540801D02*
X85409131Y-125385014D01*
X85409131Y-125385014D02*
X85253344Y-125307121D01*
X85253344Y-125307121D02*
X85019664Y-125307121D01*
X85019664Y-125307121D02*
X84863878Y-125385014D01*
X84863878Y-125385014D02*
X84785984Y-125462907D01*
X86499637Y-126397627D02*
X86343851Y-126319734D01*
X86343851Y-126319734D02*
X86265957Y-126241841D01*
X86265957Y-126241841D02*
X86188064Y-126086054D01*
X86188064Y-126086054D02*
X86188064Y-125618694D01*
X86188064Y-125618694D02*
X86265957Y-125462907D01*
X86265957Y-125462907D02*
X86343851Y-125385014D01*
X86343851Y-125385014D02*
X86499637Y-125307121D01*
X86499637Y-125307121D02*
X86733317Y-125307121D01*
X86733317Y-125307121D02*
X86889104Y-125385014D01*
X86889104Y-125385014D02*
X86966997Y-125462907D01*
X86966997Y-125462907D02*
X87044891Y-125618694D01*
X87044891Y-125618694D02*
X87044891Y-126086054D01*
X87044891Y-126086054D02*
X86966997Y-126241841D01*
X86966997Y-126241841D02*
X86889104Y-126319734D01*
X86889104Y-126319734D02*
X86733317Y-126397627D01*
X86733317Y-126397627D02*
X86499637Y-126397627D01*
X87979610Y-126397627D02*
X87823824Y-126319734D01*
X87823824Y-126319734D02*
X87745930Y-126163947D01*
X87745930Y-126163947D02*
X87745930Y-124761867D01*
X89225904Y-126319734D02*
X89070117Y-126397627D01*
X89070117Y-126397627D02*
X88758544Y-126397627D01*
X88758544Y-126397627D02*
X88602757Y-126319734D01*
X88602757Y-126319734D02*
X88524864Y-126163947D01*
X88524864Y-126163947D02*
X88524864Y-125540801D01*
X88524864Y-125540801D02*
X88602757Y-125385014D01*
X88602757Y-125385014D02*
X88758544Y-125307121D01*
X88758544Y-125307121D02*
X89070117Y-125307121D01*
X89070117Y-125307121D02*
X89225904Y-125385014D01*
X89225904Y-125385014D02*
X89303797Y-125540801D01*
X89303797Y-125540801D02*
X89303797Y-125696587D01*
X89303797Y-125696587D02*
X88524864Y-125852374D01*
D11*
X145203843Y-102721219D02*
X144847759Y-102721219D01*
X144847759Y-102721219D02*
X144812151Y-103077303D01*
X144812151Y-103077303D02*
X144847759Y-103041695D01*
X144847759Y-103041695D02*
X144918976Y-103006086D01*
X144918976Y-103006086D02*
X145097018Y-103006086D01*
X145097018Y-103006086D02*
X145168235Y-103041695D01*
X145168235Y-103041695D02*
X145203843Y-103077303D01*
X145203843Y-103077303D02*
X145239452Y-103148520D01*
X145239452Y-103148520D02*
X145239452Y-103326562D01*
X145239452Y-103326562D02*
X145203843Y-103397778D01*
X145203843Y-103397778D02*
X145168235Y-103433387D01*
X145168235Y-103433387D02*
X145097018Y-103468995D01*
X145097018Y-103468995D02*
X144918976Y-103468995D01*
X144918976Y-103468995D02*
X144847759Y-103433387D01*
X144847759Y-103433387D02*
X144812151Y-103397778D01*
X145453102Y-102721219D02*
X145702361Y-103468995D01*
X145702361Y-103468995D02*
X145951620Y-102721219D01*
X144791250Y-108612483D02*
X144791250Y-107864707D01*
X144791250Y-107864707D02*
X144969292Y-107864707D01*
X144969292Y-107864707D02*
X145076117Y-107900316D01*
X145076117Y-107900316D02*
X145147334Y-107971532D01*
X145147334Y-107971532D02*
X145182943Y-108042749D01*
X145182943Y-108042749D02*
X145218551Y-108185183D01*
X145218551Y-108185183D02*
X145218551Y-108292008D01*
X145218551Y-108292008D02*
X145182943Y-108434441D01*
X145182943Y-108434441D02*
X145147334Y-108505658D01*
X145147334Y-108505658D02*
X145076117Y-108576875D01*
X145076117Y-108576875D02*
X144969292Y-108612483D01*
X144969292Y-108612483D02*
X144791250Y-108612483D01*
X145539026Y-108327616D02*
X146108761Y-108327616D01*
X145823893Y-108612483D02*
X145823893Y-108042749D01*
D14*
%TO.C,J4*%
X138968882Y-112228233D02*
X139794382Y-112228233D01*
X139794382Y-112228233D02*
X139959482Y-112283266D01*
X139959482Y-112283266D02*
X140069549Y-112393333D01*
X140069549Y-112393333D02*
X140124582Y-112558433D01*
X140124582Y-112558433D02*
X140124582Y-112668500D01*
X139354116Y-111182600D02*
X140124582Y-111182600D01*
X138913849Y-111457767D02*
X139739349Y-111732933D01*
X139739349Y-111732933D02*
X139739349Y-111017500D01*
D15*
X142369326Y-101657600D02*
X143131326Y-101657600D01*
X141933897Y-101929742D02*
X142750326Y-102201885D01*
X142750326Y-102201885D02*
X142750326Y-101494314D01*
X143131326Y-113105742D02*
X143131326Y-113758885D01*
X143131326Y-113432314D02*
X141988326Y-113432314D01*
X141988326Y-113432314D02*
X142151612Y-113541171D01*
X142151612Y-113541171D02*
X142260469Y-113650028D01*
X142260469Y-113650028D02*
X142314897Y-113758885D01*
%TO.C,JP1*%
X55132514Y-45039461D02*
X55132514Y-45855890D01*
X55132514Y-45855890D02*
X55078085Y-46019175D01*
X55078085Y-46019175D02*
X54969228Y-46128032D01*
X54969228Y-46128032D02*
X54805942Y-46182461D01*
X54805942Y-46182461D02*
X54697085Y-46182461D01*
X55676799Y-46182461D02*
X55676799Y-45039461D01*
X55676799Y-45039461D02*
X56112228Y-45039461D01*
X56112228Y-45039461D02*
X56221085Y-45093890D01*
X56221085Y-45093890D02*
X56275514Y-45148318D01*
X56275514Y-45148318D02*
X56329942Y-45257175D01*
X56329942Y-45257175D02*
X56329942Y-45420461D01*
X56329942Y-45420461D02*
X56275514Y-45529318D01*
X56275514Y-45529318D02*
X56221085Y-45583747D01*
X56221085Y-45583747D02*
X56112228Y-45638175D01*
X56112228Y-45638175D02*
X55676799Y-45638175D01*
X57418514Y-46182461D02*
X56765371Y-46182461D01*
X57091942Y-46182461D02*
X57091942Y-45039461D01*
X57091942Y-45039461D02*
X56983085Y-45202747D01*
X56983085Y-45202747D02*
X56874228Y-45311604D01*
X56874228Y-45311604D02*
X56765371Y-45366032D01*
D14*
%TO.C,D1*%
X162599899Y-70511585D02*
X162599899Y-69355885D01*
X162599899Y-69355885D02*
X162875066Y-69355885D01*
X162875066Y-69355885D02*
X163040166Y-69410919D01*
X163040166Y-69410919D02*
X163150233Y-69520985D01*
X163150233Y-69520985D02*
X163205266Y-69631052D01*
X163205266Y-69631052D02*
X163260299Y-69851185D01*
X163260299Y-69851185D02*
X163260299Y-70016285D01*
X163260299Y-70016285D02*
X163205266Y-70236419D01*
X163205266Y-70236419D02*
X163150233Y-70346485D01*
X163150233Y-70346485D02*
X163040166Y-70456552D01*
X163040166Y-70456552D02*
X162875066Y-70511585D01*
X162875066Y-70511585D02*
X162599899Y-70511585D01*
X164360966Y-70511585D02*
X163700566Y-70511585D01*
X164030766Y-70511585D02*
X164030766Y-69355885D01*
X164030766Y-69355885D02*
X163920699Y-69520985D01*
X163920699Y-69520985D02*
X163810633Y-69631052D01*
X163810633Y-69631052D02*
X163700566Y-69686085D01*
D13*
%TO.C,@HOLE11*%
%TO.C,@HOLE8*%
%TO.C,@HOLE0*%
D16*
%TO.C,D2*%
X160035541Y-57213509D02*
X160035541Y-56647835D01*
X160035541Y-56647835D02*
X160170225Y-56647835D01*
X160170225Y-56647835D02*
X160251036Y-56674772D01*
X160251036Y-56674772D02*
X160304909Y-56728645D01*
X160304909Y-56728645D02*
X160331846Y-56782519D01*
X160331846Y-56782519D02*
X160358783Y-56890266D01*
X160358783Y-56890266D02*
X160358783Y-56971077D01*
X160358783Y-56971077D02*
X160331846Y-57078824D01*
X160331846Y-57078824D02*
X160304909Y-57132698D01*
X160304909Y-57132698D02*
X160251036Y-57186572D01*
X160251036Y-57186572D02*
X160170225Y-57213509D01*
X160170225Y-57213509D02*
X160035541Y-57213509D01*
X160574278Y-56701708D02*
X160601215Y-56674772D01*
X160601215Y-56674772D02*
X160655089Y-56647835D01*
X160655089Y-56647835D02*
X160789773Y-56647835D01*
X160789773Y-56647835D02*
X160843647Y-56674772D01*
X160843647Y-56674772D02*
X160870583Y-56701708D01*
X160870583Y-56701708D02*
X160897520Y-56755582D01*
X160897520Y-56755582D02*
X160897520Y-56809456D01*
X160897520Y-56809456D02*
X160870583Y-56890266D01*
X160870583Y-56890266D02*
X160547341Y-57213509D01*
X160547341Y-57213509D02*
X160897520Y-57213509D01*
D13*
%TO.C,@HOLE9*%
D15*
%TO.C,JP23*%
X182132514Y-90759461D02*
X182132514Y-91575890D01*
X182132514Y-91575890D02*
X182078085Y-91739175D01*
X182078085Y-91739175D02*
X181969228Y-91848032D01*
X181969228Y-91848032D02*
X181805942Y-91902461D01*
X181805942Y-91902461D02*
X181697085Y-91902461D01*
X182676799Y-91902461D02*
X182676799Y-90759461D01*
X182676799Y-90759461D02*
X183112228Y-90759461D01*
X183112228Y-90759461D02*
X183221085Y-90813890D01*
X183221085Y-90813890D02*
X183275514Y-90868318D01*
X183275514Y-90868318D02*
X183329942Y-90977175D01*
X183329942Y-90977175D02*
X183329942Y-91140461D01*
X183329942Y-91140461D02*
X183275514Y-91249318D01*
X183275514Y-91249318D02*
X183221085Y-91303747D01*
X183221085Y-91303747D02*
X183112228Y-91358175D01*
X183112228Y-91358175D02*
X182676799Y-91358175D01*
X183765371Y-90868318D02*
X183819799Y-90813890D01*
X183819799Y-90813890D02*
X183928657Y-90759461D01*
X183928657Y-90759461D02*
X184200799Y-90759461D01*
X184200799Y-90759461D02*
X184309657Y-90813890D01*
X184309657Y-90813890D02*
X184364085Y-90868318D01*
X184364085Y-90868318D02*
X184418514Y-90977175D01*
X184418514Y-90977175D02*
X184418514Y-91086032D01*
X184418514Y-91086032D02*
X184364085Y-91249318D01*
X184364085Y-91249318D02*
X183710942Y-91902461D01*
X183710942Y-91902461D02*
X184418514Y-91902461D01*
X184799513Y-90759461D02*
X185507085Y-90759461D01*
X185507085Y-90759461D02*
X185126085Y-91194890D01*
X185126085Y-91194890D02*
X185289370Y-91194890D01*
X185289370Y-91194890D02*
X185398228Y-91249318D01*
X185398228Y-91249318D02*
X185452656Y-91303747D01*
X185452656Y-91303747D02*
X185507085Y-91412604D01*
X185507085Y-91412604D02*
X185507085Y-91684747D01*
X185507085Y-91684747D02*
X185452656Y-91793604D01*
X185452656Y-91793604D02*
X185398228Y-91848032D01*
X185398228Y-91848032D02*
X185289370Y-91902461D01*
X185289370Y-91902461D02*
X184962799Y-91902461D01*
X184962799Y-91902461D02*
X184853942Y-91848032D01*
X184853942Y-91848032D02*
X184799513Y-91793604D01*
D13*
%TO.C,@HOLE14*%
%TO.C,U$3*%
X41029718Y-42085173D02*
X41029718Y-43113269D01*
X41029718Y-43113269D02*
X41090195Y-43234221D01*
X41090195Y-43234221D02*
X41150671Y-43294697D01*
X41150671Y-43294697D02*
X41271623Y-43355173D01*
X41271623Y-43355173D02*
X41513528Y-43355173D01*
X41513528Y-43355173D02*
X41634480Y-43294697D01*
X41634480Y-43294697D02*
X41694957Y-43234221D01*
X41694957Y-43234221D02*
X41755433Y-43113269D01*
X41755433Y-43113269D02*
X41755433Y-42085173D01*
X42299718Y-43294697D02*
X42481147Y-43355173D01*
X42481147Y-43355173D02*
X42783528Y-43355173D01*
X42783528Y-43355173D02*
X42904480Y-43294697D01*
X42904480Y-43294697D02*
X42964956Y-43234221D01*
X42964956Y-43234221D02*
X43025433Y-43113269D01*
X43025433Y-43113269D02*
X43025433Y-42992316D01*
X43025433Y-42992316D02*
X42964956Y-42871364D01*
X42964956Y-42871364D02*
X42904480Y-42810888D01*
X42904480Y-42810888D02*
X42783528Y-42750411D01*
X42783528Y-42750411D02*
X42541623Y-42689935D01*
X42541623Y-42689935D02*
X42420671Y-42629459D01*
X42420671Y-42629459D02*
X42360194Y-42568983D01*
X42360194Y-42568983D02*
X42299718Y-42448030D01*
X42299718Y-42448030D02*
X42299718Y-42327078D01*
X42299718Y-42327078D02*
X42360194Y-42206126D01*
X42360194Y-42206126D02*
X42420671Y-42145650D01*
X42420671Y-42145650D02*
X42541623Y-42085173D01*
X42541623Y-42085173D02*
X42844004Y-42085173D01*
X42844004Y-42085173D02*
X43025433Y-42145650D01*
X42662575Y-41903745D02*
X42662575Y-43536602D01*
X43448766Y-42085173D02*
X44234957Y-42085173D01*
X44234957Y-42085173D02*
X43811623Y-42568983D01*
X43811623Y-42568983D02*
X43993052Y-42568983D01*
X43993052Y-42568983D02*
X44114004Y-42629459D01*
X44114004Y-42629459D02*
X44174480Y-42689935D01*
X44174480Y-42689935D02*
X44234957Y-42810888D01*
X44234957Y-42810888D02*
X44234957Y-43113269D01*
X44234957Y-43113269D02*
X44174480Y-43234221D01*
X44174480Y-43234221D02*
X44114004Y-43294697D01*
X44114004Y-43294697D02*
X43993052Y-43355173D01*
X43993052Y-43355173D02*
X43630195Y-43355173D01*
X43630195Y-43355173D02*
X43509242Y-43294697D01*
X43509242Y-43294697D02*
X43448766Y-43234221D01*
%TO.C,J2*%
X138677553Y-30978472D02*
X138677553Y-31885615D01*
X138677553Y-31885615D02*
X138617076Y-32067044D01*
X138617076Y-32067044D02*
X138496124Y-32187996D01*
X138496124Y-32187996D02*
X138314695Y-32248472D01*
X138314695Y-32248472D02*
X138193743Y-32248472D01*
X139221838Y-31099425D02*
X139282314Y-31038949D01*
X139282314Y-31038949D02*
X139403267Y-30978472D01*
X139403267Y-30978472D02*
X139705648Y-30978472D01*
X139705648Y-30978472D02*
X139826600Y-31038949D01*
X139826600Y-31038949D02*
X139887076Y-31099425D01*
X139887076Y-31099425D02*
X139947553Y-31220377D01*
X139947553Y-31220377D02*
X139947553Y-31341329D01*
X139947553Y-31341329D02*
X139887076Y-31522758D01*
X139887076Y-31522758D02*
X139161362Y-32248472D01*
X139161362Y-32248472D02*
X139947553Y-32248472D01*
%TO.C,@HOLE13*%
%TO.C,@HOLE1*%
%TO.C,@HOLE2*%
%TO.C,@HOLE10*%
%TO.C,@HOLE15*%
%TO.C,@HOLE6*%
%TO.C,@HOLE16*%
%TO.C,@HOLE3*%
%TO.C,@HOLE12*%
%TO.C,@HOLE4*%
%TO.C,J5*%
X124126666Y-113667380D02*
X124126666Y-114381666D01*
X124126666Y-114381666D02*
X124079047Y-114524523D01*
X124079047Y-114524523D02*
X123983809Y-114619761D01*
X123983809Y-114619761D02*
X123840952Y-114667380D01*
X123840952Y-114667380D02*
X123745714Y-114667380D01*
X125079047Y-113667380D02*
X124602857Y-113667380D01*
X124602857Y-113667380D02*
X124555238Y-114143571D01*
X124555238Y-114143571D02*
X124602857Y-114095952D01*
X124602857Y-114095952D02*
X124698095Y-114048333D01*
X124698095Y-114048333D02*
X124936190Y-114048333D01*
X124936190Y-114048333D02*
X125031428Y-114095952D01*
X125031428Y-114095952D02*
X125079047Y-114143571D01*
X125079047Y-114143571D02*
X125126666Y-114238809D01*
X125126666Y-114238809D02*
X125126666Y-114476904D01*
X125126666Y-114476904D02*
X125079047Y-114572142D01*
X125079047Y-114572142D02*
X125031428Y-114619761D01*
X125031428Y-114619761D02*
X124936190Y-114667380D01*
X124936190Y-114667380D02*
X124698095Y-114667380D01*
X124698095Y-114667380D02*
X124602857Y-114619761D01*
X124602857Y-114619761D02*
X124555238Y-114572142D01*
%TO.C,U$23*%
X171728956Y-81348173D02*
X171728956Y-82376269D01*
X171728956Y-82376269D02*
X171789433Y-82497221D01*
X171789433Y-82497221D02*
X171849909Y-82557697D01*
X171849909Y-82557697D02*
X171970861Y-82618173D01*
X171970861Y-82618173D02*
X172212766Y-82618173D01*
X172212766Y-82618173D02*
X172333718Y-82557697D01*
X172333718Y-82557697D02*
X172394195Y-82497221D01*
X172394195Y-82497221D02*
X172454671Y-82376269D01*
X172454671Y-82376269D02*
X172454671Y-81348173D01*
X172998956Y-82557697D02*
X173180385Y-82618173D01*
X173180385Y-82618173D02*
X173482766Y-82618173D01*
X173482766Y-82618173D02*
X173603718Y-82557697D01*
X173603718Y-82557697D02*
X173664194Y-82497221D01*
X173664194Y-82497221D02*
X173724671Y-82376269D01*
X173724671Y-82376269D02*
X173724671Y-82255316D01*
X173724671Y-82255316D02*
X173664194Y-82134364D01*
X173664194Y-82134364D02*
X173603718Y-82073888D01*
X173603718Y-82073888D02*
X173482766Y-82013411D01*
X173482766Y-82013411D02*
X173240861Y-81952935D01*
X173240861Y-81952935D02*
X173119909Y-81892459D01*
X173119909Y-81892459D02*
X173059432Y-81831983D01*
X173059432Y-81831983D02*
X172998956Y-81711030D01*
X172998956Y-81711030D02*
X172998956Y-81590078D01*
X172998956Y-81590078D02*
X173059432Y-81469126D01*
X173059432Y-81469126D02*
X173119909Y-81408650D01*
X173119909Y-81408650D02*
X173240861Y-81348173D01*
X173240861Y-81348173D02*
X173543242Y-81348173D01*
X173543242Y-81348173D02*
X173724671Y-81408650D01*
X173361813Y-81166745D02*
X173361813Y-82799602D01*
X174208480Y-81469126D02*
X174268956Y-81408650D01*
X174268956Y-81408650D02*
X174389909Y-81348173D01*
X174389909Y-81348173D02*
X174692290Y-81348173D01*
X174692290Y-81348173D02*
X174813242Y-81408650D01*
X174813242Y-81408650D02*
X174873718Y-81469126D01*
X174873718Y-81469126D02*
X174934195Y-81590078D01*
X174934195Y-81590078D02*
X174934195Y-81711030D01*
X174934195Y-81711030D02*
X174873718Y-81892459D01*
X174873718Y-81892459D02*
X174148004Y-82618173D01*
X174148004Y-82618173D02*
X174934195Y-82618173D01*
X175357528Y-81348173D02*
X176143719Y-81348173D01*
X176143719Y-81348173D02*
X175720385Y-81831983D01*
X175720385Y-81831983D02*
X175901814Y-81831983D01*
X175901814Y-81831983D02*
X176022766Y-81892459D01*
X176022766Y-81892459D02*
X176083242Y-81952935D01*
X176083242Y-81952935D02*
X176143719Y-82073888D01*
X176143719Y-82073888D02*
X176143719Y-82376269D01*
X176143719Y-82376269D02*
X176083242Y-82497221D01*
X176083242Y-82497221D02*
X176022766Y-82557697D01*
X176022766Y-82557697D02*
X175901814Y-82618173D01*
X175901814Y-82618173D02*
X175538957Y-82618173D01*
X175538957Y-82618173D02*
X175418004Y-82557697D01*
X175418004Y-82557697D02*
X175357528Y-82497221D01*
D14*
%TO.C,J3*%
X178405366Y-32022482D02*
X178405366Y-32847982D01*
X178405366Y-32847982D02*
X178350333Y-33013082D01*
X178350333Y-33013082D02*
X178240266Y-33123149D01*
X178240266Y-33123149D02*
X178075166Y-33178182D01*
X178075166Y-33178182D02*
X177965100Y-33178182D01*
X178845633Y-32022482D02*
X179561066Y-32022482D01*
X179561066Y-32022482D02*
X179175833Y-32462749D01*
X179175833Y-32462749D02*
X179340933Y-32462749D01*
X179340933Y-32462749D02*
X179450999Y-32517782D01*
X179450999Y-32517782D02*
X179506033Y-32572816D01*
X179506033Y-32572816D02*
X179561066Y-32682882D01*
X179561066Y-32682882D02*
X179561066Y-32958049D01*
X179561066Y-32958049D02*
X179506033Y-33068116D01*
X179506033Y-33068116D02*
X179450999Y-33123149D01*
X179450999Y-33123149D02*
X179340933Y-33178182D01*
X179340933Y-33178182D02*
X179010733Y-33178182D01*
X179010733Y-33178182D02*
X178900666Y-33123149D01*
X178900666Y-33123149D02*
X178845633Y-33068116D01*
D15*
X161970972Y-35437505D02*
X161317829Y-35437505D01*
X161644400Y-35437505D02*
X161644400Y-34294505D01*
X161644400Y-34294505D02*
X161535543Y-34457791D01*
X161535543Y-34457791D02*
X161426686Y-34566648D01*
X161426686Y-34566648D02*
X161317829Y-34621076D01*
X174978100Y-29710861D02*
X174760385Y-29710861D01*
X174760385Y-29710861D02*
X174651528Y-29765290D01*
X174651528Y-29765290D02*
X174597100Y-29819718D01*
X174597100Y-29819718D02*
X174488242Y-29983004D01*
X174488242Y-29983004D02*
X174433814Y-30200718D01*
X174433814Y-30200718D02*
X174433814Y-30636147D01*
X174433814Y-30636147D02*
X174488242Y-30745004D01*
X174488242Y-30745004D02*
X174542671Y-30799432D01*
X174542671Y-30799432D02*
X174651528Y-30853861D01*
X174651528Y-30853861D02*
X174869242Y-30853861D01*
X174869242Y-30853861D02*
X174978100Y-30799432D01*
X174978100Y-30799432D02*
X175032528Y-30745004D01*
X175032528Y-30745004D02*
X175086957Y-30636147D01*
X175086957Y-30636147D02*
X175086957Y-30364004D01*
X175086957Y-30364004D02*
X175032528Y-30255147D01*
X175032528Y-30255147D02*
X174978100Y-30200718D01*
X174978100Y-30200718D02*
X174869242Y-30146290D01*
X174869242Y-30146290D02*
X174651528Y-30146290D01*
X174651528Y-30146290D02*
X174542671Y-30200718D01*
X174542671Y-30200718D02*
X174488242Y-30255147D01*
X174488242Y-30255147D02*
X174433814Y-30364004D01*
D13*
%TO.C,@HOLE5*%
D15*
%TO.C,JP22*%
X131332514Y-67899461D02*
X131332514Y-68715890D01*
X131332514Y-68715890D02*
X131278085Y-68879175D01*
X131278085Y-68879175D02*
X131169228Y-68988032D01*
X131169228Y-68988032D02*
X131005942Y-69042461D01*
X131005942Y-69042461D02*
X130897085Y-69042461D01*
X131876799Y-69042461D02*
X131876799Y-67899461D01*
X131876799Y-67899461D02*
X132312228Y-67899461D01*
X132312228Y-67899461D02*
X132421085Y-67953890D01*
X132421085Y-67953890D02*
X132475514Y-68008318D01*
X132475514Y-68008318D02*
X132529942Y-68117175D01*
X132529942Y-68117175D02*
X132529942Y-68280461D01*
X132529942Y-68280461D02*
X132475514Y-68389318D01*
X132475514Y-68389318D02*
X132421085Y-68443747D01*
X132421085Y-68443747D02*
X132312228Y-68498175D01*
X132312228Y-68498175D02*
X131876799Y-68498175D01*
X132965371Y-68008318D02*
X133019799Y-67953890D01*
X133019799Y-67953890D02*
X133128657Y-67899461D01*
X133128657Y-67899461D02*
X133400799Y-67899461D01*
X133400799Y-67899461D02*
X133509657Y-67953890D01*
X133509657Y-67953890D02*
X133564085Y-68008318D01*
X133564085Y-68008318D02*
X133618514Y-68117175D01*
X133618514Y-68117175D02*
X133618514Y-68226032D01*
X133618514Y-68226032D02*
X133564085Y-68389318D01*
X133564085Y-68389318D02*
X132910942Y-69042461D01*
X132910942Y-69042461D02*
X133618514Y-69042461D01*
X134053942Y-68008318D02*
X134108370Y-67953890D01*
X134108370Y-67953890D02*
X134217228Y-67899461D01*
X134217228Y-67899461D02*
X134489370Y-67899461D01*
X134489370Y-67899461D02*
X134598228Y-67953890D01*
X134598228Y-67953890D02*
X134652656Y-68008318D01*
X134652656Y-68008318D02*
X134707085Y-68117175D01*
X134707085Y-68117175D02*
X134707085Y-68226032D01*
X134707085Y-68226032D02*
X134652656Y-68389318D01*
X134652656Y-68389318D02*
X133999513Y-69042461D01*
X133999513Y-69042461D02*
X134707085Y-69042461D01*
D13*
%TO.C,@HOLE7*%
%TO.C,U$22*%
X121728956Y-81348173D02*
X121728956Y-82376269D01*
X121728956Y-82376269D02*
X121789433Y-82497221D01*
X121789433Y-82497221D02*
X121849909Y-82557697D01*
X121849909Y-82557697D02*
X121970861Y-82618173D01*
X121970861Y-82618173D02*
X122212766Y-82618173D01*
X122212766Y-82618173D02*
X122333718Y-82557697D01*
X122333718Y-82557697D02*
X122394195Y-82497221D01*
X122394195Y-82497221D02*
X122454671Y-82376269D01*
X122454671Y-82376269D02*
X122454671Y-81348173D01*
X122998956Y-82557697D02*
X123180385Y-82618173D01*
X123180385Y-82618173D02*
X123482766Y-82618173D01*
X123482766Y-82618173D02*
X123603718Y-82557697D01*
X123603718Y-82557697D02*
X123664194Y-82497221D01*
X123664194Y-82497221D02*
X123724671Y-82376269D01*
X123724671Y-82376269D02*
X123724671Y-82255316D01*
X123724671Y-82255316D02*
X123664194Y-82134364D01*
X123664194Y-82134364D02*
X123603718Y-82073888D01*
X123603718Y-82073888D02*
X123482766Y-82013411D01*
X123482766Y-82013411D02*
X123240861Y-81952935D01*
X123240861Y-81952935D02*
X123119909Y-81892459D01*
X123119909Y-81892459D02*
X123059432Y-81831983D01*
X123059432Y-81831983D02*
X122998956Y-81711030D01*
X122998956Y-81711030D02*
X122998956Y-81590078D01*
X122998956Y-81590078D02*
X123059432Y-81469126D01*
X123059432Y-81469126D02*
X123119909Y-81408650D01*
X123119909Y-81408650D02*
X123240861Y-81348173D01*
X123240861Y-81348173D02*
X123543242Y-81348173D01*
X123543242Y-81348173D02*
X123724671Y-81408650D01*
X123361813Y-81166745D02*
X123361813Y-82799602D01*
X124208480Y-81469126D02*
X124268956Y-81408650D01*
X124268956Y-81408650D02*
X124389909Y-81348173D01*
X124389909Y-81348173D02*
X124692290Y-81348173D01*
X124692290Y-81348173D02*
X124813242Y-81408650D01*
X124813242Y-81408650D02*
X124873718Y-81469126D01*
X124873718Y-81469126D02*
X124934195Y-81590078D01*
X124934195Y-81590078D02*
X124934195Y-81711030D01*
X124934195Y-81711030D02*
X124873718Y-81892459D01*
X124873718Y-81892459D02*
X124148004Y-82618173D01*
X124148004Y-82618173D02*
X124934195Y-82618173D01*
X125418004Y-81469126D02*
X125478480Y-81408650D01*
X125478480Y-81408650D02*
X125599433Y-81348173D01*
X125599433Y-81348173D02*
X125901814Y-81348173D01*
X125901814Y-81348173D02*
X126022766Y-81408650D01*
X126022766Y-81408650D02*
X126083242Y-81469126D01*
X126083242Y-81469126D02*
X126143719Y-81590078D01*
X126143719Y-81590078D02*
X126143719Y-81711030D01*
X126143719Y-81711030D02*
X126083242Y-81892459D01*
X126083242Y-81892459D02*
X125357528Y-82618173D01*
X125357528Y-82618173D02*
X126143719Y-82618173D01*
D17*
%TO.C,J4*%
X142110065Y-112833600D02*
X143380065Y-112833600D01*
X143380065Y-112833600D02*
X144015065Y-112198600D01*
X141475065Y-112198600D02*
X142110065Y-112833600D01*
X141475065Y-112198600D02*
X141475065Y-110928600D01*
X141475065Y-110928600D02*
X142110065Y-110293600D01*
X144015065Y-110928600D02*
X144015065Y-112198600D01*
X142110065Y-110293600D02*
X141475065Y-109658600D01*
X143380065Y-110293600D02*
X144015065Y-110928600D01*
X141475065Y-109658600D02*
X141475065Y-108388600D01*
X144015065Y-109658600D02*
X143380065Y-110293600D01*
X141475065Y-108388600D02*
X142110065Y-107753600D01*
X144015065Y-108388600D02*
X144015065Y-109658600D01*
X142110065Y-107753600D02*
X141475065Y-107118600D01*
X143380065Y-107753600D02*
X144015065Y-108388600D01*
X141475065Y-107118600D02*
X141475065Y-105848600D01*
X144015065Y-107118600D02*
X143380065Y-107753600D01*
X141475065Y-105848600D02*
X142110065Y-105213600D01*
X144015065Y-105848600D02*
X144015065Y-107118600D01*
X143380065Y-105213600D02*
X144015065Y-105848600D01*
X143380065Y-105213600D02*
X144015065Y-104578600D01*
X141475065Y-104578600D02*
X142110065Y-105213600D01*
X141475065Y-104578600D02*
X141475065Y-103308600D01*
X141475065Y-103308600D02*
X142110065Y-102673600D01*
X144015065Y-103308600D02*
X144015065Y-104578600D01*
X142110065Y-102673600D02*
X143380065Y-102673600D01*
X143380065Y-102673600D02*
X144015065Y-103308600D01*
D15*
%TO.C,U$15*%
X285000100Y-73773600D02*
X285000100Y-74154600D01*
D17*
%TO.C,JP11*%
X263231100Y-79118600D02*
X263231100Y-80388600D01*
X263231100Y-80388600D02*
X263866100Y-81023600D01*
X263866100Y-78483600D02*
X263231100Y-79118600D01*
X263866100Y-78483600D02*
X265136100Y-78483600D01*
X265136100Y-78483600D02*
X265771100Y-79118600D01*
X265136100Y-81023600D02*
X263866100Y-81023600D01*
X265771100Y-79118600D02*
X265771100Y-80388600D01*
X265771100Y-80388600D02*
X265136100Y-81023600D01*
D15*
%TO.C,U$11*%
X285000100Y-46163600D02*
X285000100Y-46544600D01*
D17*
%TO.C,JP1*%
X54610000Y-47625000D02*
X54610000Y-48895000D01*
X54610000Y-48895000D02*
X55245000Y-49530000D01*
X55245000Y-46990000D02*
X54610000Y-47625000D01*
X55245000Y-46990000D02*
X56515000Y-46990000D01*
X56515000Y-46990000D02*
X57150000Y-47625000D01*
X56515000Y-49530000D02*
X55245000Y-49530000D01*
X57150000Y-47625000D02*
X57150000Y-48895000D01*
X57150000Y-48895000D02*
X56515000Y-49530000D01*
%TO.C,JP10*%
X237231100Y-87118600D02*
X237231100Y-88388600D01*
X237231100Y-88388600D02*
X237866100Y-89023600D01*
X237866100Y-86483600D02*
X237231100Y-87118600D01*
X237866100Y-86483600D02*
X239136100Y-86483600D01*
X239136100Y-86483600D02*
X239771100Y-87118600D01*
X239136100Y-89023600D02*
X237866100Y-89023600D01*
X239771100Y-87118600D02*
X239771100Y-88388600D01*
X239771100Y-88388600D02*
X239136100Y-89023600D01*
D15*
%TO.C,U$17*%
X223112100Y-119133600D02*
X223112100Y-119514600D01*
D17*
%TO.C,JP5*%
X80231100Y-88118600D02*
X80231100Y-89388600D01*
X80231100Y-89388600D02*
X80866100Y-90023600D01*
X80866100Y-87483600D02*
X80231100Y-88118600D01*
X80866100Y-87483600D02*
X82136100Y-87483600D01*
X82136100Y-87483600D02*
X82771100Y-88118600D01*
X82136100Y-90023600D02*
X80866100Y-90023600D01*
X82771100Y-88118600D02*
X82771100Y-89388600D01*
X82771100Y-89388600D02*
X82136100Y-90023600D01*
D15*
%TO.C,U$6*%
X78292100Y-150318600D02*
X78292100Y-150699600D01*
D17*
%TO.C,D1*%
X164581100Y-68547600D02*
X154421100Y-68547600D01*
X164581100Y-62959600D02*
X164581100Y-68547600D01*
X160771100Y-65753600D02*
X159501100Y-65753600D01*
X159501100Y-66337800D02*
X159501100Y-65753600D01*
X159501100Y-65753600D02*
X159501100Y-65169400D01*
X159501100Y-65753600D02*
X158358100Y-66337800D01*
X159501100Y-65753600D02*
X157215100Y-65753600D01*
X158358100Y-66337800D02*
X158358100Y-65169400D01*
X158358100Y-65169400D02*
X159501100Y-65753600D01*
X154421100Y-68547600D02*
X154421100Y-62959600D01*
X154421100Y-62959600D02*
X164581100Y-62959600D01*
G36*
X165470100Y-66388600D02*
G01*
X164581100Y-66388600D01*
X164581100Y-65118600D01*
X165470100Y-65118600D01*
X165470100Y-66388600D01*
G37*
G36*
X163692100Y-68547600D02*
G01*
X162930100Y-68547600D01*
X162930100Y-62959600D01*
X163692100Y-62959600D01*
X163692100Y-68547600D01*
G37*
G36*
X154421100Y-66388600D02*
G01*
X153532100Y-66388600D01*
X153532100Y-65118600D01*
X154421100Y-65118600D01*
X154421100Y-66388600D01*
G37*
D15*
%TO.C,U$20*%
X223112100Y-150318600D02*
X223112100Y-150699600D01*
%TO.C,D2*%
X159926100Y-56603600D02*
X157076100Y-56603600D01*
X157076100Y-54903600D02*
X159926100Y-54903600D01*
D10*
X161601100Y-55753600D02*
G75*
G03*
X161601100Y-55753600I-100000J0D01*
G01*
D17*
%TO.C,JP18*%
X210231100Y-133118600D02*
X210231100Y-134388600D01*
X210231100Y-134388600D02*
X210866100Y-135023600D01*
X210866100Y-132483600D02*
X210231100Y-133118600D01*
X210866100Y-132483600D02*
X212136100Y-132483600D01*
X212136100Y-132483600D02*
X212771100Y-133118600D01*
X212136100Y-135023600D02*
X210866100Y-135023600D01*
X212771100Y-133118600D02*
X212771100Y-134388600D01*
X212771100Y-134388600D02*
X212136100Y-135023600D01*
%TO.C,JP23*%
X181610000Y-93345000D02*
X181610000Y-94615000D01*
X181610000Y-94615000D02*
X182245000Y-95250000D01*
X182245000Y-92710000D02*
X181610000Y-93345000D01*
X182245000Y-92710000D02*
X183515000Y-92710000D01*
X183515000Y-92710000D02*
X184150000Y-93345000D01*
X183515000Y-95250000D02*
X182245000Y-95250000D01*
X184150000Y-93345000D02*
X184150000Y-94615000D01*
X184150000Y-94615000D02*
X183515000Y-95250000D01*
D15*
%TO.C,U$10*%
X256645100Y-43188600D02*
X256645100Y-43569600D01*
D17*
%TO.C,JP6*%
X85231100Y-158118600D02*
X85231100Y-159388600D01*
X85231100Y-159388600D02*
X85866100Y-160023600D01*
X85866100Y-157483600D02*
X85231100Y-158118600D01*
X85866100Y-157483600D02*
X87136100Y-157483600D01*
X87136100Y-157483600D02*
X87771100Y-158118600D01*
X87136100Y-160023600D02*
X85866100Y-160023600D01*
X87771100Y-158118600D02*
X87771100Y-159388600D01*
X87771100Y-159388600D02*
X87136100Y-160023600D01*
%TO.C,JP14*%
X310231100Y-72118600D02*
X310231100Y-73388600D01*
X310231100Y-73388600D02*
X310866100Y-74023600D01*
X310866100Y-71483600D02*
X310231100Y-72118600D01*
X310866100Y-71483600D02*
X312136100Y-71483600D01*
X312136100Y-71483600D02*
X312771100Y-72118600D01*
X312136100Y-74023600D02*
X310866100Y-74023600D01*
X312771100Y-72118600D02*
X312771100Y-73388600D01*
X312771100Y-73388600D02*
X312136100Y-74023600D01*
%TO.C,JP4*%
X53231100Y-78118600D02*
X53231100Y-79388600D01*
X53231100Y-79388600D02*
X53866100Y-80023600D01*
X53866100Y-77483600D02*
X53231100Y-78118600D01*
X53866100Y-77483600D02*
X55136100Y-77483600D01*
X55136100Y-77483600D02*
X55771100Y-78118600D01*
X55136100Y-80023600D02*
X53866100Y-80023600D01*
X55771100Y-78118600D02*
X55771100Y-79388600D01*
X55771100Y-79388600D02*
X55136100Y-80023600D01*
D15*
%TO.C,U$3*%
X44761100Y-43904600D02*
X44761100Y-44285600D01*
%TO.C,U$13*%
X230127100Y-82793600D02*
X230127100Y-83174600D01*
D17*
%TO.C,JP9*%
X240231100Y-60118600D02*
X240231100Y-61388600D01*
X240231100Y-61388600D02*
X240866100Y-62023600D01*
X240866100Y-59483600D02*
X240231100Y-60118600D01*
X240866100Y-59483600D02*
X242136100Y-59483600D01*
X242136100Y-59483600D02*
X242771100Y-60118600D01*
X242136100Y-62023600D02*
X240866100Y-62023600D01*
X242771100Y-60118600D02*
X242771100Y-61388600D01*
X242771100Y-61388600D02*
X242136100Y-62023600D01*
D18*
%TO.C,J2*%
X151568981Y-26753600D02*
X143568981Y-26753600D01*
D15*
%TO.C,U$1*%
X-8874900Y-90433600D02*
X-8874900Y-90814600D01*
%TO.C,U$21*%
X200425100Y-166088600D02*
X200425100Y-166469600D01*
D17*
%TO.C,JP16*%
X290231100Y-83118600D02*
X290231100Y-84388600D01*
X290231100Y-84388600D02*
X290866100Y-85023600D01*
X290866100Y-82483600D02*
X290231100Y-83118600D01*
X290866100Y-82483600D02*
X292136100Y-82483600D01*
X292136100Y-82483600D02*
X292771100Y-83118600D01*
X292136100Y-85023600D02*
X290866100Y-85023600D01*
X292771100Y-83118600D02*
X292771100Y-84388600D01*
X292771100Y-84388600D02*
X292136100Y-85023600D01*
D15*
%TO.C,U$2*%
X16405100Y-74130600D02*
X16405100Y-74511600D01*
%TO.C,U$4*%
X44761100Y-71404600D02*
X44761100Y-71785600D01*
D17*
%TO.C,JP20*%
X234231100Y-150118600D02*
X234231100Y-151388600D01*
X234231100Y-151388600D02*
X234866100Y-152023600D01*
X234866100Y-149483600D02*
X234231100Y-150118600D01*
X234866100Y-149483600D02*
X236136100Y-149483600D01*
X236136100Y-149483600D02*
X236771100Y-150118600D01*
X236136100Y-152023600D02*
X234866100Y-152023600D01*
X236771100Y-150118600D02*
X236771100Y-151388600D01*
X236771100Y-151388600D02*
X236136100Y-152023600D01*
D15*
%TO.C,U$7*%
X100980100Y-166087600D02*
X100980100Y-166468600D01*
D17*
%TO.C,JP13*%
X293231100Y-54118600D02*
X293231100Y-55388600D01*
X293231100Y-55388600D02*
X293866100Y-56023600D01*
X293866100Y-53483600D02*
X293231100Y-54118600D01*
X293866100Y-53483600D02*
X295136100Y-53483600D01*
X295136100Y-53483600D02*
X295771100Y-54118600D01*
X295136100Y-56023600D02*
X293866100Y-56023600D01*
X295771100Y-54118600D02*
X295771100Y-55388600D01*
X295771100Y-55388600D02*
X295136100Y-56023600D01*
D15*
%TO.C,U$19*%
X245769100Y-134903600D02*
X245769100Y-135284600D01*
D17*
%TO.C,JP17*%
X235231100Y-125118600D02*
X235231100Y-126388600D01*
X235231100Y-126388600D02*
X235866100Y-127023600D01*
X235866100Y-124483600D02*
X235231100Y-125118600D01*
X235866100Y-124483600D02*
X237136100Y-124483600D01*
X237136100Y-124483600D02*
X237771100Y-125118600D01*
X237136100Y-127023600D02*
X235866100Y-127023600D01*
X237771100Y-125118600D02*
X237771100Y-126388600D01*
X237771100Y-126388600D02*
X237136100Y-127023600D01*
%TO.C,JP12*%
X267231100Y-39118600D02*
X267231100Y-40388600D01*
X267231100Y-40388600D02*
X267866100Y-41023600D01*
X267866100Y-38483600D02*
X267231100Y-39118600D01*
X267866100Y-38483600D02*
X269136100Y-38483600D01*
X269136100Y-38483600D02*
X269771100Y-39118600D01*
X269136100Y-41023600D02*
X267866100Y-41023600D01*
X269771100Y-39118600D02*
X269771100Y-40388600D01*
X269771100Y-40388600D02*
X269136100Y-41023600D01*
D15*
%TO.C,J1*%
X17001100Y-126253600D02*
X23501100Y-126253600D01*
X17001100Y-177253600D02*
X17001100Y-126253600D01*
X23501100Y-124753600D02*
X31501100Y-124753600D01*
X23501100Y-126253600D02*
X23501100Y-124753600D01*
X23501100Y-126253600D02*
X23501100Y-130753600D01*
X23501100Y-126253600D02*
X31401100Y-126253600D01*
X23501100Y-130753600D02*
X31501100Y-130753600D01*
X31401100Y-126253600D02*
X38001100Y-126253600D01*
X31501100Y-124753600D02*
X31401100Y-126253600D01*
X31501100Y-130753600D02*
X31401100Y-126253600D01*
X38001100Y-126253600D02*
X38001100Y-177253600D01*
X38001100Y-177253600D02*
X17001100Y-177253600D01*
D17*
%TO.C,JP15*%
X312231100Y-100118600D02*
X312231100Y-101388600D01*
X312231100Y-101388600D02*
X312866100Y-102023600D01*
X312866100Y-99483600D02*
X312231100Y-100118600D01*
X312866100Y-99483600D02*
X314136100Y-99483600D01*
X314136100Y-99483600D02*
X314771100Y-100118600D01*
X314136100Y-102023600D02*
X312866100Y-102023600D01*
X314771100Y-100118600D02*
X314771100Y-101388600D01*
X314771100Y-101388600D02*
X314136100Y-102023600D01*
D15*
%TO.C,U$5*%
X71333100Y-83167600D02*
X71333100Y-83548600D01*
%TO.C,U$18*%
X200425100Y-134903600D02*
X200425100Y-135284600D01*
%TO.C,U$16*%
X311223100Y-89809600D02*
X311223100Y-90190600D01*
D17*
%TO.C,JP7*%
X111231100Y-161118600D02*
X111231100Y-162388600D01*
X111231100Y-162388600D02*
X111866100Y-163023600D01*
X111866100Y-160483600D02*
X111231100Y-161118600D01*
X111866100Y-160483600D02*
X113136100Y-160483600D01*
X113136100Y-160483600D02*
X113771100Y-161118600D01*
X113136100Y-163023600D02*
X111866100Y-163023600D01*
X113771100Y-161118600D02*
X113771100Y-162388600D01*
X113771100Y-162388600D02*
X113136100Y-163023600D01*
D19*
%TO.C,J5*%
X116299393Y-103971075D02*
X116299393Y-111971075D01*
D17*
%TO.C,JP2*%
X1231100Y-96118600D02*
X1231100Y-97388600D01*
X1231100Y-97388600D02*
X1866100Y-98023600D01*
X1866100Y-95483600D02*
X1231100Y-96118600D01*
X1866100Y-95483600D02*
X3136100Y-95483600D01*
X3136100Y-95483600D02*
X3771100Y-96118600D01*
X3136100Y-98023600D02*
X1866100Y-98023600D01*
X3771100Y-96118600D02*
X3771100Y-97388600D01*
X3771100Y-97388600D02*
X3136100Y-98023600D01*
%TO.C,JP8*%
X155231100Y-94118600D02*
X155231100Y-95388600D01*
X155231100Y-95388600D02*
X155866100Y-96023600D01*
X155866100Y-93483600D02*
X155231100Y-94118600D01*
X155866100Y-93483600D02*
X157136100Y-93483600D01*
X157136100Y-93483600D02*
X157771100Y-94118600D01*
X157136100Y-96023600D02*
X155866100Y-96023600D01*
X157771100Y-94118600D02*
X157771100Y-95388600D01*
X157771100Y-95388600D02*
X157136100Y-96023600D01*
D15*
%TO.C,U$12*%
X311223100Y-62199600D02*
X311223100Y-62580600D01*
%TO.C,U$9*%
X230127100Y-55184600D02*
X230127100Y-55565600D01*
%TO.C,U$23*%
X176065100Y-83167600D02*
X176065100Y-83548600D01*
D17*
%TO.C,JP21*%
X182231100Y-171118600D02*
X182231100Y-172388600D01*
X182231100Y-172388600D02*
X182866100Y-173023600D01*
X182866100Y-170483600D02*
X182231100Y-171118600D01*
X182866100Y-170483600D02*
X184136100Y-170483600D01*
X184136100Y-170483600D02*
X184771100Y-171118600D01*
X184136100Y-173023600D02*
X182866100Y-173023600D01*
X184771100Y-171118600D02*
X184771100Y-172388600D01*
X184771100Y-172388600D02*
X184136100Y-173023600D01*
D15*
%TO.C,U$14*%
X256645100Y-70798600D02*
X256645100Y-71179600D01*
D17*
%TO.C,JP19*%
X256231100Y-141118600D02*
X256231100Y-142388600D01*
X256231100Y-142388600D02*
X256866100Y-143023600D01*
X256866100Y-140483600D02*
X256231100Y-141118600D01*
X256866100Y-140483600D02*
X258136100Y-140483600D01*
X258136100Y-140483600D02*
X258771100Y-141118600D01*
X258136100Y-143023600D02*
X256866100Y-143023600D01*
X258771100Y-141118600D02*
X258771100Y-142388600D01*
X258771100Y-142388600D02*
X258136100Y-143023600D01*
%TO.C,J3*%
X160881100Y-32118600D02*
X160881100Y-33388600D01*
X160881100Y-33388600D02*
X161516100Y-34023600D01*
X161516100Y-31483600D02*
X160881100Y-32118600D01*
X161516100Y-31483600D02*
X162786100Y-31483600D01*
X162786100Y-31483600D02*
X163421100Y-32118600D01*
X162786100Y-34023600D02*
X161516100Y-34023600D01*
X163421100Y-32118600D02*
X164056100Y-31483600D01*
X163421100Y-33388600D02*
X162786100Y-34023600D01*
X164056100Y-31483600D02*
X165326100Y-31483600D01*
X164056100Y-34023600D02*
X163421100Y-33388600D01*
X165326100Y-31483600D02*
X165961100Y-32118600D01*
X165326100Y-34023600D02*
X164056100Y-34023600D01*
X165961100Y-32118600D02*
X166596100Y-31483600D01*
X165961100Y-33388600D02*
X165326100Y-34023600D01*
X166596100Y-31483600D02*
X167866100Y-31483600D01*
X166596100Y-34023600D02*
X165961100Y-33388600D01*
X167866100Y-31483600D02*
X168501100Y-32118600D01*
X167866100Y-34023600D02*
X166596100Y-34023600D01*
X168501100Y-33388600D02*
X167866100Y-34023600D01*
X168501100Y-33388600D02*
X169136100Y-34023600D01*
X169136100Y-31483600D02*
X168501100Y-32118600D01*
X169136100Y-31483600D02*
X170406100Y-31483600D01*
X170406100Y-31483600D02*
X171041100Y-32118600D01*
X170406100Y-34023600D02*
X169136100Y-34023600D01*
X171041100Y-32118600D02*
X171676100Y-31483600D01*
X171041100Y-33388600D02*
X170406100Y-34023600D01*
X171676100Y-31483600D02*
X172946100Y-31483600D01*
X171676100Y-34023600D02*
X171041100Y-33388600D01*
X172946100Y-31483600D02*
X173581100Y-32118600D01*
X172946100Y-34023600D02*
X171676100Y-34023600D01*
X173581100Y-32118600D02*
X174216100Y-31483600D01*
X173581100Y-33388600D02*
X172946100Y-34023600D01*
X174216100Y-31483600D02*
X175486100Y-31483600D01*
X174216100Y-34023600D02*
X173581100Y-33388600D01*
X175486100Y-31483600D02*
X176121100Y-32118600D01*
X175486100Y-34023600D02*
X174216100Y-34023600D01*
X176121100Y-32118600D02*
X176121100Y-33388600D01*
X176121100Y-33388600D02*
X175486100Y-34023600D01*
%TO.C,JP22*%
X130810000Y-70485000D02*
X130810000Y-71755000D01*
X130810000Y-71755000D02*
X131445000Y-72390000D01*
X131445000Y-69850000D02*
X130810000Y-70485000D01*
X131445000Y-69850000D02*
X132715000Y-69850000D01*
X132715000Y-69850000D02*
X133350000Y-70485000D01*
X132715000Y-72390000D02*
X131445000Y-72390000D01*
X133350000Y-70485000D02*
X133350000Y-71755000D01*
X133350000Y-71755000D02*
X132715000Y-72390000D01*
D15*
%TO.C,U$22*%
X126065100Y-83167600D02*
X126065100Y-83548600D01*
D17*
%TO.C,JP3*%
X16231100Y-85118600D02*
X16231100Y-86388600D01*
X16231100Y-86388600D02*
X16866100Y-87023600D01*
X16866100Y-84483600D02*
X16231100Y-85118600D01*
X16866100Y-84483600D02*
X18136100Y-84483600D01*
X18136100Y-84483600D02*
X18771100Y-85118600D01*
X18136100Y-87023600D02*
X16866100Y-87023600D01*
X18771100Y-85118600D02*
X18771100Y-86388600D01*
X18771100Y-86388600D02*
X18136100Y-87023600D01*
D15*
%TO.C,U$8*%
X151065100Y-83167600D02*
X151065100Y-83548600D01*
%TD*%
%LPC*%
D20*
%TO.C,J4*%
X142745064Y-111563599D03*
X142745064Y-109023599D03*
X142745064Y-106483599D03*
X142745064Y-103943599D03*
%TD*%
D21*
%TO.C,U$15*%
X287921100Y-72757600D03*
D22*
X286651100Y-75297600D03*
D23*
X282841100Y-72757600D03*
D22*
X280301100Y-77837600D03*
D21*
X277761100Y-72757600D03*
D24*
X279031100Y-70217600D03*
X285381100Y-67677600D03*
%TD*%
D25*
%TO.C,JP11*%
X264501100Y-79753600D03*
%TD*%
D21*
%TO.C,U$11*%
X287921100Y-45147600D03*
D22*
X286651100Y-47687600D03*
D23*
X282841100Y-45147600D03*
D22*
X280301100Y-50227600D03*
D21*
X277761100Y-45147600D03*
D24*
X279031100Y-42607600D03*
X285381100Y-40067600D03*
%TD*%
D25*
%TO.C,JP1*%
X55880000Y-48260000D03*
%TD*%
%TO.C,JP10*%
X238501100Y-87753600D03*
%TD*%
D21*
%TO.C,U$17*%
X226033100Y-118117600D03*
D22*
X224763100Y-120657600D03*
D23*
X220953100Y-118117600D03*
D22*
X218413100Y-123197600D03*
D21*
X215873100Y-118117600D03*
D24*
X217143100Y-115577600D03*
X223493100Y-113037600D03*
%TD*%
D25*
%TO.C,JP5*%
X81501100Y-88753600D03*
%TD*%
D21*
%TO.C,U$6*%
X81213100Y-149302600D03*
D22*
X79943100Y-151842600D03*
D23*
X76133100Y-149302600D03*
D22*
X73593100Y-154382600D03*
D21*
X71053100Y-149302600D03*
D24*
X72323100Y-146762600D03*
X78673100Y-144222600D03*
%TD*%
D26*
%TO.C,D1*%
X151881099Y-65753599D03*
X167121099Y-65753599D03*
%TD*%
D27*
%TO.C,@HOLE11*%
X174501100Y-45253600D03*
%TD*%
D28*
%TO.C,@HOLE8*%
X184501100Y-71753600D03*
%TD*%
D22*
%TO.C,@HOLE0*%
X68501100Y-166753600D03*
%TD*%
D21*
%TO.C,U$20*%
X226033100Y-149302600D03*
D22*
X224763100Y-151842600D03*
D23*
X220953100Y-149302600D03*
D22*
X218413100Y-154382600D03*
D21*
X215873100Y-149302600D03*
D24*
X217143100Y-146762600D03*
X223493100Y-144222600D03*
%TD*%
D29*
%TO.C,D2*%
X156821100Y-55753600D03*
X160181100Y-55753600D03*
%TD*%
D25*
%TO.C,JP18*%
X211501100Y-133753600D03*
%TD*%
D28*
%TO.C,@HOLE9*%
X136501100Y-160753600D03*
%TD*%
D25*
%TO.C,JP23*%
X182880000Y-93980000D03*
%TD*%
D21*
%TO.C,U$10*%
X259566100Y-42172600D03*
D22*
X258296100Y-44712600D03*
D23*
X254486100Y-42172600D03*
D22*
X251946100Y-47252600D03*
D21*
X249406100Y-42172600D03*
D24*
X250676100Y-39632600D03*
X257026100Y-37092600D03*
%TD*%
D25*
%TO.C,JP6*%
X86501100Y-158753600D03*
%TD*%
D30*
%TO.C,@HOLE14*%
X122501100Y-131553600D03*
%TD*%
D25*
%TO.C,JP14*%
X311501100Y-72753600D03*
%TD*%
%TO.C,JP4*%
X54501100Y-78753600D03*
%TD*%
D21*
%TO.C,U$3*%
X47682100Y-42888600D03*
D22*
X46412100Y-45428600D03*
D23*
X42602100Y-42888600D03*
D22*
X40062100Y-47968600D03*
D21*
X37522100Y-42888600D03*
D24*
X38792100Y-40348600D03*
X45142100Y-37808600D03*
%TD*%
D21*
%TO.C,U$13*%
X233048100Y-81777600D03*
D22*
X231778100Y-84317600D03*
D23*
X227968100Y-81777600D03*
D22*
X225428100Y-86857600D03*
D21*
X222888100Y-81777600D03*
D24*
X224158100Y-79237600D03*
X230508100Y-76697600D03*
%TD*%
D25*
%TO.C,JP9*%
X241501100Y-60753600D03*
%TD*%
D31*
%TO.C,J2*%
X151168981Y-34593600D03*
X143818981Y-34593600D03*
D32*
X150318981Y-35153600D03*
X149818981Y-35153600D03*
X149318981Y-35153600D03*
X148818981Y-35153600D03*
X148318981Y-35153600D03*
X147818981Y-35153600D03*
X147318981Y-35153600D03*
X146818981Y-35153600D03*
X146318981Y-35153600D03*
X145818981Y-35153600D03*
X145318981Y-35153600D03*
X144818981Y-35153600D03*
D33*
X144768981Y-33943600D03*
X145168981Y-33243600D03*
X145968981Y-33243600D03*
X146368981Y-33943600D03*
X146768981Y-33243600D03*
X147168981Y-33943600D03*
X147968981Y-33943600D03*
X148368981Y-33243600D03*
X148768981Y-33943600D03*
X149168981Y-33243600D03*
X149968981Y-33243600D03*
X150368981Y-33943600D03*
D34*
X151698980Y-33343599D03*
X143438980Y-33343599D03*
X152058980Y-28953599D03*
X143078980Y-28953599D03*
%TD*%
D21*
%TO.C,U$1*%
X-5953900Y-89417600D03*
D22*
X-7223900Y-91957600D03*
D23*
X-11033900Y-89417600D03*
D22*
X-13573900Y-94497600D03*
D21*
X-16113900Y-89417600D03*
D24*
X-14843900Y-86877600D03*
X-8493900Y-84337600D03*
%TD*%
D21*
%TO.C,U$21*%
X203346100Y-165072600D03*
D22*
X202076100Y-167612600D03*
D23*
X198266100Y-165072600D03*
D22*
X195726100Y-170152600D03*
D21*
X193186100Y-165072600D03*
D24*
X194456100Y-162532600D03*
X200806100Y-159992600D03*
%TD*%
D25*
%TO.C,JP16*%
X291501100Y-83753600D03*
%TD*%
D21*
%TO.C,U$2*%
X19326100Y-73114600D03*
D22*
X18056100Y-75654600D03*
D23*
X14246100Y-73114600D03*
D22*
X11706100Y-78194600D03*
D21*
X9166100Y-73114600D03*
D24*
X10436100Y-70574600D03*
X16786100Y-68034600D03*
%TD*%
D21*
%TO.C,U$4*%
X47682100Y-70388600D03*
D22*
X46412100Y-72928600D03*
D23*
X42602100Y-70388600D03*
D22*
X40062100Y-75468600D03*
D21*
X37522100Y-70388600D03*
D24*
X38792100Y-67848600D03*
X45142100Y-65308600D03*
%TD*%
D27*
%TO.C,@HOLE13*%
X20320000Y-43453600D03*
%TD*%
D22*
%TO.C,@HOLE1*%
X284501100Y-147753600D03*
%TD*%
D25*
%TO.C,JP20*%
X235501100Y-150753600D03*
%TD*%
D21*
%TO.C,U$7*%
X103901100Y-165071600D03*
D22*
X102631100Y-167611600D03*
D23*
X98821100Y-165071600D03*
D22*
X96281100Y-170151600D03*
D21*
X93741100Y-165071600D03*
D24*
X95011100Y-162531600D03*
X101361100Y-159991600D03*
%TD*%
D25*
%TO.C,JP13*%
X294501100Y-54753600D03*
%TD*%
D21*
%TO.C,U$19*%
X248690100Y-133887600D03*
D22*
X247420100Y-136427600D03*
D23*
X243610100Y-133887600D03*
D22*
X241070100Y-138967600D03*
D21*
X238530100Y-133887600D03*
D24*
X239800100Y-131347600D03*
X246150100Y-128807600D03*
%TD*%
D25*
%TO.C,JP17*%
X236501100Y-125753600D03*
%TD*%
%TO.C,JP12*%
X268501100Y-39753600D03*
%TD*%
D22*
%TO.C,@HOLE2*%
X-19498900Y-154753600D03*
%TD*%
D35*
%TO.C,J1*%
X21801100Y-128253600D03*
X21801100Y-175253600D03*
D36*
X24776100Y-127753600D03*
X25076100Y-130783600D03*
X29926100Y-130783600D03*
X30226100Y-127753600D03*
D35*
X33201100Y-128253600D03*
X33201100Y-175253600D03*
D37*
X37191099Y-137783599D03*
X37191099Y-135243599D03*
X37191099Y-140323599D03*
X37191099Y-145403599D03*
X17811099Y-132703599D03*
X17811099Y-145403599D03*
X17811099Y-158103599D03*
X17811099Y-170803599D03*
D38*
X27501099Y-176453599D03*
D37*
X37191099Y-170803599D03*
X37191099Y-158103599D03*
X37191099Y-132703599D03*
X17811099Y-127623599D03*
X17811099Y-130163599D03*
X17811099Y-135243599D03*
X17811099Y-137783599D03*
X17811099Y-140323599D03*
X17811099Y-142863599D03*
X17811099Y-147943599D03*
X17811099Y-150483599D03*
X17811099Y-153023599D03*
X17811099Y-155563599D03*
X17811099Y-160643599D03*
X17811099Y-163183599D03*
X17811099Y-165723599D03*
X17811099Y-168263599D03*
X17811099Y-173343599D03*
X17811099Y-175883599D03*
X37191099Y-175883599D03*
X37191099Y-173343599D03*
X37191099Y-168263599D03*
X37191099Y-165723599D03*
X37191099Y-163183599D03*
X37191099Y-160643599D03*
X37191099Y-155563599D03*
X37191099Y-150483599D03*
X37191099Y-147943599D03*
X37191099Y-142863599D03*
X37191099Y-153023599D03*
D38*
X24961099Y-176453599D03*
X30041099Y-176453599D03*
D39*
X28501100Y-127453600D03*
X26501100Y-127453600D03*
D37*
X37191099Y-127623599D03*
X37191099Y-130163599D03*
%TD*%
D25*
%TO.C,JP15*%
X313501100Y-100753600D03*
%TD*%
D22*
%TO.C,@HOLE10*%
X119501100Y-59753600D03*
%TD*%
D27*
%TO.C,@HOLE15*%
X256501100Y-161753600D03*
%TD*%
D28*
%TO.C,@HOLE6*%
X-13498900Y-143753600D03*
%TD*%
D22*
%TO.C,@HOLE16*%
X71501100Y-125753600D03*
%TD*%
D21*
%TO.C,U$5*%
X74254100Y-82151600D03*
D22*
X72984100Y-84691600D03*
D23*
X69174100Y-82151600D03*
D22*
X66634100Y-87231600D03*
D21*
X64094100Y-82151600D03*
D24*
X65364100Y-79611600D03*
X71714100Y-77071600D03*
%TD*%
D21*
%TO.C,U$18*%
X203346100Y-133887600D03*
D22*
X202076100Y-136427600D03*
D23*
X198266100Y-133887600D03*
D22*
X195726100Y-138967600D03*
D21*
X193186100Y-133887600D03*
D24*
X194456100Y-131347600D03*
X200806100Y-128807600D03*
%TD*%
D22*
%TO.C,@HOLE3*%
X182501100Y-126753600D03*
%TD*%
D27*
%TO.C,@HOLE12*%
X-11098900Y-108953600D03*
%TD*%
D21*
%TO.C,U$16*%
X314144100Y-88793600D03*
D22*
X312874100Y-91333600D03*
D23*
X309064100Y-88793600D03*
D22*
X306524100Y-93873600D03*
D21*
X303984100Y-88793600D03*
D24*
X305254100Y-86253600D03*
X311604100Y-83713600D03*
%TD*%
D28*
%TO.C,@HOLE4*%
X268501100Y-54753600D03*
%TD*%
D25*
%TO.C,JP7*%
X112501100Y-161753600D03*
%TD*%
D31*
%TO.C,J5*%
X122579393Y-105081075D03*
X122579393Y-110861075D03*
D40*
X123699393Y-104771075D03*
X123699393Y-105571075D03*
D41*
X123699393Y-106721075D03*
X123699393Y-107721075D03*
X123699393Y-108221075D03*
X123699393Y-109221075D03*
D40*
X123699393Y-111171075D03*
X123699393Y-110371075D03*
D41*
X123699393Y-109721075D03*
X123699393Y-108721075D03*
X123699393Y-107221075D03*
X123699393Y-106221075D03*
D42*
X123079392Y-103651074D03*
D43*
X118899392Y-103651074D03*
D42*
X123079392Y-112291074D03*
D43*
X118899392Y-112291074D03*
%TD*%
D25*
%TO.C,JP2*%
X2501100Y-96753600D03*
%TD*%
%TO.C,JP8*%
X156501100Y-94753600D03*
%TD*%
D21*
%TO.C,U$12*%
X314144100Y-61183600D03*
D22*
X312874100Y-63723600D03*
D23*
X309064100Y-61183600D03*
D22*
X306524100Y-66263600D03*
D21*
X303984100Y-61183600D03*
D24*
X305254100Y-58643600D03*
X311604100Y-56103600D03*
%TD*%
D21*
%TO.C,U$9*%
X233048100Y-54168600D03*
D22*
X231778100Y-56708600D03*
D23*
X227968100Y-54168600D03*
D22*
X225428100Y-59248600D03*
D21*
X222888100Y-54168600D03*
D24*
X224158100Y-51628600D03*
X230508100Y-49088600D03*
%TD*%
D21*
%TO.C,U$23*%
X178986100Y-82151600D03*
D22*
X177716100Y-84691600D03*
D23*
X173906100Y-82151600D03*
D22*
X171366100Y-87231600D03*
D21*
X168826100Y-82151600D03*
D24*
X170096100Y-79611600D03*
X176446100Y-77071600D03*
%TD*%
D25*
%TO.C,JP21*%
X183501100Y-171753600D03*
%TD*%
D21*
%TO.C,U$14*%
X259566100Y-69782600D03*
D22*
X258296100Y-72322600D03*
D23*
X254486100Y-69782600D03*
D22*
X251946100Y-74862600D03*
D21*
X249406100Y-69782600D03*
D24*
X250676100Y-67242600D03*
X257026100Y-64702600D03*
%TD*%
D25*
%TO.C,JP19*%
X257501100Y-141753600D03*
%TD*%
D44*
%TO.C,J3*%
X162151099Y-32753599D03*
X164691099Y-32753599D03*
X167231099Y-32753599D03*
X169771099Y-32753599D03*
X172311099Y-32753599D03*
X174851099Y-32753599D03*
%TD*%
D28*
%TO.C,@HOLE5*%
X276501100Y-158753600D03*
%TD*%
D25*
%TO.C,JP22*%
X132080000Y-71120000D03*
%TD*%
D28*
%TO.C,@HOLE7*%
X65501100Y-43180000D03*
%TD*%
D21*
%TO.C,U$22*%
X128986100Y-82151600D03*
D22*
X127716100Y-84691600D03*
D23*
X123906100Y-82151600D03*
D22*
X121366100Y-87231600D03*
D21*
X118826100Y-82151600D03*
D24*
X120096100Y-79611600D03*
X126446100Y-77071600D03*
%TD*%
D25*
%TO.C,JP3*%
X17501100Y-85753600D03*
%TD*%
D21*
%TO.C,U$8*%
X153986100Y-82151600D03*
D22*
X152716100Y-84691600D03*
D23*
X148906100Y-82151600D03*
D22*
X146366100Y-87231600D03*
D21*
X143826100Y-82151600D03*
D24*
X145096100Y-79611600D03*
X151446100Y-77071600D03*
%TD*%
M02*
