%TF.GenerationSoftware,KiCad,Pcbnew,(7.0.0)*%
%TF.CreationDate,2023-02-14T15:50:17+01:00*%
%TF.ProjectId,OF1 v1,4f463120-7631-42e6-9b69-6361645f7063,rev?*%
%TF.SameCoordinates,Original*%
%TF.FileFunction,Legend,Bot*%
%TF.FilePolarity,Positive*%
%FSLAX46Y46*%
G04 Gerber Fmt 4.6, Leading zero omitted, Abs format (unit mm)*
G04 Created by KiCad (PCBNEW (7.0.0)) date 2023-02-14 15:50:17*
%MOMM*%
%LPD*%
G01*
G04 APERTURE LIST*
G04 Aperture macros list*
%AMRoundRect*
0 Rectangle with rounded corners*
0 $1 Rounding radius*
0 $2 $3 $4 $5 $6 $7 $8 $9 X,Y pos of 4 corners*
0 Add a 4 corners polygon primitive as box body*
4,1,4,$2,$3,$4,$5,$6,$7,$8,$9,$2,$3,0*
0 Add four circle primitives for the rounded corners*
1,1,$1+$1,$2,$3*
1,1,$1+$1,$4,$5*
1,1,$1+$1,$6,$7*
1,1,$1+$1,$8,$9*
0 Add four rect primitives between the rounded corners*
20,1,$1+$1,$2,$3,$4,$5,0*
20,1,$1+$1,$4,$5,$6,$7,0*
20,1,$1+$1,$6,$7,$8,$9,0*
20,1,$1+$1,$8,$9,$2,$3,0*%
%AMFreePoly0*
4,1,17,0.425901,0.806901,0.806901,0.425901,0.825500,0.381000,0.825500,-0.381000,0.806901,-0.425901,0.425901,-0.806901,0.381000,-0.825500,-0.381000,-0.825500,-0.425901,-0.806901,-0.806901,-0.425901,-0.825500,-0.381000,-0.825500,0.381000,-0.806901,0.425901,-0.425901,0.806901,-0.381000,0.825500,0.381000,0.825500,0.425901,0.806901,0.425901,0.806901,$1*%
G04 Aperture macros list end*
%ADD10C,0.150000*%
%ADD11C,0.142240*%
%ADD12C,0.127000*%
%ADD13O,3.175000X1.651000*%
%ADD14C,1.701800*%
%ADD15C,3.000000*%
%ADD16C,3.987800*%
%ADD17C,2.374900*%
%ADD18RoundRect,0.063500X1.275000X1.250000X-1.275000X1.250000X-1.275000X-1.250000X1.275000X-1.250000X0*%
%ADD19FreePoly0,0.000000*%
%ADD20O,4.622800X2.374900*%
%ADD21C,9.000000*%
%ADD22C,8.000000*%
%ADD23C,8.500000*%
%ADD24C,0.650000*%
%ADD25C,0.777000*%
%ADD26O,0.877000X1.627000*%
%ADD27C,2.100000*%
%ADD28C,1.500000*%
%ADD29O,3.327000X1.727000*%
%ADD30O,1.727000X3.327000*%
%ADD31RoundRect,0.063500X-0.400000X-0.400000X0.400000X-0.400000X0.400000X0.400000X-0.400000X0.400000X0*%
%ADD32O,2.227000X1.127000*%
%ADD33O,1.927000X1.127000*%
%ADD34O,1.651000X3.175000*%
G04 APERTURE END LIST*
D10*
G36*
X315272001Y-143213560D02*
G01*
X315413175Y-143226391D01*
X315553188Y-143246914D01*
X315692041Y-143275127D01*
X315829733Y-143311031D01*
X315966265Y-143354625D01*
X316101637Y-143405911D01*
X316235848Y-143464887D01*
X316368899Y-143531554D01*
X316500789Y-143605912D01*
X316631519Y-143687961D01*
X316761089Y-143777700D01*
X316889499Y-143875131D01*
X317016748Y-143980252D01*
X317142836Y-144093064D01*
X317267765Y-144213567D01*
X317388268Y-144338495D01*
X317501080Y-144464584D01*
X317606201Y-144591833D01*
X317703631Y-144720242D01*
X317793371Y-144849812D01*
X317875419Y-144980542D01*
X317949777Y-145112433D01*
X318016444Y-145245484D01*
X318075421Y-145379695D01*
X318126706Y-145515067D01*
X318170301Y-145651599D01*
X318206205Y-145789291D01*
X318234418Y-145928144D01*
X318254940Y-146068157D01*
X318267772Y-146209330D01*
X318272912Y-146351664D01*
X318270335Y-146493944D01*
X318260013Y-146634956D01*
X318241947Y-146774699D01*
X318216135Y-146913174D01*
X318182579Y-147050380D01*
X318141278Y-147186319D01*
X318092233Y-147320989D01*
X318035442Y-147454390D01*
X317970907Y-147586524D01*
X317898627Y-147717389D01*
X317818602Y-147846986D01*
X317730832Y-147975314D01*
X317635318Y-148102374D01*
X317532059Y-148228166D01*
X317421055Y-148352690D01*
X317302306Y-148475945D01*
X314024350Y-151753901D01*
X313899840Y-151873904D01*
X313774143Y-151986082D01*
X313647258Y-152090434D01*
X313519186Y-152186960D01*
X313389927Y-152275661D01*
X313259480Y-152356536D01*
X313127846Y-152429585D01*
X312995024Y-152494808D01*
X312861015Y-152552206D01*
X312725819Y-152601778D01*
X312589435Y-152643524D01*
X312451864Y-152677445D01*
X312313106Y-152703540D01*
X312173160Y-152721809D01*
X312032027Y-152732252D01*
X311889707Y-152734870D01*
X311747373Y-152729729D01*
X311606200Y-152716897D01*
X311466187Y-152696375D01*
X311327334Y-152668162D01*
X311189641Y-152632258D01*
X311053109Y-152588663D01*
X310917738Y-152537378D01*
X310783527Y-152478401D01*
X310650476Y-152411734D01*
X310518585Y-152337376D01*
X310387855Y-152255328D01*
X310258285Y-152165588D01*
X310129876Y-152068158D01*
X310002627Y-151963037D01*
X309876538Y-151850225D01*
X309751610Y-151729722D01*
X309631107Y-151604794D01*
X309518295Y-151478705D01*
X309413174Y-151351456D01*
X309315743Y-151223046D01*
X309226004Y-151093477D01*
X309143955Y-150962746D01*
X309069597Y-150830856D01*
X309002930Y-150697805D01*
X308943954Y-150563594D01*
X308892668Y-150428222D01*
X308849073Y-150291690D01*
X308813170Y-150153998D01*
X308784956Y-150015145D01*
X308764434Y-149875132D01*
X308753104Y-149750473D01*
X310088264Y-149750473D01*
X310096532Y-149866028D01*
X310114939Y-149980428D01*
X310143486Y-150093675D01*
X310182173Y-150205769D01*
X310231000Y-150316709D01*
X310289966Y-150426495D01*
X310359072Y-150535128D01*
X310438317Y-150642607D01*
X310527703Y-150748932D01*
X310627228Y-150854104D01*
X310697221Y-150921587D01*
X310803197Y-151014388D01*
X310910357Y-151097079D01*
X311018702Y-151169661D01*
X311128230Y-151232134D01*
X311238942Y-151284497D01*
X311350838Y-151326751D01*
X311463918Y-151358895D01*
X311578182Y-151380930D01*
X311693630Y-151392856D01*
X311810262Y-151394673D01*
X311888115Y-151390018D01*
X312004590Y-151374484D01*
X312120701Y-151348690D01*
X312236448Y-151312634D01*
X312351830Y-151266317D01*
X312466848Y-151209739D01*
X312581502Y-151142900D01*
X312695791Y-151065800D01*
X312809716Y-150978438D01*
X312885464Y-150914497D01*
X312961050Y-150845995D01*
X313036473Y-150772932D01*
X316321337Y-147488068D01*
X316357804Y-147451017D01*
X316427399Y-147376754D01*
X316492542Y-147302274D01*
X316581907Y-147190151D01*
X316661254Y-147077541D01*
X316730582Y-146964446D01*
X316789893Y-146850865D01*
X316839185Y-146736798D01*
X316878458Y-146622245D01*
X316907714Y-146507207D01*
X316926951Y-146391683D01*
X316936170Y-146275674D01*
X316935203Y-146159892D01*
X316923885Y-146045051D01*
X316902214Y-145931151D01*
X316870191Y-145818192D01*
X316827815Y-145706175D01*
X316775088Y-145595098D01*
X316712008Y-145484963D01*
X316638576Y-145375769D01*
X316554792Y-145267515D01*
X316460655Y-145160203D01*
X316392147Y-145089185D01*
X316321128Y-145020676D01*
X316213816Y-144926540D01*
X316105563Y-144842755D01*
X315996369Y-144769323D01*
X315886233Y-144706244D01*
X315775157Y-144653516D01*
X315663139Y-144611141D01*
X315550181Y-144579118D01*
X315436281Y-144557447D01*
X315321440Y-144546128D01*
X315205658Y-144545162D01*
X315166934Y-144547122D01*
X315051086Y-144559680D01*
X314935724Y-144582256D01*
X314820848Y-144614851D01*
X314706457Y-144657464D01*
X314592552Y-144710096D01*
X314479133Y-144772745D01*
X314366200Y-144845413D01*
X314253752Y-144928100D01*
X314141790Y-145020804D01*
X314067419Y-145088173D01*
X313993263Y-145159994D01*
X310708400Y-148444858D01*
X310671300Y-148482551D01*
X310600531Y-148558070D01*
X310534336Y-148633763D01*
X310443620Y-148747633D01*
X310363195Y-148861897D01*
X310293062Y-148976556D01*
X310233221Y-149091609D01*
X310183671Y-149207057D01*
X310144412Y-149322900D01*
X310115445Y-149439137D01*
X310096770Y-149555769D01*
X310088386Y-149672796D01*
X310088264Y-149750473D01*
X308753104Y-149750473D01*
X308751603Y-149733958D01*
X308746462Y-149591624D01*
X308749080Y-149449304D01*
X308759523Y-149308171D01*
X308777792Y-149168225D01*
X308803887Y-149029467D01*
X308837807Y-148891896D01*
X308879553Y-148755513D01*
X308929125Y-148620316D01*
X308986523Y-148486307D01*
X309051746Y-148353486D01*
X309124796Y-148221852D01*
X309205670Y-148091405D01*
X309294371Y-147962145D01*
X309390897Y-147834073D01*
X309495249Y-147707189D01*
X309607427Y-147581491D01*
X309727431Y-147456981D01*
X313005386Y-144179025D01*
X313128642Y-144060277D01*
X313253165Y-143949273D01*
X313378957Y-143846014D01*
X313506017Y-143750499D01*
X313634346Y-143662730D01*
X313763942Y-143582705D01*
X313894808Y-143510425D01*
X314026941Y-143445889D01*
X314160343Y-143389099D01*
X314295013Y-143340053D01*
X314430951Y-143298752D01*
X314568158Y-143265196D01*
X314706633Y-143239385D01*
X314846376Y-143221318D01*
X314987387Y-143210996D01*
X315129667Y-143208419D01*
X315272001Y-143213560D01*
G37*
G36*
X307575193Y-138914846D02*
G01*
X307702590Y-138924209D01*
X307828099Y-138940428D01*
X307951719Y-138963500D01*
X308073449Y-138993427D01*
X308193291Y-139030208D01*
X308311243Y-139073843D01*
X308427307Y-139124332D01*
X308541482Y-139181676D01*
X308653768Y-139245874D01*
X308764164Y-139316926D01*
X308872672Y-139394833D01*
X308979291Y-139479593D01*
X309084021Y-139571208D01*
X309186862Y-139669678D01*
X309260565Y-139745864D01*
X309330127Y-139822873D01*
X309395546Y-139900705D01*
X309456822Y-139979361D01*
X309540971Y-140098887D01*
X309615799Y-140220265D01*
X309681308Y-140343495D01*
X309737496Y-140468577D01*
X309784365Y-140595511D01*
X309821913Y-140724296D01*
X309850141Y-140854934D01*
X309869049Y-140987423D01*
X309873379Y-141031738D01*
X309880033Y-141164095D01*
X309877184Y-141295573D01*
X309864833Y-141426170D01*
X309842980Y-141555886D01*
X309811625Y-141684722D01*
X309770767Y-141812678D01*
X309720408Y-141939753D01*
X309660546Y-142065948D01*
X309591182Y-142191263D01*
X309539660Y-142274317D01*
X309483916Y-142356980D01*
X309494278Y-142367342D01*
X310578870Y-141282750D01*
X311552931Y-142256810D01*
X304257839Y-149551902D01*
X303273416Y-148567479D01*
X304846766Y-146994130D01*
X306104064Y-145778281D01*
X306083339Y-145757556D01*
X306003827Y-145810124D01*
X305883496Y-145881284D01*
X305761890Y-145943215D01*
X305639009Y-145995917D01*
X305514854Y-146039390D01*
X305389423Y-146073635D01*
X305262717Y-146098650D01*
X305134736Y-146114437D01*
X305005480Y-146120994D01*
X304874948Y-146118322D01*
X304743142Y-146106422D01*
X304611655Y-146084812D01*
X304482080Y-146054307D01*
X304354418Y-146014906D01*
X304228668Y-145966611D01*
X304104831Y-145909421D01*
X303982906Y-145843336D01*
X303862894Y-145768355D01*
X303744795Y-145684480D01*
X303667124Y-145623622D01*
X303590304Y-145558810D01*
X303514334Y-145490044D01*
X303439214Y-145417326D01*
X303339510Y-145313250D01*
X303246782Y-145207407D01*
X303161029Y-145099797D01*
X303082252Y-144990419D01*
X303010451Y-144879273D01*
X302945626Y-144766360D01*
X302887776Y-144651679D01*
X302836902Y-144535231D01*
X302793004Y-144417015D01*
X302756081Y-144297032D01*
X302726134Y-144175281D01*
X302703163Y-144051763D01*
X302687168Y-143926477D01*
X302678148Y-143799424D01*
X302677805Y-143777795D01*
X304124694Y-143777795D01*
X304132749Y-143894867D01*
X304150761Y-144010421D01*
X304178732Y-144124458D01*
X304216659Y-144236976D01*
X304264545Y-144347977D01*
X304322388Y-144457460D01*
X304390188Y-144565424D01*
X304467946Y-144671871D01*
X304555662Y-144776800D01*
X304653335Y-144880211D01*
X304720879Y-144945164D01*
X304823713Y-145034398D01*
X304928369Y-145113795D01*
X305034846Y-145183357D01*
X305143145Y-145243082D01*
X305253265Y-145292971D01*
X305365207Y-145333024D01*
X305478970Y-145363241D01*
X305594555Y-145383621D01*
X305711961Y-145394166D01*
X305831189Y-145394874D01*
X305910923Y-145389592D01*
X306029994Y-145373193D01*
X306148427Y-145346624D01*
X306266223Y-145309886D01*
X306383381Y-145262977D01*
X306499902Y-145205898D01*
X306615785Y-145138649D01*
X306731031Y-145061230D01*
X306845639Y-144973641D01*
X306921691Y-144909598D01*
X306997458Y-144841035D01*
X307072943Y-144767952D01*
X308537488Y-143303407D01*
X308574594Y-143265700D01*
X308645417Y-143190074D01*
X308711720Y-143114165D01*
X308802699Y-142999769D01*
X308883508Y-142884736D01*
X308954147Y-142769065D01*
X309014616Y-142652757D01*
X309064915Y-142535811D01*
X309105044Y-142418228D01*
X309135003Y-142300007D01*
X309154791Y-142181149D01*
X309164410Y-142061653D01*
X309165031Y-141981965D01*
X309157765Y-141863952D01*
X309140663Y-141747760D01*
X309113725Y-141633390D01*
X309076951Y-141520841D01*
X309030340Y-141410113D01*
X308973894Y-141301208D01*
X308907611Y-141194123D01*
X308831493Y-141088860D01*
X308745538Y-140985419D01*
X308649747Y-140883799D01*
X308580975Y-140817577D01*
X308476552Y-140726543D01*
X308370611Y-140645465D01*
X308263152Y-140574346D01*
X308154176Y-140513184D01*
X308043681Y-140461979D01*
X307931669Y-140420732D01*
X307818138Y-140389443D01*
X307703090Y-140368111D01*
X307586523Y-140356736D01*
X307468439Y-140355320D01*
X307389123Y-140359765D01*
X307270629Y-140375010D01*
X307152711Y-140400547D01*
X307035371Y-140436375D01*
X306918607Y-140482495D01*
X306802421Y-140538906D01*
X306686811Y-140605608D01*
X306571778Y-140682602D01*
X306457321Y-140769888D01*
X306381337Y-140833796D01*
X306305610Y-140902277D01*
X306230139Y-140975333D01*
X304755232Y-142450241D01*
X304680921Y-142526967D01*
X304611265Y-142603868D01*
X304546264Y-142680945D01*
X304485918Y-142758197D01*
X304404128Y-142874404D01*
X304332811Y-142991005D01*
X304271967Y-143108002D01*
X304221598Y-143225393D01*
X304181702Y-143343178D01*
X304152279Y-143461359D01*
X304133331Y-143579934D01*
X304124855Y-143698903D01*
X304124694Y-143777795D01*
X302677805Y-143777795D01*
X302676104Y-143670603D01*
X302681035Y-143540014D01*
X302692976Y-143408866D01*
X302711960Y-143278365D01*
X302737988Y-143148512D01*
X302771058Y-143019306D01*
X302811172Y-142890748D01*
X302858328Y-142762838D01*
X302912528Y-142635576D01*
X302973771Y-142508961D01*
X303042058Y-142382993D01*
X303117387Y-142257674D01*
X303199760Y-142133002D01*
X303289175Y-142008977D01*
X303385634Y-141885601D01*
X303489136Y-141762872D01*
X303599681Y-141640790D01*
X303717270Y-141519357D01*
X305299255Y-139937372D01*
X305419454Y-139821058D01*
X305540422Y-139711748D01*
X305662159Y-139609440D01*
X305784666Y-139514135D01*
X305907941Y-139425832D01*
X306031986Y-139344532D01*
X306156800Y-139270235D01*
X306282382Y-139202940D01*
X306408734Y-139142649D01*
X306535855Y-139089359D01*
X306663745Y-139043073D01*
X306792404Y-139003789D01*
X306921832Y-138971508D01*
X307052029Y-138946229D01*
X307182996Y-138927954D01*
X307314731Y-138916681D01*
X307445907Y-138912336D01*
X307575193Y-138914846D01*
G37*
G36*
X301556876Y-133115365D02*
G01*
X301697825Y-133126107D01*
X301838987Y-133144530D01*
X301980361Y-133170633D01*
X302121947Y-133204417D01*
X302216457Y-133231207D01*
X302310831Y-133261167D01*
X302404409Y-133294487D01*
X302497191Y-133331167D01*
X302589177Y-133371206D01*
X302680367Y-133414605D01*
X302770761Y-133461364D01*
X302860359Y-133511482D01*
X302949161Y-133564960D01*
X303037167Y-133621798D01*
X303124376Y-133681996D01*
X303210790Y-133745553D01*
X303296407Y-133812469D01*
X303381229Y-133882746D01*
X303465254Y-133956382D01*
X303548484Y-134033378D01*
X303630917Y-134113733D01*
X303711266Y-134196173D01*
X303788241Y-134279423D01*
X303861843Y-134363482D01*
X303932073Y-134448350D01*
X303998929Y-134534029D01*
X304062412Y-134620517D01*
X304122521Y-134707814D01*
X304179258Y-134795921D01*
X304232621Y-134884837D01*
X304282611Y-134974563D01*
X304329228Y-135065099D01*
X304372472Y-135156444D01*
X304412343Y-135248599D01*
X304448841Y-135341563D01*
X304481965Y-135435337D01*
X304511716Y-135529920D01*
X304538290Y-135624659D01*
X304571750Y-135766640D01*
X304597530Y-135908470D01*
X304615628Y-136050148D01*
X304626046Y-136191674D01*
X304628784Y-136333048D01*
X304623840Y-136474270D01*
X304611216Y-136615341D01*
X304590911Y-136756260D01*
X304562926Y-136897027D01*
X304527260Y-137037642D01*
X304484019Y-137176562D01*
X304433311Y-137313539D01*
X304395356Y-137403778D01*
X304354082Y-137493153D01*
X304309489Y-137581665D01*
X304261576Y-137669313D01*
X304210345Y-137756098D01*
X304155794Y-137842019D01*
X304097924Y-137927076D01*
X304036735Y-138011271D01*
X303972227Y-138094601D01*
X303904399Y-138177068D01*
X303833253Y-138258672D01*
X303758787Y-138339412D01*
X303681002Y-138419288D01*
X302199186Y-139901103D01*
X302158717Y-139941050D01*
X302077181Y-140018403D01*
X301994849Y-140092370D01*
X301911720Y-140162950D01*
X301827796Y-140230143D01*
X301743076Y-140293950D01*
X301657560Y-140354370D01*
X301571247Y-140411403D01*
X301484139Y-140465050D01*
X301396234Y-140515310D01*
X301307534Y-140562184D01*
X301218037Y-140605671D01*
X301127744Y-140645771D01*
X301036655Y-140682484D01*
X300944770Y-140715811D01*
X300805450Y-140759451D01*
X300665129Y-140794824D01*
X300524594Y-140822576D01*
X300383848Y-140842709D01*
X300242888Y-140855222D01*
X300101717Y-140860115D01*
X299960332Y-140857387D01*
X299818736Y-140847040D01*
X299676926Y-140829073D01*
X299534904Y-140803486D01*
X299392670Y-140770279D01*
X299297729Y-140743908D01*
X299203355Y-140713947D01*
X299109777Y-140680627D01*
X299016995Y-140643947D01*
X298925008Y-140603908D01*
X298833818Y-140560509D01*
X298743425Y-140513750D01*
X298653827Y-140463632D01*
X298565025Y-140410154D01*
X298477019Y-140353316D01*
X298389809Y-140293119D01*
X298303396Y-140229562D01*
X298217778Y-140162645D01*
X298132957Y-140092368D01*
X298048931Y-140018732D01*
X297965702Y-139941737D01*
X297883269Y-139861381D01*
X297777831Y-139752637D01*
X297677830Y-139642719D01*
X297583267Y-139531628D01*
X297494141Y-139419362D01*
X297410453Y-139305923D01*
X297332202Y-139191310D01*
X297259389Y-139075523D01*
X297192014Y-138958562D01*
X297130076Y-138840427D01*
X297073576Y-138721118D01*
X297022513Y-138600636D01*
X296976887Y-138478979D01*
X296936700Y-138356149D01*
X296901949Y-138232145D01*
X296872636Y-138106967D01*
X296848761Y-137980615D01*
X296830708Y-137854432D01*
X296818862Y-137729760D01*
X296813222Y-137606599D01*
X296813788Y-137484950D01*
X296820562Y-137364811D01*
X296833542Y-137246184D01*
X296852728Y-137129068D01*
X296878121Y-137013463D01*
X296909721Y-136899369D01*
X296947527Y-136786787D01*
X296991540Y-136675715D01*
X297041760Y-136566155D01*
X297098186Y-136458106D01*
X297160819Y-136351568D01*
X297229658Y-136246541D01*
X297304704Y-136143026D01*
X298278765Y-137117086D01*
X298217967Y-137224461D01*
X298169421Y-137333292D01*
X298133125Y-137443581D01*
X298109082Y-137555327D01*
X298097289Y-137668531D01*
X298097748Y-137783191D01*
X298110458Y-137899309D01*
X298135419Y-138016883D01*
X298172740Y-138135160D01*
X298221664Y-138254246D01*
X298265972Y-138344092D01*
X298316808Y-138434393D01*
X298374170Y-138525149D01*
X298438059Y-138616361D01*
X298508476Y-138708029D01*
X298585419Y-138800151D01*
X298668889Y-138892729D01*
X298758887Y-138985763D01*
X298795639Y-139021878D01*
X298869458Y-139090596D01*
X298943694Y-139154632D01*
X299055833Y-139241907D01*
X299168913Y-139318648D01*
X299282934Y-139384855D01*
X299397897Y-139440527D01*
X299513800Y-139485665D01*
X299630645Y-139520269D01*
X299748430Y-139544338D01*
X299867157Y-139557873D01*
X299986825Y-139560873D01*
X300026866Y-139559296D01*
X300146929Y-139547300D01*
X300266900Y-139524404D01*
X300386781Y-139490610D01*
X300506570Y-139445918D01*
X300626268Y-139390326D01*
X300745875Y-139323836D01*
X300865392Y-139246447D01*
X300945018Y-139188800D01*
X301024605Y-139126309D01*
X301104151Y-139058974D01*
X301183656Y-138986795D01*
X301263121Y-138909772D01*
X301750151Y-138422742D01*
X298650082Y-135322673D01*
X299976463Y-135322673D01*
X302413341Y-137759552D01*
X302681035Y-137491858D01*
X302756628Y-137413864D01*
X302827538Y-137335748D01*
X302893767Y-137257511D01*
X302955314Y-137179153D01*
X303038855Y-137061387D01*
X303111862Y-136943348D01*
X303174334Y-136825037D01*
X303226273Y-136706451D01*
X303267677Y-136587593D01*
X303298546Y-136468462D01*
X303318881Y-136349057D01*
X303328682Y-136229379D01*
X303329276Y-136149246D01*
X303321059Y-136029705D01*
X303301912Y-135910952D01*
X303271837Y-135792990D01*
X303230833Y-135675816D01*
X303178900Y-135559432D01*
X303116038Y-135443837D01*
X303042247Y-135329032D01*
X302957526Y-135215016D01*
X302894974Y-135139443D01*
X302827565Y-135064222D01*
X302755299Y-134989351D01*
X302717904Y-134952607D01*
X302642831Y-134882743D01*
X302567380Y-134817708D01*
X302453495Y-134729213D01*
X302338761Y-134651587D01*
X302223176Y-134584828D01*
X302106741Y-134528939D01*
X301989457Y-134483917D01*
X301871322Y-134449764D01*
X301752337Y-134426479D01*
X301632502Y-134414062D01*
X301511817Y-134412514D01*
X301391213Y-134421389D01*
X301270974Y-134440889D01*
X301151098Y-134471015D01*
X301031587Y-134511766D01*
X300912440Y-134563142D01*
X300793658Y-134625144D01*
X300675240Y-134697772D01*
X300557186Y-134781025D01*
X300478686Y-134842430D01*
X300400348Y-134908557D01*
X300322171Y-134979407D01*
X300244157Y-135054979D01*
X299976463Y-135322673D01*
X298650082Y-135322673D01*
X298358210Y-135030801D01*
X299339178Y-134049832D01*
X299378795Y-134010742D01*
X299458684Y-133935062D01*
X299539451Y-133862714D01*
X299621095Y-133793699D01*
X299703616Y-133728017D01*
X299787014Y-133665668D01*
X299871289Y-133606651D01*
X299956441Y-133550967D01*
X300042470Y-133498615D01*
X300129377Y-133449597D01*
X300217160Y-133403911D01*
X300305820Y-133361557D01*
X300440454Y-133304276D01*
X300577062Y-133254493D01*
X300715643Y-133212209D01*
X300855318Y-133176867D01*
X300995204Y-133149205D01*
X301135303Y-133129224D01*
X301275615Y-133116924D01*
X301416139Y-133112304D01*
X301556876Y-133115365D01*
G37*
G36*
X294168368Y-135925417D02*
G01*
X299694952Y-130398832D01*
X298720892Y-129424771D01*
X297601758Y-130543905D01*
X297581034Y-130523180D01*
X297643754Y-130440774D01*
X297701955Y-130358057D01*
X297755635Y-130275030D01*
X297827681Y-130149908D01*
X297889556Y-130024087D01*
X297941262Y-129897568D01*
X297982797Y-129770351D01*
X298014163Y-129642436D01*
X298035358Y-129513823D01*
X298046383Y-129384511D01*
X298047238Y-129254501D01*
X298042158Y-129167440D01*
X298026463Y-129036929D01*
X298000749Y-128907693D01*
X297965017Y-128779732D01*
X297919267Y-128653046D01*
X297863499Y-128527636D01*
X297797712Y-128403500D01*
X297721907Y-128280639D01*
X297665805Y-128199441D01*
X297605250Y-128118809D01*
X297540242Y-128038743D01*
X297470782Y-127959245D01*
X297396869Y-127880313D01*
X297358243Y-127841059D01*
X297255585Y-127742489D01*
X297151401Y-127650570D01*
X297045693Y-127565304D01*
X296938460Y-127486689D01*
X296829703Y-127414726D01*
X296719421Y-127349415D01*
X296607614Y-127290755D01*
X296494283Y-127238748D01*
X296379427Y-127193392D01*
X296263046Y-127154689D01*
X296145140Y-127122637D01*
X296025710Y-127097237D01*
X295904756Y-127078489D01*
X295782276Y-127066393D01*
X295658272Y-127060949D01*
X295532743Y-127062156D01*
X295406729Y-127069800D01*
X295281699Y-127084095D01*
X295157655Y-127105043D01*
X295034595Y-127132642D01*
X294912520Y-127166893D01*
X294791431Y-127207796D01*
X294671326Y-127255351D01*
X294552206Y-127309557D01*
X294434071Y-127370416D01*
X294316922Y-127437926D01*
X294200757Y-127512089D01*
X294085577Y-127592903D01*
X293971382Y-127680369D01*
X293858172Y-127774487D01*
X293745947Y-127875256D01*
X293634707Y-127982678D01*
X289930168Y-131687217D01*
X290916318Y-132673367D01*
X294501690Y-129087995D01*
X294572229Y-129019790D01*
X294678646Y-128925628D01*
X294785791Y-128841242D01*
X294893664Y-128766631D01*
X295002267Y-128701795D01*
X295111598Y-128646735D01*
X295221657Y-128601450D01*
X295332445Y-128565941D01*
X295443962Y-128540207D01*
X295556207Y-128524249D01*
X295669181Y-128518066D01*
X295781760Y-128520768D01*
X295892821Y-128532759D01*
X296002365Y-128554041D01*
X296110390Y-128584612D01*
X296216898Y-128624472D01*
X296321887Y-128673623D01*
X296425359Y-128732063D01*
X296527313Y-128799792D01*
X296627748Y-128876812D01*
X296726666Y-128963121D01*
X296791768Y-129025821D01*
X296887605Y-129127395D01*
X296973696Y-129230700D01*
X297050043Y-129335735D01*
X297116644Y-129442501D01*
X297173500Y-129550997D01*
X297220612Y-129661223D01*
X297257978Y-129773180D01*
X297285599Y-129886867D01*
X297303475Y-130002285D01*
X297311606Y-130119433D01*
X297311613Y-130198493D01*
X297302920Y-130317063D01*
X297283966Y-130435087D01*
X297254751Y-130552564D01*
X297215275Y-130669494D01*
X297165538Y-130785878D01*
X297105540Y-130901716D01*
X297035280Y-131017007D01*
X296954759Y-131131752D01*
X296863978Y-131245950D01*
X296797756Y-131321779D01*
X296726973Y-131397365D01*
X296689872Y-131435066D01*
X293183945Y-134940994D01*
X294168368Y-135925417D01*
G37*
G36*
X282270667Y-124027716D02*
G01*
X289565759Y-116732624D01*
X285227390Y-112394255D01*
X284351771Y-113269873D01*
X287724715Y-116642817D01*
X285394914Y-118972618D01*
X282281029Y-115858733D01*
X281405411Y-116734351D01*
X284500298Y-119829238D01*
X281286244Y-123043293D01*
X282270667Y-124027716D01*
G37*
G36*
X276196605Y-117953654D02*
G01*
X281723190Y-112427069D01*
X280749129Y-111453008D01*
X279674899Y-112527238D01*
X279654174Y-112506514D01*
X279714115Y-112426846D01*
X279795653Y-112306511D01*
X279867142Y-112185173D01*
X279928583Y-112062834D01*
X279979974Y-111939492D01*
X280021318Y-111815149D01*
X280052612Y-111689804D01*
X280073858Y-111563458D01*
X280085055Y-111436109D01*
X280086204Y-111307759D01*
X280077304Y-111178406D01*
X280058522Y-111049130D01*
X280030025Y-110921007D01*
X279991814Y-110794038D01*
X279943888Y-110668223D01*
X279886248Y-110543561D01*
X279818893Y-110420053D01*
X279741823Y-110297698D01*
X279685046Y-110216769D01*
X279623951Y-110136353D01*
X279558539Y-110056450D01*
X279488809Y-109977059D01*
X279414761Y-109898181D01*
X279376118Y-109858934D01*
X279269702Y-109756849D01*
X279161585Y-109661726D01*
X279051769Y-109573565D01*
X278940252Y-109492366D01*
X278827035Y-109418130D01*
X278712118Y-109350855D01*
X278595502Y-109290543D01*
X278477185Y-109237193D01*
X278357168Y-109190806D01*
X278235450Y-109151380D01*
X278112033Y-109118917D01*
X277986916Y-109093416D01*
X277860099Y-109074877D01*
X277731581Y-109063300D01*
X277601364Y-109058686D01*
X277469446Y-109061034D01*
X277337165Y-109070343D01*
X277205854Y-109086616D01*
X277075515Y-109109850D01*
X276946148Y-109140046D01*
X276817752Y-109177205D01*
X276690327Y-109221326D01*
X276563874Y-109272409D01*
X276438393Y-109330455D01*
X276313883Y-109395462D01*
X276190344Y-109467432D01*
X276067777Y-109546364D01*
X275946181Y-109632258D01*
X275825557Y-109725114D01*
X275705905Y-109824933D01*
X275587223Y-109931713D01*
X275469514Y-110045456D01*
X275065382Y-110449588D01*
X276060167Y-111444373D01*
X276381400Y-111123140D01*
X276455610Y-111051306D01*
X276530143Y-110983896D01*
X276605000Y-110920913D01*
X276717893Y-110834735D01*
X276831514Y-110758515D01*
X276945865Y-110692253D01*
X277060943Y-110635948D01*
X277176751Y-110589601D01*
X277293286Y-110553211D01*
X277410551Y-110526779D01*
X277528544Y-110510305D01*
X277607611Y-110504854D01*
X277726353Y-110505076D01*
X277844245Y-110516107D01*
X277961287Y-110537944D01*
X278077479Y-110570590D01*
X278192820Y-110614043D01*
X278307312Y-110668304D01*
X278420954Y-110733372D01*
X278533746Y-110809248D01*
X278645687Y-110895931D01*
X278719843Y-110959724D01*
X278793621Y-111028321D01*
X278830368Y-111064420D01*
X278899462Y-111136007D01*
X279023473Y-111279960D01*
X279128580Y-111424952D01*
X279214785Y-111570983D01*
X279282086Y-111718053D01*
X279330484Y-111866161D01*
X279359979Y-112015309D01*
X279370571Y-112165496D01*
X279362259Y-112316721D01*
X279335045Y-112468986D01*
X279288927Y-112622289D01*
X279223906Y-112776631D01*
X279139982Y-112932012D01*
X279037154Y-113088433D01*
X278978652Y-113167032D01*
X278915424Y-113245892D01*
X278847470Y-113325011D01*
X278774790Y-113404390D01*
X278697384Y-113484028D01*
X275212182Y-116969231D01*
X276196605Y-117953654D01*
G37*
G36*
X271894504Y-103375559D02*
G01*
X272026644Y-103386819D01*
X272157961Y-103405054D01*
X272288455Y-103430265D01*
X272418126Y-103462452D01*
X272546974Y-103501614D01*
X272674999Y-103547752D01*
X272802201Y-103600866D01*
X272928580Y-103660956D01*
X273054136Y-103728021D01*
X273178868Y-103802062D01*
X273302778Y-103883078D01*
X273425865Y-103971071D01*
X273548128Y-104066038D01*
X273669569Y-104167982D01*
X273790186Y-104276901D01*
X273909980Y-104392796D01*
X273946363Y-104429581D01*
X274017227Y-104503655D01*
X274085553Y-104578405D01*
X274151343Y-104653828D01*
X274214597Y-104729927D01*
X274275314Y-104806700D01*
X274361633Y-104923125D01*
X274442245Y-105041067D01*
X274517149Y-105160528D01*
X274586346Y-105281506D01*
X274649836Y-105404002D01*
X274707618Y-105528016D01*
X274759693Y-105653549D01*
X274791191Y-105737250D01*
X274833506Y-105862575D01*
X274869901Y-105987626D01*
X274900375Y-106112405D01*
X274924930Y-106236910D01*
X274943565Y-106361141D01*
X274956281Y-106485100D01*
X274963076Y-106608785D01*
X274963951Y-106732197D01*
X274958907Y-106855336D01*
X274947942Y-106978202D01*
X274936973Y-107059333D01*
X274915003Y-107179259D01*
X274886416Y-107297060D01*
X274851210Y-107412736D01*
X274809386Y-107526286D01*
X274760944Y-107637712D01*
X274705884Y-107747012D01*
X274644206Y-107854188D01*
X274575910Y-107959238D01*
X274500995Y-108062163D01*
X274419462Y-108162963D01*
X273454037Y-107197538D01*
X273470405Y-107172059D01*
X273528626Y-107067882D01*
X273575243Y-106960090D01*
X273610257Y-106848681D01*
X273633666Y-106733656D01*
X273645472Y-106615015D01*
X273645675Y-106492759D01*
X273634274Y-106366886D01*
X273618108Y-106270108D01*
X273603522Y-106204912D01*
X273576331Y-106107927D01*
X273542765Y-106011913D01*
X273502823Y-105916871D01*
X273456506Y-105822800D01*
X273403814Y-105729701D01*
X273344747Y-105637573D01*
X273279304Y-105546417D01*
X273207486Y-105456232D01*
X273129293Y-105367019D01*
X273044724Y-105278777D01*
X272979791Y-105215949D01*
X272881759Y-105128967D01*
X272782967Y-105050697D01*
X272683417Y-104981141D01*
X272583108Y-104920298D01*
X272482039Y-104868167D01*
X272380212Y-104824750D01*
X272277626Y-104790045D01*
X272174281Y-104764053D01*
X272070176Y-104746774D01*
X271965313Y-104738208D01*
X271895226Y-104737189D01*
X271791182Y-104743175D01*
X271688444Y-104758177D01*
X271587012Y-104782196D01*
X271486885Y-104815231D01*
X271388063Y-104857282D01*
X271290547Y-104908350D01*
X271194336Y-104968435D01*
X271099430Y-105037535D01*
X271005830Y-105115653D01*
X270913535Y-105202787D01*
X270385056Y-105731266D01*
X271975676Y-107321886D01*
X272083226Y-107432917D01*
X272184380Y-107544515D01*
X272279139Y-107656679D01*
X272367502Y-107769410D01*
X272449470Y-107882708D01*
X272525042Y-107996572D01*
X272594219Y-108111003D01*
X272657000Y-108226001D01*
X272713386Y-108341566D01*
X272763376Y-108457697D01*
X272806971Y-108574395D01*
X272844170Y-108691659D01*
X272874974Y-108809490D01*
X272899382Y-108927888D01*
X272917394Y-109046853D01*
X272929012Y-109166384D01*
X272934125Y-109285079D01*
X272932628Y-109402397D01*
X272924519Y-109518339D01*
X272909798Y-109632905D01*
X272888466Y-109746095D01*
X272860523Y-109857909D01*
X272825968Y-109968346D01*
X272784802Y-110077407D01*
X272737025Y-110185092D01*
X272682636Y-110291400D01*
X272621636Y-110396332D01*
X272554024Y-110499888D01*
X272479801Y-110602068D01*
X272398967Y-110702872D01*
X272311521Y-110802299D01*
X272217464Y-110900350D01*
X272121990Y-110991978D01*
X272025113Y-111077319D01*
X271926832Y-111156373D01*
X271827149Y-111229139D01*
X271726062Y-111295617D01*
X271623572Y-111355807D01*
X271519679Y-111409711D01*
X271414382Y-111457326D01*
X271307682Y-111498654D01*
X271199579Y-111533694D01*
X271090073Y-111562447D01*
X270979163Y-111584912D01*
X270866851Y-111601090D01*
X270753135Y-111610980D01*
X270638016Y-111614583D01*
X270521493Y-111611898D01*
X270404762Y-111602662D01*
X270288583Y-111587044D01*
X270172958Y-111565045D01*
X270057886Y-111536663D01*
X269943367Y-111501899D01*
X269829402Y-111460753D01*
X269715989Y-111413225D01*
X269603130Y-111359316D01*
X269490824Y-111299024D01*
X269379071Y-111232350D01*
X269267872Y-111159294D01*
X269157225Y-111079856D01*
X269047132Y-110994036D01*
X268937592Y-110901834D01*
X268828605Y-110803250D01*
X268720172Y-110698284D01*
X268635323Y-110611075D01*
X268554779Y-110523447D01*
X268478539Y-110435400D01*
X268406603Y-110346936D01*
X268338971Y-110258053D01*
X268275643Y-110168752D01*
X268216620Y-110079033D01*
X268161900Y-109988895D01*
X268111485Y-109898339D01*
X268065374Y-109807365D01*
X268023567Y-109715973D01*
X267986064Y-109624162D01*
X267952866Y-109531933D01*
X267911138Y-109392806D01*
X267879095Y-109252737D01*
X267863093Y-109159449D01*
X267847893Y-109021844D01*
X267843258Y-108887032D01*
X267849188Y-108755014D01*
X267865683Y-108625788D01*
X267892743Y-108499355D01*
X267930367Y-108375715D01*
X267978556Y-108254869D01*
X268037309Y-108136815D01*
X268059994Y-108099096D01*
X268537124Y-108099096D01*
X268537271Y-108225848D01*
X268547466Y-108356394D01*
X268567209Y-108487249D01*
X268595999Y-108616222D01*
X268633836Y-108743312D01*
X268680719Y-108868521D01*
X268736650Y-108991847D01*
X268801627Y-109113290D01*
X268875651Y-109232852D01*
X268958722Y-109350532D01*
X269019128Y-109427939D01*
X269083556Y-109504510D01*
X269152004Y-109580244D01*
X269224473Y-109655141D01*
X269291680Y-109720351D01*
X269392743Y-109810931D01*
X269494110Y-109892828D01*
X269595780Y-109966042D01*
X269697754Y-110030574D01*
X269800032Y-110086423D01*
X269902613Y-110133590D01*
X270005498Y-110172075D01*
X270108686Y-110201877D01*
X270212178Y-110222996D01*
X270315973Y-110235433D01*
X270384900Y-110238867D01*
X270486900Y-110236656D01*
X270587229Y-110225610D01*
X270685889Y-110205730D01*
X270782879Y-110177016D01*
X270878200Y-110139468D01*
X270971850Y-110093085D01*
X271063831Y-110037868D01*
X271154143Y-109973817D01*
X271242784Y-109900932D01*
X271329756Y-109819212D01*
X271404372Y-109740133D01*
X271471490Y-109659628D01*
X271531108Y-109577695D01*
X271583229Y-109494336D01*
X271641058Y-109380971D01*
X271685557Y-109265069D01*
X271716725Y-109146631D01*
X271734562Y-109025656D01*
X271739069Y-108902144D01*
X271738111Y-108871010D01*
X271725913Y-108747687D01*
X271700331Y-108626307D01*
X271661365Y-108506871D01*
X271609013Y-108389377D01*
X271560966Y-108302531D01*
X271505390Y-108216779D01*
X271442285Y-108132119D01*
X271371651Y-108048553D01*
X271293488Y-107966079D01*
X269721865Y-106394456D01*
X268956779Y-107159543D01*
X268897701Y-107221697D01*
X268817459Y-107318090D01*
X268747265Y-107418278D01*
X268687120Y-107522260D01*
X268637024Y-107630038D01*
X268596976Y-107741610D01*
X268566976Y-107856977D01*
X268547026Y-107976139D01*
X268537124Y-108099096D01*
X268059994Y-108099096D01*
X268106628Y-108021554D01*
X268186511Y-107909086D01*
X268176149Y-107898724D01*
X267158912Y-108915961D01*
X266193486Y-107950535D01*
X269987832Y-104156190D01*
X270094451Y-104053969D01*
X270202743Y-103958873D01*
X270312708Y-103870901D01*
X270424346Y-103790053D01*
X270537657Y-103716330D01*
X270652642Y-103649730D01*
X270769299Y-103590254D01*
X270887629Y-103537903D01*
X271007633Y-103492676D01*
X271129309Y-103454572D01*
X271252659Y-103423593D01*
X271377682Y-103399738D01*
X271504378Y-103383007D01*
X271632747Y-103373401D01*
X271762789Y-103370918D01*
X271894504Y-103375559D01*
G37*
G36*
X264806659Y-106563708D02*
G01*
X270333244Y-101037123D01*
X269486986Y-100190865D01*
X268735715Y-100942135D01*
X268676995Y-100883415D01*
X268735223Y-100799211D01*
X268787500Y-100714339D01*
X268847947Y-100600137D01*
X268897816Y-100484748D01*
X268937107Y-100368172D01*
X268965819Y-100250408D01*
X268983953Y-100131457D01*
X268991509Y-100011318D01*
X268991320Y-99950804D01*
X268983305Y-99831070D01*
X268964443Y-99715384D01*
X268934732Y-99603746D01*
X268894173Y-99496156D01*
X268842766Y-99392613D01*
X268780511Y-99293119D01*
X268707408Y-99197672D01*
X268623457Y-99106273D01*
X268539182Y-99029284D01*
X268450427Y-98962387D01*
X268357193Y-98905583D01*
X268259479Y-98858872D01*
X268157286Y-98822253D01*
X268050613Y-98795726D01*
X267939461Y-98779292D01*
X267823829Y-98772951D01*
X267705418Y-98775433D01*
X267585927Y-98787199D01*
X267465357Y-98808247D01*
X267343707Y-98838579D01*
X267220978Y-98878193D01*
X267128223Y-98913996D01*
X267034860Y-98955020D01*
X266940891Y-99001266D01*
X266846314Y-99052734D01*
X266796230Y-99002649D01*
X266854427Y-98918415D01*
X266906613Y-98833452D01*
X266966844Y-98719034D01*
X267016389Y-98603321D01*
X267055248Y-98486313D01*
X267083420Y-98368010D01*
X267100907Y-98248411D01*
X267107707Y-98127517D01*
X267107100Y-98066584D01*
X267097682Y-97945447D01*
X267077200Y-97828142D01*
X267045654Y-97714669D01*
X267003045Y-97605028D01*
X266949371Y-97499219D01*
X266884633Y-97397241D01*
X266808832Y-97299096D01*
X266721966Y-97204782D01*
X266628690Y-97118488D01*
X266531497Y-97042243D01*
X266430388Y-96976047D01*
X266325363Y-96919899D01*
X266216422Y-96873799D01*
X266103565Y-96837749D01*
X265986791Y-96811747D01*
X265866101Y-96795793D01*
X265741495Y-96789889D01*
X265612972Y-96794033D01*
X265525115Y-96802378D01*
X265392368Y-96822779D01*
X265260956Y-96852894D01*
X265130880Y-96892724D01*
X265002140Y-96942269D01*
X264874736Y-97001529D01*
X264748668Y-97070503D01*
X264665364Y-97121883D01*
X264582654Y-97177581D01*
X264500538Y-97237596D01*
X264419016Y-97301929D01*
X264338087Y-97370580D01*
X264257752Y-97443548D01*
X264178010Y-97520834D01*
X259970897Y-101727946D01*
X260867240Y-102624289D01*
X265048447Y-98443083D01*
X265133228Y-98362646D01*
X265217024Y-98291884D01*
X265299835Y-98230796D01*
X265422205Y-98157303D01*
X265542359Y-98105578D01*
X265660296Y-98075619D01*
X265776017Y-98067427D01*
X265889523Y-98081003D01*
X266000812Y-98116345D01*
X266109884Y-98173454D01*
X266216741Y-98252330D01*
X266286748Y-98317007D01*
X266366675Y-98405536D01*
X266431591Y-98496257D01*
X266481497Y-98589171D01*
X266516392Y-98684277D01*
X266536277Y-98781576D01*
X266541151Y-98881067D01*
X266538898Y-98921478D01*
X266523339Y-99022613D01*
X266492854Y-99124171D01*
X266447443Y-99226150D01*
X266387106Y-99328550D01*
X266328089Y-99410775D01*
X266259519Y-99493269D01*
X266181397Y-99576032D01*
X262000190Y-103757239D01*
X262777366Y-104534415D01*
X266958573Y-100353208D01*
X267039070Y-100277515D01*
X267119945Y-100211050D01*
X267201198Y-100153814D01*
X267303295Y-100095248D01*
X267405982Y-100051101D01*
X267509260Y-100021376D01*
X267613128Y-100006070D01*
X267716229Y-100004687D01*
X267816125Y-100017808D01*
X267912816Y-100045435D01*
X268006303Y-100087565D01*
X268096586Y-100144201D01*
X268183664Y-100215341D01*
X268217598Y-100247858D01*
X268310986Y-100353237D01*
X268382606Y-100460832D01*
X268432460Y-100570644D01*
X268460547Y-100682672D01*
X268466866Y-100796916D01*
X268451419Y-100913376D01*
X268414204Y-101032052D01*
X268355223Y-101152944D01*
X268274475Y-101276053D01*
X268208550Y-101359356D01*
X268132950Y-101443645D01*
X268091523Y-101486158D01*
X263910316Y-105667365D01*
X264806659Y-106563708D01*
G37*
G36*
X260017683Y-91576173D02*
G01*
X260158632Y-91586915D01*
X260299794Y-91605337D01*
X260441168Y-91631440D01*
X260582755Y-91665224D01*
X260677264Y-91692014D01*
X260771638Y-91721974D01*
X260865216Y-91755294D01*
X260957999Y-91791974D01*
X261049985Y-91832013D01*
X261141175Y-91875413D01*
X261231569Y-91922171D01*
X261321166Y-91972290D01*
X261409968Y-92025768D01*
X261497974Y-92082606D01*
X261585184Y-92142803D01*
X261671597Y-92206360D01*
X261757215Y-92273277D01*
X261842036Y-92343553D01*
X261926062Y-92417189D01*
X262009291Y-92494185D01*
X262091724Y-92574540D01*
X262172073Y-92656980D01*
X262249048Y-92740230D01*
X262322651Y-92824289D01*
X262392880Y-92909158D01*
X262459736Y-92994836D01*
X262523219Y-93081324D01*
X262583329Y-93168621D01*
X262640065Y-93256728D01*
X262693429Y-93345645D01*
X262743419Y-93435371D01*
X262790036Y-93525906D01*
X262833280Y-93617251D01*
X262873150Y-93709406D01*
X262909648Y-93802370D01*
X262942772Y-93896144D01*
X262972524Y-93990728D01*
X262999098Y-94085466D01*
X263032558Y-94227448D01*
X263058337Y-94369277D01*
X263076436Y-94510955D01*
X263086854Y-94652481D01*
X263089591Y-94793855D01*
X263084648Y-94935077D01*
X263072024Y-95076148D01*
X263051719Y-95217067D01*
X263023733Y-95357834D01*
X262988067Y-95498449D01*
X262944827Y-95637369D01*
X262894118Y-95774347D01*
X262856163Y-95864585D01*
X262814889Y-95953961D01*
X262770296Y-96042472D01*
X262722384Y-96130120D01*
X262671152Y-96216905D01*
X262616601Y-96302826D01*
X262558732Y-96387884D01*
X262497542Y-96472078D01*
X262433034Y-96555408D01*
X262365207Y-96637875D01*
X262294060Y-96719479D01*
X262219594Y-96800219D01*
X262141809Y-96880095D01*
X260659993Y-98361911D01*
X260619524Y-98401857D01*
X260537988Y-98479211D01*
X260455656Y-98553177D01*
X260372528Y-98623757D01*
X260288604Y-98690951D01*
X260203883Y-98754757D01*
X260118367Y-98815177D01*
X260032054Y-98872211D01*
X259944946Y-98925858D01*
X259857041Y-98976118D01*
X259768341Y-99022991D01*
X259678844Y-99066478D01*
X259588551Y-99106578D01*
X259497463Y-99143291D01*
X259405578Y-99176618D01*
X259266258Y-99220259D01*
X259125936Y-99255631D01*
X258985402Y-99283384D01*
X258844655Y-99303517D01*
X258703696Y-99316029D01*
X258562524Y-99320922D01*
X258421140Y-99318195D01*
X258279543Y-99307848D01*
X258137734Y-99289881D01*
X257995712Y-99264293D01*
X257853477Y-99231086D01*
X257758536Y-99204715D01*
X257664162Y-99174755D01*
X257570584Y-99141435D01*
X257477802Y-99104755D01*
X257385816Y-99064715D01*
X257294626Y-99021316D01*
X257204232Y-98974558D01*
X257114634Y-98924439D01*
X257025832Y-98870961D01*
X256937826Y-98814123D01*
X256850617Y-98753926D01*
X256764203Y-98690369D01*
X256678586Y-98623452D01*
X256593764Y-98553176D01*
X256509739Y-98479540D01*
X256426509Y-98402544D01*
X256344076Y-98322189D01*
X256238638Y-98213445D01*
X256138637Y-98103527D01*
X256044074Y-97992435D01*
X255954948Y-97880170D01*
X255871260Y-97766730D01*
X255793010Y-97652117D01*
X255720197Y-97536330D01*
X255652821Y-97419369D01*
X255590883Y-97301234D01*
X255534383Y-97181926D01*
X255483320Y-97061443D01*
X255437695Y-96939787D01*
X255397507Y-96816956D01*
X255362757Y-96692952D01*
X255333444Y-96567774D01*
X255309569Y-96441423D01*
X255291515Y-96315239D01*
X255279669Y-96190567D01*
X255274029Y-96067407D01*
X255274596Y-95945757D01*
X255281369Y-95825619D01*
X255294349Y-95706991D01*
X255313535Y-95589875D01*
X255338929Y-95474270D01*
X255370528Y-95360177D01*
X255408335Y-95247594D01*
X255452348Y-95136523D01*
X255502567Y-95026962D01*
X255558994Y-94918913D01*
X255621626Y-94812375D01*
X255690466Y-94707349D01*
X255765512Y-94603833D01*
X256739572Y-95577894D01*
X256678775Y-95685268D01*
X256630228Y-95794100D01*
X256593933Y-95904389D01*
X256569889Y-96016135D01*
X256558096Y-96129338D01*
X256558555Y-96243998D01*
X256571265Y-96360116D01*
X256596227Y-96477691D01*
X256633547Y-96595967D01*
X256682472Y-96715053D01*
X256726780Y-96804899D01*
X256777615Y-96895200D01*
X256834977Y-96985957D01*
X256898866Y-97077169D01*
X256969283Y-97168836D01*
X257046226Y-97260959D01*
X257129697Y-97353537D01*
X257219694Y-97446570D01*
X257256447Y-97482685D01*
X257330265Y-97551403D01*
X257404501Y-97615439D01*
X257516640Y-97702714D01*
X257629721Y-97779456D01*
X257743742Y-97845662D01*
X257858704Y-97901335D01*
X257974608Y-97946472D01*
X258091452Y-97981076D01*
X258209238Y-98005145D01*
X258327965Y-98018680D01*
X258447632Y-98021680D01*
X258487674Y-98020104D01*
X258607736Y-98008107D01*
X258727708Y-97985212D01*
X258847588Y-97951418D01*
X258967377Y-97906725D01*
X259087076Y-97851134D01*
X259206683Y-97784643D01*
X259326199Y-97707255D01*
X259405826Y-97649607D01*
X259485412Y-97587116D01*
X259564958Y-97519781D01*
X259644463Y-97447602D01*
X259723928Y-97370580D01*
X260210958Y-96883549D01*
X257110890Y-93783481D01*
X258437270Y-93783481D01*
X260874149Y-96220359D01*
X261141843Y-95952665D01*
X261217435Y-95874671D01*
X261288346Y-95796555D01*
X261354574Y-95718318D01*
X261416121Y-95639960D01*
X261499662Y-95522194D01*
X261572669Y-95404156D01*
X261635142Y-95285844D01*
X261687080Y-95167259D01*
X261728484Y-95048400D01*
X261759353Y-94929269D01*
X261779688Y-94809864D01*
X261789489Y-94690186D01*
X261790083Y-94610053D01*
X261781866Y-94490512D01*
X261762720Y-94371760D01*
X261732645Y-94253797D01*
X261691641Y-94136624D01*
X261639707Y-94020239D01*
X261576845Y-93904645D01*
X261503054Y-93789839D01*
X261418334Y-93675823D01*
X261355782Y-93600251D01*
X261288373Y-93525029D01*
X261216106Y-93450159D01*
X261178711Y-93413415D01*
X261103638Y-93343550D01*
X261028187Y-93278515D01*
X260914303Y-93190021D01*
X260799568Y-93112394D01*
X260683983Y-93045636D01*
X260567549Y-92989746D01*
X260450264Y-92944724D01*
X260332129Y-92910571D01*
X260213144Y-92887286D01*
X260093309Y-92874870D01*
X259972624Y-92873321D01*
X259852021Y-92882196D01*
X259731781Y-92901696D01*
X259611906Y-92931822D01*
X259492394Y-92972573D01*
X259373248Y-93023950D01*
X259254465Y-93085952D01*
X259136047Y-93158579D01*
X259017993Y-93241832D01*
X258939493Y-93303237D01*
X258861155Y-93369365D01*
X258782979Y-93440215D01*
X258704964Y-93515787D01*
X258437270Y-93783481D01*
X257110890Y-93783481D01*
X256819017Y-93491608D01*
X257799986Y-92510639D01*
X257839602Y-92471549D01*
X257919492Y-92395869D01*
X258000259Y-92323522D01*
X258081903Y-92254507D01*
X258164424Y-92188825D01*
X258247822Y-92126475D01*
X258332097Y-92067458D01*
X258417249Y-92011774D01*
X258503278Y-91959423D01*
X258590184Y-91910404D01*
X258677967Y-91864718D01*
X258766627Y-91822365D01*
X258901262Y-91765083D01*
X259037870Y-91715300D01*
X259176451Y-91673016D01*
X259316125Y-91637674D01*
X259456012Y-91610012D01*
X259596111Y-91590031D01*
X259736422Y-91577731D01*
X259876946Y-91573112D01*
X260017683Y-91576173D01*
G37*
G36*
X246684642Y-88441691D02*
G01*
X247560261Y-87566073D01*
X245620775Y-85626587D01*
X251130089Y-80117273D01*
X251624027Y-83523031D01*
X252694803Y-82452255D01*
X252339029Y-79505894D01*
X251055825Y-78222691D01*
X244636352Y-84642164D01*
X243044005Y-83049817D01*
X242168386Y-83925435D01*
X246684642Y-88441691D01*
G37*
G36*
X286601436Y-152117273D02*
G01*
X293020910Y-145697800D01*
X294991483Y-147668373D01*
X295867101Y-146792754D01*
X290951895Y-141877548D01*
X290076277Y-142753166D01*
X292036487Y-144713377D01*
X285617013Y-151132850D01*
X286601436Y-152117273D01*
G37*
G36*
X285590096Y-137290442D02*
G01*
X285731269Y-137303274D01*
X285871282Y-137323796D01*
X286010135Y-137352009D01*
X286147827Y-137387913D01*
X286284359Y-137431508D01*
X286419731Y-137482793D01*
X286553942Y-137541770D01*
X286686993Y-137608437D01*
X286818884Y-137682795D01*
X286949614Y-137764843D01*
X287079184Y-137854583D01*
X287207593Y-137952013D01*
X287334842Y-138057134D01*
X287460931Y-138169946D01*
X287585859Y-138290449D01*
X287706362Y-138415377D01*
X287819174Y-138541466D01*
X287924295Y-138668715D01*
X288021726Y-138797125D01*
X288111465Y-138926694D01*
X288193514Y-139057425D01*
X288267872Y-139189315D01*
X288334539Y-139322366D01*
X288393515Y-139456577D01*
X288444801Y-139591949D01*
X288488395Y-139728481D01*
X288524299Y-139866173D01*
X288552512Y-140005026D01*
X288573035Y-140145039D01*
X288585866Y-140286213D01*
X288591007Y-140428547D01*
X288588430Y-140570826D01*
X288578108Y-140711838D01*
X288560041Y-140851581D01*
X288534230Y-140990056D01*
X288500674Y-141127263D01*
X288459373Y-141263201D01*
X288410327Y-141397871D01*
X288353536Y-141531273D01*
X288289001Y-141663406D01*
X288216721Y-141794271D01*
X288136696Y-141923868D01*
X288048927Y-142052197D01*
X287953412Y-142179257D01*
X287850153Y-142305049D01*
X287739149Y-142429572D01*
X287620400Y-142552828D01*
X284342445Y-145830783D01*
X284217935Y-145950787D01*
X284092237Y-146062965D01*
X283965353Y-146167317D01*
X283837281Y-146263843D01*
X283708021Y-146352544D01*
X283577574Y-146433418D01*
X283445940Y-146506468D01*
X283313118Y-146571691D01*
X283179110Y-146629089D01*
X283043913Y-146678661D01*
X282907530Y-146720407D01*
X282769959Y-146754327D01*
X282631201Y-146780422D01*
X282491255Y-146798691D01*
X282350122Y-146809134D01*
X282207802Y-146811752D01*
X282065468Y-146806611D01*
X281924294Y-146793780D01*
X281784281Y-146773257D01*
X281645428Y-146745044D01*
X281507736Y-146709140D01*
X281371204Y-146665546D01*
X281235832Y-146614260D01*
X281101621Y-146555284D01*
X280968570Y-146488617D01*
X280836680Y-146414259D01*
X280705949Y-146332210D01*
X280576380Y-146242471D01*
X280447970Y-146145040D01*
X280320721Y-146039919D01*
X280194632Y-145927107D01*
X280069704Y-145806604D01*
X279949201Y-145681676D01*
X279836389Y-145555587D01*
X279731268Y-145428338D01*
X279633838Y-145299929D01*
X279544098Y-145170359D01*
X279462050Y-145039629D01*
X279387692Y-144907738D01*
X279321025Y-144774687D01*
X279262048Y-144640476D01*
X279210763Y-144505104D01*
X279167168Y-144368572D01*
X279131264Y-144230880D01*
X279103051Y-144092027D01*
X279082529Y-143952014D01*
X279071198Y-143827356D01*
X280406359Y-143827356D01*
X280414626Y-143942910D01*
X280433034Y-144057311D01*
X280461581Y-144170558D01*
X280500268Y-144282651D01*
X280549094Y-144393591D01*
X280608060Y-144503377D01*
X280677166Y-144612010D01*
X280756412Y-144719489D01*
X280845797Y-144825814D01*
X280945322Y-144930986D01*
X281015315Y-144998470D01*
X281121292Y-145091270D01*
X281228452Y-145173962D01*
X281336796Y-145246544D01*
X281446324Y-145309016D01*
X281557036Y-145361379D01*
X281668933Y-145403633D01*
X281782013Y-145435778D01*
X281896277Y-145457813D01*
X282011725Y-145469739D01*
X282128357Y-145471555D01*
X282206209Y-145466900D01*
X282322685Y-145451367D01*
X282438795Y-145425572D01*
X282554542Y-145389517D01*
X282669924Y-145343200D01*
X282784942Y-145286622D01*
X282899596Y-145219783D01*
X283013885Y-145142682D01*
X283127811Y-145055321D01*
X283203558Y-144991379D01*
X283279144Y-144922877D01*
X283354568Y-144849814D01*
X286639432Y-141564951D01*
X286675899Y-141527900D01*
X286745494Y-141453636D01*
X286810636Y-141379157D01*
X286900002Y-141267033D01*
X286979348Y-141154424D01*
X287048677Y-141041328D01*
X287107987Y-140927747D01*
X287157279Y-140813680D01*
X287196553Y-140699128D01*
X287225808Y-140584090D01*
X287245045Y-140468566D01*
X287254264Y-140352556D01*
X287253298Y-140236774D01*
X287241979Y-140121933D01*
X287220308Y-140008033D01*
X287188285Y-139895075D01*
X287145910Y-139783057D01*
X287093182Y-139671981D01*
X287030103Y-139561845D01*
X286956671Y-139452651D01*
X286872886Y-139344398D01*
X286778750Y-139237086D01*
X286710241Y-139166067D01*
X286639223Y-139097559D01*
X286531911Y-139003422D01*
X286423657Y-138919638D01*
X286314463Y-138846206D01*
X286204328Y-138783126D01*
X286093251Y-138730399D01*
X285981234Y-138688023D01*
X285868275Y-138656000D01*
X285754375Y-138634329D01*
X285639534Y-138623011D01*
X285523752Y-138622044D01*
X285485029Y-138624004D01*
X285369181Y-138636562D01*
X285253819Y-138659139D01*
X285138942Y-138691734D01*
X285024552Y-138734347D01*
X284910647Y-138786978D01*
X284797228Y-138849628D01*
X284684294Y-138922296D01*
X284571847Y-139004982D01*
X284459885Y-139097687D01*
X284385513Y-139165055D01*
X284311358Y-139236877D01*
X281026494Y-142521741D01*
X280989394Y-142559434D01*
X280918625Y-142634952D01*
X280852431Y-142710646D01*
X280761714Y-142824515D01*
X280681290Y-142938779D01*
X280611157Y-143053438D01*
X280551315Y-143168492D01*
X280501765Y-143283940D01*
X280462507Y-143399782D01*
X280433540Y-143516020D01*
X280414864Y-143632652D01*
X280406480Y-143749679D01*
X280406359Y-143827356D01*
X279071198Y-143827356D01*
X279069697Y-143810841D01*
X279064556Y-143668507D01*
X279067174Y-143526187D01*
X279077617Y-143385054D01*
X279095886Y-143245108D01*
X279121981Y-143106350D01*
X279155902Y-142968779D01*
X279197648Y-142832395D01*
X279247220Y-142697199D01*
X279304617Y-142563190D01*
X279369841Y-142430368D01*
X279442890Y-142298734D01*
X279523765Y-142168287D01*
X279612466Y-142039028D01*
X279708992Y-141910956D01*
X279813344Y-141784071D01*
X279925522Y-141658374D01*
X280045525Y-141533864D01*
X283323481Y-138255908D01*
X283446736Y-138137159D01*
X283571260Y-138026155D01*
X283697052Y-137922896D01*
X283824112Y-137827382D01*
X283952440Y-137739612D01*
X284082037Y-137659587D01*
X284212902Y-137587307D01*
X284345035Y-137522772D01*
X284478437Y-137465981D01*
X284613107Y-137416936D01*
X284749046Y-137375635D01*
X284886252Y-137342079D01*
X285024727Y-137316267D01*
X285164470Y-137298200D01*
X285305482Y-137287879D01*
X285447762Y-137285302D01*
X285590096Y-137290442D01*
G37*
G36*
X276375528Y-141891365D02*
G01*
X283670619Y-134596273D01*
X282396051Y-133321704D01*
X274062997Y-137319843D01*
X274156619Y-137244402D01*
X274235767Y-137179556D01*
X274318693Y-137110717D01*
X274405397Y-137037884D01*
X274495878Y-136961057D01*
X274590138Y-136880236D01*
X274688175Y-136795421D01*
X274764183Y-136729189D01*
X274841111Y-136661176D01*
X274918404Y-136592495D01*
X274996060Y-136523146D01*
X275074082Y-136453130D01*
X275152467Y-136382445D01*
X275231217Y-136311093D01*
X275310331Y-136239072D01*
X275389809Y-136166384D01*
X275469652Y-136093028D01*
X275549859Y-136019004D01*
X275603533Y-135969284D01*
X275683633Y-135894121D01*
X275762672Y-135819535D01*
X275840647Y-135745527D01*
X275917560Y-135672095D01*
X275993411Y-135599239D01*
X276068199Y-135526961D01*
X276141924Y-135455260D01*
X276214587Y-135384135D01*
X276286188Y-135313587D01*
X276356726Y-135243616D01*
X276403160Y-135197289D01*
X280337398Y-131263051D01*
X279403060Y-130328713D01*
X272107968Y-137623805D01*
X273391172Y-138907009D01*
X281643054Y-134952047D01*
X281553420Y-135028811D01*
X281477767Y-135094291D01*
X281398606Y-135163387D01*
X281315936Y-135236099D01*
X281229759Y-135312426D01*
X281140073Y-135392370D01*
X281046880Y-135475930D01*
X280974682Y-135540973D01*
X280900916Y-135607089D01*
X280826634Y-135673963D01*
X280751836Y-135741597D01*
X280676522Y-135809989D01*
X280600692Y-135879141D01*
X280524345Y-135949051D01*
X280447483Y-136019721D01*
X280370104Y-136091149D01*
X280292209Y-136163336D01*
X280213799Y-136236283D01*
X280161238Y-136285335D01*
X280082802Y-136358216D01*
X280005520Y-136430489D01*
X279929391Y-136502155D01*
X279854416Y-136573214D01*
X279780594Y-136643666D01*
X279707926Y-136713510D01*
X279636412Y-136782748D01*
X279566051Y-136851378D01*
X279474031Y-136941941D01*
X279384062Y-137031424D01*
X275449825Y-140965662D01*
X276375528Y-141891365D01*
G37*
G36*
X273524155Y-125441140D02*
G01*
X273658582Y-125455523D01*
X273792443Y-125477084D01*
X273925737Y-125505823D01*
X274058464Y-125541741D01*
X274190624Y-125584836D01*
X274322218Y-125635110D01*
X274453245Y-125692561D01*
X274583705Y-125757191D01*
X274713599Y-125828999D01*
X274842926Y-125907985D01*
X274971686Y-125994149D01*
X275099880Y-126087491D01*
X275227506Y-126188011D01*
X275354567Y-126295709D01*
X275481060Y-126410586D01*
X275606987Y-126532640D01*
X277705362Y-128631015D01*
X270410270Y-135926107D01*
X268172003Y-133687840D01*
X268049106Y-133560584D01*
X267933858Y-133432263D01*
X267826261Y-133302875D01*
X267726314Y-133172421D01*
X267634018Y-133040902D01*
X267549372Y-132908317D01*
X267472376Y-132774665D01*
X267403031Y-132639948D01*
X267341336Y-132504165D01*
X267287291Y-132367316D01*
X267240897Y-132229401D01*
X267202152Y-132090420D01*
X267171059Y-131950373D01*
X267147615Y-131809260D01*
X267131822Y-131667082D01*
X267129079Y-131618825D01*
X268513961Y-131618825D01*
X268522375Y-131745141D01*
X268541142Y-131870213D01*
X268570260Y-131994040D01*
X268609731Y-132116622D01*
X268659555Y-132237960D01*
X268719730Y-132358053D01*
X268790258Y-132476901D01*
X268871138Y-132594505D01*
X268930809Y-132672216D01*
X268995081Y-132749373D01*
X269063954Y-132825978D01*
X269137429Y-132902029D01*
X270322190Y-134086791D01*
X272873054Y-131535926D01*
X271688293Y-130351165D01*
X271612100Y-130277832D01*
X271535070Y-130209384D01*
X271457204Y-130145820D01*
X271378502Y-130087141D01*
X271258880Y-130008280D01*
X271137375Y-129940408D01*
X271013988Y-129883527D01*
X270888719Y-129837635D01*
X270761568Y-129802733D01*
X270632534Y-129778820D01*
X270501619Y-129765898D01*
X270368821Y-129763965D01*
X270279938Y-129768357D01*
X270148461Y-129783319D01*
X270019200Y-129808329D01*
X269892155Y-129843388D01*
X269767326Y-129888495D01*
X269644713Y-129943652D01*
X269524317Y-130008856D01*
X269406136Y-130084110D01*
X269290172Y-130169412D01*
X269214094Y-130231863D01*
X269139000Y-130298780D01*
X269064892Y-130370162D01*
X268995952Y-130441829D01*
X268901167Y-130550922D01*
X268816736Y-130661927D01*
X268742656Y-130774845D01*
X268678928Y-130889676D01*
X268625553Y-131006420D01*
X268582530Y-131125075D01*
X268549860Y-131245644D01*
X268527541Y-131368125D01*
X268515575Y-131492519D01*
X268513961Y-131618825D01*
X267129079Y-131618825D01*
X267123679Y-131523837D01*
X267123443Y-131380606D01*
X267130938Y-131238899D01*
X267146165Y-131098718D01*
X267169122Y-130960061D01*
X267199811Y-130822928D01*
X267238232Y-130687320D01*
X267284383Y-130553237D01*
X267338266Y-130420679D01*
X267399880Y-130289645D01*
X267469226Y-130160136D01*
X267546302Y-130032152D01*
X267631110Y-129905692D01*
X267723650Y-129780757D01*
X267823920Y-129657346D01*
X267931922Y-129535461D01*
X268047655Y-129415099D01*
X268138319Y-129327161D01*
X268229833Y-129243824D01*
X268322197Y-129165088D01*
X268415411Y-129090952D01*
X268509474Y-129021418D01*
X268604388Y-128956485D01*
X268700152Y-128896152D01*
X268796766Y-128840421D01*
X268894231Y-128789291D01*
X268992545Y-128742761D01*
X269091709Y-128700833D01*
X269191723Y-128663505D01*
X269292587Y-128630779D01*
X269394301Y-128602654D01*
X269496866Y-128579129D01*
X269600280Y-128560206D01*
X269704005Y-128545546D01*
X269807068Y-128535244D01*
X269909471Y-128529301D01*
X270011212Y-128527716D01*
X270112292Y-128530488D01*
X270212711Y-128537619D01*
X270312469Y-128549108D01*
X270411565Y-128564955D01*
X270510001Y-128585160D01*
X270607775Y-128609724D01*
X270704889Y-128638645D01*
X270801341Y-128671925D01*
X270897132Y-128709563D01*
X270992262Y-128751558D01*
X271086730Y-128797912D01*
X271180538Y-128848624D01*
X271134933Y-128766832D01*
X271073609Y-128643435D01*
X271020785Y-128519188D01*
X270976462Y-128394091D01*
X270940639Y-128268144D01*
X270940427Y-128267161D01*
X272028373Y-128267161D01*
X272030250Y-128378865D01*
X272036821Y-128453614D01*
X272054318Y-128565131D01*
X272080983Y-128675919D01*
X272116816Y-128785978D01*
X272161817Y-128895309D01*
X272215987Y-129003911D01*
X272279324Y-129111785D01*
X272351830Y-129218930D01*
X272433505Y-129325346D01*
X272524347Y-129431034D01*
X272624358Y-129535993D01*
X273748673Y-130660308D01*
X275866046Y-128542935D01*
X274731369Y-127408258D01*
X274662725Y-127341827D01*
X274558975Y-127249695D01*
X274454284Y-127166578D01*
X274348652Y-127092478D01*
X274242078Y-127027395D01*
X274134564Y-126971328D01*
X274026108Y-126924277D01*
X273916712Y-126886243D01*
X273806374Y-126857226D01*
X273695095Y-126837225D01*
X273582875Y-126826240D01*
X273508355Y-126823798D01*
X273398043Y-126827977D01*
X273289491Y-126841568D01*
X273182700Y-126864569D01*
X273077670Y-126896982D01*
X272974401Y-126938806D01*
X272872893Y-126990041D01*
X272773145Y-127050687D01*
X272675158Y-127120744D01*
X272578932Y-127200212D01*
X272484466Y-127289091D01*
X272425416Y-127350625D01*
X272344506Y-127444569D01*
X272272794Y-127540486D01*
X272210281Y-127638377D01*
X272156966Y-127738241D01*
X272112851Y-127840078D01*
X272077933Y-127943889D01*
X272052215Y-128049673D01*
X272035695Y-128157430D01*
X272028373Y-128267161D01*
X270940427Y-128267161D01*
X270913316Y-128141347D01*
X270894494Y-128013700D01*
X270884172Y-127885203D01*
X270882351Y-127755856D01*
X270889029Y-127625658D01*
X270904209Y-127494611D01*
X270919017Y-127407442D01*
X270948186Y-127278484D01*
X270985704Y-127151682D01*
X271031571Y-127027036D01*
X271085786Y-126904544D01*
X271148350Y-126784209D01*
X271219262Y-126666028D01*
X271298523Y-126550003D01*
X271386132Y-126436134D01*
X271449176Y-126361418D01*
X271515931Y-126287661D01*
X271586396Y-126214861D01*
X271694958Y-126110847D01*
X271805193Y-126014253D01*
X271917101Y-125925080D01*
X272030682Y-125843328D01*
X272145936Y-125768997D01*
X272262863Y-125702087D01*
X272381464Y-125642598D01*
X272501737Y-125590530D01*
X272623684Y-125545883D01*
X272747303Y-125508657D01*
X272872596Y-125478851D01*
X272999561Y-125456467D01*
X273128200Y-125441504D01*
X273258512Y-125433961D01*
X273390497Y-125433840D01*
X273524155Y-125441140D01*
G37*
G36*
X264396655Y-129912492D02*
G01*
X271691747Y-122617400D01*
X267463910Y-118389563D01*
X266588291Y-119265181D01*
X269842068Y-122518958D01*
X267724695Y-124636331D01*
X264819784Y-121731420D01*
X263944166Y-122607038D01*
X266849077Y-125511949D01*
X264298213Y-128062813D01*
X261044436Y-124809036D01*
X260168818Y-125684655D01*
X264396655Y-129912492D01*
G37*
G36*
X261407982Y-113484719D02*
G01*
X261549260Y-113492693D01*
X261690720Y-113508196D01*
X261832362Y-113531228D01*
X261974187Y-113561789D01*
X262068838Y-113586345D01*
X262163569Y-113614248D01*
X262258193Y-113645295D01*
X262352089Y-113679714D01*
X262445255Y-113717507D01*
X262537693Y-113758673D01*
X262629403Y-113803213D01*
X262720384Y-113851125D01*
X262810636Y-113902410D01*
X262900160Y-113957069D01*
X262988955Y-114015101D01*
X263077021Y-114076506D01*
X263164359Y-114141284D01*
X263250968Y-114209435D01*
X263336849Y-114280960D01*
X263422001Y-114355858D01*
X263506424Y-114434128D01*
X263590119Y-114515772D01*
X265847384Y-116773037D01*
X258552292Y-124068129D01*
X257567869Y-123083706D01*
X260662756Y-119988818D01*
X259567802Y-118893864D01*
X255120628Y-120636465D01*
X253977316Y-119493153D01*
X258692183Y-117779911D01*
X258639630Y-117673077D01*
X258591636Y-117565864D01*
X258548203Y-117458274D01*
X258509331Y-117350306D01*
X258475019Y-117241960D01*
X258445268Y-117133236D01*
X258420077Y-117024135D01*
X258399447Y-116914656D01*
X258383377Y-116804798D01*
X258371868Y-116694564D01*
X258367576Y-116626237D01*
X259718056Y-116626237D01*
X259718980Y-116707888D01*
X259728690Y-116828922D01*
X259748387Y-116948225D01*
X259778073Y-117065798D01*
X259817746Y-117181641D01*
X259867407Y-117295753D01*
X259927057Y-117408135D01*
X259996694Y-117518787D01*
X260076319Y-117627708D01*
X260165932Y-117734898D01*
X260265533Y-117840358D01*
X261538375Y-119113200D01*
X263987342Y-116664232D01*
X262714501Y-115391391D01*
X262645614Y-115325122D01*
X262540589Y-115233839D01*
X262433530Y-115152301D01*
X262324437Y-115080508D01*
X262213310Y-115018461D01*
X262100149Y-114966158D01*
X261984954Y-114923601D01*
X261867725Y-114890788D01*
X261748462Y-114867721D01*
X261627165Y-114854399D01*
X261503833Y-114850822D01*
X261380689Y-114856681D01*
X261259306Y-114872315D01*
X261139684Y-114897725D01*
X261021822Y-114932911D01*
X260905722Y-114977872D01*
X260791382Y-115032608D01*
X260678802Y-115097120D01*
X260567984Y-115171407D01*
X260458926Y-115255469D01*
X260351630Y-115349307D01*
X260281077Y-115417296D01*
X260214315Y-115486581D01*
X260122066Y-115592077D01*
X260039288Y-115699455D01*
X259965983Y-115808715D01*
X259902149Y-115919857D01*
X259847787Y-116032881D01*
X259802897Y-116147788D01*
X259767479Y-116264577D01*
X259741533Y-116383248D01*
X259725058Y-116503801D01*
X259718056Y-116626237D01*
X258367576Y-116626237D01*
X258364919Y-116583951D01*
X258362531Y-116472961D01*
X258364704Y-116361592D01*
X258371436Y-116249846D01*
X258382730Y-116137722D01*
X258398584Y-116025221D01*
X258419214Y-115912989D01*
X258444405Y-115802107D01*
X258474156Y-115692573D01*
X258508468Y-115584389D01*
X258547340Y-115477555D01*
X258590773Y-115372069D01*
X258638766Y-115267933D01*
X258691320Y-115165146D01*
X258748434Y-115063708D01*
X258810109Y-114963620D01*
X258876344Y-114864881D01*
X258947140Y-114767491D01*
X259022497Y-114671450D01*
X259102414Y-114576759D01*
X259186891Y-114483417D01*
X259275929Y-114391424D01*
X259315550Y-114352350D01*
X259395480Y-114276791D01*
X259476328Y-114204686D01*
X259558094Y-114136036D01*
X259640777Y-114070839D01*
X259724377Y-114009097D01*
X259808895Y-113950809D01*
X259894330Y-113895974D01*
X259980683Y-113844595D01*
X260067954Y-113796669D01*
X260156141Y-113752197D01*
X260245247Y-113711179D01*
X260380625Y-113656129D01*
X260518068Y-113608851D01*
X260657575Y-113569345D01*
X260704324Y-113557782D01*
X260844691Y-113528111D01*
X260985240Y-113505970D01*
X261125972Y-113491357D01*
X261266886Y-113484274D01*
X261407982Y-113484719D01*
G37*
G36*
X255473811Y-107550548D02*
G01*
X255615089Y-107558523D01*
X255756550Y-107574026D01*
X255898192Y-107597058D01*
X256040016Y-107627618D01*
X256134667Y-107652175D01*
X256229399Y-107680078D01*
X256324023Y-107711124D01*
X256417918Y-107745544D01*
X256511085Y-107783337D01*
X256603523Y-107824503D01*
X256695232Y-107869042D01*
X256786213Y-107916955D01*
X256876466Y-107968240D01*
X256965989Y-108022899D01*
X257054784Y-108080931D01*
X257142851Y-108142336D01*
X257230189Y-108207114D01*
X257316798Y-108275265D01*
X257402678Y-108346790D01*
X257487830Y-108421687D01*
X257572254Y-108499958D01*
X257655949Y-108581602D01*
X259913213Y-110838866D01*
X252618121Y-118133958D01*
X251633698Y-117149535D01*
X254728586Y-114054648D01*
X253633631Y-112959693D01*
X249186458Y-114702295D01*
X248043145Y-113558982D01*
X252758013Y-111845741D01*
X252705459Y-111738906D01*
X252657466Y-111631694D01*
X252614033Y-111524104D01*
X252575161Y-111416135D01*
X252540849Y-111307790D01*
X252511098Y-111199066D01*
X252485907Y-111089964D01*
X252465277Y-110980485D01*
X252449207Y-110870628D01*
X252437698Y-110760393D01*
X252433406Y-110692067D01*
X253783885Y-110692067D01*
X253784810Y-110773717D01*
X253794519Y-110894751D01*
X253814217Y-111014055D01*
X253843902Y-111131628D01*
X253883576Y-111247471D01*
X253933237Y-111361583D01*
X253992886Y-111473965D01*
X254062523Y-111584616D01*
X254142149Y-111693537D01*
X254231762Y-111800728D01*
X254331363Y-111906188D01*
X255604204Y-113179030D01*
X258053172Y-110730062D01*
X256780330Y-109457220D01*
X256711444Y-109390951D01*
X256606419Y-109299668D01*
X256499360Y-109218131D01*
X256390267Y-109146338D01*
X256279140Y-109084290D01*
X256165979Y-109031988D01*
X256050784Y-108989430D01*
X255933554Y-108956618D01*
X255814291Y-108933551D01*
X255692994Y-108920228D01*
X255569663Y-108916651D01*
X255446519Y-108922510D01*
X255325136Y-108938145D01*
X255205514Y-108963555D01*
X255087652Y-108998740D01*
X254971551Y-109043701D01*
X254857211Y-109098437D01*
X254744632Y-109162949D01*
X254633814Y-109237236D01*
X254524756Y-109321299D01*
X254417459Y-109415137D01*
X254346906Y-109483126D01*
X254280145Y-109552411D01*
X254187895Y-109657906D01*
X254105118Y-109765284D01*
X254031813Y-109874544D01*
X253967979Y-109985686D01*
X253913617Y-110098711D01*
X253868727Y-110213618D01*
X253833309Y-110330406D01*
X253807363Y-110449078D01*
X253790888Y-110569631D01*
X253783885Y-110692067D01*
X252433406Y-110692067D01*
X252430749Y-110649781D01*
X252428361Y-110538790D01*
X252430533Y-110427422D01*
X252437266Y-110315676D01*
X252448559Y-110203552D01*
X252464413Y-110091050D01*
X252485043Y-109978819D01*
X252510234Y-109867936D01*
X252539985Y-109758403D01*
X252574297Y-109650219D01*
X252613170Y-109543384D01*
X252656602Y-109437899D01*
X252704596Y-109333763D01*
X252757150Y-109230976D01*
X252814264Y-109129538D01*
X252875939Y-109029450D01*
X252942174Y-108930710D01*
X253012970Y-108833321D01*
X253088326Y-108737280D01*
X253168243Y-108642589D01*
X253252721Y-108549247D01*
X253341759Y-108457254D01*
X253381380Y-108418179D01*
X253461310Y-108342620D01*
X253542158Y-108270516D01*
X253623923Y-108201865D01*
X253706606Y-108136669D01*
X253790207Y-108074926D01*
X253874725Y-108016638D01*
X253960160Y-107961804D01*
X254046513Y-107910424D01*
X254133783Y-107862498D01*
X254221971Y-107818027D01*
X254311076Y-107777009D01*
X254446455Y-107721959D01*
X254583898Y-107674681D01*
X254723405Y-107635174D01*
X254770153Y-107623611D01*
X254910521Y-107593941D01*
X255051070Y-107571799D01*
X255191802Y-107557187D01*
X255332715Y-107550103D01*
X255473811Y-107550548D01*
G37*
G36*
X245062244Y-110578081D02*
G01*
X247746091Y-107894233D01*
X254536882Y-105462536D01*
X253511010Y-104436663D01*
X249245178Y-105977199D01*
X249151647Y-106012550D01*
X249038831Y-106056586D01*
X248930570Y-106100454D01*
X248826862Y-106144153D01*
X248727708Y-106187684D01*
X248633108Y-106231046D01*
X248578533Y-106256982D01*
X248477743Y-106305839D01*
X248389097Y-106350081D01*
X248301023Y-106395865D01*
X248212073Y-106445501D01*
X248181310Y-106464229D01*
X248227421Y-106372648D01*
X248274753Y-106276310D01*
X248323784Y-106175192D01*
X248371467Y-106076021D01*
X248379922Y-106058371D01*
X248422929Y-105966250D01*
X248465600Y-105869069D01*
X248507933Y-105766828D01*
X248549929Y-105659528D01*
X248591587Y-105547168D01*
X248624671Y-105453637D01*
X248649343Y-105381364D01*
X250219238Y-101144891D01*
X249203728Y-100129381D01*
X246761669Y-106909810D01*
X244077821Y-109593658D01*
X245062244Y-110578081D01*
G37*
D11*
X307800060Y-169761867D02*
X307488486Y-169761867D01*
X307488486Y-169761867D02*
X307332700Y-169839761D01*
X307332700Y-169839761D02*
X307176913Y-169995547D01*
X307176913Y-169995547D02*
X307099020Y-170307121D01*
X307099020Y-170307121D02*
X307099020Y-170852374D01*
X307099020Y-170852374D02*
X307176913Y-171163947D01*
X307176913Y-171163947D02*
X307332700Y-171319734D01*
X307332700Y-171319734D02*
X307488486Y-171397627D01*
X307488486Y-171397627D02*
X307800060Y-171397627D01*
X307800060Y-171397627D02*
X307955846Y-171319734D01*
X307955846Y-171319734D02*
X308111633Y-171163947D01*
X308111633Y-171163947D02*
X308189526Y-170852374D01*
X308189526Y-170852374D02*
X308189526Y-170307121D01*
X308189526Y-170307121D02*
X308111633Y-169995547D01*
X308111633Y-169995547D02*
X307955846Y-169839761D01*
X307955846Y-169839761D02*
X307800060Y-169761867D01*
X305852727Y-170540801D02*
X306397980Y-170540801D01*
X306397980Y-171397627D02*
X306397980Y-169761867D01*
X306397980Y-169761867D02*
X305619047Y-169761867D01*
X304139073Y-171397627D02*
X305073793Y-171397627D01*
X304606433Y-171397627D02*
X304606433Y-169761867D01*
X304606433Y-169761867D02*
X304762220Y-169995547D01*
X304762220Y-169995547D02*
X304918007Y-170151334D01*
X304918007Y-170151334D02*
X305073793Y-170229227D01*
X302612364Y-170307121D02*
X302222897Y-171397627D01*
X302222897Y-171397627D02*
X301833430Y-170307121D01*
X300353457Y-171397627D02*
X301288177Y-171397627D01*
X300820817Y-171397627D02*
X300820817Y-169761867D01*
X300820817Y-169761867D02*
X300976604Y-169995547D01*
X300976604Y-169995547D02*
X301132391Y-170151334D01*
X301132391Y-170151334D02*
X301288177Y-170229227D01*
D12*
%TO.C,U$15*%
X289826100Y-73773600D02*
X289826100Y-77710600D01*
X289826100Y-73773600D02*
X285000100Y-73773600D01*
X283603100Y-75932600D02*
X277126100Y-75932600D01*
X277126100Y-79615600D02*
X288302100Y-79615600D01*
X277126100Y-79615600D02*
X277126100Y-75932600D01*
X288302100Y-79615599D02*
G75*
G03*
X289826099Y-77710600I-190500J1714499D01*
G01*
X283603099Y-75932601D02*
G75*
G03*
X285000100Y-74154600I-190499J1587500D01*
G01*
%TO.C,U$11*%
X289826100Y-46163600D02*
X289826100Y-50100600D01*
X289826100Y-46163600D02*
X285000100Y-46163600D01*
X283603100Y-48322600D02*
X277126100Y-48322600D01*
X277126100Y-52005600D02*
X288302100Y-52005600D01*
X277126100Y-52005600D02*
X277126100Y-48322600D01*
X288302100Y-52005599D02*
G75*
G03*
X289826099Y-50100600I-190500J1714499D01*
G01*
X283603099Y-48322601D02*
G75*
G03*
X285000100Y-46544600I-190499J1587500D01*
G01*
%TO.C,U$17*%
X227938100Y-119133600D02*
X227938100Y-123070600D01*
X227938100Y-119133600D02*
X223112100Y-119133600D01*
X221715100Y-121292600D02*
X215238100Y-121292600D01*
X215238100Y-124975600D02*
X226414100Y-124975600D01*
X215238100Y-124975600D02*
X215238100Y-121292600D01*
X226414100Y-124975599D02*
G75*
G03*
X227938099Y-123070600I-190500J1714499D01*
G01*
X221715099Y-121292601D02*
G75*
G03*
X223112100Y-119514600I-190499J1587500D01*
G01*
%TO.C,U$6*%
X83118100Y-150318600D02*
X83118100Y-154255600D01*
X83118100Y-150318600D02*
X78292100Y-150318600D01*
X76895100Y-152477600D02*
X70418100Y-152477600D01*
X70418100Y-156160600D02*
X81594100Y-156160600D01*
X70418100Y-156160600D02*
X70418100Y-152477600D01*
X81594100Y-156160599D02*
G75*
G03*
X83118099Y-154255600I-190500J1714499D01*
G01*
X76895099Y-152477601D02*
G75*
G03*
X78292100Y-150699600I-190499J1587500D01*
G01*
%TO.C,U$20*%
X227938100Y-150318600D02*
X227938100Y-154255600D01*
X227938100Y-150318600D02*
X223112100Y-150318600D01*
X221715100Y-152477600D02*
X215238100Y-152477600D01*
X215238100Y-156160600D02*
X226414100Y-156160600D01*
X215238100Y-156160600D02*
X215238100Y-152477600D01*
X226414100Y-156160599D02*
G75*
G03*
X227938099Y-154255600I-190500J1714499D01*
G01*
X221715099Y-152477601D02*
G75*
G03*
X223112100Y-150699600I-190499J1587500D01*
G01*
%TO.C,U$10*%
X261471100Y-43188600D02*
X261471100Y-47125600D01*
X261471100Y-43188600D02*
X256645100Y-43188600D01*
X255248100Y-45347600D02*
X248771100Y-45347600D01*
X248771100Y-49030600D02*
X259947100Y-49030600D01*
X248771100Y-49030600D02*
X248771100Y-45347600D01*
X259947100Y-49030599D02*
G75*
G03*
X261471099Y-47125600I-190500J1714499D01*
G01*
X255248099Y-45347601D02*
G75*
G03*
X256645100Y-43569600I-190499J1587500D01*
G01*
%TO.C,U$3*%
X49587100Y-43904600D02*
X49587100Y-47841600D01*
X49587100Y-43904600D02*
X44761100Y-43904600D01*
X43364100Y-46063600D02*
X36887100Y-46063600D01*
X36887100Y-49746600D02*
X48063100Y-49746600D01*
X36887100Y-49746600D02*
X36887100Y-46063600D01*
X48063100Y-49746599D02*
G75*
G03*
X49587099Y-47841600I-190500J1714499D01*
G01*
X43364099Y-46063601D02*
G75*
G03*
X44761100Y-44285600I-190499J1587500D01*
G01*
%TO.C,U$13*%
X234953100Y-82793600D02*
X234953100Y-86730600D01*
X234953100Y-82793600D02*
X230127100Y-82793600D01*
X228730100Y-84952600D02*
X222253100Y-84952600D01*
X222253100Y-88635600D02*
X233429100Y-88635600D01*
X222253100Y-88635600D02*
X222253100Y-84952600D01*
X233429100Y-88635599D02*
G75*
G03*
X234953099Y-86730600I-190500J1714499D01*
G01*
X228730099Y-84952601D02*
G75*
G03*
X230127100Y-83174600I-190499J1587500D01*
G01*
%TO.C,U$1*%
X-4048900Y-90433600D02*
X-4048900Y-94370600D01*
X-4048900Y-90433600D02*
X-8874900Y-90433600D01*
X-10271900Y-92592600D02*
X-16748900Y-92592600D01*
X-16748900Y-96275600D02*
X-5572900Y-96275600D01*
X-16748900Y-96275600D02*
X-16748900Y-92592600D01*
X-5572900Y-96275599D02*
G75*
G03*
X-4048901Y-94370600I-190500J1714499D01*
G01*
X-10271901Y-92592601D02*
G75*
G03*
X-8874900Y-90814600I-190499J1587500D01*
G01*
%TO.C,U$21*%
X205251100Y-166088600D02*
X205251100Y-170025600D01*
X205251100Y-166088600D02*
X200425100Y-166088600D01*
X199028100Y-168247600D02*
X192551100Y-168247600D01*
X192551100Y-171930600D02*
X203727100Y-171930600D01*
X192551100Y-171930600D02*
X192551100Y-168247600D01*
X203727100Y-171930599D02*
G75*
G03*
X205251099Y-170025600I-190500J1714499D01*
G01*
X199028099Y-168247601D02*
G75*
G03*
X200425100Y-166469600I-190499J1587500D01*
G01*
%TO.C,U$2*%
X21231100Y-74130600D02*
X21231100Y-78067600D01*
X21231100Y-74130600D02*
X16405100Y-74130600D01*
X15008100Y-76289600D02*
X8531100Y-76289600D01*
X8531100Y-79972600D02*
X19707100Y-79972600D01*
X8531100Y-79972600D02*
X8531100Y-76289600D01*
X19707100Y-79972599D02*
G75*
G03*
X21231099Y-78067600I-190500J1714499D01*
G01*
X15008099Y-76289601D02*
G75*
G03*
X16405100Y-74511600I-190499J1587500D01*
G01*
%TO.C,U$4*%
X49587100Y-71404600D02*
X49587100Y-75341600D01*
X49587100Y-71404600D02*
X44761100Y-71404600D01*
X43364100Y-73563600D02*
X36887100Y-73563600D01*
X36887100Y-77246600D02*
X48063100Y-77246600D01*
X36887100Y-77246600D02*
X36887100Y-73563600D01*
X48063100Y-77246599D02*
G75*
G03*
X49587099Y-75341600I-190500J1714499D01*
G01*
X43364099Y-73563601D02*
G75*
G03*
X44761100Y-71785600I-190499J1587500D01*
G01*
%TO.C,U$7*%
X105806100Y-166087600D02*
X105806100Y-170024600D01*
X105806100Y-166087600D02*
X100980100Y-166087600D01*
X99583100Y-168246600D02*
X93106100Y-168246600D01*
X93106100Y-171929600D02*
X104282100Y-171929600D01*
X93106100Y-171929600D02*
X93106100Y-168246600D01*
X104282100Y-171929599D02*
G75*
G03*
X105806099Y-170024600I-190500J1714499D01*
G01*
X99583099Y-168246601D02*
G75*
G03*
X100980100Y-166468600I-190499J1587500D01*
G01*
%TO.C,U$19*%
X250595100Y-134903600D02*
X250595100Y-138840600D01*
X250595100Y-134903600D02*
X245769100Y-134903600D01*
X244372100Y-137062600D02*
X237895100Y-137062600D01*
X237895100Y-140745600D02*
X249071100Y-140745600D01*
X237895100Y-140745600D02*
X237895100Y-137062600D01*
X249071100Y-140745599D02*
G75*
G03*
X250595099Y-138840600I-190500J1714499D01*
G01*
X244372099Y-137062601D02*
G75*
G03*
X245769100Y-135284600I-190499J1587500D01*
G01*
%TO.C,U$5*%
X76159100Y-83167600D02*
X76159100Y-87104600D01*
X76159100Y-83167600D02*
X71333100Y-83167600D01*
X69936100Y-85326600D02*
X63459100Y-85326600D01*
X63459100Y-89009600D02*
X74635100Y-89009600D01*
X63459100Y-89009600D02*
X63459100Y-85326600D01*
X74635100Y-89009599D02*
G75*
G03*
X76159099Y-87104600I-190500J1714499D01*
G01*
X69936099Y-85326601D02*
G75*
G03*
X71333100Y-83548600I-190499J1587500D01*
G01*
%TO.C,U$18*%
X205251100Y-134903600D02*
X205251100Y-138840600D01*
X205251100Y-134903600D02*
X200425100Y-134903600D01*
X199028100Y-137062600D02*
X192551100Y-137062600D01*
X192551100Y-140745600D02*
X203727100Y-140745600D01*
X192551100Y-140745600D02*
X192551100Y-137062600D01*
X203727100Y-140745599D02*
G75*
G03*
X205251099Y-138840600I-190500J1714499D01*
G01*
X199028099Y-137062601D02*
G75*
G03*
X200425100Y-135284600I-190499J1587500D01*
G01*
%TO.C,U$16*%
X316049100Y-89809600D02*
X316049100Y-93746600D01*
X316049100Y-89809600D02*
X311223100Y-89809600D01*
X309826100Y-91968600D02*
X303349100Y-91968600D01*
X303349100Y-95651600D02*
X314525100Y-95651600D01*
X303349100Y-95651600D02*
X303349100Y-91968600D01*
X314525100Y-95651599D02*
G75*
G03*
X316049099Y-93746600I-190500J1714499D01*
G01*
X309826099Y-91968601D02*
G75*
G03*
X311223100Y-90190600I-190499J1587500D01*
G01*
%TO.C,U$12*%
X316049100Y-62199600D02*
X316049100Y-66136600D01*
X316049100Y-62199600D02*
X311223100Y-62199600D01*
X309826100Y-64358600D02*
X303349100Y-64358600D01*
X303349100Y-68041600D02*
X314525100Y-68041600D01*
X303349100Y-68041600D02*
X303349100Y-64358600D01*
X314525100Y-68041599D02*
G75*
G03*
X316049099Y-66136600I-190500J1714499D01*
G01*
X309826099Y-64358601D02*
G75*
G03*
X311223100Y-62580600I-190499J1587500D01*
G01*
%TO.C,U$9*%
X234953100Y-55184600D02*
X234953100Y-59121600D01*
X234953100Y-55184600D02*
X230127100Y-55184600D01*
X228730100Y-57343600D02*
X222253100Y-57343600D01*
X222253100Y-61026600D02*
X233429100Y-61026600D01*
X222253100Y-61026600D02*
X222253100Y-57343600D01*
X233429100Y-61026599D02*
G75*
G03*
X234953099Y-59121600I-190500J1714499D01*
G01*
X228730099Y-57343601D02*
G75*
G03*
X230127100Y-55565600I-190499J1587500D01*
G01*
%TO.C,U$23*%
X180891100Y-83167600D02*
X180891100Y-87104600D01*
X180891100Y-83167600D02*
X176065100Y-83167600D01*
X174668100Y-85326600D02*
X168191100Y-85326600D01*
X168191100Y-89009600D02*
X179367100Y-89009600D01*
X168191100Y-89009600D02*
X168191100Y-85326600D01*
X179367100Y-89009599D02*
G75*
G03*
X180891099Y-87104600I-190500J1714499D01*
G01*
X174668099Y-85326601D02*
G75*
G03*
X176065100Y-83548600I-190499J1587500D01*
G01*
%TO.C,U$14*%
X261471100Y-70798600D02*
X261471100Y-74735600D01*
X261471100Y-70798600D02*
X256645100Y-70798600D01*
X255248100Y-72957600D02*
X248771100Y-72957600D01*
X248771100Y-76640600D02*
X259947100Y-76640600D01*
X248771100Y-76640600D02*
X248771100Y-72957600D01*
X259947100Y-76640599D02*
G75*
G03*
X261471099Y-74735600I-190500J1714499D01*
G01*
X255248099Y-72957601D02*
G75*
G03*
X256645100Y-71179600I-190499J1587500D01*
G01*
%TO.C,U$22*%
X130891100Y-83167600D02*
X130891100Y-87104600D01*
X130891100Y-83167600D02*
X126065100Y-83167600D01*
X124668100Y-85326600D02*
X118191100Y-85326600D01*
X118191100Y-89009600D02*
X129367100Y-89009600D01*
X118191100Y-89009600D02*
X118191100Y-85326600D01*
X129367100Y-89009599D02*
G75*
G03*
X130891099Y-87104600I-190500J1714499D01*
G01*
X124668099Y-85326601D02*
G75*
G03*
X126065100Y-83548600I-190499J1587500D01*
G01*
%TO.C,U$8*%
X155891100Y-83167600D02*
X155891100Y-87104600D01*
X155891100Y-83167600D02*
X151065100Y-83167600D01*
X149668100Y-85326600D02*
X143191100Y-85326600D01*
X143191100Y-89009600D02*
X154367100Y-89009600D01*
X143191100Y-89009600D02*
X143191100Y-85326600D01*
X154367100Y-89009599D02*
G75*
G03*
X155891099Y-87104600I-190500J1714499D01*
G01*
X149668099Y-85326601D02*
G75*
G03*
X151065100Y-83548600I-190499J1587500D01*
G01*
%TD*%
%LPC*%
D13*
%TO.C,J4*%
X142745064Y-111563599D03*
X142745064Y-109023599D03*
X142745064Y-106483599D03*
X142745064Y-103943599D03*
%TD*%
D14*
%TO.C,U$15*%
X287921100Y-72757600D03*
D15*
X286651100Y-75297600D03*
D16*
X282841100Y-72757600D03*
D15*
X280301100Y-77837600D03*
D14*
X277761100Y-72757600D03*
D17*
X279031100Y-70217600D03*
X285381100Y-67677600D03*
D18*
X291096100Y-75297600D03*
X275856100Y-77837600D03*
%TD*%
D19*
%TO.C,JP11*%
X264501100Y-79753600D03*
%TD*%
D14*
%TO.C,U$11*%
X287921100Y-45147600D03*
D15*
X286651100Y-47687600D03*
D16*
X282841100Y-45147600D03*
D15*
X280301100Y-50227600D03*
D14*
X277761100Y-45147600D03*
D17*
X279031100Y-42607600D03*
X285381100Y-40067600D03*
D18*
X291096100Y-47687600D03*
X275856100Y-50227600D03*
%TD*%
D19*
%TO.C,JP1*%
X55880000Y-48260000D03*
%TD*%
%TO.C,JP10*%
X238501100Y-87753600D03*
%TD*%
D14*
%TO.C,U$17*%
X226033100Y-118117600D03*
D15*
X224763100Y-120657600D03*
D16*
X220953100Y-118117600D03*
D15*
X218413100Y-123197600D03*
D14*
X215873100Y-118117600D03*
D17*
X217143100Y-115577600D03*
X223493100Y-113037600D03*
D18*
X229208100Y-120657600D03*
X213968100Y-123197600D03*
%TD*%
D19*
%TO.C,JP5*%
X81501100Y-88753600D03*
%TD*%
D14*
%TO.C,U$6*%
X81213100Y-149302600D03*
D15*
X79943100Y-151842600D03*
D16*
X76133100Y-149302600D03*
D15*
X73593100Y-154382600D03*
D14*
X71053100Y-149302600D03*
D17*
X72323100Y-146762600D03*
X78673100Y-144222600D03*
D18*
X84388100Y-151842600D03*
X69148100Y-154382600D03*
%TD*%
D20*
%TO.C,D1*%
X151881099Y-65753599D03*
X167121099Y-65753599D03*
%TD*%
D21*
%TO.C,@HOLE11*%
X174501100Y-45253600D03*
%TD*%
D22*
%TO.C,@HOLE8*%
X184501100Y-71753600D03*
%TD*%
D15*
%TO.C,@HOLE0*%
X68501100Y-166753600D03*
%TD*%
D14*
%TO.C,U$20*%
X226033100Y-149302600D03*
D15*
X224763100Y-151842600D03*
D16*
X220953100Y-149302600D03*
D15*
X218413100Y-154382600D03*
D14*
X215873100Y-149302600D03*
D17*
X217143100Y-146762600D03*
X223493100Y-144222600D03*
D18*
X229208100Y-151842600D03*
X213968100Y-154382600D03*
%TD*%
D19*
%TO.C,JP18*%
X211501100Y-133753600D03*
%TD*%
D22*
%TO.C,@HOLE9*%
X136501100Y-160753600D03*
%TD*%
D19*
%TO.C,JP23*%
X182880000Y-93980000D03*
%TD*%
D14*
%TO.C,U$10*%
X259566100Y-42172600D03*
D15*
X258296100Y-44712600D03*
D16*
X254486100Y-42172600D03*
D15*
X251946100Y-47252600D03*
D14*
X249406100Y-42172600D03*
D17*
X250676100Y-39632600D03*
X257026100Y-37092600D03*
D18*
X262741100Y-44712600D03*
X247501100Y-47252600D03*
%TD*%
D19*
%TO.C,JP6*%
X86501100Y-158753600D03*
%TD*%
D23*
%TO.C,@HOLE14*%
X122501100Y-131553600D03*
%TD*%
D19*
%TO.C,JP14*%
X311501100Y-72753600D03*
%TD*%
%TO.C,JP4*%
X54501100Y-78753600D03*
%TD*%
D14*
%TO.C,U$3*%
X47682100Y-42888600D03*
D15*
X46412100Y-45428600D03*
D16*
X42602100Y-42888600D03*
D15*
X40062100Y-47968600D03*
D14*
X37522100Y-42888600D03*
D17*
X38792100Y-40348600D03*
X45142100Y-37808600D03*
D18*
X50857100Y-45428600D03*
X35617100Y-47968600D03*
%TD*%
D14*
%TO.C,U$13*%
X233048100Y-81777600D03*
D15*
X231778100Y-84317600D03*
D16*
X227968100Y-81777600D03*
D15*
X225428100Y-86857600D03*
D14*
X222888100Y-81777600D03*
D17*
X224158100Y-79237600D03*
X230508100Y-76697600D03*
D18*
X236223100Y-84317600D03*
X220983100Y-86857600D03*
%TD*%
D19*
%TO.C,JP9*%
X241501100Y-60753600D03*
%TD*%
D24*
%TO.C,J2*%
X151168981Y-34593600D03*
X143818981Y-34593600D03*
D25*
X144768981Y-33943600D03*
X145168981Y-33243600D03*
X145968981Y-33243600D03*
X146368981Y-33943600D03*
X146768981Y-33243600D03*
X147168981Y-33943600D03*
X147968981Y-33943600D03*
X148368981Y-33243600D03*
X148768981Y-33943600D03*
X149168981Y-33243600D03*
X149968981Y-33243600D03*
X150368981Y-33943600D03*
D26*
X151698980Y-33343599D03*
X143438980Y-33343599D03*
X152058980Y-28953599D03*
X143078980Y-28953599D03*
%TD*%
D14*
%TO.C,U$1*%
X-5953900Y-89417600D03*
D15*
X-7223900Y-91957600D03*
D16*
X-11033900Y-89417600D03*
D15*
X-13573900Y-94497600D03*
D14*
X-16113900Y-89417600D03*
D17*
X-14843900Y-86877600D03*
X-8493900Y-84337600D03*
D18*
X-2778900Y-91957600D03*
X-18018900Y-94497600D03*
%TD*%
D14*
%TO.C,U$21*%
X203346100Y-165072600D03*
D15*
X202076100Y-167612600D03*
D16*
X198266100Y-165072600D03*
D15*
X195726100Y-170152600D03*
D14*
X193186100Y-165072600D03*
D17*
X194456100Y-162532600D03*
X200806100Y-159992600D03*
D18*
X206521100Y-167612600D03*
X191281100Y-170152600D03*
%TD*%
D19*
%TO.C,JP16*%
X291501100Y-83753600D03*
%TD*%
D14*
%TO.C,U$2*%
X19326100Y-73114600D03*
D15*
X18056100Y-75654600D03*
D16*
X14246100Y-73114600D03*
D15*
X11706100Y-78194600D03*
D14*
X9166100Y-73114600D03*
D17*
X10436100Y-70574600D03*
X16786100Y-68034600D03*
D18*
X22501100Y-75654600D03*
X7261100Y-78194600D03*
%TD*%
D14*
%TO.C,U$4*%
X47682100Y-70388600D03*
D15*
X46412100Y-72928600D03*
D16*
X42602100Y-70388600D03*
D15*
X40062100Y-75468600D03*
D14*
X37522100Y-70388600D03*
D17*
X38792100Y-67848600D03*
X45142100Y-65308600D03*
D18*
X50857100Y-72928600D03*
X35617100Y-75468600D03*
%TD*%
D21*
%TO.C,@HOLE13*%
X20320000Y-43453600D03*
%TD*%
D15*
%TO.C,@HOLE1*%
X284501100Y-147753600D03*
%TD*%
D19*
%TO.C,JP20*%
X235501100Y-150753600D03*
%TD*%
D14*
%TO.C,U$7*%
X103901100Y-165071600D03*
D15*
X102631100Y-167611600D03*
D16*
X98821100Y-165071600D03*
D15*
X96281100Y-170151600D03*
D14*
X93741100Y-165071600D03*
D17*
X95011100Y-162531600D03*
X101361100Y-159991600D03*
D18*
X107076100Y-167611600D03*
X91836100Y-170151600D03*
%TD*%
D19*
%TO.C,JP13*%
X294501100Y-54753600D03*
%TD*%
D14*
%TO.C,U$19*%
X248690100Y-133887600D03*
D15*
X247420100Y-136427600D03*
D16*
X243610100Y-133887600D03*
D15*
X241070100Y-138967600D03*
D14*
X238530100Y-133887600D03*
D17*
X239800100Y-131347600D03*
X246150100Y-128807600D03*
D18*
X251865100Y-136427600D03*
X236625100Y-138967600D03*
%TD*%
D19*
%TO.C,JP17*%
X236501100Y-125753600D03*
%TD*%
%TO.C,JP12*%
X268501100Y-39753600D03*
%TD*%
D15*
%TO.C,@HOLE2*%
X-19498900Y-154753600D03*
%TD*%
D27*
%TO.C,J1*%
X21801100Y-128253600D03*
X21801100Y-175253600D03*
D28*
X24776100Y-127753600D03*
X25076100Y-130783600D03*
X29926100Y-130783600D03*
X30226100Y-127753600D03*
D27*
X33201100Y-128253600D03*
X33201100Y-175253600D03*
D29*
X37191099Y-137783599D03*
X37191099Y-135243599D03*
X37191099Y-140323599D03*
X37191099Y-145403599D03*
X17811099Y-132703599D03*
X17811099Y-145403599D03*
X17811099Y-158103599D03*
X17811099Y-170803599D03*
D30*
X27501099Y-176453599D03*
D29*
X37191099Y-170803599D03*
X37191099Y-158103599D03*
X37191099Y-132703599D03*
X17811099Y-127623599D03*
X17811099Y-130163599D03*
X17811099Y-135243599D03*
X17811099Y-137783599D03*
X17811099Y-140323599D03*
X17811099Y-142863599D03*
X17811099Y-147943599D03*
X17811099Y-150483599D03*
X17811099Y-153023599D03*
X17811099Y-155563599D03*
X17811099Y-160643599D03*
X17811099Y-163183599D03*
X17811099Y-165723599D03*
X17811099Y-168263599D03*
X17811099Y-173343599D03*
X17811099Y-175883599D03*
X37191099Y-175883599D03*
X37191099Y-173343599D03*
X37191099Y-168263599D03*
X37191099Y-165723599D03*
X37191099Y-163183599D03*
X37191099Y-160643599D03*
X37191099Y-155563599D03*
X37191099Y-150483599D03*
X37191099Y-147943599D03*
X37191099Y-142863599D03*
X37191099Y-153023599D03*
D30*
X24961099Y-176453599D03*
X30041099Y-176453599D03*
D31*
X28501100Y-127453600D03*
X26501100Y-127453600D03*
D29*
X37191099Y-127623599D03*
X37191099Y-130163599D03*
%TD*%
D19*
%TO.C,JP15*%
X313501100Y-100753600D03*
%TD*%
D15*
%TO.C,@HOLE10*%
X119501100Y-59753600D03*
%TD*%
D21*
%TO.C,@HOLE15*%
X256501100Y-161753600D03*
%TD*%
D22*
%TO.C,@HOLE6*%
X-13498900Y-143753600D03*
%TD*%
D15*
%TO.C,@HOLE16*%
X71501100Y-125753600D03*
%TD*%
D14*
%TO.C,U$5*%
X74254100Y-82151600D03*
D15*
X72984100Y-84691600D03*
D16*
X69174100Y-82151600D03*
D15*
X66634100Y-87231600D03*
D14*
X64094100Y-82151600D03*
D17*
X65364100Y-79611600D03*
X71714100Y-77071600D03*
D18*
X77429100Y-84691600D03*
X62189100Y-87231600D03*
%TD*%
D14*
%TO.C,U$18*%
X203346100Y-133887600D03*
D15*
X202076100Y-136427600D03*
D16*
X198266100Y-133887600D03*
D15*
X195726100Y-138967600D03*
D14*
X193186100Y-133887600D03*
D17*
X194456100Y-131347600D03*
X200806100Y-128807600D03*
D18*
X206521100Y-136427600D03*
X191281100Y-138967600D03*
%TD*%
D15*
%TO.C,@HOLE3*%
X182501100Y-126753600D03*
%TD*%
D21*
%TO.C,@HOLE12*%
X-11098900Y-108953600D03*
%TD*%
D14*
%TO.C,U$16*%
X314144100Y-88793600D03*
D15*
X312874100Y-91333600D03*
D16*
X309064100Y-88793600D03*
D15*
X306524100Y-93873600D03*
D14*
X303984100Y-88793600D03*
D17*
X305254100Y-86253600D03*
X311604100Y-83713600D03*
D18*
X317319100Y-91333600D03*
X302079100Y-93873600D03*
%TD*%
D22*
%TO.C,@HOLE4*%
X268501100Y-54753600D03*
%TD*%
D19*
%TO.C,JP7*%
X112501100Y-161753600D03*
%TD*%
D24*
%TO.C,J5*%
X122579393Y-105081075D03*
X122579393Y-110861075D03*
D32*
X123079392Y-103651074D03*
D33*
X118899392Y-103651074D03*
D32*
X123079392Y-112291074D03*
D33*
X118899392Y-112291074D03*
%TD*%
D19*
%TO.C,JP2*%
X2501100Y-96753600D03*
%TD*%
%TO.C,JP8*%
X156501100Y-94753600D03*
%TD*%
D14*
%TO.C,U$12*%
X314144100Y-61183600D03*
D15*
X312874100Y-63723600D03*
D16*
X309064100Y-61183600D03*
D15*
X306524100Y-66263600D03*
D14*
X303984100Y-61183600D03*
D17*
X305254100Y-58643600D03*
X311604100Y-56103600D03*
D18*
X317319100Y-63723600D03*
X302079100Y-66263600D03*
%TD*%
D14*
%TO.C,U$9*%
X233048100Y-54168600D03*
D15*
X231778100Y-56708600D03*
D16*
X227968100Y-54168600D03*
D15*
X225428100Y-59248600D03*
D14*
X222888100Y-54168600D03*
D17*
X224158100Y-51628600D03*
X230508100Y-49088600D03*
D18*
X236223100Y-56708600D03*
X220983100Y-59248600D03*
%TD*%
D14*
%TO.C,U$23*%
X178986100Y-82151600D03*
D15*
X177716100Y-84691600D03*
D16*
X173906100Y-82151600D03*
D15*
X171366100Y-87231600D03*
D14*
X168826100Y-82151600D03*
D17*
X170096100Y-79611600D03*
X176446100Y-77071600D03*
D18*
X182161100Y-84691600D03*
X166921100Y-87231600D03*
%TD*%
D19*
%TO.C,JP21*%
X183501100Y-171753600D03*
%TD*%
D14*
%TO.C,U$14*%
X259566100Y-69782600D03*
D15*
X258296100Y-72322600D03*
D16*
X254486100Y-69782600D03*
D15*
X251946100Y-74862600D03*
D14*
X249406100Y-69782600D03*
D17*
X250676100Y-67242600D03*
X257026100Y-64702600D03*
D18*
X262741100Y-72322600D03*
X247501100Y-74862600D03*
%TD*%
D19*
%TO.C,JP19*%
X257501100Y-141753600D03*
%TD*%
D34*
%TO.C,J3*%
X162151099Y-32753599D03*
X164691099Y-32753599D03*
X167231099Y-32753599D03*
X169771099Y-32753599D03*
X172311099Y-32753599D03*
X174851099Y-32753599D03*
%TD*%
D22*
%TO.C,@HOLE5*%
X276501100Y-158753600D03*
%TD*%
D19*
%TO.C,JP22*%
X132080000Y-71120000D03*
%TD*%
D22*
%TO.C,@HOLE7*%
X65501100Y-43180000D03*
%TD*%
D14*
%TO.C,U$22*%
X128986100Y-82151600D03*
D15*
X127716100Y-84691600D03*
D16*
X123906100Y-82151600D03*
D15*
X121366100Y-87231600D03*
D14*
X118826100Y-82151600D03*
D17*
X120096100Y-79611600D03*
X126446100Y-77071600D03*
D18*
X132161100Y-84691600D03*
X116921100Y-87231600D03*
%TD*%
D19*
%TO.C,JP3*%
X17501100Y-85753600D03*
%TD*%
D14*
%TO.C,U$8*%
X153986100Y-82151600D03*
D15*
X152716100Y-84691600D03*
D16*
X148906100Y-82151600D03*
D15*
X146366100Y-87231600D03*
D14*
X143826100Y-82151600D03*
D17*
X145096100Y-79611600D03*
X151446100Y-77071600D03*
D18*
X157161100Y-84691600D03*
X141921100Y-87231600D03*
%TD*%
M02*
