%TF.GenerationSoftware,KiCad,Pcbnew,(7.0.0)*%
%TF.CreationDate,2023-02-14T15:50:17+01:00*%
%TF.ProjectId,OF1 v1,4f463120-7631-42e6-9b69-6361645f7063,rev?*%
%TF.SameCoordinates,Original*%
%TF.FileFunction,Paste,Bot*%
%TF.FilePolarity,Positive*%
%FSLAX46Y46*%
G04 Gerber Fmt 4.6, Leading zero omitted, Abs format (unit mm)*
G04 Created by KiCad (PCBNEW (7.0.0)) date 2023-02-14 15:50:17*
%MOMM*%
%LPD*%
G01*
G04 APERTURE LIST*
%ADD10R,2.550000X2.500000*%
G04 APERTURE END LIST*
D10*
%TO.C,U$15*%
X291096099Y-75297599D03*
X275856099Y-77837599D03*
%TD*%
%TO.C,U$11*%
X291096099Y-47687599D03*
X275856099Y-50227599D03*
%TD*%
%TO.C,U$17*%
X229208099Y-120657599D03*
X213968099Y-123197599D03*
%TD*%
%TO.C,U$6*%
X84388099Y-151842599D03*
X69148099Y-154382599D03*
%TD*%
%TO.C,U$20*%
X229208099Y-151842599D03*
X213968099Y-154382599D03*
%TD*%
%TO.C,U$10*%
X262741099Y-44712599D03*
X247501099Y-47252599D03*
%TD*%
%TO.C,U$3*%
X50857099Y-45428599D03*
X35617099Y-47968599D03*
%TD*%
%TO.C,U$13*%
X236223099Y-84317599D03*
X220983099Y-86857599D03*
%TD*%
%TO.C,U$1*%
X-2778899Y-91957599D03*
X-18018899Y-94497599D03*
%TD*%
%TO.C,U$21*%
X206521099Y-167612599D03*
X191281099Y-170152599D03*
%TD*%
%TO.C,U$2*%
X22501099Y-75654599D03*
X7261099Y-78194599D03*
%TD*%
%TO.C,U$4*%
X50857099Y-72928599D03*
X35617099Y-75468599D03*
%TD*%
%TO.C,U$7*%
X107076099Y-167611599D03*
X91836099Y-170151599D03*
%TD*%
%TO.C,U$19*%
X251865099Y-136427599D03*
X236625099Y-138967599D03*
%TD*%
%TO.C,U$5*%
X77429099Y-84691599D03*
X62189099Y-87231599D03*
%TD*%
%TO.C,U$18*%
X206521099Y-136427599D03*
X191281099Y-138967599D03*
%TD*%
%TO.C,U$16*%
X317319099Y-91333599D03*
X302079099Y-93873599D03*
%TD*%
%TO.C,U$12*%
X317319099Y-63723599D03*
X302079099Y-66263599D03*
%TD*%
%TO.C,U$9*%
X236223099Y-56708599D03*
X220983099Y-59248599D03*
%TD*%
%TO.C,U$23*%
X182161099Y-84691599D03*
X166921099Y-87231599D03*
%TD*%
%TO.C,U$14*%
X262741099Y-72322599D03*
X247501099Y-74862599D03*
%TD*%
%TO.C,U$22*%
X132161099Y-84691599D03*
X116921099Y-87231599D03*
%TD*%
%TO.C,U$8*%
X157161099Y-84691599D03*
X141921099Y-87231599D03*
%TD*%
M02*
