M48
; DRILL file {KiCad (6.0.5)} date Sat Jun 18 14:07:18 2022
; FORMAT={-:-/ absolute / metric / decimal}
; #@! TF.CreationDate,2022-06-18T14:07:18-07:00
; #@! TF.GenerationSoftware,Kicad,Pcbnew,(6.0.5)
; #@! TF.FileFunction,NonPlated,1,2,NPTH
FMAT,2
METRIC
; #@! TA.AperFunction,NonPlated,NPTH,ComponentDrill
T1C0.650
; #@! TA.AperFunction,NonPlated,NPTH,ComponentDrill
T2C1.500
; #@! TA.AperFunction,NonPlated,NPTH,ComponentDrill
T3C1.702
; #@! TA.AperFunction,NonPlated,NPTH,ComponentDrill
T4C2.100
; #@! TA.AperFunction,NonPlated,NPTH,ComponentDrill
T5C3.000
; #@! TA.AperFunction,NonPlated,NPTH,ComponentDrill
T6C3.988
; #@! TA.AperFunction,NonPlated,NPTH,ComponentDrill
T7C8.000
; #@! TA.AperFunction,NonPlated,NPTH,ComponentDrill
T8C8.500
; #@! TA.AperFunction,NonPlated,NPTH,ComponentDrill
T9C9.000
%
G90
G05
T1
X122.579Y-105.081
X122.579Y-110.861
X143.819Y-34.594
X151.169Y-34.594
T2
X24.776Y-127.754
X25.076Y-130.784
X29.926Y-130.784
X30.226Y-127.754
T3
X-16.114Y-89.418
X-5.954Y-89.418
X9.166Y-73.115
X19.326Y-73.115
X37.522Y-70.389
X47.682Y-70.389
X64.094Y-82.152
X71.053Y-149.303
X74.254Y-82.152
X81.213Y-149.303
X93.741Y-165.072
X103.901Y-165.072
X143.826Y-82.152
X153.986Y-82.152
X193.186Y-133.888
X193.186Y-165.073
X203.346Y-133.888
X203.346Y-165.073
X215.873Y-118.118
X215.873Y-149.303
X222.888Y-54.169
X222.888Y-81.778
X226.033Y-118.118
X226.033Y-149.303
X233.048Y-54.169
X233.048Y-81.778
X238.53Y-133.888
X248.69Y-133.888
X249.406Y-42.173
X249.406Y-69.783
X259.566Y-42.173
X259.566Y-69.783
X277.761Y-45.148
X277.761Y-72.758
X287.921Y-45.148
X287.921Y-72.758
X303.984Y-61.184
X303.984Y-88.794
X314.144Y-61.184
X314.144Y-88.794
T4
X21.801Y-128.254
X21.801Y-175.254
X33.201Y-128.254
X33.201Y-175.254
T5
X-19.499Y-154.754
X-13.574Y-94.498
X-7.224Y-91.958
X11.706Y-78.195
X18.056Y-75.655
X40.062Y-75.469
X46.412Y-72.929
X66.634Y-87.232
X68.501Y-166.754
X71.501Y-125.754
X72.984Y-84.692
X73.593Y-154.383
X79.943Y-151.843
X96.281Y-170.152
X102.631Y-167.612
X119.501Y-59.754
X146.366Y-87.232
X152.716Y-84.692
X182.501Y-126.754
X195.726Y-138.968
X195.726Y-170.153
X202.076Y-136.428
X202.076Y-167.613
X218.413Y-123.198
X218.413Y-154.383
X224.763Y-120.658
X224.763Y-151.843
X225.428Y-59.249
X225.428Y-86.858
X231.778Y-56.709
X231.778Y-84.318
X241.07Y-138.968
X247.42Y-136.428
X251.946Y-47.253
X251.946Y-74.863
X258.296Y-44.713
X258.296Y-72.323
X280.301Y-50.228
X280.301Y-77.838
X284.501Y-147.754
X286.651Y-47.688
X286.651Y-75.298
X306.524Y-66.264
X306.524Y-93.874
X312.874Y-63.724
X312.874Y-91.334
T6
X-11.034Y-89.418
X14.246Y-73.115
X42.602Y-70.389
X69.174Y-82.152
X76.133Y-149.303
X98.821Y-165.072
X148.906Y-82.152
X198.266Y-133.888
X198.266Y-165.073
X220.953Y-118.118
X220.953Y-149.303
X227.968Y-54.169
X227.968Y-81.778
X243.61Y-133.888
X254.486Y-42.173
X254.486Y-69.783
X282.841Y-45.148
X282.841Y-72.758
X309.064Y-61.184
X309.064Y-88.794
T7
X-13.499Y-143.754
X65.501Y-49.754
X136.501Y-160.754
X184.501Y-71.754
X268.501Y-54.754
X276.501Y-158.754
T8
X122.501Y-131.554
T9
X-11.099Y-108.954
X30.301Y-43.454
X174.501Y-45.254
X256.501Y-161.754
T0
M30
