%TF.GenerationSoftware,KiCad,Pcbnew,(6.0.5)*%
%TF.CreationDate,2022-06-18T14:01:59-07:00*%
%TF.ProjectId,OF1 v1,4f463120-7631-42e6-9b69-6361645f7063,rev?*%
%TF.SameCoordinates,Original*%
%TF.FileFunction,Legend,Bot*%
%TF.FilePolarity,Positive*%
%FSLAX46Y46*%
G04 Gerber Fmt 4.6, Leading zero omitted, Abs format (unit mm)*
G04 Created by KiCad (PCBNEW (6.0.5)) date 2022-06-18 14:01:59*
%MOMM*%
%LPD*%
G01*
G04 APERTURE LIST*
%ADD10C,0.142240*%
%ADD11C,0.127000*%
G04 APERTURE END LIST*
D10*
X307707604Y-170039946D02*
X307396030Y-170039946D01*
X307240244Y-170117840D01*
X307084457Y-170273626D01*
X307006564Y-170585200D01*
X307006564Y-171130453D01*
X307084457Y-171442026D01*
X307240244Y-171597813D01*
X307396030Y-171675706D01*
X307707604Y-171675706D01*
X307863390Y-171597813D01*
X308019177Y-171442026D01*
X308097070Y-171130453D01*
X308097070Y-170585200D01*
X308019177Y-170273626D01*
X307863390Y-170117840D01*
X307707604Y-170039946D01*
X305760270Y-170818880D02*
X306305524Y-170818880D01*
X306305524Y-171675706D02*
X306305524Y-170039946D01*
X305526590Y-170039946D01*
X304046617Y-171675706D02*
X304981337Y-171675706D01*
X304513977Y-171675706D02*
X304513977Y-170039946D01*
X304669764Y-170273626D01*
X304825550Y-170429413D01*
X304981337Y-170507306D01*
X302255070Y-170585200D02*
X301865604Y-171675706D01*
X301476137Y-170585200D01*
X299996164Y-171675706D02*
X300930884Y-171675706D01*
X300463524Y-171675706D02*
X300463524Y-170039946D01*
X300619310Y-170273626D01*
X300775097Y-170429413D01*
X300930884Y-170507306D01*
D11*
%TO.C,U$1*%
X-5572900Y-96275600D02*
G75*
G03*
X-4048900Y-94370600I-190500J1714500D01*
G01*
X-4048900Y-90433600D02*
X-4048900Y-94370600D01*
X-10271900Y-92592600D02*
X-16748900Y-92592600D01*
X-10271901Y-92592601D02*
G75*
G03*
X-8874900Y-90814600I-190500J1587501D01*
G01*
X-4048900Y-90433600D02*
X-8874900Y-90433600D01*
X-16748900Y-96275600D02*
X-5572900Y-96275600D01*
X-16748900Y-96275600D02*
X-16748900Y-92592600D01*
%TO.C,U$10*%
X259947100Y-49030600D02*
G75*
G03*
X261471100Y-47125600I-190500J1714500D01*
G01*
X261471100Y-43188600D02*
X261471100Y-47125600D01*
X255248100Y-45347600D02*
X248771100Y-45347600D01*
X255248099Y-45347601D02*
G75*
G03*
X256645100Y-43569600I-190500J1587501D01*
G01*
X261471100Y-43188600D02*
X256645100Y-43188600D01*
X248771100Y-49030600D02*
X259947100Y-49030600D01*
X248771100Y-49030600D02*
X248771100Y-45347600D01*
%TO.C,U$11*%
X288302100Y-52005600D02*
G75*
G03*
X289826100Y-50100600I-190500J1714500D01*
G01*
X289826100Y-46163600D02*
X289826100Y-50100600D01*
X283603100Y-48322600D02*
X277126100Y-48322600D01*
X283603099Y-48322601D02*
G75*
G03*
X285000100Y-46544600I-190500J1587501D01*
G01*
X289826100Y-46163600D02*
X285000100Y-46163600D01*
X277126100Y-52005600D02*
X288302100Y-52005600D01*
X277126100Y-52005600D02*
X277126100Y-48322600D01*
%TO.C,U$12*%
X314525100Y-68041600D02*
G75*
G03*
X316049100Y-66136600I-190500J1714500D01*
G01*
X316049100Y-62199600D02*
X316049100Y-66136600D01*
X309826100Y-64358600D02*
X303349100Y-64358600D01*
X309826099Y-64358601D02*
G75*
G03*
X311223100Y-62580600I-190500J1587501D01*
G01*
X316049100Y-62199600D02*
X311223100Y-62199600D01*
X303349100Y-68041600D02*
X314525100Y-68041600D01*
X303349100Y-68041600D02*
X303349100Y-64358600D01*
%TO.C,U$13*%
X233429100Y-88635600D02*
G75*
G03*
X234953100Y-86730600I-190500J1714500D01*
G01*
X234953100Y-82793600D02*
X234953100Y-86730600D01*
X228730100Y-84952600D02*
X222253100Y-84952600D01*
X228730099Y-84952601D02*
G75*
G03*
X230127100Y-83174600I-190500J1587501D01*
G01*
X234953100Y-82793600D02*
X230127100Y-82793600D01*
X222253100Y-88635600D02*
X233429100Y-88635600D01*
X222253100Y-88635600D02*
X222253100Y-84952600D01*
%TO.C,U$14*%
X259947100Y-76640600D02*
G75*
G03*
X261471100Y-74735600I-190500J1714500D01*
G01*
X261471100Y-70798600D02*
X261471100Y-74735600D01*
X255248100Y-72957600D02*
X248771100Y-72957600D01*
X255248099Y-72957601D02*
G75*
G03*
X256645100Y-71179600I-190500J1587501D01*
G01*
X261471100Y-70798600D02*
X256645100Y-70798600D01*
X248771100Y-76640600D02*
X259947100Y-76640600D01*
X248771100Y-76640600D02*
X248771100Y-72957600D01*
%TO.C,U$15*%
X288302100Y-79615600D02*
G75*
G03*
X289826100Y-77710600I-190500J1714500D01*
G01*
X289826100Y-73773600D02*
X289826100Y-77710600D01*
X283603100Y-75932600D02*
X277126100Y-75932600D01*
X283603099Y-75932601D02*
G75*
G03*
X285000100Y-74154600I-190500J1587501D01*
G01*
X289826100Y-73773600D02*
X285000100Y-73773600D01*
X277126100Y-79615600D02*
X288302100Y-79615600D01*
X277126100Y-79615600D02*
X277126100Y-75932600D01*
%TO.C,U$16*%
X314525100Y-95651600D02*
G75*
G03*
X316049100Y-93746600I-190500J1714500D01*
G01*
X316049100Y-89809600D02*
X316049100Y-93746600D01*
X309826100Y-91968600D02*
X303349100Y-91968600D01*
X309826099Y-91968601D02*
G75*
G03*
X311223100Y-90190600I-190500J1587501D01*
G01*
X316049100Y-89809600D02*
X311223100Y-89809600D01*
X303349100Y-95651600D02*
X314525100Y-95651600D01*
X303349100Y-95651600D02*
X303349100Y-91968600D01*
%TO.C,U$17*%
X226414100Y-124975600D02*
G75*
G03*
X227938100Y-123070600I-190500J1714500D01*
G01*
X227938100Y-119133600D02*
X227938100Y-123070600D01*
X221715100Y-121292600D02*
X215238100Y-121292600D01*
X221715099Y-121292601D02*
G75*
G03*
X223112100Y-119514600I-190500J1587501D01*
G01*
X227938100Y-119133600D02*
X223112100Y-119133600D01*
X215238100Y-124975600D02*
X226414100Y-124975600D01*
X215238100Y-124975600D02*
X215238100Y-121292600D01*
%TO.C,U$18*%
X203727100Y-140745600D02*
G75*
G03*
X205251100Y-138840600I-190500J1714500D01*
G01*
X205251100Y-134903600D02*
X205251100Y-138840600D01*
X199028100Y-137062600D02*
X192551100Y-137062600D01*
X199028099Y-137062601D02*
G75*
G03*
X200425100Y-135284600I-190500J1587501D01*
G01*
X205251100Y-134903600D02*
X200425100Y-134903600D01*
X192551100Y-140745600D02*
X203727100Y-140745600D01*
X192551100Y-140745600D02*
X192551100Y-137062600D01*
%TO.C,U$19*%
X249071100Y-140745600D02*
G75*
G03*
X250595100Y-138840600I-190500J1714500D01*
G01*
X250595100Y-134903600D02*
X250595100Y-138840600D01*
X244372100Y-137062600D02*
X237895100Y-137062600D01*
X244372099Y-137062601D02*
G75*
G03*
X245769100Y-135284600I-190500J1587501D01*
G01*
X250595100Y-134903600D02*
X245769100Y-134903600D01*
X237895100Y-140745600D02*
X249071100Y-140745600D01*
X237895100Y-140745600D02*
X237895100Y-137062600D01*
%TO.C,U$2*%
X19707100Y-79972600D02*
G75*
G03*
X21231100Y-78067600I-190500J1714500D01*
G01*
X21231100Y-74130600D02*
X21231100Y-78067600D01*
X15008100Y-76289600D02*
X8531100Y-76289600D01*
X15008099Y-76289601D02*
G75*
G03*
X16405100Y-74511600I-190500J1587501D01*
G01*
X21231100Y-74130600D02*
X16405100Y-74130600D01*
X8531100Y-79972600D02*
X19707100Y-79972600D01*
X8531100Y-79972600D02*
X8531100Y-76289600D01*
%TO.C,U$20*%
X226414100Y-156160600D02*
G75*
G03*
X227938100Y-154255600I-190500J1714500D01*
G01*
X227938100Y-150318600D02*
X227938100Y-154255600D01*
X221715100Y-152477600D02*
X215238100Y-152477600D01*
X221715099Y-152477601D02*
G75*
G03*
X223112100Y-150699600I-190500J1587501D01*
G01*
X227938100Y-150318600D02*
X223112100Y-150318600D01*
X215238100Y-156160600D02*
X226414100Y-156160600D01*
X215238100Y-156160600D02*
X215238100Y-152477600D01*
%TO.C,U$21*%
X203727100Y-171930600D02*
G75*
G03*
X205251100Y-170025600I-190500J1714500D01*
G01*
X205251100Y-166088600D02*
X205251100Y-170025600D01*
X199028100Y-168247600D02*
X192551100Y-168247600D01*
X199028099Y-168247601D02*
G75*
G03*
X200425100Y-166469600I-190500J1587501D01*
G01*
X205251100Y-166088600D02*
X200425100Y-166088600D01*
X192551100Y-171930600D02*
X203727100Y-171930600D01*
X192551100Y-171930600D02*
X192551100Y-168247600D01*
%TO.C,U$4*%
X48063100Y-77246600D02*
G75*
G03*
X49587100Y-75341600I-190500J1714500D01*
G01*
X49587100Y-71404600D02*
X49587100Y-75341600D01*
X43364100Y-73563600D02*
X36887100Y-73563600D01*
X43364099Y-73563601D02*
G75*
G03*
X44761100Y-71785600I-190500J1587501D01*
G01*
X49587100Y-71404600D02*
X44761100Y-71404600D01*
X36887100Y-77246600D02*
X48063100Y-77246600D01*
X36887100Y-77246600D02*
X36887100Y-73563600D01*
%TO.C,U$5*%
X74635100Y-89009600D02*
G75*
G03*
X76159100Y-87104600I-190500J1714500D01*
G01*
X76159100Y-83167600D02*
X76159100Y-87104600D01*
X69936100Y-85326600D02*
X63459100Y-85326600D01*
X69936099Y-85326601D02*
G75*
G03*
X71333100Y-83548600I-190500J1587501D01*
G01*
X76159100Y-83167600D02*
X71333100Y-83167600D01*
X63459100Y-89009600D02*
X74635100Y-89009600D01*
X63459100Y-89009600D02*
X63459100Y-85326600D01*
%TO.C,U$6*%
X81594100Y-156160600D02*
G75*
G03*
X83118100Y-154255600I-190500J1714500D01*
G01*
X83118100Y-150318600D02*
X83118100Y-154255600D01*
X76895100Y-152477600D02*
X70418100Y-152477600D01*
X76895099Y-152477601D02*
G75*
G03*
X78292100Y-150699600I-190500J1587501D01*
G01*
X83118100Y-150318600D02*
X78292100Y-150318600D01*
X70418100Y-156160600D02*
X81594100Y-156160600D01*
X70418100Y-156160600D02*
X70418100Y-152477600D01*
%TO.C,U$7*%
X104282100Y-171929600D02*
G75*
G03*
X105806100Y-170024600I-190500J1714500D01*
G01*
X105806100Y-166087600D02*
X105806100Y-170024600D01*
X99583100Y-168246600D02*
X93106100Y-168246600D01*
X99583099Y-168246601D02*
G75*
G03*
X100980100Y-166468600I-190500J1587501D01*
G01*
X105806100Y-166087600D02*
X100980100Y-166087600D01*
X93106100Y-171929600D02*
X104282100Y-171929600D01*
X93106100Y-171929600D02*
X93106100Y-168246600D01*
%TO.C,U$8*%
X154367100Y-89009600D02*
G75*
G03*
X155891100Y-87104600I-190500J1714500D01*
G01*
X155891100Y-83167600D02*
X155891100Y-87104600D01*
X149668100Y-85326600D02*
X143191100Y-85326600D01*
X149668099Y-85326601D02*
G75*
G03*
X151065100Y-83548600I-190500J1587501D01*
G01*
X155891100Y-83167600D02*
X151065100Y-83167600D01*
X143191100Y-89009600D02*
X154367100Y-89009600D01*
X143191100Y-89009600D02*
X143191100Y-85326600D01*
%TO.C,U$9*%
X233429100Y-61026600D02*
G75*
G03*
X234953100Y-59121600I-190500J1714500D01*
G01*
X234953100Y-55184600D02*
X234953100Y-59121600D01*
X228730100Y-57343600D02*
X222253100Y-57343600D01*
X228730099Y-57343601D02*
G75*
G03*
X230127100Y-55565600I-190500J1587501D01*
G01*
X234953100Y-55184600D02*
X230127100Y-55184600D01*
X222253100Y-61026600D02*
X233429100Y-61026600D01*
X222253100Y-61026600D02*
X222253100Y-57343600D01*
%TD*%
M02*
